%TF.GenerationSoftware,KiCad,Pcbnew,9.0.0*%
%TF.CreationDate,2025-10-01T16:31:19-04:00*%
%TF.ProjectId,can_gauge_interface,63616e5f-6761-4756-9765-5f696e746572,0.2*%
%TF.SameCoordinates,Original*%
%TF.FileFunction,Copper,L4,Bot*%
%TF.FilePolarity,Positive*%
%FSLAX46Y46*%
G04 Gerber Fmt 4.6, Leading zero omitted, Abs format (unit mm)*
G04 Created by KiCad (PCBNEW 9.0.0) date 2025-10-01 16:31:19*
%MOMM*%
%LPD*%
G01*
G04 APERTURE LIST*
G04 Aperture macros list*
%AMRoundRect*
0 Rectangle with rounded corners*
0 $1 Rounding radius*
0 $2 $3 $4 $5 $6 $7 $8 $9 X,Y pos of 4 corners*
0 Add a 4 corners polygon primitive as box body*
4,1,4,$2,$3,$4,$5,$6,$7,$8,$9,$2,$3,0*
0 Add four circle primitives for the rounded corners*
1,1,$1+$1,$2,$3*
1,1,$1+$1,$4,$5*
1,1,$1+$1,$6,$7*
1,1,$1+$1,$8,$9*
0 Add four rect primitives between the rounded corners*
20,1,$1+$1,$2,$3,$4,$5,0*
20,1,$1+$1,$4,$5,$6,$7,0*
20,1,$1+$1,$6,$7,$8,$9,0*
20,1,$1+$1,$8,$9,$2,$3,0*%
G04 Aperture macros list end*
%TA.AperFunction,ComponentPad*%
%ADD10RoundRect,0.250001X1.599999X-1.099999X1.599999X1.099999X-1.599999X1.099999X-1.599999X-1.099999X0*%
%TD*%
%TA.AperFunction,ComponentPad*%
%ADD11O,3.700000X2.700000*%
%TD*%
%TA.AperFunction,ComponentPad*%
%ADD12R,1.408000X1.408000*%
%TD*%
%TA.AperFunction,ComponentPad*%
%ADD13C,1.408000*%
%TD*%
%TA.AperFunction,ComponentPad*%
%ADD14C,3.316000*%
%TD*%
%TA.AperFunction,ComponentPad*%
%ADD15R,1.700000X1.700000*%
%TD*%
%TA.AperFunction,ComponentPad*%
%ADD16O,1.700000X1.700000*%
%TD*%
%TA.AperFunction,ComponentPad*%
%ADD17C,1.600000*%
%TD*%
%TA.AperFunction,ComponentPad*%
%ADD18O,1.600000X1.600000*%
%TD*%
%TA.AperFunction,ComponentPad*%
%ADD19O,3.200000X1.900000*%
%TD*%
%TA.AperFunction,ComponentPad*%
%ADD20RoundRect,0.250000X-0.550000X0.550000X-0.550000X-0.550000X0.550000X-0.550000X0.550000X0.550000X0*%
%TD*%
%TA.AperFunction,ComponentPad*%
%ADD21RoundRect,0.250000X0.550000X0.550000X-0.550000X0.550000X-0.550000X-0.550000X0.550000X-0.550000X0*%
%TD*%
%TA.AperFunction,ComponentPad*%
%ADD22RoundRect,0.250000X-0.550000X-0.550000X0.550000X-0.550000X0.550000X0.550000X-0.550000X0.550000X0*%
%TD*%
%TA.AperFunction,ComponentPad*%
%ADD23RoundRect,0.250000X0.550000X-0.550000X0.550000X0.550000X-0.550000X0.550000X-0.550000X-0.550000X0*%
%TD*%
%TA.AperFunction,ViaPad*%
%ADD24C,0.812800*%
%TD*%
%TA.AperFunction,Conductor*%
%ADD25C,0.508000*%
%TD*%
%TA.AperFunction,Conductor*%
%ADD26C,0.304800*%
%TD*%
G04 APERTURE END LIST*
D10*
%TO.P,J3,1,Pin_1*%
%TO.N,/AN1*%
X63080000Y-193820000D03*
D11*
%TO.P,J3,2,Pin_2*%
%TO.N,GND*%
X63080000Y-189620000D03*
%TO.P,J3,3,Pin_3*%
%TO.N,/AN4*%
X63080000Y-185420000D03*
%TO.P,J3,4,Pin_4*%
%TO.N,/AN2*%
X68580000Y-193820000D03*
%TO.P,J3,5,Pin_5*%
%TO.N,GND*%
X68580000Y-189620000D03*
%TO.P,J3,6,Pin_6*%
%TO.N,/AN3*%
X68580000Y-185420000D03*
%TD*%
D10*
%TO.P,J2,1,Pin_1*%
%TO.N,/Tach*%
X63080000Y-165100000D03*
D11*
%TO.P,J2,2,Pin_2*%
%TO.N,GND*%
X63080000Y-160900000D03*
%TO.P,J2,3,Pin_3*%
X63080000Y-156700000D03*
%TO.P,J2,4,Pin_4*%
%TO.N,+12V*%
X63080000Y-152500000D03*
%TO.P,J2,5,Pin_5*%
%TO.N,/Speed*%
X68580000Y-165100000D03*
%TO.P,J2,6,Pin_6*%
%TO.N,/CAN_H*%
X68580000Y-160900000D03*
%TO.P,J2,7,Pin_7*%
%TO.N,/CAN_L*%
X68580000Y-156700000D03*
%TO.P,J2,8,Pin_8*%
%TO.N,GND*%
X68580000Y-152500000D03*
%TD*%
D12*
%TO.P,J1,1,VBUS*%
%TO.N,unconnected-(J1-VBUS-Pad1)*%
X64770000Y-137160000D03*
D13*
%TO.P,J1,2,D-*%
%TO.N,/USB_D-*%
X64770000Y-134660000D03*
%TO.P,J1,3,D+*%
%TO.N,/USB_D+*%
X62770000Y-134660000D03*
%TO.P,J1,4,GND*%
%TO.N,GND*%
X62770000Y-137160000D03*
D14*
%TO.P,J1,5,Shield*%
%TO.N,unconnected-(J1-Shield-Pad5)*%
X60070000Y-129890000D03*
%TO.N,unconnected-(J1-Shield-Pad5)_1*%
X60070000Y-141930000D03*
%TD*%
D15*
%TO.P,J7,1,Pin_1*%
%TO.N,/ROM_~{CS}*%
X124460000Y-129540000D03*
%TD*%
%TO.P,J9,1,Pin_1*%
%TO.N,+12V*%
X81280000Y-127000000D03*
D16*
%TO.P,J9,2,Pin_2*%
%TO.N,+7V*%
X83820000Y-127000000D03*
%TO.P,J9,3,Pin_3*%
%TO.N,+5V*%
X86360000Y-127000000D03*
%TO.P,J9,4,Pin_4*%
%TO.N,GND*%
X88900000Y-127000000D03*
%TD*%
D17*
%TO.P,R10,1*%
%TO.N,+5VA*%
X93980000Y-189230000D03*
D18*
%TO.P,R10,2*%
%TO.N,/DAC1_~{CS}*%
X86360000Y-189230000D03*
%TD*%
D17*
%TO.P,C16,1*%
%TO.N,+5VA*%
X95250000Y-198120000D03*
%TO.P,C16,2*%
%TO.N,GND*%
X95250000Y-200620000D03*
%TD*%
D15*
%TO.P,JP2,1,A*%
%TO.N,/CAN_L*%
X80010000Y-157480000D03*
D16*
%TO.P,JP2,2,B*%
%TO.N,Net-(JP2-B)*%
X80010000Y-154940000D03*
%TD*%
D17*
%TO.P,R6,1*%
%TO.N,+5V*%
X106680000Y-161290000D03*
D18*
%TO.P,R6,2*%
%TO.N,/~{MCLR}*%
X114300000Y-161290000D03*
%TD*%
D15*
%TO.P,J8,1,Pin_1*%
%TO.N,/DAC2_~{CS}*%
X125730000Y-186690000D03*
D16*
%TO.P,J8,2,Pin_2*%
%TO.N,/DAC1_~{CS}*%
X123190000Y-186690000D03*
%TD*%
D19*
%TO.P,SW1,1,1*%
%TO.N,GND*%
X114300000Y-173910000D03*
X101800000Y-173910000D03*
%TO.P,SW1,2,2*%
%TO.N,/~{MCLR}*%
X114300000Y-168910000D03*
X101800000Y-168910000D03*
%TD*%
D15*
%TO.P,J6,1,Pin_1*%
%TO.N,/CAN_~{CS}*%
X104140000Y-142240000D03*
%TD*%
D17*
%TO.P,R9,1*%
%TO.N,+5V*%
X129540000Y-139700000D03*
D18*
%TO.P,R9,2*%
%TO.N,/ROM_~{CS}*%
X129540000Y-132080000D03*
%TD*%
D15*
%TO.P,JP1,1,A*%
%TO.N,/INT*%
X142240000Y-119380000D03*
D16*
%TO.P,JP1,2,C*%
%TO.N,/INT{slash}ICSP_CLK*%
X142240000Y-116840000D03*
%TO.P,JP1,3,B*%
%TO.N,/ICSP_CLK*%
X142240000Y-114300000D03*
%TD*%
D20*
%TO.P,U8,1,Vdd*%
%TO.N,+5VA*%
X91440000Y-193040000D03*
D17*
%TO.P,U8,2,NC*%
%TO.N,unconnected-(U8-NC-Pad2)*%
X88900000Y-193040000D03*
%TO.P,U8,3,~{CS}*%
%TO.N,/DAC1_~{CS}*%
X86360000Y-193040000D03*
%TO.P,U8,4,SCK*%
%TO.N,/SCK*%
X83820000Y-193040000D03*
%TO.P,U8,5,SDI*%
%TO.N,/MOSI*%
X81280000Y-193040000D03*
%TO.P,U8,6,NC*%
%TO.N,unconnected-(U8-NC-Pad6)*%
X78740000Y-193040000D03*
%TO.P,U8,7,NC*%
%TO.N,unconnected-(U8-NC-Pad7)*%
X76200000Y-193040000D03*
%TO.P,U8,8,~{LDAC}*%
%TO.N,GND*%
X76200000Y-200660000D03*
%TO.P,U8,9,~{SHDN}*%
%TO.N,+5VA*%
X78740000Y-200660000D03*
%TO.P,U8,10,VB*%
%TO.N,/AN2*%
X81280000Y-200660000D03*
%TO.P,U8,11,VrefB*%
%TO.N,+5VA*%
X83820000Y-200660000D03*
%TO.P,U8,12,Vss*%
%TO.N,GND*%
X86360000Y-200660000D03*
%TO.P,U8,13,VrefA*%
%TO.N,+5VA*%
X88900000Y-200660000D03*
%TO.P,U8,14,VA*%
%TO.N,/AN1*%
X91440000Y-200660000D03*
%TD*%
D21*
%TO.P,U3,1,TXD*%
%TO.N,/CAN_TX*%
X93980000Y-162560000D03*
D17*
%TO.P,U3,2,VSS*%
%TO.N,GND*%
X93980000Y-160020000D03*
%TO.P,U3,3,VDD*%
%TO.N,+5V*%
X93980000Y-157480000D03*
%TO.P,U3,4,RXD*%
%TO.N,/CAN_RX*%
X93980000Y-154940000D03*
%TO.P,U3,5,SPLIT*%
%TO.N,unconnected-(U3-SPLIT-Pad5)*%
X86360000Y-154940000D03*
%TO.P,U3,6,CANL*%
%TO.N,/CAN_L*%
X86360000Y-157480000D03*
%TO.P,U3,7,CANH*%
%TO.N,/CAN_H*%
X86360000Y-160020000D03*
%TO.P,U3,8,STBY*%
%TO.N,GND*%
X86360000Y-162560000D03*
%TD*%
%TO.P,R7,1*%
%TO.N,+5V*%
X96520000Y-138430000D03*
D18*
%TO.P,R7,2*%
%TO.N,/CAN_~{CS}*%
X104140000Y-138430000D03*
%TD*%
D15*
%TO.P,J4,1,Pin_1*%
%TO.N,/~{MCLR}*%
X124460000Y-106680000D03*
D16*
%TO.P,J4,2,Pin_2*%
%TO.N,+5V*%
X127000000Y-106680000D03*
%TO.P,J4,3,Pin_3*%
%TO.N,GND*%
X129540000Y-106680000D03*
%TO.P,J4,4,Pin_4*%
%TO.N,/ICSP_DAT*%
X132080000Y-106680000D03*
%TO.P,J4,5,Pin_5*%
%TO.N,/ICSP_CLK*%
X134620000Y-106680000D03*
%TD*%
D17*
%TO.P,C14,1*%
%TO.N,GND*%
X97790000Y-159980000D03*
%TO.P,C14,2*%
%TO.N,+5V*%
X97790000Y-157480000D03*
%TD*%
D15*
%TO.P,J5,1,Pin_1*%
%TO.N,/MOSI*%
X110490000Y-129540000D03*
D16*
%TO.P,J5,2,Pin_2*%
%TO.N,/SCK*%
X113030000Y-129540000D03*
%TO.P,J5,3,Pin_3*%
%TO.N,/MISO*%
X115570000Y-129540000D03*
%TD*%
D15*
%TO.P,J10,1,Pin_1*%
%TO.N,+5VA*%
X124460000Y-198120000D03*
%TD*%
D22*
%TO.P,U1,1,VDD*%
%TO.N,+5V*%
X127000000Y-152400000D03*
D17*
%TO.P,U1,2,RA5/SOSCI/T1CKI/OSC1/CLKIN*%
%TO.N,/CAN_~{CS}*%
X127000000Y-154940000D03*
%TO.P,U1,3,RA4/AN3/SOSCO/T1G/OSC2/CLKOUT/CLKR*%
%TO.N,/CLK*%
X127000000Y-157480000D03*
%TO.P,U1,4,RA3/T1G/~{SS}/~{MCLR}/Vpp*%
%TO.N,/~{MCLR}*%
X127000000Y-160020000D03*
%TO.P,U1,5,PWM1/CWG1A/T0CKI/RC5*%
%TO.N,/ROM_~{CS}*%
X127000000Y-162560000D03*
%TO.P,U1,6,CWG1B/C1OUT/C2OUT/RC4*%
%TO.N,/Speed*%
X127000000Y-165100000D03*
%TO.P,U1,7,CLKR/C1IN3-/C2IN3-/DACOUT2/AN7/RC3*%
%TO.N,/Tach*%
X127000000Y-167640000D03*
%TO.P,U1,8,~{SS}/PWM2/AN8/RC6*%
%TO.N,unconnected-(U1-~{SS}{slash}PWM2{slash}AN8{slash}RC6-Pad8)*%
X127000000Y-170180000D03*
%TO.P,U1,9,SDO/AN9/RC7*%
%TO.N,/MOSI*%
X127000000Y-172720000D03*
%TO.P,U1,10,RB7/TX/CK*%
%TO.N,/DAC1_~{CS}*%
X127000000Y-175260000D03*
%TO.P,U1,11,RB6/SCL/SCK*%
%TO.N,/SCK*%
X134620000Y-175260000D03*
%TO.P,U1,12,RB5/AN11/RX/DX*%
%TO.N,/DAC2_~{CS}*%
X134620000Y-172720000D03*
%TO.P,U1,13,RB4/AN10/SDA/SDI*%
%TO.N,/MISO*%
X134620000Y-170180000D03*
%TO.P,U1,14,C2IN2-/C1IN2-/DACOUT1/AN6/RC2*%
%TO.N,unconnected-(U1-C2IN2-{slash}C1IN2-{slash}DACOUT1{slash}AN6{slash}RC2-Pad14)*%
X134620000Y-167640000D03*
%TO.P,U1,15,ICSPCLK/~{CWGFLT}/C2IN-/C1IN-/AN5/RC1*%
%TO.N,/INT{slash}ICSP_CLK*%
X134620000Y-165100000D03*
%TO.P,U1,16,ICSPDAT/C2IN+/C1IN+/Vref+/AN4/RC0*%
%TO.N,/ICSP_DAT*%
X134620000Y-162560000D03*
%TO.P,U1,17,Vusb3v3*%
%TO.N,Net-(U1-Vusb3v3)*%
X134620000Y-160020000D03*
%TO.P,U1,18,RA1/D-/ICSPCLK*%
%TO.N,/USB_D-*%
X134620000Y-157480000D03*
%TO.P,U1,19,RA0/D+/ICSPDAT*%
%TO.N,/USB_D+*%
X134620000Y-154940000D03*
%TO.P,U1,20,VSS*%
%TO.N,GND*%
X134620000Y-152400000D03*
%TD*%
%TO.P,C12,1*%
%TO.N,/~{MCLR}*%
X119380000Y-161290000D03*
%TO.P,C12,2*%
%TO.N,GND*%
X119380000Y-163790000D03*
%TD*%
%TO.P,C17,1*%
%TO.N,+5VA*%
X118110000Y-198120000D03*
%TO.P,C17,2*%
%TO.N,GND*%
X118110000Y-200620000D03*
%TD*%
%TO.P,C10,1*%
%TO.N,+5V*%
X129540000Y-148590000D03*
%TO.P,C10,2*%
%TO.N,GND*%
X132040000Y-148590000D03*
%TD*%
%TO.P,C13,1*%
%TO.N,GND*%
X101600000Y-146050000D03*
%TO.P,C13,2*%
%TO.N,+5V*%
X104100000Y-146050000D03*
%TD*%
%TO.P,R11,1*%
%TO.N,+5VA*%
X116840000Y-189230000D03*
D18*
%TO.P,R11,2*%
%TO.N,/DAC2_~{CS}*%
X109220000Y-189230000D03*
%TD*%
D23*
%TO.P,U2,1,TXCAN*%
%TO.N,/CAN_TX*%
X101600000Y-157480000D03*
D17*
%TO.P,U2,2,RXCAN*%
%TO.N,/CAN_RX*%
X104140000Y-157480000D03*
%TO.P,U2,3,CLKOUT/SOF*%
%TO.N,unconnected-(U2-CLKOUT{slash}SOF-Pad3)*%
X106680000Y-157480000D03*
%TO.P,U2,4,~{TX0RTS}*%
%TO.N,+5V*%
X109220000Y-157480000D03*
%TO.P,U2,5,~{TX1RTS}*%
X111760000Y-157480000D03*
%TO.P,U2,6,~{TX2RTS}*%
X114300000Y-157480000D03*
%TO.P,U2,7,OSC2*%
%TO.N,unconnected-(U2-OSC2-Pad7)*%
X116840000Y-157480000D03*
%TO.P,U2,8,OSC1*%
%TO.N,/CLK*%
X119380000Y-157480000D03*
%TO.P,U2,9,VSS*%
%TO.N,GND*%
X121920000Y-157480000D03*
%TO.P,U2,10,~{RX1BF}*%
%TO.N,unconnected-(U2-~{RX1BF}-Pad10)*%
X121920000Y-149860000D03*
%TO.P,U2,11,~{RX0BF}*%
%TO.N,unconnected-(U2-~{RX0BF}-Pad11)*%
X119380000Y-149860000D03*
%TO.P,U2,12,~{INT}*%
%TO.N,/INT*%
X116840000Y-149860000D03*
%TO.P,U2,13,SCK*%
%TO.N,/SCK*%
X114300000Y-149860000D03*
%TO.P,U2,14,SI*%
%TO.N,/MOSI*%
X111760000Y-149860000D03*
%TO.P,U2,15,SO*%
%TO.N,/MISO*%
X109220000Y-149860000D03*
%TO.P,U2,16,~{CS}*%
%TO.N,/CAN_~{CS}*%
X106680000Y-149860000D03*
%TO.P,U2,17,~{RESET}*%
%TO.N,+5V*%
X104140000Y-149860000D03*
%TO.P,U2,18,VDD*%
X101600000Y-149860000D03*
%TD*%
D20*
%TO.P,U4,1,~{CS}*%
%TO.N,/ROM_~{CS}*%
X121920000Y-134620000D03*
D17*
%TO.P,U4,2,MISO*%
%TO.N,/MISO*%
X119380000Y-134620000D03*
%TO.P,U4,3,~{WP}*%
%TO.N,+5V*%
X116840000Y-134620000D03*
%TO.P,U4,4,GND*%
%TO.N,GND*%
X114300000Y-134620000D03*
%TO.P,U4,5,MOSI*%
%TO.N,/MOSI*%
X114300000Y-142240000D03*
%TO.P,U4,6,SCK*%
%TO.N,/SCK*%
X116840000Y-142240000D03*
%TO.P,U4,7,~{HOLD}*%
%TO.N,+5V*%
X119380000Y-142240000D03*
%TO.P,U4,8,VCC*%
X121920000Y-142240000D03*
%TD*%
%TO.P,C15,1*%
%TO.N,GND*%
X125730000Y-137200000D03*
%TO.P,C15,2*%
%TO.N,+5V*%
X125730000Y-139700000D03*
%TD*%
D20*
%TO.P,U9,1,Vdd*%
%TO.N,+5VA*%
X114300000Y-193040000D03*
D17*
%TO.P,U9,2,NC*%
%TO.N,unconnected-(U9-NC-Pad2)*%
X111760000Y-193040000D03*
%TO.P,U9,3,~{CS}*%
%TO.N,/DAC2_~{CS}*%
X109220000Y-193040000D03*
%TO.P,U9,4,SCK*%
%TO.N,/SCK*%
X106680000Y-193040000D03*
%TO.P,U9,5,SDI*%
%TO.N,/MOSI*%
X104140000Y-193040000D03*
%TO.P,U9,6,NC*%
%TO.N,unconnected-(U9-NC-Pad6)*%
X101600000Y-193040000D03*
%TO.P,U9,7,NC*%
%TO.N,unconnected-(U9-NC-Pad7)*%
X99060000Y-193040000D03*
%TO.P,U9,8,~{LDAC}*%
%TO.N,GND*%
X99060000Y-200660000D03*
%TO.P,U9,9,~{SHDN}*%
%TO.N,+5VA*%
X101600000Y-200660000D03*
%TO.P,U9,10,VB*%
%TO.N,/AN4*%
X104140000Y-200660000D03*
%TO.P,U9,11,VrefB*%
%TO.N,+5VA*%
X106680000Y-200660000D03*
%TO.P,U9,12,Vss*%
%TO.N,GND*%
X109220000Y-200660000D03*
%TO.P,U9,13,VrefA*%
%TO.N,+5VA*%
X111760000Y-200660000D03*
%TO.P,U9,14,VA*%
%TO.N,/AN3*%
X114300000Y-200660000D03*
%TD*%
D24*
%TO.N,GND*%
X128270000Y-109220000D03*
X68580000Y-148590000D03*
X78740000Y-179070000D03*
X66040000Y-125730000D03*
X71755000Y-111760000D03*
X52070000Y-148590000D03*
X73660000Y-113665000D03*
X86360000Y-132715000D03*
X122555000Y-123825000D03*
X138430000Y-182880000D03*
X99060000Y-138430000D03*
X63500000Y-124460000D03*
X58420000Y-179070000D03*
X96520000Y-179070000D03*
X86360000Y-115570000D03*
X139700000Y-116840000D03*
X106680000Y-179070000D03*
X110490000Y-109220000D03*
X125730000Y-109220000D03*
X113030000Y-111760000D03*
X146050000Y-196850000D03*
X118110000Y-129540000D03*
X67310000Y-111760000D03*
X110490000Y-119380000D03*
X137160000Y-129540000D03*
X95250000Y-134620000D03*
X83820000Y-143510000D03*
X68580000Y-138430000D03*
X121920000Y-168910000D03*
X73660000Y-173990000D03*
X138430000Y-199390000D03*
X60960000Y-205740000D03*
X69215000Y-126365000D03*
X119380000Y-144780000D03*
X59690000Y-105410000D03*
X146050000Y-193040000D03*
X55880000Y-157480000D03*
X57150000Y-134620000D03*
X143510000Y-129540000D03*
X143510000Y-189230000D03*
X120650000Y-181610000D03*
X75565000Y-117475000D03*
X74930000Y-165100000D03*
X104140000Y-104775000D03*
X81280000Y-129540000D03*
X111760000Y-179070000D03*
X78740000Y-143510000D03*
X52070000Y-168910000D03*
X118110000Y-116840000D03*
X91440000Y-173990000D03*
X68580000Y-173990000D03*
X65405000Y-111760000D03*
X55880000Y-121920000D03*
X73660000Y-148590000D03*
X121285000Y-120015000D03*
X81280000Y-132715000D03*
X132080000Y-139700000D03*
X138430000Y-189230000D03*
X124460000Y-124460000D03*
X63500000Y-179070000D03*
X132080000Y-162560000D03*
X110490000Y-127000000D03*
X59690000Y-153670000D03*
X128905000Y-189230000D03*
X107950000Y-119380000D03*
X99060000Y-120650000D03*
X140970000Y-149860000D03*
X90170000Y-116840000D03*
X87630000Y-143510000D03*
X142240000Y-149860000D03*
X132715000Y-157480000D03*
X143510000Y-142240000D03*
X93980000Y-151130000D03*
X63500000Y-148590000D03*
X83820000Y-148590000D03*
X52070000Y-130810000D03*
X143510000Y-124460000D03*
X128270000Y-186690000D03*
X132080000Y-165100000D03*
X134620000Y-119380000D03*
X85090000Y-104140000D03*
X52070000Y-198120000D03*
X129540000Y-165100000D03*
X138430000Y-105410000D03*
X91440000Y-168910000D03*
X130810000Y-109220000D03*
X52070000Y-116840000D03*
X106680000Y-205740000D03*
X129540000Y-152400000D03*
X134620000Y-134620000D03*
X93980000Y-107950000D03*
X116840000Y-177800000D03*
X52070000Y-119380000D03*
X59690000Y-165100000D03*
X146050000Y-205740000D03*
X101600000Y-125730000D03*
X133350000Y-109220000D03*
X144780000Y-182880000D03*
X144780000Y-177800000D03*
X144780000Y-111760000D03*
X55880000Y-189230000D03*
X59690000Y-121920000D03*
X78740000Y-173990000D03*
X97790000Y-168910000D03*
X115570000Y-140335000D03*
X73660000Y-179070000D03*
X73660000Y-138430000D03*
X55880000Y-119380000D03*
X52070000Y-153670000D03*
X95250000Y-125730000D03*
X72390000Y-163830000D03*
X86360000Y-129540000D03*
X106680000Y-194945000D03*
X132080000Y-182880000D03*
X104140000Y-163830000D03*
X143510000Y-161290000D03*
X75565000Y-114935000D03*
X78740000Y-189230000D03*
X112395000Y-161290000D03*
X63500000Y-168910000D03*
X87630000Y-138430000D03*
X121920000Y-144780000D03*
X138430000Y-177800000D03*
X140970000Y-189230000D03*
X113030000Y-114300000D03*
X83820000Y-165100000D03*
X60960000Y-134620000D03*
X115570000Y-144145000D03*
X118110000Y-111760000D03*
X68580000Y-132715000D03*
X68580000Y-179070000D03*
X71120000Y-125730000D03*
X123190000Y-118110000D03*
X63500000Y-173990000D03*
X52070000Y-179070000D03*
X129540000Y-114300000D03*
X58420000Y-168910000D03*
X77470000Y-163830000D03*
X138430000Y-205740000D03*
X55880000Y-161290000D03*
X105410000Y-121920000D03*
X116840000Y-205740000D03*
X93980000Y-143510000D03*
X99060000Y-118110000D03*
X100330000Y-130810000D03*
X102870000Y-152400000D03*
X52070000Y-163830000D03*
X87630000Y-148590000D03*
X118110000Y-121920000D03*
X72390000Y-114935000D03*
X123190000Y-189230000D03*
X52070000Y-138430000D03*
X83820000Y-129540000D03*
X144780000Y-172720000D03*
X63500000Y-130810000D03*
X90805000Y-132715000D03*
X104140000Y-194945000D03*
X101600000Y-152400000D03*
X63500000Y-121920000D03*
X73660000Y-143510000D03*
X86360000Y-176530000D03*
X73660000Y-168910000D03*
X52070000Y-111760000D03*
X137160000Y-172720000D03*
X107950000Y-109220000D03*
X101600000Y-138430000D03*
X71120000Y-135890000D03*
X97790000Y-189230000D03*
X137160000Y-121920000D03*
X118110000Y-106680000D03*
X52070000Y-124460000D03*
X139700000Y-119380000D03*
X78740000Y-138430000D03*
X83820000Y-194945000D03*
X146050000Y-189230000D03*
X113030000Y-106680000D03*
X72390000Y-154940000D03*
X121920000Y-172720000D03*
X134620000Y-114300000D03*
X59690000Y-119380000D03*
X78740000Y-184150000D03*
X129540000Y-175260000D03*
X138430000Y-166370000D03*
X132080000Y-132080000D03*
X107950000Y-173990000D03*
X81280000Y-194945000D03*
X97790000Y-182880000D03*
X124460000Y-162560000D03*
X83820000Y-138430000D03*
X78740000Y-148590000D03*
X93980000Y-147320000D03*
X55880000Y-124460000D03*
X93980000Y-139700000D03*
X81280000Y-165100000D03*
X108585000Y-161290000D03*
X73660000Y-189230000D03*
X58420000Y-173990000D03*
X132715000Y-154940000D03*
X143510000Y-196850000D03*
X68580000Y-168910000D03*
X110490000Y-154940000D03*
X144780000Y-167640000D03*
X113030000Y-154940000D03*
X113030000Y-116840000D03*
X63500000Y-119380000D03*
X59690000Y-124460000D03*
X75565000Y-111760000D03*
X52070000Y-143510000D03*
X113030000Y-121920000D03*
X86360000Y-180340000D03*
X96520000Y-165100000D03*
X52070000Y-104140000D03*
X129540000Y-167640000D03*
X52070000Y-158750000D03*
X68580000Y-143510000D03*
X143510000Y-193040000D03*
X99060000Y-123190000D03*
X81280000Y-135890000D03*
X107950000Y-106680000D03*
X109220000Y-121920000D03*
X73660000Y-184150000D03*
X52070000Y-121920000D03*
X73660000Y-196850000D03*
X110490000Y-163830000D03*
X52070000Y-173990000D03*
X81280000Y-168910000D03*
X114300000Y-127000000D03*
X140970000Y-146050000D03*
X91440000Y-179070000D03*
X101600000Y-179070000D03*
X143510000Y-135890000D03*
%TO.N,+12V*%
X67945000Y-126365000D03*
%TO.N,Net-(U5-BOOT)*%
X71120000Y-114935000D03*
X71120000Y-124460000D03*
%TO.N,+7V*%
X102870000Y-103505000D03*
X83820000Y-104140000D03*
X130810000Y-189230000D03*
%TO.N,+5V*%
X100330000Y-119380000D03*
%TO.N,/~{MCLR}*%
X142240000Y-124460000D03*
X142240000Y-148590000D03*
%TO.N,/USB_D+*%
X122431875Y-122431875D03*
X101218172Y-124595578D03*
%TO.N,/USB_D-*%
X100194422Y-123571828D03*
X121408125Y-121408125D03*
X64770000Y-130810000D03*
%TO.N,/CAN_H*%
X72390000Y-156210000D03*
%TO.N,/MOSI*%
X97790000Y-187960000D03*
X99060000Y-129540000D03*
X97790000Y-184150000D03*
%TO.N,/DAC1_~{CS}*%
X86360000Y-181610000D03*
%TO.N,/INT*%
X140970000Y-144780000D03*
%TD*%
D25*
%TO.N,GND*%
X72390000Y-114935000D02*
X73660000Y-113665000D01*
X130810000Y-109220000D02*
X128270000Y-109220000D01*
X68580000Y-168910000D02*
X68580000Y-173990000D01*
X125730000Y-109220000D02*
X120650000Y-109220000D01*
X111760000Y-116840000D02*
X113030000Y-116840000D01*
X121285000Y-120015000D02*
X123190000Y-118110000D01*
X107950000Y-118110000D02*
X109220000Y-116840000D01*
X121920000Y-168910000D02*
X121920000Y-172720000D01*
X120650000Y-109220000D02*
X118110000Y-111760000D01*
X107950000Y-119380000D02*
X107950000Y-118110000D01*
X134620000Y-110490000D02*
X134620000Y-114300000D01*
X109220000Y-116840000D02*
X113030000Y-116840000D01*
X85090000Y-104140000D02*
X90170000Y-104140000D01*
X104140000Y-104775000D02*
X104140000Y-105410000D01*
X105410000Y-106680000D02*
X107950000Y-106680000D01*
X133350000Y-109220000D02*
X134620000Y-110490000D01*
X78740000Y-171450000D02*
X78740000Y-173990000D01*
X110490000Y-119380000D02*
X110490000Y-118110000D01*
X90170000Y-104140000D02*
X93980000Y-107950000D01*
X110490000Y-118110000D02*
X111760000Y-116840000D01*
X81280000Y-168910000D02*
X78740000Y-171450000D01*
X104140000Y-105410000D02*
X105410000Y-106680000D01*
X73660000Y-168910000D02*
X73660000Y-173990000D01*
%TO.N,+12V*%
X54610000Y-146050000D02*
X61060000Y-152500000D01*
X67945000Y-126365000D02*
X67310000Y-127000000D01*
X77470000Y-128270000D02*
X68580000Y-128270000D01*
X68580000Y-128270000D02*
X67945000Y-127635000D01*
X67310000Y-127000000D02*
X57150000Y-127000000D01*
X57150000Y-127000000D02*
X54610000Y-129540000D01*
X61060000Y-152500000D02*
X63080000Y-152500000D01*
X78740000Y-127000000D02*
X77470000Y-128270000D01*
X54610000Y-129540000D02*
X54610000Y-146050000D01*
X81280000Y-127000000D02*
X78740000Y-127000000D01*
X67945000Y-127635000D02*
X67945000Y-126365000D01*
D26*
%TO.N,Net-(U5-BOOT)*%
X71120000Y-114935000D02*
X71120000Y-124460000D01*
D25*
%TO.N,+7V*%
X146685000Y-105410000D02*
X146685000Y-184150000D01*
X102870000Y-103505000D02*
X144780000Y-103505000D01*
X144780000Y-103505000D02*
X146685000Y-105410000D01*
X146685000Y-184150000D02*
X145415000Y-185420000D01*
X136525000Y-185420000D02*
X132715000Y-189230000D01*
X145415000Y-185420000D02*
X136525000Y-185420000D01*
X132715000Y-189230000D02*
X130810000Y-189230000D01*
D26*
X83820000Y-127000000D02*
X83820000Y-104140000D01*
%TO.N,+5V*%
X119380000Y-139065000D02*
X116840000Y-136525000D01*
X119380000Y-142240000D02*
X121920000Y-142240000D01*
D25*
X128270000Y-148590000D02*
X127000000Y-149860000D01*
D26*
X119380000Y-142240000D02*
X119380000Y-139065000D01*
D25*
X86360000Y-127000000D02*
X86360000Y-124460000D01*
X129540000Y-148590000D02*
X127000000Y-146050000D01*
X101600000Y-149860000D02*
X99060000Y-149860000D01*
D26*
X96520000Y-146050000D02*
X100330000Y-149860000D01*
X100330000Y-149860000D02*
X101600000Y-149860000D01*
D25*
X100330000Y-119380000D02*
X101600000Y-120650000D01*
X91440000Y-119380000D02*
X100330000Y-119380000D01*
D26*
X109220000Y-156210000D02*
X109220000Y-157480000D01*
D25*
X124460000Y-139700000D02*
X121920000Y-142240000D01*
X120650000Y-128270000D02*
X120015000Y-128905000D01*
X120015000Y-128905000D02*
X120015000Y-130810000D01*
X97790000Y-151130000D02*
X97790000Y-157480000D01*
X125730000Y-132715000D02*
X129540000Y-136525000D01*
X127000000Y-149860000D02*
X127000000Y-152400000D01*
D26*
X109220000Y-158750000D02*
X106680000Y-161290000D01*
X104140000Y-149860000D02*
X104140000Y-152400000D01*
D25*
X125730000Y-139700000D02*
X124460000Y-139700000D01*
X120650000Y-127000000D02*
X120650000Y-128270000D01*
D26*
X109220000Y-157480000D02*
X114300000Y-157480000D01*
D25*
X121920000Y-132715000D02*
X125730000Y-132715000D01*
X97790000Y-157480000D02*
X93980000Y-157480000D01*
D26*
X127000000Y-106680000D02*
X127000000Y-110490000D01*
D25*
X129540000Y-139700000D02*
X129540000Y-148590000D01*
D26*
X105410000Y-153670000D02*
X106680000Y-153670000D01*
D25*
X99060000Y-149860000D02*
X97790000Y-151130000D01*
X101600000Y-148590000D02*
X101600000Y-149860000D01*
X114300000Y-120650000D02*
X120650000Y-127000000D01*
X120015000Y-130810000D02*
X121920000Y-132715000D01*
X129540000Y-136525000D02*
X129540000Y-139700000D01*
D26*
X104140000Y-149860000D02*
X104140000Y-146090000D01*
D25*
X86360000Y-124460000D02*
X91440000Y-119380000D01*
X129540000Y-139700000D02*
X125730000Y-139700000D01*
D26*
X109220000Y-157480000D02*
X109220000Y-158750000D01*
D25*
X103505000Y-147955000D02*
X102235000Y-147955000D01*
X127000000Y-146050000D02*
X104100000Y-146050000D01*
D26*
X127000000Y-110490000D02*
X116840000Y-120650000D01*
D25*
X101600000Y-120650000D02*
X114300000Y-120650000D01*
X102235000Y-147955000D02*
X101600000Y-148590000D01*
D26*
X96520000Y-138430000D02*
X96520000Y-146050000D01*
X106680000Y-153670000D02*
X109220000Y-156210000D01*
D25*
X129540000Y-148590000D02*
X128270000Y-148590000D01*
X104100000Y-146050000D02*
X104100000Y-147360000D01*
D26*
X116840000Y-120650000D02*
X114300000Y-120650000D01*
X116840000Y-136525000D02*
X116840000Y-134620000D01*
X104140000Y-146090000D02*
X104100000Y-146050000D01*
D25*
X104100000Y-147360000D02*
X103505000Y-147955000D01*
D26*
X104140000Y-152400000D02*
X105410000Y-153670000D01*
%TO.N,/~{MCLR}*%
X142240000Y-148590000D02*
X142240000Y-124460000D01*
%TO.N,/USB_D+*%
X73017588Y-134636703D02*
X73137588Y-134636703D01*
X74577588Y-134396703D02*
X74577588Y-133985000D01*
X75417588Y-134636689D02*
X75537588Y-134636689D01*
X75177588Y-133573297D02*
X75177588Y-133985000D01*
X84395645Y-133985000D02*
X91469540Y-133985000D01*
X62770000Y-133445000D02*
X63500000Y-132715000D01*
X74577588Y-133985000D02*
X74577588Y-133573297D01*
X73377588Y-134225000D02*
X73377588Y-133985000D01*
X91469540Y-133985000D02*
X100858961Y-124595578D01*
X72777588Y-134225000D02*
X72777588Y-134396703D01*
X137325100Y-133544640D02*
X137325100Y-153445822D01*
X73617588Y-133333297D02*
X73737588Y-133333297D01*
X122431875Y-122431875D02*
X122515825Y-122347925D01*
X75177588Y-134225000D02*
X75177588Y-134396689D01*
X122515825Y-122347925D02*
X126128385Y-122347925D01*
X74217588Y-134636703D02*
X74337588Y-134636703D01*
X73977588Y-133985000D02*
X73977588Y-134396703D01*
X74817588Y-133333297D02*
X74937588Y-133333297D01*
X62770000Y-134660000D02*
X62770000Y-133445000D01*
X73377588Y-134396703D02*
X73377588Y-134225000D01*
X66675000Y-132715000D02*
X67945000Y-133985000D01*
X67945000Y-133985000D02*
X72537588Y-133985000D01*
X75777588Y-134396689D02*
X75777588Y-134225000D01*
X73377588Y-133985000D02*
X73377588Y-133573297D01*
X63500000Y-132715000D02*
X66675000Y-132715000D01*
X75177588Y-133985000D02*
X75177588Y-134225000D01*
X135830922Y-154940000D02*
X134620000Y-154940000D01*
X73977588Y-133573297D02*
X73977588Y-133985000D01*
X76017588Y-133985000D02*
X76137588Y-133985000D01*
X137325100Y-153445822D02*
X135830922Y-154940000D01*
X126128385Y-122347925D02*
X137325100Y-133544640D01*
X76137588Y-133985000D02*
X84395645Y-133985000D01*
X100858961Y-124595578D02*
X101218172Y-124595578D01*
X73977588Y-134396703D02*
G75*
G03*
X74217588Y-134636712I240012J3D01*
G01*
X73137588Y-134636703D02*
G75*
G03*
X73377603Y-134396703I12J240003D01*
G01*
X72777588Y-134396703D02*
G75*
G03*
X73017588Y-134636712I240012J3D01*
G01*
X74577588Y-133573297D02*
G75*
G02*
X74817588Y-133333288I240012J-3D01*
G01*
X75537588Y-134636689D02*
G75*
G03*
X75777589Y-134396689I12J239989D01*
G01*
X75777588Y-134225000D02*
G75*
G02*
X76017588Y-133984988I240012J0D01*
G01*
X73737588Y-133333297D02*
G75*
G02*
X73977603Y-133573297I12J-240003D01*
G01*
X73377588Y-133573297D02*
G75*
G02*
X73617588Y-133333288I240012J-3D01*
G01*
X75177588Y-134396689D02*
G75*
G03*
X75417588Y-134636712I240012J-11D01*
G01*
X74937588Y-133333297D02*
G75*
G02*
X75177603Y-133573297I12J-240003D01*
G01*
X74337588Y-134636703D02*
G75*
G03*
X74577603Y-134396703I12J240003D01*
G01*
X72537588Y-133985000D02*
G75*
G02*
X72777600Y-134225000I12J-240000D01*
G01*
%TO.N,/USB_D-*%
X126517665Y-121408125D02*
X138264900Y-133155360D01*
X138264900Y-133155360D02*
X138264900Y-153835100D01*
X67310000Y-130810000D02*
X68110100Y-131610100D01*
X68110100Y-131610100D02*
X92515360Y-131610100D01*
X100194422Y-123931039D02*
X100194422Y-123571828D01*
X64770000Y-130810000D02*
X67310000Y-130810000D01*
X121408125Y-121408125D02*
X126517665Y-121408125D01*
X92515360Y-131610100D02*
X100194422Y-123931039D01*
X138264900Y-153835100D02*
X134620000Y-157480000D01*
%TO.N,/Speed*%
X123190000Y-166370000D02*
X72390000Y-166370000D01*
X127000000Y-165100000D02*
X124460000Y-165100000D01*
X72390000Y-166370000D02*
X71120000Y-165100000D01*
X71120000Y-165100000D02*
X68580000Y-165100000D01*
X124460000Y-165100000D02*
X123190000Y-166370000D01*
%TO.N,/Tach*%
X127000000Y-167640000D02*
X120650000Y-167640000D01*
X116840000Y-171450000D02*
X97790000Y-171450000D01*
X120650000Y-167640000D02*
X116840000Y-171450000D01*
X65620000Y-167640000D02*
X63080000Y-165100000D01*
X97790000Y-171450000D02*
X93980000Y-167640000D01*
X93980000Y-167640000D02*
X65620000Y-167640000D01*
%TO.N,/CAN_H*%
X72390000Y-158750000D02*
X70240000Y-160900000D01*
X70240000Y-160900000D02*
X68580000Y-160900000D01*
X72390000Y-156210000D02*
X72390000Y-158750000D01*
%TO.N,/ICSP_DAT*%
X139700000Y-129540000D02*
X139700000Y-160020000D01*
X132080000Y-106680000D02*
X132080000Y-121920000D01*
X139700000Y-160020000D02*
X137160000Y-162560000D01*
X132080000Y-121920000D02*
X139700000Y-129540000D01*
X137160000Y-162560000D02*
X134620000Y-162560000D01*
%TO.N,/SCK*%
X99695000Y-186055000D02*
X106680000Y-193040000D01*
X112395000Y-135890000D02*
X112395000Y-133350000D01*
X83820000Y-193040000D02*
X83820000Y-187325000D01*
X83820000Y-187325000D02*
X85090000Y-186055000D01*
X116840000Y-142240000D02*
X116840000Y-140335000D01*
X112395000Y-133350000D02*
X113030000Y-132715000D01*
X116840000Y-140335000D02*
X112395000Y-135890000D01*
X85090000Y-186055000D02*
X99695000Y-186055000D01*
X113030000Y-132715000D02*
X113030000Y-129540000D01*
%TO.N,/MOSI*%
X104140000Y-193040000D02*
X99060000Y-187960000D01*
X110490000Y-135890000D02*
X114300000Y-139700000D01*
X99060000Y-187960000D02*
X97790000Y-187960000D01*
X114300000Y-139700000D02*
X114300000Y-142240000D01*
X81280000Y-186690000D02*
X81280000Y-193040000D01*
X97790000Y-184150000D02*
X83820000Y-184150000D01*
X110490000Y-129540000D02*
X110490000Y-135890000D01*
X99060000Y-129540000D02*
X110490000Y-129540000D01*
X83820000Y-184150000D02*
X81280000Y-186690000D01*
%TO.N,/ROM_~{CS}*%
X128270000Y-162560000D02*
X130810000Y-160020000D01*
X130810000Y-153670000D02*
X134620000Y-149860000D01*
X134620000Y-137160000D02*
X129540000Y-132080000D01*
X127000000Y-162560000D02*
X128270000Y-162560000D01*
X134620000Y-149860000D02*
X134620000Y-137160000D01*
X130810000Y-160020000D02*
X130810000Y-153670000D01*
%TO.N,/DAC2_~{CS}*%
X130810000Y-179070000D02*
X125730000Y-184150000D01*
X134620000Y-172720000D02*
X132080000Y-172720000D01*
X132080000Y-172720000D02*
X130810000Y-173990000D01*
X125730000Y-184150000D02*
X125730000Y-186690000D01*
X130810000Y-173990000D02*
X130810000Y-179070000D01*
%TO.N,/DAC1_~{CS}*%
X123190000Y-186690000D02*
X120650000Y-186690000D01*
X115570000Y-181610000D02*
X86360000Y-181610000D01*
X127000000Y-175260000D02*
X127000000Y-177800000D01*
X120650000Y-186690000D02*
X115570000Y-181610000D01*
X127000000Y-177800000D02*
X123190000Y-181610000D01*
X123190000Y-181610000D02*
X123190000Y-186690000D01*
%TO.N,/INT{slash}ICSP_CLK*%
X143510000Y-116840000D02*
X142240000Y-116840000D01*
X144780000Y-157480000D02*
X144780000Y-118110000D01*
X144780000Y-118110000D02*
X143510000Y-116840000D01*
X134620000Y-165100000D02*
X137160000Y-165100000D01*
X137160000Y-165100000D02*
X144780000Y-157480000D01*
%TO.N,/INT*%
X140970000Y-123190000D02*
X142240000Y-121920000D01*
X142240000Y-121920000D02*
X142240000Y-119380000D01*
X140970000Y-144780000D02*
X140970000Y-123190000D01*
%TD*%
%TA.AperFunction,Conductor*%
%TO.N,GND*%
G36*
X61022256Y-167655493D02*
G01*
X61026175Y-167656375D01*
X61026176Y-167656376D01*
X61265672Y-167710315D01*
X61409932Y-167720500D01*
X63425604Y-167720500D01*
X63583273Y-167740418D01*
X63731036Y-167798922D01*
X63859607Y-167892334D01*
X63873909Y-167906194D01*
X64297787Y-168330071D01*
X64693043Y-168725327D01*
X64874237Y-168856974D01*
X65073796Y-168958653D01*
X65286803Y-169027864D01*
X65508015Y-169062900D01*
X93128003Y-169062900D01*
X93285672Y-169082818D01*
X93433435Y-169141322D01*
X93562006Y-169234734D01*
X93576309Y-169248594D01*
X96863043Y-172535328D01*
X97044238Y-172666974D01*
X97243796Y-172768653D01*
X97456803Y-172837864D01*
X97678015Y-172872900D01*
X97678016Y-172872900D01*
X97678018Y-172872900D01*
X98400639Y-172872900D01*
X98406059Y-172873584D01*
X98411490Y-172872993D01*
X98484795Y-172883531D01*
X98558308Y-172892818D01*
X98563389Y-172894829D01*
X98568795Y-172895607D01*
X98637202Y-172924054D01*
X98706071Y-172951322D01*
X98710488Y-172954531D01*
X98715535Y-172956630D01*
X98774716Y-173001195D01*
X98834642Y-173044734D01*
X98838125Y-173048944D01*
X98842488Y-173052230D01*
X98903625Y-173120945D01*
X99021835Y-173275000D01*
X101660570Y-173275000D01*
X101610402Y-173284979D01*
X101492110Y-173333978D01*
X101385649Y-173405112D01*
X101295112Y-173495649D01*
X101223978Y-173602110D01*
X101174979Y-173720402D01*
X101150000Y-173845981D01*
X101150000Y-173974019D01*
X101174979Y-174099598D01*
X101223978Y-174217890D01*
X101295112Y-174324351D01*
X101385649Y-174414888D01*
X101492110Y-174486022D01*
X101610402Y-174535021D01*
X101735981Y-174560000D01*
X101864019Y-174560000D01*
X101939425Y-174545001D01*
X102435000Y-174545001D01*
X102435000Y-176129999D01*
X102435001Y-176130000D01*
X102595506Y-176130000D01*
X102884026Y-176092015D01*
X102884033Y-176092014D01*
X103165124Y-176016695D01*
X103433992Y-175905327D01*
X103686006Y-175759826D01*
X103916888Y-175582664D01*
X104122664Y-175376888D01*
X104299826Y-175146006D01*
X104445327Y-174893992D01*
X104556694Y-174625126D01*
X104578165Y-174545000D01*
X111521835Y-174545000D01*
X111543305Y-174625126D01*
X111654672Y-174893992D01*
X111800173Y-175146006D01*
X111977335Y-175376888D01*
X112183111Y-175582664D01*
X112413993Y-175759826D01*
X112666007Y-175905327D01*
X112934875Y-176016695D01*
X113215966Y-176092014D01*
X113215973Y-176092015D01*
X113504494Y-176130000D01*
X113664999Y-176130000D01*
X113665000Y-176129999D01*
X113665000Y-174545001D01*
X113664999Y-174545000D01*
X111521835Y-174545000D01*
X104578165Y-174545000D01*
X102435001Y-174545000D01*
X102435000Y-174545001D01*
X101939425Y-174545001D01*
X101989598Y-174535021D01*
X102107890Y-174486022D01*
X102214351Y-174414888D01*
X102304888Y-174324351D01*
X102376022Y-174217890D01*
X102425021Y-174099598D01*
X102450000Y-173974019D01*
X102450000Y-173845981D01*
X102425021Y-173720402D01*
X102376022Y-173602110D01*
X102304888Y-173495649D01*
X102214351Y-173405112D01*
X102107890Y-173333978D01*
X101989598Y-173284979D01*
X101939430Y-173275000D01*
X104578165Y-173275000D01*
X104696375Y-173120945D01*
X104700759Y-173116514D01*
X104704010Y-173111193D01*
X104756595Y-173060090D01*
X104808160Y-173007983D01*
X104813509Y-173004781D01*
X104817981Y-173000436D01*
X104881613Y-172964022D01*
X104944526Y-172926370D01*
X104950504Y-172924599D01*
X104955915Y-172921503D01*
X105026618Y-172902053D01*
X105096904Y-172881234D01*
X105103131Y-172881005D01*
X105109146Y-172879351D01*
X105199361Y-172872900D01*
X110900639Y-172872900D01*
X111058308Y-172892818D01*
X111206071Y-172951322D01*
X111334642Y-173044734D01*
X111403625Y-173120945D01*
X111521835Y-173275000D01*
X114160570Y-173275000D01*
X114110402Y-173284979D01*
X113992110Y-173333978D01*
X113885649Y-173405112D01*
X113795112Y-173495649D01*
X113723978Y-173602110D01*
X113674979Y-173720402D01*
X113650000Y-173845981D01*
X113650000Y-173974019D01*
X113674979Y-174099598D01*
X113723978Y-174217890D01*
X113795112Y-174324351D01*
X113885649Y-174414888D01*
X113992110Y-174486022D01*
X114110402Y-174535021D01*
X114235981Y-174560000D01*
X114364019Y-174560000D01*
X114439425Y-174545001D01*
X114935000Y-174545001D01*
X114935000Y-176129999D01*
X114935001Y-176130000D01*
X115095506Y-176130000D01*
X115384026Y-176092015D01*
X115384033Y-176092014D01*
X115665124Y-176016695D01*
X115933992Y-175905327D01*
X116186006Y-175759826D01*
X116416888Y-175582664D01*
X116622664Y-175376888D01*
X116799826Y-175146006D01*
X116945327Y-174893992D01*
X117056694Y-174625126D01*
X117078165Y-174545000D01*
X114935001Y-174545000D01*
X114935000Y-174545001D01*
X114439425Y-174545001D01*
X114489598Y-174535021D01*
X114607890Y-174486022D01*
X114714351Y-174414888D01*
X114804888Y-174324351D01*
X114876022Y-174217890D01*
X114925021Y-174099598D01*
X114950000Y-173974019D01*
X114950000Y-173845981D01*
X114925021Y-173720402D01*
X114876022Y-173602110D01*
X114804888Y-173495649D01*
X114714351Y-173405112D01*
X114607890Y-173333978D01*
X114489598Y-173284979D01*
X114439430Y-173275000D01*
X117078165Y-173275000D01*
X117116468Y-173225080D01*
X117125368Y-173148167D01*
X117182320Y-172999800D01*
X117274380Y-172870258D01*
X117395765Y-172767680D01*
X117453241Y-172734496D01*
X117585762Y-172666974D01*
X117766957Y-172535328D01*
X121053691Y-169248594D01*
X121179265Y-169151190D01*
X121325117Y-169088074D01*
X121482083Y-169063213D01*
X121501997Y-169062900D01*
X123826000Y-169062900D01*
X123983669Y-169082818D01*
X124131432Y-169141322D01*
X124260003Y-169234734D01*
X124361304Y-169357186D01*
X124428970Y-169500983D01*
X124458749Y-169657091D01*
X124460000Y-169696900D01*
X124460000Y-177800000D01*
X121920000Y-180340000D01*
X121920000Y-180968305D01*
X121880658Y-181045519D01*
X121880659Y-181045520D01*
X121871347Y-181063795D01*
X121802135Y-181276806D01*
X121767100Y-181498017D01*
X121767100Y-182246000D01*
X121747182Y-182403669D01*
X121688678Y-182551432D01*
X121595266Y-182680003D01*
X121472814Y-182781304D01*
X121329017Y-182848970D01*
X121172909Y-182878749D01*
X121133100Y-182880000D01*
X119114897Y-182880000D01*
X118957228Y-182860082D01*
X118809465Y-182801578D01*
X118680894Y-182708166D01*
X118666591Y-182694306D01*
X116496956Y-180524671D01*
X116315763Y-180393027D01*
X116315762Y-180393026D01*
X116224517Y-180346535D01*
X116116204Y-180291347D01*
X115903197Y-180222136D01*
X115903195Y-180222135D01*
X115903193Y-180222135D01*
X115806869Y-180206879D01*
X115681985Y-180187100D01*
X115681982Y-180187100D01*
X87419145Y-180187100D01*
X87261476Y-180167182D01*
X87121914Y-180111925D01*
X87121883Y-180111988D01*
X87121108Y-180111606D01*
X87113713Y-180108678D01*
X87103493Y-180102919D01*
X87103268Y-180102808D01*
X86900179Y-180018686D01*
X86900169Y-180018683D01*
X86687853Y-179961792D01*
X86469910Y-179933100D01*
X86250090Y-179933100D01*
X86032146Y-179961792D01*
X85819830Y-180018683D01*
X85819820Y-180018686D01*
X85616731Y-180102808D01*
X85616728Y-180102809D01*
X85426376Y-180212709D01*
X85426370Y-180212713D01*
X85251971Y-180346535D01*
X85096535Y-180501971D01*
X84962713Y-180676370D01*
X84962709Y-180676376D01*
X84852809Y-180866728D01*
X84852808Y-180866731D01*
X84768686Y-181069820D01*
X84768683Y-181069830D01*
X84711792Y-181282146D01*
X84683100Y-181500089D01*
X84683100Y-181719910D01*
X84711792Y-181937856D01*
X84715842Y-181958214D01*
X84713486Y-181958682D01*
X84730991Y-182086442D01*
X84712730Y-182244312D01*
X84655781Y-182392680D01*
X84563724Y-182522225D01*
X84442343Y-182624807D01*
X84299264Y-182693979D01*
X84143478Y-182725396D01*
X84097026Y-182727100D01*
X83708015Y-182727100D01*
X83575287Y-182748121D01*
X83486801Y-182762136D01*
X83287264Y-182826970D01*
X83287258Y-182826973D01*
X83273796Y-182831347D01*
X83273795Y-182831347D01*
X83273792Y-182831348D01*
X83074242Y-182933023D01*
X83074239Y-182933024D01*
X83074237Y-182933026D01*
X82947720Y-183024947D01*
X82893044Y-183064672D01*
X80194669Y-185763045D01*
X80063029Y-185944233D01*
X80063025Y-185944240D01*
X80031087Y-186006923D01*
X80031086Y-186006924D01*
X79961348Y-186143792D01*
X79961347Y-186143794D01*
X79892135Y-186356806D01*
X79857100Y-186578017D01*
X79857100Y-190375763D01*
X79837182Y-190533432D01*
X79778678Y-190681195D01*
X79685266Y-190809766D01*
X79562814Y-190911067D01*
X79419017Y-190978733D01*
X79262909Y-191008512D01*
X79140350Y-191004339D01*
X78875711Y-190969500D01*
X78875708Y-190969500D01*
X78604292Y-190969500D01*
X78335200Y-191004925D01*
X78073030Y-191075174D01*
X77822272Y-191179041D01*
X77787001Y-191199406D01*
X77640496Y-191260991D01*
X77483278Y-191284207D01*
X77325226Y-191267595D01*
X77176271Y-191212199D01*
X77152999Y-191199406D01*
X77117727Y-191179041D01*
X76866969Y-191075174D01*
X76604799Y-191004925D01*
X76335708Y-190969500D01*
X76200000Y-190969500D01*
X76200000Y-190500000D01*
X71547840Y-190500000D01*
X71601568Y-190346456D01*
X71622442Y-190255000D01*
X69217793Y-190255000D01*
X69279076Y-190193717D01*
X69377570Y-190046310D01*
X69445414Y-189882520D01*
X69480000Y-189708642D01*
X69480000Y-189531358D01*
X69445414Y-189357480D01*
X69377570Y-189193690D01*
X69279076Y-189046283D01*
X69217793Y-188985000D01*
X71622442Y-188985000D01*
X71601568Y-188893543D01*
X71504378Y-188615792D01*
X71376697Y-188350658D01*
X71376692Y-188350649D01*
X71220139Y-188101497D01*
X71220139Y-188101496D01*
X71071967Y-187915695D01*
X70989234Y-187780005D01*
X70942845Y-187628004D01*
X70935715Y-187469241D01*
X70968291Y-187313693D01*
X71038527Y-187171134D01*
X71071966Y-187125109D01*
X71220545Y-186938797D01*
X71377137Y-186689583D01*
X71504841Y-186424402D01*
X71602051Y-186146591D01*
X71667546Y-185859642D01*
X71700500Y-185567164D01*
X71700500Y-185272836D01*
X71667546Y-184980358D01*
X71602051Y-184693409D01*
X71504841Y-184415598D01*
X71377137Y-184150417D01*
X71220545Y-183901203D01*
X71220541Y-183901197D01*
X71037042Y-183671096D01*
X71037037Y-183671091D01*
X71037034Y-183671087D01*
X70828913Y-183462966D01*
X70828908Y-183462962D01*
X70828903Y-183462957D01*
X70598802Y-183279458D01*
X70598795Y-183279453D01*
X70349584Y-183122863D01*
X70084410Y-182995162D01*
X70084402Y-182995159D01*
X69806586Y-182897947D01*
X69519646Y-182832455D01*
X69519637Y-182832453D01*
X69391929Y-182818064D01*
X69227164Y-182799500D01*
X67932836Y-182799500D01*
X67784755Y-182816184D01*
X67640362Y-182832453D01*
X67640353Y-182832455D01*
X67353413Y-182897947D01*
X67075597Y-182995159D01*
X67075589Y-182995162D01*
X66810415Y-183122863D01*
X66561204Y-183279453D01*
X66561197Y-183279458D01*
X66331096Y-183462957D01*
X66331087Y-183462965D01*
X66331087Y-183462966D01*
X66278301Y-183515751D01*
X66152732Y-183613152D01*
X66006880Y-183676268D01*
X65849914Y-183701129D01*
X65691697Y-183686173D01*
X65542170Y-183632340D01*
X65410728Y-183543012D01*
X65381710Y-183515763D01*
X65328913Y-183462966D01*
X65328908Y-183462962D01*
X65328903Y-183462957D01*
X65098802Y-183279458D01*
X65098795Y-183279453D01*
X64849584Y-183122863D01*
X64584410Y-182995162D01*
X64584402Y-182995159D01*
X64306586Y-182897947D01*
X64019646Y-182832455D01*
X64019637Y-182832453D01*
X63891929Y-182818064D01*
X63727164Y-182799500D01*
X62432836Y-182799500D01*
X62284755Y-182816184D01*
X62140362Y-182832453D01*
X62140353Y-182832455D01*
X61853413Y-182897947D01*
X61575597Y-182995159D01*
X61575589Y-182995162D01*
X61310415Y-183122863D01*
X61061204Y-183279453D01*
X61061197Y-183279458D01*
X60831096Y-183462957D01*
X60622957Y-183671096D01*
X60439458Y-183901197D01*
X60439453Y-183901204D01*
X60282863Y-184150415D01*
X60155162Y-184415589D01*
X60155159Y-184415597D01*
X60057947Y-184693413D01*
X59992455Y-184980353D01*
X59992453Y-184980362D01*
X59983805Y-185057117D01*
X59959500Y-185272836D01*
X59959500Y-185567164D01*
X59967757Y-185640447D01*
X59992453Y-185859637D01*
X59992455Y-185859646D01*
X60057947Y-186146586D01*
X60155159Y-186424402D01*
X60155162Y-186424410D01*
X60282863Y-186689584D01*
X60439452Y-186938793D01*
X60588034Y-187125109D01*
X60670766Y-187260799D01*
X60717154Y-187412800D01*
X60724284Y-187571563D01*
X60691708Y-187727111D01*
X60621471Y-187869670D01*
X60588033Y-187915693D01*
X60439866Y-188101488D01*
X60439860Y-188101497D01*
X60283307Y-188350649D01*
X60283302Y-188350658D01*
X60155621Y-188615792D01*
X60058431Y-188893543D01*
X60037558Y-188985000D01*
X62442207Y-188985000D01*
X62380924Y-189046283D01*
X62282430Y-189193690D01*
X62214586Y-189357480D01*
X62180000Y-189531358D01*
X62180000Y-189708642D01*
X62214586Y-189882520D01*
X62282430Y-190046310D01*
X62380924Y-190193717D01*
X62442207Y-190255000D01*
X60037558Y-190255000D01*
X60058431Y-190346456D01*
X60112159Y-190500000D01*
X50305300Y-190500000D01*
X50305300Y-185298344D01*
X53923900Y-185298344D01*
X53923900Y-185541655D01*
X53955657Y-185782882D01*
X54018631Y-186017903D01*
X54018633Y-186017909D01*
X54111739Y-186242689D01*
X54233399Y-186453409D01*
X54233404Y-186453417D01*
X54381511Y-186646433D01*
X54553566Y-186818488D01*
X54746582Y-186966595D01*
X54746590Y-186966600D01*
X54746593Y-186966602D01*
X54957306Y-187088258D01*
X54957307Y-187088258D01*
X54957310Y-187088260D01*
X55046267Y-187125107D01*
X55182096Y-187181369D01*
X55417116Y-187244342D01*
X55658345Y-187276100D01*
X55901655Y-187276100D01*
X56142884Y-187244342D01*
X56377904Y-187181369D01*
X56602694Y-187088258D01*
X56813407Y-186966602D01*
X56813412Y-186966597D01*
X56813417Y-186966595D01*
X57006433Y-186818488D01*
X57006433Y-186818487D01*
X57006438Y-186818484D01*
X57178484Y-186646438D01*
X57178488Y-186646433D01*
X57326595Y-186453417D01*
X57326600Y-186453409D01*
X57326602Y-186453407D01*
X57448258Y-186242694D01*
X57541369Y-186017904D01*
X57604342Y-185782884D01*
X57636100Y-185541655D01*
X57636100Y-185298345D01*
X57604342Y-185057116D01*
X57541369Y-184822096D01*
X57448258Y-184597306D01*
X57326602Y-184386593D01*
X57326600Y-184386590D01*
X57326595Y-184386582D01*
X57178488Y-184193566D01*
X57006433Y-184021511D01*
X56813417Y-183873404D01*
X56813409Y-183873399D01*
X56602689Y-183751739D01*
X56377909Y-183658633D01*
X56377908Y-183658632D01*
X56377904Y-183658631D01*
X56279784Y-183632340D01*
X56142882Y-183595657D01*
X55901655Y-183563900D01*
X55658345Y-183563900D01*
X55417117Y-183595657D01*
X55182096Y-183658631D01*
X55182090Y-183658633D01*
X54957310Y-183751739D01*
X54746590Y-183873399D01*
X54746582Y-183873404D01*
X54553566Y-184021511D01*
X54381511Y-184193566D01*
X54233404Y-184386582D01*
X54233399Y-184386590D01*
X54111739Y-184597310D01*
X54018633Y-184822090D01*
X54018631Y-184822096D01*
X53955657Y-185057117D01*
X53923900Y-185298344D01*
X50305300Y-185298344D01*
X50305300Y-174545000D01*
X99021835Y-174545000D01*
X99043305Y-174625126D01*
X99154672Y-174893992D01*
X99300173Y-175146006D01*
X99477335Y-175376888D01*
X99683111Y-175582664D01*
X99913993Y-175759826D01*
X100166007Y-175905327D01*
X100434875Y-176016695D01*
X100715966Y-176092014D01*
X100715973Y-176092015D01*
X101004494Y-176130000D01*
X101164999Y-176130000D01*
X101165000Y-176129999D01*
X101165000Y-174545001D01*
X101164999Y-174545000D01*
X99021835Y-174545000D01*
X50305300Y-174545000D01*
X50305300Y-168274000D01*
X50325218Y-168116331D01*
X50383722Y-167968568D01*
X50477134Y-167839997D01*
X50599586Y-167738696D01*
X50743383Y-167671030D01*
X50899491Y-167641251D01*
X50939300Y-167640000D01*
X60882955Y-167640000D01*
X61022256Y-167655493D01*
G37*
%TD.AperFunction*%
%TA.AperFunction,Conductor*%
G36*
X67880924Y-189046283D02*
G01*
X67782430Y-189193690D01*
X67714586Y-189357480D01*
X67680000Y-189531358D01*
X67680000Y-189708642D01*
X67714586Y-189882520D01*
X67782430Y-190046310D01*
X67880924Y-190193717D01*
X67942207Y-190255000D01*
X63717793Y-190255000D01*
X63779076Y-190193717D01*
X63877570Y-190046310D01*
X63945414Y-189882520D01*
X63980000Y-189708642D01*
X63980000Y-189531358D01*
X63945414Y-189357480D01*
X63877570Y-189193690D01*
X63779076Y-189046283D01*
X63717793Y-188985000D01*
X67942207Y-188985000D01*
X67880924Y-189046283D01*
G37*
%TD.AperFunction*%
%TD*%
%TA.AperFunction,Conductor*%
%TO.N,GND*%
G36*
X60155621Y-190624207D02*
G01*
X60283302Y-190889341D01*
X60283307Y-190889350D01*
X60357769Y-191007855D01*
X60424788Y-191151954D01*
X60453866Y-191308194D01*
X60443175Y-191466757D01*
X60393388Y-191617679D01*
X60307631Y-191751478D01*
X60303873Y-191755938D01*
X60242285Y-191828343D01*
X60115282Y-192038431D01*
X60069679Y-192151742D01*
X60023624Y-192266176D01*
X59999559Y-192373030D01*
X59969685Y-192505673D01*
X59963480Y-192593566D01*
X59959500Y-192649932D01*
X59959500Y-194990068D01*
X59969685Y-195134328D01*
X60023624Y-195373823D01*
X60115282Y-195601568D01*
X60242285Y-195811657D01*
X60317325Y-195899876D01*
X60401346Y-195998654D01*
X60401351Y-195998658D01*
X60588342Y-196157714D01*
X60732468Y-196244841D01*
X60798433Y-196284718D01*
X61026176Y-196376376D01*
X61265672Y-196430315D01*
X61409932Y-196440500D01*
X61409936Y-196440500D01*
X64750064Y-196440500D01*
X64750068Y-196440500D01*
X64894328Y-196430315D01*
X65133824Y-196376376D01*
X65361567Y-196284718D01*
X65571657Y-196157714D01*
X65758654Y-195998654D01*
X65758657Y-195998650D01*
X65772517Y-195986861D01*
X65905521Y-195899876D01*
X66055978Y-195848701D01*
X66214435Y-195836550D01*
X66370936Y-195864188D01*
X66515647Y-195929878D01*
X66550187Y-195952729D01*
X66561195Y-195960540D01*
X66810415Y-196117136D01*
X67075589Y-196244837D01*
X67075592Y-196244838D01*
X67075598Y-196244841D01*
X67353409Y-196342051D01*
X67640358Y-196407546D01*
X67932836Y-196440500D01*
X67932841Y-196440500D01*
X69227159Y-196440500D01*
X69227164Y-196440500D01*
X69519642Y-196407546D01*
X69806591Y-196342051D01*
X70084402Y-196244841D01*
X70349583Y-196117137D01*
X70598797Y-195960545D01*
X70828913Y-195777034D01*
X71037034Y-195568913D01*
X71220545Y-195338797D01*
X71377137Y-195089583D01*
X71504841Y-194824402D01*
X71602051Y-194546591D01*
X71667546Y-194259642D01*
X71700500Y-193967164D01*
X71700500Y-193672836D01*
X71667546Y-193380358D01*
X71602051Y-193093409D01*
X71504841Y-192815598D01*
X71377137Y-192550417D01*
X71377136Y-192550415D01*
X71220546Y-192301204D01*
X71220540Y-192301196D01*
X71071966Y-192114890D01*
X70989233Y-191979201D01*
X70942845Y-191827199D01*
X70935715Y-191668437D01*
X70968291Y-191512889D01*
X71038528Y-191370329D01*
X71071968Y-191324303D01*
X71220138Y-191138505D01*
X71220139Y-191138502D01*
X71376692Y-190889350D01*
X71376697Y-190889341D01*
X71504378Y-190624207D01*
X71547840Y-190500000D01*
X76200000Y-190500000D01*
X76200000Y-190969500D01*
X76064292Y-190969500D01*
X75795200Y-191004925D01*
X75533030Y-191075174D01*
X75282272Y-191179041D01*
X75047220Y-191314749D01*
X74831894Y-191479975D01*
X74639975Y-191671894D01*
X74474749Y-191887220D01*
X74339041Y-192122272D01*
X74235174Y-192373030D01*
X74164925Y-192635200D01*
X74129500Y-192904291D01*
X74129500Y-193175708D01*
X74164925Y-193444799D01*
X74235174Y-193706969D01*
X74339041Y-193957727D01*
X74474749Y-194192779D01*
X74639975Y-194408105D01*
X74831895Y-194600025D01*
X75047220Y-194765250D01*
X75282272Y-194900958D01*
X75282273Y-194900958D01*
X75282276Y-194900960D01*
X75533031Y-195004826D01*
X75730095Y-195057629D01*
X75877233Y-195117676D01*
X76004819Y-195212429D01*
X76104832Y-195335935D01*
X76170988Y-195480433D01*
X76199131Y-195636844D01*
X76200000Y-195670025D01*
X76200000Y-198030492D01*
X76180082Y-198188161D01*
X76121578Y-198335924D01*
X76028166Y-198464495D01*
X75905714Y-198565796D01*
X75761917Y-198633462D01*
X75730092Y-198642889D01*
X75533190Y-198695648D01*
X75533188Y-198695649D01*
X75282503Y-198799487D01*
X75253980Y-198815954D01*
X76200000Y-199761974D01*
X76200000Y-200260000D01*
X76147339Y-200260000D01*
X76045606Y-200287259D01*
X75954394Y-200339920D01*
X75879920Y-200414394D01*
X75827259Y-200505606D01*
X75800000Y-200607339D01*
X75800000Y-200712661D01*
X75827259Y-200814394D01*
X75879920Y-200905606D01*
X75954394Y-200980080D01*
X76045606Y-201032741D01*
X76147339Y-201060000D01*
X76252661Y-201060000D01*
X76354394Y-201032741D01*
X76375254Y-201020697D01*
X76386088Y-201089098D01*
X76371132Y-201247315D01*
X76317299Y-201396842D01*
X76227971Y-201528284D01*
X76200707Y-201557318D01*
X75253980Y-202504045D01*
X75282494Y-202520509D01*
X75282497Y-202520510D01*
X75533175Y-202624346D01*
X75533196Y-202624353D01*
X75795294Y-202694581D01*
X76064325Y-202730000D01*
X76335675Y-202730000D01*
X76604705Y-202694581D01*
X76866803Y-202624353D01*
X76866818Y-202624348D01*
X77117496Y-202520512D01*
X77152492Y-202500307D01*
X77298996Y-202438721D01*
X77456214Y-202415503D01*
X77614266Y-202432113D01*
X77763222Y-202487508D01*
X77786500Y-202500305D01*
X77822270Y-202520957D01*
X77822272Y-202520958D01*
X77822276Y-202520960D01*
X78073031Y-202624826D01*
X78335199Y-202695074D01*
X78604292Y-202730500D01*
X78875708Y-202730500D01*
X79144801Y-202695074D01*
X79406969Y-202624826D01*
X79657724Y-202520960D01*
X79692992Y-202500598D01*
X79839495Y-202439011D01*
X79996713Y-202415792D01*
X80154765Y-202432402D01*
X80303721Y-202487795D01*
X80327008Y-202500598D01*
X80362268Y-202520956D01*
X80362271Y-202520957D01*
X80362276Y-202520960D01*
X80613031Y-202624826D01*
X80875199Y-202695074D01*
X81144292Y-202730500D01*
X81415708Y-202730500D01*
X81684801Y-202695074D01*
X81946969Y-202624826D01*
X82197724Y-202520960D01*
X82232992Y-202500598D01*
X82379495Y-202439011D01*
X82536713Y-202415792D01*
X82694765Y-202432402D01*
X82843721Y-202487795D01*
X82867008Y-202500598D01*
X82902268Y-202520956D01*
X82902271Y-202520957D01*
X82902276Y-202520960D01*
X83153031Y-202624826D01*
X83415199Y-202695074D01*
X83684292Y-202730500D01*
X83955708Y-202730500D01*
X84224801Y-202695074D01*
X84486969Y-202624826D01*
X84737724Y-202520960D01*
X84767022Y-202504045D01*
X84773495Y-202500308D01*
X84919999Y-202438721D01*
X85077216Y-202415503D01*
X85235268Y-202432113D01*
X85384224Y-202487507D01*
X85407502Y-202500305D01*
X85442497Y-202520509D01*
X85442496Y-202520509D01*
X85693181Y-202624348D01*
X85693196Y-202624353D01*
X85955294Y-202694581D01*
X86224325Y-202730000D01*
X86495675Y-202730000D01*
X86764705Y-202694581D01*
X87026803Y-202624353D01*
X87026818Y-202624348D01*
X87277496Y-202520512D01*
X87312492Y-202500307D01*
X87458996Y-202438721D01*
X87616214Y-202415503D01*
X87774266Y-202432113D01*
X87923222Y-202487508D01*
X87946500Y-202500305D01*
X87982270Y-202520957D01*
X87982272Y-202520958D01*
X87982276Y-202520960D01*
X88233031Y-202624826D01*
X88495199Y-202695074D01*
X88764292Y-202730500D01*
X89035708Y-202730500D01*
X89304801Y-202695074D01*
X89566969Y-202624826D01*
X89817724Y-202520960D01*
X89852992Y-202500598D01*
X89999495Y-202439011D01*
X90156713Y-202415792D01*
X90314765Y-202432402D01*
X90463721Y-202487795D01*
X90487008Y-202500598D01*
X90522268Y-202520956D01*
X90522271Y-202520957D01*
X90522276Y-202520960D01*
X90773031Y-202624826D01*
X91035199Y-202695074D01*
X91304292Y-202730500D01*
X91575708Y-202730500D01*
X91844801Y-202695074D01*
X92106969Y-202624826D01*
X92357724Y-202520960D01*
X92592777Y-202385252D01*
X92808105Y-202220025D01*
X93000025Y-202028105D01*
X93132256Y-201855777D01*
X93244039Y-201742817D01*
X93380404Y-201661204D01*
X93532782Y-201616067D01*
X93691598Y-201610243D01*
X93846873Y-201644098D01*
X93988850Y-201715504D01*
X94108608Y-201819975D01*
X94198623Y-201950947D01*
X94253239Y-202100190D01*
X94263817Y-202158979D01*
X94303979Y-202464045D01*
X94332494Y-202480509D01*
X94332497Y-202480510D01*
X94583175Y-202584346D01*
X94583196Y-202584353D01*
X94845294Y-202654581D01*
X95114325Y-202690000D01*
X95385675Y-202690000D01*
X95654705Y-202654581D01*
X95916803Y-202584353D01*
X95916823Y-202584346D01*
X96167492Y-202480514D01*
X96167506Y-202480507D01*
X96196018Y-202464045D01*
X96196018Y-202464044D01*
X95249293Y-201517317D01*
X95212772Y-201470235D01*
X95173356Y-201425558D01*
X95164218Y-201407640D01*
X95151888Y-201391744D01*
X95128222Y-201337056D01*
X95101157Y-201283983D01*
X95096762Y-201264353D01*
X95088773Y-201245892D01*
X95079452Y-201187043D01*
X95066434Y-201128900D01*
X95067058Y-201108793D01*
X95063912Y-201088926D01*
X95069519Y-201029605D01*
X95071104Y-200978595D01*
X95095606Y-200992741D01*
X95197339Y-201020000D01*
X95302661Y-201020000D01*
X95404394Y-200992741D01*
X95495606Y-200940080D01*
X95570080Y-200865606D01*
X95622741Y-200774394D01*
X95650000Y-200672661D01*
X95650000Y-200660000D01*
X96188025Y-200660000D01*
X97121625Y-201593600D01*
X97215953Y-201606018D01*
X98161972Y-200660000D01*
X98660000Y-200660000D01*
X98660000Y-200712661D01*
X98687259Y-200814394D01*
X98739920Y-200905606D01*
X98814394Y-200980080D01*
X98905606Y-201032741D01*
X99007339Y-201060000D01*
X99112661Y-201060000D01*
X99214394Y-201032741D01*
X99235254Y-201020697D01*
X99246088Y-201089099D01*
X99231132Y-201247316D01*
X99177299Y-201396843D01*
X99087971Y-201528285D01*
X99060707Y-201557319D01*
X98113980Y-202504045D01*
X98142494Y-202520509D01*
X98142497Y-202520510D01*
X98393175Y-202624346D01*
X98393196Y-202624353D01*
X98655294Y-202694581D01*
X98924325Y-202730000D01*
X99195675Y-202730000D01*
X99464705Y-202694581D01*
X99726803Y-202624353D01*
X99726818Y-202624348D01*
X99977496Y-202520512D01*
X100012492Y-202500307D01*
X100158996Y-202438721D01*
X100316214Y-202415503D01*
X100474266Y-202432113D01*
X100623222Y-202487508D01*
X100646500Y-202500305D01*
X100682270Y-202520957D01*
X100682272Y-202520958D01*
X100682276Y-202520960D01*
X100933031Y-202624826D01*
X101195199Y-202695074D01*
X101464292Y-202730500D01*
X101735708Y-202730500D01*
X102004801Y-202695074D01*
X102266969Y-202624826D01*
X102517724Y-202520960D01*
X102552992Y-202500598D01*
X102699495Y-202439011D01*
X102856713Y-202415792D01*
X103014765Y-202432402D01*
X103163721Y-202487795D01*
X103187008Y-202500598D01*
X103222268Y-202520956D01*
X103222271Y-202520957D01*
X103222276Y-202520960D01*
X103473031Y-202624826D01*
X103735199Y-202695074D01*
X104004292Y-202730500D01*
X104275708Y-202730500D01*
X104544801Y-202695074D01*
X104806969Y-202624826D01*
X105057724Y-202520960D01*
X105092992Y-202500598D01*
X105239495Y-202439011D01*
X105396713Y-202415792D01*
X105554765Y-202432402D01*
X105703721Y-202487795D01*
X105727008Y-202500598D01*
X105762268Y-202520956D01*
X105762271Y-202520957D01*
X105762276Y-202520960D01*
X106013031Y-202624826D01*
X106275199Y-202695074D01*
X106544292Y-202730500D01*
X106815708Y-202730500D01*
X107084801Y-202695074D01*
X107346969Y-202624826D01*
X107597724Y-202520960D01*
X107627022Y-202504045D01*
X107633495Y-202500308D01*
X107779999Y-202438721D01*
X107937216Y-202415503D01*
X108095268Y-202432113D01*
X108244224Y-202487507D01*
X108267502Y-202500305D01*
X108302497Y-202520509D01*
X108302496Y-202520509D01*
X108553181Y-202624348D01*
X108553196Y-202624353D01*
X108815294Y-202694581D01*
X109084325Y-202730000D01*
X109355675Y-202730000D01*
X109624705Y-202694581D01*
X109886803Y-202624353D01*
X109886818Y-202624348D01*
X110137496Y-202520512D01*
X110172492Y-202500307D01*
X110318996Y-202438721D01*
X110476214Y-202415503D01*
X110634266Y-202432113D01*
X110783222Y-202487508D01*
X110806500Y-202500305D01*
X110842270Y-202520957D01*
X110842272Y-202520958D01*
X110842276Y-202520960D01*
X111093031Y-202624826D01*
X111355199Y-202695074D01*
X111624292Y-202730500D01*
X111895708Y-202730500D01*
X112164801Y-202695074D01*
X112426969Y-202624826D01*
X112677724Y-202520960D01*
X112712992Y-202500598D01*
X112859495Y-202439011D01*
X113016713Y-202415792D01*
X113174765Y-202432402D01*
X113323721Y-202487795D01*
X113347008Y-202500598D01*
X113382268Y-202520956D01*
X113382271Y-202520957D01*
X113382276Y-202520960D01*
X113633031Y-202624826D01*
X113895199Y-202695074D01*
X114164292Y-202730500D01*
X114435708Y-202730500D01*
X114704801Y-202695074D01*
X114966969Y-202624826D01*
X115217724Y-202520960D01*
X115452777Y-202385252D01*
X115668105Y-202220025D01*
X115860025Y-202028105D01*
X115992256Y-201855777D01*
X116104039Y-201742817D01*
X116240404Y-201661204D01*
X116392782Y-201616067D01*
X116551598Y-201610243D01*
X116706873Y-201644098D01*
X116848850Y-201715504D01*
X116968608Y-201819975D01*
X117058623Y-201950947D01*
X117113239Y-202100190D01*
X117123817Y-202158979D01*
X117163979Y-202464045D01*
X117192494Y-202480509D01*
X117192497Y-202480510D01*
X117443175Y-202584346D01*
X117443196Y-202584353D01*
X117705294Y-202654581D01*
X117974325Y-202690000D01*
X118245675Y-202690000D01*
X118514705Y-202654581D01*
X118776803Y-202584353D01*
X118776823Y-202584346D01*
X119027492Y-202480514D01*
X119027506Y-202480507D01*
X119056018Y-202464045D01*
X119056018Y-202464044D01*
X118109293Y-201517317D01*
X118072772Y-201470235D01*
X118033356Y-201425558D01*
X118024218Y-201407640D01*
X118011888Y-201391744D01*
X117988222Y-201337056D01*
X117961157Y-201283983D01*
X117956762Y-201264353D01*
X117948773Y-201245892D01*
X117939452Y-201187043D01*
X117926434Y-201128900D01*
X117927058Y-201108793D01*
X117923912Y-201088926D01*
X117929519Y-201029605D01*
X117931104Y-200978595D01*
X117955606Y-200992741D01*
X118057339Y-201020000D01*
X118162661Y-201020000D01*
X118264394Y-200992741D01*
X118355606Y-200940080D01*
X118430080Y-200865606D01*
X118482741Y-200774394D01*
X118510000Y-200672661D01*
X118510000Y-200660000D01*
X119048026Y-200660000D01*
X119954045Y-201566018D01*
X119970510Y-201537501D01*
X119970514Y-201537492D01*
X120074346Y-201286823D01*
X120074351Y-201286809D01*
X120116393Y-201129908D01*
X120176441Y-200982766D01*
X120271194Y-200855181D01*
X120394701Y-200755168D01*
X120539199Y-200689011D01*
X120695610Y-200660869D01*
X120728790Y-200660000D01*
X127000000Y-200660000D01*
X127000000Y-207194700D01*
X50939300Y-207194700D01*
X50781631Y-207174782D01*
X50633868Y-207116278D01*
X50505297Y-207022866D01*
X50403996Y-206900414D01*
X50336330Y-206756617D01*
X50306551Y-206600509D01*
X50305300Y-206560700D01*
X50305300Y-202371791D01*
X53043900Y-202371791D01*
X53043900Y-202628208D01*
X53077370Y-202882435D01*
X53143736Y-203130116D01*
X53241866Y-203367024D01*
X53370070Y-203589079D01*
X53526171Y-203792514D01*
X53707485Y-203973828D01*
X53910920Y-204129929D01*
X54132975Y-204258133D01*
X54132978Y-204258134D01*
X54132983Y-204258137D01*
X54369883Y-204356264D01*
X54617565Y-204422630D01*
X54871790Y-204456100D01*
X54871791Y-204456100D01*
X55128209Y-204456100D01*
X55128210Y-204456100D01*
X55382435Y-204422630D01*
X55630117Y-204356264D01*
X55867017Y-204258137D01*
X56089083Y-204129927D01*
X56292514Y-203973829D01*
X56473829Y-203792514D01*
X56629927Y-203589083D01*
X56758137Y-203367017D01*
X56856264Y-203130117D01*
X56922630Y-202882435D01*
X56956100Y-202628210D01*
X56956100Y-202371790D01*
X56922630Y-202117565D01*
X56856264Y-201869883D01*
X56758137Y-201632983D01*
X56758134Y-201632978D01*
X56758133Y-201632975D01*
X56629929Y-201410920D01*
X56619127Y-201396843D01*
X56473829Y-201207486D01*
X56292514Y-201026171D01*
X56089083Y-200870073D01*
X56089082Y-200870072D01*
X56089079Y-200870070D01*
X55867024Y-200741866D01*
X55796517Y-200712661D01*
X55630117Y-200643736D01*
X55382435Y-200577370D01*
X55128210Y-200543900D01*
X54871790Y-200543900D01*
X54744677Y-200560635D01*
X54617564Y-200577370D01*
X54369883Y-200643736D01*
X54132975Y-200741866D01*
X53910920Y-200870070D01*
X53707485Y-201026171D01*
X53526171Y-201207485D01*
X53370070Y-201410920D01*
X53241866Y-201632975D01*
X53143736Y-201869883D01*
X53077370Y-202117564D01*
X53043900Y-202371791D01*
X50305300Y-202371791D01*
X50305300Y-200524324D01*
X74130000Y-200524324D01*
X74130000Y-200795675D01*
X74165418Y-201064705D01*
X74235646Y-201326803D01*
X74235649Y-201326810D01*
X74339490Y-201577503D01*
X74355953Y-201606018D01*
X75301972Y-200659999D01*
X74355954Y-199713980D01*
X74339487Y-199742503D01*
X74235649Y-199993188D01*
X74235646Y-199993196D01*
X74165418Y-200255294D01*
X74130000Y-200524324D01*
X50305300Y-200524324D01*
X50305300Y-193698344D01*
X53923900Y-193698344D01*
X53923900Y-193941655D01*
X53955657Y-194182882D01*
X53958309Y-194192779D01*
X54016005Y-194408105D01*
X54018631Y-194417903D01*
X54018633Y-194417909D01*
X54111739Y-194642689D01*
X54233399Y-194853409D01*
X54233404Y-194853417D01*
X54381511Y-195046433D01*
X54553566Y-195218488D01*
X54746582Y-195366595D01*
X54746590Y-195366600D01*
X54746593Y-195366602D01*
X54957306Y-195488258D01*
X54957307Y-195488258D01*
X54957310Y-195488260D01*
X55021034Y-195514655D01*
X55182096Y-195581369D01*
X55417116Y-195644342D01*
X55658345Y-195676100D01*
X55901655Y-195676100D01*
X56142884Y-195644342D01*
X56377904Y-195581369D01*
X56602694Y-195488258D01*
X56813407Y-195366602D01*
X56813412Y-195366597D01*
X56813417Y-195366595D01*
X57006433Y-195218488D01*
X57006433Y-195218487D01*
X57006438Y-195218484D01*
X57178484Y-195046438D01*
X57210415Y-195004825D01*
X57326595Y-194853417D01*
X57326600Y-194853409D01*
X57326602Y-194853407D01*
X57448258Y-194642694D01*
X57541369Y-194417904D01*
X57604342Y-194182884D01*
X57636100Y-193941655D01*
X57636100Y-193698345D01*
X57604342Y-193457116D01*
X57541369Y-193222096D01*
X57448258Y-192997306D01*
X57326602Y-192786593D01*
X57326600Y-192786590D01*
X57326595Y-192786582D01*
X57178488Y-192593566D01*
X57006433Y-192421511D01*
X56813417Y-192273404D01*
X56813409Y-192273399D01*
X56602689Y-192151739D01*
X56377909Y-192058633D01*
X56377908Y-192058632D01*
X56377904Y-192058631D01*
X56291880Y-192035581D01*
X56142882Y-191995657D01*
X55901655Y-191963900D01*
X55658345Y-191963900D01*
X55417117Y-191995657D01*
X55182096Y-192058631D01*
X55182090Y-192058633D01*
X54957310Y-192151739D01*
X54746590Y-192273399D01*
X54746582Y-192273404D01*
X54553566Y-192421511D01*
X54381511Y-192593566D01*
X54233404Y-192786582D01*
X54233399Y-192786590D01*
X54111739Y-192997310D01*
X54018633Y-193222090D01*
X54018631Y-193222096D01*
X53955657Y-193457117D01*
X53923900Y-193698344D01*
X50305300Y-193698344D01*
X50305300Y-190500000D01*
X60112159Y-190500000D01*
X60155621Y-190624207D01*
G37*
%TD.AperFunction*%
%TD*%
%TA.AperFunction,Conductor*%
%TO.N,GND*%
G36*
X96043669Y-132099918D02*
G01*
X96191432Y-132158422D01*
X96320003Y-132251834D01*
X96421304Y-132374286D01*
X96488970Y-132518083D01*
X96518749Y-132674191D01*
X96520000Y-132714000D01*
X96520000Y-135799974D01*
X96500082Y-135957643D01*
X96441578Y-136105406D01*
X96348166Y-136233977D01*
X96225714Y-136335278D01*
X96081917Y-136402944D01*
X96050094Y-136412370D01*
X95853035Y-136465172D01*
X95602272Y-136569041D01*
X95367220Y-136704749D01*
X95151894Y-136869975D01*
X94959975Y-137061894D01*
X94794749Y-137277220D01*
X94659041Y-137512272D01*
X94555174Y-137763030D01*
X94484925Y-138025200D01*
X94449500Y-138294291D01*
X94449500Y-138565708D01*
X94484925Y-138834799D01*
X94555174Y-139096969D01*
X94659041Y-139347727D01*
X94794749Y-139582779D01*
X94794750Y-139582780D01*
X94959975Y-139798105D01*
X94959977Y-139798107D01*
X94966085Y-139806067D01*
X95046266Y-139943280D01*
X95089805Y-140096122D01*
X95097100Y-140192023D01*
X95097100Y-146161985D01*
X95132136Y-146383197D01*
X95201347Y-146596204D01*
X95303026Y-146795762D01*
X95303027Y-146795763D01*
X95434671Y-146976956D01*
X96334306Y-147876591D01*
X96431710Y-148002165D01*
X96494826Y-148148017D01*
X96519687Y-148304983D01*
X96520000Y-148324897D01*
X96520000Y-150112305D01*
X96516245Y-150142022D01*
X96517187Y-150171966D01*
X96506323Y-150220569D01*
X96500082Y-150269974D01*
X96488326Y-150301084D01*
X96482520Y-150327062D01*
X96450900Y-150400132D01*
X96427937Y-150445200D01*
X96427933Y-150445206D01*
X96377196Y-150544781D01*
X96377191Y-150544792D01*
X96305146Y-150766525D01*
X96303038Y-150773012D01*
X96270018Y-150981497D01*
X96265500Y-151010022D01*
X96265500Y-151766000D01*
X96245582Y-151923669D01*
X96187078Y-152071432D01*
X96093666Y-152200003D01*
X95971214Y-152301304D01*
X95827417Y-152368970D01*
X95671309Y-152398749D01*
X95631500Y-152400000D01*
X72250152Y-152400000D01*
X72092483Y-152380082D01*
X71944720Y-152321578D01*
X71816149Y-152228166D01*
X71714848Y-152105714D01*
X71647182Y-151961917D01*
X71632048Y-151907079D01*
X71601572Y-151773557D01*
X71601568Y-151773543D01*
X71504378Y-151495792D01*
X71376697Y-151230658D01*
X71376692Y-151230649D01*
X71220139Y-150981497D01*
X71220132Y-150981487D01*
X71036664Y-150751425D01*
X70828574Y-150543335D01*
X70598512Y-150359867D01*
X70598502Y-150359860D01*
X70349350Y-150203307D01*
X70349341Y-150203302D01*
X70084207Y-150075621D01*
X69806456Y-149978431D01*
X69806439Y-149978426D01*
X69519559Y-149912948D01*
X69227131Y-149880000D01*
X69215001Y-149880000D01*
X69215000Y-149880001D01*
X69215000Y-151862207D01*
X69153717Y-151800924D01*
X69006310Y-151702430D01*
X68842520Y-151634586D01*
X68668642Y-151600000D01*
X68491358Y-151600000D01*
X68317480Y-151634586D01*
X68153690Y-151702430D01*
X68006283Y-151800924D01*
X67945000Y-151862207D01*
X67945000Y-149880001D01*
X67944999Y-149880000D01*
X67932869Y-149880000D01*
X67640440Y-149912948D01*
X67353560Y-149978426D01*
X67353543Y-149978431D01*
X67075792Y-150075621D01*
X66810658Y-150203302D01*
X66810649Y-150203307D01*
X66561497Y-150359860D01*
X66561487Y-150359867D01*
X66331425Y-150543335D01*
X66331410Y-150543349D01*
X66278655Y-150596104D01*
X66153081Y-150693508D01*
X66007229Y-150756623D01*
X65850263Y-150781482D01*
X65692045Y-150766525D01*
X65542519Y-150712691D01*
X65411078Y-150623362D01*
X65382063Y-150596116D01*
X65328913Y-150542966D01*
X65328908Y-150542962D01*
X65328903Y-150542957D01*
X65098802Y-150359458D01*
X65098795Y-150359453D01*
X64849584Y-150202863D01*
X64584410Y-150075162D01*
X64584402Y-150075159D01*
X64306586Y-149977947D01*
X64021806Y-149912948D01*
X64019642Y-149912454D01*
X64019640Y-149912453D01*
X64002300Y-149908496D01*
X64002806Y-149906275D01*
X63875669Y-149867781D01*
X63739798Y-149785347D01*
X63628696Y-149671713D01*
X63549344Y-149534019D01*
X63506728Y-149380917D01*
X63500000Y-149288798D01*
X63500000Y-139768499D01*
X63519918Y-139610830D01*
X63578422Y-139463067D01*
X63671834Y-139334496D01*
X63794286Y-139233195D01*
X63938083Y-139165529D01*
X64094191Y-139135750D01*
X64133970Y-139134499D01*
X65539246Y-139134499D01*
X65673553Y-139123930D01*
X65895316Y-139068051D01*
X65999426Y-139020761D01*
X66103530Y-138973475D01*
X66103531Y-138973474D01*
X66103536Y-138973472D01*
X66291523Y-138843234D01*
X66453234Y-138681523D01*
X66583472Y-138493536D01*
X66678051Y-138285316D01*
X66733930Y-138063553D01*
X66744500Y-137929247D01*
X66744499Y-136390754D01*
X66733930Y-136256447D01*
X66693440Y-136095760D01*
X66674230Y-135938005D01*
X66694856Y-135780426D01*
X66754022Y-135632928D01*
X66848011Y-135504778D01*
X66970916Y-135404027D01*
X67115016Y-135337008D01*
X67271256Y-135307930D01*
X67429818Y-135318620D01*
X67504135Y-135337880D01*
X67611803Y-135372864D01*
X67833015Y-135407900D01*
X71408797Y-135407900D01*
X71566466Y-135427818D01*
X71714229Y-135486322D01*
X71823989Y-135562764D01*
X72018473Y-135731293D01*
X72018475Y-135731294D01*
X72018481Y-135731299D01*
X72218576Y-135859899D01*
X72434935Y-135958716D01*
X72663154Y-136025737D01*
X72898588Y-136059598D01*
X72898596Y-136059598D01*
X72905574Y-136059598D01*
X72905603Y-136059603D01*
X73017515Y-136059603D01*
X73017526Y-136059603D01*
X73129502Y-136059609D01*
X73129508Y-136059607D01*
X73154221Y-136059609D01*
X73154400Y-136059603D01*
X73256319Y-136059603D01*
X73256437Y-136059593D01*
X73256452Y-136059594D01*
X73491902Y-136025753D01*
X73498956Y-136023682D01*
X73508506Y-136022141D01*
X73514017Y-136020943D01*
X73514082Y-136021242D01*
X73655845Y-135998377D01*
X73814104Y-136012884D01*
X73856196Y-136023693D01*
X73863154Y-136025737D01*
X74098588Y-136059598D01*
X74098596Y-136059598D01*
X74105574Y-136059598D01*
X74105603Y-136059603D01*
X74217515Y-136059603D01*
X74217526Y-136059603D01*
X74329502Y-136059609D01*
X74329508Y-136059607D01*
X74354221Y-136059609D01*
X74354400Y-136059603D01*
X74456319Y-136059603D01*
X74456437Y-136059593D01*
X74456452Y-136059594D01*
X74691902Y-136025753D01*
X74698979Y-136023675D01*
X74708562Y-136022129D01*
X74714017Y-136020943D01*
X74714081Y-136021239D01*
X74855863Y-135998370D01*
X75014122Y-136012876D01*
X75056229Y-136023689D01*
X75063144Y-136025720D01*
X75063154Y-136025721D01*
X75063157Y-136025722D01*
X75117742Y-136033572D01*
X75298585Y-136059583D01*
X75298588Y-136059583D01*
X75305569Y-136059583D01*
X75305603Y-136059589D01*
X75417515Y-136059589D01*
X75417526Y-136059589D01*
X75529502Y-136059595D01*
X75529508Y-136059593D01*
X75554221Y-136059595D01*
X75554400Y-136059589D01*
X75557339Y-136059589D01*
X75557344Y-136059589D01*
X75656456Y-136059594D01*
X75891915Y-136025750D01*
X76120160Y-135958739D01*
X76336545Y-135859926D01*
X76536663Y-135731322D01*
X76716441Y-135575546D01*
X76716441Y-135575544D01*
X76731206Y-135562752D01*
X76863409Y-135474554D01*
X77013392Y-135422006D01*
X77146384Y-135407900D01*
X91581522Y-135407900D01*
X91581525Y-135407900D01*
X91802737Y-135372864D01*
X92015744Y-135303653D01*
X92015797Y-135303626D01*
X92215302Y-135201974D01*
X92396497Y-135070328D01*
X95201131Y-132265692D01*
X95240478Y-132235172D01*
X95276780Y-132201083D01*
X95303035Y-132186649D01*
X95326704Y-132168290D01*
X95372402Y-132148514D01*
X95416045Y-132124522D01*
X95445062Y-132117071D01*
X95472556Y-132105174D01*
X95521738Y-132097384D01*
X95569975Y-132084999D01*
X95619676Y-132081872D01*
X95629521Y-132080313D01*
X95649436Y-132080000D01*
X95886000Y-132080000D01*
X96043669Y-132099918D01*
G37*
%TD.AperFunction*%
%TD*%
%TA.AperFunction,Conductor*%
%TO.N,GND*%
G36*
X81773001Y-102825218D02*
G01*
X81920764Y-102883722D01*
X82049335Y-102977134D01*
X82150636Y-103099586D01*
X82218302Y-103243383D01*
X82248081Y-103399491D01*
X82238102Y-103558100D01*
X82227729Y-103603393D01*
X82171791Y-103812151D01*
X82143100Y-104030089D01*
X82143100Y-104249910D01*
X82171792Y-104467853D01*
X82228683Y-104680169D01*
X82228686Y-104680179D01*
X82312807Y-104883266D01*
X82321986Y-104901878D01*
X82320717Y-104902503D01*
X82373741Y-105028634D01*
X82396961Y-105185852D01*
X82397100Y-105199143D01*
X82397100Y-124245500D01*
X82377182Y-124403169D01*
X82318678Y-124550932D01*
X82225266Y-124679503D01*
X82102814Y-124780804D01*
X81959017Y-124848470D01*
X81802909Y-124878249D01*
X81763100Y-124879500D01*
X80364757Y-124879500D01*
X80364744Y-124879501D01*
X80230453Y-124890069D01*
X80230450Y-124890069D01*
X80230447Y-124890070D01*
X80008684Y-124945949D01*
X80008677Y-124945951D01*
X79800469Y-125040524D01*
X79800463Y-125040528D01*
X79612479Y-125170764D01*
X79612477Y-125170765D01*
X79612477Y-125170766D01*
X79493433Y-125289809D01*
X79484020Y-125297110D01*
X79476372Y-125306245D01*
X79421359Y-125345714D01*
X79367864Y-125387210D01*
X79356930Y-125391941D01*
X79347247Y-125398889D01*
X79284136Y-125423442D01*
X79222012Y-125450326D01*
X79207346Y-125453317D01*
X79199138Y-125456511D01*
X79180310Y-125458832D01*
X79120842Y-125470963D01*
X79083121Y-125475500D01*
X78620019Y-125475500D01*
X78383012Y-125513038D01*
X78213767Y-125568029D01*
X78154960Y-125587136D01*
X78154954Y-125587137D01*
X78154796Y-125587189D01*
X78154793Y-125587190D01*
X77940995Y-125696126D01*
X77940978Y-125696137D01*
X77746855Y-125837175D01*
X77024224Y-126559806D01*
X76898651Y-126657211D01*
X76752799Y-126720326D01*
X76595833Y-126745187D01*
X76575919Y-126745500D01*
X72736605Y-126745500D01*
X72578936Y-126725582D01*
X72431173Y-126667078D01*
X72302602Y-126573666D01*
X72201301Y-126451214D01*
X72133635Y-126307417D01*
X72103856Y-126151309D01*
X72113835Y-125992700D01*
X72162945Y-125841556D01*
X72248100Y-125707373D01*
X72288288Y-125663205D01*
X72383465Y-125568029D01*
X72517283Y-125393635D01*
X72518261Y-125391941D01*
X72627190Y-125203271D01*
X72627191Y-125203268D01*
X72627193Y-125203265D01*
X72711314Y-125000178D01*
X72768208Y-124787849D01*
X72796900Y-124569910D01*
X72796900Y-124350090D01*
X72768208Y-124132151D01*
X72761944Y-124108775D01*
X72711316Y-123919830D01*
X72711313Y-123919820D01*
X72673760Y-123829158D01*
X72627193Y-123716735D01*
X72627191Y-123716731D01*
X72618012Y-123698117D01*
X72619279Y-123697491D01*
X72566253Y-123571344D01*
X72543039Y-123414126D01*
X72542900Y-123400855D01*
X72542900Y-115994143D01*
X72562818Y-115836474D01*
X72618076Y-115696908D01*
X72618014Y-115696878D01*
X72618391Y-115696112D01*
X72621322Y-115688711D01*
X72627087Y-115678478D01*
X72627192Y-115678266D01*
X72627193Y-115678265D01*
X72711314Y-115475178D01*
X72768208Y-115262849D01*
X72796900Y-115044910D01*
X72796900Y-114825090D01*
X72768208Y-114607151D01*
X72711314Y-114394822D01*
X72627193Y-114191735D01*
X72627191Y-114191731D01*
X72627190Y-114191728D01*
X72517290Y-114001376D01*
X72517286Y-114001370D01*
X72517285Y-114001369D01*
X72517283Y-114001365D01*
X72383465Y-113826971D01*
X72228029Y-113671535D01*
X72053635Y-113537717D01*
X72053631Y-113537715D01*
X72053629Y-113537713D01*
X72053623Y-113537709D01*
X71863271Y-113427809D01*
X71863268Y-113427808D01*
X71660179Y-113343686D01*
X71660169Y-113343683D01*
X71447853Y-113286792D01*
X71229910Y-113258100D01*
X71010090Y-113258100D01*
X70792146Y-113286792D01*
X70579830Y-113343683D01*
X70579820Y-113343686D01*
X70376731Y-113427808D01*
X70376728Y-113427809D01*
X70186376Y-113537709D01*
X70186370Y-113537713D01*
X70011971Y-113671535D01*
X69856535Y-113826971D01*
X69722713Y-114001370D01*
X69722709Y-114001376D01*
X69612809Y-114191728D01*
X69612808Y-114191731D01*
X69528686Y-114394820D01*
X69528683Y-114394830D01*
X69471792Y-114607146D01*
X69443100Y-114825089D01*
X69443100Y-115044910D01*
X69471792Y-115262853D01*
X69528683Y-115475169D01*
X69528686Y-115475179D01*
X69612807Y-115678266D01*
X69621986Y-115696878D01*
X69620717Y-115697503D01*
X69673741Y-115823634D01*
X69696961Y-115980852D01*
X69697100Y-115994143D01*
X69697100Y-123400855D01*
X69677182Y-123558524D01*
X69671253Y-123580037D01*
X69649913Y-123652464D01*
X69612807Y-123716735D01*
X69528686Y-123919822D01*
X69471792Y-124132151D01*
X69443100Y-124350090D01*
X69443100Y-124354397D01*
X69428103Y-124405298D01*
X69415917Y-124433168D01*
X69408198Y-124462592D01*
X69384202Y-124505703D01*
X69364436Y-124550911D01*
X69345701Y-124574875D01*
X69330908Y-124601454D01*
X69296942Y-124637245D01*
X69266556Y-124676115D01*
X69242451Y-124694667D01*
X69221512Y-124716732D01*
X69179715Y-124742950D01*
X69140615Y-124773044D01*
X69112653Y-124785018D01*
X69086885Y-124801183D01*
X69039880Y-124816184D01*
X68994526Y-124835607D01*
X68964465Y-124840251D01*
X68935486Y-124849500D01*
X68886226Y-124852340D01*
X68837467Y-124859874D01*
X68807195Y-124856897D01*
X68776827Y-124858648D01*
X68728412Y-124849149D01*
X68679307Y-124844320D01*
X68650723Y-124833906D01*
X68620877Y-124828051D01*
X68577332Y-124811857D01*
X68485178Y-124773686D01*
X68485169Y-124773683D01*
X68272853Y-124716792D01*
X68054910Y-124688100D01*
X67835090Y-124688100D01*
X67617146Y-124716792D01*
X67404830Y-124773683D01*
X67404820Y-124773686D01*
X67201731Y-124857808D01*
X67201728Y-124857809D01*
X67011376Y-124967709D01*
X67011370Y-124967713D01*
X66836971Y-125101535D01*
X66681534Y-125256972D01*
X66679296Y-125259525D01*
X66676534Y-125261972D01*
X66666860Y-125271647D01*
X66666276Y-125271063D01*
X66560362Y-125364934D01*
X66418950Y-125437454D01*
X66263946Y-125472528D01*
X66202629Y-125475500D01*
X57030019Y-125475500D01*
X56917408Y-125493335D01*
X56793015Y-125513037D01*
X56793006Y-125513039D01*
X56623765Y-125568029D01*
X56623763Y-125568030D01*
X56564799Y-125587188D01*
X56564795Y-125587189D01*
X56350990Y-125696128D01*
X56350977Y-125696136D01*
X56156856Y-125837175D01*
X55179725Y-126814306D01*
X55054152Y-126911711D01*
X54908300Y-126974826D01*
X54751334Y-126999687D01*
X54731420Y-127000000D01*
X50939300Y-127000000D01*
X50781631Y-126980082D01*
X50633868Y-126921578D01*
X50505297Y-126828166D01*
X50403996Y-126705714D01*
X50336330Y-126561917D01*
X50306551Y-126405809D01*
X50305300Y-126366000D01*
X50305300Y-107371790D01*
X53043900Y-107371790D01*
X53043900Y-107628210D01*
X53077370Y-107882435D01*
X53143736Y-108130117D01*
X53204865Y-108277696D01*
X53241866Y-108367024D01*
X53370070Y-108589079D01*
X53370072Y-108589082D01*
X53370073Y-108589083D01*
X53526171Y-108792514D01*
X53707486Y-108973829D01*
X53894431Y-109117277D01*
X53910920Y-109129929D01*
X54132975Y-109258133D01*
X54132978Y-109258134D01*
X54132983Y-109258137D01*
X54369883Y-109356264D01*
X54617565Y-109422630D01*
X54871790Y-109456100D01*
X54871791Y-109456100D01*
X55128209Y-109456100D01*
X55128210Y-109456100D01*
X55382435Y-109422630D01*
X55630117Y-109356264D01*
X55867017Y-109258137D01*
X56089083Y-109129927D01*
X56292514Y-108973829D01*
X56473829Y-108792514D01*
X56629927Y-108589083D01*
X56758137Y-108367017D01*
X56856264Y-108130117D01*
X56922630Y-107882435D01*
X56956100Y-107628210D01*
X56956100Y-107371790D01*
X56922630Y-107117565D01*
X56856264Y-106869883D01*
X56758137Y-106632983D01*
X56758134Y-106632978D01*
X56758133Y-106632975D01*
X56629929Y-106410920D01*
X56518285Y-106265423D01*
X56473829Y-106207486D01*
X56292514Y-106026171D01*
X56089083Y-105870073D01*
X56089082Y-105870072D01*
X56089079Y-105870070D01*
X55867024Y-105741866D01*
X55867017Y-105741863D01*
X55630117Y-105643736D01*
X55382435Y-105577370D01*
X55128210Y-105543900D01*
X54871790Y-105543900D01*
X54744677Y-105560635D01*
X54617564Y-105577370D01*
X54369883Y-105643736D01*
X54132975Y-105741866D01*
X53910920Y-105870070D01*
X53707485Y-106026171D01*
X53526171Y-106207485D01*
X53370070Y-106410920D01*
X53241866Y-106632975D01*
X53143736Y-106869883D01*
X53083530Y-107094577D01*
X53077370Y-107117565D01*
X53043900Y-107371790D01*
X50305300Y-107371790D01*
X50305300Y-103439300D01*
X50325218Y-103281631D01*
X50383722Y-103133868D01*
X50477134Y-103005297D01*
X50599586Y-102903996D01*
X50743383Y-102836330D01*
X50899491Y-102806551D01*
X50939300Y-102805300D01*
X81615332Y-102805300D01*
X81773001Y-102825218D01*
G37*
%TD.AperFunction*%
%TA.AperFunction,Conductor*%
G36*
X140742584Y-105038221D02*
G01*
X140811848Y-105044769D01*
X140821272Y-105048162D01*
X140831214Y-105049418D01*
X140895909Y-105075033D01*
X140961375Y-105098602D01*
X140969662Y-105104233D01*
X140978977Y-105107922D01*
X141035268Y-105148819D01*
X141092817Y-105187930D01*
X141099442Y-105195444D01*
X141107548Y-105201334D01*
X141151900Y-105254946D01*
X141197914Y-105307139D01*
X141202462Y-105316066D01*
X141208849Y-105323786D01*
X141238478Y-105386751D01*
X141270063Y-105448740D01*
X141272248Y-105458515D01*
X141276515Y-105467583D01*
X141289555Y-105535943D01*
X141304731Y-105603835D01*
X141304416Y-105613847D01*
X141306294Y-105623691D01*
X141301924Y-105693145D01*
X141299739Y-105762679D01*
X141296944Y-105772298D01*
X141296315Y-105782300D01*
X141274811Y-105848481D01*
X141255401Y-105915292D01*
X141250300Y-105923915D01*
X141247205Y-105933444D01*
X141209922Y-105992191D01*
X141174503Y-106052083D01*
X141165263Y-106062563D01*
X141162050Y-106067627D01*
X141121851Y-106111806D01*
X141026171Y-106207485D01*
X140870070Y-106410920D01*
X140741866Y-106632975D01*
X140643736Y-106869883D01*
X140583530Y-107094577D01*
X140577370Y-107117565D01*
X140543900Y-107371790D01*
X140543900Y-107628210D01*
X140577370Y-107882435D01*
X140643736Y-108130117D01*
X140704865Y-108277696D01*
X140741866Y-108367024D01*
X140870070Y-108589079D01*
X140870072Y-108589082D01*
X140870073Y-108589083D01*
X141026171Y-108792514D01*
X141207486Y-108973829D01*
X141394431Y-109117277D01*
X141410920Y-109129929D01*
X141632975Y-109258133D01*
X141632978Y-109258134D01*
X141632983Y-109258137D01*
X141869883Y-109356264D01*
X142117565Y-109422630D01*
X142371790Y-109456100D01*
X142371791Y-109456100D01*
X142628209Y-109456100D01*
X142628210Y-109456100D01*
X142882435Y-109422630D01*
X143130117Y-109356264D01*
X143367017Y-109258137D01*
X143589083Y-109129927D01*
X143792514Y-108973829D01*
X143973829Y-108792514D01*
X144023514Y-108727762D01*
X144135299Y-108614801D01*
X144271665Y-108533188D01*
X144424043Y-108488051D01*
X144582859Y-108482228D01*
X144738134Y-108516083D01*
X144880110Y-108587490D01*
X144999869Y-108691962D01*
X145089883Y-108822934D01*
X145144499Y-108972177D01*
X145160500Y-109113718D01*
X145160500Y-112755830D01*
X145140582Y-112913499D01*
X145082078Y-113061262D01*
X144988666Y-113189833D01*
X144866214Y-113291134D01*
X144722417Y-113358800D01*
X144566309Y-113388579D01*
X144407700Y-113378600D01*
X144256556Y-113329490D01*
X144122373Y-113244335D01*
X144020101Y-113135427D01*
X144019549Y-113135851D01*
X144015303Y-113130318D01*
X144013583Y-113128486D01*
X144010466Y-113124014D01*
X143837696Y-112898856D01*
X143641143Y-112702303D01*
X143420616Y-112533087D01*
X143420617Y-112533087D01*
X143420615Y-112533086D01*
X143179886Y-112394101D01*
X143179882Y-112394099D01*
X143179878Y-112394097D01*
X142923078Y-112287727D01*
X142923076Y-112287726D01*
X142923075Y-112287726D01*
X142870412Y-112273614D01*
X142654580Y-112215782D01*
X142654573Y-112215781D01*
X142378985Y-112179500D01*
X142101015Y-112179500D01*
X141825426Y-112215781D01*
X141825419Y-112215782D01*
X141556921Y-112287727D01*
X141300121Y-112394097D01*
X141059383Y-112533087D01*
X140838856Y-112702303D01*
X140642303Y-112898856D01*
X140473087Y-113119383D01*
X140334097Y-113360121D01*
X140227727Y-113616921D01*
X140155782Y-113885419D01*
X140155781Y-113885426D01*
X140119500Y-114161014D01*
X140119500Y-114438985D01*
X140155781Y-114714573D01*
X140155782Y-114714580D01*
X140227727Y-114983078D01*
X140334099Y-115239882D01*
X140334100Y-115239885D01*
X140341677Y-115253009D01*
X140403260Y-115399515D01*
X140426473Y-115556733D01*
X140409859Y-115714784D01*
X140354460Y-115863739D01*
X140341677Y-115886991D01*
X140334100Y-115900114D01*
X140334099Y-115900117D01*
X140227727Y-116156921D01*
X140155782Y-116425419D01*
X140155781Y-116425426D01*
X140119500Y-116701014D01*
X140119500Y-116978985D01*
X140155781Y-117254573D01*
X140155782Y-117254580D01*
X140227726Y-117523078D01*
X140229356Y-117527011D01*
X140230577Y-117531476D01*
X140234397Y-117542728D01*
X140233718Y-117542958D01*
X140271291Y-117680301D01*
X140273787Y-117839204D01*
X140236687Y-117993735D01*
X140220860Y-118031825D01*
X140185950Y-118108681D01*
X140185946Y-118108692D01*
X140130071Y-118330439D01*
X140130070Y-118330444D01*
X140130070Y-118330447D01*
X140119500Y-118464753D01*
X140119500Y-118464762D01*
X140119500Y-118464763D01*
X140119500Y-120295242D01*
X140119501Y-120295255D01*
X140130069Y-120429546D01*
X140130070Y-120429553D01*
X140185949Y-120651315D01*
X140185951Y-120651322D01*
X140280524Y-120859530D01*
X140280527Y-120859534D01*
X140280528Y-120859536D01*
X140345977Y-120954006D01*
X140391493Y-121019704D01*
X140464910Y-121160652D01*
X140500969Y-121315430D01*
X140497404Y-121474312D01*
X140454437Y-121627316D01*
X140374770Y-121764828D01*
X140318650Y-121829063D01*
X139884674Y-122263039D01*
X139753026Y-122444237D01*
X139700357Y-122547607D01*
X139700356Y-122547606D01*
X139651351Y-122643786D01*
X139651347Y-122643794D01*
X139582135Y-122856806D01*
X139572868Y-122915318D01*
X139554444Y-123031650D01*
X139547100Y-123078017D01*
X139547100Y-125844203D01*
X139527182Y-126001872D01*
X139468678Y-126149635D01*
X139375266Y-126278206D01*
X139252814Y-126379507D01*
X139109017Y-126447173D01*
X138952909Y-126476952D01*
X138794300Y-126466973D01*
X138643156Y-126417863D01*
X138508973Y-126332708D01*
X138464794Y-126292509D01*
X133688594Y-121516309D01*
X133591190Y-121390735D01*
X133528074Y-121244883D01*
X133503213Y-121087917D01*
X133502900Y-121068003D01*
X133502900Y-109394667D01*
X133522818Y-109236998D01*
X133581322Y-109089235D01*
X133674734Y-108960664D01*
X133797186Y-108859363D01*
X133940983Y-108791697D01*
X134097091Y-108761918D01*
X134219648Y-108766090D01*
X134481015Y-108800500D01*
X134481016Y-108800500D01*
X134758985Y-108800500D01*
X135034577Y-108764218D01*
X135303075Y-108692274D01*
X135559886Y-108585899D01*
X135800615Y-108446914D01*
X136021143Y-108277697D01*
X136217697Y-108081143D01*
X136386914Y-107860615D01*
X136525899Y-107619886D01*
X136632274Y-107363075D01*
X136704218Y-107094577D01*
X136740500Y-106818985D01*
X136740500Y-106541015D01*
X136704218Y-106265423D01*
X136640111Y-106026171D01*
X136632273Y-105996921D01*
X136594662Y-105906120D01*
X136552727Y-105752830D01*
X136550231Y-105593927D01*
X136587331Y-105439395D01*
X136661696Y-105298945D01*
X136768653Y-105181401D01*
X136901482Y-105094150D01*
X137051837Y-105042672D01*
X137180402Y-105029500D01*
X140673545Y-105029500D01*
X140742584Y-105038221D01*
G37*
%TD.AperFunction*%
%TA.AperFunction,Conductor*%
G36*
X129745382Y-107145941D02*
G01*
X129888097Y-107215862D01*
X130008939Y-107319078D01*
X130100317Y-107449103D01*
X130125732Y-107503113D01*
X130126732Y-107505527D01*
X130168672Y-107658816D01*
X130175000Y-107748167D01*
X130175000Y-108704636D01*
X130409057Y-108884237D01*
X130431526Y-108906472D01*
X130457103Y-108925055D01*
X130487794Y-108962155D01*
X130522019Y-108996023D01*
X130538253Y-109023148D01*
X130558404Y-109047507D01*
X130578906Y-109091076D01*
X130603631Y-109132389D01*
X130612608Y-109162697D01*
X130626070Y-109191304D01*
X130635092Y-109238602D01*
X130648767Y-109284767D01*
X130649925Y-109316358D01*
X130655849Y-109347412D01*
X130657100Y-109387221D01*
X130657100Y-122004663D01*
X130637182Y-122162332D01*
X130578678Y-122310095D01*
X130485266Y-122438666D01*
X130362814Y-122539967D01*
X130219017Y-122607633D01*
X130062909Y-122637412D01*
X129904300Y-122627433D01*
X129753156Y-122578323D01*
X129618973Y-122493168D01*
X129574794Y-122452969D01*
X127444621Y-120322796D01*
X127263428Y-120191152D01*
X127263427Y-120191151D01*
X127172182Y-120144660D01*
X127063869Y-120089472D01*
X126850862Y-120020261D01*
X126850860Y-120020260D01*
X126850858Y-120020260D01*
X126754534Y-120005004D01*
X126629650Y-119985225D01*
X126629647Y-119985225D01*
X122467270Y-119985225D01*
X122332281Y-119970688D01*
X122235792Y-119949661D01*
X122151390Y-119900932D01*
X121948303Y-119816811D01*
X121735974Y-119759917D01*
X121518035Y-119731225D01*
X121298215Y-119731225D01*
X121257805Y-119736545D01*
X121166682Y-119716688D01*
X121155630Y-119712776D01*
X121144002Y-119711307D01*
X121080887Y-119686317D01*
X121016868Y-119663656D01*
X121007134Y-119657116D01*
X120996239Y-119652803D01*
X120941320Y-119612902D01*
X120884951Y-119575033D01*
X120877151Y-119566281D01*
X120867668Y-119559391D01*
X120824385Y-119507071D01*
X120779217Y-119456387D01*
X120773840Y-119445972D01*
X120766367Y-119436939D01*
X120737451Y-119375490D01*
X120706311Y-119315174D01*
X120703693Y-119303751D01*
X120698701Y-119293142D01*
X120685976Y-119226439D01*
X120670813Y-119160267D01*
X120671118Y-119148548D01*
X120668922Y-119137034D01*
X120673185Y-119069269D01*
X120674955Y-119001398D01*
X120678164Y-118990124D01*
X120678901Y-118978425D01*
X120699879Y-118913859D01*
X120718475Y-118848551D01*
X120724389Y-118838427D01*
X120728011Y-118827281D01*
X120764386Y-118769963D01*
X120798640Y-118711329D01*
X120806885Y-118702995D01*
X120813166Y-118693098D01*
X120853354Y-118648930D01*
X128085328Y-111416957D01*
X128216974Y-111235762D01*
X128318653Y-111036204D01*
X128387864Y-110823197D01*
X128422900Y-110601985D01*
X128422900Y-109387221D01*
X128430381Y-109327995D01*
X128434130Y-109268421D01*
X128440310Y-109249398D01*
X128442818Y-109229552D01*
X128464794Y-109174046D01*
X128483240Y-109117277D01*
X128493958Y-109100387D01*
X128501322Y-109081789D01*
X128536410Y-109033494D01*
X128568395Y-108983094D01*
X128582976Y-108969401D01*
X128594734Y-108953218D01*
X128670943Y-108884237D01*
X128905000Y-108704636D01*
X128905000Y-107748167D01*
X128924918Y-107590498D01*
X128953268Y-107505527D01*
X128954268Y-107503113D01*
X129033012Y-107365071D01*
X129143612Y-107250948D01*
X129279118Y-107167915D01*
X129348930Y-107146440D01*
X129474174Y-107180000D01*
X129605826Y-107180000D01*
X129732993Y-107145925D01*
X129736243Y-107144048D01*
X129745382Y-107145941D01*
G37*
%TD.AperFunction*%
%TA.AperFunction,Conductor*%
G36*
X100716769Y-102825218D02*
G01*
X100864532Y-102883722D01*
X100993103Y-102977134D01*
X101094404Y-103099586D01*
X101162070Y-103243383D01*
X101191849Y-103399491D01*
X101193100Y-103439300D01*
X101193100Y-103614910D01*
X101221792Y-103832853D01*
X101278683Y-104045169D01*
X101278686Y-104045179D01*
X101362808Y-104248268D01*
X101362809Y-104248271D01*
X101472709Y-104438623D01*
X101472713Y-104438629D01*
X101472715Y-104438631D01*
X101472717Y-104438635D01*
X101606535Y-104613029D01*
X101761971Y-104768465D01*
X101936365Y-104902283D01*
X101936369Y-104902285D01*
X101936370Y-104902286D01*
X101936376Y-104902290D01*
X102126728Y-105012190D01*
X102126731Y-105012191D01*
X102126732Y-105012191D01*
X102126735Y-105012193D01*
X102329822Y-105096314D01*
X102338361Y-105098602D01*
X102542146Y-105153207D01*
X102542148Y-105153207D01*
X102542151Y-105153208D01*
X102760090Y-105181900D01*
X102979910Y-105181900D01*
X103197849Y-105153208D01*
X103410178Y-105096314D01*
X103454974Y-105077758D01*
X103608260Y-105035825D01*
X103697591Y-105029500D01*
X121711509Y-105029500D01*
X121869178Y-105049418D01*
X122016941Y-105107922D01*
X122145512Y-105201334D01*
X122246813Y-105323786D01*
X122314479Y-105467583D01*
X122344258Y-105623691D01*
X122343554Y-105713245D01*
X122339500Y-105764743D01*
X122339500Y-107595242D01*
X122339501Y-107595255D01*
X122350069Y-107729546D01*
X122350070Y-107729553D01*
X122383095Y-107860615D01*
X122405949Y-107951315D01*
X122405951Y-107951322D01*
X122500524Y-108159530D01*
X122500528Y-108159536D01*
X122630766Y-108347523D01*
X122792477Y-108509234D01*
X122980464Y-108639472D01*
X122980465Y-108639472D01*
X122980469Y-108639475D01*
X123188677Y-108734048D01*
X123188684Y-108734051D01*
X123410447Y-108789930D01*
X123544753Y-108800500D01*
X124943101Y-108800499D01*
X125002325Y-108807980D01*
X125061900Y-108811729D01*
X125080922Y-108817909D01*
X125100769Y-108820417D01*
X125156277Y-108842394D01*
X125213044Y-108860839D01*
X125229930Y-108871555D01*
X125248531Y-108878920D01*
X125296828Y-108914010D01*
X125347227Y-108945994D01*
X125360919Y-108960575D01*
X125377103Y-108972333D01*
X125415154Y-109018329D01*
X125456017Y-109061843D01*
X125465652Y-109079370D01*
X125478404Y-109094784D01*
X125503823Y-109148803D01*
X125532578Y-109201108D01*
X125537552Y-109220480D01*
X125546070Y-109238582D01*
X125557256Y-109297221D01*
X125572101Y-109355038D01*
X125573978Y-109384884D01*
X125575849Y-109394689D01*
X125577100Y-109434499D01*
X125577100Y-109638003D01*
X125557182Y-109795672D01*
X125498678Y-109943435D01*
X125405266Y-110072006D01*
X125391406Y-110086309D01*
X116436309Y-119041406D01*
X116310735Y-119138810D01*
X116164883Y-119201926D01*
X116007917Y-119226787D01*
X115988003Y-119227100D01*
X114954567Y-119227100D01*
X114796898Y-119207182D01*
X114758649Y-119196069D01*
X114656999Y-119163040D01*
X114656989Y-119163038D01*
X114565501Y-119148548D01*
X114419981Y-119125500D01*
X114419978Y-119125500D01*
X102494081Y-119125500D01*
X102444670Y-119119258D01*
X102394902Y-119117694D01*
X102366137Y-119109337D01*
X102336412Y-119105582D01*
X102290106Y-119087248D01*
X102242289Y-119073356D01*
X102216503Y-119058106D01*
X102188649Y-119047078D01*
X102148360Y-119017806D01*
X102105498Y-118992458D01*
X102068141Y-118959524D01*
X102060078Y-118953666D01*
X102045775Y-118939806D01*
X101993179Y-118887210D01*
X101895775Y-118761636D01*
X101855743Y-118681519D01*
X101837192Y-118636733D01*
X101837192Y-118636732D01*
X101727290Y-118446376D01*
X101727286Y-118446370D01*
X101727285Y-118446369D01*
X101727283Y-118446365D01*
X101593465Y-118271971D01*
X101438029Y-118116535D01*
X101263635Y-117982717D01*
X101263631Y-117982715D01*
X101263629Y-117982713D01*
X101263623Y-117982709D01*
X101073271Y-117872809D01*
X101073268Y-117872808D01*
X100870179Y-117788686D01*
X100870169Y-117788683D01*
X100657853Y-117731792D01*
X100439910Y-117703100D01*
X100220090Y-117703100D01*
X100002146Y-117731792D01*
X99789830Y-117788683D01*
X99789826Y-117788684D01*
X99774040Y-117795222D01*
X99745025Y-117807241D01*
X99591740Y-117849175D01*
X99502409Y-117855500D01*
X91320019Y-117855500D01*
X91210734Y-117872809D01*
X91083010Y-117893038D01*
X91083000Y-117893040D01*
X90885851Y-117957099D01*
X90885843Y-117957102D01*
X90854797Y-117967188D01*
X90854795Y-117967189D01*
X90640993Y-118076127D01*
X90640990Y-118076128D01*
X90640988Y-118076130D01*
X90527864Y-118158319D01*
X90446853Y-118217177D01*
X86325206Y-122338825D01*
X86199632Y-122436229D01*
X86053780Y-122499345D01*
X85896814Y-122524206D01*
X85738597Y-122509250D01*
X85589070Y-122455417D01*
X85457628Y-122366089D01*
X85352531Y-122246880D01*
X85280382Y-122105279D01*
X85245714Y-121950184D01*
X85242900Y-121890519D01*
X85242900Y-105199143D01*
X85262818Y-105041474D01*
X85318076Y-104901908D01*
X85318014Y-104901878D01*
X85318391Y-104901112D01*
X85321322Y-104893711D01*
X85327087Y-104883478D01*
X85327192Y-104883266D01*
X85327193Y-104883265D01*
X85411314Y-104680178D01*
X85468208Y-104467849D01*
X85496900Y-104249910D01*
X85496900Y-104030090D01*
X85468208Y-103812151D01*
X85412271Y-103603393D01*
X85390703Y-103445941D01*
X85408968Y-103288071D01*
X85465921Y-103139704D01*
X85557981Y-103010162D01*
X85679366Y-102907584D01*
X85822446Y-102838415D01*
X85978233Y-102807003D01*
X86024668Y-102805300D01*
X100559100Y-102805300D01*
X100716769Y-102825218D01*
G37*
%TD.AperFunction*%
%TD*%
%TA.AperFunction,Conductor*%
%TO.N,GND*%
G36*
X144664803Y-160023665D02*
G01*
X144814330Y-160077498D01*
X144945772Y-160166826D01*
X145050869Y-160286035D01*
X145123018Y-160427636D01*
X145157686Y-160582731D01*
X145160500Y-160642396D01*
X145160500Y-183255919D01*
X145154258Y-183305329D01*
X145152694Y-183355098D01*
X145144337Y-183383862D01*
X145140582Y-183413588D01*
X145122248Y-183459893D01*
X145108356Y-183507711D01*
X145093106Y-183533496D01*
X145082078Y-183561351D01*
X145052806Y-183601639D01*
X145027458Y-183644502D01*
X144994524Y-183681858D01*
X144988666Y-183689922D01*
X144974806Y-183704225D01*
X144969225Y-183709806D01*
X144843651Y-183807210D01*
X144697799Y-183870326D01*
X144540833Y-183895187D01*
X144520919Y-183895500D01*
X136405019Y-183895500D01*
X136262814Y-183918022D01*
X136168010Y-183933038D01*
X136168000Y-183933040D01*
X135939805Y-184007186D01*
X135939785Y-184007194D01*
X135725993Y-184116127D01*
X135725990Y-184116128D01*
X135725988Y-184116130D01*
X135612864Y-184198319D01*
X135531853Y-184257177D01*
X132269225Y-187519806D01*
X132229876Y-187550327D01*
X132193575Y-187584417D01*
X132167319Y-187598850D01*
X132143651Y-187617210D01*
X132097952Y-187636985D01*
X132054310Y-187660978D01*
X132025292Y-187668428D01*
X131997799Y-187680326D01*
X131948617Y-187688115D01*
X131900380Y-187700501D01*
X131850676Y-187703627D01*
X131840833Y-187705187D01*
X131820919Y-187705500D01*
X131637591Y-187705500D01*
X131479922Y-187685582D01*
X131394977Y-187657242D01*
X131350178Y-187638686D01*
X131350177Y-187638685D01*
X131350173Y-187638684D01*
X131350169Y-187638683D01*
X131137853Y-187581792D01*
X130919910Y-187553100D01*
X130700090Y-187553100D01*
X130482146Y-187581792D01*
X130269830Y-187638683D01*
X130269820Y-187638686D01*
X130066731Y-187722808D01*
X130066728Y-187722809D01*
X129876376Y-187832709D01*
X129876370Y-187832713D01*
X129701971Y-187966535D01*
X129546535Y-188121971D01*
X129412713Y-188296370D01*
X129412709Y-188296376D01*
X129302809Y-188486728D01*
X129302808Y-188486731D01*
X129218686Y-188689820D01*
X129218683Y-188689830D01*
X129161792Y-188902146D01*
X129133100Y-189120089D01*
X129133100Y-189339910D01*
X129161792Y-189557853D01*
X129218683Y-189770169D01*
X129218686Y-189770179D01*
X129302808Y-189973268D01*
X129302809Y-189973271D01*
X129412709Y-190163623D01*
X129412713Y-190163629D01*
X129412715Y-190163631D01*
X129412717Y-190163635D01*
X129546535Y-190338029D01*
X129701971Y-190493465D01*
X129876365Y-190627283D01*
X129876367Y-190627284D01*
X129876376Y-190627290D01*
X130066728Y-190737190D01*
X130066731Y-190737191D01*
X130066732Y-190737191D01*
X130066735Y-190737193D01*
X130269822Y-190821314D01*
X130332911Y-190838218D01*
X130482146Y-190878207D01*
X130482148Y-190878207D01*
X130482151Y-190878208D01*
X130700090Y-190906900D01*
X130919910Y-190906900D01*
X131137849Y-190878208D01*
X131350178Y-190821314D01*
X131394974Y-190802758D01*
X131548260Y-190760825D01*
X131637591Y-190754500D01*
X132834978Y-190754500D01*
X132834980Y-190754500D01*
X132834981Y-190754500D01*
X133071988Y-190716962D01*
X133300205Y-190642810D01*
X133330669Y-190627287D01*
X133330678Y-190627284D01*
X133514001Y-190533876D01*
X133514003Y-190533875D01*
X133514004Y-190533873D01*
X133514012Y-190533870D01*
X133708145Y-190392824D01*
X136970775Y-187130194D01*
X137096349Y-187032790D01*
X137242201Y-186969674D01*
X137399167Y-186944813D01*
X137419081Y-186944500D01*
X145534978Y-186944500D01*
X145534980Y-186944500D01*
X145534981Y-186944500D01*
X145771988Y-186906962D01*
X145771994Y-186906959D01*
X145771999Y-186906959D01*
X145853917Y-186880341D01*
X146000205Y-186832810D01*
X146000211Y-186832807D01*
X146048751Y-186808075D01*
X146048782Y-186808058D01*
X146052734Y-186806045D01*
X146214012Y-186723870D01*
X146228232Y-186713537D01*
X146265237Y-186694047D01*
X146320481Y-186673307D01*
X146374263Y-186649023D01*
X146394648Y-186645464D01*
X146414021Y-186638192D01*
X146472691Y-186631842D01*
X146530819Y-186621696D01*
X146551446Y-186623318D01*
X146572021Y-186621092D01*
X146630419Y-186629531D01*
X146689251Y-186634160D01*
X146708832Y-186640863D01*
X146729309Y-186643823D01*
X146783768Y-186666517D01*
X146839607Y-186685634D01*
X146856904Y-186696995D01*
X146876004Y-186704955D01*
X146923114Y-186740485D01*
X146972438Y-186772883D01*
X146986365Y-186788188D01*
X147002886Y-186800648D01*
X147039684Y-186846782D01*
X147079398Y-186890425D01*
X147089079Y-186908709D01*
X147101985Y-186924889D01*
X147126154Y-186978727D01*
X147153766Y-187030873D01*
X147158596Y-187050993D01*
X147167072Y-187069872D01*
X147177093Y-187128029D01*
X147190869Y-187185404D01*
X147192694Y-187218570D01*
X147194059Y-187226487D01*
X147193506Y-187233316D01*
X147194700Y-187254991D01*
X147194700Y-206560700D01*
X147174782Y-206718369D01*
X147116278Y-206866132D01*
X147022866Y-206994703D01*
X146900414Y-207096004D01*
X146756617Y-207163670D01*
X146600509Y-207193449D01*
X146560700Y-207194700D01*
X127000000Y-207194700D01*
X127000000Y-202371791D01*
X140543900Y-202371791D01*
X140543900Y-202628208D01*
X140577370Y-202882435D01*
X140643736Y-203130116D01*
X140741866Y-203367024D01*
X140870070Y-203589079D01*
X141026171Y-203792514D01*
X141207485Y-203973828D01*
X141410920Y-204129929D01*
X141632975Y-204258133D01*
X141632978Y-204258134D01*
X141632983Y-204258137D01*
X141869883Y-204356264D01*
X142117565Y-204422630D01*
X142371790Y-204456100D01*
X142371791Y-204456100D01*
X142628209Y-204456100D01*
X142628210Y-204456100D01*
X142882435Y-204422630D01*
X143130117Y-204356264D01*
X143367017Y-204258137D01*
X143589083Y-204129927D01*
X143792514Y-203973829D01*
X143973829Y-203792514D01*
X144129927Y-203589083D01*
X144258137Y-203367017D01*
X144356264Y-203130117D01*
X144422630Y-202882435D01*
X144456100Y-202628210D01*
X144456100Y-202371790D01*
X144422630Y-202117565D01*
X144356264Y-201869883D01*
X144258137Y-201632983D01*
X144258134Y-201632978D01*
X144258133Y-201632975D01*
X144129929Y-201410920D01*
X143973828Y-201207485D01*
X143792514Y-201026171D01*
X143589079Y-200870070D01*
X143367024Y-200741866D01*
X143367017Y-200741863D01*
X143130117Y-200643736D01*
X142882435Y-200577370D01*
X142628210Y-200543900D01*
X142371790Y-200543900D01*
X142285170Y-200555304D01*
X142117564Y-200577370D01*
X141869883Y-200643736D01*
X141632975Y-200741866D01*
X141410920Y-200870070D01*
X141207485Y-201026171D01*
X141026171Y-201207485D01*
X140870070Y-201410920D01*
X140741866Y-201632975D01*
X140643736Y-201869883D01*
X140577370Y-202117564D01*
X140543900Y-202371791D01*
X127000000Y-202371791D01*
X127000000Y-200660000D01*
X121920000Y-200660000D01*
X121920000Y-200555304D01*
X121939918Y-200397635D01*
X121998422Y-200249872D01*
X122091834Y-200121301D01*
X122214286Y-200020000D01*
X122358083Y-199952334D01*
X122514191Y-199922555D01*
X122672800Y-199932534D01*
X122823944Y-199981644D01*
X122915056Y-200034157D01*
X122980461Y-200079470D01*
X122980469Y-200079475D01*
X123188677Y-200174048D01*
X123188684Y-200174051D01*
X123410447Y-200229930D01*
X123544753Y-200240500D01*
X125375246Y-200240499D01*
X125509553Y-200229930D01*
X125731316Y-200174051D01*
X125847448Y-200121301D01*
X125939530Y-200079475D01*
X125939531Y-200079474D01*
X125939536Y-200079472D01*
X126127523Y-199949234D01*
X126289234Y-199787523D01*
X126419472Y-199599536D01*
X126514051Y-199391316D01*
X126569930Y-199169553D01*
X126580500Y-199035247D01*
X126580499Y-197204754D01*
X126569930Y-197070447D01*
X126514051Y-196848684D01*
X126514048Y-196848677D01*
X126419475Y-196640469D01*
X126419471Y-196640463D01*
X126289235Y-196452479D01*
X126289234Y-196452477D01*
X126127523Y-196290766D01*
X125939536Y-196160528D01*
X125939530Y-196160524D01*
X125731322Y-196065951D01*
X125731307Y-196065946D01*
X125509560Y-196010071D01*
X125509555Y-196010070D01*
X125509553Y-196010070D01*
X125375247Y-195999500D01*
X125375236Y-195999500D01*
X123544757Y-195999500D01*
X123544744Y-195999501D01*
X123410453Y-196010069D01*
X123410450Y-196010069D01*
X123410447Y-196010070D01*
X123188696Y-196065946D01*
X123188684Y-196065949D01*
X123188677Y-196065951D01*
X122980469Y-196160524D01*
X122980461Y-196160529D01*
X122915052Y-196205845D01*
X122774105Y-196279262D01*
X122619327Y-196315320D01*
X122460444Y-196311754D01*
X122307440Y-196268788D01*
X122169928Y-196189120D01*
X122056549Y-196077758D01*
X121974427Y-195941698D01*
X121928721Y-195789490D01*
X121920000Y-195684695D01*
X121920000Y-189371253D01*
X121939918Y-189213584D01*
X121998422Y-189065821D01*
X122091834Y-188937250D01*
X122214286Y-188835949D01*
X122358083Y-188768283D01*
X122514191Y-188738504D01*
X122672800Y-188748483D01*
X122718094Y-188758857D01*
X122775413Y-188774216D01*
X122775418Y-188774216D01*
X122775423Y-188774218D01*
X123051015Y-188810500D01*
X123328985Y-188810500D01*
X123604577Y-188774218D01*
X123873075Y-188702274D01*
X123877003Y-188700646D01*
X123881467Y-188699425D01*
X123892728Y-188695603D01*
X123892958Y-188696281D01*
X124030288Y-188658710D01*
X124189191Y-188656210D01*
X124343724Y-188693307D01*
X124381800Y-188709128D01*
X124458684Y-188744051D01*
X124680447Y-188799930D01*
X124814753Y-188810500D01*
X126645246Y-188810499D01*
X126779553Y-188799930D01*
X127001316Y-188744051D01*
X127106484Y-188696281D01*
X127209530Y-188649475D01*
X127209531Y-188649474D01*
X127209536Y-188649472D01*
X127397523Y-188519234D01*
X127559234Y-188357523D01*
X127689472Y-188169536D01*
X127784051Y-187961316D01*
X127839930Y-187739553D01*
X127850500Y-187605247D01*
X127850499Y-185774754D01*
X127839930Y-185640447D01*
X127784051Y-185418684D01*
X127715198Y-185267100D01*
X127689475Y-185210469D01*
X127689470Y-185210461D01*
X127622683Y-185114060D01*
X127578504Y-185050292D01*
X127505089Y-184909350D01*
X127469029Y-184754572D01*
X127472594Y-184595690D01*
X127515560Y-184442685D01*
X127595226Y-184305173D01*
X127651340Y-184240943D01*
X131895328Y-179996957D01*
X132026974Y-179815762D01*
X132128653Y-179616204D01*
X132197864Y-179403197D01*
X132232900Y-179181985D01*
X132232900Y-177323747D01*
X132252818Y-177166078D01*
X132311322Y-177018315D01*
X132404734Y-176889744D01*
X132527186Y-176788443D01*
X132670983Y-176720777D01*
X132827091Y-176690998D01*
X132985700Y-176700977D01*
X133136844Y-176750087D01*
X133252853Y-176820760D01*
X133342755Y-176889744D01*
X133467219Y-176985249D01*
X133467220Y-176985250D01*
X133702272Y-177120958D01*
X133702273Y-177120958D01*
X133702276Y-177120960D01*
X133953031Y-177224826D01*
X134215199Y-177295074D01*
X134484292Y-177330500D01*
X134755708Y-177330500D01*
X135024801Y-177295074D01*
X135286969Y-177224826D01*
X135537724Y-177120960D01*
X135772777Y-176985252D01*
X135988105Y-176820025D01*
X136180025Y-176628105D01*
X136345252Y-176412777D01*
X136480960Y-176177724D01*
X136584826Y-175926969D01*
X136655074Y-175664801D01*
X136690500Y-175395708D01*
X136690500Y-175124292D01*
X136655074Y-174855199D01*
X136584826Y-174593031D01*
X136480960Y-174342276D01*
X136480957Y-174342271D01*
X136480956Y-174342268D01*
X136460598Y-174307008D01*
X136399011Y-174160505D01*
X136375792Y-174003287D01*
X136392402Y-173845235D01*
X136447795Y-173696279D01*
X136460598Y-173672992D01*
X136480956Y-173637731D01*
X136480956Y-173637730D01*
X136480960Y-173637724D01*
X136584826Y-173386969D01*
X136655074Y-173124801D01*
X136690500Y-172855708D01*
X136690500Y-172584292D01*
X136655074Y-172315199D01*
X136584826Y-172053031D01*
X136480960Y-171802276D01*
X136480957Y-171802271D01*
X136480956Y-171802268D01*
X136460598Y-171767008D01*
X136399011Y-171620505D01*
X136375792Y-171463287D01*
X136392402Y-171305235D01*
X136447795Y-171156279D01*
X136460598Y-171132992D01*
X136480956Y-171097731D01*
X136480956Y-171097730D01*
X136480960Y-171097724D01*
X136584826Y-170846969D01*
X136655074Y-170584801D01*
X136690500Y-170315708D01*
X136690500Y-170044292D01*
X136655074Y-169775199D01*
X136584826Y-169513031D01*
X136480960Y-169262276D01*
X136480957Y-169262271D01*
X136480956Y-169262268D01*
X136460598Y-169227008D01*
X136399011Y-169080505D01*
X136375792Y-168923287D01*
X136392402Y-168765235D01*
X136447795Y-168616279D01*
X136460598Y-168592992D01*
X136480956Y-168557731D01*
X136480956Y-168557730D01*
X136480960Y-168557724D01*
X136584826Y-168306969D01*
X136655074Y-168044801D01*
X136690500Y-167775708D01*
X136690500Y-167504292D01*
X136655659Y-167239650D01*
X136654828Y-167080732D01*
X136693544Y-166926598D01*
X136769376Y-166786934D01*
X136877558Y-166670517D01*
X137011293Y-166584660D01*
X137162178Y-166534760D01*
X137247276Y-166526491D01*
X137247148Y-166524855D01*
X137271977Y-166522900D01*
X137271985Y-166522900D01*
X137493197Y-166487864D01*
X137706204Y-166418653D01*
X137905762Y-166316974D01*
X138086957Y-166185328D01*
X144078194Y-160194089D01*
X144203768Y-160096686D01*
X144349620Y-160033570D01*
X144506586Y-160008709D01*
X144664803Y-160023665D01*
G37*
%TD.AperFunction*%
%TA.AperFunction,Conductor*%
G36*
X124460000Y-178065103D02*
G01*
X124440082Y-178222772D01*
X124381578Y-178370535D01*
X124288166Y-178499106D01*
X124274306Y-178513409D01*
X122104671Y-180683043D01*
X121973027Y-180864236D01*
X121973026Y-180864237D01*
X121920000Y-180968307D01*
X121920000Y-180340000D01*
X124460000Y-177800000D01*
X124460000Y-178065103D01*
G37*
%TD.AperFunction*%
%TD*%
M02*
