M48
; DRILL file {KiCad 9.0.0} date 2025-10-01T11:12:31-0400
; FORMAT={-:-/ absolute / metric / decimal}
; #@! TF.CreationDate,2025-10-01T11:12:31-04:00
; #@! TF.GenerationSoftware,Kicad,Pcbnew,9.0.0
; #@! TF.FileFunction,Plated,1,4,PTH
FMAT,2
METRIC
; #@! TA.AperFunction,Plated,PTH,ViaDrill
T1C0.400
; #@! TA.AperFunction,Plated,PTH,ComponentDrill
T2C0.800
; #@! TA.AperFunction,Plated,PTH,ComponentDrill
T3C0.950
; #@! TA.AperFunction,Plated,PTH,ComponentDrill
T4C1.000
; #@! TA.AperFunction,Plated,PTH,ComponentDrill
T5C1.300
; #@! TA.AperFunction,Plated,PTH,ComponentDrill
T6C1.800
; #@! TA.AperFunction,Plated,PTH,ComponentDrill
T7C2.300
%
G90
G05
T1
X52.07Y-104.14
X52.07Y-111.76
X52.07Y-116.84
X52.07Y-119.38
X52.07Y-121.92
X52.07Y-124.46
X52.07Y-130.81
X52.07Y-138.43
X52.07Y-143.51
X52.07Y-148.59
X52.07Y-153.67
X52.07Y-158.75
X52.07Y-163.83
X52.07Y-168.91
X52.07Y-173.99
X52.07Y-179.07
X52.07Y-198.12
X55.88Y-119.38
X55.88Y-121.92
X55.88Y-124.46
X55.88Y-157.48
X55.88Y-161.29
X55.88Y-189.23
X57.15Y-134.62
X58.42Y-168.91
X58.42Y-173.99
X58.42Y-179.07
X59.69Y-105.41
X59.69Y-119.38
X59.69Y-121.92
X59.69Y-124.46
X59.69Y-153.67
X59.69Y-165.1
X60.96Y-134.62
X60.96Y-205.74
X63.5Y-119.38
X63.5Y-121.92
X63.5Y-124.46
X63.5Y-130.81
X63.5Y-148.59
X63.5Y-168.91
X63.5Y-173.99
X63.5Y-179.07
X64.77Y-130.81
X65.405Y-111.76
X66.04Y-125.73
X67.31Y-111.76
X67.945Y-126.365
X68.58Y-132.715
X68.58Y-138.43
X68.58Y-143.51
X68.58Y-148.59
X68.58Y-168.91
X68.58Y-173.99
X68.58Y-179.07
X69.215Y-126.365
X71.12Y-114.935
X71.12Y-124.46
X71.12Y-125.73
X71.12Y-135.89
X71.755Y-111.76
X72.39Y-114.935
X72.39Y-154.94
X72.39Y-156.21
X72.39Y-163.83
X73.66Y-113.665
X73.66Y-138.43
X73.66Y-143.51
X73.66Y-148.59
X73.66Y-168.91
X73.66Y-173.99
X73.66Y-179.07
X73.66Y-184.15
X73.66Y-189.23
X73.66Y-196.85
X74.93Y-165.1
X75.565Y-111.76
X75.565Y-114.935
X75.565Y-117.475
X77.47Y-163.83
X78.74Y-138.43
X78.74Y-143.51
X78.74Y-148.59
X78.74Y-173.99
X78.74Y-179.07
X78.74Y-184.15
X78.74Y-189.23
X81.28Y-129.54
X81.28Y-132.715
X81.28Y-135.89
X81.28Y-165.1
X81.28Y-168.91
X81.28Y-194.945
X83.82Y-104.14
X83.82Y-129.54
X83.82Y-138.43
X83.82Y-143.51
X83.82Y-148.59
X83.82Y-165.1
X83.82Y-194.945
X85.09Y-104.14
X86.36Y-115.57
X86.36Y-129.54
X86.36Y-132.715
X86.36Y-176.53
X86.36Y-180.34
X86.36Y-181.61
X87.63Y-138.43
X87.63Y-143.51
X87.63Y-148.59
X90.17Y-116.84
X90.805Y-132.715
X91.44Y-168.91
X91.44Y-173.99
X91.44Y-179.07
X93.98Y-107.95
X93.98Y-139.7
X93.98Y-143.51
X93.98Y-147.32
X93.98Y-151.13
X95.25Y-125.73
X95.25Y-134.62
X96.52Y-165.1
X96.52Y-179.07
X97.79Y-168.91
X97.79Y-182.88
X97.79Y-184.15
X97.79Y-187.96
X97.79Y-189.23
X99.06Y-118.11
X99.06Y-120.65
X99.06Y-123.19
X99.06Y-129.54
X99.06Y-138.43
X100.194Y-123.572
X100.33Y-119.38
X100.33Y-130.81
X101.218Y-124.596
X101.6Y-125.73
X101.6Y-138.43
X101.6Y-152.4
X101.6Y-179.07
X102.87Y-103.505
X102.87Y-152.4
X104.14Y-104.775
X104.14Y-163.83
X104.14Y-194.945
X105.41Y-121.92
X106.68Y-179.07
X106.68Y-194.945
X106.68Y-205.74
X107.95Y-106.68
X107.95Y-109.22
X107.95Y-119.38
X107.95Y-173.99
X108.585Y-161.29
X109.22Y-121.92
X110.49Y-109.22
X110.49Y-119.38
X110.49Y-127.0
X110.49Y-154.94
X110.49Y-163.83
X111.76Y-179.07
X112.395Y-161.29
X113.03Y-106.68
X113.03Y-111.76
X113.03Y-114.3
X113.03Y-116.84
X113.03Y-121.92
X113.03Y-154.94
X114.3Y-127.0
X115.57Y-140.335
X115.57Y-144.145
X116.84Y-177.8
X116.84Y-205.74
X118.11Y-106.68
X118.11Y-111.76
X118.11Y-116.84
X118.11Y-121.92
X118.11Y-129.54
X119.38Y-144.78
X120.65Y-181.61
X121.285Y-120.015
X121.408Y-121.408
X121.92Y-144.78
X121.92Y-168.91
X121.92Y-172.72
X122.432Y-122.432
X122.555Y-123.825
X123.19Y-118.11
X123.19Y-189.23
X124.46Y-124.46
X124.46Y-162.56
X125.73Y-109.22
X128.27Y-109.22
X128.27Y-186.69
X128.905Y-189.23
X129.54Y-114.3
X129.54Y-152.4
X129.54Y-165.1
X129.54Y-167.64
X129.54Y-175.26
X130.81Y-109.22
X130.81Y-189.23
X132.08Y-132.08
X132.08Y-139.7
X132.08Y-162.56
X132.08Y-165.1
X132.08Y-182.88
X132.715Y-154.94
X132.715Y-157.48
X133.35Y-109.22
X134.62Y-114.3
X134.62Y-119.38
X134.62Y-134.62
X137.16Y-121.92
X137.16Y-129.54
X137.16Y-172.72
X138.43Y-105.41
X138.43Y-166.37
X138.43Y-177.8
X138.43Y-182.88
X138.43Y-189.23
X138.43Y-199.39
X138.43Y-205.74
X139.7Y-116.84
X139.7Y-119.38
X140.97Y-144.78
X140.97Y-146.05
X140.97Y-149.86
X140.97Y-189.23
X142.24Y-124.46
X142.24Y-148.59
X142.24Y-149.86
X143.51Y-124.46
X143.51Y-129.54
X143.51Y-135.89
X143.51Y-142.24
X143.51Y-161.29
X143.51Y-189.23
X143.51Y-193.04
X143.51Y-196.85
X144.78Y-111.76
X144.78Y-167.64
X144.78Y-172.72
X144.78Y-177.8
X144.78Y-182.88
X146.05Y-189.23
X146.05Y-193.04
X146.05Y-196.85
X146.05Y-205.74
T2
X76.2Y-193.04
X76.2Y-200.66
X78.74Y-193.04
X78.74Y-200.66
X81.28Y-193.04
X81.28Y-200.66
X83.82Y-193.04
X83.82Y-200.66
X86.36Y-154.94
X86.36Y-157.48
X86.36Y-160.02
X86.36Y-162.56
X86.36Y-189.23
X86.36Y-193.04
X86.36Y-200.66
X88.9Y-193.04
X88.9Y-200.66
X91.44Y-193.04
X91.44Y-200.66
X93.98Y-154.94
X93.98Y-157.48
X93.98Y-160.02
X93.98Y-162.56
X93.98Y-189.23
X95.25Y-198.12
X95.25Y-200.62
X96.52Y-138.43
X97.79Y-157.48
X97.79Y-159.98
X99.06Y-193.04
X99.06Y-200.66
X101.6Y-146.05
X101.6Y-149.86
X101.6Y-157.48
X101.6Y-193.04
X101.6Y-200.66
X104.1Y-146.05
X104.14Y-138.43
X104.14Y-149.86
X104.14Y-157.48
X104.14Y-193.04
X104.14Y-200.66
X106.68Y-149.86
X106.68Y-157.48
X106.68Y-161.29
X106.68Y-193.04
X106.68Y-200.66
X109.22Y-149.86
X109.22Y-157.48
X109.22Y-189.23
X109.22Y-193.04
X109.22Y-200.66
X111.76Y-149.86
X111.76Y-157.48
X111.76Y-193.04
X111.76Y-200.66
X114.3Y-134.62
X114.3Y-142.24
X114.3Y-149.86
X114.3Y-157.48
X114.3Y-161.29
X114.3Y-193.04
X114.3Y-200.66
X116.84Y-134.62
X116.84Y-142.24
X116.84Y-149.86
X116.84Y-157.48
X116.84Y-189.23
X118.11Y-198.12
X118.11Y-200.62
X119.38Y-134.62
X119.38Y-142.24
X119.38Y-149.86
X119.38Y-157.48
X119.38Y-161.29
X119.38Y-163.79
X121.92Y-134.62
X121.92Y-142.24
X121.92Y-149.86
X121.92Y-157.48
X125.73Y-137.2
X125.73Y-139.7
X127.0Y-152.4
X127.0Y-154.94
X127.0Y-157.48
X127.0Y-160.02
X127.0Y-162.56
X127.0Y-165.1
X127.0Y-167.64
X127.0Y-170.18
X127.0Y-172.72
X127.0Y-175.26
X129.54Y-132.08
X129.54Y-139.7
X129.54Y-148.59
X132.04Y-148.59
X134.62Y-152.4
X134.62Y-154.94
X134.62Y-157.48
X134.62Y-160.02
X134.62Y-162.56
X134.62Y-165.1
X134.62Y-167.64
X134.62Y-170.18
X134.62Y-172.72
X134.62Y-175.26
T3
X62.77Y-134.66
X62.77Y-137.16
X64.77Y-134.66
X64.77Y-137.16
T4
X80.01Y-154.94
X80.01Y-157.48
X81.28Y-127.0
X83.82Y-127.0
X86.36Y-127.0
X88.9Y-127.0
X104.14Y-142.24
X110.49Y-129.54
X113.03Y-129.54
X115.57Y-129.54
X123.19Y-186.69
X124.46Y-106.68
X124.46Y-129.54
X124.46Y-198.12
X125.73Y-186.69
X127.0Y-106.68
X129.54Y-106.68
X132.08Y-106.68
X134.62Y-106.68
X142.24Y-114.3
X142.24Y-116.84
X142.24Y-119.38
T5
X101.8Y-168.91
X101.8Y-173.91
X114.3Y-168.91
X114.3Y-173.91
T6
X63.08Y-152.5
X63.08Y-156.7
X63.08Y-160.9
X63.08Y-165.1
X63.08Y-185.42
X63.08Y-189.62
X63.08Y-193.82
X68.58Y-152.5
X68.58Y-156.7
X68.58Y-160.9
X68.58Y-165.1
X68.58Y-185.42
X68.58Y-189.62
X68.58Y-193.82
T7
X59.91Y-129.91
X59.91Y-141.91
M30
