%TF.GenerationSoftware,KiCad,Pcbnew,9.0.0*%
%TF.CreationDate,2025-09-27T10:55:46-04:00*%
%TF.ProjectId,can_gauge_interface,63616e5f-6761-4756-9765-5f696e746572,0.1*%
%TF.SameCoordinates,Original*%
%TF.FileFunction,Copper,L1,Top*%
%TF.FilePolarity,Positive*%
%FSLAX46Y46*%
G04 Gerber Fmt 4.6, Leading zero omitted, Abs format (unit mm)*
G04 Created by KiCad (PCBNEW 9.0.0) date 2025-09-27 10:55:46*
%MOMM*%
%LPD*%
G01*
G04 APERTURE LIST*
G04 Aperture macros list*
%AMRoundRect*
0 Rectangle with rounded corners*
0 $1 Rounding radius*
0 $2 $3 $4 $5 $6 $7 $8 $9 X,Y pos of 4 corners*
0 Add a 4 corners polygon primitive as box body*
4,1,4,$2,$3,$4,$5,$6,$7,$8,$9,$2,$3,0*
0 Add four circle primitives for the rounded corners*
1,1,$1+$1,$2,$3*
1,1,$1+$1,$4,$5*
1,1,$1+$1,$6,$7*
1,1,$1+$1,$8,$9*
0 Add four rect primitives between the rounded corners*
20,1,$1+$1,$2,$3,$4,$5,0*
20,1,$1+$1,$4,$5,$6,$7,0*
20,1,$1+$1,$6,$7,$8,$9,0*
20,1,$1+$1,$8,$9,$2,$3,0*%
G04 Aperture macros list end*
%TA.AperFunction,ComponentPad*%
%ADD10R,1.700000X1.700000*%
%TD*%
%TA.AperFunction,ComponentPad*%
%ADD11O,1.700000X1.700000*%
%TD*%
%TA.AperFunction,ComponentPad*%
%ADD12RoundRect,0.250000X-0.550000X0.550000X-0.550000X-0.550000X0.550000X-0.550000X0.550000X0.550000X0*%
%TD*%
%TA.AperFunction,ComponentPad*%
%ADD13C,1.600000*%
%TD*%
%TA.AperFunction,SMDPad,CuDef*%
%ADD14RoundRect,0.250000X0.350000X0.450000X-0.350000X0.450000X-0.350000X-0.450000X0.350000X-0.450000X0*%
%TD*%
%TA.AperFunction,SMDPad,CuDef*%
%ADD15RoundRect,0.250000X-0.350000X-0.450000X0.350000X-0.450000X0.350000X0.450000X-0.350000X0.450000X0*%
%TD*%
%TA.AperFunction,SMDPad,CuDef*%
%ADD16RoundRect,0.250000X-0.412500X-0.650000X0.412500X-0.650000X0.412500X0.650000X-0.412500X0.650000X0*%
%TD*%
%TA.AperFunction,ComponentPad*%
%ADD17RoundRect,0.250000X-0.550000X-0.550000X0.550000X-0.550000X0.550000X0.550000X-0.550000X0.550000X0*%
%TD*%
%TA.AperFunction,ComponentPad*%
%ADD18C,2.400000*%
%TD*%
%TA.AperFunction,ComponentPad*%
%ADD19O,2.400000X2.400000*%
%TD*%
%TA.AperFunction,SMDPad,CuDef*%
%ADD20RoundRect,0.250000X0.650000X-0.412500X0.650000X0.412500X-0.650000X0.412500X-0.650000X-0.412500X0*%
%TD*%
%TA.AperFunction,SMDPad,CuDef*%
%ADD21RoundRect,0.250000X-0.450000X0.350000X-0.450000X-0.350000X0.450000X-0.350000X0.450000X0.350000X0*%
%TD*%
%TA.AperFunction,ComponentPad*%
%ADD22O,3.200000X1.900000*%
%TD*%
%TA.AperFunction,ComponentPad*%
%ADD23RoundRect,0.250001X1.599999X-1.099999X1.599999X1.099999X-1.599999X1.099999X-1.599999X-1.099999X0*%
%TD*%
%TA.AperFunction,ComponentPad*%
%ADD24O,3.700000X2.700000*%
%TD*%
%TA.AperFunction,ComponentPad*%
%ADD25C,1.700000*%
%TD*%
%TA.AperFunction,ComponentPad*%
%ADD26C,3.500000*%
%TD*%
%TA.AperFunction,SMDPad,CuDef*%
%ADD27R,0.802000X1.505000*%
%TD*%
%TA.AperFunction,SMDPad,CuDef*%
%ADD28R,3.502000X2.613000*%
%TD*%
%TA.AperFunction,SMDPad,CuDef*%
%ADD29R,1.505000X0.802000*%
%TD*%
%TA.AperFunction,SMDPad,CuDef*%
%ADD30R,2.613000X3.502000*%
%TD*%
%TA.AperFunction,SMDPad,CuDef*%
%ADD31R,4.900000X5.400000*%
%TD*%
%TA.AperFunction,ComponentPad*%
%ADD32RoundRect,0.250000X0.550000X0.550000X-0.550000X0.550000X-0.550000X-0.550000X0.550000X-0.550000X0*%
%TD*%
%TA.AperFunction,ViaPad*%
%ADD33C,0.812800*%
%TD*%
%TA.AperFunction,Conductor*%
%ADD34C,0.508000*%
%TD*%
%TA.AperFunction,Conductor*%
%ADD35C,0.304800*%
%TD*%
G04 APERTURE END LIST*
D10*
%TO.P,JP5,1,A*%
%TO.N,/CAN_L*%
X55880000Y-134620000D03*
D11*
%TO.P,JP5,2,B*%
%TO.N,Net-(JP5-B)*%
X55880000Y-132080000D03*
%TD*%
D12*
%TO.P,U8,1,Vdd*%
%TO.N,+5VA*%
X121920000Y-210820000D03*
D13*
%TO.P,U8,2,NC*%
%TO.N,unconnected-(U8-NC-Pad2)*%
X119380000Y-210820000D03*
%TO.P,U8,3,~{CS}*%
%TO.N,/DAC1_~{CS}*%
X116840000Y-210820000D03*
%TO.P,U8,4,SCK*%
%TO.N,/SCK*%
X114300000Y-210820000D03*
%TO.P,U8,5,SDI*%
%TO.N,/MOSI*%
X111760000Y-210820000D03*
%TO.P,U8,6,NC*%
%TO.N,unconnected-(U8-NC-Pad6)*%
X109220000Y-210820000D03*
%TO.P,U8,7,NC*%
%TO.N,unconnected-(U8-NC-Pad7)*%
X106680000Y-210820000D03*
%TO.P,U8,8,~{LDAC}*%
%TO.N,GND*%
X106680000Y-218440000D03*
%TO.P,U8,9,~{SHDN}*%
%TO.N,+5VA*%
X109220000Y-218440000D03*
%TO.P,U8,10,VB*%
%TO.N,/AN2*%
X111760000Y-218440000D03*
%TO.P,U8,11,VrefB*%
%TO.N,+5VA*%
X114300000Y-218440000D03*
%TO.P,U8,12,Vss*%
%TO.N,GND*%
X116840000Y-218440000D03*
%TO.P,U8,13,VrefA*%
%TO.N,+5VA*%
X119380000Y-218440000D03*
%TO.P,U8,14,VA*%
%TO.N,/AN1*%
X121920000Y-218440000D03*
%TD*%
%TO.P,C15,1*%
%TO.N,GND*%
X137160000Y-132080000D03*
%TO.P,C15,2*%
%TO.N,+5V*%
X134660000Y-132080000D03*
%TD*%
D10*
%TO.P,J6,1,Pin_1*%
%TO.N,/CAN_~{CS}*%
X111760000Y-134620000D03*
%TD*%
%TO.P,JP3,1,A*%
%TO.N,VBUS*%
X38100000Y-172720000D03*
D11*
%TO.P,JP3,2,B*%
%TO.N,+5V*%
X40640000Y-172720000D03*
%TD*%
D13*
%TO.P,C13,1*%
%TO.N,GND*%
X93980000Y-127000000D03*
%TO.P,C13,2*%
%TO.N,+5V*%
X96480000Y-127000000D03*
%TD*%
D10*
%TO.P,J4,1,Pin_1*%
%TO.N,/ICSP_~{MCLR}*%
X162500000Y-86360000D03*
D11*
%TO.P,J4,2,Pin_2*%
%TO.N,+5V*%
X165040000Y-86360000D03*
%TO.P,J4,3,Pin_3*%
%TO.N,GND*%
X167580000Y-86360000D03*
%TO.P,J4,4,Pin_4*%
%TO.N,/ICSP_DAT*%
X170120000Y-86360000D03*
%TO.P,J4,5,Pin_5*%
%TO.N,/ICSP_CLK*%
X172660000Y-86360000D03*
%TD*%
D13*
%TO.P,C16,1*%
%TO.N,+5VA*%
X99060000Y-215940000D03*
%TO.P,C16,2*%
%TO.N,GND*%
X99060000Y-218440000D03*
%TD*%
D10*
%TO.P,JP2,1,A*%
%TO.N,/INT*%
X182880000Y-146035000D03*
D11*
%TO.P,JP2,2,C*%
%TO.N,/INT{slash}ICSP_CLK*%
X182880000Y-143495000D03*
%TO.P,JP2,3,B*%
%TO.N,/ICSP_CLK*%
X182880000Y-140955000D03*
%TD*%
D14*
%TO.P,R8,1*%
%TO.N,Net-(JP5-B)*%
X50800000Y-128905000D03*
%TO.P,R8,2*%
%TO.N,/CAN_H*%
X48800000Y-128905000D03*
%TD*%
D15*
%TO.P,R1,1*%
%TO.N,Net-(U5-FB)*%
X54745000Y-110000000D03*
%TO.P,R1,2*%
%TO.N,+6.5V*%
X56745000Y-110000000D03*
%TD*%
D10*
%TO.P,JP1,1,A*%
%TO.N,Net-(JP1-A)*%
X157420000Y-99060000D03*
D11*
%TO.P,JP1,2,B*%
%TO.N,/ICSP_~{MCLR}*%
X154880000Y-99060000D03*
%TD*%
D13*
%TO.P,C4,1*%
%TO.N,Net-(U5-SW)*%
X39255000Y-91585000D03*
%TO.P,C4,2*%
%TO.N,Net-(U5-BST)*%
X41755000Y-91585000D03*
%TD*%
%TO.P,C12,1*%
%TO.N,Net-(JP1-A)*%
X165040000Y-99060000D03*
%TO.P,C12,2*%
%TO.N,GND*%
X167540000Y-99060000D03*
%TD*%
D16*
%TO.P,C11,1*%
%TO.N,Net-(U1-Vusb3v3)*%
X174675000Y-134620000D03*
%TO.P,C11,2*%
%TO.N,GND*%
X177800000Y-134620000D03*
%TD*%
D17*
%TO.P,U4,1,~{CS}*%
%TO.N,/ROM_~{CS}*%
X127000000Y-137160000D03*
D13*
%TO.P,U4,2,MISO*%
%TO.N,/MISO*%
X127000000Y-139700000D03*
%TO.P,U4,3,~{WP}*%
%TO.N,+5V*%
X127000000Y-142240000D03*
%TO.P,U4,4,GND*%
%TO.N,GND*%
X127000000Y-144780000D03*
%TO.P,U4,5,MOSI*%
%TO.N,/MOSI*%
X134620000Y-144780000D03*
%TO.P,U4,6,SCK*%
%TO.N,/SCK*%
X134620000Y-142240000D03*
%TO.P,U4,7,~{HOLD}*%
%TO.N,+5V*%
X134620000Y-139700000D03*
%TO.P,U4,8,VCC*%
X134620000Y-137160000D03*
%TD*%
D18*
%TO.P,R10,1*%
%TO.N,+5VA*%
X132080000Y-204470000D03*
D19*
%TO.P,R10,2*%
%TO.N,/DAC1_~{CS}*%
X119380000Y-204470000D03*
%TD*%
D10*
%TO.P,J8,1,Pin_1*%
%TO.N,/DAC1_~{CS}*%
X134620000Y-180340000D03*
D11*
%TO.P,J8,2,Pin_2*%
%TO.N,/DAC2_~{CS}*%
X134620000Y-177800000D03*
%TD*%
D20*
%TO.P,C6,1*%
%TO.N,+6.5V*%
X69715000Y-93782500D03*
%TO.P,C6,2*%
%TO.N,GND*%
X69715000Y-90657500D03*
%TD*%
D13*
%TO.P,C5,1*%
%TO.N,GND*%
X53245000Y-105555000D03*
%TO.P,C5,2*%
%TO.N,Net-(C5-Pad2)*%
X55745000Y-105555000D03*
%TD*%
D21*
%TO.P,R3,1*%
%TO.N,Net-(U5-RT{slash}CLK)*%
X43553000Y-103650000D03*
%TO.P,R3,2*%
%TO.N,GND*%
X43553000Y-105650000D03*
%TD*%
D22*
%TO.P,SW1,1,1*%
%TO.N,GND*%
X134760000Y-93980000D03*
X147260000Y-93980000D03*
%TO.P,SW1,2,2*%
%TO.N,/ICSP_~{MCLR}*%
X134760000Y-98980000D03*
X147260000Y-98980000D03*
%TD*%
D15*
%TO.P,R2,1*%
%TO.N,GND*%
X49935000Y-110000000D03*
%TO.P,R2,2*%
%TO.N,Net-(U5-FB)*%
X51935000Y-110000000D03*
%TD*%
D23*
%TO.P,J3,1,Pin_1*%
%TO.N,/AN1*%
X37680000Y-210820000D03*
D24*
%TO.P,J3,2,Pin_2*%
%TO.N,GND*%
X37680000Y-206620000D03*
%TO.P,J3,3,Pin_3*%
%TO.N,/AN4*%
X37680000Y-202420000D03*
%TO.P,J3,4,Pin_4*%
%TO.N,/AN2*%
X43180000Y-210820000D03*
%TO.P,J3,5,Pin_5*%
%TO.N,GND*%
X43180000Y-206620000D03*
%TO.P,J3,6,Pin_6*%
%TO.N,/AN3*%
X43180000Y-202420000D03*
%TD*%
D18*
%TO.P,R11,1*%
%TO.N,+5VA*%
X96520000Y-205740000D03*
D19*
%TO.P,R11,2*%
%TO.N,/DAC2_~{CS}*%
X96520000Y-193040000D03*
%TD*%
D23*
%TO.P,J2,1,Pin_1*%
%TO.N,/Tach*%
X37680000Y-142140000D03*
D24*
%TO.P,J2,2,Pin_2*%
%TO.N,GND*%
X37680000Y-137940000D03*
%TO.P,J2,3,Pin_3*%
X37680000Y-133740000D03*
%TO.P,J2,4,Pin_4*%
%TO.N,+12V*%
X37680000Y-129540000D03*
%TO.P,J2,5,Pin_5*%
%TO.N,/Speed*%
X43180000Y-142140000D03*
%TO.P,J2,6,Pin_6*%
%TO.N,/CAN_H*%
X43180000Y-137940000D03*
%TO.P,J2,7,Pin_7*%
%TO.N,/CAN_L*%
X43180000Y-133740000D03*
%TO.P,J2,8,Pin_8*%
%TO.N,GND*%
X43180000Y-129540000D03*
%TD*%
D13*
%TO.P,C14,1*%
%TO.N,GND*%
X78740000Y-135890000D03*
%TO.P,C14,2*%
%TO.N,+5V*%
X78740000Y-133390000D03*
%TD*%
D14*
%TO.P,R5,1*%
%TO.N,Net-(C5-Pad2)*%
X54475000Y-101745000D03*
%TO.P,R5,2*%
%TO.N,Net-(U5-COMP)*%
X52475000Y-101745000D03*
%TD*%
D12*
%TO.P,U9,1,Vdd*%
%TO.N,+5VA*%
X93980000Y-210820000D03*
D13*
%TO.P,U9,2,NC*%
%TO.N,unconnected-(U9-NC-Pad2)*%
X91440000Y-210820000D03*
%TO.P,U9,3,~{CS}*%
%TO.N,/DAC2_~{CS}*%
X88900000Y-210820000D03*
%TO.P,U9,4,SCK*%
%TO.N,/SCK*%
X86360000Y-210820000D03*
%TO.P,U9,5,SDI*%
%TO.N,/MOSI*%
X83820000Y-210820000D03*
%TO.P,U9,6,NC*%
%TO.N,unconnected-(U9-NC-Pad6)*%
X81280000Y-210820000D03*
%TO.P,U9,7,NC*%
%TO.N,unconnected-(U9-NC-Pad7)*%
X78740000Y-210820000D03*
%TO.P,U9,8,~{LDAC}*%
%TO.N,GND*%
X78740000Y-218440000D03*
%TO.P,U9,9,~{SHDN}*%
%TO.N,+5VA*%
X81280000Y-218440000D03*
%TO.P,U9,10,VB*%
%TO.N,/AN4*%
X83820000Y-218440000D03*
%TO.P,U9,11,VrefB*%
%TO.N,+5VA*%
X86360000Y-218440000D03*
%TO.P,U9,12,Vss*%
%TO.N,GND*%
X88900000Y-218440000D03*
%TO.P,U9,13,VrefA*%
%TO.N,+5VA*%
X91440000Y-218440000D03*
%TO.P,U9,14,VA*%
%TO.N,/AN3*%
X93980000Y-218440000D03*
%TD*%
D10*
%TO.P,J1,1,VBUS*%
%TO.N,VBUS*%
X38735000Y-159980000D03*
D25*
%TO.P,J1,2,D-*%
%TO.N,/USB_D-*%
X38735000Y-157480000D03*
%TO.P,J1,3,D+*%
%TO.N,/USB_D+*%
X36735000Y-157480000D03*
%TO.P,J1,4,GND*%
%TO.N,GND*%
X36735000Y-159980000D03*
D26*
%TO.P,J1,5,Shield*%
%TO.N,unconnected-(J1-Shield-Pad5)*%
X34025000Y-164750000D03*
%TO.N,unconnected-(J1-Shield-Pad5)_1*%
X34025000Y-152710000D03*
%TD*%
D16*
%TO.P,C8,1*%
%TO.N,+6.5V*%
X172085000Y-205861875D03*
%TO.P,C8,2*%
%TO.N,GND*%
X175210000Y-205861875D03*
%TD*%
D27*
%TO.P,U7,1,VO*%
%TO.N,+5VA*%
X170180000Y-214666875D03*
%TO.P,U7,2,NC*%
%TO.N,unconnected-(U7-NC-Pad2)*%
X171450000Y-214666875D03*
%TO.P,U7,3,NC*%
%TO.N,unconnected-(U7-NC-Pad3)*%
X172720000Y-214666875D03*
%TO.P,U7,4,NC*%
%TO.N,unconnected-(U7-NC-Pad4)*%
X173990000Y-214666875D03*
%TO.P,U7,5,GND*%
%TO.N,GND*%
X173990000Y-209671875D03*
%TO.P,U7,6,NC*%
%TO.N,unconnected-(U7-NC-Pad6)*%
X172720000Y-209671875D03*
%TO.P,U7,7,EN*%
%TO.N,+6.5V*%
X171450000Y-209671875D03*
%TO.P,U7,8,VI*%
X170180000Y-209671875D03*
D28*
%TO.P,U7,9,EP*%
%TO.N,GND*%
X172085000Y-212169375D03*
%TD*%
D10*
%TO.P,J9,1,Pin_1*%
%TO.N,+12V*%
X71120000Y-106680000D03*
D11*
%TO.P,J9,2,Pin_2*%
%TO.N,+6.5V*%
X73660000Y-106680000D03*
%TO.P,J9,3,Pin_3*%
%TO.N,+5V*%
X76200000Y-106680000D03*
%TO.P,J9,4,Pin_4*%
%TO.N,GND*%
X78740000Y-106680000D03*
%TD*%
D10*
%TO.P,JP4,1,A*%
%TO.N,VBUS*%
X48260000Y-172720000D03*
D11*
%TO.P,JP4,2,B*%
%TO.N,+5VA*%
X50800000Y-172720000D03*
%TD*%
D20*
%TO.P,C1,1*%
%TO.N,+12V*%
X40251000Y-99370500D03*
%TO.P,C1,2*%
%TO.N,GND*%
X40251000Y-96245500D03*
%TD*%
D17*
%TO.P,U1,1,VDD*%
%TO.N,+5V*%
X162560000Y-127000000D03*
D13*
%TO.P,U1,2,RA5/SOSCI/T1CKI/OSC1/CLKIN*%
%TO.N,/DAC2_~{CS}*%
X162560000Y-129540000D03*
%TO.P,U1,3,RA4/AN3/SOSCO/T1G/OSC2/CLKOUT/CLKR*%
%TO.N,/CLK*%
X162560000Y-132080000D03*
%TO.P,U1,4,RA3/T1G/~{SS}/~{MCLR}/Vpp*%
%TO.N,/~{MCLR}*%
X162560000Y-134620000D03*
%TO.P,U1,5,PWM1/CWG1A/T0CKI/RC5*%
%TO.N,unconnected-(U1-PWM1{slash}CWG1A{slash}T0CKI{slash}RC5-Pad5)*%
X162560000Y-137160000D03*
%TO.P,U1,6,CWG1B/C1OUT/C2OUT/RC4*%
%TO.N,/Speed*%
X162560000Y-139700000D03*
%TO.P,U1,7,CLKR/C1IN3-/C2IN3-/DACOUT2/AN7/RC3*%
%TO.N,/Tach*%
X162560000Y-142240000D03*
%TO.P,U1,8,~{SS}/PWM2/AN8/RC6*%
%TO.N,/CAN_~{CS}*%
X162560000Y-144780000D03*
%TO.P,U1,9,SDO/AN9/RC7*%
%TO.N,/MOSI*%
X162560000Y-147320000D03*
%TO.P,U1,10,RB7/TX/CK*%
%TO.N,/DAC1_~{CS}*%
X162560000Y-149860000D03*
%TO.P,U1,11,RB6/SCL/SCK*%
%TO.N,/SCK*%
X170180000Y-149860000D03*
%TO.P,U1,12,RB5/AN11/RX/DX*%
%TO.N,/ROM_~{CS}*%
X170180000Y-147320000D03*
%TO.P,U1,13,RB4/AN10/SDA/SDI*%
%TO.N,/MISO*%
X170180000Y-144780000D03*
%TO.P,U1,14,C2IN2-/C1IN2-/DACOUT1/AN6/RC2*%
%TO.N,unconnected-(U1-C2IN2-{slash}C1IN2-{slash}DACOUT1{slash}AN6{slash}RC2-Pad14)*%
X170180000Y-142240000D03*
%TO.P,U1,15,ICSPCLK/~{CWGFLT}/C2IN-/C1IN-/AN5/RC1*%
%TO.N,/INT{slash}ICSP_CLK*%
X170180000Y-139700000D03*
%TO.P,U1,16,ICSPDAT/C2IN+/C1IN+/Vref+/AN4/RC0*%
%TO.N,/ICSP_DAT*%
X170180000Y-137160000D03*
%TO.P,U1,17,Vusb3v3*%
%TO.N,Net-(U1-Vusb3v3)*%
X170180000Y-134620000D03*
%TO.P,U1,18,RA1/D-/ICSPCLK*%
%TO.N,/USB_D-*%
X170180000Y-132080000D03*
%TO.P,U1,19,RA0/D+/ICSPDAT*%
%TO.N,/USB_D+*%
X170180000Y-129540000D03*
%TO.P,U1,20,VSS*%
%TO.N,GND*%
X170180000Y-127000000D03*
%TD*%
D29*
%TO.P,U5,1,BST*%
%TO.N,Net-(U5-BST)*%
X44400000Y-97300000D03*
%TO.P,U5,2,VIN*%
%TO.N,+12V*%
X44400000Y-98570000D03*
%TO.P,U5,3,EN*%
X44400000Y-99840000D03*
%TO.P,U5,4,RT/CLK*%
%TO.N,Net-(U5-RT{slash}CLK)*%
X44400000Y-101110000D03*
%TO.P,U5,5,FB*%
%TO.N,Net-(U5-FB)*%
X49395000Y-101110000D03*
%TO.P,U5,6,COMP*%
%TO.N,Net-(U5-COMP)*%
X49395000Y-99840000D03*
%TO.P,U5,7,GND*%
%TO.N,GND*%
X49395000Y-98570000D03*
%TO.P,U5,8,SW*%
%TO.N,Net-(U5-SW)*%
X49395000Y-97300000D03*
D30*
%TO.P,U5,9,EP*%
%TO.N,GND*%
X46897500Y-99205000D03*
%TD*%
D18*
%TO.P,R9,1*%
%TO.N,+5V*%
X134620000Y-127000000D03*
D19*
%TO.P,R9,2*%
%TO.N,/ROM_~{CS}*%
X121920000Y-127000000D03*
%TD*%
D31*
%TO.P,L1,1,1*%
%TO.N,Net-(U5-SW)*%
X46416000Y-85870000D03*
%TO.P,L1,2,2*%
%TO.N,+6.5V*%
X58216000Y-85870000D03*
%TD*%
D17*
%TO.P,U2,1,TXCAN*%
%TO.N,/CAN_TX*%
X88900000Y-132080000D03*
D13*
%TO.P,U2,2,RXCAN*%
%TO.N,/CAN_RX*%
X88900000Y-134620000D03*
%TO.P,U2,3,CLKOUT/SOF*%
%TO.N,unconnected-(U2-CLKOUT{slash}SOF-Pad3)*%
X88900000Y-137160000D03*
%TO.P,U2,4,~{TX0RTS}*%
%TO.N,+5V*%
X88900000Y-139700000D03*
%TO.P,U2,5,~{TX1RTS}*%
X88900000Y-142240000D03*
%TO.P,U2,6,~{TX2RTS}*%
X88900000Y-144780000D03*
%TO.P,U2,7,OSC2*%
%TO.N,unconnected-(U2-OSC2-Pad7)*%
X88900000Y-147320000D03*
%TO.P,U2,8,OSC1*%
%TO.N,/CLK*%
X88900000Y-149860000D03*
%TO.P,U2,9,VSS*%
%TO.N,GND*%
X88900000Y-152400000D03*
%TO.P,U2,10,~{RX1BF}*%
%TO.N,unconnected-(U2-~{RX1BF}-Pad10)*%
X96520000Y-152400000D03*
%TO.P,U2,11,~{RX0BF}*%
%TO.N,unconnected-(U2-~{RX0BF}-Pad11)*%
X96520000Y-149860000D03*
%TO.P,U2,12,~{INT}*%
%TO.N,/INT*%
X96520000Y-147320000D03*
%TO.P,U2,13,SCK*%
%TO.N,/SCK*%
X96520000Y-144780000D03*
%TO.P,U2,14,SI*%
%TO.N,/MOSI*%
X96520000Y-142240000D03*
%TO.P,U2,15,SO*%
%TO.N,/MISO*%
X96520000Y-139700000D03*
%TO.P,U2,16,~{CS}*%
%TO.N,/CAN_~{CS}*%
X96520000Y-137160000D03*
%TO.P,U2,17,~{RESET}*%
%TO.N,+5V*%
X96520000Y-134620000D03*
%TO.P,U2,18,VDD*%
X96520000Y-132080000D03*
%TD*%
D16*
%TO.P,C3,1*%
%TO.N,GND*%
X52620000Y-97935000D03*
%TO.P,C3,2*%
%TO.N,+6.5V*%
X55745000Y-97935000D03*
%TD*%
D18*
%TO.P,R7,1*%
%TO.N,+5V*%
X104140000Y-123190000D03*
D19*
%TO.P,R7,2*%
%TO.N,/CAN_~{CS}*%
X104140000Y-135890000D03*
%TD*%
D13*
%TO.P,C10,1*%
%TO.N,+5V*%
X162600000Y-121920000D03*
%TO.P,C10,2*%
%TO.N,GND*%
X165100000Y-121920000D03*
%TD*%
D10*
%TO.P,J7,1,Pin_1*%
%TO.N,/ROM_~{CS}*%
X119380000Y-134620000D03*
%TD*%
D16*
%TO.P,C2,1*%
%TO.N,GND*%
X53840000Y-94760000D03*
%TO.P,C2,2*%
%TO.N,+6.5V*%
X56965000Y-94760000D03*
%TD*%
D18*
%TO.P,R6,1*%
%TO.N,+5V*%
X167640000Y-106680000D03*
D19*
%TO.P,R6,2*%
%TO.N,/ICSP_~{MCLR}*%
X154940000Y-106680000D03*
%TD*%
D16*
%TO.P,C9,1*%
%TO.N,+5VA*%
X172135000Y-218561875D03*
%TO.P,C9,2*%
%TO.N,GND*%
X175260000Y-218561875D03*
%TD*%
D10*
%TO.P,J10,1,Pin_1*%
%TO.N,+5VA*%
X134620000Y-215900000D03*
%TD*%
D32*
%TO.P,U3,1,TXD*%
%TO.N,/CAN_TX*%
X73660000Y-139700000D03*
D13*
%TO.P,U3,2,VSS*%
%TO.N,GND*%
X73660000Y-137160000D03*
%TO.P,U3,3,VDD*%
%TO.N,+5V*%
X73660000Y-134620000D03*
%TO.P,U3,4,RXD*%
%TO.N,/CAN_RX*%
X73660000Y-132080000D03*
%TO.P,U3,5,SPLIT*%
%TO.N,unconnected-(U3-SPLIT-Pad5)*%
X66040000Y-132080000D03*
%TO.P,U3,6,CANL*%
%TO.N,/CAN_L*%
X66040000Y-134620000D03*
%TO.P,U3,7,CANH*%
%TO.N,/CAN_H*%
X66040000Y-137160000D03*
%TO.P,U3,8,STBY*%
%TO.N,GND*%
X66040000Y-139700000D03*
%TD*%
%TO.P,C17,1*%
%TO.N,+5VA*%
X127000000Y-215940000D03*
%TO.P,C17,2*%
%TO.N,GND*%
X127000000Y-218440000D03*
%TD*%
D20*
%TO.P,C7,1*%
%TO.N,+5V*%
X82415000Y-93782500D03*
%TO.P,C7,2*%
%TO.N,GND*%
X82415000Y-90657500D03*
%TD*%
D29*
%TO.P,U6,1,VO*%
%TO.N,+5V*%
X78605000Y-95737500D03*
%TO.P,U6,2,NC*%
%TO.N,unconnected-(U6-NC-Pad2)*%
X78605000Y-94467500D03*
%TO.P,U6,3,NC*%
%TO.N,unconnected-(U6-NC-Pad3)*%
X78605000Y-93197500D03*
%TO.P,U6,4,NC*%
%TO.N,unconnected-(U6-NC-Pad4)*%
X78605000Y-91927500D03*
%TO.P,U6,5,GND*%
%TO.N,GND*%
X73610000Y-91927500D03*
%TO.P,U6,6,NC*%
%TO.N,unconnected-(U6-NC-Pad6)*%
X73610000Y-93197500D03*
%TO.P,U6,7,EN*%
%TO.N,+6.5V*%
X73610000Y-94467500D03*
%TO.P,U6,8,VI*%
X73610000Y-95737500D03*
D30*
%TO.P,U6,9,EP*%
%TO.N,GND*%
X76107500Y-93832500D03*
%TD*%
D10*
%TO.P,J5,1,Pin_1*%
%TO.N,/MOSI*%
X83820000Y-182880000D03*
D11*
%TO.P,J5,2,Pin_2*%
%TO.N,/SCK*%
X86360000Y-182880000D03*
%TO.P,J5,3,Pin_3*%
%TO.N,/MISO*%
X88900000Y-182880000D03*
%TD*%
D18*
%TO.P,R4,1*%
%TO.N,/ICSP_~{MCLR}*%
X154940000Y-114300000D03*
D19*
%TO.P,R4,2*%
%TO.N,/~{MCLR}*%
X167640000Y-114300000D03*
%TD*%
D33*
%TO.N,+12V*%
X38100000Y-110490000D03*
%TO.N,GND*%
X104140000Y-81280000D03*
X185420000Y-157480000D03*
X165100000Y-149860000D03*
X170180000Y-157480000D03*
X139700000Y-203200000D03*
X99060000Y-83820000D03*
X190500000Y-129540000D03*
X167640000Y-147320000D03*
X119380000Y-142240000D03*
X132080000Y-200660000D03*
X177800000Y-180340000D03*
X177800000Y-215900000D03*
X137160000Y-137160000D03*
X124460000Y-81280000D03*
X139700000Y-195580000D03*
X177800000Y-226060000D03*
X180340000Y-134620000D03*
X177800000Y-220980000D03*
X39489000Y-94506000D03*
X88900000Y-99060000D03*
X124460000Y-91440000D03*
X47490000Y-108095000D03*
X35560000Y-187960000D03*
X93980000Y-104140000D03*
X46220000Y-108095000D03*
X76200000Y-182880000D03*
X59690000Y-116840000D03*
X114300000Y-91440000D03*
X109220000Y-78740000D03*
X86360000Y-142240000D03*
X46220000Y-95395000D03*
X114300000Y-81280000D03*
X137160000Y-127000000D03*
X38100000Y-147320000D03*
X71120000Y-180340000D03*
X55880000Y-182880000D03*
X50800000Y-190500000D03*
X93980000Y-86360000D03*
X177800000Y-165100000D03*
X46220000Y-104285000D03*
X93980000Y-140970000D03*
X137160000Y-140970000D03*
X165100000Y-130810000D03*
X51935000Y-94125000D03*
X186690000Y-142240000D03*
X100330000Y-193040000D03*
X71120000Y-134620000D03*
X47490000Y-95395000D03*
X162560000Y-187960000D03*
X71120000Y-185420000D03*
X130810000Y-179070000D03*
X30480000Y-185420000D03*
X86360000Y-213360000D03*
X185420000Y-210820000D03*
X47490000Y-106825000D03*
X76200000Y-187960000D03*
X177800000Y-210820000D03*
X66040000Y-182880000D03*
X134620000Y-184150000D03*
X129540000Y-137160000D03*
X161290000Y-205776875D03*
X193040000Y-210820000D03*
X37965000Y-96538000D03*
X55880000Y-118110000D03*
X166370000Y-200660000D03*
X30480000Y-190500000D03*
X185420000Y-177800000D03*
X109220000Y-104140000D03*
X100330000Y-205740000D03*
X71120000Y-165100000D03*
X181610000Y-121920000D03*
X177800000Y-218440000D03*
X170180000Y-180340000D03*
X35560000Y-110490000D03*
X111760000Y-213360000D03*
X138430000Y-179070000D03*
X76200000Y-157480000D03*
X47490000Y-105555000D03*
X177800000Y-203200000D03*
X71120000Y-190500000D03*
X86360000Y-144780000D03*
X40640000Y-180340000D03*
X93980000Y-99060000D03*
X189230000Y-128270000D03*
X109220000Y-88900000D03*
X177800000Y-187960000D03*
X107950000Y-198120000D03*
X76200000Y-88900000D03*
X50165000Y-132080000D03*
X158750000Y-168910000D03*
X154940000Y-187960000D03*
X187960000Y-121920000D03*
X163830000Y-208280000D03*
X53967000Y-99840000D03*
X81280000Y-87630000D03*
X78740000Y-83820000D03*
X43180000Y-147320000D03*
X37965000Y-95268000D03*
X119380000Y-88900000D03*
X132080000Y-140970000D03*
X78740000Y-88900000D03*
X60960000Y-165100000D03*
X168910000Y-203200000D03*
X50800000Y-185420000D03*
X60960000Y-160020000D03*
X104140000Y-91440000D03*
X78740000Y-78740000D03*
X163830000Y-203200000D03*
X88900000Y-104140000D03*
X93980000Y-81280000D03*
X88900000Y-83820000D03*
X124460000Y-96520000D03*
X109220000Y-93980000D03*
X160020000Y-127000000D03*
X47490000Y-104285000D03*
X66040000Y-162560000D03*
X184150000Y-137160000D03*
X62230000Y-94615000D03*
X40640000Y-175260000D03*
X114300000Y-96520000D03*
X99060000Y-134620000D03*
X162560000Y-212090000D03*
X170180000Y-172720000D03*
X93980000Y-139700000D03*
X68580000Y-83820000D03*
X83820000Y-213360000D03*
X123190000Y-204470000D03*
X170180000Y-187960000D03*
X171450000Y-200660000D03*
X51935000Y-95395000D03*
X71120000Y-87630000D03*
X42283000Y-95268000D03*
X104140000Y-86360000D03*
X40640000Y-190500000D03*
X30480000Y-180340000D03*
X177800000Y-172720000D03*
X109220000Y-99060000D03*
X86360000Y-90170000D03*
X46220000Y-106825000D03*
X124460000Y-127000000D03*
X170180000Y-195580000D03*
X60325000Y-92710000D03*
X42283000Y-96538000D03*
X73660000Y-88900000D03*
X147320000Y-203200000D03*
X71120000Y-109220000D03*
X135890000Y-161290000D03*
X40640000Y-185420000D03*
X109220000Y-83820000D03*
X139700000Y-210820000D03*
X81280000Y-214630000D03*
X154940000Y-210820000D03*
X114300000Y-86360000D03*
X45720000Y-182880000D03*
X50800000Y-180340000D03*
X71120000Y-170180000D03*
X88900000Y-213360000D03*
X124460000Y-86360000D03*
X46220000Y-105555000D03*
X104140000Y-96520000D03*
X99060000Y-132080000D03*
X154940000Y-195580000D03*
X147320000Y-210820000D03*
X88900000Y-78740000D03*
X193040000Y-203200000D03*
X73660000Y-109220000D03*
X119380000Y-83820000D03*
X139700000Y-163830000D03*
X162560000Y-195580000D03*
X55880000Y-187960000D03*
X161290000Y-200660000D03*
X132080000Y-144780000D03*
X177800000Y-208280000D03*
X119380000Y-99060000D03*
X119380000Y-93980000D03*
X147320000Y-187960000D03*
X68580000Y-87630000D03*
X99060000Y-78740000D03*
X40759000Y-94506000D03*
X185420000Y-203200000D03*
X166370000Y-205740000D03*
X119380000Y-104140000D03*
X76065000Y-97642500D03*
X119380000Y-78740000D03*
X187960000Y-134620000D03*
X46990000Y-139700000D03*
X35560000Y-182880000D03*
X83820000Y-81280000D03*
X177800000Y-205740000D03*
X93980000Y-144780000D03*
X177800000Y-213360000D03*
X46220000Y-103015000D03*
X116840000Y-213360000D03*
X66040000Y-167640000D03*
X46220000Y-94125000D03*
X104140000Y-132080000D03*
X73660000Y-81280000D03*
X83820000Y-87630000D03*
X99060000Y-88900000D03*
X190500000Y-134620000D03*
X104140000Y-127000000D03*
X185420000Y-187960000D03*
X76200000Y-152400000D03*
X47490000Y-103015000D03*
X50800000Y-170180000D03*
X147320000Y-195580000D03*
X176530000Y-146050000D03*
X154940000Y-203200000D03*
X86360000Y-139700000D03*
X167640000Y-212090000D03*
X68580000Y-78740000D03*
X47490000Y-94125000D03*
X45720000Y-187960000D03*
%TO.N,+6.5V*%
X161290000Y-208280000D03*
X163830000Y-205740000D03*
X163830000Y-200660000D03*
X166370000Y-208280000D03*
X168910000Y-200660000D03*
X171450000Y-203200000D03*
X168910000Y-205740000D03*
X161290000Y-203200000D03*
X166370000Y-203200000D03*
X62230000Y-92710000D03*
%TO.N,+5V*%
X96520000Y-106680000D03*
X96520000Y-101600000D03*
X91440000Y-106680000D03*
X91440000Y-96520000D03*
X91440000Y-101600000D03*
X86360000Y-106680000D03*
X86360000Y-96520000D03*
X96520000Y-96520000D03*
X86360000Y-101600000D03*
%TO.N,/USB_D+*%
X189230000Y-129540000D03*
X189230000Y-134620000D03*
%TO.N,/Tach*%
X55880000Y-119380000D03*
%TO.N,/Speed*%
X60960000Y-116840000D03*
%TO.N,/CAN_H*%
X48260000Y-132080000D03*
%TO.N,/ICSP_CLK*%
X186690000Y-121920000D03*
X186690000Y-140970000D03*
%TO.N,/ICSP_DAT*%
X182880000Y-137160000D03*
X182880000Y-121920000D03*
%TO.N,/ROM_~{CS}*%
X120650000Y-142240000D03*
X176530000Y-147320000D03*
%TO.N,/SCK*%
X138430000Y-163830000D03*
%TO.N,/MOSI*%
X106680000Y-198120000D03*
X134620000Y-161290000D03*
%TO.N,/CLK*%
X157480000Y-168910000D03*
%TD*%
D34*
%TO.N,GND*%
X49395000Y-110000000D02*
X47490000Y-108095000D01*
X53967000Y-99840000D02*
X53205000Y-99840000D01*
X46125000Y-105650000D02*
X46220000Y-105555000D01*
X53205000Y-99840000D02*
X52620000Y-99255000D01*
X52620000Y-99255000D02*
X52620000Y-97935000D01*
D35*
X177800000Y-134620000D02*
X180340000Y-134620000D01*
D34*
X49935000Y-110000000D02*
X49395000Y-110000000D01*
X43553000Y-105650000D02*
X46125000Y-105650000D01*
%TO.N,+6.5V*%
X60825000Y-97935000D02*
X55745000Y-97935000D01*
X62095000Y-106825000D02*
X62095000Y-99205000D01*
X62095000Y-99205000D02*
X60825000Y-97935000D01*
X73660000Y-106680000D02*
X73660000Y-95787500D01*
X73660000Y-95787500D02*
X73610000Y-95737500D01*
X56745000Y-110000000D02*
X58920000Y-110000000D01*
X58920000Y-110000000D02*
X62095000Y-106825000D01*
%TO.N,Net-(U5-BST)*%
X44400000Y-97300000D02*
X44400000Y-92305000D01*
X44400000Y-92305000D02*
X43680000Y-91585000D01*
X43680000Y-91585000D02*
X41755000Y-91585000D01*
%TO.N,Net-(U5-SW)*%
X39255000Y-91585000D02*
X39255000Y-87755000D01*
X41140000Y-85870000D02*
X46416000Y-85870000D01*
X39255000Y-87755000D02*
X41140000Y-85870000D01*
%TO.N,Net-(C5-Pad2)*%
X55745000Y-103015000D02*
X54475000Y-101745000D01*
X55745000Y-105555000D02*
X55745000Y-103015000D01*
%TO.N,+5VA*%
X124460000Y-210820000D02*
X121920000Y-210820000D01*
X119380000Y-218440000D02*
X119380000Y-215940000D01*
X127000000Y-215940000D02*
X134580000Y-215940000D01*
X134580000Y-215940000D02*
X134620000Y-215900000D01*
X127000000Y-215940000D02*
X127000000Y-213360000D01*
D35*
X96520000Y-205740000D02*
X93980000Y-208280000D01*
X132080000Y-204470000D02*
X128270000Y-208280000D01*
X93980000Y-208280000D02*
X93980000Y-210820000D01*
D34*
X91440000Y-218440000D02*
X91440000Y-215940000D01*
X86360000Y-215940000D02*
X83720000Y-215940000D01*
D35*
X123190000Y-208280000D02*
X121920000Y-209550000D01*
D34*
X119380000Y-215940000D02*
X114300000Y-215940000D01*
X127000000Y-215940000D02*
X119380000Y-215940000D01*
X114300000Y-218440000D02*
X114300000Y-215940000D01*
X81280000Y-217170000D02*
X81280000Y-218440000D01*
D35*
X128270000Y-208280000D02*
X123190000Y-208280000D01*
D34*
X83720000Y-215940000D02*
X82510000Y-215940000D01*
X99060000Y-215940000D02*
X91440000Y-215940000D01*
X91440000Y-215940000D02*
X86360000Y-215940000D01*
X99060000Y-215940000D02*
X99060000Y-213360000D01*
X82510000Y-215940000D02*
X81280000Y-217170000D01*
X86360000Y-218440000D02*
X86360000Y-215940000D01*
X109220000Y-218440000D02*
X109220000Y-215940000D01*
X127000000Y-213360000D02*
X124460000Y-210820000D01*
X96520000Y-210820000D02*
X93980000Y-210820000D01*
D35*
X121920000Y-209550000D02*
X121920000Y-210820000D01*
D34*
X114300000Y-215940000D02*
X109220000Y-215940000D01*
X99060000Y-213360000D02*
X96520000Y-210820000D01*
X109220000Y-215940000D02*
X99060000Y-215940000D01*
D35*
%TO.N,Net-(U1-Vusb3v3)*%
X170180000Y-134620000D02*
X174675000Y-134620000D01*
%TO.N,Net-(JP1-A)*%
X157420000Y-99060000D02*
X165040000Y-99060000D01*
%TO.N,/USB_D+*%
X36735000Y-155035000D02*
X39370000Y-152400000D01*
X39370000Y-152400000D02*
X64770000Y-152400000D01*
X177799999Y-171450000D02*
X189230000Y-160019999D01*
X83820000Y-171450000D02*
X177799999Y-171450000D01*
X64770000Y-152400000D02*
X83820000Y-171450000D01*
X189230000Y-160019999D02*
X189230000Y-134620000D01*
X170180000Y-129540000D02*
X189230000Y-129540000D01*
X36735000Y-157480000D02*
X36735000Y-155035000D01*
D34*
%TO.N,VBUS*%
X38100000Y-170180000D02*
X38100000Y-172720000D01*
X48260000Y-169505000D02*
X38735000Y-159980000D01*
X48260000Y-172720000D02*
X48260000Y-169505000D01*
X38735000Y-169545000D02*
X38100000Y-170180000D01*
X38735000Y-159980000D02*
X38735000Y-169545000D01*
D35*
%TO.N,/USB_D-*%
X58469419Y-170229419D02*
X62230000Y-173990000D01*
X54170575Y-165930575D02*
X53998154Y-166102995D01*
X62230000Y-173990000D02*
X180340000Y-173990000D01*
X38735000Y-157480000D02*
X45720000Y-157480000D01*
X53480893Y-164896052D02*
X53308472Y-165068473D01*
X54564949Y-165536204D02*
X54170575Y-165930575D01*
X54860257Y-166620257D02*
X58469419Y-170229419D01*
X190500000Y-132080000D02*
X170180000Y-132080000D01*
X191770000Y-133350000D02*
X190500000Y-132080000D01*
X54207269Y-166755984D02*
X54429205Y-166534047D01*
X180340000Y-173990000D02*
X191770000Y-162560000D01*
X53049842Y-164465001D02*
X53271777Y-164243063D01*
X53616619Y-164243063D02*
X53702829Y-164329273D01*
X54774047Y-166534047D02*
X54860257Y-166620257D01*
X52914117Y-165807670D02*
X53000327Y-165893880D01*
X53308473Y-165068473D02*
X52914117Y-165462828D01*
X54478739Y-165105152D02*
X54564949Y-165191362D01*
X53702829Y-164674115D02*
X53480893Y-164896052D01*
X53308472Y-165068473D02*
X53308473Y-165068473D01*
X53345169Y-165893880D02*
X53739524Y-165499524D01*
X53739524Y-165499524D02*
X54133895Y-165105150D01*
X53776217Y-166669774D02*
X53862427Y-166755984D01*
X45720000Y-157480000D02*
X52705000Y-164465000D01*
X191770000Y-162560000D02*
X191770000Y-133350000D01*
X53998154Y-166102995D02*
X53776217Y-166324932D01*
X54564949Y-165191362D02*
G75*
G02*
X54564966Y-165536221I-172449J-172438D01*
G01*
X53000327Y-165893880D02*
G75*
G03*
X53345169Y-165893880I172421J172421D01*
G01*
X54429205Y-166534047D02*
G75*
G02*
X54774047Y-166534047I172421J-172421D01*
G01*
X53702829Y-164329273D02*
G75*
G02*
X53702835Y-164674121I-172429J-172427D01*
G01*
X53862427Y-166755984D02*
G75*
G03*
X54207269Y-166755984I172421J172421D01*
G01*
X53271777Y-164243063D02*
G75*
G02*
X53616619Y-164243063I172421J-172421D01*
G01*
X53776217Y-166324932D02*
G75*
G03*
X53776170Y-166669821I172383J-172468D01*
G01*
X52914117Y-165462828D02*
G75*
G03*
X52914166Y-165807621I172383J-172372D01*
G01*
X54133895Y-165105150D02*
G75*
G02*
X54478723Y-165105168I172405J-172450D01*
G01*
X52705000Y-164465000D02*
G75*
G03*
X53049820Y-164464980I172400J172400D01*
G01*
%TO.N,/CAN_L*%
X44060000Y-134620000D02*
X43180000Y-133740000D01*
X66040000Y-134620000D02*
X44060000Y-134620000D01*
%TO.N,/Tach*%
X144780000Y-123190000D02*
X140970000Y-119380000D01*
X140970000Y-119380000D02*
X55880000Y-119380000D01*
X144780000Y-138430000D02*
X144780000Y-123190000D01*
X162560000Y-142240000D02*
X148590000Y-142240000D01*
X148590000Y-142240000D02*
X144780000Y-138430000D01*
%TO.N,/Speed*%
X148590000Y-119379999D02*
X148590000Y-137160000D01*
X148590000Y-137160000D02*
X151130000Y-139700000D01*
X60960000Y-116840000D02*
X146050001Y-116840000D01*
X151130000Y-139700000D02*
X162560000Y-139700000D01*
X146050001Y-116840000D02*
X148590000Y-119379999D01*
%TO.N,/CAN_H*%
X48800000Y-129635000D02*
X48260000Y-130175000D01*
X66040000Y-137160000D02*
X64135000Y-137160000D01*
X48800000Y-128905000D02*
X48800000Y-129635000D01*
X48260000Y-130175000D02*
X48260000Y-132080000D01*
X64135000Y-137160000D02*
X63355000Y-137940000D01*
X63355000Y-137940000D02*
X43180000Y-137940000D01*
%TO.N,/AN1*%
X50800000Y-228600000D02*
X37680000Y-215480000D01*
X37680000Y-215480000D02*
X37680000Y-210820000D01*
X121920000Y-218440000D02*
X121920000Y-223520000D01*
X121920000Y-223520000D02*
X116840000Y-228600000D01*
X116840000Y-228600000D02*
X50800000Y-228600000D01*
%TO.N,/AN4*%
X68580000Y-200660000D02*
X63500000Y-195580000D01*
X71120000Y-220980000D02*
X68580000Y-218440000D01*
X83820000Y-220980000D02*
X71120000Y-220980000D01*
X68580000Y-218440000D02*
X68580000Y-200660000D01*
X37680000Y-198540000D02*
X37680000Y-202420000D01*
X83820000Y-218440000D02*
X83820000Y-220980000D01*
X40640000Y-195580000D02*
X37680000Y-198540000D01*
X63500000Y-195580000D02*
X40640000Y-195580000D01*
%TO.N,/AN2*%
X111760000Y-218440000D02*
X111760000Y-220980000D01*
X106680000Y-226060000D02*
X60960000Y-226060000D01*
X45720000Y-210820000D02*
X43180000Y-210820000D01*
X111760000Y-220980000D02*
X106680000Y-226060000D01*
X60960000Y-226060000D02*
X45720000Y-210820000D01*
%TO.N,/AN3*%
X91440000Y-223520000D02*
X66040000Y-223520000D01*
X93980000Y-218440000D02*
X93980000Y-220980000D01*
X60960000Y-208280000D02*
X55100000Y-202420000D01*
X55100000Y-202420000D02*
X43180000Y-202420000D01*
X93980000Y-220980000D02*
X91440000Y-223520000D01*
X60960000Y-218440000D02*
X60960000Y-208280000D01*
X66040000Y-223520000D02*
X60960000Y-218440000D01*
%TO.N,/ICSP_~{MCLR}*%
X134760000Y-98980000D02*
X154800000Y-98980000D01*
X159960000Y-86360000D02*
X162500000Y-86360000D01*
X154880000Y-99060000D02*
X154880000Y-91440000D01*
X154880000Y-91440000D02*
X159960000Y-86360000D01*
X154800000Y-98980000D02*
X154880000Y-99060000D01*
X154940000Y-99120000D02*
X154880000Y-99060000D01*
X154940000Y-114300000D02*
X154940000Y-99120000D01*
%TO.N,/ICSP_CLK*%
X186690000Y-100390000D02*
X172660000Y-86360000D01*
X182880000Y-140955000D02*
X186675000Y-140955000D01*
X186675000Y-140955000D02*
X186690000Y-140970000D01*
X186690000Y-121920000D02*
X186690000Y-100390000D01*
%TO.N,/ICSP_DAT*%
X170180000Y-137160000D02*
X182880000Y-137160000D01*
X182880000Y-121920000D02*
X182880000Y-105410000D01*
X182880000Y-105410000D02*
X170120000Y-92650000D01*
X170120000Y-92650000D02*
X170120000Y-86360000D01*
%TO.N,/MISO*%
X171450000Y-156210000D02*
X129540000Y-156210000D01*
X127000000Y-139700000D02*
X96520000Y-139700000D01*
X173990000Y-146050000D02*
X173990000Y-153670000D01*
X123190000Y-149860000D02*
X123190000Y-142240000D01*
X173990000Y-153670000D02*
X171450000Y-156210000D01*
X129540000Y-156210000D02*
X123190000Y-149860000D01*
X170180000Y-144780000D02*
X172720000Y-144780000D01*
X172720000Y-144780000D02*
X173990000Y-146050000D01*
X123190000Y-142240000D02*
X125730000Y-139700000D01*
X125730000Y-139700000D02*
X127000000Y-139700000D01*
%TO.N,/ROM_~{CS}*%
X120650000Y-151130000D02*
X120650000Y-142240000D01*
X176530000Y-147320000D02*
X176530000Y-154940000D01*
X128270000Y-158750000D02*
X120650000Y-151130000D01*
X127000000Y-137160000D02*
X127000000Y-132080000D01*
X124460000Y-137160000D02*
X121920000Y-134620000D01*
X127000000Y-137160000D02*
X124460000Y-137160000D01*
X121920000Y-134620000D02*
X119380000Y-134620000D01*
X176530000Y-154940000D02*
X172720000Y-158750000D01*
X172720000Y-158750000D02*
X128270000Y-158750000D01*
X127000000Y-132080000D02*
X121920000Y-127000000D01*
%TO.N,/SCK*%
X170180000Y-149860000D02*
X170180000Y-152400000D01*
X91440000Y-201930000D02*
X110490000Y-201930000D01*
X138430000Y-163830000D02*
X124460000Y-163830000D01*
X168910000Y-153670000D02*
X137160000Y-153670000D01*
X124460000Y-163830000D02*
X105410000Y-144780000D01*
X137160000Y-153670000D02*
X130810000Y-147320000D01*
X114300000Y-205740000D02*
X114300000Y-210820000D01*
X105410000Y-144780000D02*
X96520000Y-144780000D01*
X86360000Y-210820000D02*
X86360000Y-207010000D01*
X132080000Y-142240000D02*
X134620000Y-142240000D01*
X130810000Y-143510000D02*
X132080000Y-142240000D01*
X86360000Y-207010000D02*
X91440000Y-201930000D01*
X130810000Y-147320000D02*
X130810000Y-143510000D01*
X110490000Y-201930000D02*
X114300000Y-205740000D01*
X170180000Y-152400000D02*
X168910000Y-153670000D01*
%TO.N,/MOSI*%
X137160000Y-144780000D02*
X139700000Y-147320000D01*
X83820000Y-203200000D02*
X83820000Y-210820000D01*
X88900000Y-198120000D02*
X83820000Y-203200000D01*
X106680000Y-198120000D02*
X88900000Y-198120000D01*
X107950000Y-142240000D02*
X96520000Y-142240000D01*
X127000000Y-161290000D02*
X107950000Y-142240000D01*
X139700000Y-147320000D02*
X162560000Y-147320000D01*
X134620000Y-144780000D02*
X137160000Y-144780000D01*
X134620000Y-161290000D02*
X127000000Y-161290000D01*
%TO.N,/CAN_~{CS}*%
X111760000Y-127000000D02*
X111760000Y-134620000D01*
X111760000Y-134620000D02*
X105410000Y-134620000D01*
X144780000Y-144780000D02*
X142240000Y-142240000D01*
X101600000Y-135890000D02*
X104140000Y-135890000D01*
X96520000Y-137160000D02*
X100330000Y-137160000D01*
X142240000Y-127000000D02*
X137160000Y-121920000D01*
X105410000Y-134620000D02*
X104140000Y-135890000D01*
X162560000Y-144780000D02*
X144780000Y-144780000D01*
X116840000Y-121920000D02*
X111760000Y-127000000D01*
X137160000Y-121920000D02*
X116840000Y-121920000D01*
X142240000Y-142240000D02*
X142240000Y-127000000D01*
X100330000Y-137160000D02*
X101600000Y-135890000D01*
%TO.N,/INT*%
X102870000Y-147320000D02*
X121920000Y-166370000D01*
X168910000Y-166370000D02*
X182880000Y-152400000D01*
X96520000Y-147320000D02*
X102870000Y-147320000D01*
X182880000Y-152400000D02*
X182880000Y-146035000D01*
X121920000Y-166370000D02*
X168910000Y-166370000D01*
%TO.N,Net-(JP5-B)*%
X50800000Y-128905000D02*
X52705000Y-128905000D01*
X52705000Y-128905000D02*
X55880000Y-132080000D01*
D34*
%TO.N,Net-(U5-FB)*%
X49395000Y-106825000D02*
X51935000Y-109365000D01*
X51935000Y-110000000D02*
X54745000Y-110000000D01*
X49395000Y-101110000D02*
X49395000Y-106825000D01*
X51935000Y-109365000D02*
X51935000Y-110000000D01*
%TO.N,Net-(U5-RT{slash}CLK)*%
X44400000Y-102803000D02*
X43553000Y-103650000D01*
X44400000Y-101110000D02*
X44400000Y-102803000D01*
D35*
%TO.N,/~{MCLR}*%
X166370000Y-127000000D02*
X171450000Y-121920000D01*
X162560000Y-134620000D02*
X163830000Y-134620000D01*
X166370000Y-132080000D02*
X166370000Y-127000000D01*
X171450000Y-121920000D02*
X171450000Y-118110000D01*
X171450000Y-118110000D02*
X167640000Y-114300000D01*
X163830000Y-134620000D02*
X166370000Y-132080000D01*
D34*
%TO.N,Net-(U5-COMP)*%
X50157000Y-99840000D02*
X52062000Y-101745000D01*
X52062000Y-101745000D02*
X52475000Y-101745000D01*
X49395000Y-99840000D02*
X50157000Y-99840000D01*
D35*
%TO.N,/CLK*%
X90170000Y-149860000D02*
X88900000Y-149860000D01*
X91440000Y-153670000D02*
X91440000Y-151130000D01*
X157480000Y-168910000D02*
X106680000Y-168910000D01*
X106680000Y-168910000D02*
X91440000Y-153670000D01*
X91440000Y-151130000D02*
X90170000Y-149860000D01*
%TO.N,/CAN_RX*%
X73660000Y-129540000D02*
X74930000Y-128270000D01*
X73660000Y-132080000D02*
X73660000Y-129540000D01*
X74930000Y-128270000D02*
X90170000Y-128270000D01*
X90170000Y-134620000D02*
X88900000Y-134620000D01*
X91440000Y-133350000D02*
X90170000Y-134620000D01*
X90170000Y-128270000D02*
X91440000Y-129540000D01*
X91440000Y-129540000D02*
X91440000Y-133350000D01*
%TO.N,/CAN_TX*%
X73660000Y-139700000D02*
X82550000Y-139700000D01*
X86360000Y-132080000D02*
X88900000Y-132080000D01*
X82550000Y-139700000D02*
X83820000Y-138430000D01*
X83820000Y-134620000D02*
X86360000Y-132080000D01*
X83820000Y-138430000D02*
X83820000Y-134620000D01*
%TO.N,/INT{slash}ICSP_CLK*%
X170180000Y-139700000D02*
X177800000Y-139700000D01*
X181610000Y-143510000D02*
X181625000Y-143495000D01*
X181625000Y-143495000D02*
X182880000Y-143495000D01*
X177800000Y-139700000D02*
X181610000Y-143510000D01*
%TD*%
%TA.AperFunction,Conductor*%
%TO.N,+12V*%
G36*
X40640000Y-102869999D02*
G01*
X40640000Y-130684000D01*
X40619998Y-130752121D01*
X40566342Y-130798614D01*
X40514000Y-130810000D01*
X39802956Y-130810000D01*
X39734835Y-130789998D01*
X39688342Y-130736342D01*
X39678238Y-130666068D01*
X39702994Y-130607296D01*
X39728184Y-130574467D01*
X39728188Y-130574461D01*
X39849958Y-130363548D01*
X39849964Y-130363537D01*
X39943171Y-130138515D01*
X40001455Y-129921000D01*
X38496338Y-129921000D01*
X38545414Y-129802520D01*
X38580000Y-129628642D01*
X38580000Y-129451358D01*
X38545414Y-129277480D01*
X38496338Y-129159000D01*
X40001455Y-129159000D01*
X39943171Y-128941484D01*
X39849964Y-128716462D01*
X39849958Y-128716451D01*
X39728188Y-128505538D01*
X39728183Y-128505531D01*
X39579923Y-128312315D01*
X39579904Y-128312294D01*
X39407705Y-128140095D01*
X39407684Y-128140076D01*
X39214468Y-127991816D01*
X39214461Y-127991811D01*
X39003548Y-127870041D01*
X39003537Y-127870035D01*
X38778515Y-127776828D01*
X38543249Y-127713789D01*
X38301782Y-127682000D01*
X38061000Y-127682000D01*
X38061000Y-128723661D01*
X37942520Y-128674586D01*
X37768642Y-128640000D01*
X37591358Y-128640000D01*
X37417480Y-128674586D01*
X37299000Y-128723661D01*
X37299000Y-127682000D01*
X37058217Y-127682000D01*
X36816750Y-127713789D01*
X36581484Y-127776828D01*
X36356462Y-127870035D01*
X36356451Y-127870041D01*
X36145538Y-127991811D01*
X36145531Y-127991816D01*
X35952315Y-128140076D01*
X35952294Y-128140095D01*
X35780095Y-128312294D01*
X35780076Y-128312315D01*
X35631816Y-128505531D01*
X35631811Y-128505538D01*
X35510041Y-128716451D01*
X35510035Y-128716462D01*
X35416828Y-128941484D01*
X35358544Y-129159000D01*
X36863662Y-129159000D01*
X36814586Y-129277480D01*
X36780000Y-129451358D01*
X36780000Y-129628642D01*
X36814586Y-129802520D01*
X36863662Y-129921000D01*
X35358545Y-129921000D01*
X35416828Y-130138515D01*
X35510035Y-130363537D01*
X35510041Y-130363548D01*
X35631811Y-130574461D01*
X35631815Y-130574467D01*
X35657006Y-130607296D01*
X35682607Y-130673516D01*
X35668342Y-130743065D01*
X35618741Y-130793861D01*
X35557044Y-130810000D01*
X32437190Y-130810000D01*
X32369069Y-130789998D01*
X32348095Y-130773095D01*
X32071119Y-130496119D01*
X32037093Y-130433807D01*
X32042158Y-130362992D01*
X32043778Y-130358872D01*
X32136054Y-130136100D01*
X32198838Y-129901789D01*
X32230500Y-129661288D01*
X32230500Y-129418712D01*
X32211907Y-129277480D01*
X32202083Y-129202853D01*
X32198839Y-129178217D01*
X32198838Y-129178215D01*
X32198838Y-129178211D01*
X32136054Y-128943900D01*
X32043224Y-128719788D01*
X32043218Y-128719779D01*
X32043217Y-128719775D01*
X31921938Y-128509714D01*
X31918734Y-128505538D01*
X31774265Y-128317262D01*
X31774259Y-128317256D01*
X31774255Y-128317251D01*
X31602748Y-128145744D01*
X31602742Y-128145739D01*
X31602738Y-128145735D01*
X31410289Y-127998064D01*
X31410288Y-127998063D01*
X31410285Y-127998061D01*
X31200224Y-127876782D01*
X31200216Y-127876778D01*
X31200212Y-127876776D01*
X30976100Y-127783946D01*
X30976097Y-127783945D01*
X30976095Y-127783944D01*
X30741782Y-127721160D01*
X30501290Y-127689500D01*
X30501288Y-127689500D01*
X30258712Y-127689500D01*
X30258709Y-127689500D01*
X30018217Y-127721160D01*
X29783904Y-127783944D01*
X29783900Y-127783946D01*
X29561193Y-127876194D01*
X29490603Y-127883783D01*
X29427116Y-127852003D01*
X29423880Y-127848880D01*
X27976905Y-126401905D01*
X27942879Y-126339593D01*
X27940000Y-126312810D01*
X27940000Y-110399887D01*
X34645100Y-110399887D01*
X34645100Y-110399890D01*
X34645100Y-110580110D01*
X34680259Y-110756867D01*
X34749226Y-110923368D01*
X34816127Y-111023492D01*
X34849350Y-111073214D01*
X34849355Y-111073220D01*
X34976779Y-111200644D01*
X34976785Y-111200649D01*
X35126632Y-111300774D01*
X35293133Y-111369741D01*
X35469890Y-111404900D01*
X35469891Y-111404900D01*
X35650109Y-111404900D01*
X35650110Y-111404900D01*
X35826867Y-111369741D01*
X35993368Y-111300774D01*
X36143215Y-111200649D01*
X36270649Y-111073215D01*
X36370774Y-110923368D01*
X36439741Y-110756867D01*
X36474900Y-110580110D01*
X36474900Y-110399890D01*
X36439741Y-110223133D01*
X36370774Y-110056632D01*
X36270649Y-109906785D01*
X36270644Y-109906779D01*
X36143220Y-109779355D01*
X36143214Y-109779350D01*
X36093492Y-109746127D01*
X35993368Y-109679226D01*
X35826867Y-109610259D01*
X35650112Y-109575100D01*
X35650110Y-109575100D01*
X35469890Y-109575100D01*
X35469887Y-109575100D01*
X35293132Y-109610259D01*
X35293127Y-109610261D01*
X35126632Y-109679226D01*
X34976785Y-109779350D01*
X34976779Y-109779355D01*
X34849355Y-109906779D01*
X34849350Y-109906785D01*
X34749226Y-110056632D01*
X34680261Y-110223127D01*
X34680259Y-110223132D01*
X34645100Y-110399887D01*
X27940000Y-110399887D01*
X27940000Y-101600000D01*
X40640000Y-101600000D01*
X40640000Y-102869999D01*
G37*
%TD.AperFunction*%
%TD*%
%TA.AperFunction,Conductor*%
%TO.N,+5V*%
G36*
X80950039Y-93344185D02*
G01*
X80969369Y-93366492D01*
X80970681Y-93365181D01*
X81007000Y-93401500D01*
X83822999Y-93401500D01*
X83833504Y-93390995D01*
X83894827Y-93357509D01*
X83952168Y-93358608D01*
X86360000Y-93980000D01*
X98936000Y-93980000D01*
X99003039Y-93999685D01*
X99048794Y-94052489D01*
X99060000Y-94104000D01*
X99060000Y-109096000D01*
X99040315Y-109163039D01*
X98987511Y-109208794D01*
X98936000Y-109220000D01*
X83944000Y-109220000D01*
X83876961Y-109200315D01*
X83831206Y-109147511D01*
X83820000Y-109096000D01*
X83820000Y-104229324D01*
X87993099Y-104229324D01*
X88027950Y-104404527D01*
X88027952Y-104404533D01*
X88096314Y-104569575D01*
X88096319Y-104569584D01*
X88195564Y-104718114D01*
X88195567Y-104718118D01*
X88321881Y-104844432D01*
X88321885Y-104844435D01*
X88470415Y-104943680D01*
X88470421Y-104943683D01*
X88470422Y-104943684D01*
X88635467Y-105012048D01*
X88635471Y-105012048D01*
X88635472Y-105012049D01*
X88810675Y-105046900D01*
X88810678Y-105046900D01*
X88989324Y-105046900D01*
X89107198Y-105023452D01*
X89164533Y-105012048D01*
X89329578Y-104943684D01*
X89478115Y-104844435D01*
X89604435Y-104718115D01*
X89703684Y-104569578D01*
X89772048Y-104404533D01*
X89806900Y-104229324D01*
X93073099Y-104229324D01*
X93107950Y-104404527D01*
X93107952Y-104404533D01*
X93176314Y-104569575D01*
X93176319Y-104569584D01*
X93275564Y-104718114D01*
X93275567Y-104718118D01*
X93401881Y-104844432D01*
X93401885Y-104844435D01*
X93550415Y-104943680D01*
X93550421Y-104943683D01*
X93550422Y-104943684D01*
X93715467Y-105012048D01*
X93715471Y-105012048D01*
X93715472Y-105012049D01*
X93890675Y-105046900D01*
X93890678Y-105046900D01*
X94069324Y-105046900D01*
X94187198Y-105023452D01*
X94244533Y-105012048D01*
X94409578Y-104943684D01*
X94558115Y-104844435D01*
X94684435Y-104718115D01*
X94783684Y-104569578D01*
X94852048Y-104404533D01*
X94886900Y-104229322D01*
X94886900Y-104050678D01*
X94886900Y-104050675D01*
X94852049Y-103875472D01*
X94852048Y-103875471D01*
X94852048Y-103875467D01*
X94783684Y-103710422D01*
X94783683Y-103710421D01*
X94783680Y-103710415D01*
X94684435Y-103561885D01*
X94684432Y-103561881D01*
X94558118Y-103435567D01*
X94558114Y-103435564D01*
X94409584Y-103336319D01*
X94409575Y-103336314D01*
X94244533Y-103267952D01*
X94244527Y-103267950D01*
X94069324Y-103233100D01*
X94069322Y-103233100D01*
X93890678Y-103233100D01*
X93890676Y-103233100D01*
X93715472Y-103267950D01*
X93715466Y-103267952D01*
X93550424Y-103336314D01*
X93550415Y-103336319D01*
X93401885Y-103435564D01*
X93401881Y-103435567D01*
X93275567Y-103561881D01*
X93275564Y-103561885D01*
X93176319Y-103710415D01*
X93176314Y-103710424D01*
X93107952Y-103875466D01*
X93107950Y-103875472D01*
X93073100Y-104050675D01*
X93073100Y-104050678D01*
X93073100Y-104229322D01*
X93073100Y-104229324D01*
X93073099Y-104229324D01*
X89806900Y-104229324D01*
X89806900Y-104229322D01*
X89806900Y-104050678D01*
X89806900Y-104050675D01*
X89772049Y-103875472D01*
X89772048Y-103875471D01*
X89772048Y-103875467D01*
X89703684Y-103710422D01*
X89703683Y-103710421D01*
X89703680Y-103710415D01*
X89604435Y-103561885D01*
X89604432Y-103561881D01*
X89478118Y-103435567D01*
X89478114Y-103435564D01*
X89329584Y-103336319D01*
X89329575Y-103336314D01*
X89164533Y-103267952D01*
X89164527Y-103267950D01*
X88989324Y-103233100D01*
X88989322Y-103233100D01*
X88810678Y-103233100D01*
X88810676Y-103233100D01*
X88635472Y-103267950D01*
X88635466Y-103267952D01*
X88470424Y-103336314D01*
X88470415Y-103336319D01*
X88321885Y-103435564D01*
X88321881Y-103435567D01*
X88195567Y-103561881D01*
X88195564Y-103561885D01*
X88096319Y-103710415D01*
X88096314Y-103710424D01*
X88027952Y-103875466D01*
X88027950Y-103875472D01*
X87993100Y-104050675D01*
X87993100Y-104050678D01*
X87993100Y-104229322D01*
X87993100Y-104229324D01*
X87993099Y-104229324D01*
X83820000Y-104229324D01*
X83820000Y-101600000D01*
X77998750Y-101600000D01*
X77931711Y-101580315D01*
X77885956Y-101527511D01*
X77874750Y-101476000D01*
X77874750Y-99149324D01*
X87993099Y-99149324D01*
X88027950Y-99324527D01*
X88027952Y-99324533D01*
X88096314Y-99489575D01*
X88096319Y-99489584D01*
X88195564Y-99638114D01*
X88195567Y-99638118D01*
X88321881Y-99764432D01*
X88321885Y-99764435D01*
X88470415Y-99863680D01*
X88470421Y-99863683D01*
X88470422Y-99863684D01*
X88635467Y-99932048D01*
X88635471Y-99932048D01*
X88635472Y-99932049D01*
X88810675Y-99966900D01*
X88810678Y-99966900D01*
X88989324Y-99966900D01*
X89107198Y-99943452D01*
X89164533Y-99932048D01*
X89329578Y-99863684D01*
X89478115Y-99764435D01*
X89604435Y-99638115D01*
X89703684Y-99489578D01*
X89772048Y-99324533D01*
X89806900Y-99149324D01*
X93073099Y-99149324D01*
X93107950Y-99324527D01*
X93107952Y-99324533D01*
X93176314Y-99489575D01*
X93176319Y-99489584D01*
X93275564Y-99638114D01*
X93275567Y-99638118D01*
X93401881Y-99764432D01*
X93401885Y-99764435D01*
X93550415Y-99863680D01*
X93550421Y-99863683D01*
X93550422Y-99863684D01*
X93715467Y-99932048D01*
X93715471Y-99932048D01*
X93715472Y-99932049D01*
X93890675Y-99966900D01*
X93890678Y-99966900D01*
X94069324Y-99966900D01*
X94187198Y-99943452D01*
X94244533Y-99932048D01*
X94409578Y-99863684D01*
X94558115Y-99764435D01*
X94684435Y-99638115D01*
X94783684Y-99489578D01*
X94852048Y-99324533D01*
X94886900Y-99149322D01*
X94886900Y-98970678D01*
X94886900Y-98970675D01*
X94852049Y-98795472D01*
X94852048Y-98795471D01*
X94852048Y-98795467D01*
X94783684Y-98630422D01*
X94783683Y-98630421D01*
X94783680Y-98630415D01*
X94684435Y-98481885D01*
X94684432Y-98481881D01*
X94558118Y-98355567D01*
X94558114Y-98355564D01*
X94409584Y-98256319D01*
X94409575Y-98256314D01*
X94244533Y-98187952D01*
X94244527Y-98187950D01*
X94069324Y-98153100D01*
X94069322Y-98153100D01*
X93890678Y-98153100D01*
X93890676Y-98153100D01*
X93715472Y-98187950D01*
X93715466Y-98187952D01*
X93550424Y-98256314D01*
X93550415Y-98256319D01*
X93401885Y-98355564D01*
X93401881Y-98355567D01*
X93275567Y-98481881D01*
X93275564Y-98481885D01*
X93176319Y-98630415D01*
X93176314Y-98630424D01*
X93107952Y-98795466D01*
X93107950Y-98795472D01*
X93073100Y-98970675D01*
X93073100Y-98970678D01*
X93073100Y-99149322D01*
X93073100Y-99149324D01*
X93073099Y-99149324D01*
X89806900Y-99149324D01*
X89806900Y-99149322D01*
X89806900Y-98970678D01*
X89806900Y-98970675D01*
X89772049Y-98795472D01*
X89772048Y-98795471D01*
X89772048Y-98795467D01*
X89703684Y-98630422D01*
X89703683Y-98630421D01*
X89703680Y-98630415D01*
X89604435Y-98481885D01*
X89604432Y-98481881D01*
X89478118Y-98355567D01*
X89478114Y-98355564D01*
X89329584Y-98256319D01*
X89329575Y-98256314D01*
X89164533Y-98187952D01*
X89164527Y-98187950D01*
X88989324Y-98153100D01*
X88989322Y-98153100D01*
X88810678Y-98153100D01*
X88810676Y-98153100D01*
X88635472Y-98187950D01*
X88635466Y-98187952D01*
X88470424Y-98256314D01*
X88470415Y-98256319D01*
X88321885Y-98355564D01*
X88321881Y-98355567D01*
X88195567Y-98481881D01*
X88195564Y-98481885D01*
X88096319Y-98630415D01*
X88096314Y-98630424D01*
X88027952Y-98795466D01*
X88027950Y-98795472D01*
X87993100Y-98970675D01*
X87993100Y-98970678D01*
X87993100Y-99149322D01*
X87993100Y-99149324D01*
X87993099Y-99149324D01*
X77874750Y-99149324D01*
X77874750Y-96770500D01*
X77894435Y-96703461D01*
X77947239Y-96657706D01*
X77998750Y-96646500D01*
X78224000Y-96646500D01*
X78986000Y-96646500D01*
X79406080Y-96646500D01*
X79406081Y-96646499D01*
X79466597Y-96639993D01*
X79603461Y-96588946D01*
X79603461Y-96588945D01*
X79720403Y-96501403D01*
X79807945Y-96384461D01*
X79807946Y-96384461D01*
X79858993Y-96247597D01*
X79865499Y-96187081D01*
X79865500Y-96187080D01*
X79865500Y-96118500D01*
X78986000Y-96118500D01*
X78986000Y-96646500D01*
X78224000Y-96646500D01*
X78224000Y-95861500D01*
X78243685Y-95794461D01*
X78296489Y-95748706D01*
X78348000Y-95737500D01*
X78605000Y-95737500D01*
X78605000Y-95492999D01*
X78624685Y-95425960D01*
X78677489Y-95380205D01*
X78729000Y-95368999D01*
X79405371Y-95368999D01*
X79405372Y-95368999D01*
X79464983Y-95362591D01*
X79464985Y-95362590D01*
X79464987Y-95362590D01*
X79472531Y-95360808D01*
X79472828Y-95362067D01*
X79503686Y-95356500D01*
X79865500Y-95356500D01*
X79865500Y-95287920D01*
X79865499Y-95287918D01*
X79858993Y-95227402D01*
X79824567Y-95135102D01*
X79819583Y-95065411D01*
X79824561Y-95048453D01*
X79851591Y-94975983D01*
X79858000Y-94916373D01*
X79857999Y-94245515D01*
X81007000Y-94245515D01*
X81017606Y-94349325D01*
X81073341Y-94517522D01*
X81073343Y-94517527D01*
X81166366Y-94668340D01*
X81291659Y-94793633D01*
X81442472Y-94886656D01*
X81442477Y-94886658D01*
X81610674Y-94942393D01*
X81714484Y-94952999D01*
X81714497Y-94953000D01*
X82034000Y-94953000D01*
X82796000Y-94953000D01*
X83115503Y-94953000D01*
X83115515Y-94952999D01*
X83219325Y-94942393D01*
X83387522Y-94886658D01*
X83387527Y-94886656D01*
X83538340Y-94793633D01*
X83663633Y-94668340D01*
X83756656Y-94517527D01*
X83756658Y-94517522D01*
X83812393Y-94349325D01*
X83822999Y-94245515D01*
X83823000Y-94245502D01*
X83823000Y-94163500D01*
X82796000Y-94163500D01*
X82796000Y-94953000D01*
X82034000Y-94953000D01*
X82034000Y-94163500D01*
X81007000Y-94163500D01*
X81007000Y-94245515D01*
X79857999Y-94245515D01*
X79857999Y-94018628D01*
X79851591Y-93959017D01*
X79820564Y-93875831D01*
X79815581Y-93806142D01*
X79820562Y-93789173D01*
X79851591Y-93705983D01*
X79858000Y-93646373D01*
X79858000Y-93448500D01*
X79877685Y-93381461D01*
X79930489Y-93335706D01*
X79982000Y-93324500D01*
X80883000Y-93324500D01*
X80950039Y-93344185D01*
G37*
%TD.AperFunction*%
%TD*%
%TA.AperFunction,Conductor*%
%TO.N,GND*%
G36*
X124452023Y-76219258D02*
G01*
X124534102Y-76274102D01*
X129465898Y-81205898D01*
X129520742Y-81287977D01*
X129540000Y-81384796D01*
X129540000Y-104035204D01*
X129520742Y-104132023D01*
X129465898Y-104214102D01*
X124534102Y-109145898D01*
X124452023Y-109200742D01*
X124355204Y-109220000D01*
X101853000Y-109220000D01*
X101756181Y-109200742D01*
X101674102Y-109145898D01*
X101619258Y-109063819D01*
X101600000Y-108967000D01*
X101600000Y-91440000D01*
X84070524Y-91440000D01*
X83973705Y-91420742D01*
X83891626Y-91365898D01*
X83836782Y-91283819D01*
X83817524Y-91187000D01*
X83818834Y-91161285D01*
X83822999Y-91120512D01*
X83823000Y-91120507D01*
X83823000Y-91038500D01*
X81007000Y-91038500D01*
X81007000Y-91120512D01*
X81011166Y-91161285D01*
X81001848Y-91259560D01*
X80955631Y-91346788D01*
X80879551Y-91409690D01*
X80785191Y-91438690D01*
X80759476Y-91440000D01*
X80043616Y-91440000D01*
X79946797Y-91420742D01*
X79864718Y-91365898D01*
X79817842Y-91295743D01*
X79817058Y-91296172D01*
X79812275Y-91287413D01*
X79809874Y-91283819D01*
X79808742Y-91280942D01*
X79808388Y-91280294D01*
X79720762Y-91163240D01*
X79720759Y-91163237D01*
X79603708Y-91075613D01*
X79603705Y-91075612D01*
X79603704Y-91075611D01*
X79466701Y-91024511D01*
X79466700Y-91024510D01*
X79466695Y-91024509D01*
X79466697Y-91024509D01*
X79406154Y-91018001D01*
X79406140Y-91018000D01*
X79406138Y-91018000D01*
X77803862Y-91018000D01*
X77803859Y-91018000D01*
X77803845Y-91018001D01*
X77743303Y-91024509D01*
X77606291Y-91075613D01*
X77489240Y-91163237D01*
X77489237Y-91163240D01*
X77401613Y-91280291D01*
X77401612Y-91280294D01*
X77401611Y-91280296D01*
X77353639Y-91408914D01*
X77353638Y-91408916D01*
X77301758Y-91492900D01*
X77221689Y-91550638D01*
X77125619Y-91573339D01*
X77116590Y-91573500D01*
X76488500Y-91573500D01*
X76488500Y-92075000D01*
X75726500Y-92075000D01*
X75726500Y-91573500D01*
X75097876Y-91573500D01*
X75001057Y-91554242D01*
X74918978Y-91499398D01*
X74864134Y-91417319D01*
X74860828Y-91408914D01*
X74812947Y-91280540D01*
X74812944Y-91280534D01*
X74725405Y-91163597D01*
X74725402Y-91163594D01*
X74608465Y-91076055D01*
X74608459Y-91076052D01*
X74471596Y-91025005D01*
X74471589Y-91025003D01*
X74411105Y-91018500D01*
X73991000Y-91018500D01*
X73991000Y-91674500D01*
X73971742Y-91771319D01*
X73916898Y-91853398D01*
X73834819Y-91908242D01*
X73738000Y-91927500D01*
X73610000Y-91927500D01*
X73610000Y-92035000D01*
X73602044Y-92075000D01*
X71859796Y-92075000D01*
X71834810Y-92070030D01*
X71809336Y-92069917D01*
X71786871Y-92060494D01*
X71762977Y-92055742D01*
X71741794Y-92041587D01*
X71718303Y-92031735D01*
X71680898Y-92000898D01*
X71170953Y-91490953D01*
X71162227Y-91477894D01*
X72349500Y-91477894D01*
X72349500Y-91546500D01*
X73229000Y-91546500D01*
X73229000Y-91018500D01*
X72808894Y-91018500D01*
X72748410Y-91025003D01*
X72748403Y-91025005D01*
X72611540Y-91076052D01*
X72611534Y-91076055D01*
X72494597Y-91163594D01*
X72494594Y-91163597D01*
X72407055Y-91280534D01*
X72407052Y-91280540D01*
X72356005Y-91417403D01*
X72356003Y-91417410D01*
X72349500Y-91477894D01*
X71162227Y-91477894D01*
X71116109Y-91408874D01*
X71096851Y-91312055D01*
X71109693Y-91232473D01*
X71112393Y-91224322D01*
X71112394Y-91224321D01*
X71122999Y-91120514D01*
X71123000Y-91120507D01*
X71123000Y-91038500D01*
X68307000Y-91038500D01*
X68307000Y-91120512D01*
X68311166Y-91161285D01*
X68309937Y-91174239D01*
X68312476Y-91187000D01*
X68305313Y-91223008D01*
X68301848Y-91259560D01*
X68295756Y-91271056D01*
X68293218Y-91283819D01*
X68272819Y-91314347D01*
X68255631Y-91346788D01*
X68245603Y-91355078D01*
X68238374Y-91365898D01*
X68207843Y-91386297D01*
X68179551Y-91409690D01*
X68167115Y-91413511D01*
X68156295Y-91420742D01*
X68120283Y-91427905D01*
X68085191Y-91438690D01*
X68059476Y-91440000D01*
X67563000Y-91440000D01*
X67466181Y-91420742D01*
X67384102Y-91365898D01*
X67329258Y-91283819D01*
X67310000Y-91187000D01*
X67310000Y-90194485D01*
X68307000Y-90194485D01*
X68307000Y-90276500D01*
X69334000Y-90276500D01*
X70096000Y-90276500D01*
X71123000Y-90276500D01*
X71123000Y-90194492D01*
X71122999Y-90194485D01*
X81007000Y-90194485D01*
X81007000Y-90276500D01*
X82034000Y-90276500D01*
X82796000Y-90276500D01*
X83823000Y-90276500D01*
X83823000Y-90194492D01*
X83822999Y-90194485D01*
X83812394Y-90090678D01*
X83812392Y-90090670D01*
X83756660Y-89922480D01*
X83756656Y-89922472D01*
X83663637Y-89771664D01*
X83663631Y-89771657D01*
X83538342Y-89646368D01*
X83538335Y-89646362D01*
X83387527Y-89553343D01*
X83387519Y-89553339D01*
X83219329Y-89497607D01*
X83219321Y-89497605D01*
X83115514Y-89487000D01*
X82796000Y-89487000D01*
X82796000Y-90276500D01*
X82034000Y-90276500D01*
X82034000Y-89487000D01*
X81714485Y-89487000D01*
X81610678Y-89497605D01*
X81610670Y-89497607D01*
X81442480Y-89553339D01*
X81442472Y-89553343D01*
X81291664Y-89646362D01*
X81291657Y-89646368D01*
X81166368Y-89771657D01*
X81166362Y-89771664D01*
X81073343Y-89922472D01*
X81073339Y-89922480D01*
X81017607Y-90090670D01*
X81017605Y-90090678D01*
X81007000Y-90194485D01*
X71122999Y-90194485D01*
X71112394Y-90090678D01*
X71112392Y-90090670D01*
X71056660Y-89922480D01*
X71056656Y-89922472D01*
X70963637Y-89771664D01*
X70963631Y-89771657D01*
X70838342Y-89646368D01*
X70838335Y-89646362D01*
X70687527Y-89553343D01*
X70687519Y-89553339D01*
X70519329Y-89497607D01*
X70519321Y-89497605D01*
X70415514Y-89487000D01*
X70096000Y-89487000D01*
X70096000Y-90276500D01*
X69334000Y-90276500D01*
X69334000Y-89487000D01*
X69014485Y-89487000D01*
X68910678Y-89497605D01*
X68910670Y-89497607D01*
X68742480Y-89553339D01*
X68742472Y-89553343D01*
X68591664Y-89646362D01*
X68591657Y-89646368D01*
X68466368Y-89771657D01*
X68466362Y-89771664D01*
X68373343Y-89922472D01*
X68373339Y-89922480D01*
X68317607Y-90090670D01*
X68317605Y-90090678D01*
X68307000Y-90194485D01*
X67310000Y-90194485D01*
X67310000Y-76453000D01*
X67329258Y-76356181D01*
X67384102Y-76274102D01*
X67466181Y-76219258D01*
X67563000Y-76200000D01*
X124355204Y-76200000D01*
X124452023Y-76219258D01*
G37*
%TD.AperFunction*%
%TD*%
%TA.AperFunction,Conductor*%
%TO.N,GND*%
G36*
X196942539Y-184169685D02*
G01*
X196988294Y-184222489D01*
X196999500Y-184274000D01*
X196999500Y-199390000D01*
X175260000Y-199390000D01*
X175260000Y-198120000D01*
X158750000Y-198120000D01*
X158750000Y-208280000D01*
X161290000Y-210820000D01*
X169431049Y-210820000D01*
X169498088Y-210839685D01*
X169505360Y-210844733D01*
X169536669Y-210868171D01*
X169536671Y-210868172D01*
X169671517Y-210918466D01*
X169671516Y-210918466D01*
X169678444Y-210919210D01*
X169731127Y-210924875D01*
X170628872Y-210924874D01*
X170688483Y-210918466D01*
X170771668Y-210887439D01*
X170841356Y-210882456D01*
X170858330Y-210887439D01*
X170941517Y-210918466D01*
X171001127Y-210924875D01*
X171898872Y-210924874D01*
X171958483Y-210918466D01*
X172041668Y-210887439D01*
X172111356Y-210882456D01*
X172128330Y-210887439D01*
X172211517Y-210918466D01*
X172271127Y-210924875D01*
X173168872Y-210924874D01*
X173228483Y-210918466D01*
X173363331Y-210868171D01*
X173478546Y-210781921D01*
X173564796Y-210666706D01*
X173615091Y-210531858D01*
X173621500Y-210472248D01*
X173621500Y-210192153D01*
X174752000Y-210192153D01*
X174752000Y-213360000D01*
X137284000Y-213360000D01*
X137216961Y-213340315D01*
X137171206Y-213287511D01*
X137160000Y-213236000D01*
X137160000Y-190551362D01*
X137179685Y-190484323D01*
X137196319Y-190463681D01*
X143473681Y-184186319D01*
X143535004Y-184152834D01*
X143561362Y-184150000D01*
X196875500Y-184150000D01*
X196942539Y-184169685D01*
G37*
%TD.AperFunction*%
%TD*%
%TA.AperFunction,Conductor*%
%TO.N,Net-(U5-SW)*%
G36*
X50100039Y-81825685D02*
G01*
X50145794Y-81878489D01*
X50157000Y-81930000D01*
X50157000Y-94760000D01*
X48633000Y-94760000D01*
X48633000Y-93372769D01*
X45077000Y-89680000D01*
X42407000Y-89680000D01*
X42339961Y-89660315D01*
X42294206Y-89607511D01*
X42283000Y-89556000D01*
X42283000Y-88618581D01*
X43458000Y-88618581D01*
X43464506Y-88679097D01*
X43515553Y-88815961D01*
X43603096Y-88932903D01*
X43720038Y-89020445D01*
X43720038Y-89020446D01*
X43856902Y-89071493D01*
X43917418Y-89077999D01*
X43917420Y-89078000D01*
X46035000Y-89078000D01*
X46797000Y-89078000D01*
X48914580Y-89078000D01*
X48914581Y-89077999D01*
X48975097Y-89071493D01*
X49111961Y-89020446D01*
X49111961Y-89020445D01*
X49228903Y-88932903D01*
X49316445Y-88815961D01*
X49316446Y-88815961D01*
X49367493Y-88679097D01*
X49373999Y-88618581D01*
X49374000Y-88618580D01*
X49374000Y-86251000D01*
X46797000Y-86251000D01*
X46797000Y-89078000D01*
X46035000Y-89078000D01*
X46035000Y-86251000D01*
X43458000Y-86251000D01*
X43458000Y-88618581D01*
X42283000Y-88618581D01*
X42283000Y-83121418D01*
X43458000Y-83121418D01*
X43458000Y-85489000D01*
X46035000Y-85489000D01*
X46797000Y-85489000D01*
X49374000Y-85489000D01*
X49374000Y-83121420D01*
X49373999Y-83121418D01*
X49367493Y-83060902D01*
X49316446Y-82924038D01*
X49228903Y-82807096D01*
X49111961Y-82719554D01*
X49111961Y-82719553D01*
X48975097Y-82668506D01*
X48914581Y-82662000D01*
X46797000Y-82662000D01*
X46797000Y-85489000D01*
X46035000Y-85489000D01*
X46035000Y-82662000D01*
X43917418Y-82662000D01*
X43856902Y-82668506D01*
X43720038Y-82719553D01*
X43720038Y-82719554D01*
X43603096Y-82807096D01*
X43515554Y-82924038D01*
X43515553Y-82924038D01*
X43464506Y-83060902D01*
X43458000Y-83121418D01*
X42283000Y-83121418D01*
X42283000Y-81930000D01*
X42302685Y-81862961D01*
X42355489Y-81817206D01*
X42407000Y-81806000D01*
X50033000Y-81806000D01*
X50100039Y-81825685D01*
G37*
%TD.AperFunction*%
%TD*%
%TA.AperFunction,Conductor*%
%TO.N,GND*%
G36*
X42988039Y-93763685D02*
G01*
X43033794Y-93816489D01*
X43045000Y-93868000D01*
X43045000Y-97176000D01*
X43025315Y-97243039D01*
X42972511Y-97288794D01*
X42921000Y-97300000D01*
X41617779Y-97300000D01*
X41550740Y-97280315D01*
X41504985Y-97227511D01*
X41495041Y-97158353D01*
X41512240Y-97110903D01*
X41592656Y-96980527D01*
X41592658Y-96980522D01*
X41648393Y-96812325D01*
X41658999Y-96708515D01*
X41659000Y-96708502D01*
X41659000Y-96626500D01*
X38843000Y-96626500D01*
X38843000Y-96708515D01*
X38853606Y-96812325D01*
X38909341Y-96980522D01*
X38909343Y-96980527D01*
X38989760Y-97110903D01*
X39008200Y-97178296D01*
X38987277Y-97244959D01*
X38933635Y-97289729D01*
X38884221Y-97300000D01*
X37073000Y-97300000D01*
X37005961Y-97280315D01*
X36960206Y-97227511D01*
X36949000Y-97176000D01*
X36949000Y-95782484D01*
X38843000Y-95782484D01*
X38843000Y-95864500D01*
X39870000Y-95864500D01*
X40632000Y-95864500D01*
X41659000Y-95864500D01*
X41659000Y-95782497D01*
X41658999Y-95782484D01*
X41648393Y-95678674D01*
X41592658Y-95510477D01*
X41592656Y-95510472D01*
X41499633Y-95359659D01*
X41374340Y-95234366D01*
X41223527Y-95141343D01*
X41223522Y-95141341D01*
X41055325Y-95085606D01*
X40951515Y-95075000D01*
X40632000Y-95075000D01*
X40632000Y-95864500D01*
X39870000Y-95864500D01*
X39870000Y-95075000D01*
X39550484Y-95075000D01*
X39446674Y-95085606D01*
X39278477Y-95141341D01*
X39278472Y-95141343D01*
X39127659Y-95234366D01*
X39002366Y-95359659D01*
X38909343Y-95510472D01*
X38909341Y-95510477D01*
X38853606Y-95678674D01*
X38843000Y-95782484D01*
X36949000Y-95782484D01*
X36949000Y-93868000D01*
X36968685Y-93800961D01*
X37021489Y-93755206D01*
X37073000Y-93744000D01*
X42921000Y-93744000D01*
X42988039Y-93763685D01*
G37*
%TD.AperFunction*%
%TD*%
%TA.AperFunction,Conductor*%
%TO.N,GND*%
G36*
X77335000Y-98099138D02*
G01*
X77315315Y-98166177D01*
X77298681Y-98186819D01*
X76736319Y-98749181D01*
X76674996Y-98782666D01*
X76648638Y-98785500D01*
X75481362Y-98785500D01*
X75414323Y-98765815D01*
X75393681Y-98749181D01*
X74831319Y-98186819D01*
X74797834Y-98125496D01*
X74795000Y-98099138D01*
X74795000Y-96433166D01*
X74805975Y-96390176D01*
X74803196Y-96389140D01*
X74806294Y-96380833D01*
X74806296Y-96380831D01*
X74856591Y-96245983D01*
X74863000Y-96186373D01*
X74862999Y-95288628D01*
X74856591Y-95229017D01*
X74825564Y-95145831D01*
X74820581Y-95076142D01*
X74825562Y-95059173D01*
X74856591Y-94975983D01*
X74863000Y-94916373D01*
X74862999Y-94018628D01*
X74856591Y-93959017D01*
X74825564Y-93875831D01*
X74820581Y-93806142D01*
X74825562Y-93789173D01*
X74856591Y-93705983D01*
X74863000Y-93646373D01*
X74862999Y-92748628D01*
X74856591Y-92689017D01*
X74834579Y-92630001D01*
X74803197Y-92545860D01*
X74805961Y-92544828D01*
X74795000Y-92501832D01*
X74795000Y-92435500D01*
X74756704Y-92435500D01*
X74689665Y-92415815D01*
X74682393Y-92410767D01*
X74604831Y-92352704D01*
X74604829Y-92352703D01*
X74604828Y-92352702D01*
X74469982Y-92302408D01*
X74469983Y-92302408D01*
X74410383Y-92296001D01*
X74410381Y-92296000D01*
X74410373Y-92296000D01*
X74410364Y-92296000D01*
X72809629Y-92296000D01*
X72809623Y-92296001D01*
X72750016Y-92302408D01*
X72615171Y-92352702D01*
X72615169Y-92352704D01*
X72537607Y-92410767D01*
X72516858Y-92418505D01*
X72498231Y-92430477D01*
X72476314Y-92433628D01*
X72472143Y-92435184D01*
X72463296Y-92435500D01*
X72379000Y-92435500D01*
X72311961Y-92415815D01*
X72266206Y-92363011D01*
X72255000Y-92311500D01*
X72255000Y-92075000D01*
X77335000Y-92075000D01*
X77335000Y-98099138D01*
G37*
%TD.AperFunction*%
%TD*%
%TA.AperFunction,Conductor*%
%TO.N,+6.5V*%
G36*
X68266177Y-93364685D02*
G01*
X68286819Y-93381319D01*
X68307000Y-93401500D01*
X71123000Y-93401500D01*
X71143181Y-93381319D01*
X71204504Y-93347834D01*
X71230862Y-93345000D01*
X72233001Y-93345000D01*
X72300040Y-93364685D01*
X72345795Y-93417489D01*
X72357001Y-93469000D01*
X72357001Y-93646376D01*
X72363409Y-93705984D01*
X72390431Y-93778436D01*
X72395415Y-93848127D01*
X72390431Y-93865100D01*
X72356006Y-93957400D01*
X72349500Y-94017918D01*
X72349500Y-94086500D01*
X72711314Y-94086500D01*
X72742167Y-94092066D01*
X72742465Y-94090807D01*
X72750016Y-94092591D01*
X72756944Y-94093335D01*
X72809627Y-94099000D01*
X73486001Y-94098999D01*
X73553039Y-94118683D01*
X73598794Y-94171487D01*
X73610000Y-94222999D01*
X73610000Y-94467500D01*
X73867000Y-94467500D01*
X73934039Y-94487185D01*
X73979794Y-94539989D01*
X73991000Y-94591500D01*
X73991000Y-96646500D01*
X74036000Y-96646500D01*
X74103039Y-96666185D01*
X74148794Y-96718989D01*
X74160000Y-96770500D01*
X74160000Y-98936000D01*
X74140315Y-99003039D01*
X74087511Y-99048794D01*
X74036000Y-99060000D01*
X64770000Y-99060000D01*
X64770000Y-96187081D01*
X72349500Y-96187081D01*
X72356006Y-96247597D01*
X72407053Y-96384461D01*
X72494596Y-96501403D01*
X72611538Y-96588945D01*
X72611538Y-96588946D01*
X72748402Y-96639993D01*
X72808918Y-96646499D01*
X72808920Y-96646500D01*
X73229000Y-96646500D01*
X73229000Y-96118500D01*
X72349500Y-96118500D01*
X72349500Y-96187081D01*
X64770000Y-96187081D01*
X64770000Y-94245515D01*
X68307000Y-94245515D01*
X68317606Y-94349325D01*
X68373341Y-94517522D01*
X68373343Y-94517527D01*
X68466366Y-94668340D01*
X68591659Y-94793633D01*
X68742472Y-94886656D01*
X68742477Y-94886658D01*
X68910674Y-94942393D01*
X69014484Y-94952999D01*
X69014497Y-94953000D01*
X69334000Y-94953000D01*
X70096000Y-94953000D01*
X70415503Y-94953000D01*
X70415515Y-94952999D01*
X70519325Y-94942393D01*
X70595712Y-94917081D01*
X72349500Y-94917081D01*
X72356006Y-94977599D01*
X72386429Y-95059168D01*
X72391413Y-95128859D01*
X72386429Y-95145832D01*
X72356006Y-95227400D01*
X72349500Y-95287918D01*
X72349500Y-95356500D01*
X73229000Y-95356500D01*
X73229000Y-94848500D01*
X72349500Y-94848500D01*
X72349500Y-94917081D01*
X70595712Y-94917081D01*
X70687522Y-94886658D01*
X70687527Y-94886656D01*
X70838340Y-94793633D01*
X70922517Y-94709457D01*
X70963633Y-94668340D01*
X71056656Y-94517527D01*
X71056658Y-94517522D01*
X71112393Y-94349325D01*
X71122999Y-94245515D01*
X71123000Y-94245502D01*
X71123000Y-94163500D01*
X70096000Y-94163500D01*
X70096000Y-94953000D01*
X69334000Y-94953000D01*
X69334000Y-94163500D01*
X68307000Y-94163500D01*
X68307000Y-94245515D01*
X64770000Y-94245515D01*
X64770000Y-93345000D01*
X67310000Y-93345000D01*
X68199138Y-93345000D01*
X68266177Y-93364685D01*
G37*
%TD.AperFunction*%
%TD*%
%TA.AperFunction,Conductor*%
%TO.N,GND*%
G36*
X54164039Y-93001685D02*
G01*
X54209794Y-93054489D01*
X54221000Y-93106000D01*
X54221000Y-96668000D01*
X54201315Y-96735039D01*
X54148511Y-96780794D01*
X54097000Y-96792000D01*
X53662836Y-96792000D01*
X53595797Y-96772315D01*
X53575155Y-96755681D01*
X53505840Y-96686366D01*
X53355027Y-96593343D01*
X53355022Y-96593341D01*
X53186825Y-96537606D01*
X53083015Y-96527000D01*
X53001000Y-96527000D01*
X53001000Y-99343000D01*
X53021638Y-99343000D01*
X53088677Y-99362685D01*
X53134432Y-99415489D01*
X53144376Y-99484647D01*
X53115351Y-99548203D01*
X53109319Y-99554681D01*
X52860319Y-99803681D01*
X52798996Y-99837166D01*
X52772638Y-99840000D01*
X51722333Y-99840000D01*
X51655294Y-99820315D01*
X51647933Y-99815200D01*
X51632574Y-99803681D01*
X50705100Y-99108075D01*
X50663279Y-99052104D01*
X50655500Y-99008875D01*
X50655500Y-98951000D01*
X50293686Y-98951000D01*
X50262832Y-98945433D01*
X50262535Y-98946693D01*
X50254983Y-98944908D01*
X50195383Y-98938501D01*
X50195381Y-98938500D01*
X50195373Y-98938500D01*
X50195365Y-98938500D01*
X49519000Y-98938500D01*
X49451961Y-98918815D01*
X49406206Y-98866011D01*
X49395000Y-98814500D01*
X49395000Y-98635515D01*
X51449500Y-98635515D01*
X51460106Y-98739325D01*
X51515841Y-98907522D01*
X51515843Y-98907527D01*
X51608866Y-99058340D01*
X51734159Y-99183633D01*
X51884972Y-99276656D01*
X51884977Y-99276658D01*
X52053174Y-99332393D01*
X52156984Y-99342999D01*
X52156997Y-99343000D01*
X52239000Y-99343000D01*
X52239000Y-98316000D01*
X51449500Y-98316000D01*
X51449500Y-98635515D01*
X49395000Y-98635515D01*
X49395000Y-98325499D01*
X49414685Y-98258460D01*
X49467489Y-98212705D01*
X49518998Y-98201499D01*
X50195372Y-98201499D01*
X50254983Y-98195091D01*
X50254985Y-98195090D01*
X50254987Y-98195090D01*
X50262531Y-98193308D01*
X50262828Y-98194567D01*
X50293686Y-98189000D01*
X50655500Y-98189000D01*
X50655500Y-98120420D01*
X50655499Y-98120418D01*
X50648993Y-98059902D01*
X50614567Y-97967602D01*
X50608526Y-97903353D01*
X50610492Y-97891863D01*
X50641591Y-97808483D01*
X50648000Y-97748873D01*
X50647999Y-97672676D01*
X50649776Y-97662293D01*
X50653792Y-97654084D01*
X50657439Y-97635753D01*
X50665000Y-97617500D01*
X50665000Y-97234484D01*
X51449500Y-97234484D01*
X51449500Y-97554000D01*
X52239000Y-97554000D01*
X52239000Y-96527000D01*
X52156984Y-96527000D01*
X52053174Y-96537606D01*
X51884977Y-96593341D01*
X51884972Y-96593343D01*
X51734159Y-96686366D01*
X51608866Y-96811659D01*
X51515843Y-96962472D01*
X51515841Y-96962477D01*
X51460106Y-97130674D01*
X51449500Y-97234484D01*
X50665000Y-97234484D01*
X50665000Y-95460515D01*
X52669500Y-95460515D01*
X52680106Y-95564325D01*
X52735841Y-95732522D01*
X52735843Y-95732527D01*
X52828866Y-95883340D01*
X52954159Y-96008633D01*
X53104972Y-96101656D01*
X53104977Y-96101658D01*
X53273174Y-96157393D01*
X53376984Y-96167999D01*
X53376997Y-96168000D01*
X53459000Y-96168000D01*
X53459000Y-95141000D01*
X52669500Y-95141000D01*
X52669500Y-95460515D01*
X50665000Y-95460515D01*
X50665000Y-94059484D01*
X52669500Y-94059484D01*
X52669500Y-94379000D01*
X53459000Y-94379000D01*
X53459000Y-93352000D01*
X53376984Y-93352000D01*
X53273174Y-93362606D01*
X53104977Y-93418341D01*
X53104972Y-93418343D01*
X52954159Y-93511366D01*
X52828866Y-93636659D01*
X52735843Y-93787472D01*
X52735841Y-93787477D01*
X52680106Y-93955674D01*
X52669500Y-94059484D01*
X50665000Y-94059484D01*
X50665000Y-93985862D01*
X50684685Y-93918823D01*
X50701319Y-93898181D01*
X51581181Y-93018319D01*
X51642504Y-92984834D01*
X51668862Y-92982000D01*
X54097000Y-92982000D01*
X54164039Y-93001685D01*
G37*
%TD.AperFunction*%
%TD*%
%TA.AperFunction,Conductor*%
%TO.N,GND*%
G36*
X196999500Y-222497785D02*
G01*
X196999421Y-222502211D01*
X196981824Y-222994906D01*
X196981193Y-223003735D01*
X196928728Y-223491732D01*
X196927468Y-223500494D01*
X196840324Y-223983499D01*
X196838442Y-223992148D01*
X196717065Y-224467699D01*
X196714571Y-224476192D01*
X196559580Y-224941866D01*
X196556487Y-224950160D01*
X196368664Y-225403602D01*
X196364987Y-225411653D01*
X196145294Y-225850546D01*
X196141056Y-225858308D01*
X196036223Y-226034996D01*
X195890613Y-226280408D01*
X195885827Y-226287854D01*
X195605916Y-226691001D01*
X195600612Y-226698087D01*
X195292647Y-227080250D01*
X195286850Y-227086940D01*
X194952411Y-227446152D01*
X194946152Y-227452411D01*
X194586940Y-227786850D01*
X194580250Y-227792647D01*
X194198087Y-228100612D01*
X194191001Y-228105916D01*
X193787859Y-228385823D01*
X193780413Y-228390609D01*
X193456760Y-228582642D01*
X193393486Y-228600000D01*
X177343362Y-228600000D01*
X177276323Y-228580315D01*
X177255681Y-228563681D01*
X174788319Y-226096319D01*
X174754834Y-226034996D01*
X174752000Y-226008638D01*
X174752000Y-222372149D01*
X188049500Y-222372149D01*
X188049500Y-222627850D01*
X188075457Y-222825007D01*
X188082874Y-222881340D01*
X188113304Y-222994906D01*
X188149050Y-223128312D01*
X188149053Y-223128322D01*
X188246894Y-223364531D01*
X188246899Y-223364542D01*
X188374734Y-223585957D01*
X188374745Y-223585973D01*
X188530388Y-223788811D01*
X188530394Y-223788818D01*
X188711181Y-223969605D01*
X188711187Y-223969610D01*
X188914035Y-224125261D01*
X188914042Y-224125265D01*
X189135457Y-224253100D01*
X189135462Y-224253102D01*
X189135465Y-224253104D01*
X189371687Y-224350950D01*
X189618660Y-224417126D01*
X189872157Y-224450500D01*
X189872164Y-224450500D01*
X190127836Y-224450500D01*
X190127843Y-224450500D01*
X190381340Y-224417126D01*
X190628313Y-224350950D01*
X190864535Y-224253104D01*
X191085965Y-224125261D01*
X191288813Y-223969610D01*
X191469610Y-223788813D01*
X191625261Y-223585965D01*
X191753104Y-223364535D01*
X191850950Y-223128313D01*
X191917126Y-222881340D01*
X191950500Y-222627843D01*
X191950500Y-222372157D01*
X191917126Y-222118660D01*
X191850950Y-221871687D01*
X191753104Y-221635465D01*
X191753102Y-221635462D01*
X191753100Y-221635457D01*
X191625265Y-221414042D01*
X191625261Y-221414035D01*
X191469610Y-221211187D01*
X191469605Y-221211181D01*
X191288818Y-221030394D01*
X191288811Y-221030388D01*
X191085973Y-220874745D01*
X191085971Y-220874743D01*
X191085965Y-220874739D01*
X191085960Y-220874736D01*
X191085957Y-220874734D01*
X190864542Y-220746899D01*
X190864531Y-220746894D01*
X190628322Y-220649053D01*
X190628315Y-220649051D01*
X190628313Y-220649050D01*
X190381340Y-220582874D01*
X190325007Y-220575457D01*
X190127850Y-220549500D01*
X190127843Y-220549500D01*
X189872157Y-220549500D01*
X189872149Y-220549500D01*
X189646826Y-220579165D01*
X189618660Y-220582874D01*
X189371687Y-220649050D01*
X189371677Y-220649053D01*
X189135468Y-220746894D01*
X189135457Y-220746899D01*
X188914042Y-220874734D01*
X188914026Y-220874745D01*
X188711188Y-221030388D01*
X188711181Y-221030394D01*
X188530394Y-221211181D01*
X188530388Y-221211188D01*
X188374745Y-221414026D01*
X188374734Y-221414042D01*
X188246899Y-221635457D01*
X188246894Y-221635468D01*
X188149053Y-221871677D01*
X188149050Y-221871687D01*
X188082874Y-222118661D01*
X188049500Y-222372149D01*
X174752000Y-222372149D01*
X174752000Y-220093875D01*
X174771685Y-220026836D01*
X174824489Y-219981081D01*
X174876000Y-219969875D01*
X175006000Y-219969875D01*
X175514000Y-219969875D01*
X175723003Y-219969875D01*
X175723015Y-219969874D01*
X175826825Y-219959268D01*
X175995022Y-219903533D01*
X175995027Y-219903531D01*
X176145840Y-219810508D01*
X176271133Y-219685215D01*
X176364156Y-219534402D01*
X176364158Y-219534397D01*
X176419893Y-219366200D01*
X176430499Y-219262390D01*
X176430500Y-219262377D01*
X176430500Y-218815875D01*
X175514000Y-218815875D01*
X175514000Y-219969875D01*
X175006000Y-219969875D01*
X175006000Y-218307875D01*
X175514000Y-218307875D01*
X176430500Y-218307875D01*
X176430500Y-217861372D01*
X176430499Y-217861359D01*
X176419893Y-217757549D01*
X176364158Y-217589352D01*
X176364156Y-217589347D01*
X176271133Y-217438534D01*
X176145840Y-217313241D01*
X175995027Y-217220218D01*
X175995022Y-217220216D01*
X175826825Y-217164481D01*
X175723015Y-217153875D01*
X175514000Y-217153875D01*
X175514000Y-218307875D01*
X175006000Y-218307875D01*
X175006000Y-217153875D01*
X174876000Y-217153875D01*
X174808961Y-217134190D01*
X174763206Y-217081386D01*
X174752000Y-217029875D01*
X174752000Y-215813579D01*
X174771685Y-215746540D01*
X174776733Y-215739268D01*
X174834796Y-215661706D01*
X174885091Y-215526858D01*
X174891500Y-215467248D01*
X174891499Y-213866503D01*
X174885091Y-213806892D01*
X174884582Y-213805528D01*
X174834797Y-213672046D01*
X174834793Y-213672040D01*
X174776733Y-213594480D01*
X174752316Y-213529016D01*
X174752000Y-213520170D01*
X174752000Y-213360000D01*
X174752000Y-210788702D01*
X174753903Y-210787278D01*
X174841445Y-210670336D01*
X174841446Y-210670336D01*
X174892493Y-210533472D01*
X174898999Y-210472956D01*
X174899000Y-210472955D01*
X174899000Y-209925875D01*
X174114000Y-209925875D01*
X174046961Y-209906190D01*
X174001206Y-209853386D01*
X173990000Y-209801875D01*
X173990000Y-209671875D01*
X173860000Y-209671875D01*
X173792961Y-209652190D01*
X173747206Y-209599386D01*
X173736000Y-209547875D01*
X173736000Y-209417875D01*
X174244000Y-209417875D01*
X174899000Y-209417875D01*
X174899000Y-208870795D01*
X174898999Y-208870793D01*
X174892493Y-208810277D01*
X174841446Y-208673413D01*
X174753903Y-208556471D01*
X174636961Y-208468929D01*
X174636961Y-208468928D01*
X174500097Y-208417881D01*
X174439581Y-208411375D01*
X174244000Y-208411375D01*
X174244000Y-209417875D01*
X173736000Y-209417875D01*
X173736000Y-208449323D01*
X173603282Y-208404985D01*
X173590488Y-208396081D01*
X173575534Y-208391690D01*
X173562400Y-208376532D01*
X173545934Y-208365073D01*
X173539984Y-208350663D01*
X173529779Y-208338886D01*
X173526924Y-208319032D01*
X173519269Y-208300492D01*
X173522053Y-208285156D01*
X173519835Y-208269728D01*
X173528167Y-208251482D01*
X173531751Y-208231746D01*
X173542385Y-208220349D01*
X173548860Y-208206172D01*
X173550638Y-208204165D01*
X174406387Y-207258687D01*
X174465966Y-207222194D01*
X174535819Y-207223705D01*
X174537324Y-207224193D01*
X174643174Y-207259268D01*
X174746984Y-207269874D01*
X174746997Y-207269875D01*
X174956000Y-207269875D01*
X175464000Y-207269875D01*
X175673003Y-207269875D01*
X175673015Y-207269874D01*
X175776825Y-207259268D01*
X175945022Y-207203533D01*
X175945027Y-207203531D01*
X176095840Y-207110508D01*
X176221133Y-206985215D01*
X176314156Y-206834402D01*
X176314158Y-206834397D01*
X176369893Y-206666200D01*
X176380499Y-206562390D01*
X176380500Y-206562377D01*
X176380500Y-206115875D01*
X175464000Y-206115875D01*
X175464000Y-207269875D01*
X174956000Y-207269875D01*
X174956000Y-205607875D01*
X175464000Y-205607875D01*
X176380500Y-205607875D01*
X176380500Y-205161372D01*
X176380499Y-205161359D01*
X176369893Y-205057549D01*
X176314158Y-204889352D01*
X176314156Y-204889347D01*
X176221133Y-204738534D01*
X176095840Y-204613241D01*
X175945027Y-204520218D01*
X175945022Y-204520216D01*
X175776825Y-204464481D01*
X175673015Y-204453875D01*
X175464000Y-204453875D01*
X175464000Y-205607875D01*
X174956000Y-205607875D01*
X174956000Y-204453875D01*
X174833699Y-204453875D01*
X174766660Y-204434190D01*
X174720905Y-204381386D01*
X174710961Y-204312228D01*
X174722790Y-204274421D01*
X175260000Y-203200001D01*
X175260000Y-199390000D01*
X196999500Y-199390000D01*
X196999500Y-222497785D01*
G37*
%TD.AperFunction*%
%TD*%
%TA.AperFunction,Conductor*%
%TO.N,Net-(U5-SW)*%
G36*
X50157000Y-97544500D02*
G01*
X50137315Y-97611539D01*
X50084511Y-97657294D01*
X50033000Y-97668500D01*
X48828499Y-97668500D01*
X48761460Y-97648815D01*
X48715705Y-97596011D01*
X48704499Y-97544500D01*
X48704499Y-97406129D01*
X48704498Y-97406123D01*
X48698091Y-97346516D01*
X48644697Y-97203359D01*
X48645770Y-97202958D01*
X48633000Y-97152922D01*
X48633000Y-94760000D01*
X50157000Y-94760000D01*
X50157000Y-97544500D01*
G37*
%TD.AperFunction*%
%TD*%
%TA.AperFunction,Conductor*%
%TO.N,+6.5V*%
G36*
X65983039Y-76219685D02*
G01*
X66028794Y-76272489D01*
X66040000Y-76324000D01*
X66040000Y-92075000D01*
X67310000Y-93345000D01*
X64770000Y-93345000D01*
X64770000Y-99060000D01*
X56970353Y-99060000D01*
X56903314Y-99040315D01*
X56857559Y-98987511D01*
X56847615Y-98918353D01*
X56852647Y-98896996D01*
X56904893Y-98739325D01*
X56915499Y-98635515D01*
X56915500Y-98635502D01*
X56915500Y-98316000D01*
X55869000Y-98316000D01*
X55801961Y-98296315D01*
X55756206Y-98243511D01*
X55745000Y-98192000D01*
X55745000Y-97935000D01*
X55488000Y-97935000D01*
X55420961Y-97915315D01*
X55375206Y-97862511D01*
X55364000Y-97811000D01*
X55364000Y-97554000D01*
X56126000Y-97554000D01*
X56915500Y-97554000D01*
X56915500Y-97234497D01*
X56915499Y-97234484D01*
X56904893Y-97130674D01*
X56849158Y-96962477D01*
X56849156Y-96962472D01*
X56756133Y-96811659D01*
X56630840Y-96686366D01*
X56480027Y-96593343D01*
X56480022Y-96593341D01*
X56311825Y-96537606D01*
X56208015Y-96527000D01*
X56126000Y-96527000D01*
X56126000Y-97554000D01*
X55364000Y-97554000D01*
X55364000Y-96665000D01*
X55973468Y-96055531D01*
X56034789Y-96022048D01*
X56104480Y-96027032D01*
X56126244Y-96037676D01*
X56229966Y-96101653D01*
X56229977Y-96101658D01*
X56398174Y-96157393D01*
X56501984Y-96167999D01*
X56501997Y-96168000D01*
X56584000Y-96168000D01*
X57346000Y-96168000D01*
X57428003Y-96168000D01*
X57428015Y-96167999D01*
X57531825Y-96157393D01*
X57700022Y-96101658D01*
X57700027Y-96101656D01*
X57850840Y-96008633D01*
X57976133Y-95883340D01*
X58069156Y-95732527D01*
X58069158Y-95732522D01*
X58124893Y-95564325D01*
X58135499Y-95460515D01*
X58135500Y-95460502D01*
X58135500Y-95141000D01*
X57346000Y-95141000D01*
X57346000Y-96168000D01*
X56584000Y-96168000D01*
X56584000Y-94704324D01*
X61323099Y-94704324D01*
X61357950Y-94879527D01*
X61357952Y-94879533D01*
X61426314Y-95044575D01*
X61426319Y-95044584D01*
X61525564Y-95193114D01*
X61525567Y-95193118D01*
X61651881Y-95319432D01*
X61651885Y-95319435D01*
X61800415Y-95418680D01*
X61800421Y-95418683D01*
X61800422Y-95418684D01*
X61965467Y-95487048D01*
X61965471Y-95487048D01*
X61965472Y-95487049D01*
X62140675Y-95521900D01*
X62140678Y-95521900D01*
X62319324Y-95521900D01*
X62437198Y-95498452D01*
X62494533Y-95487048D01*
X62659578Y-95418684D01*
X62808115Y-95319435D01*
X62934435Y-95193115D01*
X63033684Y-95044578D01*
X63102048Y-94879533D01*
X63136900Y-94704322D01*
X63136900Y-94525678D01*
X63136900Y-94525675D01*
X63102049Y-94350472D01*
X63102048Y-94350471D01*
X63102048Y-94350467D01*
X63033684Y-94185422D01*
X63033683Y-94185421D01*
X63033680Y-94185415D01*
X62934435Y-94036885D01*
X62934432Y-94036881D01*
X62808118Y-93910567D01*
X62808114Y-93910564D01*
X62659584Y-93811319D01*
X62659575Y-93811314D01*
X62494533Y-93742952D01*
X62494527Y-93742950D01*
X62319324Y-93708100D01*
X62319322Y-93708100D01*
X62140678Y-93708100D01*
X62140676Y-93708100D01*
X61965472Y-93742950D01*
X61965466Y-93742952D01*
X61800424Y-93811314D01*
X61800415Y-93811319D01*
X61651885Y-93910564D01*
X61651881Y-93910567D01*
X61525567Y-94036881D01*
X61525564Y-94036885D01*
X61426319Y-94185415D01*
X61426314Y-94185424D01*
X61357952Y-94350466D01*
X61357950Y-94350472D01*
X61323100Y-94525675D01*
X61323100Y-94525678D01*
X61323100Y-94704322D01*
X61323100Y-94704324D01*
X61323099Y-94704324D01*
X56584000Y-94704324D01*
X56584000Y-94379000D01*
X57346000Y-94379000D01*
X58135500Y-94379000D01*
X58135500Y-94059497D01*
X58135499Y-94059484D01*
X58124893Y-93955674D01*
X58069158Y-93787477D01*
X58069156Y-93787472D01*
X57976133Y-93636659D01*
X57850840Y-93511366D01*
X57700027Y-93418343D01*
X57700022Y-93418341D01*
X57531825Y-93362606D01*
X57428015Y-93352000D01*
X57346000Y-93352000D01*
X57346000Y-94379000D01*
X56584000Y-94379000D01*
X56584000Y-93385692D01*
X56475158Y-93343682D01*
X56465021Y-93335912D01*
X56452770Y-93332315D01*
X56432228Y-93310777D01*
X56419704Y-93301178D01*
X56417660Y-93295503D01*
X56412439Y-93290029D01*
X56128959Y-92799324D01*
X59418099Y-92799324D01*
X59452950Y-92974527D01*
X59452952Y-92974533D01*
X59521314Y-93139575D01*
X59521319Y-93139584D01*
X59620564Y-93288114D01*
X59620567Y-93288118D01*
X59746881Y-93414432D01*
X59746885Y-93414435D01*
X59895415Y-93513680D01*
X59895424Y-93513685D01*
X59932812Y-93529171D01*
X60060467Y-93582048D01*
X60060471Y-93582048D01*
X60060472Y-93582049D01*
X60235675Y-93616900D01*
X60235678Y-93616900D01*
X60414324Y-93616900D01*
X60532198Y-93593452D01*
X60589533Y-93582048D01*
X60754578Y-93513684D01*
X60903115Y-93414435D01*
X61029435Y-93288115D01*
X61128684Y-93139578D01*
X61197048Y-92974533D01*
X61231900Y-92799322D01*
X61231900Y-92620678D01*
X61231900Y-92620675D01*
X61197049Y-92445472D01*
X61197048Y-92445471D01*
X61197048Y-92445467D01*
X61128684Y-92280422D01*
X61128683Y-92280421D01*
X61128680Y-92280415D01*
X61029435Y-92131885D01*
X61029432Y-92131881D01*
X60903118Y-92005567D01*
X60903114Y-92005564D01*
X60754584Y-91906319D01*
X60754575Y-91906314D01*
X60589533Y-91837952D01*
X60589527Y-91837950D01*
X60414324Y-91803100D01*
X60414322Y-91803100D01*
X60235678Y-91803100D01*
X60235676Y-91803100D01*
X60060472Y-91837950D01*
X60060466Y-91837952D01*
X59895424Y-91906314D01*
X59895415Y-91906319D01*
X59746885Y-92005564D01*
X59746881Y-92005567D01*
X59620567Y-92131881D01*
X59620564Y-92131885D01*
X59521319Y-92280415D01*
X59521314Y-92280424D01*
X59452952Y-92445466D01*
X59452950Y-92445472D01*
X59418100Y-92620675D01*
X59418100Y-92620678D01*
X59418100Y-92799322D01*
X59418100Y-92799324D01*
X59418099Y-92799324D01*
X56128959Y-92799324D01*
X54626629Y-90198784D01*
X54610000Y-90136756D01*
X54610000Y-88618581D01*
X55258000Y-88618581D01*
X55264506Y-88679097D01*
X55315553Y-88815961D01*
X55403096Y-88932903D01*
X55520038Y-89020445D01*
X55520038Y-89020446D01*
X55656902Y-89071493D01*
X55717418Y-89077999D01*
X55717420Y-89078000D01*
X57835000Y-89078000D01*
X58597000Y-89078000D01*
X60714580Y-89078000D01*
X60714581Y-89077999D01*
X60775097Y-89071493D01*
X60911961Y-89020446D01*
X60911961Y-89020445D01*
X61028903Y-88932903D01*
X61116445Y-88815961D01*
X61116446Y-88815961D01*
X61167493Y-88679097D01*
X61173999Y-88618581D01*
X61174000Y-88618580D01*
X61174000Y-86251000D01*
X58597000Y-86251000D01*
X58597000Y-89078000D01*
X57835000Y-89078000D01*
X57835000Y-86251000D01*
X55258000Y-86251000D01*
X55258000Y-88618581D01*
X54610000Y-88618581D01*
X54610000Y-83121418D01*
X55258000Y-83121418D01*
X55258000Y-85489000D01*
X57835000Y-85489000D01*
X58597000Y-85489000D01*
X61174000Y-85489000D01*
X61174000Y-83121420D01*
X61173999Y-83121418D01*
X61167493Y-83060902D01*
X61116446Y-82924038D01*
X61028903Y-82807096D01*
X60911961Y-82719554D01*
X60911961Y-82719553D01*
X60775097Y-82668506D01*
X60714581Y-82662000D01*
X58597000Y-82662000D01*
X58597000Y-85489000D01*
X57835000Y-85489000D01*
X57835000Y-82662000D01*
X55717418Y-82662000D01*
X55656902Y-82668506D01*
X55520038Y-82719553D01*
X55520038Y-82719554D01*
X55403096Y-82807096D01*
X55315554Y-82924038D01*
X55315553Y-82924038D01*
X55264506Y-83060902D01*
X55258000Y-83121418D01*
X54610000Y-83121418D01*
X54610000Y-78394487D01*
X54629685Y-78327448D01*
X54646319Y-78306806D01*
X56716806Y-76236319D01*
X56778129Y-76202834D01*
X56804487Y-76200000D01*
X65916000Y-76200000D01*
X65983039Y-76219685D01*
G37*
%TD.AperFunction*%
%TD*%
%TA.AperFunction,Conductor*%
%TO.N,GND*%
G36*
X47941039Y-93509685D02*
G01*
X47986794Y-93562489D01*
X47998000Y-93614000D01*
X47998000Y-97490499D01*
X47998001Y-97490503D01*
X48121174Y-97675264D01*
X48141983Y-97741963D01*
X48142000Y-97744031D01*
X48142000Y-97748863D01*
X48142001Y-97748876D01*
X48148409Y-97808483D01*
X48198702Y-97943328D01*
X48198706Y-97943335D01*
X48284952Y-98058544D01*
X48284955Y-98058547D01*
X48400164Y-98144793D01*
X48400171Y-98144797D01*
X48535017Y-98195091D01*
X48535016Y-98195091D01*
X48541944Y-98195835D01*
X48594627Y-98201500D01*
X48887000Y-98201499D01*
X48887000Y-98938500D01*
X48594629Y-98938500D01*
X48594623Y-98938501D01*
X48535016Y-98944908D01*
X48400171Y-98995202D01*
X48400164Y-98995206D01*
X48284955Y-99081452D01*
X48284952Y-99081455D01*
X48198706Y-99196664D01*
X48198702Y-99196671D01*
X48148408Y-99331516D01*
X48145282Y-99360597D01*
X48121193Y-99421741D01*
X47998000Y-99585999D01*
X47998000Y-108606000D01*
X47978315Y-108673039D01*
X47925511Y-108718794D01*
X47874000Y-108730000D01*
X45836000Y-108730000D01*
X45768961Y-108710315D01*
X45723206Y-108657511D01*
X45712000Y-108606000D01*
X45712000Y-93614000D01*
X45731685Y-93546961D01*
X45784489Y-93501206D01*
X45836000Y-93490000D01*
X47874000Y-93490000D01*
X47941039Y-93509685D01*
G37*
%TD.AperFunction*%
%TD*%
%TA.AperFunction,Conductor*%
%TO.N,+6.5V*%
G36*
X172663039Y-199409685D02*
G01*
X172708794Y-199462489D01*
X172720000Y-199514000D01*
X172720000Y-204334132D01*
X172700315Y-204401171D01*
X172647511Y-204446926D01*
X172583398Y-204457490D01*
X172548017Y-204453875D01*
X172339000Y-204453875D01*
X172339000Y-207269875D01*
X172548003Y-207269875D01*
X172548010Y-207269874D01*
X172583395Y-207266259D01*
X172652088Y-207279027D01*
X172702974Y-207326907D01*
X172720000Y-207389617D01*
X172720000Y-208277875D01*
X172700315Y-208344914D01*
X172647511Y-208390669D01*
X172596000Y-208401875D01*
X172076055Y-208401875D01*
X172034435Y-208424600D01*
X171964745Y-208419615D01*
X171960096Y-208417880D01*
X171899581Y-208411375D01*
X171704000Y-208411375D01*
X171704000Y-209547875D01*
X171684315Y-209614914D01*
X171631511Y-209660669D01*
X171580000Y-209671875D01*
X171450000Y-209671875D01*
X171450000Y-209801875D01*
X171430315Y-209868914D01*
X171377511Y-209914669D01*
X171326000Y-209925875D01*
X169271000Y-209925875D01*
X169271000Y-209930137D01*
X169251315Y-209997176D01*
X169198511Y-210042931D01*
X169147053Y-210054137D01*
X161849379Y-210057275D01*
X161782331Y-210037619D01*
X161761662Y-210020974D01*
X160109360Y-208369324D01*
X162923099Y-208369324D01*
X162957950Y-208544527D01*
X162957952Y-208544533D01*
X163026314Y-208709575D01*
X163026319Y-208709584D01*
X163125564Y-208858114D01*
X163125567Y-208858118D01*
X163251881Y-208984432D01*
X163251885Y-208984435D01*
X163400415Y-209083680D01*
X163400421Y-209083683D01*
X163400422Y-209083684D01*
X163565467Y-209152048D01*
X163565471Y-209152048D01*
X163565472Y-209152049D01*
X163740675Y-209186900D01*
X163740678Y-209186900D01*
X163919324Y-209186900D01*
X164037198Y-209163452D01*
X164094533Y-209152048D01*
X164259578Y-209083684D01*
X164408115Y-208984435D01*
X164521757Y-208870793D01*
X169271000Y-208870793D01*
X169271000Y-209417875D01*
X169926000Y-209417875D01*
X170434000Y-209417875D01*
X171196000Y-209417875D01*
X171196000Y-208411375D01*
X171000418Y-208411375D01*
X170939900Y-208417881D01*
X170858332Y-208448304D01*
X170788641Y-208453288D01*
X170771668Y-208448304D01*
X170690099Y-208417881D01*
X170629581Y-208411375D01*
X170434000Y-208411375D01*
X170434000Y-209417875D01*
X169926000Y-209417875D01*
X169926000Y-208411375D01*
X169730418Y-208411375D01*
X169669902Y-208417881D01*
X169533038Y-208468928D01*
X169533038Y-208468929D01*
X169416096Y-208556471D01*
X169328554Y-208673413D01*
X169328553Y-208673413D01*
X169277506Y-208810277D01*
X169271000Y-208870793D01*
X164521757Y-208870793D01*
X164534435Y-208858115D01*
X164633684Y-208709578D01*
X164702048Y-208544533D01*
X164721189Y-208448304D01*
X164736900Y-208369324D01*
X164736900Y-208190675D01*
X164702049Y-208015472D01*
X164702048Y-208015471D01*
X164702048Y-208015467D01*
X164633684Y-207850422D01*
X164633683Y-207850421D01*
X164633680Y-207850415D01*
X164534435Y-207701885D01*
X164534432Y-207701881D01*
X164408118Y-207575567D01*
X164408114Y-207575564D01*
X164259584Y-207476319D01*
X164259575Y-207476314D01*
X164094533Y-207407952D01*
X164094527Y-207407950D01*
X163919324Y-207373100D01*
X163919322Y-207373100D01*
X163740678Y-207373100D01*
X163740676Y-207373100D01*
X163565472Y-207407950D01*
X163565466Y-207407952D01*
X163400424Y-207476314D01*
X163400415Y-207476319D01*
X163251885Y-207575564D01*
X163251881Y-207575567D01*
X163125567Y-207701881D01*
X163125564Y-207701885D01*
X163026319Y-207850415D01*
X163026314Y-207850424D01*
X162957952Y-208015466D01*
X162957950Y-208015472D01*
X162923100Y-208190675D01*
X162923100Y-208190678D01*
X162923100Y-208369322D01*
X162923100Y-208369324D01*
X162923099Y-208369324D01*
X160109360Y-208369324D01*
X160056336Y-208316321D01*
X160041618Y-208289380D01*
X160025023Y-208263557D01*
X160024134Y-208257374D01*
X160022839Y-208255004D01*
X160020000Y-208228622D01*
X160020000Y-205866199D01*
X160383099Y-205866199D01*
X160417950Y-206041402D01*
X160417952Y-206041408D01*
X160486314Y-206206450D01*
X160486319Y-206206459D01*
X160585564Y-206354989D01*
X160585567Y-206354993D01*
X160711881Y-206481307D01*
X160711885Y-206481310D01*
X160860415Y-206580555D01*
X160860421Y-206580558D01*
X160860422Y-206580559D01*
X161025467Y-206648923D01*
X161025471Y-206648923D01*
X161025472Y-206648924D01*
X161200675Y-206683775D01*
X161200678Y-206683775D01*
X161379324Y-206683775D01*
X161497198Y-206660327D01*
X161554533Y-206648923D01*
X161719578Y-206580559D01*
X161868115Y-206481310D01*
X161994435Y-206354990D01*
X162093684Y-206206453D01*
X162162048Y-206041408D01*
X162196900Y-205866197D01*
X162196900Y-205829324D01*
X165463099Y-205829324D01*
X165497950Y-206004527D01*
X165497952Y-206004533D01*
X165566314Y-206169575D01*
X165566319Y-206169584D01*
X165665564Y-206318114D01*
X165665567Y-206318118D01*
X165791881Y-206444432D01*
X165791885Y-206444435D01*
X165940415Y-206543680D01*
X165940421Y-206543683D01*
X165940422Y-206543684D01*
X166105467Y-206612048D01*
X166105471Y-206612048D01*
X166105472Y-206612049D01*
X166280675Y-206646900D01*
X166280678Y-206646900D01*
X166459324Y-206646900D01*
X166577198Y-206623452D01*
X166634533Y-206612048D01*
X166754418Y-206562390D01*
X170914500Y-206562390D01*
X170925106Y-206666200D01*
X170980841Y-206834397D01*
X170980843Y-206834402D01*
X171073866Y-206985215D01*
X171199159Y-207110508D01*
X171349972Y-207203531D01*
X171349977Y-207203533D01*
X171518174Y-207259268D01*
X171621984Y-207269874D01*
X171621997Y-207269875D01*
X171831000Y-207269875D01*
X171831000Y-206115875D01*
X170914500Y-206115875D01*
X170914500Y-206562390D01*
X166754418Y-206562390D01*
X166799578Y-206543684D01*
X166948115Y-206444435D01*
X167074435Y-206318115D01*
X167173684Y-206169578D01*
X167242048Y-206004533D01*
X167276900Y-205829322D01*
X167276900Y-205650678D01*
X167276900Y-205650675D01*
X167242049Y-205475472D01*
X167242048Y-205475471D01*
X167242048Y-205475467D01*
X167173684Y-205310422D01*
X167173683Y-205310421D01*
X167173680Y-205310415D01*
X167118011Y-205227101D01*
X167118010Y-205227099D01*
X167074438Y-205161889D01*
X167074432Y-205161881D01*
X167073910Y-205161359D01*
X170914500Y-205161359D01*
X170914500Y-205607875D01*
X171831000Y-205607875D01*
X171831000Y-204453875D01*
X171621984Y-204453875D01*
X171518174Y-204464481D01*
X171349977Y-204520216D01*
X171349972Y-204520218D01*
X171199159Y-204613241D01*
X171073866Y-204738534D01*
X170980843Y-204889347D01*
X170980841Y-204889352D01*
X170925106Y-205057549D01*
X170914500Y-205161359D01*
X167073910Y-205161359D01*
X166948118Y-205035567D01*
X166948114Y-205035564D01*
X166799584Y-204936319D01*
X166799575Y-204936314D01*
X166634533Y-204867952D01*
X166634527Y-204867950D01*
X166459324Y-204833100D01*
X166459322Y-204833100D01*
X166280678Y-204833100D01*
X166280676Y-204833100D01*
X166105472Y-204867950D01*
X166105466Y-204867952D01*
X165940424Y-204936314D01*
X165940415Y-204936319D01*
X165791885Y-205035564D01*
X165791881Y-205035567D01*
X165665567Y-205161881D01*
X165665564Y-205161885D01*
X165566319Y-205310415D01*
X165566314Y-205310424D01*
X165497952Y-205475466D01*
X165497950Y-205475472D01*
X165463100Y-205650675D01*
X165463100Y-205650678D01*
X165463100Y-205829322D01*
X165463100Y-205829324D01*
X165463099Y-205829324D01*
X162196900Y-205829324D01*
X162196900Y-205687553D01*
X162196900Y-205687550D01*
X162196899Y-205687548D01*
X162193166Y-205668777D01*
X162162049Y-205512347D01*
X162162048Y-205512346D01*
X162162048Y-205512342D01*
X162093684Y-205347297D01*
X162093683Y-205347296D01*
X162093680Y-205347290D01*
X161994435Y-205198760D01*
X161994432Y-205198756D01*
X161868118Y-205072442D01*
X161868114Y-205072439D01*
X161719584Y-204973194D01*
X161719575Y-204973189D01*
X161554533Y-204904827D01*
X161554527Y-204904825D01*
X161379324Y-204869975D01*
X161379322Y-204869975D01*
X161200678Y-204869975D01*
X161200676Y-204869975D01*
X161025472Y-204904825D01*
X161025466Y-204904827D01*
X160860424Y-204973189D01*
X160860415Y-204973194D01*
X160711885Y-205072439D01*
X160711881Y-205072442D01*
X160585567Y-205198756D01*
X160585564Y-205198760D01*
X160486319Y-205347290D01*
X160486314Y-205347299D01*
X160417952Y-205512341D01*
X160417950Y-205512347D01*
X160383100Y-205687550D01*
X160383100Y-205687553D01*
X160383100Y-205866197D01*
X160383100Y-205866199D01*
X160383099Y-205866199D01*
X160020000Y-205866199D01*
X160020000Y-203289324D01*
X162923099Y-203289324D01*
X162957950Y-203464527D01*
X162957952Y-203464533D01*
X163026314Y-203629575D01*
X163026319Y-203629584D01*
X163125564Y-203778114D01*
X163125567Y-203778118D01*
X163251881Y-203904432D01*
X163251885Y-203904435D01*
X163400415Y-204003680D01*
X163400421Y-204003683D01*
X163400422Y-204003684D01*
X163565467Y-204072048D01*
X163565471Y-204072048D01*
X163565472Y-204072049D01*
X163740675Y-204106900D01*
X163740678Y-204106900D01*
X163919324Y-204106900D01*
X164037198Y-204083452D01*
X164094533Y-204072048D01*
X164259578Y-204003684D01*
X164408115Y-203904435D01*
X164534435Y-203778115D01*
X164633684Y-203629578D01*
X164702048Y-203464533D01*
X164736900Y-203289324D01*
X168003099Y-203289324D01*
X168037950Y-203464527D01*
X168037952Y-203464533D01*
X168106314Y-203629575D01*
X168106319Y-203629584D01*
X168205564Y-203778114D01*
X168205567Y-203778118D01*
X168331881Y-203904432D01*
X168331885Y-203904435D01*
X168480415Y-204003680D01*
X168480421Y-204003683D01*
X168480422Y-204003684D01*
X168645467Y-204072048D01*
X168645471Y-204072048D01*
X168645472Y-204072049D01*
X168820675Y-204106900D01*
X168820678Y-204106900D01*
X168999324Y-204106900D01*
X169117198Y-204083452D01*
X169174533Y-204072048D01*
X169339578Y-204003684D01*
X169488115Y-203904435D01*
X169614435Y-203778115D01*
X169713684Y-203629578D01*
X169782048Y-203464533D01*
X169816900Y-203289322D01*
X169816900Y-203110678D01*
X169816900Y-203110675D01*
X169782049Y-202935472D01*
X169782048Y-202935471D01*
X169782048Y-202935467D01*
X169713684Y-202770422D01*
X169713683Y-202770421D01*
X169713680Y-202770415D01*
X169614435Y-202621885D01*
X169614432Y-202621881D01*
X169488118Y-202495567D01*
X169488114Y-202495564D01*
X169339584Y-202396319D01*
X169339575Y-202396314D01*
X169174533Y-202327952D01*
X169174527Y-202327950D01*
X168999324Y-202293100D01*
X168999322Y-202293100D01*
X168820678Y-202293100D01*
X168820676Y-202293100D01*
X168645472Y-202327950D01*
X168645466Y-202327952D01*
X168480424Y-202396314D01*
X168480415Y-202396319D01*
X168331885Y-202495564D01*
X168331881Y-202495567D01*
X168205567Y-202621881D01*
X168205564Y-202621885D01*
X168106319Y-202770415D01*
X168106314Y-202770424D01*
X168037952Y-202935466D01*
X168037950Y-202935472D01*
X168003100Y-203110675D01*
X168003100Y-203110678D01*
X168003100Y-203289322D01*
X168003100Y-203289324D01*
X168003099Y-203289324D01*
X164736900Y-203289324D01*
X164736900Y-203289322D01*
X164736900Y-203110678D01*
X164736900Y-203110675D01*
X164702049Y-202935472D01*
X164702048Y-202935471D01*
X164702048Y-202935467D01*
X164633684Y-202770422D01*
X164633683Y-202770421D01*
X164633680Y-202770415D01*
X164534435Y-202621885D01*
X164534432Y-202621881D01*
X164408118Y-202495567D01*
X164408114Y-202495564D01*
X164259584Y-202396319D01*
X164259575Y-202396314D01*
X164094533Y-202327952D01*
X164094527Y-202327950D01*
X163919324Y-202293100D01*
X163919322Y-202293100D01*
X163740678Y-202293100D01*
X163740676Y-202293100D01*
X163565472Y-202327950D01*
X163565466Y-202327952D01*
X163400424Y-202396314D01*
X163400415Y-202396319D01*
X163251885Y-202495564D01*
X163251881Y-202495567D01*
X163125567Y-202621881D01*
X163125564Y-202621885D01*
X163026319Y-202770415D01*
X163026314Y-202770424D01*
X162957952Y-202935466D01*
X162957950Y-202935472D01*
X162923100Y-203110675D01*
X162923100Y-203110678D01*
X162923100Y-203289322D01*
X162923100Y-203289324D01*
X162923099Y-203289324D01*
X160020000Y-203289324D01*
X160020000Y-200749324D01*
X160383099Y-200749324D01*
X160417950Y-200924527D01*
X160417952Y-200924533D01*
X160486314Y-201089575D01*
X160486319Y-201089584D01*
X160585564Y-201238114D01*
X160585567Y-201238118D01*
X160711881Y-201364432D01*
X160711885Y-201364435D01*
X160860415Y-201463680D01*
X160860421Y-201463683D01*
X160860422Y-201463684D01*
X161025467Y-201532048D01*
X161025471Y-201532048D01*
X161025472Y-201532049D01*
X161200675Y-201566900D01*
X161200678Y-201566900D01*
X161379324Y-201566900D01*
X161497198Y-201543452D01*
X161554533Y-201532048D01*
X161719578Y-201463684D01*
X161868115Y-201364435D01*
X161994435Y-201238115D01*
X162093684Y-201089578D01*
X162162048Y-200924533D01*
X162196900Y-200749324D01*
X165463099Y-200749324D01*
X165497950Y-200924527D01*
X165497952Y-200924533D01*
X165566314Y-201089575D01*
X165566319Y-201089584D01*
X165665564Y-201238114D01*
X165665567Y-201238118D01*
X165791881Y-201364432D01*
X165791885Y-201364435D01*
X165940415Y-201463680D01*
X165940421Y-201463683D01*
X165940422Y-201463684D01*
X166105467Y-201532048D01*
X166105471Y-201532048D01*
X166105472Y-201532049D01*
X166280675Y-201566900D01*
X166280678Y-201566900D01*
X166459324Y-201566900D01*
X166577198Y-201543452D01*
X166634533Y-201532048D01*
X166799578Y-201463684D01*
X166948115Y-201364435D01*
X167074435Y-201238115D01*
X167173684Y-201089578D01*
X167242048Y-200924533D01*
X167276900Y-200749324D01*
X170543099Y-200749324D01*
X170577950Y-200924527D01*
X170577952Y-200924533D01*
X170646314Y-201089575D01*
X170646319Y-201089584D01*
X170745564Y-201238114D01*
X170745567Y-201238118D01*
X170871881Y-201364432D01*
X170871885Y-201364435D01*
X171020415Y-201463680D01*
X171020421Y-201463683D01*
X171020422Y-201463684D01*
X171185467Y-201532048D01*
X171185471Y-201532048D01*
X171185472Y-201532049D01*
X171360675Y-201566900D01*
X171360678Y-201566900D01*
X171539324Y-201566900D01*
X171657198Y-201543452D01*
X171714533Y-201532048D01*
X171879578Y-201463684D01*
X172028115Y-201364435D01*
X172154435Y-201238115D01*
X172253684Y-201089578D01*
X172322048Y-200924533D01*
X172356900Y-200749322D01*
X172356900Y-200570678D01*
X172356900Y-200570675D01*
X172322049Y-200395472D01*
X172322048Y-200395471D01*
X172322048Y-200395467D01*
X172253684Y-200230422D01*
X172253683Y-200230421D01*
X172253680Y-200230415D01*
X172154435Y-200081885D01*
X172154432Y-200081881D01*
X172028118Y-199955567D01*
X172028114Y-199955564D01*
X171879584Y-199856319D01*
X171879575Y-199856314D01*
X171714533Y-199787952D01*
X171714527Y-199787950D01*
X171539324Y-199753100D01*
X171539322Y-199753100D01*
X171360678Y-199753100D01*
X171360676Y-199753100D01*
X171185472Y-199787950D01*
X171185466Y-199787952D01*
X171020424Y-199856314D01*
X171020415Y-199856319D01*
X170871885Y-199955564D01*
X170871881Y-199955567D01*
X170745567Y-200081881D01*
X170745564Y-200081885D01*
X170646319Y-200230415D01*
X170646314Y-200230424D01*
X170577952Y-200395466D01*
X170577950Y-200395472D01*
X170543100Y-200570675D01*
X170543100Y-200570678D01*
X170543100Y-200749322D01*
X170543100Y-200749324D01*
X170543099Y-200749324D01*
X167276900Y-200749324D01*
X167276900Y-200749322D01*
X167276900Y-200570678D01*
X167276900Y-200570675D01*
X167242049Y-200395472D01*
X167242048Y-200395471D01*
X167242048Y-200395467D01*
X167173684Y-200230422D01*
X167173683Y-200230421D01*
X167173680Y-200230415D01*
X167074435Y-200081885D01*
X167074432Y-200081881D01*
X166948118Y-199955567D01*
X166948114Y-199955564D01*
X166799584Y-199856319D01*
X166799575Y-199856314D01*
X166634533Y-199787952D01*
X166634527Y-199787950D01*
X166459324Y-199753100D01*
X166459322Y-199753100D01*
X166280678Y-199753100D01*
X166280676Y-199753100D01*
X166105472Y-199787950D01*
X166105466Y-199787952D01*
X165940424Y-199856314D01*
X165940415Y-199856319D01*
X165791885Y-199955564D01*
X165791881Y-199955567D01*
X165665567Y-200081881D01*
X165665564Y-200081885D01*
X165566319Y-200230415D01*
X165566314Y-200230424D01*
X165497952Y-200395466D01*
X165497950Y-200395472D01*
X165463100Y-200570675D01*
X165463100Y-200570678D01*
X165463100Y-200749322D01*
X165463100Y-200749324D01*
X165463099Y-200749324D01*
X162196900Y-200749324D01*
X162196900Y-200749322D01*
X162196900Y-200570678D01*
X162196900Y-200570675D01*
X162162049Y-200395472D01*
X162162048Y-200395471D01*
X162162048Y-200395467D01*
X162093684Y-200230422D01*
X162093683Y-200230421D01*
X162093680Y-200230415D01*
X161994435Y-200081885D01*
X161994432Y-200081881D01*
X161868118Y-199955567D01*
X161868114Y-199955564D01*
X161719584Y-199856319D01*
X161719575Y-199856314D01*
X161554533Y-199787952D01*
X161554527Y-199787950D01*
X161379324Y-199753100D01*
X161379322Y-199753100D01*
X161200678Y-199753100D01*
X161200676Y-199753100D01*
X161025472Y-199787950D01*
X161025466Y-199787952D01*
X160860424Y-199856314D01*
X160860415Y-199856319D01*
X160711885Y-199955564D01*
X160711881Y-199955567D01*
X160585567Y-200081881D01*
X160585564Y-200081885D01*
X160486319Y-200230415D01*
X160486314Y-200230424D01*
X160417952Y-200395466D01*
X160417950Y-200395472D01*
X160383100Y-200570675D01*
X160383100Y-200570678D01*
X160383100Y-200749322D01*
X160383100Y-200749324D01*
X160383099Y-200749324D01*
X160020000Y-200749324D01*
X160020000Y-199514000D01*
X160039685Y-199446961D01*
X160092489Y-199401206D01*
X160144000Y-199390000D01*
X172596000Y-199390000D01*
X172663039Y-199409685D01*
G37*
%TD.AperFunction*%
%TD*%
%TA.AperFunction,Conductor*%
%TO.N,+12V*%
G36*
X43082539Y-98081685D02*
G01*
X43128294Y-98134489D01*
X43139500Y-98186000D01*
X43139500Y-98189000D01*
X43501314Y-98189000D01*
X43532167Y-98194566D01*
X43532465Y-98193307D01*
X43540016Y-98195091D01*
X43546944Y-98195835D01*
X43599627Y-98201500D01*
X44276001Y-98201499D01*
X44343039Y-98221183D01*
X44388794Y-98273987D01*
X44400000Y-98325499D01*
X44400000Y-98570000D01*
X44568999Y-98570000D01*
X44568999Y-99840000D01*
X44400000Y-99840000D01*
X44400000Y-100084500D01*
X44380315Y-100151539D01*
X44327511Y-100197294D01*
X44276000Y-100208500D01*
X43599629Y-100208500D01*
X43599623Y-100208501D01*
X43540012Y-100214909D01*
X43532469Y-100216692D01*
X43532171Y-100215432D01*
X43501314Y-100221000D01*
X43139500Y-100221000D01*
X43139500Y-100289586D01*
X43142710Y-100319445D01*
X43130303Y-100388204D01*
X43106789Y-100420690D01*
X40640000Y-102869999D01*
X40640000Y-101600000D01*
X27940000Y-101600000D01*
X27940000Y-99873362D01*
X27948644Y-99843921D01*
X27950908Y-99833515D01*
X38843000Y-99833515D01*
X38853606Y-99937325D01*
X38909341Y-100105522D01*
X38909343Y-100105527D01*
X39002366Y-100256340D01*
X39127659Y-100381633D01*
X39278472Y-100474656D01*
X39278477Y-100474658D01*
X39446674Y-100530393D01*
X39550484Y-100540999D01*
X39550497Y-100541000D01*
X39870000Y-100541000D01*
X40632000Y-100541000D01*
X40951503Y-100541000D01*
X40951515Y-100540999D01*
X41055325Y-100530393D01*
X41223522Y-100474658D01*
X41223527Y-100474656D01*
X41374340Y-100381633D01*
X41499633Y-100256340D01*
X41592656Y-100105527D01*
X41592658Y-100105522D01*
X41648393Y-99937325D01*
X41658999Y-99833515D01*
X41659000Y-99833502D01*
X41659000Y-99751500D01*
X40632000Y-99751500D01*
X40632000Y-100541000D01*
X39870000Y-100541000D01*
X39870000Y-99751500D01*
X38843000Y-99751500D01*
X38843000Y-99833515D01*
X27950908Y-99833515D01*
X27955168Y-99813935D01*
X27958922Y-99808919D01*
X27959685Y-99806323D01*
X27976319Y-99785681D01*
X28742419Y-99019581D01*
X43139500Y-99019581D01*
X43146006Y-99080099D01*
X43176429Y-99161668D01*
X43181413Y-99231359D01*
X43176429Y-99248332D01*
X43146006Y-99329900D01*
X43139500Y-99390418D01*
X43139500Y-99459000D01*
X44019000Y-99459000D01*
X44019000Y-98951000D01*
X43139500Y-98951000D01*
X43139500Y-99019581D01*
X28742419Y-99019581D01*
X28919681Y-98842319D01*
X28981004Y-98808834D01*
X29007362Y-98806000D01*
X38719000Y-98806000D01*
X38786039Y-98825685D01*
X38831794Y-98878489D01*
X38843000Y-98930000D01*
X38843000Y-98989500D01*
X41659000Y-98989500D01*
X41659000Y-98907491D01*
X41658999Y-98907490D01*
X41648393Y-98803674D01*
X41592658Y-98635477D01*
X41592656Y-98635472D01*
X41499633Y-98484659D01*
X41374339Y-98359365D01*
X41374055Y-98359190D01*
X41373900Y-98359018D01*
X41369783Y-98355762D01*
X41367870Y-98355114D01*
X41348321Y-98330577D01*
X41327333Y-98307240D01*
X41326718Y-98303460D01*
X41324333Y-98300467D01*
X41321153Y-98269253D01*
X41316114Y-98238277D01*
X41317639Y-98234765D01*
X41317252Y-98230957D01*
X41331451Y-98202981D01*
X41343960Y-98174196D01*
X41347646Y-98171074D01*
X41348875Y-98168654D01*
X41376468Y-98146669D01*
X41491968Y-98079006D01*
X41554644Y-98062000D01*
X43015500Y-98062000D01*
X43082539Y-98081685D01*
G37*
%TD.AperFunction*%
%TD*%
%TA.AperFunction,Conductor*%
%TO.N,+5VA*%
G36*
X169214039Y-214136560D02*
G01*
X169259794Y-214189364D01*
X169271000Y-214240875D01*
X169271000Y-214412875D01*
X170056000Y-214412875D01*
X170123039Y-214432560D01*
X170168794Y-214485364D01*
X170180000Y-214536875D01*
X170180000Y-214666875D01*
X170310000Y-214666875D01*
X170377039Y-214686560D01*
X170422794Y-214739364D01*
X170434000Y-214790875D01*
X170434000Y-215927375D01*
X170629580Y-215927375D01*
X170629594Y-215927374D01*
X170677743Y-215922197D01*
X170746503Y-215934601D01*
X170797641Y-215982211D01*
X170806073Y-216012948D01*
X170815000Y-216021875D01*
X172596000Y-216021875D01*
X172663039Y-216041560D01*
X172708794Y-216094364D01*
X172720000Y-216145875D01*
X172720000Y-217029875D01*
X172700315Y-217096914D01*
X172647511Y-217142669D01*
X172596000Y-217153875D01*
X172389000Y-217153875D01*
X172389000Y-219969875D01*
X172596000Y-219969875D01*
X172663039Y-219989560D01*
X172708794Y-220042364D01*
X172720000Y-220093875D01*
X172720000Y-226008638D01*
X172700315Y-226075677D01*
X172683681Y-226096319D01*
X170216319Y-228563681D01*
X170154996Y-228597166D01*
X170128638Y-228600000D01*
X137022143Y-228600000D01*
X136955104Y-228580315D01*
X136934462Y-228563681D01*
X133386319Y-225015538D01*
X133352834Y-224954215D01*
X133350000Y-224927857D01*
X133350000Y-219262390D01*
X170964500Y-219262390D01*
X170975106Y-219366200D01*
X171030841Y-219534397D01*
X171030843Y-219534402D01*
X171123866Y-219685215D01*
X171249159Y-219810508D01*
X171399972Y-219903531D01*
X171399977Y-219903533D01*
X171568174Y-219959268D01*
X171671984Y-219969874D01*
X171671997Y-219969875D01*
X171881000Y-219969875D01*
X171881000Y-218815875D01*
X170964500Y-218815875D01*
X170964500Y-219262390D01*
X133350000Y-219262390D01*
X133350000Y-217861359D01*
X170964500Y-217861359D01*
X170964500Y-218307875D01*
X171881000Y-218307875D01*
X171881000Y-217153875D01*
X171671984Y-217153875D01*
X171568174Y-217164481D01*
X171399977Y-217220216D01*
X171399972Y-217220218D01*
X171249159Y-217313241D01*
X171123866Y-217438534D01*
X171030843Y-217589347D01*
X171030841Y-217589352D01*
X170975106Y-217757549D01*
X170964500Y-217861359D01*
X133350000Y-217861359D01*
X133350000Y-217314127D01*
X133369685Y-217247088D01*
X133422489Y-217201333D01*
X133491647Y-217191389D01*
X133517334Y-217197945D01*
X133660902Y-217251493D01*
X133721418Y-217257999D01*
X133721420Y-217258000D01*
X134366000Y-217258000D01*
X134366000Y-216330702D01*
X134427007Y-216365925D01*
X134554174Y-216400000D01*
X134685826Y-216400000D01*
X134812993Y-216365925D01*
X134874000Y-216330702D01*
X134874000Y-217258000D01*
X135518580Y-217258000D01*
X135518581Y-217257999D01*
X135579097Y-217251493D01*
X135715961Y-217200446D01*
X135715961Y-217200445D01*
X135832903Y-217112903D01*
X135920445Y-216995961D01*
X135920446Y-216995961D01*
X135971493Y-216859097D01*
X135977999Y-216798581D01*
X135978000Y-216798580D01*
X135978000Y-216154000D01*
X135050703Y-216154000D01*
X135085925Y-216092993D01*
X135120000Y-215965826D01*
X135120000Y-215834174D01*
X135085925Y-215707007D01*
X135050703Y-215646000D01*
X135978000Y-215646000D01*
X135978000Y-215467956D01*
X169271000Y-215467956D01*
X169277506Y-215528472D01*
X169328553Y-215665336D01*
X169416096Y-215782278D01*
X169533038Y-215869820D01*
X169533038Y-215869821D01*
X169669902Y-215920868D01*
X169730418Y-215927374D01*
X169730420Y-215927375D01*
X169926000Y-215927375D01*
X169926000Y-214920875D01*
X169271000Y-214920875D01*
X169271000Y-215467956D01*
X135978000Y-215467956D01*
X135978000Y-215001420D01*
X135977999Y-215001418D01*
X135971493Y-214940900D01*
X135961030Y-214912846D01*
X135920446Y-214804038D01*
X135832903Y-214687096D01*
X135715961Y-214599554D01*
X135715961Y-214599553D01*
X135579097Y-214548506D01*
X135518581Y-214542000D01*
X134874000Y-214542000D01*
X134874000Y-215469297D01*
X134812993Y-215434075D01*
X134685826Y-215400000D01*
X134554174Y-215400000D01*
X134427007Y-215434075D01*
X134366000Y-215469297D01*
X134366000Y-214542000D01*
X133721418Y-214542000D01*
X133660900Y-214548506D01*
X133517333Y-214602054D01*
X133447642Y-214607038D01*
X133386319Y-214573553D01*
X133352834Y-214512230D01*
X133350000Y-214485872D01*
X133350000Y-214240875D01*
X133369685Y-214173836D01*
X133422489Y-214128081D01*
X133474000Y-214116875D01*
X169147000Y-214116875D01*
X169214039Y-214136560D01*
G37*
%TD.AperFunction*%
%TD*%
%TA.AperFunction,Conductor*%
%TO.N,GND*%
G36*
X75900951Y-177820393D02*
G01*
X76120257Y-177880918D01*
X76325231Y-177979628D01*
X76509286Y-178113352D01*
X76571681Y-178171681D01*
X78368319Y-179968319D01*
X78514121Y-180142962D01*
X78626396Y-180340832D01*
X78701536Y-180555570D01*
X78737126Y-180780274D01*
X78740000Y-180865638D01*
X78740000Y-189974362D01*
X78719607Y-190200951D01*
X78659082Y-190420257D01*
X78560372Y-190625231D01*
X78426648Y-190809286D01*
X78368319Y-190871681D01*
X76571681Y-192668319D01*
X76397038Y-192814121D01*
X76199168Y-192926396D01*
X75984430Y-193001536D01*
X75759726Y-193037126D01*
X75674362Y-193040000D01*
X64605384Y-193040000D01*
X64378795Y-193019607D01*
X64254083Y-192990405D01*
X64246666Y-192988268D01*
X63951795Y-192920966D01*
X63951789Y-192920965D01*
X63951788Y-192920965D01*
X63651230Y-192887100D01*
X40791230Y-192887100D01*
X40488770Y-192887100D01*
X40188212Y-192920965D01*
X40188211Y-192920965D01*
X40188204Y-192920966D01*
X39893333Y-192988268D01*
X39885917Y-192990405D01*
X39873291Y-192992842D01*
X39858622Y-192996191D01*
X39858509Y-192995697D01*
X39662539Y-193033536D01*
X39534616Y-193040000D01*
X29209000Y-193040000D01*
X28982411Y-193019607D01*
X28763105Y-192959082D01*
X28558131Y-192860372D01*
X28374076Y-192726648D01*
X28216856Y-192562209D01*
X28091524Y-192372339D01*
X28002109Y-192163143D01*
X27951485Y-191941342D01*
X27940000Y-191771000D01*
X27940000Y-179069000D01*
X27960393Y-178842411D01*
X28020918Y-178623105D01*
X28119628Y-178418131D01*
X28253352Y-178234076D01*
X28417791Y-178076856D01*
X28607661Y-177951524D01*
X28816857Y-177862109D01*
X29038658Y-177811485D01*
X29209000Y-177800000D01*
X75674362Y-177800000D01*
X75900951Y-177820393D01*
G37*
%TD.AperFunction*%
%TD*%
%TA.AperFunction,Conductor*%
%TO.N,GND*%
G36*
X125957589Y-180360393D02*
G01*
X126176895Y-180420918D01*
X126381869Y-180519628D01*
X126565924Y-180653352D01*
X126723144Y-180817791D01*
X126848476Y-181007661D01*
X126937891Y-181216857D01*
X126988515Y-181438658D01*
X127000000Y-181609000D01*
X127000000Y-189974362D01*
X126979607Y-190200951D01*
X126919082Y-190420257D01*
X126820372Y-190625231D01*
X126686648Y-190809286D01*
X126628319Y-190871681D01*
X124831681Y-192668319D01*
X124657038Y-192814121D01*
X124459168Y-192926396D01*
X124244430Y-193001536D01*
X124019726Y-193037126D01*
X123934362Y-193040000D01*
X105409000Y-193040000D01*
X105182411Y-193019607D01*
X104963105Y-192959082D01*
X104758131Y-192860372D01*
X104574076Y-192726648D01*
X104416856Y-192562209D01*
X104291524Y-192372339D01*
X104202109Y-192163143D01*
X104151485Y-191941342D01*
X104140000Y-191771000D01*
X104140000Y-183405638D01*
X104160393Y-183179049D01*
X104220918Y-182959743D01*
X104319628Y-182754769D01*
X104453352Y-182570714D01*
X104511681Y-182508319D01*
X106308319Y-180711681D01*
X106482962Y-180565879D01*
X106680832Y-180453604D01*
X106895570Y-180378464D01*
X107120274Y-180342874D01*
X107205638Y-180340000D01*
X125731000Y-180340000D01*
X125957589Y-180360393D01*
G37*
%TD.AperFunction*%
%TD*%
M02*
