%TF.GenerationSoftware,KiCad,Pcbnew,9.0.0*%
%TF.CreationDate,2025-10-01T11:12:32-04:00*%
%TF.ProjectId,can_gauge_interface,63616e5f-6761-4756-9765-5f696e746572,0.2*%
%TF.SameCoordinates,Original*%
%TF.FileFunction,Legend,Top*%
%TF.FilePolarity,Positive*%
%FSLAX46Y46*%
G04 Gerber Fmt 4.6, Leading zero omitted, Abs format (unit mm)*
G04 Created by KiCad (PCBNEW 9.0.0) date 2025-10-01 11:12:32*
%MOMM*%
%LPD*%
G01*
G04 APERTURE LIST*
%ADD10C,0.200000*%
%ADD11C,0.120000*%
%ADD12C,0.150000*%
G04 APERTURE END LIST*
D10*
X111801428Y-125515600D02*
X111972857Y-125572742D01*
X111972857Y-125572742D02*
X112258571Y-125572742D01*
X112258571Y-125572742D02*
X112372857Y-125515600D01*
X112372857Y-125515600D02*
X112429999Y-125458457D01*
X112429999Y-125458457D02*
X112487142Y-125344171D01*
X112487142Y-125344171D02*
X112487142Y-125229885D01*
X112487142Y-125229885D02*
X112429999Y-125115600D01*
X112429999Y-125115600D02*
X112372857Y-125058457D01*
X112372857Y-125058457D02*
X112258571Y-125001314D01*
X112258571Y-125001314D02*
X112029999Y-124944171D01*
X112029999Y-124944171D02*
X111915714Y-124887028D01*
X111915714Y-124887028D02*
X111858571Y-124829885D01*
X111858571Y-124829885D02*
X111801428Y-124715600D01*
X111801428Y-124715600D02*
X111801428Y-124601314D01*
X111801428Y-124601314D02*
X111858571Y-124487028D01*
X111858571Y-124487028D02*
X111915714Y-124429885D01*
X111915714Y-124429885D02*
X112029999Y-124372742D01*
X112029999Y-124372742D02*
X112315714Y-124372742D01*
X112315714Y-124372742D02*
X112487142Y-124429885D01*
X113001428Y-125572742D02*
X113001428Y-124372742D01*
X113001428Y-124372742D02*
X113458571Y-124372742D01*
X113458571Y-124372742D02*
X113572856Y-124429885D01*
X113572856Y-124429885D02*
X113629999Y-124487028D01*
X113629999Y-124487028D02*
X113687142Y-124601314D01*
X113687142Y-124601314D02*
X113687142Y-124772742D01*
X113687142Y-124772742D02*
X113629999Y-124887028D01*
X113629999Y-124887028D02*
X113572856Y-124944171D01*
X113572856Y-124944171D02*
X113458571Y-125001314D01*
X113458571Y-125001314D02*
X113001428Y-125001314D01*
X114201428Y-125572742D02*
X114201428Y-124372742D01*
X80416428Y-124937742D02*
X79730714Y-124937742D01*
X80073571Y-124937742D02*
X80073571Y-123737742D01*
X80073571Y-123737742D02*
X79959285Y-123909171D01*
X79959285Y-123909171D02*
X79845000Y-124023457D01*
X79845000Y-124023457D02*
X79730714Y-124080600D01*
X80873571Y-123852028D02*
X80930714Y-123794885D01*
X80930714Y-123794885D02*
X81045000Y-123737742D01*
X81045000Y-123737742D02*
X81330714Y-123737742D01*
X81330714Y-123737742D02*
X81445000Y-123794885D01*
X81445000Y-123794885D02*
X81502142Y-123852028D01*
X81502142Y-123852028D02*
X81559285Y-123966314D01*
X81559285Y-123966314D02*
X81559285Y-124080600D01*
X81559285Y-124080600D02*
X81502142Y-124252028D01*
X81502142Y-124252028D02*
X80816428Y-124937742D01*
X80816428Y-124937742D02*
X81559285Y-124937742D01*
X118711428Y-111602742D02*
X118711428Y-110402742D01*
X118711428Y-110402742D02*
X119111428Y-111259885D01*
X119111428Y-111259885D02*
X119511428Y-110402742D01*
X119511428Y-110402742D02*
X119511428Y-111602742D01*
X120768571Y-111488457D02*
X120711428Y-111545600D01*
X120711428Y-111545600D02*
X120540000Y-111602742D01*
X120540000Y-111602742D02*
X120425714Y-111602742D01*
X120425714Y-111602742D02*
X120254285Y-111545600D01*
X120254285Y-111545600D02*
X120140000Y-111431314D01*
X120140000Y-111431314D02*
X120082857Y-111317028D01*
X120082857Y-111317028D02*
X120025714Y-111088457D01*
X120025714Y-111088457D02*
X120025714Y-110917028D01*
X120025714Y-110917028D02*
X120082857Y-110688457D01*
X120082857Y-110688457D02*
X120140000Y-110574171D01*
X120140000Y-110574171D02*
X120254285Y-110459885D01*
X120254285Y-110459885D02*
X120425714Y-110402742D01*
X120425714Y-110402742D02*
X120540000Y-110402742D01*
X120540000Y-110402742D02*
X120711428Y-110459885D01*
X120711428Y-110459885D02*
X120768571Y-110517028D01*
X121854285Y-111602742D02*
X121282857Y-111602742D01*
X121282857Y-111602742D02*
X121282857Y-110402742D01*
X122940000Y-111602742D02*
X122540000Y-111031314D01*
X122254286Y-111602742D02*
X122254286Y-110402742D01*
X122254286Y-110402742D02*
X122711429Y-110402742D01*
X122711429Y-110402742D02*
X122825714Y-110459885D01*
X122825714Y-110459885D02*
X122882857Y-110517028D01*
X122882857Y-110517028D02*
X122940000Y-110631314D01*
X122940000Y-110631314D02*
X122940000Y-110802742D01*
X122940000Y-110802742D02*
X122882857Y-110917028D01*
X122882857Y-110917028D02*
X122825714Y-110974171D01*
X122825714Y-110974171D02*
X122711429Y-111031314D01*
X122711429Y-111031314D02*
X122254286Y-111031314D01*
X118545714Y-110069600D02*
X123048572Y-110069600D01*
X124368572Y-111145600D02*
X125282858Y-111145600D01*
X124825715Y-111602742D02*
X124825715Y-110688457D01*
X126425714Y-110402742D02*
X125854286Y-110402742D01*
X125854286Y-110402742D02*
X125797143Y-110974171D01*
X125797143Y-110974171D02*
X125854286Y-110917028D01*
X125854286Y-110917028D02*
X125968572Y-110859885D01*
X125968572Y-110859885D02*
X126254286Y-110859885D01*
X126254286Y-110859885D02*
X126368572Y-110917028D01*
X126368572Y-110917028D02*
X126425714Y-110974171D01*
X126425714Y-110974171D02*
X126482857Y-111088457D01*
X126482857Y-111088457D02*
X126482857Y-111374171D01*
X126482857Y-111374171D02*
X126425714Y-111488457D01*
X126425714Y-111488457D02*
X126368572Y-111545600D01*
X126368572Y-111545600D02*
X126254286Y-111602742D01*
X126254286Y-111602742D02*
X125968572Y-111602742D01*
X125968572Y-111602742D02*
X125854286Y-111545600D01*
X125854286Y-111545600D02*
X125797143Y-111488457D01*
X126825714Y-110402742D02*
X127225714Y-111602742D01*
X127225714Y-111602742D02*
X127625714Y-110402742D01*
X129568571Y-110459885D02*
X129454286Y-110402742D01*
X129454286Y-110402742D02*
X129282857Y-110402742D01*
X129282857Y-110402742D02*
X129111428Y-110459885D01*
X129111428Y-110459885D02*
X128997143Y-110574171D01*
X128997143Y-110574171D02*
X128940000Y-110688457D01*
X128940000Y-110688457D02*
X128882857Y-110917028D01*
X128882857Y-110917028D02*
X128882857Y-111088457D01*
X128882857Y-111088457D02*
X128940000Y-111317028D01*
X128940000Y-111317028D02*
X128997143Y-111431314D01*
X128997143Y-111431314D02*
X129111428Y-111545600D01*
X129111428Y-111545600D02*
X129282857Y-111602742D01*
X129282857Y-111602742D02*
X129397143Y-111602742D01*
X129397143Y-111602742D02*
X129568571Y-111545600D01*
X129568571Y-111545600D02*
X129625714Y-111488457D01*
X129625714Y-111488457D02*
X129625714Y-111088457D01*
X129625714Y-111088457D02*
X129397143Y-111088457D01*
X130140000Y-111602742D02*
X130140000Y-110402742D01*
X130140000Y-110402742D02*
X130825714Y-111602742D01*
X130825714Y-111602742D02*
X130825714Y-110402742D01*
X131397143Y-111602742D02*
X131397143Y-110402742D01*
X131397143Y-110402742D02*
X131682857Y-110402742D01*
X131682857Y-110402742D02*
X131854286Y-110459885D01*
X131854286Y-110459885D02*
X131968571Y-110574171D01*
X131968571Y-110574171D02*
X132025714Y-110688457D01*
X132025714Y-110688457D02*
X132082857Y-110917028D01*
X132082857Y-110917028D02*
X132082857Y-111088457D01*
X132082857Y-111088457D02*
X132025714Y-111317028D01*
X132025714Y-111317028D02*
X131968571Y-111431314D01*
X131968571Y-111431314D02*
X131854286Y-111545600D01*
X131854286Y-111545600D02*
X131682857Y-111602742D01*
X131682857Y-111602742D02*
X131397143Y-111602742D01*
X133511429Y-111602742D02*
X133511429Y-110402742D01*
X133511429Y-110402742D02*
X133797143Y-110402742D01*
X133797143Y-110402742D02*
X133968572Y-110459885D01*
X133968572Y-110459885D02*
X134082857Y-110574171D01*
X134082857Y-110574171D02*
X134140000Y-110688457D01*
X134140000Y-110688457D02*
X134197143Y-110917028D01*
X134197143Y-110917028D02*
X134197143Y-111088457D01*
X134197143Y-111088457D02*
X134140000Y-111317028D01*
X134140000Y-111317028D02*
X134082857Y-111431314D01*
X134082857Y-111431314D02*
X133968572Y-111545600D01*
X133968572Y-111545600D02*
X133797143Y-111602742D01*
X133797143Y-111602742D02*
X133511429Y-111602742D01*
X134654286Y-111259885D02*
X135225715Y-111259885D01*
X134540000Y-111602742D02*
X134940000Y-110402742D01*
X134940000Y-110402742D02*
X135340000Y-111602742D01*
X135568571Y-110402742D02*
X136254286Y-110402742D01*
X135911428Y-111602742D02*
X135911428Y-110402742D01*
X138254286Y-111488457D02*
X138197143Y-111545600D01*
X138197143Y-111545600D02*
X138025715Y-111602742D01*
X138025715Y-111602742D02*
X137911429Y-111602742D01*
X137911429Y-111602742D02*
X137740000Y-111545600D01*
X137740000Y-111545600D02*
X137625715Y-111431314D01*
X137625715Y-111431314D02*
X137568572Y-111317028D01*
X137568572Y-111317028D02*
X137511429Y-111088457D01*
X137511429Y-111088457D02*
X137511429Y-110917028D01*
X137511429Y-110917028D02*
X137568572Y-110688457D01*
X137568572Y-110688457D02*
X137625715Y-110574171D01*
X137625715Y-110574171D02*
X137740000Y-110459885D01*
X137740000Y-110459885D02*
X137911429Y-110402742D01*
X137911429Y-110402742D02*
X138025715Y-110402742D01*
X138025715Y-110402742D02*
X138197143Y-110459885D01*
X138197143Y-110459885D02*
X138254286Y-110517028D01*
X139340000Y-111602742D02*
X138768572Y-111602742D01*
X138768572Y-111602742D02*
X138768572Y-110402742D01*
X139740001Y-111602742D02*
X139740001Y-110402742D01*
X140425715Y-111602742D02*
X139911429Y-110917028D01*
X140425715Y-110402742D02*
X139740001Y-111088457D01*
X88620714Y-123794885D02*
X88506429Y-123737742D01*
X88506429Y-123737742D02*
X88335000Y-123737742D01*
X88335000Y-123737742D02*
X88163571Y-123794885D01*
X88163571Y-123794885D02*
X88049286Y-123909171D01*
X88049286Y-123909171D02*
X87992143Y-124023457D01*
X87992143Y-124023457D02*
X87935000Y-124252028D01*
X87935000Y-124252028D02*
X87935000Y-124423457D01*
X87935000Y-124423457D02*
X87992143Y-124652028D01*
X87992143Y-124652028D02*
X88049286Y-124766314D01*
X88049286Y-124766314D02*
X88163571Y-124880600D01*
X88163571Y-124880600D02*
X88335000Y-124937742D01*
X88335000Y-124937742D02*
X88449286Y-124937742D01*
X88449286Y-124937742D02*
X88620714Y-124880600D01*
X88620714Y-124880600D02*
X88677857Y-124823457D01*
X88677857Y-124823457D02*
X88677857Y-124423457D01*
X88677857Y-124423457D02*
X88449286Y-124423457D01*
X89192143Y-124937742D02*
X89192143Y-123737742D01*
X89192143Y-123737742D02*
X89877857Y-124937742D01*
X89877857Y-124937742D02*
X89877857Y-123737742D01*
X90449286Y-124937742D02*
X90449286Y-123737742D01*
X90449286Y-123737742D02*
X90735000Y-123737742D01*
X90735000Y-123737742D02*
X90906429Y-123794885D01*
X90906429Y-123794885D02*
X91020714Y-123909171D01*
X91020714Y-123909171D02*
X91077857Y-124023457D01*
X91077857Y-124023457D02*
X91135000Y-124252028D01*
X91135000Y-124252028D02*
X91135000Y-124423457D01*
X91135000Y-124423457D02*
X91077857Y-124652028D01*
X91077857Y-124652028D02*
X91020714Y-124766314D01*
X91020714Y-124766314D02*
X90906429Y-124880600D01*
X90906429Y-124880600D02*
X90735000Y-124937742D01*
X90735000Y-124937742D02*
X90449286Y-124937742D01*
X83420000Y-123737742D02*
X84220000Y-123737742D01*
X84220000Y-123737742D02*
X83705714Y-124937742D01*
X114245565Y-184694742D02*
X114245565Y-183494742D01*
X114245565Y-183494742D02*
X114531279Y-183494742D01*
X114531279Y-183494742D02*
X114702708Y-183551885D01*
X114702708Y-183551885D02*
X114816993Y-183666171D01*
X114816993Y-183666171D02*
X114874136Y-183780457D01*
X114874136Y-183780457D02*
X114931279Y-184009028D01*
X114931279Y-184009028D02*
X114931279Y-184180457D01*
X114931279Y-184180457D02*
X114874136Y-184409028D01*
X114874136Y-184409028D02*
X114816993Y-184523314D01*
X114816993Y-184523314D02*
X114702708Y-184637600D01*
X114702708Y-184637600D02*
X114531279Y-184694742D01*
X114531279Y-184694742D02*
X114245565Y-184694742D01*
X115388422Y-184351885D02*
X115959851Y-184351885D01*
X115274136Y-184694742D02*
X115674136Y-183494742D01*
X115674136Y-183494742D02*
X116074136Y-184694742D01*
X117159850Y-184580457D02*
X117102707Y-184637600D01*
X117102707Y-184637600D02*
X116931279Y-184694742D01*
X116931279Y-184694742D02*
X116816993Y-184694742D01*
X116816993Y-184694742D02*
X116645564Y-184637600D01*
X116645564Y-184637600D02*
X116531279Y-184523314D01*
X116531279Y-184523314D02*
X116474136Y-184409028D01*
X116474136Y-184409028D02*
X116416993Y-184180457D01*
X116416993Y-184180457D02*
X116416993Y-184009028D01*
X116416993Y-184009028D02*
X116474136Y-183780457D01*
X116474136Y-183780457D02*
X116531279Y-183666171D01*
X116531279Y-183666171D02*
X116645564Y-183551885D01*
X116645564Y-183551885D02*
X116816993Y-183494742D01*
X116816993Y-183494742D02*
X116931279Y-183494742D01*
X116931279Y-183494742D02*
X117102707Y-183551885D01*
X117102707Y-183551885D02*
X117159850Y-183609028D01*
X117616993Y-183609028D02*
X117674136Y-183551885D01*
X117674136Y-183551885D02*
X117788422Y-183494742D01*
X117788422Y-183494742D02*
X118074136Y-183494742D01*
X118074136Y-183494742D02*
X118188422Y-183551885D01*
X118188422Y-183551885D02*
X118245564Y-183609028D01*
X118245564Y-183609028D02*
X118302707Y-183723314D01*
X118302707Y-183723314D02*
X118302707Y-183837600D01*
X118302707Y-183837600D02*
X118245564Y-184009028D01*
X118245564Y-184009028D02*
X117559850Y-184694742D01*
X117559850Y-184694742D02*
X118302707Y-184694742D01*
X120416993Y-184580457D02*
X120359850Y-184637600D01*
X120359850Y-184637600D02*
X120188422Y-184694742D01*
X120188422Y-184694742D02*
X120074136Y-184694742D01*
X120074136Y-184694742D02*
X119902707Y-184637600D01*
X119902707Y-184637600D02*
X119788422Y-184523314D01*
X119788422Y-184523314D02*
X119731279Y-184409028D01*
X119731279Y-184409028D02*
X119674136Y-184180457D01*
X119674136Y-184180457D02*
X119674136Y-184009028D01*
X119674136Y-184009028D02*
X119731279Y-183780457D01*
X119731279Y-183780457D02*
X119788422Y-183666171D01*
X119788422Y-183666171D02*
X119902707Y-183551885D01*
X119902707Y-183551885D02*
X120074136Y-183494742D01*
X120074136Y-183494742D02*
X120188422Y-183494742D01*
X120188422Y-183494742D02*
X120359850Y-183551885D01*
X120359850Y-183551885D02*
X120416993Y-183609028D01*
X120874136Y-184637600D02*
X121045565Y-184694742D01*
X121045565Y-184694742D02*
X121331279Y-184694742D01*
X121331279Y-184694742D02*
X121445565Y-184637600D01*
X121445565Y-184637600D02*
X121502707Y-184580457D01*
X121502707Y-184580457D02*
X121559850Y-184466171D01*
X121559850Y-184466171D02*
X121559850Y-184351885D01*
X121559850Y-184351885D02*
X121502707Y-184237600D01*
X121502707Y-184237600D02*
X121445565Y-184180457D01*
X121445565Y-184180457D02*
X121331279Y-184123314D01*
X121331279Y-184123314D02*
X121102707Y-184066171D01*
X121102707Y-184066171D02*
X120988422Y-184009028D01*
X120988422Y-184009028D02*
X120931279Y-183951885D01*
X120931279Y-183951885D02*
X120874136Y-183837600D01*
X120874136Y-183837600D02*
X120874136Y-183723314D01*
X120874136Y-183723314D02*
X120931279Y-183609028D01*
X120931279Y-183609028D02*
X120988422Y-183551885D01*
X120988422Y-183551885D02*
X121102707Y-183494742D01*
X121102707Y-183494742D02*
X121388422Y-183494742D01*
X121388422Y-183494742D02*
X121559850Y-183551885D01*
X119565565Y-183161600D02*
X121668422Y-183161600D01*
X127417292Y-184694742D02*
X127417292Y-183494742D01*
X127417292Y-183494742D02*
X127703006Y-183494742D01*
X127703006Y-183494742D02*
X127874435Y-183551885D01*
X127874435Y-183551885D02*
X127988720Y-183666171D01*
X127988720Y-183666171D02*
X128045863Y-183780457D01*
X128045863Y-183780457D02*
X128103006Y-184009028D01*
X128103006Y-184009028D02*
X128103006Y-184180457D01*
X128103006Y-184180457D02*
X128045863Y-184409028D01*
X128045863Y-184409028D02*
X127988720Y-184523314D01*
X127988720Y-184523314D02*
X127874435Y-184637600D01*
X127874435Y-184637600D02*
X127703006Y-184694742D01*
X127703006Y-184694742D02*
X127417292Y-184694742D01*
X128560149Y-184351885D02*
X129131578Y-184351885D01*
X128445863Y-184694742D02*
X128845863Y-183494742D01*
X128845863Y-183494742D02*
X129245863Y-184694742D01*
X130331577Y-184580457D02*
X130274434Y-184637600D01*
X130274434Y-184637600D02*
X130103006Y-184694742D01*
X130103006Y-184694742D02*
X129988720Y-184694742D01*
X129988720Y-184694742D02*
X129817291Y-184637600D01*
X129817291Y-184637600D02*
X129703006Y-184523314D01*
X129703006Y-184523314D02*
X129645863Y-184409028D01*
X129645863Y-184409028D02*
X129588720Y-184180457D01*
X129588720Y-184180457D02*
X129588720Y-184009028D01*
X129588720Y-184009028D02*
X129645863Y-183780457D01*
X129645863Y-183780457D02*
X129703006Y-183666171D01*
X129703006Y-183666171D02*
X129817291Y-183551885D01*
X129817291Y-183551885D02*
X129988720Y-183494742D01*
X129988720Y-183494742D02*
X130103006Y-183494742D01*
X130103006Y-183494742D02*
X130274434Y-183551885D01*
X130274434Y-183551885D02*
X130331577Y-183609028D01*
X131474434Y-184694742D02*
X130788720Y-184694742D01*
X131131577Y-184694742D02*
X131131577Y-183494742D01*
X131131577Y-183494742D02*
X131017291Y-183666171D01*
X131017291Y-183666171D02*
X130903006Y-183780457D01*
X130903006Y-183780457D02*
X130788720Y-183837600D01*
X133588720Y-184580457D02*
X133531577Y-184637600D01*
X133531577Y-184637600D02*
X133360149Y-184694742D01*
X133360149Y-184694742D02*
X133245863Y-184694742D01*
X133245863Y-184694742D02*
X133074434Y-184637600D01*
X133074434Y-184637600D02*
X132960149Y-184523314D01*
X132960149Y-184523314D02*
X132903006Y-184409028D01*
X132903006Y-184409028D02*
X132845863Y-184180457D01*
X132845863Y-184180457D02*
X132845863Y-184009028D01*
X132845863Y-184009028D02*
X132903006Y-183780457D01*
X132903006Y-183780457D02*
X132960149Y-183666171D01*
X132960149Y-183666171D02*
X133074434Y-183551885D01*
X133074434Y-183551885D02*
X133245863Y-183494742D01*
X133245863Y-183494742D02*
X133360149Y-183494742D01*
X133360149Y-183494742D02*
X133531577Y-183551885D01*
X133531577Y-183551885D02*
X133588720Y-183609028D01*
X134045863Y-184637600D02*
X134217292Y-184694742D01*
X134217292Y-184694742D02*
X134503006Y-184694742D01*
X134503006Y-184694742D02*
X134617292Y-184637600D01*
X134617292Y-184637600D02*
X134674434Y-184580457D01*
X134674434Y-184580457D02*
X134731577Y-184466171D01*
X134731577Y-184466171D02*
X134731577Y-184351885D01*
X134731577Y-184351885D02*
X134674434Y-184237600D01*
X134674434Y-184237600D02*
X134617292Y-184180457D01*
X134617292Y-184180457D02*
X134503006Y-184123314D01*
X134503006Y-184123314D02*
X134274434Y-184066171D01*
X134274434Y-184066171D02*
X134160149Y-184009028D01*
X134160149Y-184009028D02*
X134103006Y-183951885D01*
X134103006Y-183951885D02*
X134045863Y-183837600D01*
X134045863Y-183837600D02*
X134045863Y-183723314D01*
X134045863Y-183723314D02*
X134103006Y-183609028D01*
X134103006Y-183609028D02*
X134160149Y-183551885D01*
X134160149Y-183551885D02*
X134274434Y-183494742D01*
X134274434Y-183494742D02*
X134560149Y-183494742D01*
X134560149Y-183494742D02*
X134731577Y-183551885D01*
X132737292Y-183161600D02*
X134840149Y-183161600D01*
X106287142Y-132557742D02*
X106287142Y-131357742D01*
X106287142Y-131357742D02*
X106687142Y-132214885D01*
X106687142Y-132214885D02*
X107087142Y-131357742D01*
X107087142Y-131357742D02*
X107087142Y-132557742D01*
X107887142Y-131357742D02*
X108115714Y-131357742D01*
X108115714Y-131357742D02*
X108229999Y-131414885D01*
X108229999Y-131414885D02*
X108344285Y-131529171D01*
X108344285Y-131529171D02*
X108401428Y-131757742D01*
X108401428Y-131757742D02*
X108401428Y-132157742D01*
X108401428Y-132157742D02*
X108344285Y-132386314D01*
X108344285Y-132386314D02*
X108229999Y-132500600D01*
X108229999Y-132500600D02*
X108115714Y-132557742D01*
X108115714Y-132557742D02*
X107887142Y-132557742D01*
X107887142Y-132557742D02*
X107772857Y-132500600D01*
X107772857Y-132500600D02*
X107658571Y-132386314D01*
X107658571Y-132386314D02*
X107601428Y-132157742D01*
X107601428Y-132157742D02*
X107601428Y-131757742D01*
X107601428Y-131757742D02*
X107658571Y-131529171D01*
X107658571Y-131529171D02*
X107772857Y-131414885D01*
X107772857Y-131414885D02*
X107887142Y-131357742D01*
X108858571Y-132500600D02*
X109030000Y-132557742D01*
X109030000Y-132557742D02*
X109315714Y-132557742D01*
X109315714Y-132557742D02*
X109430000Y-132500600D01*
X109430000Y-132500600D02*
X109487142Y-132443457D01*
X109487142Y-132443457D02*
X109544285Y-132329171D01*
X109544285Y-132329171D02*
X109544285Y-132214885D01*
X109544285Y-132214885D02*
X109487142Y-132100600D01*
X109487142Y-132100600D02*
X109430000Y-132043457D01*
X109430000Y-132043457D02*
X109315714Y-131986314D01*
X109315714Y-131986314D02*
X109087142Y-131929171D01*
X109087142Y-131929171D02*
X108972857Y-131872028D01*
X108972857Y-131872028D02*
X108915714Y-131814885D01*
X108915714Y-131814885D02*
X108858571Y-131700600D01*
X108858571Y-131700600D02*
X108858571Y-131586314D01*
X108858571Y-131586314D02*
X108915714Y-131472028D01*
X108915714Y-131472028D02*
X108972857Y-131414885D01*
X108972857Y-131414885D02*
X109087142Y-131357742D01*
X109087142Y-131357742D02*
X109372857Y-131357742D01*
X109372857Y-131357742D02*
X109544285Y-131414885D01*
X110058571Y-132557742D02*
X110058571Y-131357742D01*
X111487143Y-132500600D02*
X111658572Y-132557742D01*
X111658572Y-132557742D02*
X111944286Y-132557742D01*
X111944286Y-132557742D02*
X112058572Y-132500600D01*
X112058572Y-132500600D02*
X112115714Y-132443457D01*
X112115714Y-132443457D02*
X112172857Y-132329171D01*
X112172857Y-132329171D02*
X112172857Y-132214885D01*
X112172857Y-132214885D02*
X112115714Y-132100600D01*
X112115714Y-132100600D02*
X112058572Y-132043457D01*
X112058572Y-132043457D02*
X111944286Y-131986314D01*
X111944286Y-131986314D02*
X111715714Y-131929171D01*
X111715714Y-131929171D02*
X111601429Y-131872028D01*
X111601429Y-131872028D02*
X111544286Y-131814885D01*
X111544286Y-131814885D02*
X111487143Y-131700600D01*
X111487143Y-131700600D02*
X111487143Y-131586314D01*
X111487143Y-131586314D02*
X111544286Y-131472028D01*
X111544286Y-131472028D02*
X111601429Y-131414885D01*
X111601429Y-131414885D02*
X111715714Y-131357742D01*
X111715714Y-131357742D02*
X112001429Y-131357742D01*
X112001429Y-131357742D02*
X112172857Y-131414885D01*
X113372857Y-132443457D02*
X113315714Y-132500600D01*
X113315714Y-132500600D02*
X113144286Y-132557742D01*
X113144286Y-132557742D02*
X113030000Y-132557742D01*
X113030000Y-132557742D02*
X112858571Y-132500600D01*
X112858571Y-132500600D02*
X112744286Y-132386314D01*
X112744286Y-132386314D02*
X112687143Y-132272028D01*
X112687143Y-132272028D02*
X112630000Y-132043457D01*
X112630000Y-132043457D02*
X112630000Y-131872028D01*
X112630000Y-131872028D02*
X112687143Y-131643457D01*
X112687143Y-131643457D02*
X112744286Y-131529171D01*
X112744286Y-131529171D02*
X112858571Y-131414885D01*
X112858571Y-131414885D02*
X113030000Y-131357742D01*
X113030000Y-131357742D02*
X113144286Y-131357742D01*
X113144286Y-131357742D02*
X113315714Y-131414885D01*
X113315714Y-131414885D02*
X113372857Y-131472028D01*
X113887143Y-132557742D02*
X113887143Y-131357742D01*
X114572857Y-132557742D02*
X114058571Y-131872028D01*
X114572857Y-131357742D02*
X113887143Y-132043457D01*
X116001429Y-132557742D02*
X116001429Y-131357742D01*
X116001429Y-131357742D02*
X116401429Y-132214885D01*
X116401429Y-132214885D02*
X116801429Y-131357742D01*
X116801429Y-131357742D02*
X116801429Y-132557742D01*
X117372858Y-132557742D02*
X117372858Y-131357742D01*
X117887144Y-132500600D02*
X118058573Y-132557742D01*
X118058573Y-132557742D02*
X118344287Y-132557742D01*
X118344287Y-132557742D02*
X118458573Y-132500600D01*
X118458573Y-132500600D02*
X118515715Y-132443457D01*
X118515715Y-132443457D02*
X118572858Y-132329171D01*
X118572858Y-132329171D02*
X118572858Y-132214885D01*
X118572858Y-132214885D02*
X118515715Y-132100600D01*
X118515715Y-132100600D02*
X118458573Y-132043457D01*
X118458573Y-132043457D02*
X118344287Y-131986314D01*
X118344287Y-131986314D02*
X118115715Y-131929171D01*
X118115715Y-131929171D02*
X118001430Y-131872028D01*
X118001430Y-131872028D02*
X117944287Y-131814885D01*
X117944287Y-131814885D02*
X117887144Y-131700600D01*
X117887144Y-131700600D02*
X117887144Y-131586314D01*
X117887144Y-131586314D02*
X117944287Y-131472028D01*
X117944287Y-131472028D02*
X118001430Y-131414885D01*
X118001430Y-131414885D02*
X118115715Y-131357742D01*
X118115715Y-131357742D02*
X118401430Y-131357742D01*
X118401430Y-131357742D02*
X118572858Y-131414885D01*
X119315715Y-131357742D02*
X119544287Y-131357742D01*
X119544287Y-131357742D02*
X119658572Y-131414885D01*
X119658572Y-131414885D02*
X119772858Y-131529171D01*
X119772858Y-131529171D02*
X119830001Y-131757742D01*
X119830001Y-131757742D02*
X119830001Y-132157742D01*
X119830001Y-132157742D02*
X119772858Y-132386314D01*
X119772858Y-132386314D02*
X119658572Y-132500600D01*
X119658572Y-132500600D02*
X119544287Y-132557742D01*
X119544287Y-132557742D02*
X119315715Y-132557742D01*
X119315715Y-132557742D02*
X119201430Y-132500600D01*
X119201430Y-132500600D02*
X119087144Y-132386314D01*
X119087144Y-132386314D02*
X119030001Y-132157742D01*
X119030001Y-132157742D02*
X119030001Y-131757742D01*
X119030001Y-131757742D02*
X119087144Y-131529171D01*
X119087144Y-131529171D02*
X119201430Y-131414885D01*
X119201430Y-131414885D02*
X119315715Y-131357742D01*
X86645714Y-123737742D02*
X86074286Y-123737742D01*
X86074286Y-123737742D02*
X86017143Y-124309171D01*
X86017143Y-124309171D02*
X86074286Y-124252028D01*
X86074286Y-124252028D02*
X86188572Y-124194885D01*
X86188572Y-124194885D02*
X86474286Y-124194885D01*
X86474286Y-124194885D02*
X86588572Y-124252028D01*
X86588572Y-124252028D02*
X86645714Y-124309171D01*
X86645714Y-124309171D02*
X86702857Y-124423457D01*
X86702857Y-124423457D02*
X86702857Y-124709171D01*
X86702857Y-124709171D02*
X86645714Y-124823457D01*
X86645714Y-124823457D02*
X86588572Y-124880600D01*
X86588572Y-124880600D02*
X86474286Y-124937742D01*
X86474286Y-124937742D02*
X86188572Y-124937742D01*
X86188572Y-124937742D02*
X86074286Y-124880600D01*
X86074286Y-124880600D02*
X86017143Y-124823457D01*
X77269999Y-106589742D02*
X76698571Y-106589742D01*
X76698571Y-106589742D02*
X76698571Y-105389742D01*
X78298571Y-106589742D02*
X77612857Y-106589742D01*
X77955714Y-106589742D02*
X77955714Y-105389742D01*
X77955714Y-105389742D02*
X77841428Y-105561171D01*
X77841428Y-105561171D02*
X77727143Y-105675457D01*
X77727143Y-105675457D02*
X77612857Y-105732600D01*
X124060000Y-131424742D02*
X124060000Y-132281885D01*
X124060000Y-132281885D02*
X124002857Y-132453314D01*
X124002857Y-132453314D02*
X123888571Y-132567600D01*
X123888571Y-132567600D02*
X123717143Y-132624742D01*
X123717143Y-132624742D02*
X123602857Y-132624742D01*
X124517143Y-131424742D02*
X125317143Y-131424742D01*
X125317143Y-131424742D02*
X124802857Y-132624742D01*
X121888571Y-127544742D02*
X121488571Y-126973314D01*
X121202857Y-127544742D02*
X121202857Y-126344742D01*
X121202857Y-126344742D02*
X121660000Y-126344742D01*
X121660000Y-126344742D02*
X121774285Y-126401885D01*
X121774285Y-126401885D02*
X121831428Y-126459028D01*
X121831428Y-126459028D02*
X121888571Y-126573314D01*
X121888571Y-126573314D02*
X121888571Y-126744742D01*
X121888571Y-126744742D02*
X121831428Y-126859028D01*
X121831428Y-126859028D02*
X121774285Y-126916171D01*
X121774285Y-126916171D02*
X121660000Y-126973314D01*
X121660000Y-126973314D02*
X121202857Y-126973314D01*
X122631428Y-126344742D02*
X122860000Y-126344742D01*
X122860000Y-126344742D02*
X122974285Y-126401885D01*
X122974285Y-126401885D02*
X123088571Y-126516171D01*
X123088571Y-126516171D02*
X123145714Y-126744742D01*
X123145714Y-126744742D02*
X123145714Y-127144742D01*
X123145714Y-127144742D02*
X123088571Y-127373314D01*
X123088571Y-127373314D02*
X122974285Y-127487600D01*
X122974285Y-127487600D02*
X122860000Y-127544742D01*
X122860000Y-127544742D02*
X122631428Y-127544742D01*
X122631428Y-127544742D02*
X122517143Y-127487600D01*
X122517143Y-127487600D02*
X122402857Y-127373314D01*
X122402857Y-127373314D02*
X122345714Y-127144742D01*
X122345714Y-127144742D02*
X122345714Y-126744742D01*
X122345714Y-126744742D02*
X122402857Y-126516171D01*
X122402857Y-126516171D02*
X122517143Y-126401885D01*
X122517143Y-126401885D02*
X122631428Y-126344742D01*
X123660000Y-127544742D02*
X123660000Y-126344742D01*
X123660000Y-126344742D02*
X124060000Y-127201885D01*
X124060000Y-127201885D02*
X124460000Y-126344742D01*
X124460000Y-126344742D02*
X124460000Y-127544742D01*
X126631429Y-127430457D02*
X126574286Y-127487600D01*
X126574286Y-127487600D02*
X126402858Y-127544742D01*
X126402858Y-127544742D02*
X126288572Y-127544742D01*
X126288572Y-127544742D02*
X126117143Y-127487600D01*
X126117143Y-127487600D02*
X126002858Y-127373314D01*
X126002858Y-127373314D02*
X125945715Y-127259028D01*
X125945715Y-127259028D02*
X125888572Y-127030457D01*
X125888572Y-127030457D02*
X125888572Y-126859028D01*
X125888572Y-126859028D02*
X125945715Y-126630457D01*
X125945715Y-126630457D02*
X126002858Y-126516171D01*
X126002858Y-126516171D02*
X126117143Y-126401885D01*
X126117143Y-126401885D02*
X126288572Y-126344742D01*
X126288572Y-126344742D02*
X126402858Y-126344742D01*
X126402858Y-126344742D02*
X126574286Y-126401885D01*
X126574286Y-126401885D02*
X126631429Y-126459028D01*
X127088572Y-127487600D02*
X127260001Y-127544742D01*
X127260001Y-127544742D02*
X127545715Y-127544742D01*
X127545715Y-127544742D02*
X127660001Y-127487600D01*
X127660001Y-127487600D02*
X127717143Y-127430457D01*
X127717143Y-127430457D02*
X127774286Y-127316171D01*
X127774286Y-127316171D02*
X127774286Y-127201885D01*
X127774286Y-127201885D02*
X127717143Y-127087600D01*
X127717143Y-127087600D02*
X127660001Y-127030457D01*
X127660001Y-127030457D02*
X127545715Y-126973314D01*
X127545715Y-126973314D02*
X127317143Y-126916171D01*
X127317143Y-126916171D02*
X127202858Y-126859028D01*
X127202858Y-126859028D02*
X127145715Y-126801885D01*
X127145715Y-126801885D02*
X127088572Y-126687600D01*
X127088572Y-126687600D02*
X127088572Y-126573314D01*
X127088572Y-126573314D02*
X127145715Y-126459028D01*
X127145715Y-126459028D02*
X127202858Y-126401885D01*
X127202858Y-126401885D02*
X127317143Y-126344742D01*
X127317143Y-126344742D02*
X127602858Y-126344742D01*
X127602858Y-126344742D02*
X127774286Y-126401885D01*
X125780001Y-126011600D02*
X127882858Y-126011600D01*
X102670000Y-122350457D02*
X102612857Y-122407600D01*
X102612857Y-122407600D02*
X102441429Y-122464742D01*
X102441429Y-122464742D02*
X102327143Y-122464742D01*
X102327143Y-122464742D02*
X102155714Y-122407600D01*
X102155714Y-122407600D02*
X102041429Y-122293314D01*
X102041429Y-122293314D02*
X101984286Y-122179028D01*
X101984286Y-122179028D02*
X101927143Y-121950457D01*
X101927143Y-121950457D02*
X101927143Y-121779028D01*
X101927143Y-121779028D02*
X101984286Y-121550457D01*
X101984286Y-121550457D02*
X102041429Y-121436171D01*
X102041429Y-121436171D02*
X102155714Y-121321885D01*
X102155714Y-121321885D02*
X102327143Y-121264742D01*
X102327143Y-121264742D02*
X102441429Y-121264742D01*
X102441429Y-121264742D02*
X102612857Y-121321885D01*
X102612857Y-121321885D02*
X102670000Y-121379028D01*
X103241429Y-122464742D02*
X103470000Y-122464742D01*
X103470000Y-122464742D02*
X103584286Y-122407600D01*
X103584286Y-122407600D02*
X103641429Y-122350457D01*
X103641429Y-122350457D02*
X103755714Y-122179028D01*
X103755714Y-122179028D02*
X103812857Y-121950457D01*
X103812857Y-121950457D02*
X103812857Y-121493314D01*
X103812857Y-121493314D02*
X103755714Y-121379028D01*
X103755714Y-121379028D02*
X103698572Y-121321885D01*
X103698572Y-121321885D02*
X103584286Y-121264742D01*
X103584286Y-121264742D02*
X103355714Y-121264742D01*
X103355714Y-121264742D02*
X103241429Y-121321885D01*
X103241429Y-121321885D02*
X103184286Y-121379028D01*
X103184286Y-121379028D02*
X103127143Y-121493314D01*
X103127143Y-121493314D02*
X103127143Y-121779028D01*
X103127143Y-121779028D02*
X103184286Y-121893314D01*
X103184286Y-121893314D02*
X103241429Y-121950457D01*
X103241429Y-121950457D02*
X103355714Y-122007600D01*
X103355714Y-122007600D02*
X103584286Y-122007600D01*
X103584286Y-122007600D02*
X103698572Y-121950457D01*
X103698572Y-121950457D02*
X103755714Y-121893314D01*
X103755714Y-121893314D02*
X103812857Y-121779028D01*
X58855000Y-112190457D02*
X58797857Y-112247600D01*
X58797857Y-112247600D02*
X58626429Y-112304742D01*
X58626429Y-112304742D02*
X58512143Y-112304742D01*
X58512143Y-112304742D02*
X58340714Y-112247600D01*
X58340714Y-112247600D02*
X58226429Y-112133314D01*
X58226429Y-112133314D02*
X58169286Y-112019028D01*
X58169286Y-112019028D02*
X58112143Y-111790457D01*
X58112143Y-111790457D02*
X58112143Y-111619028D01*
X58112143Y-111619028D02*
X58169286Y-111390457D01*
X58169286Y-111390457D02*
X58226429Y-111276171D01*
X58226429Y-111276171D02*
X58340714Y-111161885D01*
X58340714Y-111161885D02*
X58512143Y-111104742D01*
X58512143Y-111104742D02*
X58626429Y-111104742D01*
X58626429Y-111104742D02*
X58797857Y-111161885D01*
X58797857Y-111161885D02*
X58855000Y-111219028D01*
X59255000Y-111104742D02*
X60055000Y-111104742D01*
X60055000Y-111104742D02*
X59540714Y-112304742D01*
X91675000Y-126344742D02*
X91675000Y-127201885D01*
X91675000Y-127201885D02*
X91617857Y-127373314D01*
X91617857Y-127373314D02*
X91503571Y-127487600D01*
X91503571Y-127487600D02*
X91332143Y-127544742D01*
X91332143Y-127544742D02*
X91217857Y-127544742D01*
X92303572Y-127544742D02*
X92532143Y-127544742D01*
X92532143Y-127544742D02*
X92646429Y-127487600D01*
X92646429Y-127487600D02*
X92703572Y-127430457D01*
X92703572Y-127430457D02*
X92817857Y-127259028D01*
X92817857Y-127259028D02*
X92875000Y-127030457D01*
X92875000Y-127030457D02*
X92875000Y-126573314D01*
X92875000Y-126573314D02*
X92817857Y-126459028D01*
X92817857Y-126459028D02*
X92760715Y-126401885D01*
X92760715Y-126401885D02*
X92646429Y-126344742D01*
X92646429Y-126344742D02*
X92417857Y-126344742D01*
X92417857Y-126344742D02*
X92303572Y-126401885D01*
X92303572Y-126401885D02*
X92246429Y-126459028D01*
X92246429Y-126459028D02*
X92189286Y-126573314D01*
X92189286Y-126573314D02*
X92189286Y-126859028D01*
X92189286Y-126859028D02*
X92246429Y-126973314D01*
X92246429Y-126973314D02*
X92303572Y-127030457D01*
X92303572Y-127030457D02*
X92417857Y-127087600D01*
X92417857Y-127087600D02*
X92646429Y-127087600D01*
X92646429Y-127087600D02*
X92760715Y-127030457D01*
X92760715Y-127030457D02*
X92817857Y-126973314D01*
X92817857Y-126973314D02*
X92875000Y-126859028D01*
X134151571Y-202360457D02*
X134094428Y-202417600D01*
X134094428Y-202417600D02*
X133923000Y-202474742D01*
X133923000Y-202474742D02*
X133808714Y-202474742D01*
X133808714Y-202474742D02*
X133637285Y-202417600D01*
X133637285Y-202417600D02*
X133523000Y-202303314D01*
X133523000Y-202303314D02*
X133465857Y-202189028D01*
X133465857Y-202189028D02*
X133408714Y-201960457D01*
X133408714Y-201960457D02*
X133408714Y-201789028D01*
X133408714Y-201789028D02*
X133465857Y-201560457D01*
X133465857Y-201560457D02*
X133523000Y-201446171D01*
X133523000Y-201446171D02*
X133637285Y-201331885D01*
X133637285Y-201331885D02*
X133808714Y-201274742D01*
X133808714Y-201274742D02*
X133923000Y-201274742D01*
X133923000Y-201274742D02*
X134094428Y-201331885D01*
X134094428Y-201331885D02*
X134151571Y-201389028D01*
X135294428Y-202474742D02*
X134608714Y-202474742D01*
X134951571Y-202474742D02*
X134951571Y-201274742D01*
X134951571Y-201274742D02*
X134837285Y-201446171D01*
X134837285Y-201446171D02*
X134723000Y-201560457D01*
X134723000Y-201560457D02*
X134608714Y-201617600D01*
X135865857Y-202474742D02*
X136094428Y-202474742D01*
X136094428Y-202474742D02*
X136208714Y-202417600D01*
X136208714Y-202417600D02*
X136265857Y-202360457D01*
X136265857Y-202360457D02*
X136380142Y-202189028D01*
X136380142Y-202189028D02*
X136437285Y-201960457D01*
X136437285Y-201960457D02*
X136437285Y-201503314D01*
X136437285Y-201503314D02*
X136380142Y-201389028D01*
X136380142Y-201389028D02*
X136323000Y-201331885D01*
X136323000Y-201331885D02*
X136208714Y-201274742D01*
X136208714Y-201274742D02*
X135980142Y-201274742D01*
X135980142Y-201274742D02*
X135865857Y-201331885D01*
X135865857Y-201331885D02*
X135808714Y-201389028D01*
X135808714Y-201389028D02*
X135751571Y-201503314D01*
X135751571Y-201503314D02*
X135751571Y-201789028D01*
X135751571Y-201789028D02*
X135808714Y-201903314D01*
X135808714Y-201903314D02*
X135865857Y-201960457D01*
X135865857Y-201960457D02*
X135980142Y-202017600D01*
X135980142Y-202017600D02*
X136208714Y-202017600D01*
X136208714Y-202017600D02*
X136323000Y-201960457D01*
X136323000Y-201960457D02*
X136380142Y-201903314D01*
X136380142Y-201903314D02*
X136437285Y-201789028D01*
X89398571Y-187234742D02*
X88998571Y-186663314D01*
X88712857Y-187234742D02*
X88712857Y-186034742D01*
X88712857Y-186034742D02*
X89170000Y-186034742D01*
X89170000Y-186034742D02*
X89284285Y-186091885D01*
X89284285Y-186091885D02*
X89341428Y-186149028D01*
X89341428Y-186149028D02*
X89398571Y-186263314D01*
X89398571Y-186263314D02*
X89398571Y-186434742D01*
X89398571Y-186434742D02*
X89341428Y-186549028D01*
X89341428Y-186549028D02*
X89284285Y-186606171D01*
X89284285Y-186606171D02*
X89170000Y-186663314D01*
X89170000Y-186663314D02*
X88712857Y-186663314D01*
X90541428Y-187234742D02*
X89855714Y-187234742D01*
X90198571Y-187234742D02*
X90198571Y-186034742D01*
X90198571Y-186034742D02*
X90084285Y-186206171D01*
X90084285Y-186206171D02*
X89970000Y-186320457D01*
X89970000Y-186320457D02*
X89855714Y-186377600D01*
X91284285Y-186034742D02*
X91398571Y-186034742D01*
X91398571Y-186034742D02*
X91512857Y-186091885D01*
X91512857Y-186091885D02*
X91570000Y-186149028D01*
X91570000Y-186149028D02*
X91627142Y-186263314D01*
X91627142Y-186263314D02*
X91684285Y-186491885D01*
X91684285Y-186491885D02*
X91684285Y-186777600D01*
X91684285Y-186777600D02*
X91627142Y-187006171D01*
X91627142Y-187006171D02*
X91570000Y-187120457D01*
X91570000Y-187120457D02*
X91512857Y-187177600D01*
X91512857Y-187177600D02*
X91398571Y-187234742D01*
X91398571Y-187234742D02*
X91284285Y-187234742D01*
X91284285Y-187234742D02*
X91170000Y-187177600D01*
X91170000Y-187177600D02*
X91112857Y-187120457D01*
X91112857Y-187120457D02*
X91055714Y-187006171D01*
X91055714Y-187006171D02*
X90998571Y-186777600D01*
X90998571Y-186777600D02*
X90998571Y-186491885D01*
X90998571Y-186491885D02*
X91055714Y-186263314D01*
X91055714Y-186263314D02*
X91112857Y-186149028D01*
X91112857Y-186149028D02*
X91170000Y-186091885D01*
X91170000Y-186091885D02*
X91284285Y-186034742D01*
X134151571Y-187429457D02*
X134094428Y-187486600D01*
X134094428Y-187486600D02*
X133923000Y-187543742D01*
X133923000Y-187543742D02*
X133808714Y-187543742D01*
X133808714Y-187543742D02*
X133637285Y-187486600D01*
X133637285Y-187486600D02*
X133523000Y-187372314D01*
X133523000Y-187372314D02*
X133465857Y-187258028D01*
X133465857Y-187258028D02*
X133408714Y-187029457D01*
X133408714Y-187029457D02*
X133408714Y-186858028D01*
X133408714Y-186858028D02*
X133465857Y-186629457D01*
X133465857Y-186629457D02*
X133523000Y-186515171D01*
X133523000Y-186515171D02*
X133637285Y-186400885D01*
X133637285Y-186400885D02*
X133808714Y-186343742D01*
X133808714Y-186343742D02*
X133923000Y-186343742D01*
X133923000Y-186343742D02*
X134094428Y-186400885D01*
X134094428Y-186400885D02*
X134151571Y-186458028D01*
X135294428Y-187543742D02*
X134608714Y-187543742D01*
X134951571Y-187543742D02*
X134951571Y-186343742D01*
X134951571Y-186343742D02*
X134837285Y-186515171D01*
X134837285Y-186515171D02*
X134723000Y-186629457D01*
X134723000Y-186629457D02*
X134608714Y-186686600D01*
X135980142Y-186858028D02*
X135865857Y-186800885D01*
X135865857Y-186800885D02*
X135808714Y-186743742D01*
X135808714Y-186743742D02*
X135751571Y-186629457D01*
X135751571Y-186629457D02*
X135751571Y-186572314D01*
X135751571Y-186572314D02*
X135808714Y-186458028D01*
X135808714Y-186458028D02*
X135865857Y-186400885D01*
X135865857Y-186400885D02*
X135980142Y-186343742D01*
X135980142Y-186343742D02*
X136208714Y-186343742D01*
X136208714Y-186343742D02*
X136323000Y-186400885D01*
X136323000Y-186400885D02*
X136380142Y-186458028D01*
X136380142Y-186458028D02*
X136437285Y-186572314D01*
X136437285Y-186572314D02*
X136437285Y-186629457D01*
X136437285Y-186629457D02*
X136380142Y-186743742D01*
X136380142Y-186743742D02*
X136323000Y-186800885D01*
X136323000Y-186800885D02*
X136208714Y-186858028D01*
X136208714Y-186858028D02*
X135980142Y-186858028D01*
X135980142Y-186858028D02*
X135865857Y-186915171D01*
X135865857Y-186915171D02*
X135808714Y-186972314D01*
X135808714Y-186972314D02*
X135751571Y-187086600D01*
X135751571Y-187086600D02*
X135751571Y-187315171D01*
X135751571Y-187315171D02*
X135808714Y-187429457D01*
X135808714Y-187429457D02*
X135865857Y-187486600D01*
X135865857Y-187486600D02*
X135980142Y-187543742D01*
X135980142Y-187543742D02*
X136208714Y-187543742D01*
X136208714Y-187543742D02*
X136323000Y-187486600D01*
X136323000Y-187486600D02*
X136380142Y-187429457D01*
X136380142Y-187429457D02*
X136437285Y-187315171D01*
X136437285Y-187315171D02*
X136437285Y-187086600D01*
X136437285Y-187086600D02*
X136380142Y-186972314D01*
X136380142Y-186972314D02*
X136323000Y-186915171D01*
X136323000Y-186915171D02*
X136208714Y-186858028D01*
X112115714Y-108564742D02*
X112115714Y-109536171D01*
X112115714Y-109536171D02*
X112172857Y-109650457D01*
X112172857Y-109650457D02*
X112230000Y-109707600D01*
X112230000Y-109707600D02*
X112344285Y-109764742D01*
X112344285Y-109764742D02*
X112572857Y-109764742D01*
X112572857Y-109764742D02*
X112687142Y-109707600D01*
X112687142Y-109707600D02*
X112744285Y-109650457D01*
X112744285Y-109650457D02*
X112801428Y-109536171D01*
X112801428Y-109536171D02*
X112801428Y-108564742D01*
X113887143Y-108564742D02*
X113658571Y-108564742D01*
X113658571Y-108564742D02*
X113544285Y-108621885D01*
X113544285Y-108621885D02*
X113487143Y-108679028D01*
X113487143Y-108679028D02*
X113372857Y-108850457D01*
X113372857Y-108850457D02*
X113315714Y-109079028D01*
X113315714Y-109079028D02*
X113315714Y-109536171D01*
X113315714Y-109536171D02*
X113372857Y-109650457D01*
X113372857Y-109650457D02*
X113430000Y-109707600D01*
X113430000Y-109707600D02*
X113544285Y-109764742D01*
X113544285Y-109764742D02*
X113772857Y-109764742D01*
X113772857Y-109764742D02*
X113887143Y-109707600D01*
X113887143Y-109707600D02*
X113944285Y-109650457D01*
X113944285Y-109650457D02*
X114001428Y-109536171D01*
X114001428Y-109536171D02*
X114001428Y-109250457D01*
X114001428Y-109250457D02*
X113944285Y-109136171D01*
X113944285Y-109136171D02*
X113887143Y-109079028D01*
X113887143Y-109079028D02*
X113772857Y-109021885D01*
X113772857Y-109021885D02*
X113544285Y-109021885D01*
X113544285Y-109021885D02*
X113430000Y-109079028D01*
X113430000Y-109079028D02*
X113372857Y-109136171D01*
X113372857Y-109136171D02*
X113315714Y-109250457D01*
X94478571Y-196010457D02*
X94421428Y-196067600D01*
X94421428Y-196067600D02*
X94250000Y-196124742D01*
X94250000Y-196124742D02*
X94135714Y-196124742D01*
X94135714Y-196124742D02*
X93964285Y-196067600D01*
X93964285Y-196067600D02*
X93850000Y-195953314D01*
X93850000Y-195953314D02*
X93792857Y-195839028D01*
X93792857Y-195839028D02*
X93735714Y-195610457D01*
X93735714Y-195610457D02*
X93735714Y-195439028D01*
X93735714Y-195439028D02*
X93792857Y-195210457D01*
X93792857Y-195210457D02*
X93850000Y-195096171D01*
X93850000Y-195096171D02*
X93964285Y-194981885D01*
X93964285Y-194981885D02*
X94135714Y-194924742D01*
X94135714Y-194924742D02*
X94250000Y-194924742D01*
X94250000Y-194924742D02*
X94421428Y-194981885D01*
X94421428Y-194981885D02*
X94478571Y-195039028D01*
X95621428Y-196124742D02*
X94935714Y-196124742D01*
X95278571Y-196124742D02*
X95278571Y-194924742D01*
X95278571Y-194924742D02*
X95164285Y-195096171D01*
X95164285Y-195096171D02*
X95050000Y-195210457D01*
X95050000Y-195210457D02*
X94935714Y-195267600D01*
X96650000Y-194924742D02*
X96421428Y-194924742D01*
X96421428Y-194924742D02*
X96307142Y-194981885D01*
X96307142Y-194981885D02*
X96250000Y-195039028D01*
X96250000Y-195039028D02*
X96135714Y-195210457D01*
X96135714Y-195210457D02*
X96078571Y-195439028D01*
X96078571Y-195439028D02*
X96078571Y-195896171D01*
X96078571Y-195896171D02*
X96135714Y-196010457D01*
X96135714Y-196010457D02*
X96192857Y-196067600D01*
X96192857Y-196067600D02*
X96307142Y-196124742D01*
X96307142Y-196124742D02*
X96535714Y-196124742D01*
X96535714Y-196124742D02*
X96650000Y-196067600D01*
X96650000Y-196067600D02*
X96707142Y-196010457D01*
X96707142Y-196010457D02*
X96764285Y-195896171D01*
X96764285Y-195896171D02*
X96764285Y-195610457D01*
X96764285Y-195610457D02*
X96707142Y-195496171D01*
X96707142Y-195496171D02*
X96650000Y-195439028D01*
X96650000Y-195439028D02*
X96535714Y-195381885D01*
X96535714Y-195381885D02*
X96307142Y-195381885D01*
X96307142Y-195381885D02*
X96192857Y-195439028D01*
X96192857Y-195439028D02*
X96135714Y-195496171D01*
X96135714Y-195496171D02*
X96078571Y-195610457D01*
X62665000Y-118540457D02*
X62607857Y-118597600D01*
X62607857Y-118597600D02*
X62436429Y-118654742D01*
X62436429Y-118654742D02*
X62322143Y-118654742D01*
X62322143Y-118654742D02*
X62150714Y-118597600D01*
X62150714Y-118597600D02*
X62036429Y-118483314D01*
X62036429Y-118483314D02*
X61979286Y-118369028D01*
X61979286Y-118369028D02*
X61922143Y-118140457D01*
X61922143Y-118140457D02*
X61922143Y-117969028D01*
X61922143Y-117969028D02*
X61979286Y-117740457D01*
X61979286Y-117740457D02*
X62036429Y-117626171D01*
X62036429Y-117626171D02*
X62150714Y-117511885D01*
X62150714Y-117511885D02*
X62322143Y-117454742D01*
X62322143Y-117454742D02*
X62436429Y-117454742D01*
X62436429Y-117454742D02*
X62607857Y-117511885D01*
X62607857Y-117511885D02*
X62665000Y-117569028D01*
X63693572Y-117854742D02*
X63693572Y-118654742D01*
X63407857Y-117397600D02*
X63122143Y-118254742D01*
X63122143Y-118254742D02*
X63865000Y-118254742D01*
X55480000Y-179684742D02*
X55480000Y-180541885D01*
X55480000Y-180541885D02*
X55422857Y-180713314D01*
X55422857Y-180713314D02*
X55308571Y-180827600D01*
X55308571Y-180827600D02*
X55137143Y-180884742D01*
X55137143Y-180884742D02*
X55022857Y-180884742D01*
X55937143Y-179684742D02*
X56680000Y-179684742D01*
X56680000Y-179684742D02*
X56280000Y-180141885D01*
X56280000Y-180141885D02*
X56451429Y-180141885D01*
X56451429Y-180141885D02*
X56565715Y-180199028D01*
X56565715Y-180199028D02*
X56622857Y-180256171D01*
X56622857Y-180256171D02*
X56680000Y-180370457D01*
X56680000Y-180370457D02*
X56680000Y-180656171D01*
X56680000Y-180656171D02*
X56622857Y-180770457D01*
X56622857Y-180770457D02*
X56565715Y-180827600D01*
X56565715Y-180827600D02*
X56451429Y-180884742D01*
X56451429Y-180884742D02*
X56108572Y-180884742D01*
X56108572Y-180884742D02*
X55994286Y-180827600D01*
X55994286Y-180827600D02*
X55937143Y-180770457D01*
X63022500Y-104049742D02*
X62622500Y-103478314D01*
X62336786Y-104049742D02*
X62336786Y-102849742D01*
X62336786Y-102849742D02*
X62793929Y-102849742D01*
X62793929Y-102849742D02*
X62908214Y-102906885D01*
X62908214Y-102906885D02*
X62965357Y-102964028D01*
X62965357Y-102964028D02*
X63022500Y-103078314D01*
X63022500Y-103078314D02*
X63022500Y-103249742D01*
X63022500Y-103249742D02*
X62965357Y-103364028D01*
X62965357Y-103364028D02*
X62908214Y-103421171D01*
X62908214Y-103421171D02*
X62793929Y-103478314D01*
X62793929Y-103478314D02*
X62336786Y-103478314D01*
X64165357Y-104049742D02*
X63479643Y-104049742D01*
X63822500Y-104049742D02*
X63822500Y-102849742D01*
X63822500Y-102849742D02*
X63708214Y-103021171D01*
X63708214Y-103021171D02*
X63593929Y-103135457D01*
X63593929Y-103135457D02*
X63479643Y-103192600D01*
X58020000Y-125074742D02*
X58020000Y-125931885D01*
X58020000Y-125931885D02*
X57962857Y-126103314D01*
X57962857Y-126103314D02*
X57848571Y-126217600D01*
X57848571Y-126217600D02*
X57677143Y-126274742D01*
X57677143Y-126274742D02*
X57562857Y-126274742D01*
X59220000Y-126274742D02*
X58534286Y-126274742D01*
X58877143Y-126274742D02*
X58877143Y-125074742D01*
X58877143Y-125074742D02*
X58762857Y-125246171D01*
X58762857Y-125246171D02*
X58648572Y-125360457D01*
X58648572Y-125360457D02*
X58534286Y-125417600D01*
X79010000Y-159594742D02*
X79010000Y-160451885D01*
X79010000Y-160451885D02*
X78952857Y-160623314D01*
X78952857Y-160623314D02*
X78838571Y-160737600D01*
X78838571Y-160737600D02*
X78667143Y-160794742D01*
X78667143Y-160794742D02*
X78552857Y-160794742D01*
X79581429Y-160794742D02*
X79581429Y-159594742D01*
X79581429Y-159594742D02*
X80038572Y-159594742D01*
X80038572Y-159594742D02*
X80152857Y-159651885D01*
X80152857Y-159651885D02*
X80210000Y-159709028D01*
X80210000Y-159709028D02*
X80267143Y-159823314D01*
X80267143Y-159823314D02*
X80267143Y-159994742D01*
X80267143Y-159994742D02*
X80210000Y-160109028D01*
X80210000Y-160109028D02*
X80152857Y-160166171D01*
X80152857Y-160166171D02*
X80038572Y-160223314D01*
X80038572Y-160223314D02*
X79581429Y-160223314D01*
X81352857Y-159594742D02*
X80781429Y-159594742D01*
X80781429Y-159594742D02*
X80724286Y-160166171D01*
X80724286Y-160166171D02*
X80781429Y-160109028D01*
X80781429Y-160109028D02*
X80895715Y-160051885D01*
X80895715Y-160051885D02*
X81181429Y-160051885D01*
X81181429Y-160051885D02*
X81295715Y-160109028D01*
X81295715Y-160109028D02*
X81352857Y-160166171D01*
X81352857Y-160166171D02*
X81410000Y-160280457D01*
X81410000Y-160280457D02*
X81410000Y-160566171D01*
X81410000Y-160566171D02*
X81352857Y-160680457D01*
X81352857Y-160680457D02*
X81295715Y-160737600D01*
X81295715Y-160737600D02*
X81181429Y-160794742D01*
X81181429Y-160794742D02*
X80895715Y-160794742D01*
X80895715Y-160794742D02*
X80781429Y-160737600D01*
X80781429Y-160737600D02*
X80724286Y-160680457D01*
X77981428Y-151514742D02*
X78667143Y-151514742D01*
X78324285Y-152714742D02*
X78324285Y-151514742D01*
X79524286Y-152657600D02*
X79410000Y-152714742D01*
X79410000Y-152714742D02*
X79181429Y-152714742D01*
X79181429Y-152714742D02*
X79067143Y-152657600D01*
X79067143Y-152657600D02*
X79010000Y-152543314D01*
X79010000Y-152543314D02*
X79010000Y-152086171D01*
X79010000Y-152086171D02*
X79067143Y-151971885D01*
X79067143Y-151971885D02*
X79181429Y-151914742D01*
X79181429Y-151914742D02*
X79410000Y-151914742D01*
X79410000Y-151914742D02*
X79524286Y-151971885D01*
X79524286Y-151971885D02*
X79581429Y-152086171D01*
X79581429Y-152086171D02*
X79581429Y-152200457D01*
X79581429Y-152200457D02*
X79010000Y-152314742D01*
X80095714Y-152714742D02*
X80095714Y-151914742D01*
X80095714Y-152143314D02*
X80152857Y-152029028D01*
X80152857Y-152029028D02*
X80210000Y-151971885D01*
X80210000Y-151971885D02*
X80324285Y-151914742D01*
X80324285Y-151914742D02*
X80438571Y-151914742D01*
X80838571Y-152714742D02*
X80838571Y-151914742D01*
X80838571Y-152029028D02*
X80895714Y-151971885D01*
X80895714Y-151971885D02*
X81009999Y-151914742D01*
X81009999Y-151914742D02*
X81181428Y-151914742D01*
X81181428Y-151914742D02*
X81295714Y-151971885D01*
X81295714Y-151971885D02*
X81352857Y-152086171D01*
X81352857Y-152086171D02*
X81352857Y-152714742D01*
X81352857Y-152086171D02*
X81409999Y-151971885D01*
X81409999Y-151971885D02*
X81524285Y-151914742D01*
X81524285Y-151914742D02*
X81695714Y-151914742D01*
X81695714Y-151914742D02*
X81809999Y-151971885D01*
X81809999Y-151971885D02*
X81867142Y-152086171D01*
X81867142Y-152086171D02*
X81867142Y-152714742D01*
X60125000Y-109015457D02*
X60067857Y-109072600D01*
X60067857Y-109072600D02*
X59896429Y-109129742D01*
X59896429Y-109129742D02*
X59782143Y-109129742D01*
X59782143Y-109129742D02*
X59610714Y-109072600D01*
X59610714Y-109072600D02*
X59496429Y-108958314D01*
X59496429Y-108958314D02*
X59439286Y-108844028D01*
X59439286Y-108844028D02*
X59382143Y-108615457D01*
X59382143Y-108615457D02*
X59382143Y-108444028D01*
X59382143Y-108444028D02*
X59439286Y-108215457D01*
X59439286Y-108215457D02*
X59496429Y-108101171D01*
X59496429Y-108101171D02*
X59610714Y-107986885D01*
X59610714Y-107986885D02*
X59782143Y-107929742D01*
X59782143Y-107929742D02*
X59896429Y-107929742D01*
X59896429Y-107929742D02*
X60067857Y-107986885D01*
X60067857Y-107986885D02*
X60125000Y-108044028D01*
X61153572Y-107929742D02*
X60925000Y-107929742D01*
X60925000Y-107929742D02*
X60810714Y-107986885D01*
X60810714Y-107986885D02*
X60753572Y-108044028D01*
X60753572Y-108044028D02*
X60639286Y-108215457D01*
X60639286Y-108215457D02*
X60582143Y-108444028D01*
X60582143Y-108444028D02*
X60582143Y-108901171D01*
X60582143Y-108901171D02*
X60639286Y-109015457D01*
X60639286Y-109015457D02*
X60696429Y-109072600D01*
X60696429Y-109072600D02*
X60810714Y-109129742D01*
X60810714Y-109129742D02*
X61039286Y-109129742D01*
X61039286Y-109129742D02*
X61153572Y-109072600D01*
X61153572Y-109072600D02*
X61210714Y-109015457D01*
X61210714Y-109015457D02*
X61267857Y-108901171D01*
X61267857Y-108901171D02*
X61267857Y-108615457D01*
X61267857Y-108615457D02*
X61210714Y-108501171D01*
X61210714Y-108501171D02*
X61153572Y-108444028D01*
X61153572Y-108444028D02*
X61039286Y-108386885D01*
X61039286Y-108386885D02*
X60810714Y-108386885D01*
X60810714Y-108386885D02*
X60696429Y-108444028D01*
X60696429Y-108444028D02*
X60639286Y-108501171D01*
X60639286Y-108501171D02*
X60582143Y-108615457D01*
X55045000Y-118654742D02*
X54645000Y-118083314D01*
X54359286Y-118654742D02*
X54359286Y-117454742D01*
X54359286Y-117454742D02*
X54816429Y-117454742D01*
X54816429Y-117454742D02*
X54930714Y-117511885D01*
X54930714Y-117511885D02*
X54987857Y-117569028D01*
X54987857Y-117569028D02*
X55045000Y-117683314D01*
X55045000Y-117683314D02*
X55045000Y-117854742D01*
X55045000Y-117854742D02*
X54987857Y-117969028D01*
X54987857Y-117969028D02*
X54930714Y-118026171D01*
X54930714Y-118026171D02*
X54816429Y-118083314D01*
X54816429Y-118083314D02*
X54359286Y-118083314D01*
X55502143Y-117569028D02*
X55559286Y-117511885D01*
X55559286Y-117511885D02*
X55673572Y-117454742D01*
X55673572Y-117454742D02*
X55959286Y-117454742D01*
X55959286Y-117454742D02*
X56073572Y-117511885D01*
X56073572Y-117511885D02*
X56130714Y-117569028D01*
X56130714Y-117569028D02*
X56187857Y-117683314D01*
X56187857Y-117683314D02*
X56187857Y-117797600D01*
X56187857Y-117797600D02*
X56130714Y-117969028D01*
X56130714Y-117969028D02*
X55445000Y-118654742D01*
X55445000Y-118654742D02*
X56187857Y-118654742D01*
X103582500Y-161834742D02*
X103182500Y-161263314D01*
X102896786Y-161834742D02*
X102896786Y-160634742D01*
X102896786Y-160634742D02*
X103353929Y-160634742D01*
X103353929Y-160634742D02*
X103468214Y-160691885D01*
X103468214Y-160691885D02*
X103525357Y-160749028D01*
X103525357Y-160749028D02*
X103582500Y-160863314D01*
X103582500Y-160863314D02*
X103582500Y-161034742D01*
X103582500Y-161034742D02*
X103525357Y-161149028D01*
X103525357Y-161149028D02*
X103468214Y-161206171D01*
X103468214Y-161206171D02*
X103353929Y-161263314D01*
X103353929Y-161263314D02*
X102896786Y-161263314D01*
X104611072Y-160634742D02*
X104382500Y-160634742D01*
X104382500Y-160634742D02*
X104268214Y-160691885D01*
X104268214Y-160691885D02*
X104211072Y-160749028D01*
X104211072Y-160749028D02*
X104096786Y-160920457D01*
X104096786Y-160920457D02*
X104039643Y-161149028D01*
X104039643Y-161149028D02*
X104039643Y-161606171D01*
X104039643Y-161606171D02*
X104096786Y-161720457D01*
X104096786Y-161720457D02*
X104153929Y-161777600D01*
X104153929Y-161777600D02*
X104268214Y-161834742D01*
X104268214Y-161834742D02*
X104496786Y-161834742D01*
X104496786Y-161834742D02*
X104611072Y-161777600D01*
X104611072Y-161777600D02*
X104668214Y-161720457D01*
X104668214Y-161720457D02*
X104725357Y-161606171D01*
X104725357Y-161606171D02*
X104725357Y-161320457D01*
X104725357Y-161320457D02*
X104668214Y-161206171D01*
X104668214Y-161206171D02*
X104611072Y-161149028D01*
X104611072Y-161149028D02*
X104496786Y-161091885D01*
X104496786Y-161091885D02*
X104268214Y-161091885D01*
X104268214Y-161091885D02*
X104153929Y-161149028D01*
X104153929Y-161149028D02*
X104096786Y-161206171D01*
X104096786Y-161206171D02*
X104039643Y-161320457D01*
X124116261Y-183290024D02*
X124116261Y-184147167D01*
X124116261Y-184147167D02*
X124059118Y-184318596D01*
X124059118Y-184318596D02*
X123944832Y-184432882D01*
X123944832Y-184432882D02*
X123773404Y-184490024D01*
X123773404Y-184490024D02*
X123659118Y-184490024D01*
X124859118Y-183804310D02*
X124744833Y-183747167D01*
X124744833Y-183747167D02*
X124687690Y-183690024D01*
X124687690Y-183690024D02*
X124630547Y-183575739D01*
X124630547Y-183575739D02*
X124630547Y-183518596D01*
X124630547Y-183518596D02*
X124687690Y-183404310D01*
X124687690Y-183404310D02*
X124744833Y-183347167D01*
X124744833Y-183347167D02*
X124859118Y-183290024D01*
X124859118Y-183290024D02*
X125087690Y-183290024D01*
X125087690Y-183290024D02*
X125201976Y-183347167D01*
X125201976Y-183347167D02*
X125259118Y-183404310D01*
X125259118Y-183404310D02*
X125316261Y-183518596D01*
X125316261Y-183518596D02*
X125316261Y-183575739D01*
X125316261Y-183575739D02*
X125259118Y-183690024D01*
X125259118Y-183690024D02*
X125201976Y-183747167D01*
X125201976Y-183747167D02*
X125087690Y-183804310D01*
X125087690Y-183804310D02*
X124859118Y-183804310D01*
X124859118Y-183804310D02*
X124744833Y-183861453D01*
X124744833Y-183861453D02*
X124687690Y-183918596D01*
X124687690Y-183918596D02*
X124630547Y-184032882D01*
X124630547Y-184032882D02*
X124630547Y-184261453D01*
X124630547Y-184261453D02*
X124687690Y-184375739D01*
X124687690Y-184375739D02*
X124744833Y-184432882D01*
X124744833Y-184432882D02*
X124859118Y-184490024D01*
X124859118Y-184490024D02*
X125087690Y-184490024D01*
X125087690Y-184490024D02*
X125201976Y-184432882D01*
X125201976Y-184432882D02*
X125259118Y-184375739D01*
X125259118Y-184375739D02*
X125316261Y-184261453D01*
X125316261Y-184261453D02*
X125316261Y-184032882D01*
X125316261Y-184032882D02*
X125259118Y-183918596D01*
X125259118Y-183918596D02*
X125201976Y-183861453D01*
X125201976Y-183861453D02*
X125087690Y-183804310D01*
X94920000Y-174477600D02*
X95091429Y-174534742D01*
X95091429Y-174534742D02*
X95377143Y-174534742D01*
X95377143Y-174534742D02*
X95491429Y-174477600D01*
X95491429Y-174477600D02*
X95548571Y-174420457D01*
X95548571Y-174420457D02*
X95605714Y-174306171D01*
X95605714Y-174306171D02*
X95605714Y-174191885D01*
X95605714Y-174191885D02*
X95548571Y-174077600D01*
X95548571Y-174077600D02*
X95491429Y-174020457D01*
X95491429Y-174020457D02*
X95377143Y-173963314D01*
X95377143Y-173963314D02*
X95148571Y-173906171D01*
X95148571Y-173906171D02*
X95034286Y-173849028D01*
X95034286Y-173849028D02*
X94977143Y-173791885D01*
X94977143Y-173791885D02*
X94920000Y-173677600D01*
X94920000Y-173677600D02*
X94920000Y-173563314D01*
X94920000Y-173563314D02*
X94977143Y-173449028D01*
X94977143Y-173449028D02*
X95034286Y-173391885D01*
X95034286Y-173391885D02*
X95148571Y-173334742D01*
X95148571Y-173334742D02*
X95434286Y-173334742D01*
X95434286Y-173334742D02*
X95605714Y-173391885D01*
X96005714Y-173334742D02*
X96291428Y-174534742D01*
X96291428Y-174534742D02*
X96520000Y-173677600D01*
X96520000Y-173677600D02*
X96748571Y-174534742D01*
X96748571Y-174534742D02*
X97034286Y-173334742D01*
X98120000Y-174534742D02*
X97434286Y-174534742D01*
X97777143Y-174534742D02*
X97777143Y-173334742D01*
X97777143Y-173334742D02*
X97662857Y-173506171D01*
X97662857Y-173506171D02*
X97548572Y-173620457D01*
X97548572Y-173620457D02*
X97434286Y-173677600D01*
X95034286Y-171994742D02*
X94634286Y-171423314D01*
X94348572Y-171994742D02*
X94348572Y-170794742D01*
X94348572Y-170794742D02*
X94805715Y-170794742D01*
X94805715Y-170794742D02*
X94920000Y-170851885D01*
X94920000Y-170851885D02*
X94977143Y-170909028D01*
X94977143Y-170909028D02*
X95034286Y-171023314D01*
X95034286Y-171023314D02*
X95034286Y-171194742D01*
X95034286Y-171194742D02*
X94977143Y-171309028D01*
X94977143Y-171309028D02*
X94920000Y-171366171D01*
X94920000Y-171366171D02*
X94805715Y-171423314D01*
X94805715Y-171423314D02*
X94348572Y-171423314D01*
X96005715Y-171937600D02*
X95891429Y-171994742D01*
X95891429Y-171994742D02*
X95662858Y-171994742D01*
X95662858Y-171994742D02*
X95548572Y-171937600D01*
X95548572Y-171937600D02*
X95491429Y-171823314D01*
X95491429Y-171823314D02*
X95491429Y-171366171D01*
X95491429Y-171366171D02*
X95548572Y-171251885D01*
X95548572Y-171251885D02*
X95662858Y-171194742D01*
X95662858Y-171194742D02*
X95891429Y-171194742D01*
X95891429Y-171194742D02*
X96005715Y-171251885D01*
X96005715Y-171251885D02*
X96062858Y-171366171D01*
X96062858Y-171366171D02*
X96062858Y-171480457D01*
X96062858Y-171480457D02*
X95491429Y-171594742D01*
X96520000Y-171937600D02*
X96634286Y-171994742D01*
X96634286Y-171994742D02*
X96862857Y-171994742D01*
X96862857Y-171994742D02*
X96977143Y-171937600D01*
X96977143Y-171937600D02*
X97034286Y-171823314D01*
X97034286Y-171823314D02*
X97034286Y-171766171D01*
X97034286Y-171766171D02*
X96977143Y-171651885D01*
X96977143Y-171651885D02*
X96862857Y-171594742D01*
X96862857Y-171594742D02*
X96691429Y-171594742D01*
X96691429Y-171594742D02*
X96577143Y-171537600D01*
X96577143Y-171537600D02*
X96520000Y-171423314D01*
X96520000Y-171423314D02*
X96520000Y-171366171D01*
X96520000Y-171366171D02*
X96577143Y-171251885D01*
X96577143Y-171251885D02*
X96691429Y-171194742D01*
X96691429Y-171194742D02*
X96862857Y-171194742D01*
X96862857Y-171194742D02*
X96977143Y-171251885D01*
X98005715Y-171937600D02*
X97891429Y-171994742D01*
X97891429Y-171994742D02*
X97662858Y-171994742D01*
X97662858Y-171994742D02*
X97548572Y-171937600D01*
X97548572Y-171937600D02*
X97491429Y-171823314D01*
X97491429Y-171823314D02*
X97491429Y-171366171D01*
X97491429Y-171366171D02*
X97548572Y-171251885D01*
X97548572Y-171251885D02*
X97662858Y-171194742D01*
X97662858Y-171194742D02*
X97891429Y-171194742D01*
X97891429Y-171194742D02*
X98005715Y-171251885D01*
X98005715Y-171251885D02*
X98062858Y-171366171D01*
X98062858Y-171366171D02*
X98062858Y-171480457D01*
X98062858Y-171480457D02*
X97491429Y-171594742D01*
X98405714Y-171194742D02*
X98862857Y-171194742D01*
X98577143Y-170794742D02*
X98577143Y-171823314D01*
X98577143Y-171823314D02*
X98634286Y-171937600D01*
X98634286Y-171937600D02*
X98748571Y-171994742D01*
X98748571Y-171994742D02*
X98862857Y-171994742D01*
X69650000Y-107335457D02*
X69592857Y-107392600D01*
X69592857Y-107392600D02*
X69421429Y-107449742D01*
X69421429Y-107449742D02*
X69307143Y-107449742D01*
X69307143Y-107449742D02*
X69135714Y-107392600D01*
X69135714Y-107392600D02*
X69021429Y-107278314D01*
X69021429Y-107278314D02*
X68964286Y-107164028D01*
X68964286Y-107164028D02*
X68907143Y-106935457D01*
X68907143Y-106935457D02*
X68907143Y-106764028D01*
X68907143Y-106764028D02*
X68964286Y-106535457D01*
X68964286Y-106535457D02*
X69021429Y-106421171D01*
X69021429Y-106421171D02*
X69135714Y-106306885D01*
X69135714Y-106306885D02*
X69307143Y-106249742D01*
X69307143Y-106249742D02*
X69421429Y-106249742D01*
X69421429Y-106249742D02*
X69592857Y-106306885D01*
X69592857Y-106306885D02*
X69650000Y-106364028D01*
X70050000Y-106249742D02*
X70792857Y-106249742D01*
X70792857Y-106249742D02*
X70392857Y-106706885D01*
X70392857Y-106706885D02*
X70564286Y-106706885D01*
X70564286Y-106706885D02*
X70678572Y-106764028D01*
X70678572Y-106764028D02*
X70735714Y-106821171D01*
X70735714Y-106821171D02*
X70792857Y-106935457D01*
X70792857Y-106935457D02*
X70792857Y-107221171D01*
X70792857Y-107221171D02*
X70735714Y-107335457D01*
X70735714Y-107335457D02*
X70678572Y-107392600D01*
X70678572Y-107392600D02*
X70564286Y-107449742D01*
X70564286Y-107449742D02*
X70221429Y-107449742D01*
X70221429Y-107449742D02*
X70107143Y-107392600D01*
X70107143Y-107392600D02*
X70050000Y-107335457D01*
X106280000Y-141584742D02*
X106280000Y-142441885D01*
X106280000Y-142441885D02*
X106222857Y-142613314D01*
X106222857Y-142613314D02*
X106108571Y-142727600D01*
X106108571Y-142727600D02*
X105937143Y-142784742D01*
X105937143Y-142784742D02*
X105822857Y-142784742D01*
X107365715Y-141584742D02*
X107137143Y-141584742D01*
X107137143Y-141584742D02*
X107022857Y-141641885D01*
X107022857Y-141641885D02*
X106965715Y-141699028D01*
X106965715Y-141699028D02*
X106851429Y-141870457D01*
X106851429Y-141870457D02*
X106794286Y-142099028D01*
X106794286Y-142099028D02*
X106794286Y-142556171D01*
X106794286Y-142556171D02*
X106851429Y-142670457D01*
X106851429Y-142670457D02*
X106908572Y-142727600D01*
X106908572Y-142727600D02*
X107022857Y-142784742D01*
X107022857Y-142784742D02*
X107251429Y-142784742D01*
X107251429Y-142784742D02*
X107365715Y-142727600D01*
X107365715Y-142727600D02*
X107422857Y-142670457D01*
X107422857Y-142670457D02*
X107480000Y-142556171D01*
X107480000Y-142556171D02*
X107480000Y-142270457D01*
X107480000Y-142270457D02*
X107422857Y-142156171D01*
X107422857Y-142156171D02*
X107365715Y-142099028D01*
X107365715Y-142099028D02*
X107251429Y-142041885D01*
X107251429Y-142041885D02*
X107022857Y-142041885D01*
X107022857Y-142041885D02*
X106908572Y-142099028D01*
X106908572Y-142099028D02*
X106851429Y-142156171D01*
X106851429Y-142156171D02*
X106794286Y-142270457D01*
X96660000Y-142670457D02*
X96602857Y-142727600D01*
X96602857Y-142727600D02*
X96431429Y-142784742D01*
X96431429Y-142784742D02*
X96317143Y-142784742D01*
X96317143Y-142784742D02*
X96145714Y-142727600D01*
X96145714Y-142727600D02*
X96031429Y-142613314D01*
X96031429Y-142613314D02*
X95974286Y-142499028D01*
X95974286Y-142499028D02*
X95917143Y-142270457D01*
X95917143Y-142270457D02*
X95917143Y-142099028D01*
X95917143Y-142099028D02*
X95974286Y-141870457D01*
X95974286Y-141870457D02*
X96031429Y-141756171D01*
X96031429Y-141756171D02*
X96145714Y-141641885D01*
X96145714Y-141641885D02*
X96317143Y-141584742D01*
X96317143Y-141584742D02*
X96431429Y-141584742D01*
X96431429Y-141584742D02*
X96602857Y-141641885D01*
X96602857Y-141641885D02*
X96660000Y-141699028D01*
X97117143Y-142441885D02*
X97688572Y-142441885D01*
X97002857Y-142784742D02*
X97402857Y-141584742D01*
X97402857Y-141584742D02*
X97802857Y-142784742D01*
X98202857Y-142784742D02*
X98202857Y-141584742D01*
X98202857Y-141584742D02*
X98888571Y-142784742D01*
X98888571Y-142784742D02*
X98888571Y-141584742D01*
X101060000Y-142670457D02*
X101002857Y-142727600D01*
X101002857Y-142727600D02*
X100831429Y-142784742D01*
X100831429Y-142784742D02*
X100717143Y-142784742D01*
X100717143Y-142784742D02*
X100545714Y-142727600D01*
X100545714Y-142727600D02*
X100431429Y-142613314D01*
X100431429Y-142613314D02*
X100374286Y-142499028D01*
X100374286Y-142499028D02*
X100317143Y-142270457D01*
X100317143Y-142270457D02*
X100317143Y-142099028D01*
X100317143Y-142099028D02*
X100374286Y-141870457D01*
X100374286Y-141870457D02*
X100431429Y-141756171D01*
X100431429Y-141756171D02*
X100545714Y-141641885D01*
X100545714Y-141641885D02*
X100717143Y-141584742D01*
X100717143Y-141584742D02*
X100831429Y-141584742D01*
X100831429Y-141584742D02*
X101002857Y-141641885D01*
X101002857Y-141641885D02*
X101060000Y-141699028D01*
X101517143Y-142727600D02*
X101688572Y-142784742D01*
X101688572Y-142784742D02*
X101974286Y-142784742D01*
X101974286Y-142784742D02*
X102088572Y-142727600D01*
X102088572Y-142727600D02*
X102145714Y-142670457D01*
X102145714Y-142670457D02*
X102202857Y-142556171D01*
X102202857Y-142556171D02*
X102202857Y-142441885D01*
X102202857Y-142441885D02*
X102145714Y-142327600D01*
X102145714Y-142327600D02*
X102088572Y-142270457D01*
X102088572Y-142270457D02*
X101974286Y-142213314D01*
X101974286Y-142213314D02*
X101745714Y-142156171D01*
X101745714Y-142156171D02*
X101631429Y-142099028D01*
X101631429Y-142099028D02*
X101574286Y-142041885D01*
X101574286Y-142041885D02*
X101517143Y-141927600D01*
X101517143Y-141927600D02*
X101517143Y-141813314D01*
X101517143Y-141813314D02*
X101574286Y-141699028D01*
X101574286Y-141699028D02*
X101631429Y-141641885D01*
X101631429Y-141641885D02*
X101745714Y-141584742D01*
X101745714Y-141584742D02*
X102031429Y-141584742D01*
X102031429Y-141584742D02*
X102202857Y-141641885D01*
X100208572Y-141251600D02*
X102311429Y-141251600D01*
X129340000Y-130084742D02*
X128940000Y-129513314D01*
X128654286Y-130084742D02*
X128654286Y-128884742D01*
X128654286Y-128884742D02*
X129111429Y-128884742D01*
X129111429Y-128884742D02*
X129225714Y-128941885D01*
X129225714Y-128941885D02*
X129282857Y-128999028D01*
X129282857Y-128999028D02*
X129340000Y-129113314D01*
X129340000Y-129113314D02*
X129340000Y-129284742D01*
X129340000Y-129284742D02*
X129282857Y-129399028D01*
X129282857Y-129399028D02*
X129225714Y-129456171D01*
X129225714Y-129456171D02*
X129111429Y-129513314D01*
X129111429Y-129513314D02*
X128654286Y-129513314D01*
X129911429Y-130084742D02*
X130140000Y-130084742D01*
X130140000Y-130084742D02*
X130254286Y-130027600D01*
X130254286Y-130027600D02*
X130311429Y-129970457D01*
X130311429Y-129970457D02*
X130425714Y-129799028D01*
X130425714Y-129799028D02*
X130482857Y-129570457D01*
X130482857Y-129570457D02*
X130482857Y-129113314D01*
X130482857Y-129113314D02*
X130425714Y-128999028D01*
X130425714Y-128999028D02*
X130368572Y-128941885D01*
X130368572Y-128941885D02*
X130254286Y-128884742D01*
X130254286Y-128884742D02*
X130025714Y-128884742D01*
X130025714Y-128884742D02*
X129911429Y-128941885D01*
X129911429Y-128941885D02*
X129854286Y-128999028D01*
X129854286Y-128999028D02*
X129797143Y-129113314D01*
X129797143Y-129113314D02*
X129797143Y-129399028D01*
X129797143Y-129399028D02*
X129854286Y-129513314D01*
X129854286Y-129513314D02*
X129911429Y-129570457D01*
X129911429Y-129570457D02*
X130025714Y-129627600D01*
X130025714Y-129627600D02*
X130254286Y-129627600D01*
X130254286Y-129627600D02*
X130368572Y-129570457D01*
X130368572Y-129570457D02*
X130425714Y-129513314D01*
X130425714Y-129513314D02*
X130482857Y-129399028D01*
X141240000Y-121494742D02*
X141240000Y-122351885D01*
X141240000Y-122351885D02*
X141182857Y-122523314D01*
X141182857Y-122523314D02*
X141068571Y-122637600D01*
X141068571Y-122637600D02*
X140897143Y-122694742D01*
X140897143Y-122694742D02*
X140782857Y-122694742D01*
X141811429Y-122694742D02*
X141811429Y-121494742D01*
X141811429Y-121494742D02*
X142268572Y-121494742D01*
X142268572Y-121494742D02*
X142382857Y-121551885D01*
X142382857Y-121551885D02*
X142440000Y-121609028D01*
X142440000Y-121609028D02*
X142497143Y-121723314D01*
X142497143Y-121723314D02*
X142497143Y-121894742D01*
X142497143Y-121894742D02*
X142440000Y-122009028D01*
X142440000Y-122009028D02*
X142382857Y-122066171D01*
X142382857Y-122066171D02*
X142268572Y-122123314D01*
X142268572Y-122123314D02*
X141811429Y-122123314D01*
X142954286Y-121609028D02*
X143011429Y-121551885D01*
X143011429Y-121551885D02*
X143125715Y-121494742D01*
X143125715Y-121494742D02*
X143411429Y-121494742D01*
X143411429Y-121494742D02*
X143525715Y-121551885D01*
X143525715Y-121551885D02*
X143582857Y-121609028D01*
X143582857Y-121609028D02*
X143640000Y-121723314D01*
X143640000Y-121723314D02*
X143640000Y-121837600D01*
X143640000Y-121837600D02*
X143582857Y-122009028D01*
X143582857Y-122009028D02*
X142897143Y-122694742D01*
X142897143Y-122694742D02*
X143640000Y-122694742D01*
X136658572Y-114844742D02*
X136658572Y-113644742D01*
X136658572Y-113644742D02*
X137115715Y-113644742D01*
X137115715Y-113644742D02*
X137230000Y-113701885D01*
X137230000Y-113701885D02*
X137287143Y-113759028D01*
X137287143Y-113759028D02*
X137344286Y-113873314D01*
X137344286Y-113873314D02*
X137344286Y-114044742D01*
X137344286Y-114044742D02*
X137287143Y-114159028D01*
X137287143Y-114159028D02*
X137230000Y-114216171D01*
X137230000Y-114216171D02*
X137115715Y-114273314D01*
X137115715Y-114273314D02*
X136658572Y-114273314D01*
X137858572Y-114844742D02*
X137858572Y-114044742D01*
X137858572Y-114273314D02*
X137915715Y-114159028D01*
X137915715Y-114159028D02*
X137972858Y-114101885D01*
X137972858Y-114101885D02*
X138087143Y-114044742D01*
X138087143Y-114044742D02*
X138201429Y-114044742D01*
X138772857Y-114844742D02*
X138658572Y-114787600D01*
X138658572Y-114787600D02*
X138601429Y-114730457D01*
X138601429Y-114730457D02*
X138544286Y-114616171D01*
X138544286Y-114616171D02*
X138544286Y-114273314D01*
X138544286Y-114273314D02*
X138601429Y-114159028D01*
X138601429Y-114159028D02*
X138658572Y-114101885D01*
X138658572Y-114101885D02*
X138772857Y-114044742D01*
X138772857Y-114044742D02*
X138944286Y-114044742D01*
X138944286Y-114044742D02*
X139058572Y-114101885D01*
X139058572Y-114101885D02*
X139115715Y-114159028D01*
X139115715Y-114159028D02*
X139172857Y-114273314D01*
X139172857Y-114273314D02*
X139172857Y-114616171D01*
X139172857Y-114616171D02*
X139115715Y-114730457D01*
X139115715Y-114730457D02*
X139058572Y-114787600D01*
X139058572Y-114787600D02*
X138944286Y-114844742D01*
X138944286Y-114844742D02*
X138772857Y-114844742D01*
X140201429Y-114044742D02*
X140201429Y-115016171D01*
X140201429Y-115016171D02*
X140144286Y-115130457D01*
X140144286Y-115130457D02*
X140087143Y-115187600D01*
X140087143Y-115187600D02*
X139972857Y-115244742D01*
X139972857Y-115244742D02*
X139801429Y-115244742D01*
X139801429Y-115244742D02*
X139687143Y-115187600D01*
X140201429Y-114787600D02*
X140087143Y-114844742D01*
X140087143Y-114844742D02*
X139858571Y-114844742D01*
X139858571Y-114844742D02*
X139744286Y-114787600D01*
X139744286Y-114787600D02*
X139687143Y-114730457D01*
X139687143Y-114730457D02*
X139630000Y-114616171D01*
X139630000Y-114616171D02*
X139630000Y-114273314D01*
X139630000Y-114273314D02*
X139687143Y-114159028D01*
X139687143Y-114159028D02*
X139744286Y-114101885D01*
X139744286Y-114101885D02*
X139858571Y-114044742D01*
X139858571Y-114044742D02*
X140087143Y-114044742D01*
X140087143Y-114044742D02*
X140201429Y-114101885D01*
X82905714Y-202544742D02*
X82905714Y-203516171D01*
X82905714Y-203516171D02*
X82962857Y-203630457D01*
X82962857Y-203630457D02*
X83020000Y-203687600D01*
X83020000Y-203687600D02*
X83134285Y-203744742D01*
X83134285Y-203744742D02*
X83362857Y-203744742D01*
X83362857Y-203744742D02*
X83477142Y-203687600D01*
X83477142Y-203687600D02*
X83534285Y-203630457D01*
X83534285Y-203630457D02*
X83591428Y-203516171D01*
X83591428Y-203516171D02*
X83591428Y-202544742D01*
X84334285Y-203059028D02*
X84220000Y-203001885D01*
X84220000Y-203001885D02*
X84162857Y-202944742D01*
X84162857Y-202944742D02*
X84105714Y-202830457D01*
X84105714Y-202830457D02*
X84105714Y-202773314D01*
X84105714Y-202773314D02*
X84162857Y-202659028D01*
X84162857Y-202659028D02*
X84220000Y-202601885D01*
X84220000Y-202601885D02*
X84334285Y-202544742D01*
X84334285Y-202544742D02*
X84562857Y-202544742D01*
X84562857Y-202544742D02*
X84677143Y-202601885D01*
X84677143Y-202601885D02*
X84734285Y-202659028D01*
X84734285Y-202659028D02*
X84791428Y-202773314D01*
X84791428Y-202773314D02*
X84791428Y-202830457D01*
X84791428Y-202830457D02*
X84734285Y-202944742D01*
X84734285Y-202944742D02*
X84677143Y-203001885D01*
X84677143Y-203001885D02*
X84562857Y-203059028D01*
X84562857Y-203059028D02*
X84334285Y-203059028D01*
X84334285Y-203059028D02*
X84220000Y-203116171D01*
X84220000Y-203116171D02*
X84162857Y-203173314D01*
X84162857Y-203173314D02*
X84105714Y-203287600D01*
X84105714Y-203287600D02*
X84105714Y-203516171D01*
X84105714Y-203516171D02*
X84162857Y-203630457D01*
X84162857Y-203630457D02*
X84220000Y-203687600D01*
X84220000Y-203687600D02*
X84334285Y-203744742D01*
X84334285Y-203744742D02*
X84562857Y-203744742D01*
X84562857Y-203744742D02*
X84677143Y-203687600D01*
X84677143Y-203687600D02*
X84734285Y-203630457D01*
X84734285Y-203630457D02*
X84791428Y-203516171D01*
X84791428Y-203516171D02*
X84791428Y-203287600D01*
X84791428Y-203287600D02*
X84734285Y-203173314D01*
X84734285Y-203173314D02*
X84677143Y-203116171D01*
X84677143Y-203116171D02*
X84562857Y-203059028D01*
X75314286Y-123099742D02*
X75314286Y-121899742D01*
X75314286Y-121899742D02*
X75600000Y-121899742D01*
X75600000Y-121899742D02*
X75771429Y-121956885D01*
X75771429Y-121956885D02*
X75885714Y-122071171D01*
X75885714Y-122071171D02*
X75942857Y-122185457D01*
X75942857Y-122185457D02*
X76000000Y-122414028D01*
X76000000Y-122414028D02*
X76000000Y-122585457D01*
X76000000Y-122585457D02*
X75942857Y-122814028D01*
X75942857Y-122814028D02*
X75885714Y-122928314D01*
X75885714Y-122928314D02*
X75771429Y-123042600D01*
X75771429Y-123042600D02*
X75600000Y-123099742D01*
X75600000Y-123099742D02*
X75314286Y-123099742D01*
X77142857Y-123099742D02*
X76457143Y-123099742D01*
X76800000Y-123099742D02*
X76800000Y-121899742D01*
X76800000Y-121899742D02*
X76685714Y-122071171D01*
X76685714Y-122071171D02*
X76571429Y-122185457D01*
X76571429Y-122185457D02*
X76457143Y-122242600D01*
X55480000Y-147934742D02*
X55480000Y-148791885D01*
X55480000Y-148791885D02*
X55422857Y-148963314D01*
X55422857Y-148963314D02*
X55308571Y-149077600D01*
X55308571Y-149077600D02*
X55137143Y-149134742D01*
X55137143Y-149134742D02*
X55022857Y-149134742D01*
X55994286Y-148049028D02*
X56051429Y-147991885D01*
X56051429Y-147991885D02*
X56165715Y-147934742D01*
X56165715Y-147934742D02*
X56451429Y-147934742D01*
X56451429Y-147934742D02*
X56565715Y-147991885D01*
X56565715Y-147991885D02*
X56622857Y-148049028D01*
X56622857Y-148049028D02*
X56680000Y-148163314D01*
X56680000Y-148163314D02*
X56680000Y-148277600D01*
X56680000Y-148277600D02*
X56622857Y-148449028D01*
X56622857Y-148449028D02*
X55937143Y-149134742D01*
X55937143Y-149134742D02*
X56680000Y-149134742D01*
X58855000Y-118654742D02*
X58455000Y-118083314D01*
X58169286Y-118654742D02*
X58169286Y-117454742D01*
X58169286Y-117454742D02*
X58626429Y-117454742D01*
X58626429Y-117454742D02*
X58740714Y-117511885D01*
X58740714Y-117511885D02*
X58797857Y-117569028D01*
X58797857Y-117569028D02*
X58855000Y-117683314D01*
X58855000Y-117683314D02*
X58855000Y-117854742D01*
X58855000Y-117854742D02*
X58797857Y-117969028D01*
X58797857Y-117969028D02*
X58740714Y-118026171D01*
X58740714Y-118026171D02*
X58626429Y-118083314D01*
X58626429Y-118083314D02*
X58169286Y-118083314D01*
X59255000Y-117454742D02*
X59997857Y-117454742D01*
X59997857Y-117454742D02*
X59597857Y-117911885D01*
X59597857Y-117911885D02*
X59769286Y-117911885D01*
X59769286Y-117911885D02*
X59883572Y-117969028D01*
X59883572Y-117969028D02*
X59940714Y-118026171D01*
X59940714Y-118026171D02*
X59997857Y-118140457D01*
X59997857Y-118140457D02*
X59997857Y-118426171D01*
X59997857Y-118426171D02*
X59940714Y-118540457D01*
X59940714Y-118540457D02*
X59883572Y-118597600D01*
X59883572Y-118597600D02*
X59769286Y-118654742D01*
X59769286Y-118654742D02*
X59426429Y-118654742D01*
X59426429Y-118654742D02*
X59312143Y-118597600D01*
X59312143Y-118597600D02*
X59255000Y-118540457D01*
X89260714Y-151744742D02*
X89260714Y-152716171D01*
X89260714Y-152716171D02*
X89317857Y-152830457D01*
X89317857Y-152830457D02*
X89375000Y-152887600D01*
X89375000Y-152887600D02*
X89489285Y-152944742D01*
X89489285Y-152944742D02*
X89717857Y-152944742D01*
X89717857Y-152944742D02*
X89832142Y-152887600D01*
X89832142Y-152887600D02*
X89889285Y-152830457D01*
X89889285Y-152830457D02*
X89946428Y-152716171D01*
X89946428Y-152716171D02*
X89946428Y-151744742D01*
X90403571Y-151744742D02*
X91146428Y-151744742D01*
X91146428Y-151744742D02*
X90746428Y-152201885D01*
X90746428Y-152201885D02*
X90917857Y-152201885D01*
X90917857Y-152201885D02*
X91032143Y-152259028D01*
X91032143Y-152259028D02*
X91089285Y-152316171D01*
X91089285Y-152316171D02*
X91146428Y-152430457D01*
X91146428Y-152430457D02*
X91146428Y-152716171D01*
X91146428Y-152716171D02*
X91089285Y-152830457D01*
X91089285Y-152830457D02*
X91032143Y-152887600D01*
X91032143Y-152887600D02*
X90917857Y-152944742D01*
X90917857Y-152944742D02*
X90575000Y-152944742D01*
X90575000Y-152944742D02*
X90460714Y-152887600D01*
X90460714Y-152887600D02*
X90403571Y-152830457D01*
X100130000Y-136604742D02*
X99730000Y-136033314D01*
X99444286Y-136604742D02*
X99444286Y-135404742D01*
X99444286Y-135404742D02*
X99901429Y-135404742D01*
X99901429Y-135404742D02*
X100015714Y-135461885D01*
X100015714Y-135461885D02*
X100072857Y-135519028D01*
X100072857Y-135519028D02*
X100130000Y-135633314D01*
X100130000Y-135633314D02*
X100130000Y-135804742D01*
X100130000Y-135804742D02*
X100072857Y-135919028D01*
X100072857Y-135919028D02*
X100015714Y-135976171D01*
X100015714Y-135976171D02*
X99901429Y-136033314D01*
X99901429Y-136033314D02*
X99444286Y-136033314D01*
X100530000Y-135404742D02*
X101330000Y-135404742D01*
X101330000Y-135404742D02*
X100815714Y-136604742D01*
X73460000Y-107335457D02*
X73402857Y-107392600D01*
X73402857Y-107392600D02*
X73231429Y-107449742D01*
X73231429Y-107449742D02*
X73117143Y-107449742D01*
X73117143Y-107449742D02*
X72945714Y-107392600D01*
X72945714Y-107392600D02*
X72831429Y-107278314D01*
X72831429Y-107278314D02*
X72774286Y-107164028D01*
X72774286Y-107164028D02*
X72717143Y-106935457D01*
X72717143Y-106935457D02*
X72717143Y-106764028D01*
X72717143Y-106764028D02*
X72774286Y-106535457D01*
X72774286Y-106535457D02*
X72831429Y-106421171D01*
X72831429Y-106421171D02*
X72945714Y-106306885D01*
X72945714Y-106306885D02*
X73117143Y-106249742D01*
X73117143Y-106249742D02*
X73231429Y-106249742D01*
X73231429Y-106249742D02*
X73402857Y-106306885D01*
X73402857Y-106306885D02*
X73460000Y-106364028D01*
X74545714Y-106249742D02*
X73974286Y-106249742D01*
X73974286Y-106249742D02*
X73917143Y-106821171D01*
X73917143Y-106821171D02*
X73974286Y-106764028D01*
X73974286Y-106764028D02*
X74088572Y-106706885D01*
X74088572Y-106706885D02*
X74374286Y-106706885D01*
X74374286Y-106706885D02*
X74488572Y-106764028D01*
X74488572Y-106764028D02*
X74545714Y-106821171D01*
X74545714Y-106821171D02*
X74602857Y-106935457D01*
X74602857Y-106935457D02*
X74602857Y-107221171D01*
X74602857Y-107221171D02*
X74545714Y-107335457D01*
X74545714Y-107335457D02*
X74488572Y-107392600D01*
X74488572Y-107392600D02*
X74374286Y-107449742D01*
X74374286Y-107449742D02*
X74088572Y-107449742D01*
X74088572Y-107449742D02*
X73974286Y-107392600D01*
X73974286Y-107392600D02*
X73917143Y-107335457D01*
X137395000Y-106024742D02*
X137395000Y-106881885D01*
X137395000Y-106881885D02*
X137337857Y-107053314D01*
X137337857Y-107053314D02*
X137223571Y-107167600D01*
X137223571Y-107167600D02*
X137052143Y-107224742D01*
X137052143Y-107224742D02*
X136937857Y-107224742D01*
X138480715Y-106424742D02*
X138480715Y-107224742D01*
X138195000Y-105967600D02*
X137909286Y-106824742D01*
X137909286Y-106824742D02*
X138652143Y-106824742D01*
X127768571Y-104684742D02*
X127768571Y-103484742D01*
X129025714Y-104570457D02*
X128968571Y-104627600D01*
X128968571Y-104627600D02*
X128797143Y-104684742D01*
X128797143Y-104684742D02*
X128682857Y-104684742D01*
X128682857Y-104684742D02*
X128511428Y-104627600D01*
X128511428Y-104627600D02*
X128397143Y-104513314D01*
X128397143Y-104513314D02*
X128340000Y-104399028D01*
X128340000Y-104399028D02*
X128282857Y-104170457D01*
X128282857Y-104170457D02*
X128282857Y-103999028D01*
X128282857Y-103999028D02*
X128340000Y-103770457D01*
X128340000Y-103770457D02*
X128397143Y-103656171D01*
X128397143Y-103656171D02*
X128511428Y-103541885D01*
X128511428Y-103541885D02*
X128682857Y-103484742D01*
X128682857Y-103484742D02*
X128797143Y-103484742D01*
X128797143Y-103484742D02*
X128968571Y-103541885D01*
X128968571Y-103541885D02*
X129025714Y-103599028D01*
X129482857Y-104627600D02*
X129654286Y-104684742D01*
X129654286Y-104684742D02*
X129940000Y-104684742D01*
X129940000Y-104684742D02*
X130054286Y-104627600D01*
X130054286Y-104627600D02*
X130111428Y-104570457D01*
X130111428Y-104570457D02*
X130168571Y-104456171D01*
X130168571Y-104456171D02*
X130168571Y-104341885D01*
X130168571Y-104341885D02*
X130111428Y-104227600D01*
X130111428Y-104227600D02*
X130054286Y-104170457D01*
X130054286Y-104170457D02*
X129940000Y-104113314D01*
X129940000Y-104113314D02*
X129711428Y-104056171D01*
X129711428Y-104056171D02*
X129597143Y-103999028D01*
X129597143Y-103999028D02*
X129540000Y-103941885D01*
X129540000Y-103941885D02*
X129482857Y-103827600D01*
X129482857Y-103827600D02*
X129482857Y-103713314D01*
X129482857Y-103713314D02*
X129540000Y-103599028D01*
X129540000Y-103599028D02*
X129597143Y-103541885D01*
X129597143Y-103541885D02*
X129711428Y-103484742D01*
X129711428Y-103484742D02*
X129997143Y-103484742D01*
X129997143Y-103484742D02*
X130168571Y-103541885D01*
X130682857Y-104684742D02*
X130682857Y-103484742D01*
X130682857Y-103484742D02*
X131140000Y-103484742D01*
X131140000Y-103484742D02*
X131254285Y-103541885D01*
X131254285Y-103541885D02*
X131311428Y-103599028D01*
X131311428Y-103599028D02*
X131368571Y-103713314D01*
X131368571Y-103713314D02*
X131368571Y-103884742D01*
X131368571Y-103884742D02*
X131311428Y-103999028D01*
X131311428Y-103999028D02*
X131254285Y-104056171D01*
X131254285Y-104056171D02*
X131140000Y-104113314D01*
X131140000Y-104113314D02*
X130682857Y-104113314D01*
X97018571Y-162990457D02*
X96961428Y-163047600D01*
X96961428Y-163047600D02*
X96790000Y-163104742D01*
X96790000Y-163104742D02*
X96675714Y-163104742D01*
X96675714Y-163104742D02*
X96504285Y-163047600D01*
X96504285Y-163047600D02*
X96390000Y-162933314D01*
X96390000Y-162933314D02*
X96332857Y-162819028D01*
X96332857Y-162819028D02*
X96275714Y-162590457D01*
X96275714Y-162590457D02*
X96275714Y-162419028D01*
X96275714Y-162419028D02*
X96332857Y-162190457D01*
X96332857Y-162190457D02*
X96390000Y-162076171D01*
X96390000Y-162076171D02*
X96504285Y-161961885D01*
X96504285Y-161961885D02*
X96675714Y-161904742D01*
X96675714Y-161904742D02*
X96790000Y-161904742D01*
X96790000Y-161904742D02*
X96961428Y-161961885D01*
X96961428Y-161961885D02*
X97018571Y-162019028D01*
X98161428Y-163104742D02*
X97475714Y-163104742D01*
X97818571Y-163104742D02*
X97818571Y-161904742D01*
X97818571Y-161904742D02*
X97704285Y-162076171D01*
X97704285Y-162076171D02*
X97590000Y-162190457D01*
X97590000Y-162190457D02*
X97475714Y-162247600D01*
X99190000Y-162304742D02*
X99190000Y-163104742D01*
X98904285Y-161847600D02*
X98618571Y-162704742D01*
X98618571Y-162704742D02*
X99361428Y-162704742D01*
X106915000Y-128884742D02*
X106915000Y-129741885D01*
X106915000Y-129741885D02*
X106857857Y-129913314D01*
X106857857Y-129913314D02*
X106743571Y-130027600D01*
X106743571Y-130027600D02*
X106572143Y-130084742D01*
X106572143Y-130084742D02*
X106457857Y-130084742D01*
X108057857Y-128884742D02*
X107486429Y-128884742D01*
X107486429Y-128884742D02*
X107429286Y-129456171D01*
X107429286Y-129456171D02*
X107486429Y-129399028D01*
X107486429Y-129399028D02*
X107600715Y-129341885D01*
X107600715Y-129341885D02*
X107886429Y-129341885D01*
X107886429Y-129341885D02*
X108000715Y-129399028D01*
X108000715Y-129399028D02*
X108057857Y-129456171D01*
X108057857Y-129456171D02*
X108115000Y-129570457D01*
X108115000Y-129570457D02*
X108115000Y-129856171D01*
X108115000Y-129856171D02*
X108057857Y-129970457D01*
X108057857Y-129970457D02*
X108000715Y-130027600D01*
X108000715Y-130027600D02*
X107886429Y-130084742D01*
X107886429Y-130084742D02*
X107600715Y-130084742D01*
X107600715Y-130084742D02*
X107486429Y-130027600D01*
X107486429Y-130027600D02*
X107429286Y-129970457D01*
X103989000Y-107419457D02*
X103931857Y-107476600D01*
X103931857Y-107476600D02*
X103760429Y-107533742D01*
X103760429Y-107533742D02*
X103646143Y-107533742D01*
X103646143Y-107533742D02*
X103474714Y-107476600D01*
X103474714Y-107476600D02*
X103360429Y-107362314D01*
X103360429Y-107362314D02*
X103303286Y-107248028D01*
X103303286Y-107248028D02*
X103246143Y-107019457D01*
X103246143Y-107019457D02*
X103246143Y-106848028D01*
X103246143Y-106848028D02*
X103303286Y-106619457D01*
X103303286Y-106619457D02*
X103360429Y-106505171D01*
X103360429Y-106505171D02*
X103474714Y-106390885D01*
X103474714Y-106390885D02*
X103646143Y-106333742D01*
X103646143Y-106333742D02*
X103760429Y-106333742D01*
X103760429Y-106333742D02*
X103931857Y-106390885D01*
X103931857Y-106390885D02*
X103989000Y-106448028D01*
X104674714Y-106848028D02*
X104560429Y-106790885D01*
X104560429Y-106790885D02*
X104503286Y-106733742D01*
X104503286Y-106733742D02*
X104446143Y-106619457D01*
X104446143Y-106619457D02*
X104446143Y-106562314D01*
X104446143Y-106562314D02*
X104503286Y-106448028D01*
X104503286Y-106448028D02*
X104560429Y-106390885D01*
X104560429Y-106390885D02*
X104674714Y-106333742D01*
X104674714Y-106333742D02*
X104903286Y-106333742D01*
X104903286Y-106333742D02*
X105017572Y-106390885D01*
X105017572Y-106390885D02*
X105074714Y-106448028D01*
X105074714Y-106448028D02*
X105131857Y-106562314D01*
X105131857Y-106562314D02*
X105131857Y-106619457D01*
X105131857Y-106619457D02*
X105074714Y-106733742D01*
X105074714Y-106733742D02*
X105017572Y-106790885D01*
X105017572Y-106790885D02*
X104903286Y-106848028D01*
X104903286Y-106848028D02*
X104674714Y-106848028D01*
X104674714Y-106848028D02*
X104560429Y-106905171D01*
X104560429Y-106905171D02*
X104503286Y-106962314D01*
X104503286Y-106962314D02*
X104446143Y-107076600D01*
X104446143Y-107076600D02*
X104446143Y-107305171D01*
X104446143Y-107305171D02*
X104503286Y-107419457D01*
X104503286Y-107419457D02*
X104560429Y-107476600D01*
X104560429Y-107476600D02*
X104674714Y-107533742D01*
X104674714Y-107533742D02*
X104903286Y-107533742D01*
X104903286Y-107533742D02*
X105017572Y-107476600D01*
X105017572Y-107476600D02*
X105074714Y-107419457D01*
X105074714Y-107419457D02*
X105131857Y-107305171D01*
X105131857Y-107305171D02*
X105131857Y-107076600D01*
X105131857Y-107076600D02*
X105074714Y-106962314D01*
X105074714Y-106962314D02*
X105017572Y-106905171D01*
X105017572Y-106905171D02*
X104903286Y-106848028D01*
X123488571Y-200004742D02*
X123488571Y-200861885D01*
X123488571Y-200861885D02*
X123431428Y-201033314D01*
X123431428Y-201033314D02*
X123317142Y-201147600D01*
X123317142Y-201147600D02*
X123145714Y-201204742D01*
X123145714Y-201204742D02*
X123031428Y-201204742D01*
X124688571Y-201204742D02*
X124002857Y-201204742D01*
X124345714Y-201204742D02*
X124345714Y-200004742D01*
X124345714Y-200004742D02*
X124231428Y-200176171D01*
X124231428Y-200176171D02*
X124117143Y-200290457D01*
X124117143Y-200290457D02*
X124002857Y-200347600D01*
X125431428Y-200004742D02*
X125545714Y-200004742D01*
X125545714Y-200004742D02*
X125660000Y-200061885D01*
X125660000Y-200061885D02*
X125717143Y-200119028D01*
X125717143Y-200119028D02*
X125774285Y-200233314D01*
X125774285Y-200233314D02*
X125831428Y-200461885D01*
X125831428Y-200461885D02*
X125831428Y-200747600D01*
X125831428Y-200747600D02*
X125774285Y-200976171D01*
X125774285Y-200976171D02*
X125717143Y-201090457D01*
X125717143Y-201090457D02*
X125660000Y-201147600D01*
X125660000Y-201147600D02*
X125545714Y-201204742D01*
X125545714Y-201204742D02*
X125431428Y-201204742D01*
X125431428Y-201204742D02*
X125317143Y-201147600D01*
X125317143Y-201147600D02*
X125260000Y-201090457D01*
X125260000Y-201090457D02*
X125202857Y-200976171D01*
X125202857Y-200976171D02*
X125145714Y-200747600D01*
X125145714Y-200747600D02*
X125145714Y-200461885D01*
X125145714Y-200461885D02*
X125202857Y-200233314D01*
X125202857Y-200233314D02*
X125260000Y-200119028D01*
X125260000Y-200119028D02*
X125317143Y-200061885D01*
X125317143Y-200061885D02*
X125431428Y-200004742D01*
X122402858Y-195667600D02*
X123317144Y-195667600D01*
X122860001Y-196124742D02*
X122860001Y-195210457D01*
X124460000Y-194924742D02*
X123888572Y-194924742D01*
X123888572Y-194924742D02*
X123831429Y-195496171D01*
X123831429Y-195496171D02*
X123888572Y-195439028D01*
X123888572Y-195439028D02*
X124002858Y-195381885D01*
X124002858Y-195381885D02*
X124288572Y-195381885D01*
X124288572Y-195381885D02*
X124402858Y-195439028D01*
X124402858Y-195439028D02*
X124460000Y-195496171D01*
X124460000Y-195496171D02*
X124517143Y-195610457D01*
X124517143Y-195610457D02*
X124517143Y-195896171D01*
X124517143Y-195896171D02*
X124460000Y-196010457D01*
X124460000Y-196010457D02*
X124402858Y-196067600D01*
X124402858Y-196067600D02*
X124288572Y-196124742D01*
X124288572Y-196124742D02*
X124002858Y-196124742D01*
X124002858Y-196124742D02*
X123888572Y-196067600D01*
X123888572Y-196067600D02*
X123831429Y-196010457D01*
X124860000Y-194924742D02*
X125260000Y-196124742D01*
X125260000Y-196124742D02*
X125660000Y-194924742D01*
X126002857Y-195781885D02*
X126574286Y-195781885D01*
X125888571Y-196124742D02*
X126288571Y-194924742D01*
X126288571Y-194924742D02*
X126688571Y-196124742D01*
X129895714Y-177144742D02*
X129895714Y-178116171D01*
X129895714Y-178116171D02*
X129952857Y-178230457D01*
X129952857Y-178230457D02*
X130010000Y-178287600D01*
X130010000Y-178287600D02*
X130124285Y-178344742D01*
X130124285Y-178344742D02*
X130352857Y-178344742D01*
X130352857Y-178344742D02*
X130467142Y-178287600D01*
X130467142Y-178287600D02*
X130524285Y-178230457D01*
X130524285Y-178230457D02*
X130581428Y-178116171D01*
X130581428Y-178116171D02*
X130581428Y-177144742D01*
X131781428Y-178344742D02*
X131095714Y-178344742D01*
X131438571Y-178344742D02*
X131438571Y-177144742D01*
X131438571Y-177144742D02*
X131324285Y-177316171D01*
X131324285Y-177316171D02*
X131210000Y-177430457D01*
X131210000Y-177430457D02*
X131095714Y-177487600D01*
X73460000Y-127430457D02*
X73402857Y-127487600D01*
X73402857Y-127487600D02*
X73231429Y-127544742D01*
X73231429Y-127544742D02*
X73117143Y-127544742D01*
X73117143Y-127544742D02*
X72945714Y-127487600D01*
X72945714Y-127487600D02*
X72831429Y-127373314D01*
X72831429Y-127373314D02*
X72774286Y-127259028D01*
X72774286Y-127259028D02*
X72717143Y-127030457D01*
X72717143Y-127030457D02*
X72717143Y-126859028D01*
X72717143Y-126859028D02*
X72774286Y-126630457D01*
X72774286Y-126630457D02*
X72831429Y-126516171D01*
X72831429Y-126516171D02*
X72945714Y-126401885D01*
X72945714Y-126401885D02*
X73117143Y-126344742D01*
X73117143Y-126344742D02*
X73231429Y-126344742D01*
X73231429Y-126344742D02*
X73402857Y-126401885D01*
X73402857Y-126401885D02*
X73460000Y-126459028D01*
X73917143Y-126459028D02*
X73974286Y-126401885D01*
X73974286Y-126401885D02*
X74088572Y-126344742D01*
X74088572Y-126344742D02*
X74374286Y-126344742D01*
X74374286Y-126344742D02*
X74488572Y-126401885D01*
X74488572Y-126401885D02*
X74545714Y-126459028D01*
X74545714Y-126459028D02*
X74602857Y-126573314D01*
X74602857Y-126573314D02*
X74602857Y-126687600D01*
X74602857Y-126687600D02*
X74545714Y-126859028D01*
X74545714Y-126859028D02*
X73860000Y-127544742D01*
X73860000Y-127544742D02*
X74602857Y-127544742D01*
X62585714Y-119994742D02*
X62585714Y-120966171D01*
X62585714Y-120966171D02*
X62642857Y-121080457D01*
X62642857Y-121080457D02*
X62700000Y-121137600D01*
X62700000Y-121137600D02*
X62814285Y-121194742D01*
X62814285Y-121194742D02*
X63042857Y-121194742D01*
X63042857Y-121194742D02*
X63157142Y-121137600D01*
X63157142Y-121137600D02*
X63214285Y-121080457D01*
X63214285Y-121080457D02*
X63271428Y-120966171D01*
X63271428Y-120966171D02*
X63271428Y-119994742D01*
X64414285Y-119994742D02*
X63842857Y-119994742D01*
X63842857Y-119994742D02*
X63785714Y-120566171D01*
X63785714Y-120566171D02*
X63842857Y-120509028D01*
X63842857Y-120509028D02*
X63957143Y-120451885D01*
X63957143Y-120451885D02*
X64242857Y-120451885D01*
X64242857Y-120451885D02*
X64357143Y-120509028D01*
X64357143Y-120509028D02*
X64414285Y-120566171D01*
X64414285Y-120566171D02*
X64471428Y-120680457D01*
X64471428Y-120680457D02*
X64471428Y-120966171D01*
X64471428Y-120966171D02*
X64414285Y-121080457D01*
X64414285Y-121080457D02*
X64357143Y-121137600D01*
X64357143Y-121137600D02*
X64242857Y-121194742D01*
X64242857Y-121194742D02*
X63957143Y-121194742D01*
X63957143Y-121194742D02*
X63842857Y-121137600D01*
X63842857Y-121137600D02*
X63785714Y-121080457D01*
X118608571Y-166760457D02*
X118551428Y-166817600D01*
X118551428Y-166817600D02*
X118380000Y-166874742D01*
X118380000Y-166874742D02*
X118265714Y-166874742D01*
X118265714Y-166874742D02*
X118094285Y-166817600D01*
X118094285Y-166817600D02*
X117980000Y-166703314D01*
X117980000Y-166703314D02*
X117922857Y-166589028D01*
X117922857Y-166589028D02*
X117865714Y-166360457D01*
X117865714Y-166360457D02*
X117865714Y-166189028D01*
X117865714Y-166189028D02*
X117922857Y-165960457D01*
X117922857Y-165960457D02*
X117980000Y-165846171D01*
X117980000Y-165846171D02*
X118094285Y-165731885D01*
X118094285Y-165731885D02*
X118265714Y-165674742D01*
X118265714Y-165674742D02*
X118380000Y-165674742D01*
X118380000Y-165674742D02*
X118551428Y-165731885D01*
X118551428Y-165731885D02*
X118608571Y-165789028D01*
X119751428Y-166874742D02*
X119065714Y-166874742D01*
X119408571Y-166874742D02*
X119408571Y-165674742D01*
X119408571Y-165674742D02*
X119294285Y-165846171D01*
X119294285Y-165846171D02*
X119180000Y-165960457D01*
X119180000Y-165960457D02*
X119065714Y-166017600D01*
X120208571Y-165789028D02*
X120265714Y-165731885D01*
X120265714Y-165731885D02*
X120380000Y-165674742D01*
X120380000Y-165674742D02*
X120665714Y-165674742D01*
X120665714Y-165674742D02*
X120780000Y-165731885D01*
X120780000Y-165731885D02*
X120837142Y-165789028D01*
X120837142Y-165789028D02*
X120894285Y-165903314D01*
X120894285Y-165903314D02*
X120894285Y-166017600D01*
X120894285Y-166017600D02*
X120837142Y-166189028D01*
X120837142Y-166189028D02*
X120151428Y-166874742D01*
X120151428Y-166874742D02*
X120894285Y-166874742D01*
X117338571Y-196010457D02*
X117281428Y-196067600D01*
X117281428Y-196067600D02*
X117110000Y-196124742D01*
X117110000Y-196124742D02*
X116995714Y-196124742D01*
X116995714Y-196124742D02*
X116824285Y-196067600D01*
X116824285Y-196067600D02*
X116710000Y-195953314D01*
X116710000Y-195953314D02*
X116652857Y-195839028D01*
X116652857Y-195839028D02*
X116595714Y-195610457D01*
X116595714Y-195610457D02*
X116595714Y-195439028D01*
X116595714Y-195439028D02*
X116652857Y-195210457D01*
X116652857Y-195210457D02*
X116710000Y-195096171D01*
X116710000Y-195096171D02*
X116824285Y-194981885D01*
X116824285Y-194981885D02*
X116995714Y-194924742D01*
X116995714Y-194924742D02*
X117110000Y-194924742D01*
X117110000Y-194924742D02*
X117281428Y-194981885D01*
X117281428Y-194981885D02*
X117338571Y-195039028D01*
X118481428Y-196124742D02*
X117795714Y-196124742D01*
X118138571Y-196124742D02*
X118138571Y-194924742D01*
X118138571Y-194924742D02*
X118024285Y-195096171D01*
X118024285Y-195096171D02*
X117910000Y-195210457D01*
X117910000Y-195210457D02*
X117795714Y-195267600D01*
X118881428Y-194924742D02*
X119681428Y-194924742D01*
X119681428Y-194924742D02*
X119167142Y-196124742D01*
X74730000Y-158024742D02*
X74330000Y-157453314D01*
X74044286Y-158024742D02*
X74044286Y-156824742D01*
X74044286Y-156824742D02*
X74501429Y-156824742D01*
X74501429Y-156824742D02*
X74615714Y-156881885D01*
X74615714Y-156881885D02*
X74672857Y-156939028D01*
X74672857Y-156939028D02*
X74730000Y-157053314D01*
X74730000Y-157053314D02*
X74730000Y-157224742D01*
X74730000Y-157224742D02*
X74672857Y-157339028D01*
X74672857Y-157339028D02*
X74615714Y-157396171D01*
X74615714Y-157396171D02*
X74501429Y-157453314D01*
X74501429Y-157453314D02*
X74044286Y-157453314D01*
X75415714Y-157339028D02*
X75301429Y-157281885D01*
X75301429Y-157281885D02*
X75244286Y-157224742D01*
X75244286Y-157224742D02*
X75187143Y-157110457D01*
X75187143Y-157110457D02*
X75187143Y-157053314D01*
X75187143Y-157053314D02*
X75244286Y-156939028D01*
X75244286Y-156939028D02*
X75301429Y-156881885D01*
X75301429Y-156881885D02*
X75415714Y-156824742D01*
X75415714Y-156824742D02*
X75644286Y-156824742D01*
X75644286Y-156824742D02*
X75758572Y-156881885D01*
X75758572Y-156881885D02*
X75815714Y-156939028D01*
X75815714Y-156939028D02*
X75872857Y-157053314D01*
X75872857Y-157053314D02*
X75872857Y-157110457D01*
X75872857Y-157110457D02*
X75815714Y-157224742D01*
X75815714Y-157224742D02*
X75758572Y-157281885D01*
X75758572Y-157281885D02*
X75644286Y-157339028D01*
X75644286Y-157339028D02*
X75415714Y-157339028D01*
X75415714Y-157339028D02*
X75301429Y-157396171D01*
X75301429Y-157396171D02*
X75244286Y-157453314D01*
X75244286Y-157453314D02*
X75187143Y-157567600D01*
X75187143Y-157567600D02*
X75187143Y-157796171D01*
X75187143Y-157796171D02*
X75244286Y-157910457D01*
X75244286Y-157910457D02*
X75301429Y-157967600D01*
X75301429Y-157967600D02*
X75415714Y-158024742D01*
X75415714Y-158024742D02*
X75644286Y-158024742D01*
X75644286Y-158024742D02*
X75758572Y-157967600D01*
X75758572Y-157967600D02*
X75815714Y-157910457D01*
X75815714Y-157910457D02*
X75872857Y-157796171D01*
X75872857Y-157796171D02*
X75872857Y-157567600D01*
X75872857Y-157567600D02*
X75815714Y-157453314D01*
X75815714Y-157453314D02*
X75758572Y-157396171D01*
X75758572Y-157396171D02*
X75644286Y-157339028D01*
X74130000Y-152944742D02*
X73444286Y-152944742D01*
X73787143Y-152944742D02*
X73787143Y-151744742D01*
X73787143Y-151744742D02*
X73672857Y-151916171D01*
X73672857Y-151916171D02*
X73558572Y-152030457D01*
X73558572Y-152030457D02*
X73444286Y-152087600D01*
X74587143Y-151859028D02*
X74644286Y-151801885D01*
X74644286Y-151801885D02*
X74758572Y-151744742D01*
X74758572Y-151744742D02*
X75044286Y-151744742D01*
X75044286Y-151744742D02*
X75158572Y-151801885D01*
X75158572Y-151801885D02*
X75215714Y-151859028D01*
X75215714Y-151859028D02*
X75272857Y-151973314D01*
X75272857Y-151973314D02*
X75272857Y-152087600D01*
X75272857Y-152087600D02*
X75215714Y-152259028D01*
X75215714Y-152259028D02*
X74530000Y-152944742D01*
X74530000Y-152944742D02*
X75272857Y-152944742D01*
X76015714Y-151744742D02*
X76130000Y-151744742D01*
X76130000Y-151744742D02*
X76244286Y-151801885D01*
X76244286Y-151801885D02*
X76301429Y-151859028D01*
X76301429Y-151859028D02*
X76358571Y-151973314D01*
X76358571Y-151973314D02*
X76415714Y-152201885D01*
X76415714Y-152201885D02*
X76415714Y-152487600D01*
X76415714Y-152487600D02*
X76358571Y-152716171D01*
X76358571Y-152716171D02*
X76301429Y-152830457D01*
X76301429Y-152830457D02*
X76244286Y-152887600D01*
X76244286Y-152887600D02*
X76130000Y-152944742D01*
X76130000Y-152944742D02*
X76015714Y-152944742D01*
X76015714Y-152944742D02*
X75901429Y-152887600D01*
X75901429Y-152887600D02*
X75844286Y-152830457D01*
X75844286Y-152830457D02*
X75787143Y-152716171D01*
X75787143Y-152716171D02*
X75730000Y-152487600D01*
X75730000Y-152487600D02*
X75730000Y-152201885D01*
X75730000Y-152201885D02*
X75787143Y-151973314D01*
X75787143Y-151973314D02*
X75844286Y-151859028D01*
X75844286Y-151859028D02*
X75901429Y-151801885D01*
X75901429Y-151801885D02*
X76015714Y-151744742D01*
X130018571Y-146520457D02*
X129961428Y-146577600D01*
X129961428Y-146577600D02*
X129790000Y-146634742D01*
X129790000Y-146634742D02*
X129675714Y-146634742D01*
X129675714Y-146634742D02*
X129504285Y-146577600D01*
X129504285Y-146577600D02*
X129390000Y-146463314D01*
X129390000Y-146463314D02*
X129332857Y-146349028D01*
X129332857Y-146349028D02*
X129275714Y-146120457D01*
X129275714Y-146120457D02*
X129275714Y-145949028D01*
X129275714Y-145949028D02*
X129332857Y-145720457D01*
X129332857Y-145720457D02*
X129390000Y-145606171D01*
X129390000Y-145606171D02*
X129504285Y-145491885D01*
X129504285Y-145491885D02*
X129675714Y-145434742D01*
X129675714Y-145434742D02*
X129790000Y-145434742D01*
X129790000Y-145434742D02*
X129961428Y-145491885D01*
X129961428Y-145491885D02*
X130018571Y-145549028D01*
X131161428Y-146634742D02*
X130475714Y-146634742D01*
X130818571Y-146634742D02*
X130818571Y-145434742D01*
X130818571Y-145434742D02*
X130704285Y-145606171D01*
X130704285Y-145606171D02*
X130590000Y-145720457D01*
X130590000Y-145720457D02*
X130475714Y-145777600D01*
X131904285Y-145434742D02*
X132018571Y-145434742D01*
X132018571Y-145434742D02*
X132132857Y-145491885D01*
X132132857Y-145491885D02*
X132190000Y-145549028D01*
X132190000Y-145549028D02*
X132247142Y-145663314D01*
X132247142Y-145663314D02*
X132304285Y-145891885D01*
X132304285Y-145891885D02*
X132304285Y-146177600D01*
X132304285Y-146177600D02*
X132247142Y-146406171D01*
X132247142Y-146406171D02*
X132190000Y-146520457D01*
X132190000Y-146520457D02*
X132132857Y-146577600D01*
X132132857Y-146577600D02*
X132018571Y-146634742D01*
X132018571Y-146634742D02*
X131904285Y-146634742D01*
X131904285Y-146634742D02*
X131790000Y-146577600D01*
X131790000Y-146577600D02*
X131732857Y-146520457D01*
X131732857Y-146520457D02*
X131675714Y-146406171D01*
X131675714Y-146406171D02*
X131618571Y-146177600D01*
X131618571Y-146177600D02*
X131618571Y-145891885D01*
X131618571Y-145891885D02*
X131675714Y-145663314D01*
X131675714Y-145663314D02*
X131732857Y-145549028D01*
X131732857Y-145549028D02*
X131790000Y-145491885D01*
X131790000Y-145491885D02*
X131904285Y-145434742D01*
X107138571Y-146480457D02*
X107081428Y-146537600D01*
X107081428Y-146537600D02*
X106910000Y-146594742D01*
X106910000Y-146594742D02*
X106795714Y-146594742D01*
X106795714Y-146594742D02*
X106624285Y-146537600D01*
X106624285Y-146537600D02*
X106510000Y-146423314D01*
X106510000Y-146423314D02*
X106452857Y-146309028D01*
X106452857Y-146309028D02*
X106395714Y-146080457D01*
X106395714Y-146080457D02*
X106395714Y-145909028D01*
X106395714Y-145909028D02*
X106452857Y-145680457D01*
X106452857Y-145680457D02*
X106510000Y-145566171D01*
X106510000Y-145566171D02*
X106624285Y-145451885D01*
X106624285Y-145451885D02*
X106795714Y-145394742D01*
X106795714Y-145394742D02*
X106910000Y-145394742D01*
X106910000Y-145394742D02*
X107081428Y-145451885D01*
X107081428Y-145451885D02*
X107138571Y-145509028D01*
X108281428Y-146594742D02*
X107595714Y-146594742D01*
X107938571Y-146594742D02*
X107938571Y-145394742D01*
X107938571Y-145394742D02*
X107824285Y-145566171D01*
X107824285Y-145566171D02*
X107710000Y-145680457D01*
X107710000Y-145680457D02*
X107595714Y-145737600D01*
X108681428Y-145394742D02*
X109424285Y-145394742D01*
X109424285Y-145394742D02*
X109024285Y-145851885D01*
X109024285Y-145851885D02*
X109195714Y-145851885D01*
X109195714Y-145851885D02*
X109310000Y-145909028D01*
X109310000Y-145909028D02*
X109367142Y-145966171D01*
X109367142Y-145966171D02*
X109424285Y-146080457D01*
X109424285Y-146080457D02*
X109424285Y-146366171D01*
X109424285Y-146366171D02*
X109367142Y-146480457D01*
X109367142Y-146480457D02*
X109310000Y-146537600D01*
X109310000Y-146537600D02*
X109195714Y-146594742D01*
X109195714Y-146594742D02*
X108852857Y-146594742D01*
X108852857Y-146594742D02*
X108738571Y-146537600D01*
X108738571Y-146537600D02*
X108681428Y-146480457D01*
X118608571Y-189774742D02*
X118208571Y-189203314D01*
X117922857Y-189774742D02*
X117922857Y-188574742D01*
X117922857Y-188574742D02*
X118380000Y-188574742D01*
X118380000Y-188574742D02*
X118494285Y-188631885D01*
X118494285Y-188631885D02*
X118551428Y-188689028D01*
X118551428Y-188689028D02*
X118608571Y-188803314D01*
X118608571Y-188803314D02*
X118608571Y-188974742D01*
X118608571Y-188974742D02*
X118551428Y-189089028D01*
X118551428Y-189089028D02*
X118494285Y-189146171D01*
X118494285Y-189146171D02*
X118380000Y-189203314D01*
X118380000Y-189203314D02*
X117922857Y-189203314D01*
X119751428Y-189774742D02*
X119065714Y-189774742D01*
X119408571Y-189774742D02*
X119408571Y-188574742D01*
X119408571Y-188574742D02*
X119294285Y-188746171D01*
X119294285Y-188746171D02*
X119180000Y-188860457D01*
X119180000Y-188860457D02*
X119065714Y-188917600D01*
X120894285Y-189774742D02*
X120208571Y-189774742D01*
X120551428Y-189774742D02*
X120551428Y-188574742D01*
X120551428Y-188574742D02*
X120437142Y-188746171D01*
X120437142Y-188746171D02*
X120322857Y-188860457D01*
X120322857Y-188860457D02*
X120208571Y-188917600D01*
X98145714Y-153014742D02*
X98145714Y-153986171D01*
X98145714Y-153986171D02*
X98202857Y-154100457D01*
X98202857Y-154100457D02*
X98260000Y-154157600D01*
X98260000Y-154157600D02*
X98374285Y-154214742D01*
X98374285Y-154214742D02*
X98602857Y-154214742D01*
X98602857Y-154214742D02*
X98717142Y-154157600D01*
X98717142Y-154157600D02*
X98774285Y-154100457D01*
X98774285Y-154100457D02*
X98831428Y-153986171D01*
X98831428Y-153986171D02*
X98831428Y-153014742D01*
X99345714Y-153129028D02*
X99402857Y-153071885D01*
X99402857Y-153071885D02*
X99517143Y-153014742D01*
X99517143Y-153014742D02*
X99802857Y-153014742D01*
X99802857Y-153014742D02*
X99917143Y-153071885D01*
X99917143Y-153071885D02*
X99974285Y-153129028D01*
X99974285Y-153129028D02*
X100031428Y-153243314D01*
X100031428Y-153243314D02*
X100031428Y-153357600D01*
X100031428Y-153357600D02*
X99974285Y-153529028D01*
X99974285Y-153529028D02*
X99288571Y-154214742D01*
X99288571Y-154214742D02*
X100031428Y-154214742D01*
X137658571Y-153465457D02*
X137601428Y-153522600D01*
X137601428Y-153522600D02*
X137430000Y-153579742D01*
X137430000Y-153579742D02*
X137315714Y-153579742D01*
X137315714Y-153579742D02*
X137144285Y-153522600D01*
X137144285Y-153522600D02*
X137030000Y-153408314D01*
X137030000Y-153408314D02*
X136972857Y-153294028D01*
X136972857Y-153294028D02*
X136915714Y-153065457D01*
X136915714Y-153065457D02*
X136915714Y-152894028D01*
X136915714Y-152894028D02*
X136972857Y-152665457D01*
X136972857Y-152665457D02*
X137030000Y-152551171D01*
X137030000Y-152551171D02*
X137144285Y-152436885D01*
X137144285Y-152436885D02*
X137315714Y-152379742D01*
X137315714Y-152379742D02*
X137430000Y-152379742D01*
X137430000Y-152379742D02*
X137601428Y-152436885D01*
X137601428Y-152436885D02*
X137658571Y-152494028D01*
X138801428Y-153579742D02*
X138115714Y-153579742D01*
X138458571Y-153579742D02*
X138458571Y-152379742D01*
X138458571Y-152379742D02*
X138344285Y-152551171D01*
X138344285Y-152551171D02*
X138230000Y-152665457D01*
X138230000Y-152665457D02*
X138115714Y-152722600D01*
X139944285Y-153579742D02*
X139258571Y-153579742D01*
X139601428Y-153579742D02*
X139601428Y-152379742D01*
X139601428Y-152379742D02*
X139487142Y-152551171D01*
X139487142Y-152551171D02*
X139372857Y-152665457D01*
X139372857Y-152665457D02*
X139258571Y-152722600D01*
X110210714Y-137774742D02*
X110210714Y-138746171D01*
X110210714Y-138746171D02*
X110267857Y-138860457D01*
X110267857Y-138860457D02*
X110325000Y-138917600D01*
X110325000Y-138917600D02*
X110439285Y-138974742D01*
X110439285Y-138974742D02*
X110667857Y-138974742D01*
X110667857Y-138974742D02*
X110782142Y-138917600D01*
X110782142Y-138917600D02*
X110839285Y-138860457D01*
X110839285Y-138860457D02*
X110896428Y-138746171D01*
X110896428Y-138746171D02*
X110896428Y-137774742D01*
X111982143Y-138174742D02*
X111982143Y-138974742D01*
X111696428Y-137717600D02*
X111410714Y-138574742D01*
X111410714Y-138574742D02*
X112153571Y-138574742D01*
X143103714Y-193908742D02*
X143103714Y-194880171D01*
X143103714Y-194880171D02*
X143160857Y-194994457D01*
X143160857Y-194994457D02*
X143218000Y-195051600D01*
X143218000Y-195051600D02*
X143332285Y-195108742D01*
X143332285Y-195108742D02*
X143560857Y-195108742D01*
X143560857Y-195108742D02*
X143675142Y-195051600D01*
X143675142Y-195051600D02*
X143732285Y-194994457D01*
X143732285Y-194994457D02*
X143789428Y-194880171D01*
X143789428Y-194880171D02*
X143789428Y-193908742D01*
X144246571Y-193908742D02*
X145046571Y-193908742D01*
X145046571Y-193908742D02*
X144532285Y-195108742D01*
X64570000Y-126160457D02*
X64512857Y-126217600D01*
X64512857Y-126217600D02*
X64341429Y-126274742D01*
X64341429Y-126274742D02*
X64227143Y-126274742D01*
X64227143Y-126274742D02*
X64055714Y-126217600D01*
X64055714Y-126217600D02*
X63941429Y-126103314D01*
X63941429Y-126103314D02*
X63884286Y-125989028D01*
X63884286Y-125989028D02*
X63827143Y-125760457D01*
X63827143Y-125760457D02*
X63827143Y-125589028D01*
X63827143Y-125589028D02*
X63884286Y-125360457D01*
X63884286Y-125360457D02*
X63941429Y-125246171D01*
X63941429Y-125246171D02*
X64055714Y-125131885D01*
X64055714Y-125131885D02*
X64227143Y-125074742D01*
X64227143Y-125074742D02*
X64341429Y-125074742D01*
X64341429Y-125074742D02*
X64512857Y-125131885D01*
X64512857Y-125131885D02*
X64570000Y-125189028D01*
X65712857Y-126274742D02*
X65027143Y-126274742D01*
X65370000Y-126274742D02*
X65370000Y-125074742D01*
X65370000Y-125074742D02*
X65255714Y-125246171D01*
X65255714Y-125246171D02*
X65141429Y-125360457D01*
X65141429Y-125360457D02*
X65027143Y-125417600D01*
X124958571Y-135050457D02*
X124901428Y-135107600D01*
X124901428Y-135107600D02*
X124730000Y-135164742D01*
X124730000Y-135164742D02*
X124615714Y-135164742D01*
X124615714Y-135164742D02*
X124444285Y-135107600D01*
X124444285Y-135107600D02*
X124330000Y-134993314D01*
X124330000Y-134993314D02*
X124272857Y-134879028D01*
X124272857Y-134879028D02*
X124215714Y-134650457D01*
X124215714Y-134650457D02*
X124215714Y-134479028D01*
X124215714Y-134479028D02*
X124272857Y-134250457D01*
X124272857Y-134250457D02*
X124330000Y-134136171D01*
X124330000Y-134136171D02*
X124444285Y-134021885D01*
X124444285Y-134021885D02*
X124615714Y-133964742D01*
X124615714Y-133964742D02*
X124730000Y-133964742D01*
X124730000Y-133964742D02*
X124901428Y-134021885D01*
X124901428Y-134021885D02*
X124958571Y-134079028D01*
X126101428Y-135164742D02*
X125415714Y-135164742D01*
X125758571Y-135164742D02*
X125758571Y-133964742D01*
X125758571Y-133964742D02*
X125644285Y-134136171D01*
X125644285Y-134136171D02*
X125530000Y-134250457D01*
X125530000Y-134250457D02*
X125415714Y-134307600D01*
X127187142Y-133964742D02*
X126615714Y-133964742D01*
X126615714Y-133964742D02*
X126558571Y-134536171D01*
X126558571Y-134536171D02*
X126615714Y-134479028D01*
X126615714Y-134479028D02*
X126730000Y-134421885D01*
X126730000Y-134421885D02*
X127015714Y-134421885D01*
X127015714Y-134421885D02*
X127130000Y-134479028D01*
X127130000Y-134479028D02*
X127187142Y-134536171D01*
X127187142Y-134536171D02*
X127244285Y-134650457D01*
X127244285Y-134650457D02*
X127244285Y-134936171D01*
X127244285Y-134936171D02*
X127187142Y-135050457D01*
X127187142Y-135050457D02*
X127130000Y-135107600D01*
X127130000Y-135107600D02*
X127015714Y-135164742D01*
X127015714Y-135164742D02*
X126730000Y-135164742D01*
X126730000Y-135164742D02*
X126615714Y-135107600D01*
X126615714Y-135107600D02*
X126558571Y-135050457D01*
X105765714Y-202544742D02*
X105765714Y-203516171D01*
X105765714Y-203516171D02*
X105822857Y-203630457D01*
X105822857Y-203630457D02*
X105880000Y-203687600D01*
X105880000Y-203687600D02*
X105994285Y-203744742D01*
X105994285Y-203744742D02*
X106222857Y-203744742D01*
X106222857Y-203744742D02*
X106337142Y-203687600D01*
X106337142Y-203687600D02*
X106394285Y-203630457D01*
X106394285Y-203630457D02*
X106451428Y-203516171D01*
X106451428Y-203516171D02*
X106451428Y-202544742D01*
X107080000Y-203744742D02*
X107308571Y-203744742D01*
X107308571Y-203744742D02*
X107422857Y-203687600D01*
X107422857Y-203687600D02*
X107480000Y-203630457D01*
X107480000Y-203630457D02*
X107594285Y-203459028D01*
X107594285Y-203459028D02*
X107651428Y-203230457D01*
X107651428Y-203230457D02*
X107651428Y-202773314D01*
X107651428Y-202773314D02*
X107594285Y-202659028D01*
X107594285Y-202659028D02*
X107537143Y-202601885D01*
X107537143Y-202601885D02*
X107422857Y-202544742D01*
X107422857Y-202544742D02*
X107194285Y-202544742D01*
X107194285Y-202544742D02*
X107080000Y-202601885D01*
X107080000Y-202601885D02*
X107022857Y-202659028D01*
X107022857Y-202659028D02*
X106965714Y-202773314D01*
X106965714Y-202773314D02*
X106965714Y-203059028D01*
X106965714Y-203059028D02*
X107022857Y-203173314D01*
X107022857Y-203173314D02*
X107080000Y-203230457D01*
X107080000Y-203230457D02*
X107194285Y-203287600D01*
X107194285Y-203287600D02*
X107422857Y-203287600D01*
X107422857Y-203287600D02*
X107537143Y-203230457D01*
X107537143Y-203230457D02*
X107594285Y-203173314D01*
X107594285Y-203173314D02*
X107651428Y-203059028D01*
D11*
%TO.C,L1*%
X76250000Y-120600000D02*
X76250000Y-108000000D01*
X79250000Y-120600000D02*
X76250000Y-120600000D01*
X88850000Y-120600000D02*
X85850000Y-120600000D01*
X76250000Y-108000000D02*
X79250000Y-108000000D01*
X85850000Y-108000000D02*
X88850000Y-108000000D01*
X88850000Y-108000000D02*
X88850000Y-120600000D01*
%TO.C,J7*%
X123130000Y-130750000D02*
X123130000Y-130870000D01*
X123130000Y-130870000D02*
X125790000Y-130870000D01*
X124460000Y-128210000D02*
X125790000Y-128210000D01*
X125790000Y-128210000D02*
X125790000Y-129540000D01*
X125790000Y-130750000D02*
X125790000Y-130870000D01*
%TO.C,C9*%
X103477748Y-118724000D02*
X104900252Y-118724000D01*
X103477748Y-120544000D02*
X104900252Y-120544000D01*
%TO.C,C7*%
X62491252Y-111025000D02*
X61968748Y-111025000D01*
X62491252Y-112495000D02*
X61968748Y-112495000D01*
%TO.C,J9*%
X79950000Y-125670000D02*
X81280000Y-125670000D01*
X79950000Y-127000000D02*
X79950000Y-125670000D01*
X82550000Y-125670000D02*
X90230000Y-125670000D01*
X82550000Y-128330000D02*
X82550000Y-125670000D01*
X82550000Y-128330000D02*
X90230000Y-128330000D01*
X90230000Y-128330000D02*
X90230000Y-125670000D01*
%TO.C,C19*%
X134211748Y-198734000D02*
X135634252Y-198734000D01*
X134211748Y-200554000D02*
X135634252Y-200554000D01*
%TO.C,R10*%
X86900000Y-187860000D02*
X86900000Y-188190000D01*
X86900000Y-190600000D02*
X86900000Y-190270000D01*
X93440000Y-187860000D02*
X86900000Y-187860000D01*
X93440000Y-188190000D02*
X93440000Y-187860000D01*
X93440000Y-190270000D02*
X93440000Y-190600000D01*
X93440000Y-190600000D02*
X86900000Y-190600000D01*
%TO.C,C18*%
X134211748Y-187939000D02*
X135634252Y-187939000D01*
X134211748Y-189759000D02*
X135634252Y-189759000D01*
%TO.C,U6*%
X103584000Y-110844000D02*
X103584000Y-111114000D01*
X103584000Y-117744000D02*
X103584000Y-117474000D01*
X110004000Y-110844000D02*
X103584000Y-110844000D01*
X110004000Y-117744000D02*
X103584000Y-117744000D01*
X101854000Y-111154000D02*
X101514000Y-110684000D01*
X102194000Y-110684000D01*
X101854000Y-111154000D01*
G36*
X101854000Y-111154000D02*
G01*
X101514000Y-110684000D01*
X102194000Y-110684000D01*
X101854000Y-111154000D01*
G37*
%TO.C,C16*%
X93880000Y-196750000D02*
X93880000Y-201990000D01*
X96620000Y-196750000D02*
X93880000Y-196750000D01*
X96620000Y-196750000D02*
X96620000Y-201990000D01*
X96620000Y-201990000D02*
X93880000Y-201990000D01*
%TO.C,C4*%
X62355000Y-115289420D02*
X62355000Y-115570580D01*
X63375000Y-115289420D02*
X63375000Y-115570580D01*
%TO.C,J3*%
X53080000Y-182610000D02*
X53080000Y-189620000D01*
X53080000Y-196630000D02*
X53080000Y-189620000D01*
X62080000Y-188010000D02*
X62080000Y-187030000D01*
X62080000Y-192210000D02*
X62080000Y-191230000D01*
X62090000Y-182610000D02*
X53080000Y-182610000D01*
X62090000Y-183420000D02*
X62090000Y-182610000D01*
X62090000Y-195820000D02*
X62090000Y-196630000D01*
X62090000Y-196630000D02*
X53080000Y-196630000D01*
X62780000Y-196420000D02*
X63080000Y-195820000D01*
X63080000Y-195820000D02*
X63380000Y-196420000D01*
X63380000Y-196420000D02*
X62780000Y-196420000D01*
X65190000Y-185120000D02*
X66470000Y-185120000D01*
X65190000Y-185720000D02*
X66470000Y-185720000D01*
X65190000Y-189320000D02*
X66470000Y-189320000D01*
X65190000Y-189920000D02*
X66470000Y-189920000D01*
X65190000Y-193520000D02*
X66470000Y-193520000D01*
X65190000Y-194120000D02*
X66470000Y-194120000D01*
%TO.C,R1*%
X62995436Y-104675000D02*
X63449564Y-104675000D01*
X62995436Y-106145000D02*
X63449564Y-106145000D01*
%TO.C,J1*%
X54770000Y-129800000D02*
X54770000Y-142020000D01*
X54770000Y-129800000D02*
X57470000Y-129800000D01*
X54770000Y-142020000D02*
X57470000Y-142020000D01*
X66120000Y-129800000D02*
X62370000Y-129800000D01*
X66120000Y-129800000D02*
X66120000Y-142020000D01*
X66120000Y-142020000D02*
X62370000Y-142020000D01*
X66320000Y-137160000D02*
X66820000Y-137660000D01*
X66820000Y-136660000D02*
X66320000Y-137160000D01*
X66820000Y-137660000D02*
X66820000Y-136660000D01*
%TO.C,JP5*%
X78680000Y-156210000D02*
X78680000Y-153610000D01*
X78680000Y-158810000D02*
X78680000Y-157480000D01*
X80010000Y-158810000D02*
X78680000Y-158810000D01*
X81340000Y-153610000D02*
X78680000Y-153610000D01*
X81340000Y-156210000D02*
X78680000Y-156210000D01*
X81340000Y-156210000D02*
X81340000Y-153610000D01*
%TO.C,C6*%
X63219420Y-108075000D02*
X63500580Y-108075000D01*
X63219420Y-109095000D02*
X63500580Y-109095000D01*
%TO.C,R2*%
X54510000Y-115065436D02*
X54510000Y-115519564D01*
X55980000Y-115065436D02*
X55980000Y-115519564D01*
%TO.C,R6*%
X107220000Y-159920000D02*
X113760000Y-159920000D01*
X107220000Y-160250000D02*
X107220000Y-159920000D01*
X107220000Y-162330000D02*
X107220000Y-162660000D01*
X107220000Y-162660000D02*
X113760000Y-162660000D01*
X113760000Y-159920000D02*
X113760000Y-160250000D01*
X113760000Y-162660000D02*
X113760000Y-162330000D01*
%TO.C,J8*%
X121860000Y-185360000D02*
X121860000Y-188020000D01*
X124460000Y-185360000D02*
X121860000Y-185360000D01*
X124460000Y-185360000D02*
X124460000Y-188020000D01*
X124460000Y-188020000D02*
X121860000Y-188020000D01*
X127060000Y-186690000D02*
X127060000Y-188020000D01*
X127060000Y-188020000D02*
X125730000Y-188020000D01*
%TO.C,SW1*%
X101940000Y-165300000D02*
X114160000Y-165300000D01*
X101940000Y-167810000D02*
X101940000Y-165300000D01*
X101940000Y-172710000D02*
X101940000Y-170110000D01*
X101940000Y-177520000D02*
X101940000Y-175010000D01*
X114160000Y-167810000D02*
X114160000Y-165300000D01*
X114160000Y-172710000D02*
X114160000Y-170110000D01*
X114160000Y-177520000D02*
X101940000Y-177520000D01*
X114160000Y-177520000D02*
X114160000Y-175010000D01*
X111600000Y-171410000D02*
G75*
G02*
X104500000Y-171410000I-3550000J0D01*
G01*
X104500000Y-171410000D02*
G75*
G02*
X111600000Y-171410000I3550000J0D01*
G01*
%TO.C,C3*%
X68940000Y-109573748D02*
X68940000Y-110996252D01*
X70760000Y-109573748D02*
X70760000Y-110996252D01*
%TO.C,J6*%
X102810000Y-143450000D02*
X102810000Y-143570000D01*
X102810000Y-143570000D02*
X105470000Y-143570000D01*
X104140000Y-140910000D02*
X105470000Y-140910000D01*
X105470000Y-140910000D02*
X105470000Y-142240000D01*
X105470000Y-143450000D02*
X105470000Y-143570000D01*
%TO.C,R9*%
X128170000Y-132620000D02*
X128500000Y-132620000D01*
X128170000Y-139160000D02*
X128170000Y-132620000D01*
X128500000Y-139160000D02*
X128170000Y-139160000D01*
X130580000Y-139160000D02*
X130910000Y-139160000D01*
X130910000Y-132620000D02*
X130580000Y-132620000D01*
X130910000Y-139160000D02*
X130910000Y-132620000D01*
%TO.C,JP2*%
X140910000Y-118110000D02*
X140910000Y-112970000D01*
X140910000Y-120710000D02*
X140910000Y-119380000D01*
X142240000Y-120710000D02*
X140910000Y-120710000D01*
X143570000Y-112970000D02*
X140910000Y-112970000D01*
X143570000Y-118110000D02*
X140910000Y-118110000D01*
X143570000Y-118110000D02*
X143570000Y-112970000D01*
%TO.C,U8*%
X74870000Y-194200000D02*
X74870000Y-199500000D01*
X74870000Y-199500000D02*
X92770000Y-199500000D01*
X92770000Y-194200000D02*
X74870000Y-194200000D01*
X92770000Y-195850000D02*
X92770000Y-194200000D01*
X92770000Y-199500000D02*
X92770000Y-197850000D01*
X92770000Y-197850000D02*
G75*
G02*
X92770000Y-195850000I0J1000000D01*
G01*
%TO.C,D1*%
X71375000Y-122985000D02*
X71375000Y-117475000D01*
X71375000Y-122985000D02*
X74675000Y-122985000D01*
X74675000Y-122985000D02*
X74675000Y-117475000D01*
%TO.C,J2*%
X53080000Y-149690000D02*
X53080000Y-158800000D01*
X53080000Y-167910000D02*
X53080000Y-158800000D01*
X62080000Y-155090000D02*
X62080000Y-154110000D01*
X62080000Y-159290000D02*
X62080000Y-158310000D01*
X62080000Y-163490000D02*
X62080000Y-162510000D01*
X62090000Y-149690000D02*
X53080000Y-149690000D01*
X62090000Y-150500000D02*
X62090000Y-149690000D01*
X62090000Y-167100000D02*
X62090000Y-167910000D01*
X62090000Y-167910000D02*
X53080000Y-167910000D01*
X62780000Y-167700000D02*
X63080000Y-167100000D01*
X63080000Y-167100000D02*
X63380000Y-167700000D01*
X63380000Y-167700000D02*
X62780000Y-167700000D01*
X65190000Y-152200000D02*
X66470000Y-152200000D01*
X65190000Y-152800000D02*
X66470000Y-152800000D01*
X65190000Y-156400000D02*
X66470000Y-156400000D01*
X65190000Y-157000000D02*
X66470000Y-157000000D01*
X65190000Y-160600000D02*
X66470000Y-160600000D01*
X65190000Y-161200000D02*
X66470000Y-161200000D01*
X65190000Y-164800000D02*
X66470000Y-164800000D01*
X65190000Y-165400000D02*
X66470000Y-165400000D01*
%TO.C,R3*%
X58320000Y-115065436D02*
X58320000Y-115519564D01*
X59790000Y-115065436D02*
X59790000Y-115519564D01*
%TO.C,U3*%
X87520000Y-153610000D02*
X87520000Y-163890000D01*
X87520000Y-163890000D02*
X89170000Y-163890000D01*
X91170000Y-163890000D02*
X92820000Y-163890000D01*
X92820000Y-153610000D02*
X87520000Y-153610000D01*
X92820000Y-163890000D02*
X92820000Y-153610000D01*
X89170000Y-163890000D02*
G75*
G02*
X91170000Y-163890000I1000000J0D01*
G01*
%TO.C,R7*%
X97060000Y-137060000D02*
X103600000Y-137060000D01*
X97060000Y-137390000D02*
X97060000Y-137060000D01*
X97060000Y-139470000D02*
X97060000Y-139800000D01*
X97060000Y-139800000D02*
X103600000Y-139800000D01*
X103600000Y-137060000D02*
X103600000Y-137390000D01*
X103600000Y-139800000D02*
X103600000Y-139470000D01*
%TO.C,C5*%
X72750000Y-109573748D02*
X72750000Y-110996252D01*
X74570000Y-109573748D02*
X74570000Y-110996252D01*
%TO.C,J4*%
X123130000Y-108010000D02*
X123130000Y-106680000D01*
X124460000Y-108010000D02*
X123130000Y-108010000D01*
X125730000Y-105350000D02*
X135950000Y-105350000D01*
X125730000Y-108010000D02*
X125730000Y-105350000D01*
X125730000Y-108010000D02*
X135950000Y-108010000D01*
X135950000Y-108010000D02*
X135950000Y-105350000D01*
%TO.C,C14*%
X96420000Y-156110000D02*
X99160000Y-156110000D01*
X96420000Y-161350000D02*
X96420000Y-156110000D01*
X96420000Y-161350000D02*
X99160000Y-161350000D01*
X99160000Y-161350000D02*
X99160000Y-156110000D01*
%TO.C,J5*%
X109160000Y-128210000D02*
X110490000Y-128210000D01*
X109160000Y-129540000D02*
X109160000Y-128210000D01*
X111760000Y-128210000D02*
X116900000Y-128210000D01*
X111760000Y-130870000D02*
X111760000Y-128210000D01*
X111760000Y-130870000D02*
X116900000Y-130870000D01*
X116900000Y-130870000D02*
X116900000Y-128210000D01*
%TO.C,C8*%
X103477748Y-107929000D02*
X104900252Y-107929000D01*
X103477748Y-109749000D02*
X104900252Y-109749000D01*
%TO.C,J10*%
X123130000Y-199330000D02*
X123130000Y-199450000D01*
X123130000Y-199450000D02*
X125790000Y-199450000D01*
X124460000Y-196790000D02*
X125790000Y-196790000D01*
X125790000Y-196790000D02*
X125790000Y-198120000D01*
X125790000Y-199330000D02*
X125790000Y-199450000D01*
%TO.C,U1*%
X128160000Y-151070000D02*
X128160000Y-176590000D01*
X128160000Y-176590000D02*
X133460000Y-176590000D01*
X129810000Y-151070000D02*
X128160000Y-151070000D01*
X133460000Y-151070000D02*
X131810000Y-151070000D01*
X133460000Y-176590000D02*
X133460000Y-151070000D01*
X131810000Y-151070000D02*
G75*
G02*
X129810000Y-151070000I-1000000J0D01*
G01*
%TO.C,C2*%
X73398748Y-124360000D02*
X73921252Y-124360000D01*
X73398748Y-125830000D02*
X73921252Y-125830000D01*
D12*
%TO.C,U5*%
X64735000Y-115560000D02*
X64735000Y-119710000D01*
X69885000Y-115560000D02*
X69885000Y-119710000D01*
D11*
X70140000Y-115375000D02*
X69810000Y-115135000D01*
X70140000Y-114895000D01*
X70140000Y-115375000D01*
G36*
X70140000Y-115375000D02*
G01*
X69810000Y-115135000D01*
X70140000Y-114895000D01*
X70140000Y-115375000D01*
G37*
%TO.C,C12*%
X118010000Y-159920000D02*
X118010000Y-165160000D01*
X120750000Y-159920000D02*
X118010000Y-159920000D01*
X120750000Y-159920000D02*
X120750000Y-165160000D01*
X120750000Y-165160000D02*
X118010000Y-165160000D01*
%TO.C,C17*%
X116740000Y-196750000D02*
X116740000Y-201990000D01*
X119480000Y-196750000D02*
X116740000Y-196750000D01*
X119480000Y-196750000D02*
X119480000Y-201990000D01*
X119480000Y-201990000D02*
X116740000Y-201990000D01*
%TO.C,R8*%
X74195000Y-154712936D02*
X74195000Y-155167064D01*
X75665000Y-154712936D02*
X75665000Y-155167064D01*
%TO.C,C10*%
X128170000Y-147220000D02*
X128170000Y-149960000D01*
X128170000Y-147220000D02*
X133410000Y-147220000D01*
X128170000Y-149960000D02*
X133410000Y-149960000D01*
X133410000Y-147220000D02*
X133410000Y-149960000D01*
%TO.C,C13*%
X100230000Y-144680000D02*
X100230000Y-147420000D01*
X100230000Y-144680000D02*
X105470000Y-144680000D01*
X100230000Y-147420000D02*
X105470000Y-147420000D01*
X105470000Y-144680000D02*
X105470000Y-147420000D01*
%TO.C,R11*%
X109760000Y-187860000D02*
X109760000Y-188190000D01*
X109760000Y-190600000D02*
X109760000Y-190270000D01*
X116300000Y-187860000D02*
X109760000Y-187860000D01*
X116300000Y-188190000D02*
X116300000Y-187860000D01*
X116300000Y-190270000D02*
X116300000Y-190600000D01*
X116300000Y-190600000D02*
X109760000Y-190600000D01*
%TO.C,U2*%
X100270000Y-151020000D02*
X100270000Y-152670000D01*
X100270000Y-154670000D02*
X100270000Y-156320000D01*
X100270000Y-156320000D02*
X123250000Y-156320000D01*
X123250000Y-151020000D02*
X100270000Y-151020000D01*
X123250000Y-156320000D02*
X123250000Y-151020000D01*
X100270000Y-152670000D02*
G75*
G02*
X100270000Y-154670000I0J-1000000D01*
G01*
%TO.C,C11*%
X136250000Y-157126252D02*
X136250000Y-155703748D01*
X138070000Y-157126252D02*
X138070000Y-155703748D01*
%TO.C,U4*%
X112970000Y-135780000D02*
X112970000Y-141080000D01*
X112970000Y-141080000D02*
X123250000Y-141080000D01*
X123250000Y-135780000D02*
X112970000Y-135780000D01*
X123250000Y-137430000D02*
X123250000Y-135780000D01*
X123250000Y-141080000D02*
X123250000Y-139430000D01*
X123250000Y-139430000D02*
G75*
G02*
X123250000Y-137430000I0J1000000D01*
G01*
%TO.C,U7*%
X134318000Y-190854000D02*
X134318000Y-191124000D01*
X134318000Y-197754000D02*
X134318000Y-197484000D01*
X140738000Y-190854000D02*
X134318000Y-190854000D01*
X140738000Y-197754000D02*
X134318000Y-197754000D01*
X132588000Y-191164000D02*
X132248000Y-190694000D01*
X132928000Y-190694000D01*
X132588000Y-191164000D01*
G36*
X132588000Y-191164000D02*
G01*
X132248000Y-190694000D01*
X132928000Y-190694000D01*
X132588000Y-191164000D01*
G37*
%TO.C,C1*%
X67816252Y-122915000D02*
X66393748Y-122915000D01*
X67816252Y-124735000D02*
X66393748Y-124735000D01*
%TO.C,C15*%
X124360000Y-135830000D02*
X124360000Y-141070000D01*
X127100000Y-135830000D02*
X124360000Y-135830000D01*
X127100000Y-135830000D02*
X127100000Y-141070000D01*
X127100000Y-141070000D02*
X124360000Y-141070000D01*
%TO.C,U9*%
X97730000Y-194200000D02*
X97730000Y-199500000D01*
X97730000Y-199500000D02*
X115630000Y-199500000D01*
X115630000Y-194200000D02*
X97730000Y-194200000D01*
X115630000Y-195850000D02*
X115630000Y-194200000D01*
X115630000Y-199500000D02*
X115630000Y-197850000D01*
X115630000Y-197850000D02*
G75*
G02*
X115630000Y-195850000I0J1000000D01*
G01*
%TD*%
M02*
