%TF.GenerationSoftware,KiCad,Pcbnew,9.0.0*%
%TF.CreationDate,2025-09-27T10:55:46-04:00*%
%TF.ProjectId,can_gauge_interface,63616e5f-6761-4756-9765-5f696e746572,0.1*%
%TF.SameCoordinates,Original*%
%TF.FileFunction,Legend,Top*%
%TF.FilePolarity,Positive*%
%FSLAX46Y46*%
G04 Gerber Fmt 4.6, Leading zero omitted, Abs format (unit mm)*
G04 Created by KiCad (PCBNEW 9.0.0) date 2025-09-27 10:55:46*
%MOMM*%
%LPD*%
G01*
G04 APERTURE LIST*
%ADD10C,0.200000*%
%ADD11C,0.120000*%
%ADD12C,0.150000*%
G04 APERTURE END LIST*
D10*
X72051578Y-110402742D02*
X71823006Y-110402742D01*
X71823006Y-110402742D02*
X71708720Y-110459885D01*
X71708720Y-110459885D02*
X71651578Y-110517028D01*
X71651578Y-110517028D02*
X71537292Y-110688457D01*
X71537292Y-110688457D02*
X71480149Y-110917028D01*
X71480149Y-110917028D02*
X71480149Y-111374171D01*
X71480149Y-111374171D02*
X71537292Y-111488457D01*
X71537292Y-111488457D02*
X71594435Y-111545600D01*
X71594435Y-111545600D02*
X71708720Y-111602742D01*
X71708720Y-111602742D02*
X71937292Y-111602742D01*
X71937292Y-111602742D02*
X72051578Y-111545600D01*
X72051578Y-111545600D02*
X72108720Y-111488457D01*
X72108720Y-111488457D02*
X72165863Y-111374171D01*
X72165863Y-111374171D02*
X72165863Y-111088457D01*
X72165863Y-111088457D02*
X72108720Y-110974171D01*
X72108720Y-110974171D02*
X72051578Y-110917028D01*
X72051578Y-110917028D02*
X71937292Y-110859885D01*
X71937292Y-110859885D02*
X71708720Y-110859885D01*
X71708720Y-110859885D02*
X71594435Y-110917028D01*
X71594435Y-110917028D02*
X71537292Y-110974171D01*
X71537292Y-110974171D02*
X71480149Y-111088457D01*
X72680149Y-111488457D02*
X72737292Y-111545600D01*
X72737292Y-111545600D02*
X72680149Y-111602742D01*
X72680149Y-111602742D02*
X72623006Y-111545600D01*
X72623006Y-111545600D02*
X72680149Y-111488457D01*
X72680149Y-111488457D02*
X72680149Y-111602742D01*
X73823006Y-110402742D02*
X73251578Y-110402742D01*
X73251578Y-110402742D02*
X73194435Y-110974171D01*
X73194435Y-110974171D02*
X73251578Y-110917028D01*
X73251578Y-110917028D02*
X73365864Y-110859885D01*
X73365864Y-110859885D02*
X73651578Y-110859885D01*
X73651578Y-110859885D02*
X73765864Y-110917028D01*
X73765864Y-110917028D02*
X73823006Y-110974171D01*
X73823006Y-110974171D02*
X73880149Y-111088457D01*
X73880149Y-111088457D02*
X73880149Y-111374171D01*
X73880149Y-111374171D02*
X73823006Y-111488457D01*
X73823006Y-111488457D02*
X73765864Y-111545600D01*
X73765864Y-111545600D02*
X73651578Y-111602742D01*
X73651578Y-111602742D02*
X73365864Y-111602742D01*
X73365864Y-111602742D02*
X73251578Y-111545600D01*
X73251578Y-111545600D02*
X73194435Y-111488457D01*
X41694286Y-196984885D02*
X42265715Y-196984885D01*
X41580000Y-197327742D02*
X41980000Y-196127742D01*
X41980000Y-196127742D02*
X42380000Y-197327742D01*
X42780000Y-197327742D02*
X42780000Y-196127742D01*
X42780000Y-196127742D02*
X43465714Y-197327742D01*
X43465714Y-197327742D02*
X43465714Y-196127742D01*
X43922857Y-196127742D02*
X44665714Y-196127742D01*
X44665714Y-196127742D02*
X44265714Y-196584885D01*
X44265714Y-196584885D02*
X44437143Y-196584885D01*
X44437143Y-196584885D02*
X44551429Y-196642028D01*
X44551429Y-196642028D02*
X44608571Y-196699171D01*
X44608571Y-196699171D02*
X44665714Y-196813457D01*
X44665714Y-196813457D02*
X44665714Y-197099171D01*
X44665714Y-197099171D02*
X44608571Y-197213457D01*
X44608571Y-197213457D02*
X44551429Y-197270600D01*
X44551429Y-197270600D02*
X44437143Y-197327742D01*
X44437143Y-197327742D02*
X44094286Y-197327742D01*
X44094286Y-197327742D02*
X43980000Y-197270600D01*
X43980000Y-197270600D02*
X43922857Y-197213457D01*
X42265714Y-123794885D02*
X42151429Y-123737742D01*
X42151429Y-123737742D02*
X41980000Y-123737742D01*
X41980000Y-123737742D02*
X41808571Y-123794885D01*
X41808571Y-123794885D02*
X41694286Y-123909171D01*
X41694286Y-123909171D02*
X41637143Y-124023457D01*
X41637143Y-124023457D02*
X41580000Y-124252028D01*
X41580000Y-124252028D02*
X41580000Y-124423457D01*
X41580000Y-124423457D02*
X41637143Y-124652028D01*
X41637143Y-124652028D02*
X41694286Y-124766314D01*
X41694286Y-124766314D02*
X41808571Y-124880600D01*
X41808571Y-124880600D02*
X41980000Y-124937742D01*
X41980000Y-124937742D02*
X42094286Y-124937742D01*
X42094286Y-124937742D02*
X42265714Y-124880600D01*
X42265714Y-124880600D02*
X42322857Y-124823457D01*
X42322857Y-124823457D02*
X42322857Y-124423457D01*
X42322857Y-124423457D02*
X42094286Y-124423457D01*
X42837143Y-124937742D02*
X42837143Y-123737742D01*
X42837143Y-123737742D02*
X43522857Y-124937742D01*
X43522857Y-124937742D02*
X43522857Y-123737742D01*
X44094286Y-124937742D02*
X44094286Y-123737742D01*
X44094286Y-123737742D02*
X44380000Y-123737742D01*
X44380000Y-123737742D02*
X44551429Y-123794885D01*
X44551429Y-123794885D02*
X44665714Y-123909171D01*
X44665714Y-123909171D02*
X44722857Y-124023457D01*
X44722857Y-124023457D02*
X44780000Y-124252028D01*
X44780000Y-124252028D02*
X44780000Y-124423457D01*
X44780000Y-124423457D02*
X44722857Y-124652028D01*
X44722857Y-124652028D02*
X44665714Y-124766314D01*
X44665714Y-124766314D02*
X44551429Y-124880600D01*
X44551429Y-124880600D02*
X44380000Y-124937742D01*
X44380000Y-124937742D02*
X44094286Y-124937742D01*
X84817143Y-187110600D02*
X84988572Y-187167742D01*
X84988572Y-187167742D02*
X85274286Y-187167742D01*
X85274286Y-187167742D02*
X85388572Y-187110600D01*
X85388572Y-187110600D02*
X85445714Y-187053457D01*
X85445714Y-187053457D02*
X85502857Y-186939171D01*
X85502857Y-186939171D02*
X85502857Y-186824885D01*
X85502857Y-186824885D02*
X85445714Y-186710600D01*
X85445714Y-186710600D02*
X85388572Y-186653457D01*
X85388572Y-186653457D02*
X85274286Y-186596314D01*
X85274286Y-186596314D02*
X85045714Y-186539171D01*
X85045714Y-186539171D02*
X84931429Y-186482028D01*
X84931429Y-186482028D02*
X84874286Y-186424885D01*
X84874286Y-186424885D02*
X84817143Y-186310600D01*
X84817143Y-186310600D02*
X84817143Y-186196314D01*
X84817143Y-186196314D02*
X84874286Y-186082028D01*
X84874286Y-186082028D02*
X84931429Y-186024885D01*
X84931429Y-186024885D02*
X85045714Y-185967742D01*
X85045714Y-185967742D02*
X85331429Y-185967742D01*
X85331429Y-185967742D02*
X85502857Y-186024885D01*
X86702857Y-187053457D02*
X86645714Y-187110600D01*
X86645714Y-187110600D02*
X86474286Y-187167742D01*
X86474286Y-187167742D02*
X86360000Y-187167742D01*
X86360000Y-187167742D02*
X86188571Y-187110600D01*
X86188571Y-187110600D02*
X86074286Y-186996314D01*
X86074286Y-186996314D02*
X86017143Y-186882028D01*
X86017143Y-186882028D02*
X85960000Y-186653457D01*
X85960000Y-186653457D02*
X85960000Y-186482028D01*
X85960000Y-186482028D02*
X86017143Y-186253457D01*
X86017143Y-186253457D02*
X86074286Y-186139171D01*
X86074286Y-186139171D02*
X86188571Y-186024885D01*
X86188571Y-186024885D02*
X86360000Y-185967742D01*
X86360000Y-185967742D02*
X86474286Y-185967742D01*
X86474286Y-185967742D02*
X86645714Y-186024885D01*
X86645714Y-186024885D02*
X86702857Y-186082028D01*
X87217143Y-187167742D02*
X87217143Y-185967742D01*
X87902857Y-187167742D02*
X87388571Y-186482028D01*
X87902857Y-185967742D02*
X87217143Y-186653457D01*
X127662708Y-182087742D02*
X127662708Y-180887742D01*
X127662708Y-180887742D02*
X127948422Y-180887742D01*
X127948422Y-180887742D02*
X128119851Y-180944885D01*
X128119851Y-180944885D02*
X128234136Y-181059171D01*
X128234136Y-181059171D02*
X128291279Y-181173457D01*
X128291279Y-181173457D02*
X128348422Y-181402028D01*
X128348422Y-181402028D02*
X128348422Y-181573457D01*
X128348422Y-181573457D02*
X128291279Y-181802028D01*
X128291279Y-181802028D02*
X128234136Y-181916314D01*
X128234136Y-181916314D02*
X128119851Y-182030600D01*
X128119851Y-182030600D02*
X127948422Y-182087742D01*
X127948422Y-182087742D02*
X127662708Y-182087742D01*
X128805565Y-181744885D02*
X129376994Y-181744885D01*
X128691279Y-182087742D02*
X129091279Y-180887742D01*
X129091279Y-180887742D02*
X129491279Y-182087742D01*
X130576993Y-181973457D02*
X130519850Y-182030600D01*
X130519850Y-182030600D02*
X130348422Y-182087742D01*
X130348422Y-182087742D02*
X130234136Y-182087742D01*
X130234136Y-182087742D02*
X130062707Y-182030600D01*
X130062707Y-182030600D02*
X129948422Y-181916314D01*
X129948422Y-181916314D02*
X129891279Y-181802028D01*
X129891279Y-181802028D02*
X129834136Y-181573457D01*
X129834136Y-181573457D02*
X129834136Y-181402028D01*
X129834136Y-181402028D02*
X129891279Y-181173457D01*
X129891279Y-181173457D02*
X129948422Y-181059171D01*
X129948422Y-181059171D02*
X130062707Y-180944885D01*
X130062707Y-180944885D02*
X130234136Y-180887742D01*
X130234136Y-180887742D02*
X130348422Y-180887742D01*
X130348422Y-180887742D02*
X130519850Y-180944885D01*
X130519850Y-180944885D02*
X130576993Y-181002028D01*
X131719850Y-182087742D02*
X131034136Y-182087742D01*
X131376993Y-182087742D02*
X131376993Y-180887742D01*
X131376993Y-180887742D02*
X131262707Y-181059171D01*
X131262707Y-181059171D02*
X131148422Y-181173457D01*
X131148422Y-181173457D02*
X131034136Y-181230600D01*
X166725714Y-82519885D02*
X166611429Y-82462742D01*
X166611429Y-82462742D02*
X166440000Y-82462742D01*
X166440000Y-82462742D02*
X166268571Y-82519885D01*
X166268571Y-82519885D02*
X166154286Y-82634171D01*
X166154286Y-82634171D02*
X166097143Y-82748457D01*
X166097143Y-82748457D02*
X166040000Y-82977028D01*
X166040000Y-82977028D02*
X166040000Y-83148457D01*
X166040000Y-83148457D02*
X166097143Y-83377028D01*
X166097143Y-83377028D02*
X166154286Y-83491314D01*
X166154286Y-83491314D02*
X166268571Y-83605600D01*
X166268571Y-83605600D02*
X166440000Y-83662742D01*
X166440000Y-83662742D02*
X166554286Y-83662742D01*
X166554286Y-83662742D02*
X166725714Y-83605600D01*
X166725714Y-83605600D02*
X166782857Y-83548457D01*
X166782857Y-83548457D02*
X166782857Y-83148457D01*
X166782857Y-83148457D02*
X166554286Y-83148457D01*
X167297143Y-83662742D02*
X167297143Y-82462742D01*
X167297143Y-82462742D02*
X167982857Y-83662742D01*
X167982857Y-83662742D02*
X167982857Y-82462742D01*
X168554286Y-83662742D02*
X168554286Y-82462742D01*
X168554286Y-82462742D02*
X168840000Y-82462742D01*
X168840000Y-82462742D02*
X169011429Y-82519885D01*
X169011429Y-82519885D02*
X169125714Y-82634171D01*
X169125714Y-82634171D02*
X169182857Y-82748457D01*
X169182857Y-82748457D02*
X169240000Y-82977028D01*
X169240000Y-82977028D02*
X169240000Y-83148457D01*
X169240000Y-83148457D02*
X169182857Y-83377028D01*
X169182857Y-83377028D02*
X169125714Y-83491314D01*
X169125714Y-83491314D02*
X169011429Y-83605600D01*
X169011429Y-83605600D02*
X168840000Y-83662742D01*
X168840000Y-83662742D02*
X168554286Y-83662742D01*
X171232292Y-83662742D02*
X171232292Y-82462742D01*
X171232292Y-82462742D02*
X171518006Y-82462742D01*
X171518006Y-82462742D02*
X171689435Y-82519885D01*
X171689435Y-82519885D02*
X171803720Y-82634171D01*
X171803720Y-82634171D02*
X171860863Y-82748457D01*
X171860863Y-82748457D02*
X171918006Y-82977028D01*
X171918006Y-82977028D02*
X171918006Y-83148457D01*
X171918006Y-83148457D02*
X171860863Y-83377028D01*
X171860863Y-83377028D02*
X171803720Y-83491314D01*
X171803720Y-83491314D02*
X171689435Y-83605600D01*
X171689435Y-83605600D02*
X171518006Y-83662742D01*
X171518006Y-83662742D02*
X171232292Y-83662742D01*
X172375149Y-83319885D02*
X172946578Y-83319885D01*
X172260863Y-83662742D02*
X172660863Y-82462742D01*
X172660863Y-82462742D02*
X173060863Y-83662742D01*
X173289434Y-82462742D02*
X173975149Y-82462742D01*
X173632291Y-83662742D02*
X173632291Y-82462742D01*
X35979286Y-196984885D02*
X36550715Y-196984885D01*
X35865000Y-197327742D02*
X36265000Y-196127742D01*
X36265000Y-196127742D02*
X36665000Y-197327742D01*
X37065000Y-197327742D02*
X37065000Y-196127742D01*
X37065000Y-196127742D02*
X37750714Y-197327742D01*
X37750714Y-197327742D02*
X37750714Y-196127742D01*
X38836429Y-196527742D02*
X38836429Y-197327742D01*
X38550714Y-196070600D02*
X38265000Y-196927742D01*
X38265000Y-196927742D02*
X39007857Y-196927742D01*
X80420863Y-110459885D02*
X80306578Y-110402742D01*
X80306578Y-110402742D02*
X80135149Y-110402742D01*
X80135149Y-110402742D02*
X79963720Y-110459885D01*
X79963720Y-110459885D02*
X79849435Y-110574171D01*
X79849435Y-110574171D02*
X79792292Y-110688457D01*
X79792292Y-110688457D02*
X79735149Y-110917028D01*
X79735149Y-110917028D02*
X79735149Y-111088457D01*
X79735149Y-111088457D02*
X79792292Y-111317028D01*
X79792292Y-111317028D02*
X79849435Y-111431314D01*
X79849435Y-111431314D02*
X79963720Y-111545600D01*
X79963720Y-111545600D02*
X80135149Y-111602742D01*
X80135149Y-111602742D02*
X80249435Y-111602742D01*
X80249435Y-111602742D02*
X80420863Y-111545600D01*
X80420863Y-111545600D02*
X80478006Y-111488457D01*
X80478006Y-111488457D02*
X80478006Y-111088457D01*
X80478006Y-111088457D02*
X80249435Y-111088457D01*
X80992292Y-111602742D02*
X80992292Y-110402742D01*
X80992292Y-110402742D02*
X81678006Y-111602742D01*
X81678006Y-111602742D02*
X81678006Y-110402742D01*
X82249435Y-111602742D02*
X82249435Y-110402742D01*
X82249435Y-110402742D02*
X82535149Y-110402742D01*
X82535149Y-110402742D02*
X82706578Y-110459885D01*
X82706578Y-110459885D02*
X82820863Y-110574171D01*
X82820863Y-110574171D02*
X82878006Y-110688457D01*
X82878006Y-110688457D02*
X82935149Y-110917028D01*
X82935149Y-110917028D02*
X82935149Y-111088457D01*
X82935149Y-111088457D02*
X82878006Y-111317028D01*
X82878006Y-111317028D02*
X82820863Y-111431314D01*
X82820863Y-111431314D02*
X82706578Y-111545600D01*
X82706578Y-111545600D02*
X82535149Y-111602742D01*
X82535149Y-111602742D02*
X82249435Y-111602742D01*
X78361278Y-187167742D02*
X78361278Y-185967742D01*
X78361278Y-185967742D02*
X78761278Y-186824885D01*
X78761278Y-186824885D02*
X79161278Y-185967742D01*
X79161278Y-185967742D02*
X79161278Y-187167742D01*
X79961278Y-185967742D02*
X80189850Y-185967742D01*
X80189850Y-185967742D02*
X80304135Y-186024885D01*
X80304135Y-186024885D02*
X80418421Y-186139171D01*
X80418421Y-186139171D02*
X80475564Y-186367742D01*
X80475564Y-186367742D02*
X80475564Y-186767742D01*
X80475564Y-186767742D02*
X80418421Y-186996314D01*
X80418421Y-186996314D02*
X80304135Y-187110600D01*
X80304135Y-187110600D02*
X80189850Y-187167742D01*
X80189850Y-187167742D02*
X79961278Y-187167742D01*
X79961278Y-187167742D02*
X79846993Y-187110600D01*
X79846993Y-187110600D02*
X79732707Y-186996314D01*
X79732707Y-186996314D02*
X79675564Y-186767742D01*
X79675564Y-186767742D02*
X79675564Y-186367742D01*
X79675564Y-186367742D02*
X79732707Y-186139171D01*
X79732707Y-186139171D02*
X79846993Y-186024885D01*
X79846993Y-186024885D02*
X79961278Y-185967742D01*
X80932707Y-187110600D02*
X81104136Y-187167742D01*
X81104136Y-187167742D02*
X81389850Y-187167742D01*
X81389850Y-187167742D02*
X81504136Y-187110600D01*
X81504136Y-187110600D02*
X81561278Y-187053457D01*
X81561278Y-187053457D02*
X81618421Y-186939171D01*
X81618421Y-186939171D02*
X81618421Y-186824885D01*
X81618421Y-186824885D02*
X81561278Y-186710600D01*
X81561278Y-186710600D02*
X81504136Y-186653457D01*
X81504136Y-186653457D02*
X81389850Y-186596314D01*
X81389850Y-186596314D02*
X81161278Y-186539171D01*
X81161278Y-186539171D02*
X81046993Y-186482028D01*
X81046993Y-186482028D02*
X80989850Y-186424885D01*
X80989850Y-186424885D02*
X80932707Y-186310600D01*
X80932707Y-186310600D02*
X80932707Y-186196314D01*
X80932707Y-186196314D02*
X80989850Y-186082028D01*
X80989850Y-186082028D02*
X81046993Y-186024885D01*
X81046993Y-186024885D02*
X81161278Y-185967742D01*
X81161278Y-185967742D02*
X81446993Y-185967742D01*
X81446993Y-185967742D02*
X81618421Y-186024885D01*
X82132707Y-187167742D02*
X82132707Y-185967742D01*
X48035863Y-206344885D02*
X47921578Y-206287742D01*
X47921578Y-206287742D02*
X47750149Y-206287742D01*
X47750149Y-206287742D02*
X47578720Y-206344885D01*
X47578720Y-206344885D02*
X47464435Y-206459171D01*
X47464435Y-206459171D02*
X47407292Y-206573457D01*
X47407292Y-206573457D02*
X47350149Y-206802028D01*
X47350149Y-206802028D02*
X47350149Y-206973457D01*
X47350149Y-206973457D02*
X47407292Y-207202028D01*
X47407292Y-207202028D02*
X47464435Y-207316314D01*
X47464435Y-207316314D02*
X47578720Y-207430600D01*
X47578720Y-207430600D02*
X47750149Y-207487742D01*
X47750149Y-207487742D02*
X47864435Y-207487742D01*
X47864435Y-207487742D02*
X48035863Y-207430600D01*
X48035863Y-207430600D02*
X48093006Y-207373457D01*
X48093006Y-207373457D02*
X48093006Y-206973457D01*
X48093006Y-206973457D02*
X47864435Y-206973457D01*
X48607292Y-207487742D02*
X48607292Y-206287742D01*
X48607292Y-206287742D02*
X49293006Y-207487742D01*
X49293006Y-207487742D02*
X49293006Y-206287742D01*
X49864435Y-207487742D02*
X49864435Y-206287742D01*
X49864435Y-206287742D02*
X50150149Y-206287742D01*
X50150149Y-206287742D02*
X50321578Y-206344885D01*
X50321578Y-206344885D02*
X50435863Y-206459171D01*
X50435863Y-206459171D02*
X50493006Y-206573457D01*
X50493006Y-206573457D02*
X50550149Y-206802028D01*
X50550149Y-206802028D02*
X50550149Y-206973457D01*
X50550149Y-206973457D02*
X50493006Y-207202028D01*
X50493006Y-207202028D02*
X50435863Y-207316314D01*
X50435863Y-207316314D02*
X50321578Y-207430600D01*
X50321578Y-207430600D02*
X50150149Y-207487742D01*
X50150149Y-207487742D02*
X49864435Y-207487742D01*
X47458006Y-137523457D02*
X47400863Y-137580600D01*
X47400863Y-137580600D02*
X47229435Y-137637742D01*
X47229435Y-137637742D02*
X47115149Y-137637742D01*
X47115149Y-137637742D02*
X46943720Y-137580600D01*
X46943720Y-137580600D02*
X46829435Y-137466314D01*
X46829435Y-137466314D02*
X46772292Y-137352028D01*
X46772292Y-137352028D02*
X46715149Y-137123457D01*
X46715149Y-137123457D02*
X46715149Y-136952028D01*
X46715149Y-136952028D02*
X46772292Y-136723457D01*
X46772292Y-136723457D02*
X46829435Y-136609171D01*
X46829435Y-136609171D02*
X46943720Y-136494885D01*
X46943720Y-136494885D02*
X47115149Y-136437742D01*
X47115149Y-136437742D02*
X47229435Y-136437742D01*
X47229435Y-136437742D02*
X47400863Y-136494885D01*
X47400863Y-136494885D02*
X47458006Y-136552028D01*
X47915149Y-137294885D02*
X48486578Y-137294885D01*
X47800863Y-137637742D02*
X48200863Y-136437742D01*
X48200863Y-136437742D02*
X48600863Y-137637742D01*
X49000863Y-137637742D02*
X49000863Y-136437742D01*
X49000863Y-136437742D02*
X49686577Y-137637742D01*
X49686577Y-137637742D02*
X49686577Y-136437742D01*
X49972292Y-137752028D02*
X50886577Y-137752028D01*
X51172292Y-137637742D02*
X51172292Y-136437742D01*
X51172292Y-137009171D02*
X51858006Y-137009171D01*
X51858006Y-137637742D02*
X51858006Y-136437742D01*
X156066278Y-83662742D02*
X156066278Y-82462742D01*
X156066278Y-82462742D02*
X156466278Y-83319885D01*
X156466278Y-83319885D02*
X156866278Y-82462742D01*
X156866278Y-82462742D02*
X156866278Y-83662742D01*
X158123421Y-83548457D02*
X158066278Y-83605600D01*
X158066278Y-83605600D02*
X157894850Y-83662742D01*
X157894850Y-83662742D02*
X157780564Y-83662742D01*
X157780564Y-83662742D02*
X157609135Y-83605600D01*
X157609135Y-83605600D02*
X157494850Y-83491314D01*
X157494850Y-83491314D02*
X157437707Y-83377028D01*
X157437707Y-83377028D02*
X157380564Y-83148457D01*
X157380564Y-83148457D02*
X157380564Y-82977028D01*
X157380564Y-82977028D02*
X157437707Y-82748457D01*
X157437707Y-82748457D02*
X157494850Y-82634171D01*
X157494850Y-82634171D02*
X157609135Y-82519885D01*
X157609135Y-82519885D02*
X157780564Y-82462742D01*
X157780564Y-82462742D02*
X157894850Y-82462742D01*
X157894850Y-82462742D02*
X158066278Y-82519885D01*
X158066278Y-82519885D02*
X158123421Y-82577028D01*
X159209135Y-83662742D02*
X158637707Y-83662742D01*
X158637707Y-83662742D02*
X158637707Y-82462742D01*
X160294850Y-83662742D02*
X159894850Y-83091314D01*
X159609136Y-83662742D02*
X159609136Y-82462742D01*
X159609136Y-82462742D02*
X160066279Y-82462742D01*
X160066279Y-82462742D02*
X160180564Y-82519885D01*
X160180564Y-82519885D02*
X160237707Y-82577028D01*
X160237707Y-82577028D02*
X160294850Y-82691314D01*
X160294850Y-82691314D02*
X160294850Y-82862742D01*
X160294850Y-82862742D02*
X160237707Y-82977028D01*
X160237707Y-82977028D02*
X160180564Y-83034171D01*
X160180564Y-83034171D02*
X160066279Y-83091314D01*
X160066279Y-83091314D02*
X159609136Y-83091314D01*
X155900564Y-82129600D02*
X160403422Y-82129600D01*
X32630863Y-145962742D02*
X33316578Y-145962742D01*
X32973720Y-147162742D02*
X32973720Y-145962742D01*
X34230864Y-147162742D02*
X34230864Y-146534171D01*
X34230864Y-146534171D02*
X34173721Y-146419885D01*
X34173721Y-146419885D02*
X34059435Y-146362742D01*
X34059435Y-146362742D02*
X33830864Y-146362742D01*
X33830864Y-146362742D02*
X33716578Y-146419885D01*
X34230864Y-147105600D02*
X34116578Y-147162742D01*
X34116578Y-147162742D02*
X33830864Y-147162742D01*
X33830864Y-147162742D02*
X33716578Y-147105600D01*
X33716578Y-147105600D02*
X33659435Y-146991314D01*
X33659435Y-146991314D02*
X33659435Y-146877028D01*
X33659435Y-146877028D02*
X33716578Y-146762742D01*
X33716578Y-146762742D02*
X33830864Y-146705600D01*
X33830864Y-146705600D02*
X34116578Y-146705600D01*
X34116578Y-146705600D02*
X34230864Y-146648457D01*
X35316578Y-147105600D02*
X35202292Y-147162742D01*
X35202292Y-147162742D02*
X34973720Y-147162742D01*
X34973720Y-147162742D02*
X34859435Y-147105600D01*
X34859435Y-147105600D02*
X34802292Y-147048457D01*
X34802292Y-147048457D02*
X34745149Y-146934171D01*
X34745149Y-146934171D02*
X34745149Y-146591314D01*
X34745149Y-146591314D02*
X34802292Y-146477028D01*
X34802292Y-146477028D02*
X34859435Y-146419885D01*
X34859435Y-146419885D02*
X34973720Y-146362742D01*
X34973720Y-146362742D02*
X35202292Y-146362742D01*
X35202292Y-146362742D02*
X35316578Y-146419885D01*
X35830863Y-147162742D02*
X35830863Y-145962742D01*
X36345149Y-147162742D02*
X36345149Y-146534171D01*
X36345149Y-146534171D02*
X36288006Y-146419885D01*
X36288006Y-146419885D02*
X36173720Y-146362742D01*
X36173720Y-146362742D02*
X36002291Y-146362742D01*
X36002291Y-146362742D02*
X35888006Y-146419885D01*
X35888006Y-146419885D02*
X35830863Y-146477028D01*
X47458006Y-134348457D02*
X47400863Y-134405600D01*
X47400863Y-134405600D02*
X47229435Y-134462742D01*
X47229435Y-134462742D02*
X47115149Y-134462742D01*
X47115149Y-134462742D02*
X46943720Y-134405600D01*
X46943720Y-134405600D02*
X46829435Y-134291314D01*
X46829435Y-134291314D02*
X46772292Y-134177028D01*
X46772292Y-134177028D02*
X46715149Y-133948457D01*
X46715149Y-133948457D02*
X46715149Y-133777028D01*
X46715149Y-133777028D02*
X46772292Y-133548457D01*
X46772292Y-133548457D02*
X46829435Y-133434171D01*
X46829435Y-133434171D02*
X46943720Y-133319885D01*
X46943720Y-133319885D02*
X47115149Y-133262742D01*
X47115149Y-133262742D02*
X47229435Y-133262742D01*
X47229435Y-133262742D02*
X47400863Y-133319885D01*
X47400863Y-133319885D02*
X47458006Y-133377028D01*
X47915149Y-134119885D02*
X48486578Y-134119885D01*
X47800863Y-134462742D02*
X48200863Y-133262742D01*
X48200863Y-133262742D02*
X48600863Y-134462742D01*
X49000863Y-134462742D02*
X49000863Y-133262742D01*
X49000863Y-133262742D02*
X49686577Y-134462742D01*
X49686577Y-134462742D02*
X49686577Y-133262742D01*
X49972292Y-134577028D02*
X50886577Y-134577028D01*
X51743720Y-134462742D02*
X51172292Y-134462742D01*
X51172292Y-134462742D02*
X51172292Y-133262742D01*
X176363006Y-83548457D02*
X176305863Y-83605600D01*
X176305863Y-83605600D02*
X176134435Y-83662742D01*
X176134435Y-83662742D02*
X176020149Y-83662742D01*
X176020149Y-83662742D02*
X175848720Y-83605600D01*
X175848720Y-83605600D02*
X175734435Y-83491314D01*
X175734435Y-83491314D02*
X175677292Y-83377028D01*
X175677292Y-83377028D02*
X175620149Y-83148457D01*
X175620149Y-83148457D02*
X175620149Y-82977028D01*
X175620149Y-82977028D02*
X175677292Y-82748457D01*
X175677292Y-82748457D02*
X175734435Y-82634171D01*
X175734435Y-82634171D02*
X175848720Y-82519885D01*
X175848720Y-82519885D02*
X176020149Y-82462742D01*
X176020149Y-82462742D02*
X176134435Y-82462742D01*
X176134435Y-82462742D02*
X176305863Y-82519885D01*
X176305863Y-82519885D02*
X176363006Y-82577028D01*
X177448720Y-83662742D02*
X176877292Y-83662742D01*
X176877292Y-83662742D02*
X176877292Y-82462742D01*
X177848721Y-83662742D02*
X177848721Y-82462742D01*
X178534435Y-83662742D02*
X178020149Y-82977028D01*
X178534435Y-82462742D02*
X177848721Y-83148457D01*
X90587292Y-187167742D02*
X90587292Y-185967742D01*
X90587292Y-185967742D02*
X90987292Y-186824885D01*
X90987292Y-186824885D02*
X91387292Y-185967742D01*
X91387292Y-185967742D02*
X91387292Y-187167742D01*
X91958721Y-187167742D02*
X91958721Y-185967742D01*
X92473007Y-187110600D02*
X92644436Y-187167742D01*
X92644436Y-187167742D02*
X92930150Y-187167742D01*
X92930150Y-187167742D02*
X93044436Y-187110600D01*
X93044436Y-187110600D02*
X93101578Y-187053457D01*
X93101578Y-187053457D02*
X93158721Y-186939171D01*
X93158721Y-186939171D02*
X93158721Y-186824885D01*
X93158721Y-186824885D02*
X93101578Y-186710600D01*
X93101578Y-186710600D02*
X93044436Y-186653457D01*
X93044436Y-186653457D02*
X92930150Y-186596314D01*
X92930150Y-186596314D02*
X92701578Y-186539171D01*
X92701578Y-186539171D02*
X92587293Y-186482028D01*
X92587293Y-186482028D02*
X92530150Y-186424885D01*
X92530150Y-186424885D02*
X92473007Y-186310600D01*
X92473007Y-186310600D02*
X92473007Y-186196314D01*
X92473007Y-186196314D02*
X92530150Y-186082028D01*
X92530150Y-186082028D02*
X92587293Y-186024885D01*
X92587293Y-186024885D02*
X92701578Y-185967742D01*
X92701578Y-185967742D02*
X92987293Y-185967742D01*
X92987293Y-185967742D02*
X93158721Y-186024885D01*
X93901578Y-185967742D02*
X94130150Y-185967742D01*
X94130150Y-185967742D02*
X94244435Y-186024885D01*
X94244435Y-186024885D02*
X94358721Y-186139171D01*
X94358721Y-186139171D02*
X94415864Y-186367742D01*
X94415864Y-186367742D02*
X94415864Y-186767742D01*
X94415864Y-186767742D02*
X94358721Y-186996314D01*
X94358721Y-186996314D02*
X94244435Y-187110600D01*
X94244435Y-187110600D02*
X94130150Y-187167742D01*
X94130150Y-187167742D02*
X93901578Y-187167742D01*
X93901578Y-187167742D02*
X93787293Y-187110600D01*
X93787293Y-187110600D02*
X93673007Y-186996314D01*
X93673007Y-186996314D02*
X93615864Y-186767742D01*
X93615864Y-186767742D02*
X93615864Y-186367742D01*
X93615864Y-186367742D02*
X93673007Y-186139171D01*
X93673007Y-186139171D02*
X93787293Y-186024885D01*
X93787293Y-186024885D02*
X93901578Y-185967742D01*
X42329286Y-216669885D02*
X42900715Y-216669885D01*
X42215000Y-217012742D02*
X42615000Y-215812742D01*
X42615000Y-215812742D02*
X43015000Y-217012742D01*
X43415000Y-217012742D02*
X43415000Y-215812742D01*
X43415000Y-215812742D02*
X44100714Y-217012742D01*
X44100714Y-217012742D02*
X44100714Y-215812742D01*
X44615000Y-215927028D02*
X44672143Y-215869885D01*
X44672143Y-215869885D02*
X44786429Y-215812742D01*
X44786429Y-215812742D02*
X45072143Y-215812742D01*
X45072143Y-215812742D02*
X45186429Y-215869885D01*
X45186429Y-215869885D02*
X45243571Y-215927028D01*
X45243571Y-215927028D02*
X45300714Y-216041314D01*
X45300714Y-216041314D02*
X45300714Y-216155600D01*
X45300714Y-216155600D02*
X45243571Y-216327028D01*
X45243571Y-216327028D02*
X44557857Y-217012742D01*
X44557857Y-217012742D02*
X45300714Y-217012742D01*
X72558572Y-103982742D02*
X72558572Y-102782742D01*
X72558572Y-102782742D02*
X73015715Y-102782742D01*
X73015715Y-102782742D02*
X73130000Y-102839885D01*
X73130000Y-102839885D02*
X73187143Y-102897028D01*
X73187143Y-102897028D02*
X73244286Y-103011314D01*
X73244286Y-103011314D02*
X73244286Y-103182742D01*
X73244286Y-103182742D02*
X73187143Y-103297028D01*
X73187143Y-103297028D02*
X73130000Y-103354171D01*
X73130000Y-103354171D02*
X73015715Y-103411314D01*
X73015715Y-103411314D02*
X72558572Y-103411314D01*
X73930000Y-103982742D02*
X73815715Y-103925600D01*
X73815715Y-103925600D02*
X73758572Y-103868457D01*
X73758572Y-103868457D02*
X73701429Y-103754171D01*
X73701429Y-103754171D02*
X73701429Y-103411314D01*
X73701429Y-103411314D02*
X73758572Y-103297028D01*
X73758572Y-103297028D02*
X73815715Y-103239885D01*
X73815715Y-103239885D02*
X73930000Y-103182742D01*
X73930000Y-103182742D02*
X74101429Y-103182742D01*
X74101429Y-103182742D02*
X74215715Y-103239885D01*
X74215715Y-103239885D02*
X74272858Y-103297028D01*
X74272858Y-103297028D02*
X74330000Y-103411314D01*
X74330000Y-103411314D02*
X74330000Y-103754171D01*
X74330000Y-103754171D02*
X74272858Y-103868457D01*
X74272858Y-103868457D02*
X74215715Y-103925600D01*
X74215715Y-103925600D02*
X74101429Y-103982742D01*
X74101429Y-103982742D02*
X73930000Y-103982742D01*
X74730000Y-103182742D02*
X74958572Y-103982742D01*
X74958572Y-103982742D02*
X75187143Y-103411314D01*
X75187143Y-103411314D02*
X75415714Y-103982742D01*
X75415714Y-103982742D02*
X75644286Y-103182742D01*
X76558572Y-103925600D02*
X76444286Y-103982742D01*
X76444286Y-103982742D02*
X76215715Y-103982742D01*
X76215715Y-103982742D02*
X76101429Y-103925600D01*
X76101429Y-103925600D02*
X76044286Y-103811314D01*
X76044286Y-103811314D02*
X76044286Y-103354171D01*
X76044286Y-103354171D02*
X76101429Y-103239885D01*
X76101429Y-103239885D02*
X76215715Y-103182742D01*
X76215715Y-103182742D02*
X76444286Y-103182742D01*
X76444286Y-103182742D02*
X76558572Y-103239885D01*
X76558572Y-103239885D02*
X76615715Y-103354171D01*
X76615715Y-103354171D02*
X76615715Y-103468457D01*
X76615715Y-103468457D02*
X76044286Y-103582742D01*
X77130000Y-103982742D02*
X77130000Y-103182742D01*
X77130000Y-103411314D02*
X77187143Y-103297028D01*
X77187143Y-103297028D02*
X77244286Y-103239885D01*
X77244286Y-103239885D02*
X77358571Y-103182742D01*
X77358571Y-103182742D02*
X77472857Y-103182742D01*
X162913720Y-82462742D02*
X162342292Y-82462742D01*
X162342292Y-82462742D02*
X162285149Y-83034171D01*
X162285149Y-83034171D02*
X162342292Y-82977028D01*
X162342292Y-82977028D02*
X162456578Y-82919885D01*
X162456578Y-82919885D02*
X162742292Y-82919885D01*
X162742292Y-82919885D02*
X162856578Y-82977028D01*
X162856578Y-82977028D02*
X162913720Y-83034171D01*
X162913720Y-83034171D02*
X162970863Y-83148457D01*
X162970863Y-83148457D02*
X162970863Y-83434171D01*
X162970863Y-83434171D02*
X162913720Y-83548457D01*
X162913720Y-83548457D02*
X162856578Y-83605600D01*
X162856578Y-83605600D02*
X162742292Y-83662742D01*
X162742292Y-83662742D02*
X162456578Y-83662742D01*
X162456578Y-83662742D02*
X162342292Y-83605600D01*
X162342292Y-83605600D02*
X162285149Y-83548457D01*
X163313720Y-82462742D02*
X163713720Y-83662742D01*
X163713720Y-83662742D02*
X164113720Y-82462742D01*
X84360000Y-208122742D02*
X84360000Y-206922742D01*
X84360000Y-206922742D02*
X84645714Y-206922742D01*
X84645714Y-206922742D02*
X84817143Y-206979885D01*
X84817143Y-206979885D02*
X84931428Y-207094171D01*
X84931428Y-207094171D02*
X84988571Y-207208457D01*
X84988571Y-207208457D02*
X85045714Y-207437028D01*
X85045714Y-207437028D02*
X85045714Y-207608457D01*
X85045714Y-207608457D02*
X84988571Y-207837028D01*
X84988571Y-207837028D02*
X84931428Y-207951314D01*
X84931428Y-207951314D02*
X84817143Y-208065600D01*
X84817143Y-208065600D02*
X84645714Y-208122742D01*
X84645714Y-208122742D02*
X84360000Y-208122742D01*
X85502857Y-207779885D02*
X86074286Y-207779885D01*
X85388571Y-208122742D02*
X85788571Y-206922742D01*
X85788571Y-206922742D02*
X86188571Y-208122742D01*
X87274285Y-208008457D02*
X87217142Y-208065600D01*
X87217142Y-208065600D02*
X87045714Y-208122742D01*
X87045714Y-208122742D02*
X86931428Y-208122742D01*
X86931428Y-208122742D02*
X86759999Y-208065600D01*
X86759999Y-208065600D02*
X86645714Y-207951314D01*
X86645714Y-207951314D02*
X86588571Y-207837028D01*
X86588571Y-207837028D02*
X86531428Y-207608457D01*
X86531428Y-207608457D02*
X86531428Y-207437028D01*
X86531428Y-207437028D02*
X86588571Y-207208457D01*
X86588571Y-207208457D02*
X86645714Y-207094171D01*
X86645714Y-207094171D02*
X86759999Y-206979885D01*
X86759999Y-206979885D02*
X86931428Y-206922742D01*
X86931428Y-206922742D02*
X87045714Y-206922742D01*
X87045714Y-206922742D02*
X87217142Y-206979885D01*
X87217142Y-206979885D02*
X87274285Y-207037028D01*
X87731428Y-207037028D02*
X87788571Y-206979885D01*
X87788571Y-206979885D02*
X87902857Y-206922742D01*
X87902857Y-206922742D02*
X88188571Y-206922742D01*
X88188571Y-206922742D02*
X88302857Y-206979885D01*
X88302857Y-206979885D02*
X88359999Y-207037028D01*
X88359999Y-207037028D02*
X88417142Y-207151314D01*
X88417142Y-207151314D02*
X88417142Y-207265600D01*
X88417142Y-207265600D02*
X88359999Y-207437028D01*
X88359999Y-207437028D02*
X87674285Y-208122742D01*
X87674285Y-208122742D02*
X88417142Y-208122742D01*
X35979286Y-216669885D02*
X36550715Y-216669885D01*
X35865000Y-217012742D02*
X36265000Y-215812742D01*
X36265000Y-215812742D02*
X36665000Y-217012742D01*
X37065000Y-217012742D02*
X37065000Y-215812742D01*
X37065000Y-215812742D02*
X37750714Y-217012742D01*
X37750714Y-217012742D02*
X37750714Y-215812742D01*
X38950714Y-217012742D02*
X38265000Y-217012742D01*
X38607857Y-217012742D02*
X38607857Y-215812742D01*
X38607857Y-215812742D02*
X38493571Y-215984171D01*
X38493571Y-215984171D02*
X38379286Y-216098457D01*
X38379286Y-216098457D02*
X38265000Y-216155600D01*
X77188720Y-110402742D02*
X76617292Y-110402742D01*
X76617292Y-110402742D02*
X76560149Y-110974171D01*
X76560149Y-110974171D02*
X76617292Y-110917028D01*
X76617292Y-110917028D02*
X76731578Y-110859885D01*
X76731578Y-110859885D02*
X77017292Y-110859885D01*
X77017292Y-110859885D02*
X77131578Y-110917028D01*
X77131578Y-110917028D02*
X77188720Y-110974171D01*
X77188720Y-110974171D02*
X77245863Y-111088457D01*
X77245863Y-111088457D02*
X77245863Y-111374171D01*
X77245863Y-111374171D02*
X77188720Y-111488457D01*
X77188720Y-111488457D02*
X77131578Y-111545600D01*
X77131578Y-111545600D02*
X77017292Y-111602742D01*
X77017292Y-111602742D02*
X76731578Y-111602742D01*
X76731578Y-111602742D02*
X76617292Y-111545600D01*
X76617292Y-111545600D02*
X76560149Y-111488457D01*
X45445149Y-147105600D02*
X45616578Y-147162742D01*
X45616578Y-147162742D02*
X45902292Y-147162742D01*
X45902292Y-147162742D02*
X46016578Y-147105600D01*
X46016578Y-147105600D02*
X46073720Y-147048457D01*
X46073720Y-147048457D02*
X46130863Y-146934171D01*
X46130863Y-146934171D02*
X46130863Y-146819885D01*
X46130863Y-146819885D02*
X46073720Y-146705600D01*
X46073720Y-146705600D02*
X46016578Y-146648457D01*
X46016578Y-146648457D02*
X45902292Y-146591314D01*
X45902292Y-146591314D02*
X45673720Y-146534171D01*
X45673720Y-146534171D02*
X45559435Y-146477028D01*
X45559435Y-146477028D02*
X45502292Y-146419885D01*
X45502292Y-146419885D02*
X45445149Y-146305600D01*
X45445149Y-146305600D02*
X45445149Y-146191314D01*
X45445149Y-146191314D02*
X45502292Y-146077028D01*
X45502292Y-146077028D02*
X45559435Y-146019885D01*
X45559435Y-146019885D02*
X45673720Y-145962742D01*
X45673720Y-145962742D02*
X45959435Y-145962742D01*
X45959435Y-145962742D02*
X46130863Y-146019885D01*
X46645149Y-146362742D02*
X46645149Y-147562742D01*
X46645149Y-146419885D02*
X46759435Y-146362742D01*
X46759435Y-146362742D02*
X46988006Y-146362742D01*
X46988006Y-146362742D02*
X47102292Y-146419885D01*
X47102292Y-146419885D02*
X47159435Y-146477028D01*
X47159435Y-146477028D02*
X47216577Y-146591314D01*
X47216577Y-146591314D02*
X47216577Y-146934171D01*
X47216577Y-146934171D02*
X47159435Y-147048457D01*
X47159435Y-147048457D02*
X47102292Y-147105600D01*
X47102292Y-147105600D02*
X46988006Y-147162742D01*
X46988006Y-147162742D02*
X46759435Y-147162742D01*
X46759435Y-147162742D02*
X46645149Y-147105600D01*
X48188006Y-147105600D02*
X48073720Y-147162742D01*
X48073720Y-147162742D02*
X47845149Y-147162742D01*
X47845149Y-147162742D02*
X47730863Y-147105600D01*
X47730863Y-147105600D02*
X47673720Y-146991314D01*
X47673720Y-146991314D02*
X47673720Y-146534171D01*
X47673720Y-146534171D02*
X47730863Y-146419885D01*
X47730863Y-146419885D02*
X47845149Y-146362742D01*
X47845149Y-146362742D02*
X48073720Y-146362742D01*
X48073720Y-146362742D02*
X48188006Y-146419885D01*
X48188006Y-146419885D02*
X48245149Y-146534171D01*
X48245149Y-146534171D02*
X48245149Y-146648457D01*
X48245149Y-146648457D02*
X47673720Y-146762742D01*
X49216577Y-147105600D02*
X49102291Y-147162742D01*
X49102291Y-147162742D02*
X48873720Y-147162742D01*
X48873720Y-147162742D02*
X48759434Y-147105600D01*
X48759434Y-147105600D02*
X48702291Y-146991314D01*
X48702291Y-146991314D02*
X48702291Y-146534171D01*
X48702291Y-146534171D02*
X48759434Y-146419885D01*
X48759434Y-146419885D02*
X48873720Y-146362742D01*
X48873720Y-146362742D02*
X49102291Y-146362742D01*
X49102291Y-146362742D02*
X49216577Y-146419885D01*
X49216577Y-146419885D02*
X49273720Y-146534171D01*
X49273720Y-146534171D02*
X49273720Y-146648457D01*
X49273720Y-146648457D02*
X48702291Y-146762742D01*
X50302291Y-147162742D02*
X50302291Y-145962742D01*
X50302291Y-147105600D02*
X50188005Y-147162742D01*
X50188005Y-147162742D02*
X49959433Y-147162742D01*
X49959433Y-147162742D02*
X49845148Y-147105600D01*
X49845148Y-147105600D02*
X49788005Y-147048457D01*
X49788005Y-147048457D02*
X49730862Y-146934171D01*
X49730862Y-146934171D02*
X49730862Y-146591314D01*
X49730862Y-146591314D02*
X49788005Y-146477028D01*
X49788005Y-146477028D02*
X49845148Y-146419885D01*
X49845148Y-146419885D02*
X49959433Y-146362742D01*
X49959433Y-146362742D02*
X50188005Y-146362742D01*
X50188005Y-146362742D02*
X50302291Y-146419885D01*
X67720863Y-111602742D02*
X67035149Y-111602742D01*
X67378006Y-111602742D02*
X67378006Y-110402742D01*
X67378006Y-110402742D02*
X67263720Y-110574171D01*
X67263720Y-110574171D02*
X67149435Y-110688457D01*
X67149435Y-110688457D02*
X67035149Y-110745600D01*
X68178006Y-110517028D02*
X68235149Y-110459885D01*
X68235149Y-110459885D02*
X68349435Y-110402742D01*
X68349435Y-110402742D02*
X68635149Y-110402742D01*
X68635149Y-110402742D02*
X68749435Y-110459885D01*
X68749435Y-110459885D02*
X68806577Y-110517028D01*
X68806577Y-110517028D02*
X68863720Y-110631314D01*
X68863720Y-110631314D02*
X68863720Y-110745600D01*
X68863720Y-110745600D02*
X68806577Y-110917028D01*
X68806577Y-110917028D02*
X68120863Y-111602742D01*
X68120863Y-111602742D02*
X68863720Y-111602742D01*
X112300000Y-208122742D02*
X112300000Y-206922742D01*
X112300000Y-206922742D02*
X112585714Y-206922742D01*
X112585714Y-206922742D02*
X112757143Y-206979885D01*
X112757143Y-206979885D02*
X112871428Y-207094171D01*
X112871428Y-207094171D02*
X112928571Y-207208457D01*
X112928571Y-207208457D02*
X112985714Y-207437028D01*
X112985714Y-207437028D02*
X112985714Y-207608457D01*
X112985714Y-207608457D02*
X112928571Y-207837028D01*
X112928571Y-207837028D02*
X112871428Y-207951314D01*
X112871428Y-207951314D02*
X112757143Y-208065600D01*
X112757143Y-208065600D02*
X112585714Y-208122742D01*
X112585714Y-208122742D02*
X112300000Y-208122742D01*
X113442857Y-207779885D02*
X114014286Y-207779885D01*
X113328571Y-208122742D02*
X113728571Y-206922742D01*
X113728571Y-206922742D02*
X114128571Y-208122742D01*
X115214285Y-208008457D02*
X115157142Y-208065600D01*
X115157142Y-208065600D02*
X114985714Y-208122742D01*
X114985714Y-208122742D02*
X114871428Y-208122742D01*
X114871428Y-208122742D02*
X114699999Y-208065600D01*
X114699999Y-208065600D02*
X114585714Y-207951314D01*
X114585714Y-207951314D02*
X114528571Y-207837028D01*
X114528571Y-207837028D02*
X114471428Y-207608457D01*
X114471428Y-207608457D02*
X114471428Y-207437028D01*
X114471428Y-207437028D02*
X114528571Y-207208457D01*
X114528571Y-207208457D02*
X114585714Y-207094171D01*
X114585714Y-207094171D02*
X114699999Y-206979885D01*
X114699999Y-206979885D02*
X114871428Y-206922742D01*
X114871428Y-206922742D02*
X114985714Y-206922742D01*
X114985714Y-206922742D02*
X115157142Y-206979885D01*
X115157142Y-206979885D02*
X115214285Y-207037028D01*
X116357142Y-208122742D02*
X115671428Y-208122742D01*
X116014285Y-208122742D02*
X116014285Y-206922742D01*
X116014285Y-206922742D02*
X115899999Y-207094171D01*
X115899999Y-207094171D02*
X115785714Y-207208457D01*
X115785714Y-207208457D02*
X115671428Y-207265600D01*
X36722143Y-124937742D02*
X36036429Y-124937742D01*
X36379286Y-124937742D02*
X36379286Y-123737742D01*
X36379286Y-123737742D02*
X36265000Y-123909171D01*
X36265000Y-123909171D02*
X36150715Y-124023457D01*
X36150715Y-124023457D02*
X36036429Y-124080600D01*
X37179286Y-123852028D02*
X37236429Y-123794885D01*
X37236429Y-123794885D02*
X37350715Y-123737742D01*
X37350715Y-123737742D02*
X37636429Y-123737742D01*
X37636429Y-123737742D02*
X37750715Y-123794885D01*
X37750715Y-123794885D02*
X37807857Y-123852028D01*
X37807857Y-123852028D02*
X37865000Y-123966314D01*
X37865000Y-123966314D02*
X37865000Y-124080600D01*
X37865000Y-124080600D02*
X37807857Y-124252028D01*
X37807857Y-124252028D02*
X37122143Y-124937742D01*
X37122143Y-124937742D02*
X37865000Y-124937742D01*
X38207857Y-123737742D02*
X38607857Y-124937742D01*
X38607857Y-124937742D02*
X39007857Y-123737742D01*
X127662708Y-177642742D02*
X127662708Y-176442742D01*
X127662708Y-176442742D02*
X127948422Y-176442742D01*
X127948422Y-176442742D02*
X128119851Y-176499885D01*
X128119851Y-176499885D02*
X128234136Y-176614171D01*
X128234136Y-176614171D02*
X128291279Y-176728457D01*
X128291279Y-176728457D02*
X128348422Y-176957028D01*
X128348422Y-176957028D02*
X128348422Y-177128457D01*
X128348422Y-177128457D02*
X128291279Y-177357028D01*
X128291279Y-177357028D02*
X128234136Y-177471314D01*
X128234136Y-177471314D02*
X128119851Y-177585600D01*
X128119851Y-177585600D02*
X127948422Y-177642742D01*
X127948422Y-177642742D02*
X127662708Y-177642742D01*
X128805565Y-177299885D02*
X129376994Y-177299885D01*
X128691279Y-177642742D02*
X129091279Y-176442742D01*
X129091279Y-176442742D02*
X129491279Y-177642742D01*
X130576993Y-177528457D02*
X130519850Y-177585600D01*
X130519850Y-177585600D02*
X130348422Y-177642742D01*
X130348422Y-177642742D02*
X130234136Y-177642742D01*
X130234136Y-177642742D02*
X130062707Y-177585600D01*
X130062707Y-177585600D02*
X129948422Y-177471314D01*
X129948422Y-177471314D02*
X129891279Y-177357028D01*
X129891279Y-177357028D02*
X129834136Y-177128457D01*
X129834136Y-177128457D02*
X129834136Y-176957028D01*
X129834136Y-176957028D02*
X129891279Y-176728457D01*
X129891279Y-176728457D02*
X129948422Y-176614171D01*
X129948422Y-176614171D02*
X130062707Y-176499885D01*
X130062707Y-176499885D02*
X130234136Y-176442742D01*
X130234136Y-176442742D02*
X130348422Y-176442742D01*
X130348422Y-176442742D02*
X130519850Y-176499885D01*
X130519850Y-176499885D02*
X130576993Y-176557028D01*
X131034136Y-176557028D02*
X131091279Y-176499885D01*
X131091279Y-176499885D02*
X131205565Y-176442742D01*
X131205565Y-176442742D02*
X131491279Y-176442742D01*
X131491279Y-176442742D02*
X131605565Y-176499885D01*
X131605565Y-176499885D02*
X131662707Y-176557028D01*
X131662707Y-176557028D02*
X131719850Y-176671314D01*
X131719850Y-176671314D02*
X131719850Y-176785600D01*
X131719850Y-176785600D02*
X131662707Y-176957028D01*
X131662707Y-176957028D02*
X130976993Y-177642742D01*
X130976993Y-177642742D02*
X131719850Y-177642742D01*
X54880000Y-137139742D02*
X54880000Y-137996885D01*
X54880000Y-137996885D02*
X54822857Y-138168314D01*
X54822857Y-138168314D02*
X54708571Y-138282600D01*
X54708571Y-138282600D02*
X54537143Y-138339742D01*
X54537143Y-138339742D02*
X54422857Y-138339742D01*
X55451429Y-138339742D02*
X55451429Y-137139742D01*
X55451429Y-137139742D02*
X55908572Y-137139742D01*
X55908572Y-137139742D02*
X56022857Y-137196885D01*
X56022857Y-137196885D02*
X56080000Y-137254028D01*
X56080000Y-137254028D02*
X56137143Y-137368314D01*
X56137143Y-137368314D02*
X56137143Y-137539742D01*
X56137143Y-137539742D02*
X56080000Y-137654028D01*
X56080000Y-137654028D02*
X56022857Y-137711171D01*
X56022857Y-137711171D02*
X55908572Y-137768314D01*
X55908572Y-137768314D02*
X55451429Y-137768314D01*
X57222857Y-137139742D02*
X56651429Y-137139742D01*
X56651429Y-137139742D02*
X56594286Y-137711171D01*
X56594286Y-137711171D02*
X56651429Y-137654028D01*
X56651429Y-137654028D02*
X56765715Y-137596885D01*
X56765715Y-137596885D02*
X57051429Y-137596885D01*
X57051429Y-137596885D02*
X57165715Y-137654028D01*
X57165715Y-137654028D02*
X57222857Y-137711171D01*
X57222857Y-137711171D02*
X57280000Y-137825457D01*
X57280000Y-137825457D02*
X57280000Y-138111171D01*
X57280000Y-138111171D02*
X57222857Y-138225457D01*
X57222857Y-138225457D02*
X57165715Y-138282600D01*
X57165715Y-138282600D02*
X57051429Y-138339742D01*
X57051429Y-138339742D02*
X56765715Y-138339742D01*
X56765715Y-138339742D02*
X56651429Y-138282600D01*
X56651429Y-138282600D02*
X56594286Y-138225457D01*
X53851428Y-128249742D02*
X54537143Y-128249742D01*
X54194285Y-129449742D02*
X54194285Y-128249742D01*
X55394286Y-129392600D02*
X55280000Y-129449742D01*
X55280000Y-129449742D02*
X55051429Y-129449742D01*
X55051429Y-129449742D02*
X54937143Y-129392600D01*
X54937143Y-129392600D02*
X54880000Y-129278314D01*
X54880000Y-129278314D02*
X54880000Y-128821171D01*
X54880000Y-128821171D02*
X54937143Y-128706885D01*
X54937143Y-128706885D02*
X55051429Y-128649742D01*
X55051429Y-128649742D02*
X55280000Y-128649742D01*
X55280000Y-128649742D02*
X55394286Y-128706885D01*
X55394286Y-128706885D02*
X55451429Y-128821171D01*
X55451429Y-128821171D02*
X55451429Y-128935457D01*
X55451429Y-128935457D02*
X54880000Y-129049742D01*
X55965714Y-129449742D02*
X55965714Y-128649742D01*
X55965714Y-128878314D02*
X56022857Y-128764028D01*
X56022857Y-128764028D02*
X56080000Y-128706885D01*
X56080000Y-128706885D02*
X56194285Y-128649742D01*
X56194285Y-128649742D02*
X56308571Y-128649742D01*
X56708571Y-129449742D02*
X56708571Y-128649742D01*
X56708571Y-128764028D02*
X56765714Y-128706885D01*
X56765714Y-128706885D02*
X56879999Y-128649742D01*
X56879999Y-128649742D02*
X57051428Y-128649742D01*
X57051428Y-128649742D02*
X57165714Y-128706885D01*
X57165714Y-128706885D02*
X57222857Y-128821171D01*
X57222857Y-128821171D02*
X57222857Y-129449742D01*
X57222857Y-128821171D02*
X57279999Y-128706885D01*
X57279999Y-128706885D02*
X57394285Y-128649742D01*
X57394285Y-128649742D02*
X57565714Y-128649742D01*
X57565714Y-128649742D02*
X57679999Y-128706885D01*
X57679999Y-128706885D02*
X57737142Y-128821171D01*
X57737142Y-128821171D02*
X57737142Y-129449742D01*
X117195714Y-220324742D02*
X117195714Y-221296171D01*
X117195714Y-221296171D02*
X117252857Y-221410457D01*
X117252857Y-221410457D02*
X117310000Y-221467600D01*
X117310000Y-221467600D02*
X117424285Y-221524742D01*
X117424285Y-221524742D02*
X117652857Y-221524742D01*
X117652857Y-221524742D02*
X117767142Y-221467600D01*
X117767142Y-221467600D02*
X117824285Y-221410457D01*
X117824285Y-221410457D02*
X117881428Y-221296171D01*
X117881428Y-221296171D02*
X117881428Y-220324742D01*
X118624285Y-220839028D02*
X118510000Y-220781885D01*
X118510000Y-220781885D02*
X118452857Y-220724742D01*
X118452857Y-220724742D02*
X118395714Y-220610457D01*
X118395714Y-220610457D02*
X118395714Y-220553314D01*
X118395714Y-220553314D02*
X118452857Y-220439028D01*
X118452857Y-220439028D02*
X118510000Y-220381885D01*
X118510000Y-220381885D02*
X118624285Y-220324742D01*
X118624285Y-220324742D02*
X118852857Y-220324742D01*
X118852857Y-220324742D02*
X118967143Y-220381885D01*
X118967143Y-220381885D02*
X119024285Y-220439028D01*
X119024285Y-220439028D02*
X119081428Y-220553314D01*
X119081428Y-220553314D02*
X119081428Y-220610457D01*
X119081428Y-220610457D02*
X119024285Y-220724742D01*
X119024285Y-220724742D02*
X118967143Y-220781885D01*
X118967143Y-220781885D02*
X118852857Y-220839028D01*
X118852857Y-220839028D02*
X118624285Y-220839028D01*
X118624285Y-220839028D02*
X118510000Y-220896171D01*
X118510000Y-220896171D02*
X118452857Y-220953314D01*
X118452857Y-220953314D02*
X118395714Y-221067600D01*
X118395714Y-221067600D02*
X118395714Y-221296171D01*
X118395714Y-221296171D02*
X118452857Y-221410457D01*
X118452857Y-221410457D02*
X118510000Y-221467600D01*
X118510000Y-221467600D02*
X118624285Y-221524742D01*
X118624285Y-221524742D02*
X118852857Y-221524742D01*
X118852857Y-221524742D02*
X118967143Y-221467600D01*
X118967143Y-221467600D02*
X119024285Y-221410457D01*
X119024285Y-221410457D02*
X119081428Y-221296171D01*
X119081428Y-221296171D02*
X119081428Y-221067600D01*
X119081428Y-221067600D02*
X119024285Y-220953314D01*
X119024285Y-220953314D02*
X118967143Y-220896171D01*
X118967143Y-220896171D02*
X118852857Y-220839028D01*
X140198571Y-132510457D02*
X140141428Y-132567600D01*
X140141428Y-132567600D02*
X139970000Y-132624742D01*
X139970000Y-132624742D02*
X139855714Y-132624742D01*
X139855714Y-132624742D02*
X139684285Y-132567600D01*
X139684285Y-132567600D02*
X139570000Y-132453314D01*
X139570000Y-132453314D02*
X139512857Y-132339028D01*
X139512857Y-132339028D02*
X139455714Y-132110457D01*
X139455714Y-132110457D02*
X139455714Y-131939028D01*
X139455714Y-131939028D02*
X139512857Y-131710457D01*
X139512857Y-131710457D02*
X139570000Y-131596171D01*
X139570000Y-131596171D02*
X139684285Y-131481885D01*
X139684285Y-131481885D02*
X139855714Y-131424742D01*
X139855714Y-131424742D02*
X139970000Y-131424742D01*
X139970000Y-131424742D02*
X140141428Y-131481885D01*
X140141428Y-131481885D02*
X140198571Y-131539028D01*
X141341428Y-132624742D02*
X140655714Y-132624742D01*
X140998571Y-132624742D02*
X140998571Y-131424742D01*
X140998571Y-131424742D02*
X140884285Y-131596171D01*
X140884285Y-131596171D02*
X140770000Y-131710457D01*
X140770000Y-131710457D02*
X140655714Y-131767600D01*
X142427142Y-131424742D02*
X141855714Y-131424742D01*
X141855714Y-131424742D02*
X141798571Y-131996171D01*
X141798571Y-131996171D02*
X141855714Y-131939028D01*
X141855714Y-131939028D02*
X141970000Y-131881885D01*
X141970000Y-131881885D02*
X142255714Y-131881885D01*
X142255714Y-131881885D02*
X142370000Y-131939028D01*
X142370000Y-131939028D02*
X142427142Y-131996171D01*
X142427142Y-131996171D02*
X142484285Y-132110457D01*
X142484285Y-132110457D02*
X142484285Y-132396171D01*
X142484285Y-132396171D02*
X142427142Y-132510457D01*
X142427142Y-132510457D02*
X142370000Y-132567600D01*
X142370000Y-132567600D02*
X142255714Y-132624742D01*
X142255714Y-132624742D02*
X141970000Y-132624742D01*
X141970000Y-132624742D02*
X141855714Y-132567600D01*
X141855714Y-132567600D02*
X141798571Y-132510457D01*
X111360000Y-137139742D02*
X111360000Y-137996885D01*
X111360000Y-137996885D02*
X111302857Y-138168314D01*
X111302857Y-138168314D02*
X111188571Y-138282600D01*
X111188571Y-138282600D02*
X111017143Y-138339742D01*
X111017143Y-138339742D02*
X110902857Y-138339742D01*
X112445715Y-137139742D02*
X112217143Y-137139742D01*
X112217143Y-137139742D02*
X112102857Y-137196885D01*
X112102857Y-137196885D02*
X112045715Y-137254028D01*
X112045715Y-137254028D02*
X111931429Y-137425457D01*
X111931429Y-137425457D02*
X111874286Y-137654028D01*
X111874286Y-137654028D02*
X111874286Y-138111171D01*
X111874286Y-138111171D02*
X111931429Y-138225457D01*
X111931429Y-138225457D02*
X111988572Y-138282600D01*
X111988572Y-138282600D02*
X112102857Y-138339742D01*
X112102857Y-138339742D02*
X112331429Y-138339742D01*
X112331429Y-138339742D02*
X112445715Y-138282600D01*
X112445715Y-138282600D02*
X112502857Y-138225457D01*
X112502857Y-138225457D02*
X112560000Y-138111171D01*
X112560000Y-138111171D02*
X112560000Y-137825457D01*
X112560000Y-137825457D02*
X112502857Y-137711171D01*
X112502857Y-137711171D02*
X112445715Y-137654028D01*
X112445715Y-137654028D02*
X112331429Y-137596885D01*
X112331429Y-137596885D02*
X112102857Y-137596885D01*
X112102857Y-137596885D02*
X111988572Y-137654028D01*
X111988572Y-137654028D02*
X111931429Y-137711171D01*
X111931429Y-137711171D02*
X111874286Y-137825457D01*
X108396993Y-131875457D02*
X108339850Y-131932600D01*
X108339850Y-131932600D02*
X108168422Y-131989742D01*
X108168422Y-131989742D02*
X108054136Y-131989742D01*
X108054136Y-131989742D02*
X107882707Y-131932600D01*
X107882707Y-131932600D02*
X107768422Y-131818314D01*
X107768422Y-131818314D02*
X107711279Y-131704028D01*
X107711279Y-131704028D02*
X107654136Y-131475457D01*
X107654136Y-131475457D02*
X107654136Y-131304028D01*
X107654136Y-131304028D02*
X107711279Y-131075457D01*
X107711279Y-131075457D02*
X107768422Y-130961171D01*
X107768422Y-130961171D02*
X107882707Y-130846885D01*
X107882707Y-130846885D02*
X108054136Y-130789742D01*
X108054136Y-130789742D02*
X108168422Y-130789742D01*
X108168422Y-130789742D02*
X108339850Y-130846885D01*
X108339850Y-130846885D02*
X108396993Y-130904028D01*
X108854136Y-131646885D02*
X109425565Y-131646885D01*
X108739850Y-131989742D02*
X109139850Y-130789742D01*
X109139850Y-130789742D02*
X109539850Y-131989742D01*
X109939850Y-131989742D02*
X109939850Y-130789742D01*
X109939850Y-130789742D02*
X110625564Y-131989742D01*
X110625564Y-131989742D02*
X110625564Y-130789742D01*
X112796993Y-131875457D02*
X112739850Y-131932600D01*
X112739850Y-131932600D02*
X112568422Y-131989742D01*
X112568422Y-131989742D02*
X112454136Y-131989742D01*
X112454136Y-131989742D02*
X112282707Y-131932600D01*
X112282707Y-131932600D02*
X112168422Y-131818314D01*
X112168422Y-131818314D02*
X112111279Y-131704028D01*
X112111279Y-131704028D02*
X112054136Y-131475457D01*
X112054136Y-131475457D02*
X112054136Y-131304028D01*
X112054136Y-131304028D02*
X112111279Y-131075457D01*
X112111279Y-131075457D02*
X112168422Y-130961171D01*
X112168422Y-130961171D02*
X112282707Y-130846885D01*
X112282707Y-130846885D02*
X112454136Y-130789742D01*
X112454136Y-130789742D02*
X112568422Y-130789742D01*
X112568422Y-130789742D02*
X112739850Y-130846885D01*
X112739850Y-130846885D02*
X112796993Y-130904028D01*
X113254136Y-131932600D02*
X113425565Y-131989742D01*
X113425565Y-131989742D02*
X113711279Y-131989742D01*
X113711279Y-131989742D02*
X113825565Y-131932600D01*
X113825565Y-131932600D02*
X113882707Y-131875457D01*
X113882707Y-131875457D02*
X113939850Y-131761171D01*
X113939850Y-131761171D02*
X113939850Y-131646885D01*
X113939850Y-131646885D02*
X113882707Y-131532600D01*
X113882707Y-131532600D02*
X113825565Y-131475457D01*
X113825565Y-131475457D02*
X113711279Y-131418314D01*
X113711279Y-131418314D02*
X113482707Y-131361171D01*
X113482707Y-131361171D02*
X113368422Y-131304028D01*
X113368422Y-131304028D02*
X113311279Y-131246885D01*
X113311279Y-131246885D02*
X113254136Y-131132600D01*
X113254136Y-131132600D02*
X113254136Y-131018314D01*
X113254136Y-131018314D02*
X113311279Y-130904028D01*
X113311279Y-130904028D02*
X113368422Y-130846885D01*
X113368422Y-130846885D02*
X113482707Y-130789742D01*
X113482707Y-130789742D02*
X113768422Y-130789742D01*
X113768422Y-130789742D02*
X113939850Y-130846885D01*
X111945565Y-130456600D02*
X114048422Y-130456600D01*
X33290000Y-172064742D02*
X33290000Y-172921885D01*
X33290000Y-172921885D02*
X33232857Y-173093314D01*
X33232857Y-173093314D02*
X33118571Y-173207600D01*
X33118571Y-173207600D02*
X32947143Y-173264742D01*
X32947143Y-173264742D02*
X32832857Y-173264742D01*
X33861429Y-173264742D02*
X33861429Y-172064742D01*
X33861429Y-172064742D02*
X34318572Y-172064742D01*
X34318572Y-172064742D02*
X34432857Y-172121885D01*
X34432857Y-172121885D02*
X34490000Y-172179028D01*
X34490000Y-172179028D02*
X34547143Y-172293314D01*
X34547143Y-172293314D02*
X34547143Y-172464742D01*
X34547143Y-172464742D02*
X34490000Y-172579028D01*
X34490000Y-172579028D02*
X34432857Y-172636171D01*
X34432857Y-172636171D02*
X34318572Y-172693314D01*
X34318572Y-172693314D02*
X33861429Y-172693314D01*
X34947143Y-172064742D02*
X35690000Y-172064742D01*
X35690000Y-172064742D02*
X35290000Y-172521885D01*
X35290000Y-172521885D02*
X35461429Y-172521885D01*
X35461429Y-172521885D02*
X35575715Y-172579028D01*
X35575715Y-172579028D02*
X35632857Y-172636171D01*
X35632857Y-172636171D02*
X35690000Y-172750457D01*
X35690000Y-172750457D02*
X35690000Y-173036171D01*
X35690000Y-173036171D02*
X35632857Y-173150457D01*
X35632857Y-173150457D02*
X35575715Y-173207600D01*
X35575715Y-173207600D02*
X35461429Y-173264742D01*
X35461429Y-173264742D02*
X35118572Y-173264742D01*
X35118572Y-173264742D02*
X35004286Y-173207600D01*
X35004286Y-173207600D02*
X34947143Y-173150457D01*
X40592857Y-176509742D02*
X40592857Y-177481171D01*
X40592857Y-177481171D02*
X40650000Y-177595457D01*
X40650000Y-177595457D02*
X40707143Y-177652600D01*
X40707143Y-177652600D02*
X40821428Y-177709742D01*
X40821428Y-177709742D02*
X41050000Y-177709742D01*
X41050000Y-177709742D02*
X41164285Y-177652600D01*
X41164285Y-177652600D02*
X41221428Y-177595457D01*
X41221428Y-177595457D02*
X41278571Y-177481171D01*
X41278571Y-177481171D02*
X41278571Y-176509742D01*
X41792857Y-177652600D02*
X41964286Y-177709742D01*
X41964286Y-177709742D02*
X42250000Y-177709742D01*
X42250000Y-177709742D02*
X42364286Y-177652600D01*
X42364286Y-177652600D02*
X42421428Y-177595457D01*
X42421428Y-177595457D02*
X42478571Y-177481171D01*
X42478571Y-177481171D02*
X42478571Y-177366885D01*
X42478571Y-177366885D02*
X42421428Y-177252600D01*
X42421428Y-177252600D02*
X42364286Y-177195457D01*
X42364286Y-177195457D02*
X42250000Y-177138314D01*
X42250000Y-177138314D02*
X42021428Y-177081171D01*
X42021428Y-177081171D02*
X41907143Y-177024028D01*
X41907143Y-177024028D02*
X41850000Y-176966885D01*
X41850000Y-176966885D02*
X41792857Y-176852600D01*
X41792857Y-176852600D02*
X41792857Y-176738314D01*
X41792857Y-176738314D02*
X41850000Y-176624028D01*
X41850000Y-176624028D02*
X41907143Y-176566885D01*
X41907143Y-176566885D02*
X42021428Y-176509742D01*
X42021428Y-176509742D02*
X42307143Y-176509742D01*
X42307143Y-176509742D02*
X42478571Y-176566885D01*
X43392857Y-177081171D02*
X43564285Y-177138314D01*
X43564285Y-177138314D02*
X43621428Y-177195457D01*
X43621428Y-177195457D02*
X43678571Y-177309742D01*
X43678571Y-177309742D02*
X43678571Y-177481171D01*
X43678571Y-177481171D02*
X43621428Y-177595457D01*
X43621428Y-177595457D02*
X43564285Y-177652600D01*
X43564285Y-177652600D02*
X43450000Y-177709742D01*
X43450000Y-177709742D02*
X42992857Y-177709742D01*
X42992857Y-177709742D02*
X42992857Y-176509742D01*
X42992857Y-176509742D02*
X43392857Y-176509742D01*
X43392857Y-176509742D02*
X43507143Y-176566885D01*
X43507143Y-176566885D02*
X43564285Y-176624028D01*
X43564285Y-176624028D02*
X43621428Y-176738314D01*
X43621428Y-176738314D02*
X43621428Y-176852600D01*
X43621428Y-176852600D02*
X43564285Y-176966885D01*
X43564285Y-176966885D02*
X43507143Y-177024028D01*
X43507143Y-177024028D02*
X43392857Y-177081171D01*
X43392857Y-177081171D02*
X42992857Y-177081171D01*
X43907143Y-177824028D02*
X44821428Y-177824028D01*
X45107143Y-177709742D02*
X45107143Y-176509742D01*
X45107143Y-176509742D02*
X45564286Y-176509742D01*
X45564286Y-176509742D02*
X45678571Y-176566885D01*
X45678571Y-176566885D02*
X45735714Y-176624028D01*
X45735714Y-176624028D02*
X45792857Y-176738314D01*
X45792857Y-176738314D02*
X45792857Y-176909742D01*
X45792857Y-176909742D02*
X45735714Y-177024028D01*
X45735714Y-177024028D02*
X45678571Y-177081171D01*
X45678571Y-177081171D02*
X45564286Y-177138314D01*
X45564286Y-177138314D02*
X45107143Y-177138314D01*
X46192857Y-176509742D02*
X46478571Y-177709742D01*
X46478571Y-177709742D02*
X46707143Y-176852600D01*
X46707143Y-176852600D02*
X46935714Y-177709742D01*
X46935714Y-177709742D02*
X47221429Y-176509742D01*
X48364286Y-177709742D02*
X47964286Y-177138314D01*
X47678572Y-177709742D02*
X47678572Y-176509742D01*
X47678572Y-176509742D02*
X48135715Y-176509742D01*
X48135715Y-176509742D02*
X48250000Y-176566885D01*
X48250000Y-176566885D02*
X48307143Y-176624028D01*
X48307143Y-176624028D02*
X48364286Y-176738314D01*
X48364286Y-176738314D02*
X48364286Y-176909742D01*
X48364286Y-176909742D02*
X48307143Y-177024028D01*
X48307143Y-177024028D02*
X48250000Y-177081171D01*
X48250000Y-177081171D02*
X48135715Y-177138314D01*
X48135715Y-177138314D02*
X47678572Y-177138314D01*
X95748571Y-124890457D02*
X95691428Y-124947600D01*
X95691428Y-124947600D02*
X95520000Y-125004742D01*
X95520000Y-125004742D02*
X95405714Y-125004742D01*
X95405714Y-125004742D02*
X95234285Y-124947600D01*
X95234285Y-124947600D02*
X95120000Y-124833314D01*
X95120000Y-124833314D02*
X95062857Y-124719028D01*
X95062857Y-124719028D02*
X95005714Y-124490457D01*
X95005714Y-124490457D02*
X95005714Y-124319028D01*
X95005714Y-124319028D02*
X95062857Y-124090457D01*
X95062857Y-124090457D02*
X95120000Y-123976171D01*
X95120000Y-123976171D02*
X95234285Y-123861885D01*
X95234285Y-123861885D02*
X95405714Y-123804742D01*
X95405714Y-123804742D02*
X95520000Y-123804742D01*
X95520000Y-123804742D02*
X95691428Y-123861885D01*
X95691428Y-123861885D02*
X95748571Y-123919028D01*
X96891428Y-125004742D02*
X96205714Y-125004742D01*
X96548571Y-125004742D02*
X96548571Y-123804742D01*
X96548571Y-123804742D02*
X96434285Y-123976171D01*
X96434285Y-123976171D02*
X96320000Y-124090457D01*
X96320000Y-124090457D02*
X96205714Y-124147600D01*
X97291428Y-123804742D02*
X98034285Y-123804742D01*
X98034285Y-123804742D02*
X97634285Y-124261885D01*
X97634285Y-124261885D02*
X97805714Y-124261885D01*
X97805714Y-124261885D02*
X97920000Y-124319028D01*
X97920000Y-124319028D02*
X97977142Y-124376171D01*
X97977142Y-124376171D02*
X98034285Y-124490457D01*
X98034285Y-124490457D02*
X98034285Y-124776171D01*
X98034285Y-124776171D02*
X97977142Y-124890457D01*
X97977142Y-124890457D02*
X97920000Y-124947600D01*
X97920000Y-124947600D02*
X97805714Y-125004742D01*
X97805714Y-125004742D02*
X97462857Y-125004742D01*
X97462857Y-125004742D02*
X97348571Y-124947600D01*
X97348571Y-124947600D02*
X97291428Y-124890457D01*
X158290000Y-85704742D02*
X158290000Y-86561885D01*
X158290000Y-86561885D02*
X158232857Y-86733314D01*
X158232857Y-86733314D02*
X158118571Y-86847600D01*
X158118571Y-86847600D02*
X157947143Y-86904742D01*
X157947143Y-86904742D02*
X157832857Y-86904742D01*
X159375715Y-86104742D02*
X159375715Y-86904742D01*
X159090000Y-85647600D02*
X158804286Y-86504742D01*
X158804286Y-86504742D02*
X159547143Y-86504742D01*
X165425714Y-80058528D02*
X165425714Y-78558528D01*
X166997143Y-79915671D02*
X166925715Y-79987100D01*
X166925715Y-79987100D02*
X166711429Y-80058528D01*
X166711429Y-80058528D02*
X166568572Y-80058528D01*
X166568572Y-80058528D02*
X166354286Y-79987100D01*
X166354286Y-79987100D02*
X166211429Y-79844242D01*
X166211429Y-79844242D02*
X166140000Y-79701385D01*
X166140000Y-79701385D02*
X166068572Y-79415671D01*
X166068572Y-79415671D02*
X166068572Y-79201385D01*
X166068572Y-79201385D02*
X166140000Y-78915671D01*
X166140000Y-78915671D02*
X166211429Y-78772814D01*
X166211429Y-78772814D02*
X166354286Y-78629957D01*
X166354286Y-78629957D02*
X166568572Y-78558528D01*
X166568572Y-78558528D02*
X166711429Y-78558528D01*
X166711429Y-78558528D02*
X166925715Y-78629957D01*
X166925715Y-78629957D02*
X166997143Y-78701385D01*
X167568572Y-79987100D02*
X167782858Y-80058528D01*
X167782858Y-80058528D02*
X168140000Y-80058528D01*
X168140000Y-80058528D02*
X168282858Y-79987100D01*
X168282858Y-79987100D02*
X168354286Y-79915671D01*
X168354286Y-79915671D02*
X168425715Y-79772814D01*
X168425715Y-79772814D02*
X168425715Y-79629957D01*
X168425715Y-79629957D02*
X168354286Y-79487100D01*
X168354286Y-79487100D02*
X168282858Y-79415671D01*
X168282858Y-79415671D02*
X168140000Y-79344242D01*
X168140000Y-79344242D02*
X167854286Y-79272814D01*
X167854286Y-79272814D02*
X167711429Y-79201385D01*
X167711429Y-79201385D02*
X167640000Y-79129957D01*
X167640000Y-79129957D02*
X167568572Y-78987100D01*
X167568572Y-78987100D02*
X167568572Y-78844242D01*
X167568572Y-78844242D02*
X167640000Y-78701385D01*
X167640000Y-78701385D02*
X167711429Y-78629957D01*
X167711429Y-78629957D02*
X167854286Y-78558528D01*
X167854286Y-78558528D02*
X168211429Y-78558528D01*
X168211429Y-78558528D02*
X168425715Y-78629957D01*
X169068571Y-80058528D02*
X169068571Y-78558528D01*
X169068571Y-78558528D02*
X169640000Y-78558528D01*
X169640000Y-78558528D02*
X169782857Y-78629957D01*
X169782857Y-78629957D02*
X169854286Y-78701385D01*
X169854286Y-78701385D02*
X169925714Y-78844242D01*
X169925714Y-78844242D02*
X169925714Y-79058528D01*
X169925714Y-79058528D02*
X169854286Y-79201385D01*
X169854286Y-79201385D02*
X169782857Y-79272814D01*
X169782857Y-79272814D02*
X169640000Y-79344242D01*
X169640000Y-79344242D02*
X169068571Y-79344242D01*
X98288571Y-222045457D02*
X98231428Y-222102600D01*
X98231428Y-222102600D02*
X98060000Y-222159742D01*
X98060000Y-222159742D02*
X97945714Y-222159742D01*
X97945714Y-222159742D02*
X97774285Y-222102600D01*
X97774285Y-222102600D02*
X97660000Y-221988314D01*
X97660000Y-221988314D02*
X97602857Y-221874028D01*
X97602857Y-221874028D02*
X97545714Y-221645457D01*
X97545714Y-221645457D02*
X97545714Y-221474028D01*
X97545714Y-221474028D02*
X97602857Y-221245457D01*
X97602857Y-221245457D02*
X97660000Y-221131171D01*
X97660000Y-221131171D02*
X97774285Y-221016885D01*
X97774285Y-221016885D02*
X97945714Y-220959742D01*
X97945714Y-220959742D02*
X98060000Y-220959742D01*
X98060000Y-220959742D02*
X98231428Y-221016885D01*
X98231428Y-221016885D02*
X98288571Y-221074028D01*
X99431428Y-222159742D02*
X98745714Y-222159742D01*
X99088571Y-222159742D02*
X99088571Y-220959742D01*
X99088571Y-220959742D02*
X98974285Y-221131171D01*
X98974285Y-221131171D02*
X98860000Y-221245457D01*
X98860000Y-221245457D02*
X98745714Y-221302600D01*
X100460000Y-220959742D02*
X100231428Y-220959742D01*
X100231428Y-220959742D02*
X100117142Y-221016885D01*
X100117142Y-221016885D02*
X100060000Y-221074028D01*
X100060000Y-221074028D02*
X99945714Y-221245457D01*
X99945714Y-221245457D02*
X99888571Y-221474028D01*
X99888571Y-221474028D02*
X99888571Y-221931171D01*
X99888571Y-221931171D02*
X99945714Y-222045457D01*
X99945714Y-222045457D02*
X100002857Y-222102600D01*
X100002857Y-222102600D02*
X100117142Y-222159742D01*
X100117142Y-222159742D02*
X100345714Y-222159742D01*
X100345714Y-222159742D02*
X100460000Y-222102600D01*
X100460000Y-222102600D02*
X100517142Y-222045457D01*
X100517142Y-222045457D02*
X100574285Y-221931171D01*
X100574285Y-221931171D02*
X100574285Y-221645457D01*
X100574285Y-221645457D02*
X100517142Y-221531171D01*
X100517142Y-221531171D02*
X100460000Y-221474028D01*
X100460000Y-221474028D02*
X100345714Y-221416885D01*
X100345714Y-221416885D02*
X100117142Y-221416885D01*
X100117142Y-221416885D02*
X100002857Y-221474028D01*
X100002857Y-221474028D02*
X99945714Y-221531171D01*
X99945714Y-221531171D02*
X99888571Y-221645457D01*
X178070000Y-142854742D02*
X178070000Y-143711885D01*
X178070000Y-143711885D02*
X178012857Y-143883314D01*
X178012857Y-143883314D02*
X177898571Y-143997600D01*
X177898571Y-143997600D02*
X177727143Y-144054742D01*
X177727143Y-144054742D02*
X177612857Y-144054742D01*
X178641429Y-144054742D02*
X178641429Y-142854742D01*
X178641429Y-142854742D02*
X179098572Y-142854742D01*
X179098572Y-142854742D02*
X179212857Y-142911885D01*
X179212857Y-142911885D02*
X179270000Y-142969028D01*
X179270000Y-142969028D02*
X179327143Y-143083314D01*
X179327143Y-143083314D02*
X179327143Y-143254742D01*
X179327143Y-143254742D02*
X179270000Y-143369028D01*
X179270000Y-143369028D02*
X179212857Y-143426171D01*
X179212857Y-143426171D02*
X179098572Y-143483314D01*
X179098572Y-143483314D02*
X178641429Y-143483314D01*
X179784286Y-142969028D02*
X179841429Y-142911885D01*
X179841429Y-142911885D02*
X179955715Y-142854742D01*
X179955715Y-142854742D02*
X180241429Y-142854742D01*
X180241429Y-142854742D02*
X180355715Y-142911885D01*
X180355715Y-142911885D02*
X180412857Y-142969028D01*
X180412857Y-142969028D02*
X180470000Y-143083314D01*
X180470000Y-143083314D02*
X180470000Y-143197600D01*
X180470000Y-143197600D02*
X180412857Y-143369028D01*
X180412857Y-143369028D02*
X179727143Y-144054742D01*
X179727143Y-144054742D02*
X180470000Y-144054742D01*
X176663572Y-140244742D02*
X176663572Y-139044742D01*
X176663572Y-139044742D02*
X177120715Y-139044742D01*
X177120715Y-139044742D02*
X177235000Y-139101885D01*
X177235000Y-139101885D02*
X177292143Y-139159028D01*
X177292143Y-139159028D02*
X177349286Y-139273314D01*
X177349286Y-139273314D02*
X177349286Y-139444742D01*
X177349286Y-139444742D02*
X177292143Y-139559028D01*
X177292143Y-139559028D02*
X177235000Y-139616171D01*
X177235000Y-139616171D02*
X177120715Y-139673314D01*
X177120715Y-139673314D02*
X176663572Y-139673314D01*
X177863572Y-140244742D02*
X177863572Y-139444742D01*
X177863572Y-139673314D02*
X177920715Y-139559028D01*
X177920715Y-139559028D02*
X177977858Y-139501885D01*
X177977858Y-139501885D02*
X178092143Y-139444742D01*
X178092143Y-139444742D02*
X178206429Y-139444742D01*
X178777857Y-140244742D02*
X178663572Y-140187600D01*
X178663572Y-140187600D02*
X178606429Y-140130457D01*
X178606429Y-140130457D02*
X178549286Y-140016171D01*
X178549286Y-140016171D02*
X178549286Y-139673314D01*
X178549286Y-139673314D02*
X178606429Y-139559028D01*
X178606429Y-139559028D02*
X178663572Y-139501885D01*
X178663572Y-139501885D02*
X178777857Y-139444742D01*
X178777857Y-139444742D02*
X178949286Y-139444742D01*
X178949286Y-139444742D02*
X179063572Y-139501885D01*
X179063572Y-139501885D02*
X179120715Y-139559028D01*
X179120715Y-139559028D02*
X179177857Y-139673314D01*
X179177857Y-139673314D02*
X179177857Y-140016171D01*
X179177857Y-140016171D02*
X179120715Y-140130457D01*
X179120715Y-140130457D02*
X179063572Y-140187600D01*
X179063572Y-140187600D02*
X178949286Y-140244742D01*
X178949286Y-140244742D02*
X178777857Y-140244742D01*
X180206429Y-139444742D02*
X180206429Y-140416171D01*
X180206429Y-140416171D02*
X180149286Y-140530457D01*
X180149286Y-140530457D02*
X180092143Y-140587600D01*
X180092143Y-140587600D02*
X179977857Y-140644742D01*
X179977857Y-140644742D02*
X179806429Y-140644742D01*
X179806429Y-140644742D02*
X179692143Y-140587600D01*
X180206429Y-140187600D02*
X180092143Y-140244742D01*
X180092143Y-140244742D02*
X179863571Y-140244742D01*
X179863571Y-140244742D02*
X179749286Y-140187600D01*
X179749286Y-140187600D02*
X179692143Y-140130457D01*
X179692143Y-140130457D02*
X179635000Y-140016171D01*
X179635000Y-140016171D02*
X179635000Y-139673314D01*
X179635000Y-139673314D02*
X179692143Y-139559028D01*
X179692143Y-139559028D02*
X179749286Y-139501885D01*
X179749286Y-139501885D02*
X179863571Y-139444742D01*
X179863571Y-139444742D02*
X180092143Y-139444742D01*
X180092143Y-139444742D02*
X180206429Y-139501885D01*
X49600000Y-125639742D02*
X49200000Y-125068314D01*
X48914286Y-125639742D02*
X48914286Y-124439742D01*
X48914286Y-124439742D02*
X49371429Y-124439742D01*
X49371429Y-124439742D02*
X49485714Y-124496885D01*
X49485714Y-124496885D02*
X49542857Y-124554028D01*
X49542857Y-124554028D02*
X49600000Y-124668314D01*
X49600000Y-124668314D02*
X49600000Y-124839742D01*
X49600000Y-124839742D02*
X49542857Y-124954028D01*
X49542857Y-124954028D02*
X49485714Y-125011171D01*
X49485714Y-125011171D02*
X49371429Y-125068314D01*
X49371429Y-125068314D02*
X48914286Y-125068314D01*
X50285714Y-124954028D02*
X50171429Y-124896885D01*
X50171429Y-124896885D02*
X50114286Y-124839742D01*
X50114286Y-124839742D02*
X50057143Y-124725457D01*
X50057143Y-124725457D02*
X50057143Y-124668314D01*
X50057143Y-124668314D02*
X50114286Y-124554028D01*
X50114286Y-124554028D02*
X50171429Y-124496885D01*
X50171429Y-124496885D02*
X50285714Y-124439742D01*
X50285714Y-124439742D02*
X50514286Y-124439742D01*
X50514286Y-124439742D02*
X50628572Y-124496885D01*
X50628572Y-124496885D02*
X50685714Y-124554028D01*
X50685714Y-124554028D02*
X50742857Y-124668314D01*
X50742857Y-124668314D02*
X50742857Y-124725457D01*
X50742857Y-124725457D02*
X50685714Y-124839742D01*
X50685714Y-124839742D02*
X50628572Y-124896885D01*
X50628572Y-124896885D02*
X50514286Y-124954028D01*
X50514286Y-124954028D02*
X50285714Y-124954028D01*
X50285714Y-124954028D02*
X50171429Y-125011171D01*
X50171429Y-125011171D02*
X50114286Y-125068314D01*
X50114286Y-125068314D02*
X50057143Y-125182600D01*
X50057143Y-125182600D02*
X50057143Y-125411171D01*
X50057143Y-125411171D02*
X50114286Y-125525457D01*
X50114286Y-125525457D02*
X50171429Y-125582600D01*
X50171429Y-125582600D02*
X50285714Y-125639742D01*
X50285714Y-125639742D02*
X50514286Y-125639742D01*
X50514286Y-125639742D02*
X50628572Y-125582600D01*
X50628572Y-125582600D02*
X50685714Y-125525457D01*
X50685714Y-125525457D02*
X50742857Y-125411171D01*
X50742857Y-125411171D02*
X50742857Y-125182600D01*
X50742857Y-125182600D02*
X50685714Y-125068314D01*
X50685714Y-125068314D02*
X50628572Y-125011171D01*
X50628572Y-125011171D02*
X50514286Y-124954028D01*
X49000000Y-127544742D02*
X48314286Y-127544742D01*
X48657143Y-127544742D02*
X48657143Y-126344742D01*
X48657143Y-126344742D02*
X48542857Y-126516171D01*
X48542857Y-126516171D02*
X48428572Y-126630457D01*
X48428572Y-126630457D02*
X48314286Y-126687600D01*
X49457143Y-126459028D02*
X49514286Y-126401885D01*
X49514286Y-126401885D02*
X49628572Y-126344742D01*
X49628572Y-126344742D02*
X49914286Y-126344742D01*
X49914286Y-126344742D02*
X50028572Y-126401885D01*
X50028572Y-126401885D02*
X50085714Y-126459028D01*
X50085714Y-126459028D02*
X50142857Y-126573314D01*
X50142857Y-126573314D02*
X50142857Y-126687600D01*
X50142857Y-126687600D02*
X50085714Y-126859028D01*
X50085714Y-126859028D02*
X49400000Y-127544742D01*
X49400000Y-127544742D02*
X50142857Y-127544742D01*
X50885714Y-126344742D02*
X51000000Y-126344742D01*
X51000000Y-126344742D02*
X51114286Y-126401885D01*
X51114286Y-126401885D02*
X51171429Y-126459028D01*
X51171429Y-126459028D02*
X51228571Y-126573314D01*
X51228571Y-126573314D02*
X51285714Y-126801885D01*
X51285714Y-126801885D02*
X51285714Y-127087600D01*
X51285714Y-127087600D02*
X51228571Y-127316171D01*
X51228571Y-127316171D02*
X51171429Y-127430457D01*
X51171429Y-127430457D02*
X51114286Y-127487600D01*
X51114286Y-127487600D02*
X51000000Y-127544742D01*
X51000000Y-127544742D02*
X50885714Y-127544742D01*
X50885714Y-127544742D02*
X50771429Y-127487600D01*
X50771429Y-127487600D02*
X50714286Y-127430457D01*
X50714286Y-127430457D02*
X50657143Y-127316171D01*
X50657143Y-127316171D02*
X50600000Y-127087600D01*
X50600000Y-127087600D02*
X50600000Y-126801885D01*
X50600000Y-126801885D02*
X50657143Y-126573314D01*
X50657143Y-126573314D02*
X50714286Y-126459028D01*
X50714286Y-126459028D02*
X50771429Y-126401885D01*
X50771429Y-126401885D02*
X50885714Y-126344742D01*
X55545000Y-112939742D02*
X55145000Y-112368314D01*
X54859286Y-112939742D02*
X54859286Y-111739742D01*
X54859286Y-111739742D02*
X55316429Y-111739742D01*
X55316429Y-111739742D02*
X55430714Y-111796885D01*
X55430714Y-111796885D02*
X55487857Y-111854028D01*
X55487857Y-111854028D02*
X55545000Y-111968314D01*
X55545000Y-111968314D02*
X55545000Y-112139742D01*
X55545000Y-112139742D02*
X55487857Y-112254028D01*
X55487857Y-112254028D02*
X55430714Y-112311171D01*
X55430714Y-112311171D02*
X55316429Y-112368314D01*
X55316429Y-112368314D02*
X54859286Y-112368314D01*
X56687857Y-112939742D02*
X56002143Y-112939742D01*
X56345000Y-112939742D02*
X56345000Y-111739742D01*
X56345000Y-111739742D02*
X56230714Y-111911171D01*
X56230714Y-111911171D02*
X56116429Y-112025457D01*
X56116429Y-112025457D02*
X56002143Y-112082600D01*
X155210000Y-101579742D02*
X155210000Y-102436885D01*
X155210000Y-102436885D02*
X155152857Y-102608314D01*
X155152857Y-102608314D02*
X155038571Y-102722600D01*
X155038571Y-102722600D02*
X154867143Y-102779742D01*
X154867143Y-102779742D02*
X154752857Y-102779742D01*
X155781429Y-102779742D02*
X155781429Y-101579742D01*
X155781429Y-101579742D02*
X156238572Y-101579742D01*
X156238572Y-101579742D02*
X156352857Y-101636885D01*
X156352857Y-101636885D02*
X156410000Y-101694028D01*
X156410000Y-101694028D02*
X156467143Y-101808314D01*
X156467143Y-101808314D02*
X156467143Y-101979742D01*
X156467143Y-101979742D02*
X156410000Y-102094028D01*
X156410000Y-102094028D02*
X156352857Y-102151171D01*
X156352857Y-102151171D02*
X156238572Y-102208314D01*
X156238572Y-102208314D02*
X155781429Y-102208314D01*
X157610000Y-102779742D02*
X156924286Y-102779742D01*
X157267143Y-102779742D02*
X157267143Y-101579742D01*
X157267143Y-101579742D02*
X157152857Y-101751171D01*
X157152857Y-101751171D02*
X157038572Y-101865457D01*
X157038572Y-101865457D02*
X156924286Y-101922600D01*
X155708572Y-95794742D02*
X155708572Y-94594742D01*
X155708572Y-94594742D02*
X156165715Y-94594742D01*
X156165715Y-94594742D02*
X156280000Y-94651885D01*
X156280000Y-94651885D02*
X156337143Y-94709028D01*
X156337143Y-94709028D02*
X156394286Y-94823314D01*
X156394286Y-94823314D02*
X156394286Y-94994742D01*
X156394286Y-94994742D02*
X156337143Y-95109028D01*
X156337143Y-95109028D02*
X156280000Y-95166171D01*
X156280000Y-95166171D02*
X156165715Y-95223314D01*
X156165715Y-95223314D02*
X155708572Y-95223314D01*
X156908572Y-95794742D02*
X156908572Y-94994742D01*
X156908572Y-95223314D02*
X156965715Y-95109028D01*
X156965715Y-95109028D02*
X157022858Y-95051885D01*
X157022858Y-95051885D02*
X157137143Y-94994742D01*
X157137143Y-94994742D02*
X157251429Y-94994742D01*
X157822857Y-95794742D02*
X157708572Y-95737600D01*
X157708572Y-95737600D02*
X157651429Y-95680457D01*
X157651429Y-95680457D02*
X157594286Y-95566171D01*
X157594286Y-95566171D02*
X157594286Y-95223314D01*
X157594286Y-95223314D02*
X157651429Y-95109028D01*
X157651429Y-95109028D02*
X157708572Y-95051885D01*
X157708572Y-95051885D02*
X157822857Y-94994742D01*
X157822857Y-94994742D02*
X157994286Y-94994742D01*
X157994286Y-94994742D02*
X158108572Y-95051885D01*
X158108572Y-95051885D02*
X158165715Y-95109028D01*
X158165715Y-95109028D02*
X158222857Y-95223314D01*
X158222857Y-95223314D02*
X158222857Y-95566171D01*
X158222857Y-95566171D02*
X158165715Y-95680457D01*
X158165715Y-95680457D02*
X158108572Y-95737600D01*
X158108572Y-95737600D02*
X157994286Y-95794742D01*
X157994286Y-95794742D02*
X157822857Y-95794742D01*
X159251429Y-94994742D02*
X159251429Y-95966171D01*
X159251429Y-95966171D02*
X159194286Y-96080457D01*
X159194286Y-96080457D02*
X159137143Y-96137600D01*
X159137143Y-96137600D02*
X159022857Y-96194742D01*
X159022857Y-96194742D02*
X158851429Y-96194742D01*
X158851429Y-96194742D02*
X158737143Y-96137600D01*
X159251429Y-95737600D02*
X159137143Y-95794742D01*
X159137143Y-95794742D02*
X158908571Y-95794742D01*
X158908571Y-95794742D02*
X158794286Y-95737600D01*
X158794286Y-95737600D02*
X158737143Y-95680457D01*
X158737143Y-95680457D02*
X158680000Y-95566171D01*
X158680000Y-95566171D02*
X158680000Y-95223314D01*
X158680000Y-95223314D02*
X158737143Y-95109028D01*
X158737143Y-95109028D02*
X158794286Y-95051885D01*
X158794286Y-95051885D02*
X158908571Y-94994742D01*
X158908571Y-94994742D02*
X159137143Y-94994742D01*
X159137143Y-94994742D02*
X159251429Y-95051885D01*
X155542858Y-94261600D02*
X159417143Y-94261600D01*
X35918500Y-91888457D02*
X35861357Y-91945600D01*
X35861357Y-91945600D02*
X35689929Y-92002742D01*
X35689929Y-92002742D02*
X35575643Y-92002742D01*
X35575643Y-92002742D02*
X35404214Y-91945600D01*
X35404214Y-91945600D02*
X35289929Y-91831314D01*
X35289929Y-91831314D02*
X35232786Y-91717028D01*
X35232786Y-91717028D02*
X35175643Y-91488457D01*
X35175643Y-91488457D02*
X35175643Y-91317028D01*
X35175643Y-91317028D02*
X35232786Y-91088457D01*
X35232786Y-91088457D02*
X35289929Y-90974171D01*
X35289929Y-90974171D02*
X35404214Y-90859885D01*
X35404214Y-90859885D02*
X35575643Y-90802742D01*
X35575643Y-90802742D02*
X35689929Y-90802742D01*
X35689929Y-90802742D02*
X35861357Y-90859885D01*
X35861357Y-90859885D02*
X35918500Y-90917028D01*
X36947072Y-91202742D02*
X36947072Y-92002742D01*
X36661357Y-90745600D02*
X36375643Y-91602742D01*
X36375643Y-91602742D02*
X37118500Y-91602742D01*
X165518571Y-96950457D02*
X165461428Y-97007600D01*
X165461428Y-97007600D02*
X165290000Y-97064742D01*
X165290000Y-97064742D02*
X165175714Y-97064742D01*
X165175714Y-97064742D02*
X165004285Y-97007600D01*
X165004285Y-97007600D02*
X164890000Y-96893314D01*
X164890000Y-96893314D02*
X164832857Y-96779028D01*
X164832857Y-96779028D02*
X164775714Y-96550457D01*
X164775714Y-96550457D02*
X164775714Y-96379028D01*
X164775714Y-96379028D02*
X164832857Y-96150457D01*
X164832857Y-96150457D02*
X164890000Y-96036171D01*
X164890000Y-96036171D02*
X165004285Y-95921885D01*
X165004285Y-95921885D02*
X165175714Y-95864742D01*
X165175714Y-95864742D02*
X165290000Y-95864742D01*
X165290000Y-95864742D02*
X165461428Y-95921885D01*
X165461428Y-95921885D02*
X165518571Y-95979028D01*
X166661428Y-97064742D02*
X165975714Y-97064742D01*
X166318571Y-97064742D02*
X166318571Y-95864742D01*
X166318571Y-95864742D02*
X166204285Y-96036171D01*
X166204285Y-96036171D02*
X166090000Y-96150457D01*
X166090000Y-96150457D02*
X165975714Y-96207600D01*
X167118571Y-95979028D02*
X167175714Y-95921885D01*
X167175714Y-95921885D02*
X167290000Y-95864742D01*
X167290000Y-95864742D02*
X167575714Y-95864742D01*
X167575714Y-95864742D02*
X167690000Y-95921885D01*
X167690000Y-95921885D02*
X167747142Y-95979028D01*
X167747142Y-95979028D02*
X167804285Y-96093314D01*
X167804285Y-96093314D02*
X167804285Y-96207600D01*
X167804285Y-96207600D02*
X167747142Y-96379028D01*
X167747142Y-96379028D02*
X167061428Y-97064742D01*
X167061428Y-97064742D02*
X167804285Y-97064742D01*
X175466071Y-132510457D02*
X175408928Y-132567600D01*
X175408928Y-132567600D02*
X175237500Y-132624742D01*
X175237500Y-132624742D02*
X175123214Y-132624742D01*
X175123214Y-132624742D02*
X174951785Y-132567600D01*
X174951785Y-132567600D02*
X174837500Y-132453314D01*
X174837500Y-132453314D02*
X174780357Y-132339028D01*
X174780357Y-132339028D02*
X174723214Y-132110457D01*
X174723214Y-132110457D02*
X174723214Y-131939028D01*
X174723214Y-131939028D02*
X174780357Y-131710457D01*
X174780357Y-131710457D02*
X174837500Y-131596171D01*
X174837500Y-131596171D02*
X174951785Y-131481885D01*
X174951785Y-131481885D02*
X175123214Y-131424742D01*
X175123214Y-131424742D02*
X175237500Y-131424742D01*
X175237500Y-131424742D02*
X175408928Y-131481885D01*
X175408928Y-131481885D02*
X175466071Y-131539028D01*
X176608928Y-132624742D02*
X175923214Y-132624742D01*
X176266071Y-132624742D02*
X176266071Y-131424742D01*
X176266071Y-131424742D02*
X176151785Y-131596171D01*
X176151785Y-131596171D02*
X176037500Y-131710457D01*
X176037500Y-131710457D02*
X175923214Y-131767600D01*
X177751785Y-132624742D02*
X177066071Y-132624742D01*
X177408928Y-132624742D02*
X177408928Y-131424742D01*
X177408928Y-131424742D02*
X177294642Y-131596171D01*
X177294642Y-131596171D02*
X177180357Y-131710457D01*
X177180357Y-131710457D02*
X177066071Y-131767600D01*
X129895714Y-133964742D02*
X129895714Y-134936171D01*
X129895714Y-134936171D02*
X129952857Y-135050457D01*
X129952857Y-135050457D02*
X130010000Y-135107600D01*
X130010000Y-135107600D02*
X130124285Y-135164742D01*
X130124285Y-135164742D02*
X130352857Y-135164742D01*
X130352857Y-135164742D02*
X130467142Y-135107600D01*
X130467142Y-135107600D02*
X130524285Y-135050457D01*
X130524285Y-135050457D02*
X130581428Y-134936171D01*
X130581428Y-134936171D02*
X130581428Y-133964742D01*
X131667143Y-134364742D02*
X131667143Y-135164742D01*
X131381428Y-133907600D02*
X131095714Y-134764742D01*
X131095714Y-134764742D02*
X131838571Y-134764742D01*
X124958571Y-201839742D02*
X124558571Y-201268314D01*
X124272857Y-201839742D02*
X124272857Y-200639742D01*
X124272857Y-200639742D02*
X124730000Y-200639742D01*
X124730000Y-200639742D02*
X124844285Y-200696885D01*
X124844285Y-200696885D02*
X124901428Y-200754028D01*
X124901428Y-200754028D02*
X124958571Y-200868314D01*
X124958571Y-200868314D02*
X124958571Y-201039742D01*
X124958571Y-201039742D02*
X124901428Y-201154028D01*
X124901428Y-201154028D02*
X124844285Y-201211171D01*
X124844285Y-201211171D02*
X124730000Y-201268314D01*
X124730000Y-201268314D02*
X124272857Y-201268314D01*
X126101428Y-201839742D02*
X125415714Y-201839742D01*
X125758571Y-201839742D02*
X125758571Y-200639742D01*
X125758571Y-200639742D02*
X125644285Y-200811171D01*
X125644285Y-200811171D02*
X125530000Y-200925457D01*
X125530000Y-200925457D02*
X125415714Y-200982600D01*
X126844285Y-200639742D02*
X126958571Y-200639742D01*
X126958571Y-200639742D02*
X127072857Y-200696885D01*
X127072857Y-200696885D02*
X127130000Y-200754028D01*
X127130000Y-200754028D02*
X127187142Y-200868314D01*
X127187142Y-200868314D02*
X127244285Y-201096885D01*
X127244285Y-201096885D02*
X127244285Y-201382600D01*
X127244285Y-201382600D02*
X127187142Y-201611171D01*
X127187142Y-201611171D02*
X127130000Y-201725457D01*
X127130000Y-201725457D02*
X127072857Y-201782600D01*
X127072857Y-201782600D02*
X126958571Y-201839742D01*
X126958571Y-201839742D02*
X126844285Y-201839742D01*
X126844285Y-201839742D02*
X126730000Y-201782600D01*
X126730000Y-201782600D02*
X126672857Y-201725457D01*
X126672857Y-201725457D02*
X126615714Y-201611171D01*
X126615714Y-201611171D02*
X126558571Y-201382600D01*
X126558571Y-201382600D02*
X126558571Y-201096885D01*
X126558571Y-201096885D02*
X126615714Y-200868314D01*
X126615714Y-200868314D02*
X126672857Y-200754028D01*
X126672857Y-200754028D02*
X126730000Y-200696885D01*
X126730000Y-200696885D02*
X126844285Y-200639742D01*
X136760000Y-182859742D02*
X136760000Y-183716885D01*
X136760000Y-183716885D02*
X136702857Y-183888314D01*
X136702857Y-183888314D02*
X136588571Y-184002600D01*
X136588571Y-184002600D02*
X136417143Y-184059742D01*
X136417143Y-184059742D02*
X136302857Y-184059742D01*
X137502857Y-183374028D02*
X137388572Y-183316885D01*
X137388572Y-183316885D02*
X137331429Y-183259742D01*
X137331429Y-183259742D02*
X137274286Y-183145457D01*
X137274286Y-183145457D02*
X137274286Y-183088314D01*
X137274286Y-183088314D02*
X137331429Y-182974028D01*
X137331429Y-182974028D02*
X137388572Y-182916885D01*
X137388572Y-182916885D02*
X137502857Y-182859742D01*
X137502857Y-182859742D02*
X137731429Y-182859742D01*
X137731429Y-182859742D02*
X137845715Y-182916885D01*
X137845715Y-182916885D02*
X137902857Y-182974028D01*
X137902857Y-182974028D02*
X137960000Y-183088314D01*
X137960000Y-183088314D02*
X137960000Y-183145457D01*
X137960000Y-183145457D02*
X137902857Y-183259742D01*
X137902857Y-183259742D02*
X137845715Y-183316885D01*
X137845715Y-183316885D02*
X137731429Y-183374028D01*
X137731429Y-183374028D02*
X137502857Y-183374028D01*
X137502857Y-183374028D02*
X137388572Y-183431171D01*
X137388572Y-183431171D02*
X137331429Y-183488314D01*
X137331429Y-183488314D02*
X137274286Y-183602600D01*
X137274286Y-183602600D02*
X137274286Y-183831171D01*
X137274286Y-183831171D02*
X137331429Y-183945457D01*
X137331429Y-183945457D02*
X137388572Y-184002600D01*
X137388572Y-184002600D02*
X137502857Y-184059742D01*
X137502857Y-184059742D02*
X137731429Y-184059742D01*
X137731429Y-184059742D02*
X137845715Y-184002600D01*
X137845715Y-184002600D02*
X137902857Y-183945457D01*
X137902857Y-183945457D02*
X137960000Y-183831171D01*
X137960000Y-183831171D02*
X137960000Y-183602600D01*
X137960000Y-183602600D02*
X137902857Y-183488314D01*
X137902857Y-183488314D02*
X137845715Y-183431171D01*
X137845715Y-183431171D02*
X137731429Y-183374028D01*
X131562857Y-175169742D02*
X131562857Y-173969742D01*
X131562857Y-173969742D02*
X131848571Y-173969742D01*
X131848571Y-173969742D02*
X132020000Y-174026885D01*
X132020000Y-174026885D02*
X132134285Y-174141171D01*
X132134285Y-174141171D02*
X132191428Y-174255457D01*
X132191428Y-174255457D02*
X132248571Y-174484028D01*
X132248571Y-174484028D02*
X132248571Y-174655457D01*
X132248571Y-174655457D02*
X132191428Y-174884028D01*
X132191428Y-174884028D02*
X132134285Y-174998314D01*
X132134285Y-174998314D02*
X132020000Y-175112600D01*
X132020000Y-175112600D02*
X131848571Y-175169742D01*
X131848571Y-175169742D02*
X131562857Y-175169742D01*
X132705714Y-174826885D02*
X133277143Y-174826885D01*
X132591428Y-175169742D02*
X132991428Y-173969742D01*
X132991428Y-173969742D02*
X133391428Y-175169742D01*
X134477142Y-175055457D02*
X134419999Y-175112600D01*
X134419999Y-175112600D02*
X134248571Y-175169742D01*
X134248571Y-175169742D02*
X134134285Y-175169742D01*
X134134285Y-175169742D02*
X133962856Y-175112600D01*
X133962856Y-175112600D02*
X133848571Y-174998314D01*
X133848571Y-174998314D02*
X133791428Y-174884028D01*
X133791428Y-174884028D02*
X133734285Y-174655457D01*
X133734285Y-174655457D02*
X133734285Y-174484028D01*
X133734285Y-174484028D02*
X133791428Y-174255457D01*
X133791428Y-174255457D02*
X133848571Y-174141171D01*
X133848571Y-174141171D02*
X133962856Y-174026885D01*
X133962856Y-174026885D02*
X134134285Y-173969742D01*
X134134285Y-173969742D02*
X134248571Y-173969742D01*
X134248571Y-173969742D02*
X134419999Y-174026885D01*
X134419999Y-174026885D02*
X134477142Y-174084028D01*
X136591428Y-175055457D02*
X136534285Y-175112600D01*
X136534285Y-175112600D02*
X136362857Y-175169742D01*
X136362857Y-175169742D02*
X136248571Y-175169742D01*
X136248571Y-175169742D02*
X136077142Y-175112600D01*
X136077142Y-175112600D02*
X135962857Y-174998314D01*
X135962857Y-174998314D02*
X135905714Y-174884028D01*
X135905714Y-174884028D02*
X135848571Y-174655457D01*
X135848571Y-174655457D02*
X135848571Y-174484028D01*
X135848571Y-174484028D02*
X135905714Y-174255457D01*
X135905714Y-174255457D02*
X135962857Y-174141171D01*
X135962857Y-174141171D02*
X136077142Y-174026885D01*
X136077142Y-174026885D02*
X136248571Y-173969742D01*
X136248571Y-173969742D02*
X136362857Y-173969742D01*
X136362857Y-173969742D02*
X136534285Y-174026885D01*
X136534285Y-174026885D02*
X136591428Y-174084028D01*
X137048571Y-175112600D02*
X137220000Y-175169742D01*
X137220000Y-175169742D02*
X137505714Y-175169742D01*
X137505714Y-175169742D02*
X137620000Y-175112600D01*
X137620000Y-175112600D02*
X137677142Y-175055457D01*
X137677142Y-175055457D02*
X137734285Y-174941171D01*
X137734285Y-174941171D02*
X137734285Y-174826885D01*
X137734285Y-174826885D02*
X137677142Y-174712600D01*
X137677142Y-174712600D02*
X137620000Y-174655457D01*
X137620000Y-174655457D02*
X137505714Y-174598314D01*
X137505714Y-174598314D02*
X137277142Y-174541171D01*
X137277142Y-174541171D02*
X137162857Y-174484028D01*
X137162857Y-174484028D02*
X137105714Y-174426885D01*
X137105714Y-174426885D02*
X137048571Y-174312600D01*
X137048571Y-174312600D02*
X137048571Y-174198314D01*
X137048571Y-174198314D02*
X137105714Y-174084028D01*
X137105714Y-174084028D02*
X137162857Y-174026885D01*
X137162857Y-174026885D02*
X137277142Y-173969742D01*
X137277142Y-173969742D02*
X137562857Y-173969742D01*
X137562857Y-173969742D02*
X137734285Y-174026885D01*
X135740000Y-173636600D02*
X137842857Y-173636600D01*
X69015000Y-96315457D02*
X68957857Y-96372600D01*
X68957857Y-96372600D02*
X68786429Y-96429742D01*
X68786429Y-96429742D02*
X68672143Y-96429742D01*
X68672143Y-96429742D02*
X68500714Y-96372600D01*
X68500714Y-96372600D02*
X68386429Y-96258314D01*
X68386429Y-96258314D02*
X68329286Y-96144028D01*
X68329286Y-96144028D02*
X68272143Y-95915457D01*
X68272143Y-95915457D02*
X68272143Y-95744028D01*
X68272143Y-95744028D02*
X68329286Y-95515457D01*
X68329286Y-95515457D02*
X68386429Y-95401171D01*
X68386429Y-95401171D02*
X68500714Y-95286885D01*
X68500714Y-95286885D02*
X68672143Y-95229742D01*
X68672143Y-95229742D02*
X68786429Y-95229742D01*
X68786429Y-95229742D02*
X68957857Y-95286885D01*
X68957857Y-95286885D02*
X69015000Y-95344028D01*
X70043572Y-95229742D02*
X69815000Y-95229742D01*
X69815000Y-95229742D02*
X69700714Y-95286885D01*
X69700714Y-95286885D02*
X69643572Y-95344028D01*
X69643572Y-95344028D02*
X69529286Y-95515457D01*
X69529286Y-95515457D02*
X69472143Y-95744028D01*
X69472143Y-95744028D02*
X69472143Y-96201171D01*
X69472143Y-96201171D02*
X69529286Y-96315457D01*
X69529286Y-96315457D02*
X69586429Y-96372600D01*
X69586429Y-96372600D02*
X69700714Y-96429742D01*
X69700714Y-96429742D02*
X69929286Y-96429742D01*
X69929286Y-96429742D02*
X70043572Y-96372600D01*
X70043572Y-96372600D02*
X70100714Y-96315457D01*
X70100714Y-96315457D02*
X70157857Y-96201171D01*
X70157857Y-96201171D02*
X70157857Y-95915457D01*
X70157857Y-95915457D02*
X70100714Y-95801171D01*
X70100714Y-95801171D02*
X70043572Y-95744028D01*
X70043572Y-95744028D02*
X69929286Y-95686885D01*
X69929286Y-95686885D02*
X69700714Y-95686885D01*
X69700714Y-95686885D02*
X69586429Y-95744028D01*
X69586429Y-95744028D02*
X69529286Y-95801171D01*
X69529286Y-95801171D02*
X69472143Y-95915457D01*
X58740000Y-105985457D02*
X58682857Y-106042600D01*
X58682857Y-106042600D02*
X58511429Y-106099742D01*
X58511429Y-106099742D02*
X58397143Y-106099742D01*
X58397143Y-106099742D02*
X58225714Y-106042600D01*
X58225714Y-106042600D02*
X58111429Y-105928314D01*
X58111429Y-105928314D02*
X58054286Y-105814028D01*
X58054286Y-105814028D02*
X57997143Y-105585457D01*
X57997143Y-105585457D02*
X57997143Y-105414028D01*
X57997143Y-105414028D02*
X58054286Y-105185457D01*
X58054286Y-105185457D02*
X58111429Y-105071171D01*
X58111429Y-105071171D02*
X58225714Y-104956885D01*
X58225714Y-104956885D02*
X58397143Y-104899742D01*
X58397143Y-104899742D02*
X58511429Y-104899742D01*
X58511429Y-104899742D02*
X58682857Y-104956885D01*
X58682857Y-104956885D02*
X58740000Y-105014028D01*
X59825714Y-104899742D02*
X59254286Y-104899742D01*
X59254286Y-104899742D02*
X59197143Y-105471171D01*
X59197143Y-105471171D02*
X59254286Y-105414028D01*
X59254286Y-105414028D02*
X59368572Y-105356885D01*
X59368572Y-105356885D02*
X59654286Y-105356885D01*
X59654286Y-105356885D02*
X59768572Y-105414028D01*
X59768572Y-105414028D02*
X59825714Y-105471171D01*
X59825714Y-105471171D02*
X59882857Y-105585457D01*
X59882857Y-105585457D02*
X59882857Y-105871171D01*
X59882857Y-105871171D02*
X59825714Y-105985457D01*
X59825714Y-105985457D02*
X59768572Y-106042600D01*
X59768572Y-106042600D02*
X59654286Y-106099742D01*
X59654286Y-106099742D02*
X59368572Y-106099742D01*
X59368572Y-106099742D02*
X59254286Y-106042600D01*
X59254286Y-106042600D02*
X59197143Y-105985457D01*
X40440000Y-106589742D02*
X40040000Y-106018314D01*
X39754286Y-106589742D02*
X39754286Y-105389742D01*
X39754286Y-105389742D02*
X40211429Y-105389742D01*
X40211429Y-105389742D02*
X40325714Y-105446885D01*
X40325714Y-105446885D02*
X40382857Y-105504028D01*
X40382857Y-105504028D02*
X40440000Y-105618314D01*
X40440000Y-105618314D02*
X40440000Y-105789742D01*
X40440000Y-105789742D02*
X40382857Y-105904028D01*
X40382857Y-105904028D02*
X40325714Y-105961171D01*
X40325714Y-105961171D02*
X40211429Y-106018314D01*
X40211429Y-106018314D02*
X39754286Y-106018314D01*
X40840000Y-105389742D02*
X41582857Y-105389742D01*
X41582857Y-105389742D02*
X41182857Y-105846885D01*
X41182857Y-105846885D02*
X41354286Y-105846885D01*
X41354286Y-105846885D02*
X41468572Y-105904028D01*
X41468572Y-105904028D02*
X41525714Y-105961171D01*
X41525714Y-105961171D02*
X41582857Y-106075457D01*
X41582857Y-106075457D02*
X41582857Y-106361171D01*
X41582857Y-106361171D02*
X41525714Y-106475457D01*
X41525714Y-106475457D02*
X41468572Y-106532600D01*
X41468572Y-106532600D02*
X41354286Y-106589742D01*
X41354286Y-106589742D02*
X41011429Y-106589742D01*
X41011429Y-106589742D02*
X40897143Y-106532600D01*
X40897143Y-106532600D02*
X40840000Y-106475457D01*
X139410000Y-105897600D02*
X139581429Y-105954742D01*
X139581429Y-105954742D02*
X139867143Y-105954742D01*
X139867143Y-105954742D02*
X139981429Y-105897600D01*
X139981429Y-105897600D02*
X140038571Y-105840457D01*
X140038571Y-105840457D02*
X140095714Y-105726171D01*
X140095714Y-105726171D02*
X140095714Y-105611885D01*
X140095714Y-105611885D02*
X140038571Y-105497600D01*
X140038571Y-105497600D02*
X139981429Y-105440457D01*
X139981429Y-105440457D02*
X139867143Y-105383314D01*
X139867143Y-105383314D02*
X139638571Y-105326171D01*
X139638571Y-105326171D02*
X139524286Y-105269028D01*
X139524286Y-105269028D02*
X139467143Y-105211885D01*
X139467143Y-105211885D02*
X139410000Y-105097600D01*
X139410000Y-105097600D02*
X139410000Y-104983314D01*
X139410000Y-104983314D02*
X139467143Y-104869028D01*
X139467143Y-104869028D02*
X139524286Y-104811885D01*
X139524286Y-104811885D02*
X139638571Y-104754742D01*
X139638571Y-104754742D02*
X139924286Y-104754742D01*
X139924286Y-104754742D02*
X140095714Y-104811885D01*
X140495714Y-104754742D02*
X140781428Y-105954742D01*
X140781428Y-105954742D02*
X141010000Y-105097600D01*
X141010000Y-105097600D02*
X141238571Y-105954742D01*
X141238571Y-105954742D02*
X141524286Y-104754742D01*
X142610000Y-105954742D02*
X141924286Y-105954742D01*
X142267143Y-105954742D02*
X142267143Y-104754742D01*
X142267143Y-104754742D02*
X142152857Y-104926171D01*
X142152857Y-104926171D02*
X142038572Y-105040457D01*
X142038572Y-105040457D02*
X141924286Y-105097600D01*
X139424286Y-88094742D02*
X139024286Y-87523314D01*
X138738572Y-88094742D02*
X138738572Y-86894742D01*
X138738572Y-86894742D02*
X139195715Y-86894742D01*
X139195715Y-86894742D02*
X139310000Y-86951885D01*
X139310000Y-86951885D02*
X139367143Y-87009028D01*
X139367143Y-87009028D02*
X139424286Y-87123314D01*
X139424286Y-87123314D02*
X139424286Y-87294742D01*
X139424286Y-87294742D02*
X139367143Y-87409028D01*
X139367143Y-87409028D02*
X139310000Y-87466171D01*
X139310000Y-87466171D02*
X139195715Y-87523314D01*
X139195715Y-87523314D02*
X138738572Y-87523314D01*
X140395715Y-88037600D02*
X140281429Y-88094742D01*
X140281429Y-88094742D02*
X140052858Y-88094742D01*
X140052858Y-88094742D02*
X139938572Y-88037600D01*
X139938572Y-88037600D02*
X139881429Y-87923314D01*
X139881429Y-87923314D02*
X139881429Y-87466171D01*
X139881429Y-87466171D02*
X139938572Y-87351885D01*
X139938572Y-87351885D02*
X140052858Y-87294742D01*
X140052858Y-87294742D02*
X140281429Y-87294742D01*
X140281429Y-87294742D02*
X140395715Y-87351885D01*
X140395715Y-87351885D02*
X140452858Y-87466171D01*
X140452858Y-87466171D02*
X140452858Y-87580457D01*
X140452858Y-87580457D02*
X139881429Y-87694742D01*
X140910000Y-88037600D02*
X141024286Y-88094742D01*
X141024286Y-88094742D02*
X141252857Y-88094742D01*
X141252857Y-88094742D02*
X141367143Y-88037600D01*
X141367143Y-88037600D02*
X141424286Y-87923314D01*
X141424286Y-87923314D02*
X141424286Y-87866171D01*
X141424286Y-87866171D02*
X141367143Y-87751885D01*
X141367143Y-87751885D02*
X141252857Y-87694742D01*
X141252857Y-87694742D02*
X141081429Y-87694742D01*
X141081429Y-87694742D02*
X140967143Y-87637600D01*
X140967143Y-87637600D02*
X140910000Y-87523314D01*
X140910000Y-87523314D02*
X140910000Y-87466171D01*
X140910000Y-87466171D02*
X140967143Y-87351885D01*
X140967143Y-87351885D02*
X141081429Y-87294742D01*
X141081429Y-87294742D02*
X141252857Y-87294742D01*
X141252857Y-87294742D02*
X141367143Y-87351885D01*
X142395715Y-88037600D02*
X142281429Y-88094742D01*
X142281429Y-88094742D02*
X142052858Y-88094742D01*
X142052858Y-88094742D02*
X141938572Y-88037600D01*
X141938572Y-88037600D02*
X141881429Y-87923314D01*
X141881429Y-87923314D02*
X141881429Y-87466171D01*
X141881429Y-87466171D02*
X141938572Y-87351885D01*
X141938572Y-87351885D02*
X142052858Y-87294742D01*
X142052858Y-87294742D02*
X142281429Y-87294742D01*
X142281429Y-87294742D02*
X142395715Y-87351885D01*
X142395715Y-87351885D02*
X142452858Y-87466171D01*
X142452858Y-87466171D02*
X142452858Y-87580457D01*
X142452858Y-87580457D02*
X141881429Y-87694742D01*
X142795714Y-87294742D02*
X143252857Y-87294742D01*
X142967143Y-86894742D02*
X142967143Y-87923314D01*
X142967143Y-87923314D02*
X143024286Y-88037600D01*
X143024286Y-88037600D02*
X143138571Y-88094742D01*
X143138571Y-88094742D02*
X143252857Y-88094742D01*
X50719000Y-112939742D02*
X50319000Y-112368314D01*
X50033286Y-112939742D02*
X50033286Y-111739742D01*
X50033286Y-111739742D02*
X50490429Y-111739742D01*
X50490429Y-111739742D02*
X50604714Y-111796885D01*
X50604714Y-111796885D02*
X50661857Y-111854028D01*
X50661857Y-111854028D02*
X50719000Y-111968314D01*
X50719000Y-111968314D02*
X50719000Y-112139742D01*
X50719000Y-112139742D02*
X50661857Y-112254028D01*
X50661857Y-112254028D02*
X50604714Y-112311171D01*
X50604714Y-112311171D02*
X50490429Y-112368314D01*
X50490429Y-112368314D02*
X50033286Y-112368314D01*
X51176143Y-111854028D02*
X51233286Y-111796885D01*
X51233286Y-111796885D02*
X51347572Y-111739742D01*
X51347572Y-111739742D02*
X51633286Y-111739742D01*
X51633286Y-111739742D02*
X51747572Y-111796885D01*
X51747572Y-111796885D02*
X51804714Y-111854028D01*
X51804714Y-111854028D02*
X51861857Y-111968314D01*
X51861857Y-111968314D02*
X51861857Y-112082600D01*
X51861857Y-112082600D02*
X51804714Y-112254028D01*
X51804714Y-112254028D02*
X51119000Y-112939742D01*
X51119000Y-112939742D02*
X51861857Y-112939742D01*
X26905000Y-215244742D02*
X26905000Y-216101885D01*
X26905000Y-216101885D02*
X26847857Y-216273314D01*
X26847857Y-216273314D02*
X26733571Y-216387600D01*
X26733571Y-216387600D02*
X26562143Y-216444742D01*
X26562143Y-216444742D02*
X26447857Y-216444742D01*
X27362143Y-215244742D02*
X28105000Y-215244742D01*
X28105000Y-215244742D02*
X27705000Y-215701885D01*
X27705000Y-215701885D02*
X27876429Y-215701885D01*
X27876429Y-215701885D02*
X27990715Y-215759028D01*
X27990715Y-215759028D02*
X28047857Y-215816171D01*
X28047857Y-215816171D02*
X28105000Y-215930457D01*
X28105000Y-215930457D02*
X28105000Y-216216171D01*
X28105000Y-216216171D02*
X28047857Y-216330457D01*
X28047857Y-216330457D02*
X27990715Y-216387600D01*
X27990715Y-216387600D02*
X27876429Y-216444742D01*
X27876429Y-216444742D02*
X27533572Y-216444742D01*
X27533572Y-216444742D02*
X27419286Y-216387600D01*
X27419286Y-216387600D02*
X27362143Y-216330457D01*
X100828571Y-199934742D02*
X100428571Y-199363314D01*
X100142857Y-199934742D02*
X100142857Y-198734742D01*
X100142857Y-198734742D02*
X100600000Y-198734742D01*
X100600000Y-198734742D02*
X100714285Y-198791885D01*
X100714285Y-198791885D02*
X100771428Y-198849028D01*
X100771428Y-198849028D02*
X100828571Y-198963314D01*
X100828571Y-198963314D02*
X100828571Y-199134742D01*
X100828571Y-199134742D02*
X100771428Y-199249028D01*
X100771428Y-199249028D02*
X100714285Y-199306171D01*
X100714285Y-199306171D02*
X100600000Y-199363314D01*
X100600000Y-199363314D02*
X100142857Y-199363314D01*
X101971428Y-199934742D02*
X101285714Y-199934742D01*
X101628571Y-199934742D02*
X101628571Y-198734742D01*
X101628571Y-198734742D02*
X101514285Y-198906171D01*
X101514285Y-198906171D02*
X101400000Y-199020457D01*
X101400000Y-199020457D02*
X101285714Y-199077600D01*
X103114285Y-199934742D02*
X102428571Y-199934742D01*
X102771428Y-199934742D02*
X102771428Y-198734742D01*
X102771428Y-198734742D02*
X102657142Y-198906171D01*
X102657142Y-198906171D02*
X102542857Y-199020457D01*
X102542857Y-199020457D02*
X102428571Y-199077600D01*
X26905000Y-146664742D02*
X26905000Y-147521885D01*
X26905000Y-147521885D02*
X26847857Y-147693314D01*
X26847857Y-147693314D02*
X26733571Y-147807600D01*
X26733571Y-147807600D02*
X26562143Y-147864742D01*
X26562143Y-147864742D02*
X26447857Y-147864742D01*
X27419286Y-146779028D02*
X27476429Y-146721885D01*
X27476429Y-146721885D02*
X27590715Y-146664742D01*
X27590715Y-146664742D02*
X27876429Y-146664742D01*
X27876429Y-146664742D02*
X27990715Y-146721885D01*
X27990715Y-146721885D02*
X28047857Y-146779028D01*
X28047857Y-146779028D02*
X28105000Y-146893314D01*
X28105000Y-146893314D02*
X28105000Y-147007600D01*
X28105000Y-147007600D02*
X28047857Y-147179028D01*
X28047857Y-147179028D02*
X27362143Y-147864742D01*
X27362143Y-147864742D02*
X28105000Y-147864742D01*
X77928571Y-131240457D02*
X77871428Y-131297600D01*
X77871428Y-131297600D02*
X77700000Y-131354742D01*
X77700000Y-131354742D02*
X77585714Y-131354742D01*
X77585714Y-131354742D02*
X77414285Y-131297600D01*
X77414285Y-131297600D02*
X77300000Y-131183314D01*
X77300000Y-131183314D02*
X77242857Y-131069028D01*
X77242857Y-131069028D02*
X77185714Y-130840457D01*
X77185714Y-130840457D02*
X77185714Y-130669028D01*
X77185714Y-130669028D02*
X77242857Y-130440457D01*
X77242857Y-130440457D02*
X77300000Y-130326171D01*
X77300000Y-130326171D02*
X77414285Y-130211885D01*
X77414285Y-130211885D02*
X77585714Y-130154742D01*
X77585714Y-130154742D02*
X77700000Y-130154742D01*
X77700000Y-130154742D02*
X77871428Y-130211885D01*
X77871428Y-130211885D02*
X77928571Y-130269028D01*
X79071428Y-131354742D02*
X78385714Y-131354742D01*
X78728571Y-131354742D02*
X78728571Y-130154742D01*
X78728571Y-130154742D02*
X78614285Y-130326171D01*
X78614285Y-130326171D02*
X78500000Y-130440457D01*
X78500000Y-130440457D02*
X78385714Y-130497600D01*
X80100000Y-130554742D02*
X80100000Y-131354742D01*
X79814285Y-130097600D02*
X79528571Y-130954742D01*
X79528571Y-130954742D02*
X80271428Y-130954742D01*
X56815000Y-102289742D02*
X56415000Y-101718314D01*
X56129286Y-102289742D02*
X56129286Y-101089742D01*
X56129286Y-101089742D02*
X56586429Y-101089742D01*
X56586429Y-101089742D02*
X56700714Y-101146885D01*
X56700714Y-101146885D02*
X56757857Y-101204028D01*
X56757857Y-101204028D02*
X56815000Y-101318314D01*
X56815000Y-101318314D02*
X56815000Y-101489742D01*
X56815000Y-101489742D02*
X56757857Y-101604028D01*
X56757857Y-101604028D02*
X56700714Y-101661171D01*
X56700714Y-101661171D02*
X56586429Y-101718314D01*
X56586429Y-101718314D02*
X56129286Y-101718314D01*
X57900714Y-101089742D02*
X57329286Y-101089742D01*
X57329286Y-101089742D02*
X57272143Y-101661171D01*
X57272143Y-101661171D02*
X57329286Y-101604028D01*
X57329286Y-101604028D02*
X57443572Y-101546885D01*
X57443572Y-101546885D02*
X57729286Y-101546885D01*
X57729286Y-101546885D02*
X57843572Y-101604028D01*
X57843572Y-101604028D02*
X57900714Y-101661171D01*
X57900714Y-101661171D02*
X57957857Y-101775457D01*
X57957857Y-101775457D02*
X57957857Y-102061171D01*
X57957857Y-102061171D02*
X57900714Y-102175457D01*
X57900714Y-102175457D02*
X57843572Y-102232600D01*
X57843572Y-102232600D02*
X57729286Y-102289742D01*
X57729286Y-102289742D02*
X57443572Y-102289742D01*
X57443572Y-102289742D02*
X57329286Y-102232600D01*
X57329286Y-102232600D02*
X57272143Y-102175457D01*
X90525714Y-220324742D02*
X90525714Y-221296171D01*
X90525714Y-221296171D02*
X90582857Y-221410457D01*
X90582857Y-221410457D02*
X90640000Y-221467600D01*
X90640000Y-221467600D02*
X90754285Y-221524742D01*
X90754285Y-221524742D02*
X90982857Y-221524742D01*
X90982857Y-221524742D02*
X91097142Y-221467600D01*
X91097142Y-221467600D02*
X91154285Y-221410457D01*
X91154285Y-221410457D02*
X91211428Y-221296171D01*
X91211428Y-221296171D02*
X91211428Y-220324742D01*
X91840000Y-221524742D02*
X92068571Y-221524742D01*
X92068571Y-221524742D02*
X92182857Y-221467600D01*
X92182857Y-221467600D02*
X92240000Y-221410457D01*
X92240000Y-221410457D02*
X92354285Y-221239028D01*
X92354285Y-221239028D02*
X92411428Y-221010457D01*
X92411428Y-221010457D02*
X92411428Y-220553314D01*
X92411428Y-220553314D02*
X92354285Y-220439028D01*
X92354285Y-220439028D02*
X92297143Y-220381885D01*
X92297143Y-220381885D02*
X92182857Y-220324742D01*
X92182857Y-220324742D02*
X91954285Y-220324742D01*
X91954285Y-220324742D02*
X91840000Y-220381885D01*
X91840000Y-220381885D02*
X91782857Y-220439028D01*
X91782857Y-220439028D02*
X91725714Y-220553314D01*
X91725714Y-220553314D02*
X91725714Y-220839028D01*
X91725714Y-220839028D02*
X91782857Y-220953314D01*
X91782857Y-220953314D02*
X91840000Y-221010457D01*
X91840000Y-221010457D02*
X91954285Y-221067600D01*
X91954285Y-221067600D02*
X92182857Y-221067600D01*
X92182857Y-221067600D02*
X92297143Y-221010457D01*
X92297143Y-221010457D02*
X92354285Y-220953314D01*
X92354285Y-220953314D02*
X92411428Y-220839028D01*
X26905000Y-168254742D02*
X26905000Y-169111885D01*
X26905000Y-169111885D02*
X26847857Y-169283314D01*
X26847857Y-169283314D02*
X26733571Y-169397600D01*
X26733571Y-169397600D02*
X26562143Y-169454742D01*
X26562143Y-169454742D02*
X26447857Y-169454742D01*
X28105000Y-169454742D02*
X27419286Y-169454742D01*
X27762143Y-169454742D02*
X27762143Y-168254742D01*
X27762143Y-168254742D02*
X27647857Y-168426171D01*
X27647857Y-168426171D02*
X27533572Y-168540457D01*
X27533572Y-168540457D02*
X27419286Y-168597600D01*
X173790000Y-203630457D02*
X173732857Y-203687600D01*
X173732857Y-203687600D02*
X173561429Y-203744742D01*
X173561429Y-203744742D02*
X173447143Y-203744742D01*
X173447143Y-203744742D02*
X173275714Y-203687600D01*
X173275714Y-203687600D02*
X173161429Y-203573314D01*
X173161429Y-203573314D02*
X173104286Y-203459028D01*
X173104286Y-203459028D02*
X173047143Y-203230457D01*
X173047143Y-203230457D02*
X173047143Y-203059028D01*
X173047143Y-203059028D02*
X173104286Y-202830457D01*
X173104286Y-202830457D02*
X173161429Y-202716171D01*
X173161429Y-202716171D02*
X173275714Y-202601885D01*
X173275714Y-202601885D02*
X173447143Y-202544742D01*
X173447143Y-202544742D02*
X173561429Y-202544742D01*
X173561429Y-202544742D02*
X173732857Y-202601885D01*
X173732857Y-202601885D02*
X173790000Y-202659028D01*
X174475714Y-203059028D02*
X174361429Y-203001885D01*
X174361429Y-203001885D02*
X174304286Y-202944742D01*
X174304286Y-202944742D02*
X174247143Y-202830457D01*
X174247143Y-202830457D02*
X174247143Y-202773314D01*
X174247143Y-202773314D02*
X174304286Y-202659028D01*
X174304286Y-202659028D02*
X174361429Y-202601885D01*
X174361429Y-202601885D02*
X174475714Y-202544742D01*
X174475714Y-202544742D02*
X174704286Y-202544742D01*
X174704286Y-202544742D02*
X174818572Y-202601885D01*
X174818572Y-202601885D02*
X174875714Y-202659028D01*
X174875714Y-202659028D02*
X174932857Y-202773314D01*
X174932857Y-202773314D02*
X174932857Y-202830457D01*
X174932857Y-202830457D02*
X174875714Y-202944742D01*
X174875714Y-202944742D02*
X174818572Y-203001885D01*
X174818572Y-203001885D02*
X174704286Y-203059028D01*
X174704286Y-203059028D02*
X174475714Y-203059028D01*
X174475714Y-203059028D02*
X174361429Y-203116171D01*
X174361429Y-203116171D02*
X174304286Y-203173314D01*
X174304286Y-203173314D02*
X174247143Y-203287600D01*
X174247143Y-203287600D02*
X174247143Y-203516171D01*
X174247143Y-203516171D02*
X174304286Y-203630457D01*
X174304286Y-203630457D02*
X174361429Y-203687600D01*
X174361429Y-203687600D02*
X174475714Y-203744742D01*
X174475714Y-203744742D02*
X174704286Y-203744742D01*
X174704286Y-203744742D02*
X174818572Y-203687600D01*
X174818572Y-203687600D02*
X174875714Y-203630457D01*
X174875714Y-203630457D02*
X174932857Y-203516171D01*
X174932857Y-203516171D02*
X174932857Y-203287600D01*
X174932857Y-203287600D02*
X174875714Y-203173314D01*
X174875714Y-203173314D02*
X174818572Y-203116171D01*
X174818572Y-203116171D02*
X174704286Y-203059028D01*
X166725714Y-213974742D02*
X166725714Y-214946171D01*
X166725714Y-214946171D02*
X166782857Y-215060457D01*
X166782857Y-215060457D02*
X166840000Y-215117600D01*
X166840000Y-215117600D02*
X166954285Y-215174742D01*
X166954285Y-215174742D02*
X167182857Y-215174742D01*
X167182857Y-215174742D02*
X167297142Y-215117600D01*
X167297142Y-215117600D02*
X167354285Y-215060457D01*
X167354285Y-215060457D02*
X167411428Y-214946171D01*
X167411428Y-214946171D02*
X167411428Y-213974742D01*
X167868571Y-213974742D02*
X168668571Y-213974742D01*
X168668571Y-213974742D02*
X168154285Y-215174742D01*
X66910000Y-106024742D02*
X66910000Y-106881885D01*
X66910000Y-106881885D02*
X66852857Y-107053314D01*
X66852857Y-107053314D02*
X66738571Y-107167600D01*
X66738571Y-107167600D02*
X66567143Y-107224742D01*
X66567143Y-107224742D02*
X66452857Y-107224742D01*
X67538572Y-107224742D02*
X67767143Y-107224742D01*
X67767143Y-107224742D02*
X67881429Y-107167600D01*
X67881429Y-107167600D02*
X67938572Y-107110457D01*
X67938572Y-107110457D02*
X68052857Y-106939028D01*
X68052857Y-106939028D02*
X68110000Y-106710457D01*
X68110000Y-106710457D02*
X68110000Y-106253314D01*
X68110000Y-106253314D02*
X68052857Y-106139028D01*
X68052857Y-106139028D02*
X67995715Y-106081885D01*
X67995715Y-106081885D02*
X67881429Y-106024742D01*
X67881429Y-106024742D02*
X67652857Y-106024742D01*
X67652857Y-106024742D02*
X67538572Y-106081885D01*
X67538572Y-106081885D02*
X67481429Y-106139028D01*
X67481429Y-106139028D02*
X67424286Y-106253314D01*
X67424286Y-106253314D02*
X67424286Y-106539028D01*
X67424286Y-106539028D02*
X67481429Y-106653314D01*
X67481429Y-106653314D02*
X67538572Y-106710457D01*
X67538572Y-106710457D02*
X67652857Y-106767600D01*
X67652857Y-106767600D02*
X67881429Y-106767600D01*
X67881429Y-106767600D02*
X67995715Y-106710457D01*
X67995715Y-106710457D02*
X68052857Y-106653314D01*
X68052857Y-106653314D02*
X68110000Y-106539028D01*
X53610000Y-172064742D02*
X53610000Y-172921885D01*
X53610000Y-172921885D02*
X53552857Y-173093314D01*
X53552857Y-173093314D02*
X53438571Y-173207600D01*
X53438571Y-173207600D02*
X53267143Y-173264742D01*
X53267143Y-173264742D02*
X53152857Y-173264742D01*
X54181429Y-173264742D02*
X54181429Y-172064742D01*
X54181429Y-172064742D02*
X54638572Y-172064742D01*
X54638572Y-172064742D02*
X54752857Y-172121885D01*
X54752857Y-172121885D02*
X54810000Y-172179028D01*
X54810000Y-172179028D02*
X54867143Y-172293314D01*
X54867143Y-172293314D02*
X54867143Y-172464742D01*
X54867143Y-172464742D02*
X54810000Y-172579028D01*
X54810000Y-172579028D02*
X54752857Y-172636171D01*
X54752857Y-172636171D02*
X54638572Y-172693314D01*
X54638572Y-172693314D02*
X54181429Y-172693314D01*
X55895715Y-172464742D02*
X55895715Y-173264742D01*
X55610000Y-172007600D02*
X55324286Y-172864742D01*
X55324286Y-172864742D02*
X56067143Y-172864742D01*
X37265000Y-100125457D02*
X37207857Y-100182600D01*
X37207857Y-100182600D02*
X37036429Y-100239742D01*
X37036429Y-100239742D02*
X36922143Y-100239742D01*
X36922143Y-100239742D02*
X36750714Y-100182600D01*
X36750714Y-100182600D02*
X36636429Y-100068314D01*
X36636429Y-100068314D02*
X36579286Y-99954028D01*
X36579286Y-99954028D02*
X36522143Y-99725457D01*
X36522143Y-99725457D02*
X36522143Y-99554028D01*
X36522143Y-99554028D02*
X36579286Y-99325457D01*
X36579286Y-99325457D02*
X36636429Y-99211171D01*
X36636429Y-99211171D02*
X36750714Y-99096885D01*
X36750714Y-99096885D02*
X36922143Y-99039742D01*
X36922143Y-99039742D02*
X37036429Y-99039742D01*
X37036429Y-99039742D02*
X37207857Y-99096885D01*
X37207857Y-99096885D02*
X37265000Y-99154028D01*
X38407857Y-100239742D02*
X37722143Y-100239742D01*
X38065000Y-100239742D02*
X38065000Y-99039742D01*
X38065000Y-99039742D02*
X37950714Y-99211171D01*
X37950714Y-99211171D02*
X37836429Y-99325457D01*
X37836429Y-99325457D02*
X37722143Y-99382600D01*
X165455714Y-152379742D02*
X165455714Y-153351171D01*
X165455714Y-153351171D02*
X165512857Y-153465457D01*
X165512857Y-153465457D02*
X165570000Y-153522600D01*
X165570000Y-153522600D02*
X165684285Y-153579742D01*
X165684285Y-153579742D02*
X165912857Y-153579742D01*
X165912857Y-153579742D02*
X166027142Y-153522600D01*
X166027142Y-153522600D02*
X166084285Y-153465457D01*
X166084285Y-153465457D02*
X166141428Y-153351171D01*
X166141428Y-153351171D02*
X166141428Y-152379742D01*
X167341428Y-153579742D02*
X166655714Y-153579742D01*
X166998571Y-153579742D02*
X166998571Y-152379742D01*
X166998571Y-152379742D02*
X166884285Y-152551171D01*
X166884285Y-152551171D02*
X166770000Y-152665457D01*
X166770000Y-152665457D02*
X166655714Y-152722600D01*
X45940714Y-109090742D02*
X45940714Y-110062171D01*
X45940714Y-110062171D02*
X45997857Y-110176457D01*
X45997857Y-110176457D02*
X46055000Y-110233600D01*
X46055000Y-110233600D02*
X46169285Y-110290742D01*
X46169285Y-110290742D02*
X46397857Y-110290742D01*
X46397857Y-110290742D02*
X46512142Y-110233600D01*
X46512142Y-110233600D02*
X46569285Y-110176457D01*
X46569285Y-110176457D02*
X46626428Y-110062171D01*
X46626428Y-110062171D02*
X46626428Y-109090742D01*
X47769285Y-109090742D02*
X47197857Y-109090742D01*
X47197857Y-109090742D02*
X47140714Y-109662171D01*
X47140714Y-109662171D02*
X47197857Y-109605028D01*
X47197857Y-109605028D02*
X47312143Y-109547885D01*
X47312143Y-109547885D02*
X47597857Y-109547885D01*
X47597857Y-109547885D02*
X47712143Y-109605028D01*
X47712143Y-109605028D02*
X47769285Y-109662171D01*
X47769285Y-109662171D02*
X47826428Y-109776457D01*
X47826428Y-109776457D02*
X47826428Y-110062171D01*
X47826428Y-110062171D02*
X47769285Y-110176457D01*
X47769285Y-110176457D02*
X47712143Y-110233600D01*
X47712143Y-110233600D02*
X47597857Y-110290742D01*
X47597857Y-110290742D02*
X47312143Y-110290742D01*
X47312143Y-110290742D02*
X47197857Y-110233600D01*
X47197857Y-110233600D02*
X47140714Y-110176457D01*
X128070000Y-123734742D02*
X127670000Y-123163314D01*
X127384286Y-123734742D02*
X127384286Y-122534742D01*
X127384286Y-122534742D02*
X127841429Y-122534742D01*
X127841429Y-122534742D02*
X127955714Y-122591885D01*
X127955714Y-122591885D02*
X128012857Y-122649028D01*
X128012857Y-122649028D02*
X128070000Y-122763314D01*
X128070000Y-122763314D02*
X128070000Y-122934742D01*
X128070000Y-122934742D02*
X128012857Y-123049028D01*
X128012857Y-123049028D02*
X127955714Y-123106171D01*
X127955714Y-123106171D02*
X127841429Y-123163314D01*
X127841429Y-123163314D02*
X127384286Y-123163314D01*
X128641429Y-123734742D02*
X128870000Y-123734742D01*
X128870000Y-123734742D02*
X128984286Y-123677600D01*
X128984286Y-123677600D02*
X129041429Y-123620457D01*
X129041429Y-123620457D02*
X129155714Y-123449028D01*
X129155714Y-123449028D02*
X129212857Y-123220457D01*
X129212857Y-123220457D02*
X129212857Y-122763314D01*
X129212857Y-122763314D02*
X129155714Y-122649028D01*
X129155714Y-122649028D02*
X129098572Y-122591885D01*
X129098572Y-122591885D02*
X128984286Y-122534742D01*
X128984286Y-122534742D02*
X128755714Y-122534742D01*
X128755714Y-122534742D02*
X128641429Y-122591885D01*
X128641429Y-122591885D02*
X128584286Y-122649028D01*
X128584286Y-122649028D02*
X128527143Y-122763314D01*
X128527143Y-122763314D02*
X128527143Y-123049028D01*
X128527143Y-123049028D02*
X128584286Y-123163314D01*
X128584286Y-123163314D02*
X128641429Y-123220457D01*
X128641429Y-123220457D02*
X128755714Y-123277600D01*
X128755714Y-123277600D02*
X128984286Y-123277600D01*
X128984286Y-123277600D02*
X129098572Y-123220457D01*
X129098572Y-123220457D02*
X129155714Y-123163314D01*
X129155714Y-123163314D02*
X129212857Y-123049028D01*
X60370999Y-81080742D02*
X59799571Y-81080742D01*
X59799571Y-81080742D02*
X59799571Y-79880742D01*
X61399571Y-81080742D02*
X60713857Y-81080742D01*
X61056714Y-81080742D02*
X61056714Y-79880742D01*
X61056714Y-79880742D02*
X60942428Y-80052171D01*
X60942428Y-80052171D02*
X60828143Y-80166457D01*
X60828143Y-80166457D02*
X60713857Y-80223600D01*
X91795714Y-154919742D02*
X91795714Y-155891171D01*
X91795714Y-155891171D02*
X91852857Y-156005457D01*
X91852857Y-156005457D02*
X91910000Y-156062600D01*
X91910000Y-156062600D02*
X92024285Y-156119742D01*
X92024285Y-156119742D02*
X92252857Y-156119742D01*
X92252857Y-156119742D02*
X92367142Y-156062600D01*
X92367142Y-156062600D02*
X92424285Y-156005457D01*
X92424285Y-156005457D02*
X92481428Y-155891171D01*
X92481428Y-155891171D02*
X92481428Y-154919742D01*
X92995714Y-155034028D02*
X93052857Y-154976885D01*
X93052857Y-154976885D02*
X93167143Y-154919742D01*
X93167143Y-154919742D02*
X93452857Y-154919742D01*
X93452857Y-154919742D02*
X93567143Y-154976885D01*
X93567143Y-154976885D02*
X93624285Y-155034028D01*
X93624285Y-155034028D02*
X93681428Y-155148314D01*
X93681428Y-155148314D02*
X93681428Y-155262600D01*
X93681428Y-155262600D02*
X93624285Y-155434028D01*
X93624285Y-155434028D02*
X92938571Y-156119742D01*
X92938571Y-156119742D02*
X93681428Y-156119742D01*
X58220000Y-98492457D02*
X58162857Y-98549600D01*
X58162857Y-98549600D02*
X57991429Y-98606742D01*
X57991429Y-98606742D02*
X57877143Y-98606742D01*
X57877143Y-98606742D02*
X57705714Y-98549600D01*
X57705714Y-98549600D02*
X57591429Y-98435314D01*
X57591429Y-98435314D02*
X57534286Y-98321028D01*
X57534286Y-98321028D02*
X57477143Y-98092457D01*
X57477143Y-98092457D02*
X57477143Y-97921028D01*
X57477143Y-97921028D02*
X57534286Y-97692457D01*
X57534286Y-97692457D02*
X57591429Y-97578171D01*
X57591429Y-97578171D02*
X57705714Y-97463885D01*
X57705714Y-97463885D02*
X57877143Y-97406742D01*
X57877143Y-97406742D02*
X57991429Y-97406742D01*
X57991429Y-97406742D02*
X58162857Y-97463885D01*
X58162857Y-97463885D02*
X58220000Y-97521028D01*
X58620000Y-97406742D02*
X59362857Y-97406742D01*
X59362857Y-97406742D02*
X58962857Y-97863885D01*
X58962857Y-97863885D02*
X59134286Y-97863885D01*
X59134286Y-97863885D02*
X59248572Y-97921028D01*
X59248572Y-97921028D02*
X59305714Y-97978171D01*
X59305714Y-97978171D02*
X59362857Y-98092457D01*
X59362857Y-98092457D02*
X59362857Y-98378171D01*
X59362857Y-98378171D02*
X59305714Y-98492457D01*
X59305714Y-98492457D02*
X59248572Y-98549600D01*
X59248572Y-98549600D02*
X59134286Y-98606742D01*
X59134286Y-98606742D02*
X58791429Y-98606742D01*
X58791429Y-98606742D02*
X58677143Y-98549600D01*
X58677143Y-98549600D02*
X58620000Y-98492457D01*
X103940000Y-121194742D02*
X103540000Y-120623314D01*
X103254286Y-121194742D02*
X103254286Y-119994742D01*
X103254286Y-119994742D02*
X103711429Y-119994742D01*
X103711429Y-119994742D02*
X103825714Y-120051885D01*
X103825714Y-120051885D02*
X103882857Y-120109028D01*
X103882857Y-120109028D02*
X103940000Y-120223314D01*
X103940000Y-120223314D02*
X103940000Y-120394742D01*
X103940000Y-120394742D02*
X103882857Y-120509028D01*
X103882857Y-120509028D02*
X103825714Y-120566171D01*
X103825714Y-120566171D02*
X103711429Y-120623314D01*
X103711429Y-120623314D02*
X103254286Y-120623314D01*
X104340000Y-119994742D02*
X105140000Y-119994742D01*
X105140000Y-119994742D02*
X104625714Y-121194742D01*
X163058571Y-119810457D02*
X163001428Y-119867600D01*
X163001428Y-119867600D02*
X162830000Y-119924742D01*
X162830000Y-119924742D02*
X162715714Y-119924742D01*
X162715714Y-119924742D02*
X162544285Y-119867600D01*
X162544285Y-119867600D02*
X162430000Y-119753314D01*
X162430000Y-119753314D02*
X162372857Y-119639028D01*
X162372857Y-119639028D02*
X162315714Y-119410457D01*
X162315714Y-119410457D02*
X162315714Y-119239028D01*
X162315714Y-119239028D02*
X162372857Y-119010457D01*
X162372857Y-119010457D02*
X162430000Y-118896171D01*
X162430000Y-118896171D02*
X162544285Y-118781885D01*
X162544285Y-118781885D02*
X162715714Y-118724742D01*
X162715714Y-118724742D02*
X162830000Y-118724742D01*
X162830000Y-118724742D02*
X163001428Y-118781885D01*
X163001428Y-118781885D02*
X163058571Y-118839028D01*
X164201428Y-119924742D02*
X163515714Y-119924742D01*
X163858571Y-119924742D02*
X163858571Y-118724742D01*
X163858571Y-118724742D02*
X163744285Y-118896171D01*
X163744285Y-118896171D02*
X163630000Y-119010457D01*
X163630000Y-119010457D02*
X163515714Y-119067600D01*
X164944285Y-118724742D02*
X165058571Y-118724742D01*
X165058571Y-118724742D02*
X165172857Y-118781885D01*
X165172857Y-118781885D02*
X165230000Y-118839028D01*
X165230000Y-118839028D02*
X165287142Y-118953314D01*
X165287142Y-118953314D02*
X165344285Y-119181885D01*
X165344285Y-119181885D02*
X165344285Y-119467600D01*
X165344285Y-119467600D02*
X165287142Y-119696171D01*
X165287142Y-119696171D02*
X165230000Y-119810457D01*
X165230000Y-119810457D02*
X165172857Y-119867600D01*
X165172857Y-119867600D02*
X165058571Y-119924742D01*
X165058571Y-119924742D02*
X164944285Y-119924742D01*
X164944285Y-119924742D02*
X164830000Y-119867600D01*
X164830000Y-119867600D02*
X164772857Y-119810457D01*
X164772857Y-119810457D02*
X164715714Y-119696171D01*
X164715714Y-119696171D02*
X164658571Y-119467600D01*
X164658571Y-119467600D02*
X164658571Y-119181885D01*
X164658571Y-119181885D02*
X164715714Y-118953314D01*
X164715714Y-118953314D02*
X164772857Y-118839028D01*
X164772857Y-118839028D02*
X164830000Y-118781885D01*
X164830000Y-118781885D02*
X164944285Y-118724742D01*
X118980000Y-137139742D02*
X118980000Y-137996885D01*
X118980000Y-137996885D02*
X118922857Y-138168314D01*
X118922857Y-138168314D02*
X118808571Y-138282600D01*
X118808571Y-138282600D02*
X118637143Y-138339742D01*
X118637143Y-138339742D02*
X118522857Y-138339742D01*
X119437143Y-137139742D02*
X120237143Y-137139742D01*
X120237143Y-137139742D02*
X119722857Y-138339742D01*
X117943006Y-131989742D02*
X117543006Y-131418314D01*
X117257292Y-131989742D02*
X117257292Y-130789742D01*
X117257292Y-130789742D02*
X117714435Y-130789742D01*
X117714435Y-130789742D02*
X117828720Y-130846885D01*
X117828720Y-130846885D02*
X117885863Y-130904028D01*
X117885863Y-130904028D02*
X117943006Y-131018314D01*
X117943006Y-131018314D02*
X117943006Y-131189742D01*
X117943006Y-131189742D02*
X117885863Y-131304028D01*
X117885863Y-131304028D02*
X117828720Y-131361171D01*
X117828720Y-131361171D02*
X117714435Y-131418314D01*
X117714435Y-131418314D02*
X117257292Y-131418314D01*
X118685863Y-130789742D02*
X118914435Y-130789742D01*
X118914435Y-130789742D02*
X119028720Y-130846885D01*
X119028720Y-130846885D02*
X119143006Y-130961171D01*
X119143006Y-130961171D02*
X119200149Y-131189742D01*
X119200149Y-131189742D02*
X119200149Y-131589742D01*
X119200149Y-131589742D02*
X119143006Y-131818314D01*
X119143006Y-131818314D02*
X119028720Y-131932600D01*
X119028720Y-131932600D02*
X118914435Y-131989742D01*
X118914435Y-131989742D02*
X118685863Y-131989742D01*
X118685863Y-131989742D02*
X118571578Y-131932600D01*
X118571578Y-131932600D02*
X118457292Y-131818314D01*
X118457292Y-131818314D02*
X118400149Y-131589742D01*
X118400149Y-131589742D02*
X118400149Y-131189742D01*
X118400149Y-131189742D02*
X118457292Y-130961171D01*
X118457292Y-130961171D02*
X118571578Y-130846885D01*
X118571578Y-130846885D02*
X118685863Y-130789742D01*
X119714435Y-131989742D02*
X119714435Y-130789742D01*
X119714435Y-130789742D02*
X120114435Y-131646885D01*
X120114435Y-131646885D02*
X120514435Y-130789742D01*
X120514435Y-130789742D02*
X120514435Y-131989742D01*
X122685864Y-131875457D02*
X122628721Y-131932600D01*
X122628721Y-131932600D02*
X122457293Y-131989742D01*
X122457293Y-131989742D02*
X122343007Y-131989742D01*
X122343007Y-131989742D02*
X122171578Y-131932600D01*
X122171578Y-131932600D02*
X122057293Y-131818314D01*
X122057293Y-131818314D02*
X122000150Y-131704028D01*
X122000150Y-131704028D02*
X121943007Y-131475457D01*
X121943007Y-131475457D02*
X121943007Y-131304028D01*
X121943007Y-131304028D02*
X122000150Y-131075457D01*
X122000150Y-131075457D02*
X122057293Y-130961171D01*
X122057293Y-130961171D02*
X122171578Y-130846885D01*
X122171578Y-130846885D02*
X122343007Y-130789742D01*
X122343007Y-130789742D02*
X122457293Y-130789742D01*
X122457293Y-130789742D02*
X122628721Y-130846885D01*
X122628721Y-130846885D02*
X122685864Y-130904028D01*
X123143007Y-131932600D02*
X123314436Y-131989742D01*
X123314436Y-131989742D02*
X123600150Y-131989742D01*
X123600150Y-131989742D02*
X123714436Y-131932600D01*
X123714436Y-131932600D02*
X123771578Y-131875457D01*
X123771578Y-131875457D02*
X123828721Y-131761171D01*
X123828721Y-131761171D02*
X123828721Y-131646885D01*
X123828721Y-131646885D02*
X123771578Y-131532600D01*
X123771578Y-131532600D02*
X123714436Y-131475457D01*
X123714436Y-131475457D02*
X123600150Y-131418314D01*
X123600150Y-131418314D02*
X123371578Y-131361171D01*
X123371578Y-131361171D02*
X123257293Y-131304028D01*
X123257293Y-131304028D02*
X123200150Y-131246885D01*
X123200150Y-131246885D02*
X123143007Y-131132600D01*
X123143007Y-131132600D02*
X123143007Y-131018314D01*
X123143007Y-131018314D02*
X123200150Y-130904028D01*
X123200150Y-130904028D02*
X123257293Y-130846885D01*
X123257293Y-130846885D02*
X123371578Y-130789742D01*
X123371578Y-130789742D02*
X123657293Y-130789742D01*
X123657293Y-130789742D02*
X123828721Y-130846885D01*
X121834436Y-130456600D02*
X123937293Y-130456600D01*
X59490000Y-95045457D02*
X59432857Y-95102600D01*
X59432857Y-95102600D02*
X59261429Y-95159742D01*
X59261429Y-95159742D02*
X59147143Y-95159742D01*
X59147143Y-95159742D02*
X58975714Y-95102600D01*
X58975714Y-95102600D02*
X58861429Y-94988314D01*
X58861429Y-94988314D02*
X58804286Y-94874028D01*
X58804286Y-94874028D02*
X58747143Y-94645457D01*
X58747143Y-94645457D02*
X58747143Y-94474028D01*
X58747143Y-94474028D02*
X58804286Y-94245457D01*
X58804286Y-94245457D02*
X58861429Y-94131171D01*
X58861429Y-94131171D02*
X58975714Y-94016885D01*
X58975714Y-94016885D02*
X59147143Y-93959742D01*
X59147143Y-93959742D02*
X59261429Y-93959742D01*
X59261429Y-93959742D02*
X59432857Y-94016885D01*
X59432857Y-94016885D02*
X59490000Y-94074028D01*
X59947143Y-94074028D02*
X60004286Y-94016885D01*
X60004286Y-94016885D02*
X60118572Y-93959742D01*
X60118572Y-93959742D02*
X60404286Y-93959742D01*
X60404286Y-93959742D02*
X60518572Y-94016885D01*
X60518572Y-94016885D02*
X60575714Y-94074028D01*
X60575714Y-94074028D02*
X60632857Y-94188314D01*
X60632857Y-94188314D02*
X60632857Y-94302600D01*
X60632857Y-94302600D02*
X60575714Y-94474028D01*
X60575714Y-94474028D02*
X59890000Y-95159742D01*
X59890000Y-95159742D02*
X60632857Y-95159742D01*
X161090000Y-104049742D02*
X160690000Y-103478314D01*
X160404286Y-104049742D02*
X160404286Y-102849742D01*
X160404286Y-102849742D02*
X160861429Y-102849742D01*
X160861429Y-102849742D02*
X160975714Y-102906885D01*
X160975714Y-102906885D02*
X161032857Y-102964028D01*
X161032857Y-102964028D02*
X161090000Y-103078314D01*
X161090000Y-103078314D02*
X161090000Y-103249742D01*
X161090000Y-103249742D02*
X161032857Y-103364028D01*
X161032857Y-103364028D02*
X160975714Y-103421171D01*
X160975714Y-103421171D02*
X160861429Y-103478314D01*
X160861429Y-103478314D02*
X160404286Y-103478314D01*
X162118572Y-102849742D02*
X161890000Y-102849742D01*
X161890000Y-102849742D02*
X161775714Y-102906885D01*
X161775714Y-102906885D02*
X161718572Y-102964028D01*
X161718572Y-102964028D02*
X161604286Y-103135457D01*
X161604286Y-103135457D02*
X161547143Y-103364028D01*
X161547143Y-103364028D02*
X161547143Y-103821171D01*
X161547143Y-103821171D02*
X161604286Y-103935457D01*
X161604286Y-103935457D02*
X161661429Y-103992600D01*
X161661429Y-103992600D02*
X161775714Y-104049742D01*
X161775714Y-104049742D02*
X162004286Y-104049742D01*
X162004286Y-104049742D02*
X162118572Y-103992600D01*
X162118572Y-103992600D02*
X162175714Y-103935457D01*
X162175714Y-103935457D02*
X162232857Y-103821171D01*
X162232857Y-103821171D02*
X162232857Y-103535457D01*
X162232857Y-103535457D02*
X162175714Y-103421171D01*
X162175714Y-103421171D02*
X162118572Y-103364028D01*
X162118572Y-103364028D02*
X162004286Y-103306885D01*
X162004286Y-103306885D02*
X161775714Y-103306885D01*
X161775714Y-103306885D02*
X161661429Y-103364028D01*
X161661429Y-103364028D02*
X161604286Y-103421171D01*
X161604286Y-103421171D02*
X161547143Y-103535457D01*
X173790000Y-221532332D02*
X173732857Y-221589475D01*
X173732857Y-221589475D02*
X173561429Y-221646617D01*
X173561429Y-221646617D02*
X173447143Y-221646617D01*
X173447143Y-221646617D02*
X173275714Y-221589475D01*
X173275714Y-221589475D02*
X173161429Y-221475189D01*
X173161429Y-221475189D02*
X173104286Y-221360903D01*
X173104286Y-221360903D02*
X173047143Y-221132332D01*
X173047143Y-221132332D02*
X173047143Y-220960903D01*
X173047143Y-220960903D02*
X173104286Y-220732332D01*
X173104286Y-220732332D02*
X173161429Y-220618046D01*
X173161429Y-220618046D02*
X173275714Y-220503760D01*
X173275714Y-220503760D02*
X173447143Y-220446617D01*
X173447143Y-220446617D02*
X173561429Y-220446617D01*
X173561429Y-220446617D02*
X173732857Y-220503760D01*
X173732857Y-220503760D02*
X173790000Y-220560903D01*
X174361429Y-221646617D02*
X174590000Y-221646617D01*
X174590000Y-221646617D02*
X174704286Y-221589475D01*
X174704286Y-221589475D02*
X174761429Y-221532332D01*
X174761429Y-221532332D02*
X174875714Y-221360903D01*
X174875714Y-221360903D02*
X174932857Y-221132332D01*
X174932857Y-221132332D02*
X174932857Y-220675189D01*
X174932857Y-220675189D02*
X174875714Y-220560903D01*
X174875714Y-220560903D02*
X174818572Y-220503760D01*
X174818572Y-220503760D02*
X174704286Y-220446617D01*
X174704286Y-220446617D02*
X174475714Y-220446617D01*
X174475714Y-220446617D02*
X174361429Y-220503760D01*
X174361429Y-220503760D02*
X174304286Y-220560903D01*
X174304286Y-220560903D02*
X174247143Y-220675189D01*
X174247143Y-220675189D02*
X174247143Y-220960903D01*
X174247143Y-220960903D02*
X174304286Y-221075189D01*
X174304286Y-221075189D02*
X174361429Y-221132332D01*
X174361429Y-221132332D02*
X174475714Y-221189475D01*
X174475714Y-221189475D02*
X174704286Y-221189475D01*
X174704286Y-221189475D02*
X174818572Y-221132332D01*
X174818572Y-221132332D02*
X174875714Y-221075189D01*
X174875714Y-221075189D02*
X174932857Y-220960903D01*
X133648571Y-218419742D02*
X133648571Y-219276885D01*
X133648571Y-219276885D02*
X133591428Y-219448314D01*
X133591428Y-219448314D02*
X133477142Y-219562600D01*
X133477142Y-219562600D02*
X133305714Y-219619742D01*
X133305714Y-219619742D02*
X133191428Y-219619742D01*
X134848571Y-219619742D02*
X134162857Y-219619742D01*
X134505714Y-219619742D02*
X134505714Y-218419742D01*
X134505714Y-218419742D02*
X134391428Y-218591171D01*
X134391428Y-218591171D02*
X134277143Y-218705457D01*
X134277143Y-218705457D02*
X134162857Y-218762600D01*
X135591428Y-218419742D02*
X135705714Y-218419742D01*
X135705714Y-218419742D02*
X135820000Y-218476885D01*
X135820000Y-218476885D02*
X135877143Y-218534028D01*
X135877143Y-218534028D02*
X135934285Y-218648314D01*
X135934285Y-218648314D02*
X135991428Y-218876885D01*
X135991428Y-218876885D02*
X135991428Y-219162600D01*
X135991428Y-219162600D02*
X135934285Y-219391171D01*
X135934285Y-219391171D02*
X135877143Y-219505457D01*
X135877143Y-219505457D02*
X135820000Y-219562600D01*
X135820000Y-219562600D02*
X135705714Y-219619742D01*
X135705714Y-219619742D02*
X135591428Y-219619742D01*
X135591428Y-219619742D02*
X135477143Y-219562600D01*
X135477143Y-219562600D02*
X135420000Y-219505457D01*
X135420000Y-219505457D02*
X135362857Y-219391171D01*
X135362857Y-219391171D02*
X135305714Y-219162600D01*
X135305714Y-219162600D02*
X135305714Y-218876885D01*
X135305714Y-218876885D02*
X135362857Y-218648314D01*
X135362857Y-218648314D02*
X135420000Y-218534028D01*
X135420000Y-218534028D02*
X135477143Y-218476885D01*
X135477143Y-218476885D02*
X135591428Y-218419742D01*
X132562858Y-213217600D02*
X133477144Y-213217600D01*
X133020001Y-213674742D02*
X133020001Y-212760457D01*
X134620000Y-212474742D02*
X134048572Y-212474742D01*
X134048572Y-212474742D02*
X133991429Y-213046171D01*
X133991429Y-213046171D02*
X134048572Y-212989028D01*
X134048572Y-212989028D02*
X134162858Y-212931885D01*
X134162858Y-212931885D02*
X134448572Y-212931885D01*
X134448572Y-212931885D02*
X134562858Y-212989028D01*
X134562858Y-212989028D02*
X134620000Y-213046171D01*
X134620000Y-213046171D02*
X134677143Y-213160457D01*
X134677143Y-213160457D02*
X134677143Y-213446171D01*
X134677143Y-213446171D02*
X134620000Y-213560457D01*
X134620000Y-213560457D02*
X134562858Y-213617600D01*
X134562858Y-213617600D02*
X134448572Y-213674742D01*
X134448572Y-213674742D02*
X134162858Y-213674742D01*
X134162858Y-213674742D02*
X134048572Y-213617600D01*
X134048572Y-213617600D02*
X133991429Y-213560457D01*
X135020000Y-212474742D02*
X135420000Y-213674742D01*
X135420000Y-213674742D02*
X135820000Y-212474742D01*
X136162857Y-213331885D02*
X136734286Y-213331885D01*
X136048571Y-213674742D02*
X136448571Y-212474742D01*
X136448571Y-212474742D02*
X136848571Y-213674742D01*
X68940714Y-128884742D02*
X68940714Y-129856171D01*
X68940714Y-129856171D02*
X68997857Y-129970457D01*
X68997857Y-129970457D02*
X69055000Y-130027600D01*
X69055000Y-130027600D02*
X69169285Y-130084742D01*
X69169285Y-130084742D02*
X69397857Y-130084742D01*
X69397857Y-130084742D02*
X69512142Y-130027600D01*
X69512142Y-130027600D02*
X69569285Y-129970457D01*
X69569285Y-129970457D02*
X69626428Y-129856171D01*
X69626428Y-129856171D02*
X69626428Y-128884742D01*
X70083571Y-128884742D02*
X70826428Y-128884742D01*
X70826428Y-128884742D02*
X70426428Y-129341885D01*
X70426428Y-129341885D02*
X70597857Y-129341885D01*
X70597857Y-129341885D02*
X70712143Y-129399028D01*
X70712143Y-129399028D02*
X70769285Y-129456171D01*
X70769285Y-129456171D02*
X70826428Y-129570457D01*
X70826428Y-129570457D02*
X70826428Y-129856171D01*
X70826428Y-129856171D02*
X70769285Y-129970457D01*
X70769285Y-129970457D02*
X70712143Y-130027600D01*
X70712143Y-130027600D02*
X70597857Y-130084742D01*
X70597857Y-130084742D02*
X70255000Y-130084742D01*
X70255000Y-130084742D02*
X70140714Y-130027600D01*
X70140714Y-130027600D02*
X70083571Y-129970457D01*
X126228571Y-213155457D02*
X126171428Y-213212600D01*
X126171428Y-213212600D02*
X126000000Y-213269742D01*
X126000000Y-213269742D02*
X125885714Y-213269742D01*
X125885714Y-213269742D02*
X125714285Y-213212600D01*
X125714285Y-213212600D02*
X125600000Y-213098314D01*
X125600000Y-213098314D02*
X125542857Y-212984028D01*
X125542857Y-212984028D02*
X125485714Y-212755457D01*
X125485714Y-212755457D02*
X125485714Y-212584028D01*
X125485714Y-212584028D02*
X125542857Y-212355457D01*
X125542857Y-212355457D02*
X125600000Y-212241171D01*
X125600000Y-212241171D02*
X125714285Y-212126885D01*
X125714285Y-212126885D02*
X125885714Y-212069742D01*
X125885714Y-212069742D02*
X126000000Y-212069742D01*
X126000000Y-212069742D02*
X126171428Y-212126885D01*
X126171428Y-212126885D02*
X126228571Y-212184028D01*
X127371428Y-213269742D02*
X126685714Y-213269742D01*
X127028571Y-213269742D02*
X127028571Y-212069742D01*
X127028571Y-212069742D02*
X126914285Y-212241171D01*
X126914285Y-212241171D02*
X126800000Y-212355457D01*
X126800000Y-212355457D02*
X126685714Y-212412600D01*
X127771428Y-212069742D02*
X128571428Y-212069742D01*
X128571428Y-212069742D02*
X128057142Y-213269742D01*
X82985000Y-96315457D02*
X82927857Y-96372600D01*
X82927857Y-96372600D02*
X82756429Y-96429742D01*
X82756429Y-96429742D02*
X82642143Y-96429742D01*
X82642143Y-96429742D02*
X82470714Y-96372600D01*
X82470714Y-96372600D02*
X82356429Y-96258314D01*
X82356429Y-96258314D02*
X82299286Y-96144028D01*
X82299286Y-96144028D02*
X82242143Y-95915457D01*
X82242143Y-95915457D02*
X82242143Y-95744028D01*
X82242143Y-95744028D02*
X82299286Y-95515457D01*
X82299286Y-95515457D02*
X82356429Y-95401171D01*
X82356429Y-95401171D02*
X82470714Y-95286885D01*
X82470714Y-95286885D02*
X82642143Y-95229742D01*
X82642143Y-95229742D02*
X82756429Y-95229742D01*
X82756429Y-95229742D02*
X82927857Y-95286885D01*
X82927857Y-95286885D02*
X82985000Y-95344028D01*
X83385000Y-95229742D02*
X84185000Y-95229742D01*
X84185000Y-95229742D02*
X83670714Y-96429742D01*
X72610714Y-96898742D02*
X72610714Y-97870171D01*
X72610714Y-97870171D02*
X72667857Y-97984457D01*
X72667857Y-97984457D02*
X72725000Y-98041600D01*
X72725000Y-98041600D02*
X72839285Y-98098742D01*
X72839285Y-98098742D02*
X73067857Y-98098742D01*
X73067857Y-98098742D02*
X73182142Y-98041600D01*
X73182142Y-98041600D02*
X73239285Y-97984457D01*
X73239285Y-97984457D02*
X73296428Y-97870171D01*
X73296428Y-97870171D02*
X73296428Y-96898742D01*
X74382143Y-96898742D02*
X74153571Y-96898742D01*
X74153571Y-96898742D02*
X74039285Y-96955885D01*
X74039285Y-96955885D02*
X73982143Y-97013028D01*
X73982143Y-97013028D02*
X73867857Y-97184457D01*
X73867857Y-97184457D02*
X73810714Y-97413028D01*
X73810714Y-97413028D02*
X73810714Y-97870171D01*
X73810714Y-97870171D02*
X73867857Y-97984457D01*
X73867857Y-97984457D02*
X73925000Y-98041600D01*
X73925000Y-98041600D02*
X74039285Y-98098742D01*
X74039285Y-98098742D02*
X74267857Y-98098742D01*
X74267857Y-98098742D02*
X74382143Y-98041600D01*
X74382143Y-98041600D02*
X74439285Y-97984457D01*
X74439285Y-97984457D02*
X74496428Y-97870171D01*
X74496428Y-97870171D02*
X74496428Y-97584457D01*
X74496428Y-97584457D02*
X74439285Y-97470171D01*
X74439285Y-97470171D02*
X74382143Y-97413028D01*
X74382143Y-97413028D02*
X74267857Y-97355885D01*
X74267857Y-97355885D02*
X74039285Y-97355885D01*
X74039285Y-97355885D02*
X73925000Y-97413028D01*
X73925000Y-97413028D02*
X73867857Y-97470171D01*
X73867857Y-97470171D02*
X73810714Y-97584457D01*
X79610000Y-182224742D02*
X79610000Y-183081885D01*
X79610000Y-183081885D02*
X79552857Y-183253314D01*
X79552857Y-183253314D02*
X79438571Y-183367600D01*
X79438571Y-183367600D02*
X79267143Y-183424742D01*
X79267143Y-183424742D02*
X79152857Y-183424742D01*
X80752857Y-182224742D02*
X80181429Y-182224742D01*
X80181429Y-182224742D02*
X80124286Y-182796171D01*
X80124286Y-182796171D02*
X80181429Y-182739028D01*
X80181429Y-182739028D02*
X80295715Y-182681885D01*
X80295715Y-182681885D02*
X80581429Y-182681885D01*
X80581429Y-182681885D02*
X80695715Y-182739028D01*
X80695715Y-182739028D02*
X80752857Y-182796171D01*
X80752857Y-182796171D02*
X80810000Y-182910457D01*
X80810000Y-182910457D02*
X80810000Y-183196171D01*
X80810000Y-183196171D02*
X80752857Y-183310457D01*
X80752857Y-183310457D02*
X80695715Y-183367600D01*
X80695715Y-183367600D02*
X80581429Y-183424742D01*
X80581429Y-183424742D02*
X80295715Y-183424742D01*
X80295715Y-183424742D02*
X80181429Y-183367600D01*
X80181429Y-183367600D02*
X80124286Y-183310457D01*
X81931429Y-180192600D02*
X82102858Y-180249742D01*
X82102858Y-180249742D02*
X82388572Y-180249742D01*
X82388572Y-180249742D02*
X82502858Y-180192600D01*
X82502858Y-180192600D02*
X82560000Y-180135457D01*
X82560000Y-180135457D02*
X82617143Y-180021171D01*
X82617143Y-180021171D02*
X82617143Y-179906885D01*
X82617143Y-179906885D02*
X82560000Y-179792600D01*
X82560000Y-179792600D02*
X82502858Y-179735457D01*
X82502858Y-179735457D02*
X82388572Y-179678314D01*
X82388572Y-179678314D02*
X82160000Y-179621171D01*
X82160000Y-179621171D02*
X82045715Y-179564028D01*
X82045715Y-179564028D02*
X81988572Y-179506885D01*
X81988572Y-179506885D02*
X81931429Y-179392600D01*
X81931429Y-179392600D02*
X81931429Y-179278314D01*
X81931429Y-179278314D02*
X81988572Y-179164028D01*
X81988572Y-179164028D02*
X82045715Y-179106885D01*
X82045715Y-179106885D02*
X82160000Y-179049742D01*
X82160000Y-179049742D02*
X82445715Y-179049742D01*
X82445715Y-179049742D02*
X82617143Y-179106885D01*
X83131429Y-180249742D02*
X83131429Y-179049742D01*
X83131429Y-179049742D02*
X83588572Y-179049742D01*
X83588572Y-179049742D02*
X83702857Y-179106885D01*
X83702857Y-179106885D02*
X83760000Y-179164028D01*
X83760000Y-179164028D02*
X83817143Y-179278314D01*
X83817143Y-179278314D02*
X83817143Y-179449742D01*
X83817143Y-179449742D02*
X83760000Y-179564028D01*
X83760000Y-179564028D02*
X83702857Y-179621171D01*
X83702857Y-179621171D02*
X83588572Y-179678314D01*
X83588572Y-179678314D02*
X83131429Y-179678314D01*
X84331429Y-180249742D02*
X84331429Y-179049742D01*
X85817144Y-180249742D02*
X85817144Y-179049742D01*
X85817144Y-179049742D02*
X86102858Y-179049742D01*
X86102858Y-179049742D02*
X86274287Y-179106885D01*
X86274287Y-179106885D02*
X86388572Y-179221171D01*
X86388572Y-179221171D02*
X86445715Y-179335457D01*
X86445715Y-179335457D02*
X86502858Y-179564028D01*
X86502858Y-179564028D02*
X86502858Y-179735457D01*
X86502858Y-179735457D02*
X86445715Y-179964028D01*
X86445715Y-179964028D02*
X86388572Y-180078314D01*
X86388572Y-180078314D02*
X86274287Y-180192600D01*
X86274287Y-180192600D02*
X86102858Y-180249742D01*
X86102858Y-180249742D02*
X85817144Y-180249742D01*
X87474287Y-180192600D02*
X87360001Y-180249742D01*
X87360001Y-180249742D02*
X87131430Y-180249742D01*
X87131430Y-180249742D02*
X87017144Y-180192600D01*
X87017144Y-180192600D02*
X86960001Y-180078314D01*
X86960001Y-180078314D02*
X86960001Y-179621171D01*
X86960001Y-179621171D02*
X87017144Y-179506885D01*
X87017144Y-179506885D02*
X87131430Y-179449742D01*
X87131430Y-179449742D02*
X87360001Y-179449742D01*
X87360001Y-179449742D02*
X87474287Y-179506885D01*
X87474287Y-179506885D02*
X87531430Y-179621171D01*
X87531430Y-179621171D02*
X87531430Y-179735457D01*
X87531430Y-179735457D02*
X86960001Y-179849742D01*
X88045715Y-180249742D02*
X88045715Y-179049742D01*
X88045715Y-179506885D02*
X88160001Y-179449742D01*
X88160001Y-179449742D02*
X88388572Y-179449742D01*
X88388572Y-179449742D02*
X88502858Y-179506885D01*
X88502858Y-179506885D02*
X88560001Y-179564028D01*
X88560001Y-179564028D02*
X88617143Y-179678314D01*
X88617143Y-179678314D02*
X88617143Y-180021171D01*
X88617143Y-180021171D02*
X88560001Y-180135457D01*
X88560001Y-180135457D02*
X88502858Y-180192600D01*
X88502858Y-180192600D02*
X88388572Y-180249742D01*
X88388572Y-180249742D02*
X88160001Y-180249742D01*
X88160001Y-180249742D02*
X88045715Y-180192600D01*
X89645715Y-179449742D02*
X89645715Y-180249742D01*
X89131429Y-179449742D02*
X89131429Y-180078314D01*
X89131429Y-180078314D02*
X89188572Y-180192600D01*
X89188572Y-180192600D02*
X89302857Y-180249742D01*
X89302857Y-180249742D02*
X89474286Y-180249742D01*
X89474286Y-180249742D02*
X89588572Y-180192600D01*
X89588572Y-180192600D02*
X89645715Y-180135457D01*
X90731429Y-179449742D02*
X90731429Y-180421171D01*
X90731429Y-180421171D02*
X90674286Y-180535457D01*
X90674286Y-180535457D02*
X90617143Y-180592600D01*
X90617143Y-180592600D02*
X90502857Y-180649742D01*
X90502857Y-180649742D02*
X90331429Y-180649742D01*
X90331429Y-180649742D02*
X90217143Y-180592600D01*
X90731429Y-180192600D02*
X90617143Y-180249742D01*
X90617143Y-180249742D02*
X90388571Y-180249742D01*
X90388571Y-180249742D02*
X90274286Y-180192600D01*
X90274286Y-180192600D02*
X90217143Y-180135457D01*
X90217143Y-180135457D02*
X90160000Y-180021171D01*
X90160000Y-180021171D02*
X90160000Y-179678314D01*
X90160000Y-179678314D02*
X90217143Y-179564028D01*
X90217143Y-179564028D02*
X90274286Y-179506885D01*
X90274286Y-179506885D02*
X90388571Y-179449742D01*
X90388571Y-179449742D02*
X90617143Y-179449742D01*
X90617143Y-179449742D02*
X90731429Y-179506885D01*
X161090000Y-111669742D02*
X160690000Y-111098314D01*
X160404286Y-111669742D02*
X160404286Y-110469742D01*
X160404286Y-110469742D02*
X160861429Y-110469742D01*
X160861429Y-110469742D02*
X160975714Y-110526885D01*
X160975714Y-110526885D02*
X161032857Y-110584028D01*
X161032857Y-110584028D02*
X161090000Y-110698314D01*
X161090000Y-110698314D02*
X161090000Y-110869742D01*
X161090000Y-110869742D02*
X161032857Y-110984028D01*
X161032857Y-110984028D02*
X160975714Y-111041171D01*
X160975714Y-111041171D02*
X160861429Y-111098314D01*
X160861429Y-111098314D02*
X160404286Y-111098314D01*
X162118572Y-110869742D02*
X162118572Y-111669742D01*
X161832857Y-110412600D02*
X161547143Y-111269742D01*
X161547143Y-111269742D02*
X162290000Y-111269742D01*
D11*
%TO.C,JP5*%
X54550000Y-133350000D02*
X54550000Y-130750000D01*
X54550000Y-135950000D02*
X54550000Y-134620000D01*
X55880000Y-135950000D02*
X54550000Y-135950000D01*
X57210000Y-130750000D02*
X54550000Y-130750000D01*
X57210000Y-133350000D02*
X54550000Y-133350000D01*
X57210000Y-133350000D02*
X57210000Y-130750000D01*
%TO.C,U8*%
X105350000Y-211980000D02*
X105350000Y-217280000D01*
X105350000Y-217280000D02*
X123250000Y-217280000D01*
X123250000Y-211980000D02*
X105350000Y-211980000D01*
X123250000Y-213630000D02*
X123250000Y-211980000D01*
X123250000Y-217280000D02*
X123250000Y-215630000D01*
X123250000Y-215630000D02*
G75*
G02*
X123250000Y-213630000I0J1000000D01*
G01*
%TO.C,C15*%
X133290000Y-133450000D02*
X133290000Y-130710000D01*
X138530000Y-130710000D02*
X133290000Y-130710000D01*
X138530000Y-133450000D02*
X133290000Y-133450000D01*
X138530000Y-133450000D02*
X138530000Y-130710000D01*
%TO.C,J6*%
X110430000Y-135830000D02*
X110430000Y-135950000D01*
X110430000Y-135950000D02*
X113090000Y-135950000D01*
X111760000Y-133290000D02*
X113090000Y-133290000D01*
X113090000Y-133290000D02*
X113090000Y-134620000D01*
X113090000Y-135830000D02*
X113090000Y-135950000D01*
%TO.C,JP3*%
X36770000Y-171390000D02*
X38100000Y-171390000D01*
X36770000Y-172720000D02*
X36770000Y-171390000D01*
X39370000Y-171390000D02*
X41970000Y-171390000D01*
X39370000Y-174050000D02*
X39370000Y-171390000D01*
X39370000Y-174050000D02*
X41970000Y-174050000D01*
X41970000Y-174050000D02*
X41970000Y-171390000D01*
%TO.C,C13*%
X92610000Y-125630000D02*
X92610000Y-128370000D01*
X92610000Y-125630000D02*
X97850000Y-125630000D01*
X92610000Y-128370000D02*
X97850000Y-128370000D01*
X97850000Y-125630000D02*
X97850000Y-128370000D01*
%TO.C,J4*%
X161170000Y-87690000D02*
X161170000Y-86360000D01*
X162500000Y-87690000D02*
X161170000Y-87690000D01*
X163770000Y-85030000D02*
X173990000Y-85030000D01*
X163770000Y-87690000D02*
X163770000Y-85030000D01*
X163770000Y-87690000D02*
X173990000Y-87690000D01*
X173990000Y-87690000D02*
X173990000Y-85030000D01*
%TO.C,C16*%
X97690000Y-214570000D02*
X97690000Y-219810000D01*
X100430000Y-214570000D02*
X97690000Y-214570000D01*
X100430000Y-214570000D02*
X100430000Y-219810000D01*
X100430000Y-219810000D02*
X97690000Y-219810000D01*
%TO.C,JP2*%
X181550000Y-144765000D02*
X181550000Y-139625000D01*
X181550000Y-147365000D02*
X181550000Y-146035000D01*
X182880000Y-147365000D02*
X181550000Y-147365000D01*
X184210000Y-139625000D02*
X181550000Y-139625000D01*
X184210000Y-144765000D02*
X181550000Y-144765000D01*
X184210000Y-144765000D02*
X184210000Y-139625000D01*
%TO.C,R8*%
X50027064Y-128170000D02*
X49572936Y-128170000D01*
X50027064Y-129640000D02*
X49572936Y-129640000D01*
%TO.C,R1*%
X55517936Y-109265000D02*
X55972064Y-109265000D01*
X55517936Y-110735000D02*
X55972064Y-110735000D01*
%TO.C,JP1*%
X153550000Y-97730000D02*
X153550000Y-100390000D01*
X156150000Y-97730000D02*
X153550000Y-97730000D01*
X156150000Y-97730000D02*
X156150000Y-100390000D01*
X156150000Y-100390000D02*
X153550000Y-100390000D01*
X158750000Y-99060000D02*
X158750000Y-100390000D01*
X158750000Y-100390000D02*
X157420000Y-100390000D01*
%TO.C,C4*%
X37885000Y-90215000D02*
X37885000Y-92955000D01*
X37885000Y-90215000D02*
X43125000Y-90215000D01*
X37885000Y-92955000D02*
X43125000Y-92955000D01*
X43125000Y-90215000D02*
X43125000Y-92955000D01*
%TO.C,C12*%
X163670000Y-97690000D02*
X163670000Y-100430000D01*
X163670000Y-97690000D02*
X168910000Y-97690000D01*
X163670000Y-100430000D02*
X168910000Y-100430000D01*
X168910000Y-97690000D02*
X168910000Y-100430000D01*
%TO.C,C11*%
X175526248Y-133710000D02*
X176948752Y-133710000D01*
X175526248Y-135530000D02*
X176948752Y-135530000D01*
%TO.C,U4*%
X128160000Y-135830000D02*
X128160000Y-146110000D01*
X128160000Y-146110000D02*
X133460000Y-146110000D01*
X129810000Y-135830000D02*
X128160000Y-135830000D01*
X133460000Y-135830000D02*
X131810000Y-135830000D01*
X133460000Y-146110000D02*
X133460000Y-135830000D01*
X131810000Y-135830000D02*
G75*
G02*
X129810000Y-135830000I-1000000J0D01*
G01*
%TO.C,R10*%
X120660000Y-202550000D02*
X120660000Y-203030000D01*
X120660000Y-206390000D02*
X120660000Y-205910000D01*
X130800000Y-202550000D02*
X120660000Y-202550000D01*
X130800000Y-203030000D02*
X130800000Y-202550000D01*
X130800000Y-205910000D02*
X130800000Y-206390000D01*
X130800000Y-206390000D02*
X120660000Y-206390000D01*
%TO.C,J8*%
X133290000Y-179070000D02*
X133290000Y-176470000D01*
X133290000Y-181670000D02*
X133290000Y-180340000D01*
X134620000Y-181670000D02*
X133290000Y-181670000D01*
X135950000Y-176470000D02*
X133290000Y-176470000D01*
X135950000Y-179070000D02*
X133290000Y-179070000D01*
X135950000Y-179070000D02*
X135950000Y-176470000D01*
%TO.C,C6*%
X68805000Y-92931252D02*
X68805000Y-91508748D01*
X70625000Y-92931252D02*
X70625000Y-91508748D01*
%TO.C,C5*%
X51875000Y-104185000D02*
X51875000Y-106925000D01*
X51875000Y-104185000D02*
X57115000Y-104185000D01*
X51875000Y-106925000D02*
X57115000Y-106925000D01*
X57115000Y-104185000D02*
X57115000Y-106925000D01*
%TO.C,R3*%
X42818000Y-104422936D02*
X42818000Y-104877064D01*
X44288000Y-104422936D02*
X44288000Y-104877064D01*
%TO.C,SW1*%
X134900000Y-90370000D02*
X134900000Y-92880000D01*
X134900000Y-90370000D02*
X147120000Y-90370000D01*
X134900000Y-95180000D02*
X134900000Y-97780000D01*
X134900000Y-100080000D02*
X134900000Y-102590000D01*
X147120000Y-90370000D02*
X147120000Y-92880000D01*
X147120000Y-95180000D02*
X147120000Y-97780000D01*
X147120000Y-100080000D02*
X147120000Y-102590000D01*
X147120000Y-102590000D02*
X134900000Y-102590000D01*
X144560000Y-96480000D02*
G75*
G02*
X137460000Y-96480000I-3550000J0D01*
G01*
X137460000Y-96480000D02*
G75*
G02*
X144560000Y-96480000I3550000J0D01*
G01*
%TO.C,R2*%
X50707936Y-109265000D02*
X51162064Y-109265000D01*
X50707936Y-110735000D02*
X51162064Y-110735000D01*
%TO.C,J3*%
X36680000Y-205010000D02*
X36680000Y-204030000D01*
X36680000Y-209210000D02*
X36680000Y-208230000D01*
X36690000Y-199610000D02*
X27680000Y-199610000D01*
X36690000Y-200420000D02*
X36690000Y-199610000D01*
X36690000Y-212820000D02*
X36690000Y-213630000D01*
X36690000Y-213630000D02*
X27680000Y-213630000D01*
X37380000Y-213420000D02*
X37680000Y-212820000D01*
X37680000Y-212820000D02*
X37980000Y-213420000D01*
X37980000Y-213420000D02*
X37380000Y-213420000D01*
X39790000Y-202120000D02*
X41070000Y-202120000D01*
X39790000Y-202720000D02*
X41070000Y-202720000D01*
X39790000Y-206320000D02*
X41070000Y-206320000D01*
X39790000Y-206920000D02*
X41070000Y-206920000D01*
X39790000Y-210520000D02*
X41070000Y-210520000D01*
X39790000Y-211120000D02*
X41070000Y-211120000D01*
%TO.C,R11*%
X94600000Y-194320000D02*
X95080000Y-194320000D01*
X94600000Y-204460000D02*
X94600000Y-194320000D01*
X95080000Y-204460000D02*
X94600000Y-204460000D01*
X97960000Y-204460000D02*
X98440000Y-204460000D01*
X98440000Y-194320000D02*
X97960000Y-194320000D01*
X98440000Y-204460000D02*
X98440000Y-194320000D01*
%TO.C,J2*%
X36680000Y-132130000D02*
X36680000Y-131150000D01*
X36680000Y-136330000D02*
X36680000Y-135350000D01*
X36680000Y-140530000D02*
X36680000Y-139550000D01*
X36690000Y-126730000D02*
X27680000Y-126730000D01*
X36690000Y-127540000D02*
X36690000Y-126730000D01*
X36690000Y-144140000D02*
X36690000Y-144950000D01*
X36690000Y-144950000D02*
X27680000Y-144950000D01*
X37380000Y-144740000D02*
X37680000Y-144140000D01*
X37680000Y-144140000D02*
X37980000Y-144740000D01*
X37980000Y-144740000D02*
X37380000Y-144740000D01*
X39790000Y-129240000D02*
X41070000Y-129240000D01*
X39790000Y-129840000D02*
X41070000Y-129840000D01*
X39790000Y-133440000D02*
X41070000Y-133440000D01*
X39790000Y-134040000D02*
X41070000Y-134040000D01*
X39790000Y-137640000D02*
X41070000Y-137640000D01*
X39790000Y-138240000D02*
X41070000Y-138240000D01*
X39790000Y-141840000D02*
X41070000Y-141840000D01*
X39790000Y-142440000D02*
X41070000Y-142440000D01*
%TO.C,C14*%
X77370000Y-132020000D02*
X80110000Y-132020000D01*
X77370000Y-137260000D02*
X77370000Y-132020000D01*
X77370000Y-137260000D02*
X80110000Y-137260000D01*
X80110000Y-137260000D02*
X80110000Y-132020000D01*
%TO.C,R5*%
X53702064Y-101010000D02*
X53247936Y-101010000D01*
X53702064Y-102480000D02*
X53247936Y-102480000D01*
%TO.C,U9*%
X77410000Y-211980000D02*
X77410000Y-217280000D01*
X77410000Y-217280000D02*
X95310000Y-217280000D01*
X95310000Y-211980000D02*
X77410000Y-211980000D01*
X95310000Y-213630000D02*
X95310000Y-211980000D01*
X95310000Y-217280000D02*
X95310000Y-215630000D01*
X95310000Y-215630000D02*
G75*
G02*
X95310000Y-213630000I0J1000000D01*
G01*
%TO.C,J1*%
X28735000Y-152570000D02*
X31975000Y-152570000D01*
X31975000Y-164890000D02*
X28735000Y-164890000D01*
X36075000Y-164890000D02*
X40335000Y-164890000D01*
X40335000Y-152570000D02*
X36075000Y-152570000D01*
X40335000Y-164890000D02*
X40335000Y-152570000D01*
X40555000Y-159980000D02*
X41055000Y-160480000D01*
X41055000Y-159480000D02*
X40555000Y-159980000D01*
X41055000Y-160480000D02*
X41055000Y-159480000D01*
%TO.C,C8*%
X172936248Y-204951875D02*
X174358752Y-204951875D01*
X172936248Y-206771875D02*
X174358752Y-206771875D01*
D12*
%TO.C,U7*%
X169510000Y-214244375D02*
X169510000Y-210094375D01*
X174660000Y-214244375D02*
X174660000Y-210094375D01*
D11*
X169510000Y-214669375D02*
X169180000Y-214909375D01*
X169180000Y-214429375D01*
X169510000Y-214669375D01*
G36*
X169510000Y-214669375D02*
G01*
X169180000Y-214909375D01*
X169180000Y-214429375D01*
X169510000Y-214669375D01*
G37*
%TO.C,J9*%
X69790000Y-105350000D02*
X71120000Y-105350000D01*
X69790000Y-106680000D02*
X69790000Y-105350000D01*
X72390000Y-105350000D02*
X80070000Y-105350000D01*
X72390000Y-108010000D02*
X72390000Y-105350000D01*
X72390000Y-108010000D02*
X80070000Y-108010000D01*
X80070000Y-108010000D02*
X80070000Y-105350000D01*
%TO.C,JP4*%
X46930000Y-171390000D02*
X48260000Y-171390000D01*
X46930000Y-172720000D02*
X46930000Y-171390000D01*
X49530000Y-171390000D02*
X52130000Y-171390000D01*
X49530000Y-174050000D02*
X49530000Y-171390000D01*
X49530000Y-174050000D02*
X52130000Y-174050000D01*
X52130000Y-174050000D02*
X52130000Y-171390000D01*
%TO.C,C1*%
X39341000Y-98519252D02*
X39341000Y-97096748D01*
X41161000Y-98519252D02*
X41161000Y-97096748D01*
%TO.C,U1*%
X163720000Y-125670000D02*
X163720000Y-151190000D01*
X163720000Y-151190000D02*
X169020000Y-151190000D01*
X165370000Y-125670000D02*
X163720000Y-125670000D01*
X169020000Y-125670000D02*
X167370000Y-125670000D01*
X169020000Y-151190000D02*
X169020000Y-125670000D01*
X167370000Y-125670000D02*
G75*
G02*
X165370000Y-125670000I-1000000J0D01*
G01*
D12*
%TO.C,U5*%
X44822500Y-96630000D02*
X48972500Y-96630000D01*
X44822500Y-101780000D02*
X48972500Y-101780000D01*
D11*
X44397500Y-96630000D02*
X44157500Y-96300000D01*
X44637500Y-96300000D01*
X44397500Y-96630000D01*
G36*
X44397500Y-96630000D02*
G01*
X44157500Y-96300000D01*
X44637500Y-96300000D01*
X44397500Y-96630000D01*
G37*
%TO.C,R9*%
X123200000Y-125080000D02*
X123200000Y-125560000D01*
X123200000Y-128920000D02*
X123200000Y-128440000D01*
X133340000Y-125080000D02*
X123200000Y-125080000D01*
X133340000Y-125560000D02*
X133340000Y-125080000D01*
X133340000Y-128440000D02*
X133340000Y-128920000D01*
X133340000Y-128920000D02*
X123200000Y-128920000D01*
%TO.C,L1*%
X46016000Y-79570000D02*
X58616000Y-79570000D01*
X46016000Y-82570000D02*
X46016000Y-79570000D01*
X46016000Y-92170000D02*
X46016000Y-89170000D01*
X58616000Y-79570000D02*
X58616000Y-82570000D01*
X58616000Y-89170000D02*
X58616000Y-92170000D01*
X58616000Y-92170000D02*
X46016000Y-92170000D01*
%TO.C,U2*%
X90060000Y-130750000D02*
X90060000Y-153730000D01*
X90060000Y-153730000D02*
X95360000Y-153730000D01*
X91710000Y-130750000D02*
X90060000Y-130750000D01*
X95360000Y-130750000D02*
X93710000Y-130750000D01*
X95360000Y-153730000D02*
X95360000Y-130750000D01*
X93710000Y-130750000D02*
G75*
G02*
X91710000Y-130750000I-1000000J0D01*
G01*
%TO.C,C3*%
X53471248Y-97025000D02*
X54893752Y-97025000D01*
X53471248Y-98845000D02*
X54893752Y-98845000D01*
%TO.C,R7*%
X102220000Y-124470000D02*
X102220000Y-134610000D01*
X102220000Y-134610000D02*
X102700000Y-134610000D01*
X102700000Y-124470000D02*
X102220000Y-124470000D01*
X105580000Y-124470000D02*
X106060000Y-124470000D01*
X106060000Y-124470000D02*
X106060000Y-134610000D01*
X106060000Y-134610000D02*
X105580000Y-134610000D01*
%TO.C,C10*%
X161230000Y-120550000D02*
X161230000Y-123290000D01*
X161230000Y-120550000D02*
X166470000Y-120550000D01*
X161230000Y-123290000D02*
X166470000Y-123290000D01*
X166470000Y-120550000D02*
X166470000Y-123290000D01*
%TO.C,J7*%
X118050000Y-135830000D02*
X118050000Y-135950000D01*
X118050000Y-135950000D02*
X120710000Y-135950000D01*
X119380000Y-133290000D02*
X120710000Y-133290000D01*
X120710000Y-133290000D02*
X120710000Y-134620000D01*
X120710000Y-135830000D02*
X120710000Y-135950000D01*
%TO.C,C2*%
X54691248Y-93850000D02*
X56113752Y-93850000D01*
X54691248Y-95670000D02*
X56113752Y-95670000D01*
%TO.C,R6*%
X156220000Y-104760000D02*
X156220000Y-105240000D01*
X156220000Y-108600000D02*
X156220000Y-108120000D01*
X166360000Y-104760000D02*
X156220000Y-104760000D01*
X166360000Y-105240000D02*
X166360000Y-104760000D01*
X166360000Y-108120000D02*
X166360000Y-108600000D01*
X166360000Y-108600000D02*
X156220000Y-108600000D01*
%TO.C,C9*%
X172986248Y-217651875D02*
X174408752Y-217651875D01*
X172986248Y-219471875D02*
X174408752Y-219471875D01*
%TO.C,J10*%
X133290000Y-217110000D02*
X133290000Y-217230000D01*
X133290000Y-217230000D02*
X135950000Y-217230000D01*
X134620000Y-214570000D02*
X135950000Y-214570000D01*
X135950000Y-214570000D02*
X135950000Y-215900000D01*
X135950000Y-217110000D02*
X135950000Y-217230000D01*
%TO.C,U3*%
X67200000Y-130750000D02*
X67200000Y-141030000D01*
X67200000Y-141030000D02*
X68850000Y-141030000D01*
X70850000Y-141030000D02*
X72500000Y-141030000D01*
X72500000Y-130750000D02*
X67200000Y-130750000D01*
X72500000Y-141030000D02*
X72500000Y-130750000D01*
X68850000Y-141030000D02*
G75*
G02*
X70850000Y-141030000I1000000J0D01*
G01*
%TO.C,C17*%
X125630000Y-214570000D02*
X125630000Y-219810000D01*
X128370000Y-214570000D02*
X125630000Y-214570000D01*
X128370000Y-214570000D02*
X128370000Y-219810000D01*
X128370000Y-219810000D02*
X125630000Y-219810000D01*
%TO.C,C7*%
X81505000Y-92931252D02*
X81505000Y-91508748D01*
X83325000Y-92931252D02*
X83325000Y-91508748D01*
D12*
%TO.C,U6*%
X78182500Y-91257500D02*
X74032500Y-91257500D01*
X78182500Y-96407500D02*
X74032500Y-96407500D01*
D11*
X78847500Y-96737500D02*
X78367500Y-96737500D01*
X78607500Y-96407500D01*
X78847500Y-96737500D01*
G36*
X78847500Y-96737500D02*
G01*
X78367500Y-96737500D01*
X78607500Y-96407500D01*
X78847500Y-96737500D01*
G37*
%TO.C,J5*%
X82490000Y-181550000D02*
X83820000Y-181550000D01*
X82490000Y-182880000D02*
X82490000Y-181550000D01*
X85090000Y-181550000D02*
X90230000Y-181550000D01*
X85090000Y-184210000D02*
X85090000Y-181550000D01*
X85090000Y-184210000D02*
X90230000Y-184210000D01*
X90230000Y-184210000D02*
X90230000Y-181550000D01*
%TO.C,R4*%
X156220000Y-112380000D02*
X166360000Y-112380000D01*
X156220000Y-112860000D02*
X156220000Y-112380000D01*
X156220000Y-115740000D02*
X156220000Y-116220000D01*
X156220000Y-116220000D02*
X166360000Y-116220000D01*
X166360000Y-112380000D02*
X166360000Y-112860000D01*
X166360000Y-116220000D02*
X166360000Y-115740000D01*
%TD*%
M02*
