%TF.GenerationSoftware,KiCad,Pcbnew,9.0.0*%
%TF.CreationDate,2025-09-27T10:55:46-04:00*%
%TF.ProjectId,can_gauge_interface,63616e5f-6761-4756-9765-5f696e746572,0.1*%
%TF.SameCoordinates,Original*%
%TF.FileFunction,Paste,Top*%
%TF.FilePolarity,Positive*%
%FSLAX46Y46*%
G04 Gerber Fmt 4.6, Leading zero omitted, Abs format (unit mm)*
G04 Created by KiCad (PCBNEW 9.0.0) date 2025-09-27 10:55:46*
%MOMM*%
%LPD*%
G01*
G04 APERTURE LIST*
G04 Aperture macros list*
%AMRoundRect*
0 Rectangle with rounded corners*
0 $1 Rounding radius*
0 $2 $3 $4 $5 $6 $7 $8 $9 X,Y pos of 4 corners*
0 Add a 4 corners polygon primitive as box body*
4,1,4,$2,$3,$4,$5,$6,$7,$8,$9,$2,$3,0*
0 Add four circle primitives for the rounded corners*
1,1,$1+$1,$2,$3*
1,1,$1+$1,$4,$5*
1,1,$1+$1,$6,$7*
1,1,$1+$1,$8,$9*
0 Add four rect primitives between the rounded corners*
20,1,$1+$1,$2,$3,$4,$5,0*
20,1,$1+$1,$4,$5,$6,$7,0*
20,1,$1+$1,$6,$7,$8,$9,0*
20,1,$1+$1,$8,$9,$2,$3,0*%
G04 Aperture macros list end*
%ADD10RoundRect,0.250000X0.350000X0.450000X-0.350000X0.450000X-0.350000X-0.450000X0.350000X-0.450000X0*%
%ADD11RoundRect,0.250000X-0.350000X-0.450000X0.350000X-0.450000X0.350000X0.450000X-0.350000X0.450000X0*%
%ADD12RoundRect,0.250000X-0.412500X-0.650000X0.412500X-0.650000X0.412500X0.650000X-0.412500X0.650000X0*%
%ADD13RoundRect,0.250000X0.650000X-0.412500X0.650000X0.412500X-0.650000X0.412500X-0.650000X-0.412500X0*%
%ADD14RoundRect,0.250000X-0.450000X0.350000X-0.450000X-0.350000X0.450000X-0.350000X0.450000X0.350000X0*%
%ADD15R,0.802000X1.505000*%
%ADD16R,2.101200X1.567800*%
%ADD17R,1.505000X0.802000*%
%ADD18R,1.567800X2.101200*%
%ADD19R,4.900000X5.400000*%
G04 APERTURE END LIST*
D10*
%TO.C,R8*%
X50800000Y-128905000D03*
X48800000Y-128905000D03*
%TD*%
D11*
%TO.C,R1*%
X54745000Y-110000000D03*
X56745000Y-110000000D03*
%TD*%
D12*
%TO.C,C11*%
X174675000Y-134620000D03*
X177800000Y-134620000D03*
%TD*%
D13*
%TO.C,C6*%
X69715000Y-93782500D03*
X69715000Y-90657500D03*
%TD*%
D14*
%TO.C,R3*%
X43553000Y-103650000D03*
X43553000Y-105650000D03*
%TD*%
D11*
%TO.C,R2*%
X49935000Y-110000000D03*
X51935000Y-110000000D03*
%TD*%
D10*
%TO.C,R5*%
X54475000Y-101745000D03*
X52475000Y-101745000D03*
%TD*%
D12*
%TO.C,C8*%
X172085000Y-205861875D03*
X175210000Y-205861875D03*
%TD*%
D15*
%TO.C,U7*%
X170180000Y-214666875D03*
X171450000Y-214666875D03*
X172720000Y-214666875D03*
X173990000Y-214666875D03*
X173990000Y-209671875D03*
X172720000Y-209671875D03*
X171450000Y-209671875D03*
X170180000Y-209671875D03*
D16*
X172085000Y-212169375D03*
%TD*%
D13*
%TO.C,C1*%
X40251000Y-99370500D03*
X40251000Y-96245500D03*
%TD*%
D17*
%TO.C,U5*%
X44400000Y-97300000D03*
X44400000Y-98570000D03*
X44400000Y-99840000D03*
X44400000Y-101110000D03*
X49395000Y-101110000D03*
X49395000Y-99840000D03*
X49395000Y-98570000D03*
X49395000Y-97300000D03*
D18*
X46897500Y-99205000D03*
%TD*%
D19*
%TO.C,L1*%
X46416000Y-85870000D03*
X58216000Y-85870000D03*
%TD*%
D12*
%TO.C,C3*%
X52620000Y-97935000D03*
X55745000Y-97935000D03*
%TD*%
%TO.C,C2*%
X53840000Y-94760000D03*
X56965000Y-94760000D03*
%TD*%
%TO.C,C9*%
X172135000Y-218561875D03*
X175260000Y-218561875D03*
%TD*%
D13*
%TO.C,C7*%
X82415000Y-93782500D03*
X82415000Y-90657500D03*
%TD*%
D17*
%TO.C,U6*%
X78605000Y-95737500D03*
X78605000Y-94467500D03*
X78605000Y-93197500D03*
X78605000Y-91927500D03*
X73610000Y-91927500D03*
X73610000Y-93197500D03*
X73610000Y-94467500D03*
X73610000Y-95737500D03*
D18*
X76107500Y-93832500D03*
%TD*%
M02*
