%TF.GenerationSoftware,KiCad,Pcbnew,9.0.0*%
%TF.CreationDate,2025-10-01T11:12:32-04:00*%
%TF.ProjectId,can_gauge_interface,63616e5f-6761-4756-9765-5f696e746572,0.2*%
%TF.SameCoordinates,Original*%
%TF.FileFunction,Copper,L1,Top*%
%TF.FilePolarity,Positive*%
%FSLAX46Y46*%
G04 Gerber Fmt 4.6, Leading zero omitted, Abs format (unit mm)*
G04 Created by KiCad (PCBNEW 9.0.0) date 2025-10-01 11:12:32*
%MOMM*%
%LPD*%
G01*
G04 APERTURE LIST*
G04 Aperture macros list*
%AMRoundRect*
0 Rectangle with rounded corners*
0 $1 Rounding radius*
0 $2 $3 $4 $5 $6 $7 $8 $9 X,Y pos of 4 corners*
0 Add a 4 corners polygon primitive as box body*
4,1,4,$2,$3,$4,$5,$6,$7,$8,$9,$2,$3,0*
0 Add four circle primitives for the rounded corners*
1,1,$1+$1,$2,$3*
1,1,$1+$1,$4,$5*
1,1,$1+$1,$6,$7*
1,1,$1+$1,$8,$9*
0 Add four rect primitives between the rounded corners*
20,1,$1+$1,$2,$3,$4,$5,0*
20,1,$1+$1,$4,$5,$6,$7,0*
20,1,$1+$1,$6,$7,$8,$9,0*
20,1,$1+$1,$8,$9,$2,$3,0*%
G04 Aperture macros list end*
%TA.AperFunction,SMDPad,CuDef*%
%ADD10R,5.400000X4.900000*%
%TD*%
%TA.AperFunction,ComponentPad*%
%ADD11R,1.700000X1.700000*%
%TD*%
%TA.AperFunction,SMDPad,CuDef*%
%ADD12RoundRect,0.250000X-0.325000X-0.650000X0.325000X-0.650000X0.325000X0.650000X-0.325000X0.650000X0*%
%TD*%
%TA.AperFunction,SMDPad,CuDef*%
%ADD13RoundRect,0.250000X0.250000X0.475000X-0.250000X0.475000X-0.250000X-0.475000X0.250000X-0.475000X0*%
%TD*%
%TA.AperFunction,ComponentPad*%
%ADD14O,1.700000X1.700000*%
%TD*%
%TA.AperFunction,ComponentPad*%
%ADD15C,1.600000*%
%TD*%
%TA.AperFunction,ComponentPad*%
%ADD16O,1.600000X1.600000*%
%TD*%
%TA.AperFunction,SMDPad,CuDef*%
%ADD17RoundRect,0.250000X-0.850000X-0.350000X0.850000X-0.350000X0.850000X0.350000X-0.850000X0.350000X0*%
%TD*%
%TA.AperFunction,SMDPad,CuDef*%
%ADD18RoundRect,0.250000X-1.275000X-1.125000X1.275000X-1.125000X1.275000X1.125000X-1.275000X1.125000X0*%
%TD*%
%TA.AperFunction,SMDPad,CuDef*%
%ADD19RoundRect,0.249997X-2.950003X-2.650003X2.950003X-2.650003X2.950003X2.650003X-2.950003X2.650003X0*%
%TD*%
%TA.AperFunction,SMDPad,CuDef*%
%ADD20RoundRect,0.225000X-0.250000X0.225000X-0.250000X-0.225000X0.250000X-0.225000X0.250000X0.225000X0*%
%TD*%
%TA.AperFunction,ComponentPad*%
%ADD21RoundRect,0.250001X1.599999X-1.099999X1.599999X1.099999X-1.599999X1.099999X-1.599999X-1.099999X0*%
%TD*%
%TA.AperFunction,ComponentPad*%
%ADD22O,3.700000X2.700000*%
%TD*%
%TA.AperFunction,SMDPad,CuDef*%
%ADD23RoundRect,0.250000X-0.262500X-0.450000X0.262500X-0.450000X0.262500X0.450000X-0.262500X0.450000X0*%
%TD*%
%TA.AperFunction,ComponentPad*%
%ADD24R,1.600000X1.600000*%
%TD*%
%TA.AperFunction,ComponentPad*%
%ADD25C,4.000000*%
%TD*%
%TA.AperFunction,SMDPad,CuDef*%
%ADD26RoundRect,0.225000X-0.225000X-0.250000X0.225000X-0.250000X0.225000X0.250000X-0.225000X0.250000X0*%
%TD*%
%TA.AperFunction,SMDPad,CuDef*%
%ADD27RoundRect,0.250000X-0.450000X0.262500X-0.450000X-0.262500X0.450000X-0.262500X0.450000X0.262500X0*%
%TD*%
%TA.AperFunction,ComponentPad*%
%ADD28O,3.200000X1.900000*%
%TD*%
%TA.AperFunction,SMDPad,CuDef*%
%ADD29RoundRect,0.250000X-0.650000X0.325000X-0.650000X-0.325000X0.650000X-0.325000X0.650000X0.325000X0*%
%TD*%
%TA.AperFunction,ComponentPad*%
%ADD30RoundRect,0.250000X-0.550000X0.550000X-0.550000X-0.550000X0.550000X-0.550000X0.550000X0.550000X0*%
%TD*%
%TA.AperFunction,SMDPad,CuDef*%
%ADD31RoundRect,0.250000X0.650000X-1.000000X0.650000X1.000000X-0.650000X1.000000X-0.650000X-1.000000X0*%
%TD*%
%TA.AperFunction,ComponentPad*%
%ADD32RoundRect,0.250000X0.550000X0.550000X-0.550000X0.550000X-0.550000X-0.550000X0.550000X-0.550000X0*%
%TD*%
%TA.AperFunction,ComponentPad*%
%ADD33RoundRect,0.250000X-0.550000X-0.550000X0.550000X-0.550000X0.550000X0.550000X-0.550000X0.550000X0*%
%TD*%
%TA.AperFunction,SMDPad,CuDef*%
%ADD34RoundRect,0.250000X-0.250000X-0.475000X0.250000X-0.475000X0.250000X0.475000X-0.250000X0.475000X0*%
%TD*%
%TA.AperFunction,SMDPad,CuDef*%
%ADD35R,0.610000X1.910000*%
%TD*%
%TA.AperFunction,SMDPad,CuDef*%
%ADD36R,1.550000X1.205000*%
%TD*%
%TA.AperFunction,ComponentPad*%
%ADD37RoundRect,0.250000X0.550000X-0.550000X0.550000X0.550000X-0.550000X0.550000X-0.550000X-0.550000X0*%
%TD*%
%TA.AperFunction,SMDPad,CuDef*%
%ADD38RoundRect,0.250000X0.650000X-0.325000X0.650000X0.325000X-0.650000X0.325000X-0.650000X-0.325000X0*%
%TD*%
%TA.AperFunction,SMDPad,CuDef*%
%ADD39RoundRect,0.250000X0.325000X0.650000X-0.325000X0.650000X-0.325000X-0.650000X0.325000X-0.650000X0*%
%TD*%
%TA.AperFunction,ViaPad*%
%ADD40C,0.812800*%
%TD*%
%TA.AperFunction,Conductor*%
%ADD41C,0.508000*%
%TD*%
%TA.AperFunction,Conductor*%
%ADD42C,0.304800*%
%TD*%
G04 APERTURE END LIST*
D10*
%TO.P,L1,1,1*%
%TO.N,/PH*%
X82550000Y-120200000D03*
%TO.P,L1,2,2*%
%TO.N,+7V*%
X82550000Y-108400000D03*
%TD*%
D11*
%TO.P,J7,1,Pin_1*%
%TO.N,/ROM_~{CS}*%
X124460000Y-129540000D03*
%TD*%
D12*
%TO.P,C9,1*%
%TO.N,+5V*%
X102714000Y-119634000D03*
%TO.P,C9,2*%
%TO.N,GND*%
X105664000Y-119634000D03*
%TD*%
D13*
%TO.P,C7,1*%
%TO.N,/sense*%
X63180000Y-111760000D03*
%TO.P,C7,2*%
%TO.N,Net-(C7-Pad2)*%
X61280000Y-111760000D03*
%TD*%
D11*
%TO.P,J9,1,Pin_1*%
%TO.N,+12V*%
X81280000Y-127000000D03*
D14*
%TO.P,J9,2,Pin_2*%
%TO.N,+7V*%
X83820000Y-127000000D03*
%TO.P,J9,3,Pin_3*%
%TO.N,+5V*%
X86360000Y-127000000D03*
%TO.P,J9,4,Pin_4*%
%TO.N,GND*%
X88900000Y-127000000D03*
%TD*%
D12*
%TO.P,C19,1*%
%TO.N,+5VA*%
X133448000Y-199644000D03*
%TO.P,C19,2*%
%TO.N,GND*%
X136398000Y-199644000D03*
%TD*%
D15*
%TO.P,R10,1*%
%TO.N,+5VA*%
X93980000Y-189230000D03*
D16*
%TO.P,R10,2*%
%TO.N,/DAC1_~{CS}*%
X86360000Y-189230000D03*
%TD*%
D12*
%TO.P,C18,1*%
%TO.N,+7V*%
X133448000Y-188849000D03*
%TO.P,C18,2*%
%TO.N,GND*%
X136398000Y-188849000D03*
%TD*%
D17*
%TO.P,U6,1,In*%
%TO.N,+7V*%
X101854000Y-112014000D03*
D18*
%TO.P,U6,2,GND*%
%TO.N,GND*%
X106479000Y-112769000D03*
X106479000Y-115819000D03*
D19*
X108154000Y-114294000D03*
D18*
X109829000Y-112769000D03*
X109829000Y-115819000D03*
D17*
%TO.P,U6,3,Out*%
%TO.N,+5V*%
X101854000Y-116574000D03*
%TD*%
D15*
%TO.P,C16,1*%
%TO.N,+5VA*%
X95250000Y-198120000D03*
%TO.P,C16,2*%
%TO.N,GND*%
X95250000Y-200620000D03*
%TD*%
D20*
%TO.P,C4,1*%
%TO.N,/sense*%
X62865000Y-114655000D03*
%TO.P,C4,2*%
%TO.N,GND*%
X62865000Y-116205000D03*
%TD*%
D21*
%TO.P,J3,1,Pin_1*%
%TO.N,/AN1*%
X63080000Y-193820000D03*
D22*
%TO.P,J3,2,Pin_2*%
%TO.N,GND*%
X63080000Y-189620000D03*
%TO.P,J3,3,Pin_3*%
%TO.N,/AN4*%
X63080000Y-185420000D03*
%TO.P,J3,4,Pin_4*%
%TO.N,/AN2*%
X68580000Y-193820000D03*
%TO.P,J3,5,Pin_5*%
%TO.N,GND*%
X68580000Y-189620000D03*
%TO.P,J3,6,Pin_6*%
%TO.N,/AN3*%
X68580000Y-185420000D03*
%TD*%
D23*
%TO.P,R1,1*%
%TO.N,/sense*%
X62310000Y-105410000D03*
%TO.P,R1,2*%
%TO.N,+7V*%
X64135000Y-105410000D03*
%TD*%
D24*
%TO.P,J1,1,VBUS*%
%TO.N,unconnected-(J1-VBUS-Pad1)*%
X64770000Y-137160000D03*
D15*
%TO.P,J1,2,D-*%
%TO.N,/USB_D-*%
X64770000Y-134660000D03*
%TO.P,J1,3,D+*%
%TO.N,/USB_D+*%
X62770000Y-134660000D03*
%TO.P,J1,4,GND*%
%TO.N,GND*%
X62770000Y-137160000D03*
D25*
%TO.P,J1,5,Shield*%
%TO.N,unconnected-(J1-Shield-Pad5)_1*%
X59910000Y-141910000D03*
%TO.N,unconnected-(J1-Shield-Pad5)*%
X59910000Y-129910000D03*
%TD*%
D11*
%TO.P,JP5,1,A*%
%TO.N,/CAN_L*%
X80010000Y-157480000D03*
D14*
%TO.P,JP5,2,B*%
%TO.N,Net-(JP5-B)*%
X80010000Y-154940000D03*
%TD*%
D26*
%TO.P,C6,1*%
%TO.N,/sense*%
X62585000Y-108585000D03*
%TO.P,C6,2*%
%TO.N,+7V*%
X64135000Y-108585000D03*
%TD*%
D27*
%TO.P,R2,1*%
%TO.N,/sense*%
X55245000Y-114380000D03*
%TO.P,R2,2*%
%TO.N,GND*%
X55245000Y-116205000D03*
%TD*%
D15*
%TO.P,R6,1*%
%TO.N,+5V*%
X106680000Y-161290000D03*
D16*
%TO.P,R6,2*%
%TO.N,/~{MCLR}*%
X114300000Y-161290000D03*
%TD*%
D11*
%TO.P,J8,1,Pin_1*%
%TO.N,/DAC2_~{CS}*%
X125730000Y-186690000D03*
D14*
%TO.P,J8,2,Pin_2*%
%TO.N,/DAC1_~{CS}*%
X123190000Y-186690000D03*
%TD*%
D28*
%TO.P,SW1,1,1*%
%TO.N,GND*%
X114300000Y-173910000D03*
X101800000Y-173910000D03*
%TO.P,SW1,2,2*%
%TO.N,/~{MCLR}*%
X114300000Y-168910000D03*
X101800000Y-168910000D03*
%TD*%
D29*
%TO.P,C3,1*%
%TO.N,+7V*%
X69850000Y-108810000D03*
%TO.P,C3,2*%
%TO.N,GND*%
X69850000Y-111760000D03*
%TD*%
D11*
%TO.P,J6,1,Pin_1*%
%TO.N,/CAN_~{CS}*%
X104140000Y-142240000D03*
%TD*%
D15*
%TO.P,R9,1*%
%TO.N,+5V*%
X129540000Y-139700000D03*
D16*
%TO.P,R9,2*%
%TO.N,/ROM_~{CS}*%
X129540000Y-132080000D03*
%TD*%
D11*
%TO.P,JP2,1,A*%
%TO.N,/INT*%
X142240000Y-119380000D03*
D14*
%TO.P,JP2,2,C*%
%TO.N,/INT{slash}ICSP_CLK*%
X142240000Y-116840000D03*
%TO.P,JP2,3,B*%
%TO.N,/ICSP_CLK*%
X142240000Y-114300000D03*
%TD*%
D30*
%TO.P,U8,1,Vdd*%
%TO.N,+5VA*%
X91440000Y-193040000D03*
D15*
%TO.P,U8,2,NC*%
%TO.N,unconnected-(U8-NC-Pad2)*%
X88900000Y-193040000D03*
%TO.P,U8,3,~{CS}*%
%TO.N,/DAC1_~{CS}*%
X86360000Y-193040000D03*
%TO.P,U8,4,SCK*%
%TO.N,/SCK*%
X83820000Y-193040000D03*
%TO.P,U8,5,SDI*%
%TO.N,/MOSI*%
X81280000Y-193040000D03*
%TO.P,U8,6,NC*%
%TO.N,unconnected-(U8-NC-Pad6)*%
X78740000Y-193040000D03*
%TO.P,U8,7,NC*%
%TO.N,unconnected-(U8-NC-Pad7)*%
X76200000Y-193040000D03*
%TO.P,U8,8,~{LDAC}*%
%TO.N,GND*%
X76200000Y-200660000D03*
%TO.P,U8,9,~{SHDN}*%
%TO.N,+5VA*%
X78740000Y-200660000D03*
%TO.P,U8,10,VB*%
%TO.N,/AN2*%
X81280000Y-200660000D03*
%TO.P,U8,11,VrefB*%
%TO.N,+5VA*%
X83820000Y-200660000D03*
%TO.P,U8,12,Vss*%
%TO.N,GND*%
X86360000Y-200660000D03*
%TO.P,U8,13,VrefA*%
%TO.N,+5VA*%
X88900000Y-200660000D03*
%TO.P,U8,14,VA*%
%TO.N,/AN1*%
X91440000Y-200660000D03*
%TD*%
D31*
%TO.P,D1,1,K*%
%TO.N,/PH*%
X73025000Y-121475000D03*
%TO.P,D1,2,A*%
%TO.N,GND*%
X73025000Y-117475000D03*
%TD*%
D21*
%TO.P,J2,1,Pin_1*%
%TO.N,/Tach*%
X63080000Y-165100000D03*
D22*
%TO.P,J2,2,Pin_2*%
%TO.N,GND*%
X63080000Y-160900000D03*
%TO.P,J2,3,Pin_3*%
X63080000Y-156700000D03*
%TO.P,J2,4,Pin_4*%
%TO.N,+12V*%
X63080000Y-152500000D03*
%TO.P,J2,5,Pin_5*%
%TO.N,/Speed*%
X68580000Y-165100000D03*
%TO.P,J2,6,Pin_6*%
%TO.N,/CAN_H*%
X68580000Y-160900000D03*
%TO.P,J2,7,Pin_7*%
%TO.N,/CAN_L*%
X68580000Y-156700000D03*
%TO.P,J2,8,Pin_8*%
%TO.N,GND*%
X68580000Y-152500000D03*
%TD*%
D27*
%TO.P,R3,1*%
%TO.N,Net-(C7-Pad2)*%
X59055000Y-114380000D03*
%TO.P,R3,2*%
%TO.N,GND*%
X59055000Y-116205000D03*
%TD*%
D32*
%TO.P,U3,1,TXD*%
%TO.N,/CAN_TX*%
X93980000Y-162560000D03*
D15*
%TO.P,U3,2,VSS*%
%TO.N,GND*%
X93980000Y-160020000D03*
%TO.P,U3,3,VDD*%
%TO.N,+5V*%
X93980000Y-157480000D03*
%TO.P,U3,4,RXD*%
%TO.N,/CAN_RX*%
X93980000Y-154940000D03*
%TO.P,U3,5,SPLIT*%
%TO.N,unconnected-(U3-SPLIT-Pad5)*%
X86360000Y-154940000D03*
%TO.P,U3,6,CANL*%
%TO.N,/CAN_L*%
X86360000Y-157480000D03*
%TO.P,U3,7,CANH*%
%TO.N,/CAN_H*%
X86360000Y-160020000D03*
%TO.P,U3,8,STBY*%
%TO.N,GND*%
X86360000Y-162560000D03*
%TD*%
%TO.P,R7,1*%
%TO.N,+5V*%
X96520000Y-138430000D03*
D16*
%TO.P,R7,2*%
%TO.N,/CAN_~{CS}*%
X104140000Y-138430000D03*
%TD*%
D29*
%TO.P,C5,1*%
%TO.N,+7V*%
X73660000Y-108810000D03*
%TO.P,C5,2*%
%TO.N,GND*%
X73660000Y-111760000D03*
%TD*%
D11*
%TO.P,J4,1,Pin_1*%
%TO.N,/~{MCLR}*%
X124460000Y-106680000D03*
D14*
%TO.P,J4,2,Pin_2*%
%TO.N,+5V*%
X127000000Y-106680000D03*
%TO.P,J4,3,Pin_3*%
%TO.N,GND*%
X129540000Y-106680000D03*
%TO.P,J4,4,Pin_4*%
%TO.N,/ICSP_DAT*%
X132080000Y-106680000D03*
%TO.P,J4,5,Pin_5*%
%TO.N,/ICSP_CLK*%
X134620000Y-106680000D03*
%TD*%
D15*
%TO.P,C14,1*%
%TO.N,GND*%
X97790000Y-159980000D03*
%TO.P,C14,2*%
%TO.N,+5V*%
X97790000Y-157480000D03*
%TD*%
D11*
%TO.P,J5,1,Pin_1*%
%TO.N,/MOSI*%
X110490000Y-129540000D03*
D14*
%TO.P,J5,2,Pin_2*%
%TO.N,/SCK*%
X113030000Y-129540000D03*
%TO.P,J5,3,Pin_3*%
%TO.N,/MISO*%
X115570000Y-129540000D03*
%TD*%
D12*
%TO.P,C8,1*%
%TO.N,+7V*%
X102714000Y-108839000D03*
%TO.P,C8,2*%
%TO.N,GND*%
X105664000Y-108839000D03*
%TD*%
D11*
%TO.P,J10,1,Pin_1*%
%TO.N,+5VA*%
X124460000Y-198120000D03*
%TD*%
D33*
%TO.P,U1,1,VDD*%
%TO.N,+5V*%
X127000000Y-152400000D03*
D15*
%TO.P,U1,2,RA5/SOSCI/T1CKI/OSC1/CLKIN*%
%TO.N,/CAN_~{CS}*%
X127000000Y-154940000D03*
%TO.P,U1,3,RA4/AN3/SOSCO/T1G/OSC2/CLKOUT/CLKR*%
%TO.N,/CLK*%
X127000000Y-157480000D03*
%TO.P,U1,4,RA3/T1G/~{SS}/~{MCLR}/Vpp*%
%TO.N,/~{MCLR}*%
X127000000Y-160020000D03*
%TO.P,U1,5,PWM1/CWG1A/T0CKI/RC5*%
%TO.N,/ROM_~{CS}*%
X127000000Y-162560000D03*
%TO.P,U1,6,CWG1B/C1OUT/C2OUT/RC4*%
%TO.N,/Speed*%
X127000000Y-165100000D03*
%TO.P,U1,7,CLKR/C1IN3-/C2IN3-/DACOUT2/AN7/RC3*%
%TO.N,/Tach*%
X127000000Y-167640000D03*
%TO.P,U1,8,~{SS}/PWM2/AN8/RC6*%
%TO.N,unconnected-(U1-~{SS}{slash}PWM2{slash}AN8{slash}RC6-Pad8)*%
X127000000Y-170180000D03*
%TO.P,U1,9,SDO/AN9/RC7*%
%TO.N,/MOSI*%
X127000000Y-172720000D03*
%TO.P,U1,10,RB7/TX/CK*%
%TO.N,/DAC1_~{CS}*%
X127000000Y-175260000D03*
%TO.P,U1,11,RB6/SCL/SCK*%
%TO.N,/SCK*%
X134620000Y-175260000D03*
%TO.P,U1,12,RB5/AN11/RX/DX*%
%TO.N,/DAC2_~{CS}*%
X134620000Y-172720000D03*
%TO.P,U1,13,RB4/AN10/SDA/SDI*%
%TO.N,/MISO*%
X134620000Y-170180000D03*
%TO.P,U1,14,C2IN2-/C1IN2-/DACOUT1/AN6/RC2*%
%TO.N,unconnected-(U1-C2IN2-{slash}C1IN2-{slash}DACOUT1{slash}AN6{slash}RC2-Pad14)*%
X134620000Y-167640000D03*
%TO.P,U1,15,ICSPCLK/~{CWGFLT}/C2IN-/C1IN-/AN5/RC1*%
%TO.N,/INT{slash}ICSP_CLK*%
X134620000Y-165100000D03*
%TO.P,U1,16,ICSPDAT/C2IN+/C1IN+/Vref+/AN4/RC0*%
%TO.N,/ICSP_DAT*%
X134620000Y-162560000D03*
%TO.P,U1,17,Vusb3v3*%
%TO.N,Net-(U1-Vusb3v3)*%
X134620000Y-160020000D03*
%TO.P,U1,18,RA1/D-/ICSPCLK*%
%TO.N,/USB_D-*%
X134620000Y-157480000D03*
%TO.P,U1,19,RA0/D+/ICSPDAT*%
%TO.N,/USB_D+*%
X134620000Y-154940000D03*
%TO.P,U1,20,VSS*%
%TO.N,GND*%
X134620000Y-152400000D03*
%TD*%
D34*
%TO.P,C2,1*%
%TO.N,Net-(U5-BOOT)*%
X72710000Y-125095000D03*
%TO.P,C2,2*%
%TO.N,/PH*%
X74610000Y-125095000D03*
%TD*%
D35*
%TO.P,U5,1,BOOT*%
%TO.N,Net-(U5-BOOT)*%
X69215000Y-114855000D03*
%TO.P,U5,2,NC*%
%TO.N,unconnected-(U5-NC-Pad2)*%
X67945000Y-114855000D03*
%TO.P,U5,3,NC*%
%TO.N,unconnected-(U5-NC-Pad3)*%
X66675000Y-114855000D03*
%TO.P,U5,4,VSENSE*%
%TO.N,/sense*%
X65405000Y-114855000D03*
%TO.P,U5,5,EN*%
%TO.N,unconnected-(U5-EN-Pad5)*%
X65405000Y-120415000D03*
%TO.P,U5,6,GND*%
%TO.N,GND*%
X66675000Y-120415000D03*
%TO.P,U5,7,VIN*%
%TO.N,+12V*%
X67945000Y-120415000D03*
%TO.P,U5,8,PH*%
%TO.N,/PH*%
X69215000Y-120415000D03*
D36*
%TO.P,U5,9,GNDPAD*%
%TO.N,GND*%
X68085000Y-117032500D03*
X66535000Y-117032500D03*
X68085000Y-118237500D03*
X66535000Y-118237500D03*
%TD*%
D15*
%TO.P,C12,1*%
%TO.N,/~{MCLR}*%
X119380000Y-161290000D03*
%TO.P,C12,2*%
%TO.N,GND*%
X119380000Y-163790000D03*
%TD*%
%TO.P,C17,1*%
%TO.N,+5VA*%
X118110000Y-198120000D03*
%TO.P,C17,2*%
%TO.N,GND*%
X118110000Y-200620000D03*
%TD*%
D27*
%TO.P,R8,1*%
%TO.N,Net-(JP5-B)*%
X74930000Y-154027500D03*
%TO.P,R8,2*%
%TO.N,/CAN_H*%
X74930000Y-155852500D03*
%TD*%
D15*
%TO.P,C10,1*%
%TO.N,+5V*%
X129540000Y-148590000D03*
%TO.P,C10,2*%
%TO.N,GND*%
X132040000Y-148590000D03*
%TD*%
%TO.P,C13,1*%
%TO.N,GND*%
X101600000Y-146050000D03*
%TO.P,C13,2*%
%TO.N,+5V*%
X104100000Y-146050000D03*
%TD*%
%TO.P,R11,1*%
%TO.N,+5VA*%
X116840000Y-189230000D03*
D16*
%TO.P,R11,2*%
%TO.N,/DAC2_~{CS}*%
X109220000Y-189230000D03*
%TD*%
D37*
%TO.P,U2,1,TXCAN*%
%TO.N,/CAN_TX*%
X101600000Y-157480000D03*
D15*
%TO.P,U2,2,RXCAN*%
%TO.N,/CAN_RX*%
X104140000Y-157480000D03*
%TO.P,U2,3,CLKOUT/SOF*%
%TO.N,unconnected-(U2-CLKOUT{slash}SOF-Pad3)*%
X106680000Y-157480000D03*
%TO.P,U2,4,~{TX0RTS}*%
%TO.N,+5V*%
X109220000Y-157480000D03*
%TO.P,U2,5,~{TX1RTS}*%
X111760000Y-157480000D03*
%TO.P,U2,6,~{TX2RTS}*%
X114300000Y-157480000D03*
%TO.P,U2,7,OSC2*%
%TO.N,unconnected-(U2-OSC2-Pad7)*%
X116840000Y-157480000D03*
%TO.P,U2,8,OSC1*%
%TO.N,/CLK*%
X119380000Y-157480000D03*
%TO.P,U2,9,VSS*%
%TO.N,GND*%
X121920000Y-157480000D03*
%TO.P,U2,10,~{RX1BF}*%
%TO.N,unconnected-(U2-~{RX1BF}-Pad10)*%
X121920000Y-149860000D03*
%TO.P,U2,11,~{RX0BF}*%
%TO.N,unconnected-(U2-~{RX0BF}-Pad11)*%
X119380000Y-149860000D03*
%TO.P,U2,12,~{INT}*%
%TO.N,/INT*%
X116840000Y-149860000D03*
%TO.P,U2,13,SCK*%
%TO.N,/SCK*%
X114300000Y-149860000D03*
%TO.P,U2,14,SI*%
%TO.N,/MOSI*%
X111760000Y-149860000D03*
%TO.P,U2,15,SO*%
%TO.N,/MISO*%
X109220000Y-149860000D03*
%TO.P,U2,16,~{CS}*%
%TO.N,/CAN_~{CS}*%
X106680000Y-149860000D03*
%TO.P,U2,17,~{RESET}*%
%TO.N,+5V*%
X104140000Y-149860000D03*
%TO.P,U2,18,VDD*%
X101600000Y-149860000D03*
%TD*%
D38*
%TO.P,C11,1*%
%TO.N,Net-(U1-Vusb3v3)*%
X137160000Y-157890000D03*
%TO.P,C11,2*%
%TO.N,GND*%
X137160000Y-154940000D03*
%TD*%
D30*
%TO.P,U4,1,~{CS}*%
%TO.N,/ROM_~{CS}*%
X121920000Y-134620000D03*
D15*
%TO.P,U4,2,MISO*%
%TO.N,/MISO*%
X119380000Y-134620000D03*
%TO.P,U4,3,~{WP}*%
%TO.N,+5V*%
X116840000Y-134620000D03*
%TO.P,U4,4,GND*%
%TO.N,GND*%
X114300000Y-134620000D03*
%TO.P,U4,5,MOSI*%
%TO.N,/MOSI*%
X114300000Y-142240000D03*
%TO.P,U4,6,SCK*%
%TO.N,/SCK*%
X116840000Y-142240000D03*
%TO.P,U4,7,~{HOLD}*%
%TO.N,+5V*%
X119380000Y-142240000D03*
%TO.P,U4,8,VCC*%
X121920000Y-142240000D03*
%TD*%
D17*
%TO.P,U7,1,In*%
%TO.N,+7V*%
X132588000Y-192024000D03*
D18*
%TO.P,U7,2,GND*%
%TO.N,GND*%
X137213000Y-192779000D03*
X137213000Y-195829000D03*
D19*
X138888000Y-194304000D03*
D18*
X140563000Y-192779000D03*
X140563000Y-195829000D03*
D17*
%TO.P,U7,3,Out*%
%TO.N,+5VA*%
X132588000Y-196584000D03*
%TD*%
D39*
%TO.P,C1,1*%
%TO.N,+12V*%
X68580000Y-123825000D03*
%TO.P,C1,2*%
%TO.N,GND*%
X65630000Y-123825000D03*
%TD*%
D15*
%TO.P,C15,1*%
%TO.N,GND*%
X125730000Y-137200000D03*
%TO.P,C15,2*%
%TO.N,+5V*%
X125730000Y-139700000D03*
%TD*%
D30*
%TO.P,U9,1,Vdd*%
%TO.N,+5VA*%
X114300000Y-193040000D03*
D15*
%TO.P,U9,2,NC*%
%TO.N,unconnected-(U9-NC-Pad2)*%
X111760000Y-193040000D03*
%TO.P,U9,3,~{CS}*%
%TO.N,/DAC2_~{CS}*%
X109220000Y-193040000D03*
%TO.P,U9,4,SCK*%
%TO.N,/SCK*%
X106680000Y-193040000D03*
%TO.P,U9,5,SDI*%
%TO.N,/MOSI*%
X104140000Y-193040000D03*
%TO.P,U9,6,NC*%
%TO.N,unconnected-(U9-NC-Pad6)*%
X101600000Y-193040000D03*
%TO.P,U9,7,NC*%
%TO.N,unconnected-(U9-NC-Pad7)*%
X99060000Y-193040000D03*
%TO.P,U9,8,~{LDAC}*%
%TO.N,GND*%
X99060000Y-200660000D03*
%TO.P,U9,9,~{SHDN}*%
%TO.N,+5VA*%
X101600000Y-200660000D03*
%TO.P,U9,10,VB*%
%TO.N,/AN4*%
X104140000Y-200660000D03*
%TO.P,U9,11,VrefB*%
%TO.N,+5VA*%
X106680000Y-200660000D03*
%TO.P,U9,12,Vss*%
%TO.N,GND*%
X109220000Y-200660000D03*
%TO.P,U9,13,VrefA*%
%TO.N,+5VA*%
X111760000Y-200660000D03*
%TO.P,U9,14,VA*%
%TO.N,/AN3*%
X114300000Y-200660000D03*
%TD*%
D40*
%TO.N,GND*%
X113030000Y-121920000D03*
X109220000Y-121920000D03*
X105410000Y-121920000D03*
X118110000Y-121920000D03*
X124460000Y-124460000D03*
X52070000Y-111760000D03*
X59690000Y-105410000D03*
X52070000Y-104140000D03*
X138430000Y-166370000D03*
X143510000Y-161290000D03*
X73660000Y-196850000D03*
X55880000Y-189230000D03*
X52070000Y-198120000D03*
X60960000Y-205740000D03*
X106680000Y-205740000D03*
X116840000Y-205740000D03*
X138430000Y-105410000D03*
X137160000Y-121920000D03*
X123190000Y-118110000D03*
X93980000Y-107950000D03*
X90170000Y-116840000D03*
X86360000Y-115570000D03*
X95250000Y-134620000D03*
X93980000Y-147320000D03*
X93980000Y-143510000D03*
X93980000Y-139700000D03*
X93980000Y-151130000D03*
X120650000Y-181610000D03*
X71120000Y-135890000D03*
X81280000Y-135890000D03*
X83820000Y-138430000D03*
X78740000Y-138430000D03*
X78740000Y-143510000D03*
X83820000Y-143510000D03*
X87630000Y-138430000D03*
X87630000Y-143510000D03*
X87630000Y-148590000D03*
X83820000Y-148590000D03*
X78740000Y-148590000D03*
X73660000Y-148590000D03*
X73660000Y-143510000D03*
X73660000Y-138430000D03*
X90805000Y-132715000D03*
X86360000Y-132715000D03*
X81280000Y-132715000D03*
X68580000Y-132715000D03*
X68580000Y-138430000D03*
X68580000Y-143510000D03*
X68580000Y-148590000D03*
X57150000Y-134620000D03*
X52070000Y-130810000D03*
X52070000Y-138430000D03*
X52070000Y-143510000D03*
X52070000Y-148590000D03*
X52070000Y-153670000D03*
X52070000Y-158750000D03*
X52070000Y-163830000D03*
X55880000Y-157480000D03*
X55880000Y-161290000D03*
X58420000Y-168910000D03*
X58420000Y-173990000D03*
X52070000Y-168910000D03*
X52070000Y-173990000D03*
X52070000Y-179070000D03*
X58420000Y-179070000D03*
X63500000Y-173990000D03*
X63500000Y-179070000D03*
X68580000Y-179070000D03*
X68580000Y-173990000D03*
X68580000Y-168910000D03*
X73660000Y-168910000D03*
X73660000Y-173990000D03*
X73660000Y-179070000D03*
X73660000Y-184150000D03*
X73660000Y-189230000D03*
X74930000Y-165100000D03*
X77470000Y-163830000D03*
X81280000Y-165100000D03*
X83820000Y-165100000D03*
X81280000Y-168910000D03*
X78740000Y-173990000D03*
X78740000Y-179070000D03*
X78740000Y-184150000D03*
X78740000Y-189230000D03*
X121920000Y-168910000D03*
X107950000Y-173990000D03*
X110490000Y-163830000D03*
X104140000Y-163830000D03*
X97790000Y-168910000D03*
X96520000Y-165100000D03*
X91440000Y-168910000D03*
X86360000Y-176530000D03*
X91440000Y-173990000D03*
X91440000Y-179070000D03*
X96520000Y-179070000D03*
X101600000Y-179070000D03*
X106680000Y-179070000D03*
X111760000Y-179070000D03*
X116840000Y-177800000D03*
X121920000Y-172720000D03*
X138430000Y-177800000D03*
X138430000Y-182880000D03*
X144780000Y-167640000D03*
X144780000Y-172720000D03*
X144780000Y-177800000D03*
X144780000Y-182880000D03*
X132080000Y-182880000D03*
X143510000Y-135890000D03*
X143510000Y-129540000D03*
X143510000Y-142240000D03*
X137160000Y-129540000D03*
X134620000Y-134620000D03*
X144780000Y-111760000D03*
X134620000Y-114300000D03*
X134620000Y-119380000D03*
X129540000Y-114300000D03*
X128270000Y-109220000D03*
X66040000Y-125730000D03*
X71755000Y-111760000D03*
X73660000Y-113665000D03*
X122555000Y-123825000D03*
X99060000Y-138430000D03*
X63500000Y-124460000D03*
X139700000Y-116840000D03*
X110490000Y-109220000D03*
X125730000Y-109220000D03*
X113030000Y-111760000D03*
X146050000Y-196850000D03*
X118110000Y-129540000D03*
X67310000Y-111760000D03*
X110490000Y-119380000D03*
X138430000Y-199390000D03*
X69215000Y-126365000D03*
X119380000Y-144780000D03*
X146050000Y-193040000D03*
X143510000Y-189230000D03*
X75565000Y-117475000D03*
X104140000Y-104775000D03*
X81280000Y-129540000D03*
X118110000Y-116840000D03*
X65405000Y-111760000D03*
X55880000Y-121920000D03*
X121285000Y-120015000D03*
X132080000Y-139700000D03*
X138430000Y-189230000D03*
X132080000Y-162560000D03*
X110490000Y-127000000D03*
X128905000Y-189230000D03*
X107950000Y-119380000D03*
X99060000Y-120650000D03*
X140970000Y-149860000D03*
X142240000Y-149860000D03*
X132715000Y-157480000D03*
X143510000Y-124460000D03*
X128270000Y-186690000D03*
X132080000Y-165100000D03*
X85090000Y-104140000D03*
X129540000Y-165100000D03*
X130810000Y-109220000D03*
X52070000Y-116840000D03*
X129540000Y-152400000D03*
X52070000Y-119380000D03*
X59690000Y-165100000D03*
X146050000Y-205740000D03*
X101600000Y-125730000D03*
X133350000Y-109220000D03*
X59690000Y-121920000D03*
X115570000Y-140335000D03*
X55880000Y-119380000D03*
X72390000Y-163830000D03*
X86360000Y-129540000D03*
X106680000Y-194945000D03*
X75565000Y-114935000D03*
X112395000Y-161290000D03*
X63500000Y-168910000D03*
X121920000Y-144780000D03*
X140970000Y-189230000D03*
X113030000Y-114300000D03*
X60960000Y-134620000D03*
X115570000Y-144145000D03*
X118110000Y-111760000D03*
X71120000Y-125730000D03*
X138430000Y-205740000D03*
X99060000Y-118110000D03*
X100330000Y-130810000D03*
X102870000Y-152400000D03*
X72390000Y-114935000D03*
X123190000Y-189230000D03*
X83820000Y-129540000D03*
X63500000Y-130810000D03*
X104140000Y-194945000D03*
X101600000Y-152400000D03*
X63500000Y-121920000D03*
X137160000Y-172720000D03*
X107950000Y-109220000D03*
X101600000Y-138430000D03*
X97790000Y-189230000D03*
X118110000Y-106680000D03*
X52070000Y-124460000D03*
X139700000Y-119380000D03*
X83820000Y-194945000D03*
X146050000Y-189230000D03*
X113030000Y-106680000D03*
X72390000Y-154940000D03*
X59690000Y-119380000D03*
X129540000Y-175260000D03*
X132080000Y-132080000D03*
X81280000Y-194945000D03*
X97790000Y-182880000D03*
X124460000Y-162560000D03*
X55880000Y-124460000D03*
X108585000Y-161290000D03*
X132715000Y-154940000D03*
X143510000Y-196850000D03*
X110490000Y-154940000D03*
X113030000Y-154940000D03*
X113030000Y-116840000D03*
X63500000Y-119380000D03*
X59690000Y-124460000D03*
X75565000Y-111760000D03*
X86360000Y-180340000D03*
X129540000Y-167640000D03*
X143510000Y-193040000D03*
X99060000Y-123190000D03*
X107950000Y-106680000D03*
X52070000Y-121920000D03*
X114300000Y-127000000D03*
X140970000Y-146050000D03*
%TO.N,+12V*%
X67945000Y-126365000D03*
%TO.N,Net-(U5-BOOT)*%
X71120000Y-114935000D03*
X71120000Y-124460000D03*
%TO.N,+7V*%
X102870000Y-103505000D03*
X83820000Y-104140000D03*
X130810000Y-189230000D03*
%TO.N,+5V*%
X100330000Y-119380000D03*
%TO.N,/~{MCLR}*%
X142240000Y-124460000D03*
X142240000Y-148590000D03*
%TO.N,/USB_D+*%
X122431875Y-122431875D03*
X101218172Y-124595578D03*
%TO.N,/USB_D-*%
X100194422Y-123571828D03*
X121408125Y-121408125D03*
X64770000Y-130810000D03*
%TO.N,/CAN_H*%
X72390000Y-156210000D03*
%TO.N,/MOSI*%
X97790000Y-187960000D03*
X99060000Y-129540000D03*
X97790000Y-184150000D03*
%TO.N,/DAC1_~{CS}*%
X86360000Y-181610000D03*
%TO.N,/INT*%
X140970000Y-144780000D03*
%TO.N,GND*%
X63500000Y-148590000D03*
X59690000Y-153670000D03*
X95250000Y-125730000D03*
%TD*%
D41*
%TO.N,GND*%
X86360000Y-180340000D02*
X86360000Y-176530000D01*
X74930000Y-196850000D02*
X76200000Y-198120000D01*
X73660000Y-196850000D02*
X74930000Y-196850000D01*
X76200000Y-198120000D02*
X76200000Y-200660000D01*
X106680000Y-205740000D02*
X109220000Y-203200000D01*
X109220000Y-203200000D02*
X109220000Y-200660000D01*
X116840000Y-205740000D02*
X118110000Y-204470000D01*
X118110000Y-204470000D02*
X118110000Y-200620000D01*
X146050000Y-121920000D02*
X146050000Y-113030000D01*
X143510000Y-124460000D02*
X146050000Y-121920000D01*
X146050000Y-113030000D02*
X144780000Y-111760000D01*
X122555000Y-123825000D02*
X123825000Y-123825000D01*
X123825000Y-123825000D02*
X124460000Y-124460000D01*
X124460000Y-124460000D02*
X124460000Y-119380000D01*
X124460000Y-119380000D02*
X123190000Y-118110000D01*
X124460000Y-162560000D02*
X123230000Y-163790000D01*
X123230000Y-163790000D02*
X119380000Y-163790000D01*
X63500000Y-130810000D02*
X60960000Y-133350000D01*
X60960000Y-133350000D02*
X60960000Y-134620000D01*
X60960000Y-134620000D02*
X57150000Y-134620000D01*
%TO.N,/PH*%
X82550000Y-120200000D02*
X77920000Y-120200000D01*
X77920000Y-120200000D02*
X76645000Y-121475000D01*
X76645000Y-121475000D02*
X73025000Y-121475000D01*
D42*
%TO.N,GND*%
X134620000Y-152400000D02*
X135890000Y-152400000D01*
D41*
X105664000Y-105664000D02*
X105664000Y-108839000D01*
X104140000Y-104775000D02*
X104775000Y-104775000D01*
X66675000Y-118377500D02*
X66535000Y-118237500D01*
D42*
X137160000Y-153670000D02*
X137160000Y-154940000D01*
D41*
X104775000Y-104775000D02*
X105664000Y-105664000D01*
D42*
X135890000Y-152400000D02*
X137160000Y-153670000D01*
D41*
X66675000Y-120415000D02*
X66675000Y-118377500D01*
%TO.N,+12V*%
X67945000Y-124460000D02*
X67945000Y-126365000D01*
X67945000Y-123190000D02*
X68580000Y-123825000D01*
X68580000Y-123825000D02*
X67945000Y-124460000D01*
X67945000Y-120335000D02*
X67945000Y-123190000D01*
D42*
%TO.N,Net-(U5-BOOT)*%
X69215000Y-114935000D02*
X71120000Y-114935000D01*
X72075000Y-124460000D02*
X72710000Y-125095000D01*
X71120000Y-124460000D02*
X72075000Y-124460000D01*
D41*
%TO.N,+7V*%
X102714000Y-103661000D02*
X102870000Y-103505000D01*
D42*
X69850000Y-107315000D02*
X69850000Y-108810000D01*
D41*
X102714000Y-108839000D02*
X102714000Y-103661000D01*
D42*
X64135000Y-105410000D02*
X67945000Y-105410000D01*
X67945000Y-105410000D02*
X69850000Y-107315000D01*
%TO.N,Net-(C7-Pad2)*%
X59055000Y-112395000D02*
X59055000Y-114380000D01*
X57785000Y-113665000D02*
X57785000Y-112395000D01*
X59055000Y-114380000D02*
X60245000Y-114380000D01*
X61280000Y-111760000D02*
X59690000Y-111760000D01*
X58420000Y-111760000D02*
X59690000Y-111760000D01*
X58500000Y-114380000D02*
X57785000Y-113665000D01*
X57785000Y-112395000D02*
X58420000Y-111760000D01*
X59690000Y-111760000D02*
X59055000Y-112395000D01*
X60325000Y-113030000D02*
X60960000Y-112395000D01*
X60245000Y-114380000D02*
X60325000Y-114300000D01*
X60325000Y-114300000D02*
X60325000Y-113030000D01*
X59055000Y-114380000D02*
X58500000Y-114380000D01*
D41*
%TO.N,+5V*%
X102714000Y-119634000D02*
X100584000Y-119634000D01*
X100584000Y-119634000D02*
X100330000Y-119380000D01*
D42*
%TO.N,Net-(U1-Vusb3v3)*%
X137160000Y-158750000D02*
X137160000Y-157890000D01*
X135890000Y-160020000D02*
X137160000Y-158750000D01*
X134620000Y-160020000D02*
X135890000Y-160020000D01*
%TO.N,/~{MCLR}*%
X130810000Y-153670000D02*
X135890000Y-148590000D01*
X135890000Y-148590000D02*
X140970000Y-148590000D01*
X120650000Y-161290000D02*
X119380000Y-161290000D01*
X130810000Y-156210000D02*
X130810000Y-153670000D01*
X119380000Y-161290000D02*
X114300000Y-161290000D01*
X133350000Y-124460000D02*
X124460000Y-115570000D01*
X140970000Y-148590000D02*
X142240000Y-148590000D01*
X121920000Y-160020000D02*
X120650000Y-161290000D01*
X114300000Y-168910000D02*
X101800000Y-168910000D01*
X124460000Y-115570000D02*
X124460000Y-106680000D01*
X142240000Y-124460000D02*
X133350000Y-124460000D01*
X114300000Y-161290000D02*
X114300000Y-168910000D01*
X127000000Y-160020000D02*
X121920000Y-160020000D01*
X127000000Y-160020000D02*
X130810000Y-156210000D01*
D41*
%TO.N,+5VA*%
X106680000Y-196850000D02*
X111760000Y-196850000D01*
X95250000Y-198120000D02*
X95250000Y-196850000D01*
D42*
X80010000Y-196850000D02*
X83820000Y-196850000D01*
X88900000Y-196850000D02*
X92710000Y-196850000D01*
D41*
X95250000Y-196850000D02*
X91440000Y-193040000D01*
D42*
X93980000Y-198120000D02*
X95250000Y-198120000D01*
X92710000Y-196850000D02*
X93980000Y-198120000D01*
D41*
X101600000Y-196850000D02*
X106680000Y-196850000D01*
D42*
X83820000Y-200660000D02*
X83820000Y-196850000D01*
X88900000Y-200660000D02*
X88900000Y-196850000D01*
D41*
X116840000Y-196850000D02*
X118110000Y-198120000D01*
X124460000Y-198120000D02*
X127000000Y-198120000D01*
X118110000Y-198120000D02*
X118110000Y-195580000D01*
D42*
X116840000Y-189230000D02*
X114300000Y-191770000D01*
D41*
X118110000Y-198120000D02*
X124460000Y-198120000D01*
X128524000Y-199644000D02*
X133448000Y-199644000D01*
X127000000Y-198120000D02*
X128524000Y-199644000D01*
X115570000Y-193040000D02*
X114300000Y-193040000D01*
D42*
X78740000Y-200660000D02*
X78740000Y-198120000D01*
X83820000Y-196850000D02*
X88900000Y-196850000D01*
D41*
X118110000Y-195580000D02*
X115570000Y-193040000D01*
D42*
X78740000Y-198120000D02*
X80010000Y-196850000D01*
X111760000Y-200660000D02*
X111760000Y-196850000D01*
D41*
X111760000Y-196850000D02*
X116840000Y-196850000D01*
D42*
X101600000Y-200660000D02*
X101600000Y-196850000D01*
D41*
X96520000Y-198120000D02*
X97790000Y-196850000D01*
D42*
X93980000Y-190500000D02*
X91440000Y-193040000D01*
D41*
X97790000Y-196850000D02*
X101600000Y-196850000D01*
D42*
X114300000Y-191770000D02*
X114300000Y-193040000D01*
X106680000Y-200660000D02*
X106680000Y-196850000D01*
X93980000Y-189230000D02*
X93980000Y-190500000D01*
D41*
X95250000Y-198120000D02*
X96520000Y-198120000D01*
D42*
%TO.N,/USB_D+*%
X119992911Y-124511628D02*
X122072664Y-122431875D01*
X122072664Y-122431875D02*
X122431875Y-122431875D01*
X101302122Y-124511628D02*
X119992911Y-124511628D01*
X101218172Y-124595578D02*
X101302122Y-124511628D01*
%TO.N,/USB_D-*%
X100194422Y-123571828D02*
X119603633Y-123571828D01*
X121408125Y-121767336D02*
X121408125Y-121408125D01*
X64770000Y-130810000D02*
X64770000Y-134660000D01*
X119603633Y-123571828D02*
X121408125Y-121767336D01*
%TO.N,/CAN_L*%
X69360000Y-157480000D02*
X68580000Y-156700000D01*
X86360000Y-157480000D02*
X80010000Y-157480000D01*
X80010000Y-157480000D02*
X69360000Y-157480000D01*
%TO.N,/CAN_H*%
X84210000Y-160900000D02*
X68580000Y-160900000D01*
X85090000Y-160020000D02*
X84210000Y-160900000D01*
X72747500Y-155852500D02*
X72390000Y-156210000D01*
X74930000Y-155852500D02*
X72747500Y-155852500D01*
X86360000Y-160020000D02*
X85090000Y-160020000D01*
%TO.N,/AN4*%
X104140000Y-203200000D02*
X101600000Y-205740000D01*
X60960000Y-185420000D02*
X63080000Y-185420000D01*
X101600000Y-205740000D02*
X69850000Y-205740000D01*
X104140000Y-200660000D02*
X104140000Y-203200000D01*
X58420000Y-187960000D02*
X60960000Y-185420000D01*
X69850000Y-205740000D02*
X58420000Y-194310000D01*
X58420000Y-194310000D02*
X58420000Y-187960000D01*
%TO.N,/AN2*%
X74930000Y-203200000D02*
X68580000Y-196850000D01*
X81280000Y-201930000D02*
X80010000Y-203200000D01*
X81280000Y-200660000D02*
X81280000Y-201930000D01*
X80010000Y-203200000D02*
X74930000Y-203200000D01*
X68580000Y-196850000D02*
X68580000Y-193820000D01*
%TO.N,/AN3*%
X114300000Y-203200000D02*
X110490000Y-207010000D01*
X57150000Y-198120000D02*
X54610000Y-198120000D01*
X68580000Y-182880000D02*
X68580000Y-185420000D01*
X52070000Y-182880000D02*
X53340000Y-181610000D01*
X110490000Y-207010000D02*
X66040000Y-207010000D01*
X114300000Y-200660000D02*
X114300000Y-203200000D01*
X52070000Y-195580000D02*
X52070000Y-182880000D01*
X66040000Y-207010000D02*
X57150000Y-198120000D01*
X67310000Y-181610000D02*
X68580000Y-182880000D01*
X54610000Y-198120000D02*
X52070000Y-195580000D01*
X53340000Y-181610000D02*
X67310000Y-181610000D01*
%TO.N,/AN1*%
X88900000Y-204470000D02*
X73730000Y-204470000D01*
X91440000Y-201930000D02*
X88900000Y-204470000D01*
X91440000Y-200660000D02*
X91440000Y-201930000D01*
X73730000Y-204470000D02*
X63080000Y-193820000D01*
%TO.N,/ICSP_CLK*%
X142240000Y-114300000D02*
X134620000Y-106680000D01*
%TO.N,/SCK*%
X91440000Y-165100000D02*
X83820000Y-172720000D01*
X113030000Y-129540000D02*
X113030000Y-127000000D01*
X83820000Y-172720000D02*
X83820000Y-193040000D01*
X105410000Y-133350000D02*
X97790000Y-133350000D01*
X125730000Y-184150000D02*
X109220000Y-184150000D01*
X107950000Y-125730000D02*
X106680000Y-127000000D01*
X97790000Y-133350000D02*
X91440000Y-139700000D01*
X113030000Y-127000000D02*
X111760000Y-125730000D01*
X106680000Y-127000000D02*
X106680000Y-132080000D01*
X106680000Y-186690000D02*
X106680000Y-193040000D01*
X91440000Y-139700000D02*
X91440000Y-165100000D01*
X111760000Y-125730000D02*
X107950000Y-125730000D01*
X114300000Y-147320000D02*
X114300000Y-149860000D01*
X116840000Y-144780000D02*
X114300000Y-147320000D01*
X116840000Y-142240000D02*
X116840000Y-144780000D01*
X106680000Y-132080000D02*
X105410000Y-133350000D01*
X109220000Y-184150000D02*
X106680000Y-186690000D01*
X134620000Y-175260000D02*
X125730000Y-184150000D01*
%TO.N,/MOSI*%
X127000000Y-172720000D02*
X125730000Y-172720000D01*
X90170000Y-163830000D02*
X90170000Y-138430000D01*
X97790000Y-187960000D02*
X97790000Y-184150000D01*
X114300000Y-144145000D02*
X111760000Y-146685000D01*
X81280000Y-193040000D02*
X81280000Y-172720000D01*
X114300000Y-142240000D02*
X114300000Y-144145000D01*
X81280000Y-172720000D02*
X90170000Y-163830000D01*
X104140000Y-186690000D02*
X104140000Y-193040000D01*
X111760000Y-146685000D02*
X111760000Y-149860000D01*
X107950000Y-182880000D02*
X104140000Y-186690000D01*
X90170000Y-138430000D02*
X99060000Y-129540000D01*
X125730000Y-172720000D02*
X115570000Y-182880000D01*
X115570000Y-182880000D02*
X107950000Y-182880000D01*
%TO.N,/MISO*%
X134620000Y-170180000D02*
X137160000Y-170180000D01*
X115570000Y-130810000D02*
X116840000Y-132080000D01*
X137160000Y-170180000D02*
X146050000Y-161290000D01*
X146050000Y-128270000D02*
X143510000Y-125730000D01*
X118110000Y-137795000D02*
X119380000Y-136525000D01*
X119380000Y-133350000D02*
X119380000Y-134620000D01*
X115570000Y-129540000D02*
X115570000Y-130810000D01*
X118110000Y-132080000D02*
X119380000Y-133350000D01*
X119380000Y-125730000D02*
X115570000Y-129540000D01*
X113030000Y-137795000D02*
X118110000Y-137795000D01*
X146050000Y-161290000D02*
X146050000Y-128270000D01*
X119380000Y-136525000D02*
X119380000Y-134620000D01*
X116840000Y-132080000D02*
X118110000Y-132080000D01*
X109220000Y-149860000D02*
X109220000Y-141605000D01*
X143510000Y-125730000D02*
X119380000Y-125730000D01*
X109220000Y-141605000D02*
X113030000Y-137795000D01*
%TO.N,/CAN_~{CS}*%
X106680000Y-152400000D02*
X106680000Y-149860000D01*
X105410000Y-142240000D02*
X104140000Y-142240000D01*
X106680000Y-143510000D02*
X105410000Y-142240000D01*
X107950000Y-153670000D02*
X106680000Y-152400000D01*
X127000000Y-154940000D02*
X124460000Y-154940000D01*
X124460000Y-154940000D02*
X123190000Y-153670000D01*
X104140000Y-142240000D02*
X104140000Y-138430000D01*
X123190000Y-153670000D02*
X107950000Y-153670000D01*
X106680000Y-149860000D02*
X106680000Y-143510000D01*
%TO.N,/ROM_~{CS}*%
X123190000Y-129540000D02*
X121920000Y-130810000D01*
X121920000Y-130810000D02*
X121920000Y-134620000D01*
X124460000Y-129540000D02*
X123190000Y-129540000D01*
X127000000Y-129540000D02*
X124460000Y-129540000D01*
X129540000Y-132080000D02*
X127000000Y-129540000D01*
%TO.N,/DAC2_~{CS}*%
X111760000Y-186690000D02*
X109220000Y-189230000D01*
X121920000Y-190500000D02*
X118110000Y-186690000D01*
X125730000Y-186690000D02*
X125730000Y-189230000D01*
X109220000Y-189230000D02*
X109220000Y-193040000D01*
X124460000Y-190500000D02*
X121920000Y-190500000D01*
X118110000Y-186690000D02*
X111760000Y-186690000D01*
X125730000Y-189230000D02*
X124460000Y-190500000D01*
%TO.N,/DAC1_~{CS}*%
X86360000Y-189230000D02*
X86360000Y-181610000D01*
X86360000Y-193040000D02*
X86360000Y-189230000D01*
%TO.N,/INT*%
X124460000Y-144780000D02*
X140970000Y-144780000D01*
X119380000Y-146050000D02*
X116840000Y-148590000D01*
X116840000Y-148590000D02*
X116840000Y-149860000D01*
X123190000Y-146050000D02*
X119380000Y-146050000D01*
X124460000Y-144780000D02*
X123190000Y-146050000D01*
%TO.N,Net-(JP5-B)*%
X80010000Y-154940000D02*
X79097500Y-154027500D01*
X79097500Y-154027500D02*
X74930000Y-154027500D01*
%TO.N,/CLK*%
X127000000Y-157480000D02*
X124460000Y-157480000D01*
X121285000Y-155575000D02*
X119380000Y-157480000D01*
X122555000Y-155575000D02*
X121285000Y-155575000D01*
X124460000Y-157480000D02*
X122555000Y-155575000D01*
%TO.N,/CAN_RX*%
X101600000Y-153670000D02*
X104140000Y-156210000D01*
X93980000Y-154940000D02*
X95250000Y-153670000D01*
X95250000Y-153670000D02*
X101600000Y-153670000D01*
X104140000Y-156210000D02*
X104140000Y-157480000D01*
%TO.N,/CAN_TX*%
X93980000Y-162560000D02*
X100330000Y-162560000D01*
X100330000Y-162560000D02*
X101600000Y-161290000D01*
X101600000Y-161290000D02*
X101600000Y-157480000D01*
D41*
%TO.N,/PH*%
X71310000Y-121475000D02*
X73025000Y-121475000D01*
X69215000Y-120335000D02*
X70170000Y-120335000D01*
D42*
X74610000Y-124140000D02*
X73025000Y-122555000D01*
X73025000Y-122555000D02*
X73025000Y-121475000D01*
D41*
X70170000Y-120335000D02*
X71310000Y-121475000D01*
D42*
X74610000Y-125095000D02*
X74610000Y-124140000D01*
%TO.N,/sense*%
X53340000Y-114300000D02*
X53340000Y-112395000D01*
X62865000Y-114655000D02*
X65205000Y-114655000D01*
X59690000Y-108585000D02*
X56515000Y-111760000D01*
X53420000Y-114380000D02*
X53340000Y-114300000D01*
X62230000Y-113665000D02*
X62865000Y-113030000D01*
X53340000Y-112395000D02*
X53975000Y-111760000D01*
X55245000Y-114380000D02*
X55245000Y-113030000D01*
X65205000Y-114655000D02*
X65405000Y-114855000D01*
X63180000Y-111440000D02*
X62585000Y-110845000D01*
X55245000Y-114380000D02*
X53420000Y-114380000D01*
X62865000Y-113030000D02*
X62865000Y-112395000D01*
X62585000Y-110845000D02*
X62585000Y-108585000D01*
X56435000Y-114380000D02*
X56515000Y-114300000D01*
X62585000Y-114655000D02*
X62230000Y-114300000D01*
X56515000Y-114300000D02*
X56515000Y-111760000D01*
X63180000Y-111760000D02*
X63180000Y-111440000D01*
X55245000Y-113030000D02*
X56515000Y-111760000D01*
X64135000Y-113385000D02*
X62865000Y-114655000D01*
X62310000Y-105410000D02*
X62310000Y-108310000D01*
X62230000Y-114300000D02*
X62230000Y-113665000D01*
X64135000Y-112715000D02*
X64135000Y-113385000D01*
X62585000Y-108585000D02*
X59690000Y-108585000D01*
X53975000Y-111760000D02*
X56515000Y-111760000D01*
X63180000Y-111760000D02*
X64135000Y-112715000D01*
X62310000Y-108310000D02*
X62585000Y-108585000D01*
X55245000Y-114380000D02*
X56435000Y-114380000D01*
X62865000Y-114655000D02*
X62585000Y-114655000D01*
D41*
%TO.N,GND*%
X128905000Y-187325000D02*
X128270000Y-186690000D01*
X128905000Y-189230000D02*
X128905000Y-187325000D01*
X128270000Y-186690000D02*
X132080000Y-182880000D01*
X73660000Y-189230000D02*
X73660000Y-196850000D01*
%TD*%
%TA.AperFunction,Conductor*%
%TO.N,GND*%
G36*
X104916928Y-162579918D02*
G01*
X105064691Y-162638422D01*
X105193262Y-162731834D01*
X105207534Y-162745664D01*
X105311895Y-162850025D01*
X105527220Y-163015250D01*
X105762272Y-163150958D01*
X105762273Y-163150958D01*
X105762276Y-163150960D01*
X106013031Y-163254826D01*
X106275199Y-163325074D01*
X106544292Y-163360500D01*
X106815708Y-163360500D01*
X107084801Y-163325074D01*
X107346969Y-163254826D01*
X107597724Y-163150960D01*
X107832777Y-163015252D01*
X108048105Y-162850025D01*
X108152437Y-162745692D01*
X108278006Y-162648291D01*
X108423858Y-162585175D01*
X108580824Y-162560313D01*
X108600741Y-162560000D01*
X112243100Y-162560000D01*
X112400769Y-162579918D01*
X112548532Y-162638422D01*
X112677103Y-162731834D01*
X112778404Y-162854286D01*
X112846070Y-162998083D01*
X112875849Y-163154191D01*
X112877100Y-163194000D01*
X112877100Y-166426182D01*
X112875068Y-166442260D01*
X112876280Y-166458426D01*
X112865134Y-166520895D01*
X112857182Y-166583851D01*
X112851214Y-166598923D01*
X112848368Y-166614878D01*
X112822038Y-166672613D01*
X112798678Y-166731614D01*
X112789151Y-166744725D01*
X112782426Y-166759474D01*
X112742565Y-166808847D01*
X112705266Y-166860185D01*
X112690430Y-166873422D01*
X112682595Y-166883128D01*
X112663251Y-166897674D01*
X112621859Y-166934608D01*
X112592163Y-166956730D01*
X112413710Y-167059761D01*
X112182781Y-167236958D01*
X112085746Y-167333992D01*
X112048787Y-167361526D01*
X112019418Y-167378131D01*
X111992760Y-167398810D01*
X111950518Y-167417089D01*
X111910447Y-167439747D01*
X111877869Y-167448527D01*
X111846908Y-167461926D01*
X111801446Y-167469126D01*
X111757001Y-167481106D01*
X111723265Y-167481509D01*
X111689942Y-167486787D01*
X111670028Y-167487100D01*
X104429972Y-167487100D01*
X104272303Y-167467182D01*
X104124540Y-167408678D01*
X103995969Y-167315266D01*
X103981698Y-167301437D01*
X103917219Y-167236958D01*
X103686290Y-167059761D01*
X103686289Y-167059760D01*
X103686286Y-167059758D01*
X103434209Y-166914221D01*
X103165284Y-166802828D01*
X102884123Y-166727493D01*
X102658333Y-166697767D01*
X102595539Y-166689500D01*
X101004461Y-166689500D01*
X100952888Y-166696289D01*
X100715876Y-166727493D01*
X100434715Y-166802828D01*
X100165790Y-166914221D01*
X99913713Y-167059758D01*
X99682783Y-167236956D01*
X99476956Y-167442783D01*
X99299758Y-167673713D01*
X99154221Y-167925790D01*
X99042828Y-168194715D01*
X98967493Y-168475876D01*
X98929500Y-168764462D01*
X98929500Y-169055537D01*
X98967493Y-169344123D01*
X99042828Y-169625284D01*
X99042830Y-169625288D01*
X99154221Y-169894209D01*
X99299761Y-170146290D01*
X99299766Y-170146296D01*
X99311291Y-170163545D01*
X99309402Y-170164806D01*
X99374996Y-170277066D01*
X99418530Y-170429909D01*
X99422685Y-170588778D01*
X99387201Y-170743688D01*
X99314307Y-170884907D01*
X99208584Y-171003562D01*
X99144060Y-171052938D01*
X99068495Y-171103429D01*
X98803436Y-171320958D01*
X98560958Y-171563436D01*
X98343425Y-171828500D01*
X98343425Y-171828501D01*
X98152927Y-172113600D01*
X98152918Y-172113615D01*
X97991267Y-172416042D01*
X97860048Y-172732835D01*
X97791139Y-172960000D01*
X105808860Y-172960000D01*
X105739951Y-172732835D01*
X105608732Y-172416042D01*
X105447081Y-172113615D01*
X105447072Y-172113600D01*
X105256574Y-171828501D01*
X105256574Y-171828500D01*
X105039041Y-171563436D01*
X104890811Y-171415206D01*
X104793407Y-171289632D01*
X104730291Y-171143780D01*
X104705430Y-170986814D01*
X104720386Y-170828597D01*
X104774219Y-170679070D01*
X104863547Y-170547628D01*
X104982756Y-170442531D01*
X105124357Y-170370382D01*
X105279452Y-170335714D01*
X105339117Y-170332900D01*
X110760883Y-170332900D01*
X110918552Y-170352818D01*
X111066315Y-170411322D01*
X111194886Y-170504734D01*
X111296187Y-170627186D01*
X111363853Y-170770983D01*
X111393632Y-170927091D01*
X111383653Y-171085700D01*
X111334543Y-171236844D01*
X111249388Y-171371027D01*
X111209189Y-171415206D01*
X111060958Y-171563436D01*
X110843425Y-171828500D01*
X110843425Y-171828501D01*
X110652927Y-172113600D01*
X110652918Y-172113615D01*
X110491267Y-172416042D01*
X110360048Y-172732835D01*
X110291139Y-172960000D01*
X118308860Y-172960000D01*
X118239951Y-172732835D01*
X118108732Y-172416042D01*
X117947081Y-172113615D01*
X117947072Y-172113600D01*
X117756574Y-171828501D01*
X117756574Y-171828500D01*
X117539041Y-171563436D01*
X117296563Y-171320958D01*
X117031499Y-171103425D01*
X117031497Y-171103424D01*
X116955942Y-171052939D01*
X116835911Y-170948781D01*
X116745555Y-170818044D01*
X116690550Y-170668944D01*
X116674353Y-170510849D01*
X116697982Y-170353693D01*
X116759951Y-170207350D01*
X116789120Y-170163820D01*
X116788709Y-170163545D01*
X116800226Y-170146306D01*
X116800239Y-170146290D01*
X116945779Y-169894209D01*
X117057170Y-169625288D01*
X117132506Y-169344127D01*
X117170500Y-169055539D01*
X117170500Y-168764461D01*
X117132506Y-168475873D01*
X117057170Y-168194712D01*
X116945779Y-167925791D01*
X116800239Y-167673710D01*
X116623042Y-167442781D01*
X116417219Y-167236958D01*
X116186290Y-167059761D01*
X116186289Y-167059760D01*
X116186286Y-167059758D01*
X116039898Y-166975241D01*
X115997602Y-166943136D01*
X115952773Y-166914687D01*
X115934534Y-166895264D01*
X115913312Y-166879156D01*
X115880333Y-166837547D01*
X115843983Y-166798838D01*
X115831146Y-166775487D01*
X115814598Y-166754609D01*
X115793002Y-166706103D01*
X115767422Y-166659573D01*
X115765264Y-166651168D01*
X117650201Y-166651168D01*
X117660823Y-166658265D01*
X117660832Y-166658271D01*
X117950256Y-166812971D01*
X118253415Y-166938543D01*
X118253434Y-166938550D01*
X118567475Y-167033814D01*
X118567474Y-167033814D01*
X118889323Y-167097832D01*
X118889344Y-167097836D01*
X119215903Y-167129999D01*
X119215919Y-167130000D01*
X119544081Y-167130000D01*
X119544096Y-167129999D01*
X119870655Y-167097836D01*
X119870676Y-167097832D01*
X120192525Y-167033814D01*
X120506565Y-166938550D01*
X120506584Y-166938543D01*
X120809743Y-166812971D01*
X121099176Y-166658266D01*
X121099182Y-166658263D01*
X121109797Y-166651169D01*
X121109797Y-166651168D01*
X119379999Y-164921370D01*
X117650201Y-166651168D01*
X115765264Y-166651168D01*
X115760795Y-166633766D01*
X115749959Y-166609426D01*
X115741104Y-166557074D01*
X115727899Y-166505643D01*
X115725229Y-166463217D01*
X115723456Y-166452729D01*
X115722900Y-166426182D01*
X115722900Y-166140917D01*
X115742818Y-165983248D01*
X115801322Y-165835485D01*
X115894734Y-165706914D01*
X116017186Y-165605613D01*
X116160983Y-165537947D01*
X116317091Y-165508168D01*
X116419038Y-165509969D01*
X116518830Y-165519797D01*
X118366008Y-163672620D01*
X118491582Y-163575216D01*
X118637434Y-163512100D01*
X118794400Y-163487239D01*
X118952617Y-163502195D01*
X119062543Y-163541770D01*
X119059920Y-163544394D01*
X119007259Y-163635606D01*
X118980000Y-163737339D01*
X118980000Y-163842661D01*
X119007259Y-163944394D01*
X119059920Y-164035606D01*
X119134394Y-164110080D01*
X119225606Y-164162741D01*
X119327339Y-164190000D01*
X119432661Y-164190000D01*
X119534394Y-164162741D01*
X119625606Y-164110080D01*
X119700080Y-164035606D01*
X119752741Y-163944394D01*
X119780000Y-163842661D01*
X119780000Y-163737339D01*
X119752741Y-163635606D01*
X119700080Y-163544394D01*
X119698296Y-163542610D01*
X119768802Y-163512100D01*
X119925768Y-163487239D01*
X120083985Y-163502194D01*
X120233513Y-163556027D01*
X120364955Y-163645355D01*
X120393990Y-163672620D01*
X122241168Y-165519797D01*
X122241169Y-165519797D01*
X122248263Y-165509182D01*
X122248266Y-165509176D01*
X122402971Y-165219743D01*
X122528543Y-164916584D01*
X122528550Y-164916565D01*
X122623814Y-164602525D01*
X122687832Y-164280676D01*
X122687836Y-164280655D01*
X122719999Y-163954096D01*
X122720000Y-163954080D01*
X122720000Y-163625919D01*
X122719999Y-163625903D01*
X122687835Y-163299333D01*
X122686011Y-163287039D01*
X122682576Y-163128154D01*
X122718762Y-162973406D01*
X122792295Y-162832518D01*
X122898555Y-162714344D01*
X123030866Y-162626309D01*
X123180913Y-162573943D01*
X123313147Y-162560000D01*
X123826000Y-162560000D01*
X123983669Y-162579918D01*
X124131432Y-162638422D01*
X124260003Y-162731834D01*
X124361304Y-162854286D01*
X124428970Y-162998083D01*
X124458749Y-163154191D01*
X124460000Y-163194000D01*
X124460000Y-171715103D01*
X124440082Y-171872772D01*
X124381578Y-172020535D01*
X124288166Y-172149106D01*
X124274306Y-172163409D01*
X116283409Y-180154306D01*
X116157835Y-180251710D01*
X116011983Y-180314826D01*
X115855017Y-180339687D01*
X115835103Y-180340000D01*
X87674727Y-180340000D01*
X87517058Y-180320082D01*
X87369295Y-180261578D01*
X87311274Y-180223681D01*
X87310895Y-180224250D01*
X87293632Y-180212715D01*
X87103266Y-180102807D01*
X86900179Y-180018686D01*
X86900169Y-180018683D01*
X86687853Y-179961792D01*
X86469910Y-179933100D01*
X86250090Y-179933100D01*
X86032143Y-179961792D01*
X86011786Y-179965842D01*
X86011318Y-179963489D01*
X85883505Y-179980991D01*
X85725637Y-179962716D01*
X85577273Y-179905755D01*
X85447736Y-179813688D01*
X85345164Y-179692298D01*
X85276004Y-179549213D01*
X85244600Y-179393424D01*
X85242900Y-179347025D01*
X85242900Y-174860000D01*
X97791139Y-174860000D01*
X97860048Y-175087164D01*
X97991267Y-175403957D01*
X98152918Y-175706384D01*
X98152927Y-175706399D01*
X98343425Y-175991498D01*
X98343425Y-175991499D01*
X98560958Y-176256563D01*
X98803436Y-176499041D01*
X99068501Y-176716574D01*
X99353600Y-176907072D01*
X99353615Y-176907081D01*
X99656042Y-177068732D01*
X99972827Y-177199948D01*
X99972844Y-177199954D01*
X100300978Y-177299492D01*
X100300984Y-177299494D01*
X100637287Y-177366387D01*
X100637309Y-177366391D01*
X100849998Y-177387339D01*
X100850000Y-177387338D01*
X100850000Y-174860001D01*
X102750000Y-174860001D01*
X102750000Y-177387338D01*
X102750001Y-177387339D01*
X102962690Y-177366391D01*
X102962712Y-177366387D01*
X103299015Y-177299494D01*
X103299021Y-177299492D01*
X103627155Y-177199954D01*
X103627172Y-177199948D01*
X103943957Y-177068732D01*
X104246384Y-176907081D01*
X104246399Y-176907072D01*
X104531498Y-176716574D01*
X104531499Y-176716574D01*
X104796563Y-176499041D01*
X105039041Y-176256563D01*
X105256574Y-175991499D01*
X105256574Y-175991498D01*
X105447072Y-175706399D01*
X105447081Y-175706384D01*
X105608732Y-175403957D01*
X105739951Y-175087164D01*
X105808861Y-174860000D01*
X110291139Y-174860000D01*
X110360048Y-175087164D01*
X110491267Y-175403957D01*
X110652918Y-175706384D01*
X110652927Y-175706399D01*
X110843425Y-175991498D01*
X110843425Y-175991499D01*
X111060958Y-176256563D01*
X111303436Y-176499041D01*
X111568501Y-176716574D01*
X111853600Y-176907072D01*
X111853615Y-176907081D01*
X112156042Y-177068732D01*
X112472827Y-177199948D01*
X112472844Y-177199954D01*
X112800978Y-177299492D01*
X112800984Y-177299494D01*
X113137287Y-177366387D01*
X113137309Y-177366391D01*
X113349998Y-177387339D01*
X113350000Y-177387338D01*
X113350000Y-174860001D01*
X115250000Y-174860001D01*
X115250000Y-177387338D01*
X115250001Y-177387339D01*
X115462690Y-177366391D01*
X115462712Y-177366387D01*
X115799015Y-177299494D01*
X115799021Y-177299492D01*
X116127155Y-177199954D01*
X116127172Y-177199948D01*
X116443957Y-177068732D01*
X116746384Y-176907081D01*
X116746399Y-176907072D01*
X117031498Y-176716574D01*
X117031499Y-176716574D01*
X117296563Y-176499041D01*
X117539041Y-176256563D01*
X117756574Y-175991499D01*
X117756574Y-175991498D01*
X117947072Y-175706399D01*
X117947081Y-175706384D01*
X118108732Y-175403957D01*
X118239951Y-175087164D01*
X118308861Y-174860000D01*
X115250001Y-174860000D01*
X115250000Y-174860001D01*
X113350000Y-174860001D01*
X113349999Y-174860000D01*
X110291139Y-174860000D01*
X105808861Y-174860000D01*
X102750001Y-174860000D01*
X102750000Y-174860001D01*
X100850000Y-174860001D01*
X100849999Y-174860000D01*
X97791139Y-174860000D01*
X85242900Y-174860000D01*
X85242900Y-173845981D01*
X101150000Y-173845981D01*
X101150000Y-173974019D01*
X101174979Y-174099598D01*
X101223978Y-174217890D01*
X101295112Y-174324351D01*
X101385649Y-174414888D01*
X101492110Y-174486022D01*
X101610402Y-174535021D01*
X101735981Y-174560000D01*
X101864019Y-174560000D01*
X101989598Y-174535021D01*
X102107890Y-174486022D01*
X102214351Y-174414888D01*
X102304888Y-174324351D01*
X102376022Y-174217890D01*
X102425021Y-174099598D01*
X102450000Y-173974019D01*
X102450000Y-173845981D01*
X113650000Y-173845981D01*
X113650000Y-173974019D01*
X113674979Y-174099598D01*
X113723978Y-174217890D01*
X113795112Y-174324351D01*
X113885649Y-174414888D01*
X113992110Y-174486022D01*
X114110402Y-174535021D01*
X114235981Y-174560000D01*
X114364019Y-174560000D01*
X114489598Y-174535021D01*
X114607890Y-174486022D01*
X114714351Y-174414888D01*
X114804888Y-174324351D01*
X114876022Y-174217890D01*
X114925021Y-174099598D01*
X114950000Y-173974019D01*
X114950000Y-173845981D01*
X114925021Y-173720402D01*
X114876022Y-173602110D01*
X114804888Y-173495649D01*
X114714351Y-173405112D01*
X114607890Y-173333978D01*
X114489598Y-173284979D01*
X114364019Y-173260000D01*
X114235981Y-173260000D01*
X114110402Y-173284979D01*
X113992110Y-173333978D01*
X113885649Y-173405112D01*
X113795112Y-173495649D01*
X113723978Y-173602110D01*
X113674979Y-173720402D01*
X113650000Y-173845981D01*
X102450000Y-173845981D01*
X102425021Y-173720402D01*
X102376022Y-173602110D01*
X102304888Y-173495649D01*
X102214351Y-173405112D01*
X102107890Y-173333978D01*
X101989598Y-173284979D01*
X101864019Y-173260000D01*
X101735981Y-173260000D01*
X101610402Y-173284979D01*
X101492110Y-173333978D01*
X101385649Y-173405112D01*
X101295112Y-173495649D01*
X101223978Y-173602110D01*
X101174979Y-173720402D01*
X101150000Y-173845981D01*
X85242900Y-173845981D01*
X85242900Y-173571995D01*
X85262818Y-173414326D01*
X85321322Y-173266563D01*
X85414734Y-173137992D01*
X85428562Y-173123721D01*
X92525327Y-166026957D01*
X92656974Y-165845762D01*
X92758653Y-165646204D01*
X92827864Y-165433197D01*
X92862900Y-165211985D01*
X92862900Y-165211981D01*
X92866796Y-165187383D01*
X92868301Y-165187621D01*
X92894907Y-165059142D01*
X92964821Y-164916424D01*
X93068032Y-164795577D01*
X93198053Y-164704195D01*
X93346716Y-164648018D01*
X93494719Y-164630499D01*
X94600068Y-164630499D01*
X94744329Y-164620315D01*
X94983825Y-164566376D01*
X95211567Y-164474718D01*
X95421657Y-164347714D01*
X95608654Y-164188654D01*
X95608665Y-164188640D01*
X95626720Y-164170587D01*
X95629571Y-164173438D01*
X95711086Y-164098955D01*
X95851380Y-164024298D01*
X96005834Y-163986875D01*
X96076721Y-163982900D01*
X100441982Y-163982900D01*
X100441985Y-163982900D01*
X100663197Y-163947864D01*
X100876204Y-163878653D01*
X101075762Y-163776974D01*
X101256957Y-163645328D01*
X102156590Y-162745693D01*
X102282162Y-162648290D01*
X102428014Y-162585174D01*
X102584980Y-162560313D01*
X102604895Y-162560000D01*
X104759259Y-162560000D01*
X104916928Y-162579918D01*
G37*
%TD.AperFunction*%
%TD*%
%TA.AperFunction,Conductor*%
%TO.N,+7V*%
G36*
X103429300Y-102825584D02*
G01*
X103484716Y-102881000D01*
X103505000Y-102956700D01*
X103505000Y-104053424D01*
X103484716Y-104129124D01*
X103460656Y-104160480D01*
X103429351Y-104191784D01*
X103429350Y-104191785D01*
X103329226Y-104341631D01*
X103260259Y-104508130D01*
X103225100Y-104684890D01*
X103225100Y-104865109D01*
X103260259Y-105041869D01*
X103329226Y-105208368D01*
X103429350Y-105358214D01*
X103460656Y-105389520D01*
X103499841Y-105457391D01*
X103505000Y-105496576D01*
X103505000Y-107335220D01*
X103484716Y-107410920D01*
X103429300Y-107466336D01*
X103353600Y-107486620D01*
X103305978Y-107478935D01*
X103193324Y-107441606D01*
X103193323Y-107441605D01*
X103089511Y-107431000D01*
X102968000Y-107431000D01*
X102968000Y-110247000D01*
X103089511Y-110247000D01*
X103193322Y-110236394D01*
X103305977Y-110199064D01*
X103384215Y-110194507D01*
X103454250Y-110229679D01*
X103497315Y-110295156D01*
X103505000Y-110342779D01*
X103505000Y-111027514D01*
X103484716Y-111103214D01*
X103429300Y-111158630D01*
X103353600Y-111178914D01*
X103277900Y-111158630D01*
X103246544Y-111134570D01*
X103177340Y-111065366D01*
X103177336Y-111065363D01*
X103026524Y-110972341D01*
X103026518Y-110972339D01*
X102858324Y-110916606D01*
X102858323Y-110916605D01*
X102754511Y-110906000D01*
X102108000Y-110906000D01*
X102108000Y-113122000D01*
X102754511Y-113122000D01*
X102858323Y-113111394D01*
X102858324Y-113111393D01*
X103026518Y-113055660D01*
X103026524Y-113055658D01*
X103177336Y-112962636D01*
X103177340Y-112962633D01*
X103246544Y-112893430D01*
X103314415Y-112854245D01*
X103392785Y-112854245D01*
X103460656Y-112893430D01*
X103499841Y-112961301D01*
X103505000Y-113000486D01*
X103505000Y-113513600D01*
X103484716Y-113589300D01*
X103429300Y-113644716D01*
X103353600Y-113665000D01*
X78256400Y-113665000D01*
X78180700Y-113644716D01*
X78125284Y-113589300D01*
X78105000Y-113513600D01*
X78105000Y-112414510D01*
X100246000Y-112414510D01*
X100256605Y-112518323D01*
X100256606Y-112518324D01*
X100312339Y-112686518D01*
X100312341Y-112686524D01*
X100405363Y-112837336D01*
X100405366Y-112837340D01*
X100530659Y-112962633D01*
X100530663Y-112962636D01*
X100681475Y-113055658D01*
X100681481Y-113055660D01*
X100849675Y-113111393D01*
X100849676Y-113111394D01*
X100953489Y-113122000D01*
X101600000Y-113122000D01*
X101600000Y-112268000D01*
X100246000Y-112268000D01*
X100246000Y-112414510D01*
X78105000Y-112414510D01*
X78105000Y-111613489D01*
X100246000Y-111613489D01*
X100246000Y-111760000D01*
X101600000Y-111760000D01*
X101600000Y-110906000D01*
X100953489Y-110906000D01*
X100849676Y-110916605D01*
X100849675Y-110916606D01*
X100681481Y-110972339D01*
X100681475Y-110972341D01*
X100530663Y-111065363D01*
X100530659Y-111065366D01*
X100405366Y-111190659D01*
X100405363Y-111190663D01*
X100312341Y-111341475D01*
X100312339Y-111341481D01*
X100256606Y-111509675D01*
X100256605Y-111509676D01*
X100246000Y-111613489D01*
X78105000Y-111613489D01*
X78105000Y-110898597D01*
X79342000Y-110898597D01*
X79348504Y-110959092D01*
X79348504Y-110959093D01*
X79399553Y-111095960D01*
X79487096Y-111212903D01*
X79604039Y-111300446D01*
X79740906Y-111351495D01*
X79801402Y-111357999D01*
X79801408Y-111358000D01*
X82296000Y-111358000D01*
X82804000Y-111358000D01*
X85298592Y-111358000D01*
X85298597Y-111357999D01*
X85359092Y-111351495D01*
X85359093Y-111351495D01*
X85495960Y-111300446D01*
X85612903Y-111212903D01*
X85700446Y-111095960D01*
X85751495Y-110959093D01*
X85751495Y-110959092D01*
X85757999Y-110898597D01*
X85758000Y-110898592D01*
X85758000Y-109539510D01*
X101631000Y-109539510D01*
X101641605Y-109643323D01*
X101641606Y-109643324D01*
X101697339Y-109811518D01*
X101697341Y-109811524D01*
X101790363Y-109962336D01*
X101790366Y-109962340D01*
X101915659Y-110087633D01*
X101915663Y-110087636D01*
X102066475Y-110180658D01*
X102066481Y-110180660D01*
X102234675Y-110236393D01*
X102234676Y-110236394D01*
X102338489Y-110247000D01*
X102460000Y-110247000D01*
X102460000Y-109093000D01*
X101631000Y-109093000D01*
X101631000Y-109539510D01*
X85758000Y-109539510D01*
X85758000Y-108654000D01*
X82804000Y-108654000D01*
X82804000Y-111358000D01*
X82296000Y-111358000D01*
X82296000Y-108654000D01*
X79342000Y-108654000D01*
X79342000Y-110898597D01*
X78105000Y-110898597D01*
X78105000Y-109855000D01*
X75026322Y-109855000D01*
X74950622Y-109834716D01*
X74895206Y-109779300D01*
X74874922Y-109703600D01*
X74895206Y-109627900D01*
X74907561Y-109609697D01*
X74908636Y-109608336D01*
X75001658Y-109457524D01*
X75001660Y-109457518D01*
X75057393Y-109289324D01*
X75057394Y-109289323D01*
X75068000Y-109185510D01*
X75068000Y-109064000D01*
X72252000Y-109064000D01*
X72252000Y-109185510D01*
X72262605Y-109289323D01*
X72262606Y-109289324D01*
X72318339Y-109457518D01*
X72318341Y-109457524D01*
X72411363Y-109608336D01*
X72412439Y-109609697D01*
X72412989Y-109610972D01*
X72415994Y-109615844D01*
X72415280Y-109616284D01*
X72443479Y-109681658D01*
X72434381Y-109759498D01*
X72387581Y-109822361D01*
X72315620Y-109853401D01*
X72293678Y-109855000D01*
X71216322Y-109855000D01*
X71140622Y-109834716D01*
X71085206Y-109779300D01*
X71064922Y-109703600D01*
X71085206Y-109627900D01*
X71097561Y-109609697D01*
X71098636Y-109608336D01*
X71191658Y-109457524D01*
X71191660Y-109457518D01*
X71247393Y-109289324D01*
X71247394Y-109289323D01*
X71258000Y-109185510D01*
X71258000Y-109064000D01*
X68442000Y-109064000D01*
X68442000Y-109185510D01*
X68452605Y-109289323D01*
X68452606Y-109289324D01*
X68508339Y-109457518D01*
X68508341Y-109457524D01*
X68601363Y-109608336D01*
X68602439Y-109609697D01*
X68602989Y-109610972D01*
X68605994Y-109615844D01*
X68605280Y-109616284D01*
X68633479Y-109681658D01*
X68624381Y-109759498D01*
X68577581Y-109822361D01*
X68505620Y-109853401D01*
X68483678Y-109855000D01*
X67310000Y-109855000D01*
X67310000Y-108434489D01*
X68442000Y-108434489D01*
X68442000Y-108556000D01*
X69596000Y-108556000D01*
X70104000Y-108556000D01*
X71258000Y-108556000D01*
X71258000Y-108434489D01*
X72252000Y-108434489D01*
X72252000Y-108556000D01*
X73406000Y-108556000D01*
X73914000Y-108556000D01*
X75068000Y-108556000D01*
X75068000Y-108434489D01*
X75057394Y-108330676D01*
X75057393Y-108330675D01*
X75001660Y-108162481D01*
X75001658Y-108162475D01*
X74908636Y-108011663D01*
X74908633Y-108011659D01*
X74783340Y-107886366D01*
X74783336Y-107886363D01*
X74632524Y-107793341D01*
X74632518Y-107793339D01*
X74464324Y-107737606D01*
X74464323Y-107737605D01*
X74360511Y-107727000D01*
X73914000Y-107727000D01*
X73914000Y-108556000D01*
X73406000Y-108556000D01*
X73406000Y-107727000D01*
X72959489Y-107727000D01*
X72855676Y-107737605D01*
X72855675Y-107737606D01*
X72687481Y-107793339D01*
X72687475Y-107793341D01*
X72536663Y-107886363D01*
X72536659Y-107886366D01*
X72411366Y-108011659D01*
X72411363Y-108011663D01*
X72318341Y-108162475D01*
X72318339Y-108162481D01*
X72262606Y-108330675D01*
X72262605Y-108330676D01*
X72252000Y-108434489D01*
X71258000Y-108434489D01*
X71247394Y-108330676D01*
X71247393Y-108330675D01*
X71191660Y-108162481D01*
X71191658Y-108162475D01*
X71098636Y-108011663D01*
X71098633Y-108011659D01*
X70973340Y-107886366D01*
X70973336Y-107886363D01*
X70822524Y-107793341D01*
X70822518Y-107793339D01*
X70654324Y-107737606D01*
X70654323Y-107737605D01*
X70550511Y-107727000D01*
X70104000Y-107727000D01*
X70104000Y-108556000D01*
X69596000Y-108556000D01*
X69596000Y-107727000D01*
X69149489Y-107727000D01*
X69045676Y-107737605D01*
X69045675Y-107737606D01*
X68877481Y-107793339D01*
X68877475Y-107793341D01*
X68726663Y-107886363D01*
X68726659Y-107886366D01*
X68601366Y-108011659D01*
X68601363Y-108011663D01*
X68508341Y-108162475D01*
X68508339Y-108162481D01*
X68452606Y-108330675D01*
X68452605Y-108330676D01*
X68442000Y-108434489D01*
X67310000Y-108434489D01*
X67310000Y-106680000D01*
X65405000Y-106680000D01*
X65405000Y-105901402D01*
X79342000Y-105901402D01*
X79342000Y-108146000D01*
X82296000Y-108146000D01*
X82804000Y-108146000D01*
X85758000Y-108146000D01*
X85758000Y-107859890D01*
X93065100Y-107859890D01*
X93065100Y-108040109D01*
X93100259Y-108216869D01*
X93147400Y-108330675D01*
X93169226Y-108383368D01*
X93269351Y-108533215D01*
X93396785Y-108660649D01*
X93546632Y-108760774D01*
X93664363Y-108809540D01*
X93713130Y-108829740D01*
X93713132Y-108829740D01*
X93713133Y-108829741D01*
X93889890Y-108864900D01*
X94070110Y-108864900D01*
X94246867Y-108829741D01*
X94413368Y-108760774D01*
X94563215Y-108660649D01*
X94690649Y-108533215D01*
X94790774Y-108383368D01*
X94859741Y-108216867D01*
X94875331Y-108138489D01*
X101631000Y-108138489D01*
X101631000Y-108585000D01*
X102460000Y-108585000D01*
X102460000Y-107431000D01*
X102338489Y-107431000D01*
X102234676Y-107441605D01*
X102234675Y-107441606D01*
X102066481Y-107497339D01*
X102066475Y-107497341D01*
X101915663Y-107590363D01*
X101915659Y-107590366D01*
X101790366Y-107715659D01*
X101790363Y-107715663D01*
X101697341Y-107866475D01*
X101697339Y-107866481D01*
X101641606Y-108034675D01*
X101641605Y-108034676D01*
X101631000Y-108138489D01*
X94875331Y-108138489D01*
X94894900Y-108040110D01*
X94894900Y-107859890D01*
X94859741Y-107683133D01*
X94790774Y-107516632D01*
X94690649Y-107366785D01*
X94563215Y-107239351D01*
X94413368Y-107139226D01*
X94246869Y-107070259D01*
X94246870Y-107070259D01*
X94070110Y-107035100D01*
X93889890Y-107035100D01*
X93713130Y-107070259D01*
X93546631Y-107139226D01*
X93396785Y-107239350D01*
X93269350Y-107366785D01*
X93169226Y-107516631D01*
X93100259Y-107683130D01*
X93065100Y-107859890D01*
X85758000Y-107859890D01*
X85758000Y-105901408D01*
X85757999Y-105901402D01*
X85751495Y-105840907D01*
X85751495Y-105840906D01*
X85700446Y-105704039D01*
X85612903Y-105587096D01*
X85495960Y-105499553D01*
X85359093Y-105448504D01*
X85298597Y-105442000D01*
X82804000Y-105442000D01*
X82804000Y-108146000D01*
X82296000Y-108146000D01*
X82296000Y-105442000D01*
X79801402Y-105442000D01*
X79740907Y-105448504D01*
X79740906Y-105448504D01*
X79604039Y-105499553D01*
X79487096Y-105587096D01*
X79399553Y-105704039D01*
X79348504Y-105840906D01*
X79348504Y-105840907D01*
X79342000Y-105901402D01*
X65405000Y-105901402D01*
X65405000Y-104049890D01*
X84175100Y-104049890D01*
X84175100Y-104230109D01*
X84210259Y-104406869D01*
X84279226Y-104573368D01*
X84379351Y-104723215D01*
X84506785Y-104850649D01*
X84656632Y-104950774D01*
X84774363Y-104999540D01*
X84823130Y-105019740D01*
X84823132Y-105019740D01*
X84823133Y-105019741D01*
X84999890Y-105054900D01*
X85180110Y-105054900D01*
X85356867Y-105019741D01*
X85523368Y-104950774D01*
X85673215Y-104850649D01*
X85800649Y-104723215D01*
X85900774Y-104573368D01*
X85969741Y-104406867D01*
X86004900Y-104230110D01*
X86004900Y-104049890D01*
X85969741Y-103873133D01*
X85966928Y-103866343D01*
X85949540Y-103824363D01*
X85900774Y-103706632D01*
X85800649Y-103556785D01*
X85673215Y-103429351D01*
X85523368Y-103329226D01*
X85356869Y-103260259D01*
X85356870Y-103260259D01*
X85180110Y-103225100D01*
X84999890Y-103225100D01*
X84823130Y-103260259D01*
X84656631Y-103329226D01*
X84506785Y-103429350D01*
X84379350Y-103556785D01*
X84279226Y-103706631D01*
X84210259Y-103873130D01*
X84175100Y-104049890D01*
X65405000Y-104049890D01*
X65405000Y-102956700D01*
X65425284Y-102881000D01*
X65480700Y-102825584D01*
X65556400Y-102805300D01*
X103353600Y-102805300D01*
X103429300Y-102825584D01*
G37*
%TD.AperFunction*%
%TD*%
%TA.AperFunction,Conductor*%
%TO.N,+7V*%
G36*
X67310000Y-109855000D02*
G01*
X64197712Y-109855000D01*
X64178459Y-109849841D01*
X64158527Y-109849841D01*
X64141265Y-109839874D01*
X64122012Y-109834716D01*
X64090656Y-109810656D01*
X63903256Y-109623256D01*
X63864071Y-109555385D01*
X63864071Y-109477015D01*
X63903256Y-109409144D01*
X63971127Y-109369959D01*
X63978398Y-109369001D01*
X63982600Y-109364800D01*
X64287400Y-109364800D01*
X64401482Y-109364800D01*
X64486615Y-109354576D01*
X64622102Y-109301147D01*
X64738146Y-109213146D01*
X64826147Y-109097102D01*
X64879576Y-108961615D01*
X64889800Y-108876481D01*
X64889800Y-108737400D01*
X64287400Y-108737400D01*
X64287400Y-109364800D01*
X63982600Y-109364800D01*
X63982600Y-108432600D01*
X64287400Y-108432600D01*
X64889800Y-108432600D01*
X64889800Y-108293518D01*
X64879576Y-108208384D01*
X64826147Y-108072897D01*
X64738146Y-107956853D01*
X64622102Y-107868852D01*
X64486615Y-107815423D01*
X64401482Y-107805200D01*
X64287400Y-107805200D01*
X64287400Y-108432600D01*
X63982600Y-108432600D01*
X63982600Y-107805200D01*
X63972456Y-107795056D01*
X63934612Y-107784916D01*
X63879196Y-107729500D01*
X63858912Y-107653800D01*
X63879196Y-107578100D01*
X63903256Y-107546744D01*
X64090656Y-107359344D01*
X64158527Y-107320159D01*
X64197712Y-107315000D01*
X64769999Y-107315000D01*
X64770000Y-107315000D01*
X65405000Y-106680000D01*
X67310000Y-106680000D01*
X67310000Y-109855000D01*
G37*
%TD.AperFunction*%
%TD*%
%TA.AperFunction,Conductor*%
%TO.N,GND*%
G36*
X112395000Y-118110000D02*
G01*
X104291400Y-118110000D01*
X104215700Y-118089716D01*
X104160284Y-118034300D01*
X104140000Y-117958600D01*
X104140000Y-110641400D01*
X104160284Y-110565700D01*
X104215700Y-110510284D01*
X104291400Y-110490000D01*
X104775000Y-110490000D01*
X112395000Y-110490000D01*
X112395000Y-118110000D01*
G37*
%TD.AperFunction*%
%TD*%
%TA.AperFunction,Conductor*%
%TO.N,GND*%
G36*
X119380000Y-122860806D02*
G01*
X119374223Y-122866584D01*
X119306352Y-122905769D01*
X119267167Y-122910928D01*
X104926400Y-122910928D01*
X104850700Y-122890644D01*
X104795284Y-122835228D01*
X104775000Y-122759528D01*
X104775000Y-121097982D01*
X104795284Y-121022282D01*
X104850700Y-120966866D01*
X104926400Y-120946582D01*
X105002100Y-120966866D01*
X105005883Y-120969124D01*
X105016478Y-120975659D01*
X105016481Y-120975660D01*
X105184675Y-121031393D01*
X105184676Y-121031394D01*
X105288489Y-121042000D01*
X105410000Y-121042000D01*
X105918000Y-121042000D01*
X106039511Y-121042000D01*
X106143323Y-121031394D01*
X106143324Y-121031393D01*
X106311518Y-120975660D01*
X106311524Y-120975658D01*
X106462336Y-120882636D01*
X106462340Y-120882633D01*
X106587633Y-120757340D01*
X106587636Y-120757336D01*
X106680658Y-120606524D01*
X106680660Y-120606518D01*
X106736393Y-120438324D01*
X106736394Y-120438323D01*
X106747000Y-120334510D01*
X106747000Y-119888000D01*
X105918000Y-119888000D01*
X105918000Y-121042000D01*
X105410000Y-121042000D01*
X105410000Y-119380000D01*
X105918000Y-119380000D01*
X106747000Y-119380000D01*
X106747000Y-118933489D01*
X106736394Y-118829676D01*
X106736393Y-118829675D01*
X106680660Y-118661481D01*
X106680658Y-118661475D01*
X106587636Y-118510663D01*
X106587633Y-118510659D01*
X106462340Y-118385366D01*
X106462336Y-118385363D01*
X106311524Y-118292341D01*
X106311518Y-118292339D01*
X106143324Y-118236606D01*
X106143323Y-118236605D01*
X106039511Y-118226000D01*
X105918000Y-118226000D01*
X105918000Y-119380000D01*
X105410000Y-119380000D01*
X105410000Y-118226000D01*
X105288489Y-118226000D01*
X105184676Y-118236605D01*
X105184675Y-118236606D01*
X105016481Y-118292339D01*
X105016475Y-118292341D01*
X105005878Y-118298878D01*
X104930800Y-118321353D01*
X104854542Y-118303278D01*
X104797539Y-118249495D01*
X104775064Y-118174417D01*
X104775000Y-118170017D01*
X104775000Y-118110000D01*
X112395000Y-118110000D01*
X112395000Y-110490000D01*
X104775000Y-110490000D01*
X104775000Y-110302982D01*
X104795284Y-110227282D01*
X104850700Y-110171866D01*
X104926400Y-110151582D01*
X105002100Y-110171866D01*
X105005883Y-110174124D01*
X105016478Y-110180659D01*
X105016481Y-110180660D01*
X105184675Y-110236393D01*
X105184676Y-110236394D01*
X105288489Y-110247000D01*
X105410000Y-110247000D01*
X105918000Y-110247000D01*
X106039511Y-110247000D01*
X106143323Y-110236394D01*
X106143324Y-110236393D01*
X106311518Y-110180660D01*
X106311524Y-110180658D01*
X106462336Y-110087636D01*
X106462340Y-110087633D01*
X106587633Y-109962340D01*
X106587636Y-109962336D01*
X106680658Y-109811524D01*
X106680660Y-109811518D01*
X106736393Y-109643324D01*
X106736394Y-109643323D01*
X106747000Y-109539510D01*
X106747000Y-109093000D01*
X105918000Y-109093000D01*
X105918000Y-110247000D01*
X105410000Y-110247000D01*
X105410000Y-108585000D01*
X105918000Y-108585000D01*
X106747000Y-108585000D01*
X106747000Y-108138489D01*
X106736394Y-108034676D01*
X106736393Y-108034675D01*
X106680660Y-107866481D01*
X106680658Y-107866475D01*
X106587636Y-107715663D01*
X106587633Y-107715659D01*
X106462340Y-107590366D01*
X106462336Y-107590363D01*
X106311524Y-107497341D01*
X106311518Y-107497339D01*
X106143324Y-107441606D01*
X106143323Y-107441605D01*
X106039511Y-107431000D01*
X105918000Y-107431000D01*
X105918000Y-108585000D01*
X105410000Y-108585000D01*
X105410000Y-107431000D01*
X105288489Y-107431000D01*
X105184676Y-107441605D01*
X105184675Y-107441606D01*
X105016481Y-107497339D01*
X105016475Y-107497341D01*
X105005878Y-107503878D01*
X104930800Y-107526353D01*
X104854542Y-107508278D01*
X104797539Y-107454495D01*
X104775064Y-107379417D01*
X104775000Y-107375017D01*
X104775000Y-102956700D01*
X104795284Y-102881000D01*
X104850700Y-102825584D01*
X104926400Y-102805300D01*
X119380000Y-102805300D01*
X119380000Y-122860806D01*
G37*
%TD.AperFunction*%
%TD*%
%TA.AperFunction,Conductor*%
%TO.N,GND*%
G36*
X64743319Y-115589258D02*
G01*
X64825398Y-115644102D01*
X64880242Y-115726181D01*
X64899500Y-115823000D01*
X64899500Y-115829748D01*
X64911133Y-115888231D01*
X64955448Y-115954552D01*
X65021769Y-115998867D01*
X65080252Y-116010500D01*
X65080255Y-116010500D01*
X65729745Y-116010500D01*
X65729748Y-116010500D01*
X65788231Y-115998867D01*
X65854552Y-115954552D01*
X65854554Y-115954548D01*
X65861102Y-115948002D01*
X65943181Y-115893158D01*
X66040000Y-115873900D01*
X66136819Y-115893158D01*
X66218898Y-115948002D01*
X66225446Y-115954550D01*
X66225447Y-115954550D01*
X66225448Y-115954552D01*
X66291769Y-115998867D01*
X66350252Y-116010500D01*
X66350255Y-116010500D01*
X66999745Y-116010500D01*
X66999748Y-116010500D01*
X67058231Y-115998867D01*
X67124552Y-115954552D01*
X67124554Y-115954548D01*
X67131102Y-115948002D01*
X67213181Y-115893158D01*
X67310000Y-115873900D01*
X67406819Y-115893158D01*
X67488898Y-115948002D01*
X67495446Y-115954550D01*
X67495447Y-115954550D01*
X67495448Y-115954552D01*
X67561769Y-115998867D01*
X67620252Y-116010500D01*
X67620255Y-116010500D01*
X68269745Y-116010500D01*
X68269748Y-116010500D01*
X68328231Y-115998867D01*
X68394552Y-115954552D01*
X68394554Y-115954548D01*
X68401102Y-115948002D01*
X68483181Y-115893158D01*
X68580000Y-115873900D01*
X68676819Y-115893158D01*
X68758898Y-115948002D01*
X68765446Y-115954550D01*
X68765447Y-115954550D01*
X68765448Y-115954552D01*
X68831769Y-115998867D01*
X68890252Y-116010500D01*
X68890255Y-116010500D01*
X69539745Y-116010500D01*
X69539748Y-116010500D01*
X69598231Y-115998867D01*
X69664552Y-115954552D01*
X69708867Y-115888231D01*
X69720500Y-115829748D01*
X69720500Y-115645700D01*
X69735557Y-115570000D01*
X70485000Y-115570000D01*
X70485000Y-119380000D01*
X69707685Y-119380000D01*
X69664552Y-119315448D01*
X69598231Y-119271133D01*
X69539748Y-119259500D01*
X68890252Y-119259500D01*
X68831769Y-119271133D01*
X68831767Y-119271134D01*
X68765446Y-119315449D01*
X68758898Y-119321998D01*
X68676819Y-119376842D01*
X68660942Y-119380000D01*
X68499058Y-119380000D01*
X68483181Y-119376842D01*
X68401102Y-119321998D01*
X68394553Y-119315449D01*
X68328232Y-119271134D01*
X68328233Y-119271134D01*
X68328231Y-119271133D01*
X68269748Y-119259500D01*
X67620252Y-119259500D01*
X67561769Y-119271133D01*
X67561767Y-119271134D01*
X67495448Y-119315448D01*
X67452315Y-119380000D01*
X65897685Y-119380000D01*
X65854552Y-119315448D01*
X65788231Y-119271133D01*
X65729748Y-119259500D01*
X65080252Y-119259500D01*
X65021769Y-119271133D01*
X65021767Y-119271134D01*
X64955448Y-119315448D01*
X64912315Y-119380000D01*
X64135000Y-119380000D01*
X64135000Y-115570000D01*
X64646500Y-115570000D01*
X64743319Y-115589258D01*
G37*
%TD.AperFunction*%
%TD*%
%TA.AperFunction,Conductor*%
%TO.N,/PH*%
G36*
X86919300Y-116860284D02*
G01*
X86974716Y-116915700D01*
X86995000Y-116991400D01*
X86995000Y-123673600D01*
X86974716Y-123749300D01*
X86919300Y-123804716D01*
X86843600Y-123825000D01*
X78256400Y-123825000D01*
X78180700Y-123804716D01*
X78125284Y-123749300D01*
X78105000Y-123673600D01*
X78105000Y-122698597D01*
X79342000Y-122698597D01*
X79348504Y-122759092D01*
X79348504Y-122759093D01*
X79399553Y-122895960D01*
X79487096Y-123012903D01*
X79604039Y-123100446D01*
X79740906Y-123151495D01*
X79801402Y-123157999D01*
X79801408Y-123158000D01*
X82296000Y-123158000D01*
X82804000Y-123158000D01*
X85298592Y-123158000D01*
X85298597Y-123157999D01*
X85359092Y-123151495D01*
X85359093Y-123151495D01*
X85495960Y-123100446D01*
X85612903Y-123012903D01*
X85700446Y-122895960D01*
X85751495Y-122759093D01*
X85751495Y-122759092D01*
X85757999Y-122698597D01*
X85758000Y-122698592D01*
X85758000Y-120454000D01*
X82804000Y-120454000D01*
X82804000Y-123158000D01*
X82296000Y-123158000D01*
X82296000Y-120454000D01*
X79342000Y-120454000D01*
X79342000Y-122698597D01*
X78105000Y-122698597D01*
X78105000Y-117701402D01*
X79342000Y-117701402D01*
X79342000Y-119946000D01*
X82296000Y-119946000D01*
X82804000Y-119946000D01*
X85758000Y-119946000D01*
X85758000Y-117701408D01*
X85757999Y-117701402D01*
X85751495Y-117640907D01*
X85751495Y-117640906D01*
X85700446Y-117504039D01*
X85612903Y-117387096D01*
X85495960Y-117299553D01*
X85359093Y-117248504D01*
X85298597Y-117242000D01*
X82804000Y-117242000D01*
X82804000Y-119946000D01*
X82296000Y-119946000D01*
X82296000Y-117242000D01*
X79801402Y-117242000D01*
X79740907Y-117248504D01*
X79740906Y-117248504D01*
X79604039Y-117299553D01*
X79487096Y-117387096D01*
X79399553Y-117504039D01*
X79348504Y-117640906D01*
X79348504Y-117640907D01*
X79342000Y-117701402D01*
X78105000Y-117701402D01*
X78105000Y-116991400D01*
X78125284Y-116915700D01*
X78180700Y-116860284D01*
X78256400Y-116840000D01*
X86843600Y-116840000D01*
X86919300Y-116860284D01*
G37*
%TD.AperFunction*%
%TD*%
%TA.AperFunction,Conductor*%
%TO.N,+7V*%
G36*
X134544300Y-186715784D02*
G01*
X134599716Y-186771200D01*
X134620000Y-186846900D01*
X134620000Y-187608514D01*
X134599716Y-187684214D01*
X134544300Y-187739630D01*
X134468600Y-187759914D01*
X134392900Y-187739630D01*
X134361544Y-187715570D01*
X134246340Y-187600366D01*
X134246336Y-187600363D01*
X134095524Y-187507341D01*
X134095518Y-187507339D01*
X133927324Y-187451606D01*
X133927323Y-187451605D01*
X133823511Y-187441000D01*
X133702000Y-187441000D01*
X133702000Y-190257000D01*
X133823511Y-190257000D01*
X133927323Y-190246394D01*
X133927324Y-190246393D01*
X134095518Y-190190660D01*
X134095524Y-190190658D01*
X134246336Y-190097636D01*
X134246340Y-190097633D01*
X134361544Y-189982430D01*
X134429415Y-189943245D01*
X134507785Y-189943245D01*
X134575656Y-189982430D01*
X134614841Y-190050301D01*
X134620000Y-190089486D01*
X134620000Y-193645100D01*
X134599716Y-193720800D01*
X134544300Y-193776216D01*
X134468600Y-193796500D01*
X129691400Y-193796500D01*
X129615700Y-193776216D01*
X129560284Y-193720800D01*
X129540000Y-193645100D01*
X129540000Y-192424510D01*
X130980000Y-192424510D01*
X130990605Y-192528323D01*
X130990606Y-192528324D01*
X131046339Y-192696518D01*
X131046341Y-192696524D01*
X131139363Y-192847336D01*
X131139366Y-192847340D01*
X131264659Y-192972633D01*
X131264663Y-192972636D01*
X131415475Y-193065658D01*
X131415481Y-193065660D01*
X131583675Y-193121393D01*
X131583676Y-193121394D01*
X131687489Y-193132000D01*
X132334000Y-193132000D01*
X132842000Y-193132000D01*
X133488511Y-193132000D01*
X133592323Y-193121394D01*
X133592324Y-193121393D01*
X133760518Y-193065660D01*
X133760524Y-193065658D01*
X133911336Y-192972636D01*
X133911340Y-192972633D01*
X134036633Y-192847340D01*
X134036636Y-192847336D01*
X134129658Y-192696524D01*
X134129660Y-192696518D01*
X134185393Y-192528324D01*
X134185394Y-192528323D01*
X134196000Y-192424510D01*
X134196000Y-192278000D01*
X132842000Y-192278000D01*
X132842000Y-193132000D01*
X132334000Y-193132000D01*
X132334000Y-192278000D01*
X130980000Y-192278000D01*
X130980000Y-192424510D01*
X129540000Y-192424510D01*
X129540000Y-191623489D01*
X130980000Y-191623489D01*
X130980000Y-191770000D01*
X132334000Y-191770000D01*
X132842000Y-191770000D01*
X134196000Y-191770000D01*
X134196000Y-191623489D01*
X134185394Y-191519676D01*
X134185393Y-191519675D01*
X134129660Y-191351481D01*
X134129658Y-191351475D01*
X134036636Y-191200663D01*
X134036633Y-191200659D01*
X133911340Y-191075366D01*
X133911336Y-191075363D01*
X133760524Y-190982341D01*
X133760518Y-190982339D01*
X133592324Y-190926606D01*
X133592323Y-190926605D01*
X133488511Y-190916000D01*
X132842000Y-190916000D01*
X132842000Y-191770000D01*
X132334000Y-191770000D01*
X132334000Y-190916000D01*
X131687489Y-190916000D01*
X131583676Y-190926605D01*
X131583675Y-190926606D01*
X131415481Y-190982339D01*
X131415475Y-190982341D01*
X131264663Y-191075363D01*
X131264659Y-191075366D01*
X131139366Y-191200659D01*
X131139363Y-191200663D01*
X131046341Y-191351475D01*
X131046339Y-191351481D01*
X130990606Y-191519675D01*
X130990605Y-191519676D01*
X130980000Y-191623489D01*
X129540000Y-191623489D01*
X129540000Y-189951576D01*
X129560284Y-189875876D01*
X129584344Y-189844520D01*
X129615649Y-189813215D01*
X129715774Y-189663368D01*
X129762936Y-189549510D01*
X132365000Y-189549510D01*
X132375605Y-189653323D01*
X132375606Y-189653324D01*
X132431339Y-189821518D01*
X132431341Y-189821524D01*
X132524363Y-189972336D01*
X132524366Y-189972340D01*
X132649659Y-190097633D01*
X132649663Y-190097636D01*
X132800475Y-190190658D01*
X132800481Y-190190660D01*
X132968675Y-190246393D01*
X132968676Y-190246394D01*
X133072489Y-190257000D01*
X133194000Y-190257000D01*
X133194000Y-189103000D01*
X132365000Y-189103000D01*
X132365000Y-189549510D01*
X129762936Y-189549510D01*
X129784741Y-189496867D01*
X129819900Y-189320110D01*
X129819900Y-189139890D01*
X129784741Y-188963133D01*
X129715774Y-188796632D01*
X129693016Y-188762572D01*
X129667824Y-188688360D01*
X129667500Y-188678458D01*
X129667500Y-188148489D01*
X132365000Y-188148489D01*
X132365000Y-188595000D01*
X133194000Y-188595000D01*
X133194000Y-187441000D01*
X133072489Y-187441000D01*
X132968676Y-187451605D01*
X132968675Y-187451606D01*
X132800481Y-187507339D01*
X132800475Y-187507341D01*
X132649663Y-187600363D01*
X132649659Y-187600366D01*
X132524366Y-187725659D01*
X132524363Y-187725663D01*
X132431341Y-187876475D01*
X132431339Y-187876481D01*
X132375606Y-188044675D01*
X132375605Y-188044676D01*
X132365000Y-188148489D01*
X129667500Y-188148489D01*
X129667500Y-187895212D01*
X129687784Y-187819512D01*
X129711844Y-187788156D01*
X130760156Y-186739844D01*
X130828027Y-186700659D01*
X130867212Y-186695500D01*
X134468600Y-186695500D01*
X134544300Y-186715784D01*
G37*
%TD.AperFunction*%
%TD*%
%TA.AperFunction,Conductor*%
%TO.N,GND*%
G36*
X143510000Y-198120000D02*
G01*
X135406400Y-198120000D01*
X135330700Y-198099716D01*
X135275284Y-198044300D01*
X135255000Y-197968600D01*
X135255000Y-190651400D01*
X135275284Y-190575700D01*
X135330700Y-190520284D01*
X135406400Y-190500000D01*
X135890000Y-190500000D01*
X143510000Y-190500000D01*
X143510000Y-198120000D01*
G37*
%TD.AperFunction*%
%TD*%
%TA.AperFunction,Conductor*%
%TO.N,+5VA*%
G36*
X134544300Y-194330284D02*
G01*
X134599716Y-194385700D01*
X134620000Y-194461400D01*
X134620000Y-198403514D01*
X134599716Y-198479214D01*
X134544300Y-198534630D01*
X134468600Y-198554914D01*
X134392900Y-198534630D01*
X134361544Y-198510570D01*
X134246340Y-198395366D01*
X134246336Y-198395363D01*
X134095524Y-198302341D01*
X134095518Y-198302339D01*
X133927324Y-198246606D01*
X133927323Y-198246605D01*
X133823511Y-198236000D01*
X133702000Y-198236000D01*
X133702000Y-201052000D01*
X133823511Y-201052000D01*
X133927323Y-201041394D01*
X133927324Y-201041393D01*
X134095518Y-200985660D01*
X134095524Y-200985658D01*
X134246336Y-200892636D01*
X134246340Y-200892633D01*
X134361544Y-200777430D01*
X134429415Y-200738245D01*
X134507785Y-200738245D01*
X134575656Y-200777430D01*
X134614841Y-200845301D01*
X134620000Y-200884486D01*
X134620000Y-207043300D01*
X134599716Y-207119000D01*
X134544300Y-207174416D01*
X134468600Y-207194700D01*
X120801400Y-207194700D01*
X120725700Y-207174416D01*
X120670284Y-207119000D01*
X120650000Y-207043300D01*
X120650000Y-200344510D01*
X132365000Y-200344510D01*
X132375605Y-200448323D01*
X132375606Y-200448324D01*
X132431339Y-200616518D01*
X132431341Y-200616524D01*
X132524363Y-200767336D01*
X132524366Y-200767340D01*
X132649659Y-200892633D01*
X132649663Y-200892636D01*
X132800475Y-200985658D01*
X132800481Y-200985660D01*
X132968675Y-201041393D01*
X132968676Y-201041394D01*
X133072489Y-201052000D01*
X133194000Y-201052000D01*
X133194000Y-199898000D01*
X132365000Y-199898000D01*
X132365000Y-200344510D01*
X120650000Y-200344510D01*
X120650000Y-197221402D01*
X123102000Y-197221402D01*
X123102000Y-197866000D01*
X124029297Y-197866000D01*
X123994075Y-197927007D01*
X123960000Y-198054174D01*
X123960000Y-198185826D01*
X123994075Y-198312993D01*
X124029297Y-198374000D01*
X123102000Y-198374000D01*
X123102000Y-199018597D01*
X123108504Y-199079092D01*
X123108504Y-199079093D01*
X123159553Y-199215960D01*
X123247096Y-199332903D01*
X123364039Y-199420446D01*
X123500906Y-199471495D01*
X123561402Y-199477999D01*
X123561408Y-199478000D01*
X124206000Y-199478000D01*
X124206000Y-198550702D01*
X124267007Y-198585925D01*
X124394174Y-198620000D01*
X124525826Y-198620000D01*
X124652993Y-198585925D01*
X124714000Y-198550702D01*
X124714000Y-199478000D01*
X125358592Y-199478000D01*
X125358597Y-199477999D01*
X125419092Y-199471495D01*
X125419093Y-199471495D01*
X125555960Y-199420446D01*
X125672903Y-199332903D01*
X125760446Y-199215960D01*
X125811495Y-199079093D01*
X125811495Y-199079092D01*
X125817999Y-199018597D01*
X125818000Y-199018592D01*
X125818000Y-198943489D01*
X132365000Y-198943489D01*
X132365000Y-199390000D01*
X133194000Y-199390000D01*
X133194000Y-198236000D01*
X133072489Y-198236000D01*
X132968676Y-198246605D01*
X132968675Y-198246606D01*
X132800481Y-198302339D01*
X132800475Y-198302341D01*
X132649663Y-198395363D01*
X132649659Y-198395366D01*
X132524366Y-198520659D01*
X132524363Y-198520663D01*
X132431341Y-198671475D01*
X132431339Y-198671481D01*
X132375606Y-198839675D01*
X132375605Y-198839676D01*
X132365000Y-198943489D01*
X125818000Y-198943489D01*
X125818000Y-198374000D01*
X124890703Y-198374000D01*
X124925925Y-198312993D01*
X124960000Y-198185826D01*
X124960000Y-198054174D01*
X124925925Y-197927007D01*
X124890703Y-197866000D01*
X125818000Y-197866000D01*
X125818000Y-197221408D01*
X125817999Y-197221402D01*
X125811495Y-197160907D01*
X125811495Y-197160906D01*
X125760446Y-197024039D01*
X125730855Y-196984510D01*
X130980000Y-196984510D01*
X130990605Y-197088323D01*
X130990606Y-197088324D01*
X131046339Y-197256518D01*
X131046341Y-197256524D01*
X131139363Y-197407336D01*
X131139366Y-197407340D01*
X131264659Y-197532633D01*
X131264663Y-197532636D01*
X131415475Y-197625658D01*
X131415481Y-197625660D01*
X131583675Y-197681393D01*
X131583676Y-197681394D01*
X131687489Y-197692000D01*
X132334000Y-197692000D01*
X132842000Y-197692000D01*
X133488511Y-197692000D01*
X133592323Y-197681394D01*
X133592324Y-197681393D01*
X133760518Y-197625660D01*
X133760524Y-197625658D01*
X133911336Y-197532636D01*
X133911340Y-197532633D01*
X134036633Y-197407340D01*
X134036636Y-197407336D01*
X134129658Y-197256524D01*
X134129660Y-197256518D01*
X134185393Y-197088324D01*
X134185394Y-197088323D01*
X134196000Y-196984510D01*
X134196000Y-196838000D01*
X132842000Y-196838000D01*
X132842000Y-197692000D01*
X132334000Y-197692000D01*
X132334000Y-196838000D01*
X130980000Y-196838000D01*
X130980000Y-196984510D01*
X125730855Y-196984510D01*
X125672903Y-196907095D01*
X125672900Y-196907092D01*
X125658747Y-196896497D01*
X125658736Y-196896490D01*
X125555960Y-196819553D01*
X125419093Y-196768504D01*
X125358597Y-196762000D01*
X124714000Y-196762000D01*
X124714000Y-197689297D01*
X124652993Y-197654075D01*
X124525826Y-197620000D01*
X124394174Y-197620000D01*
X124267007Y-197654075D01*
X124206000Y-197689297D01*
X124206000Y-196762000D01*
X123561402Y-196762000D01*
X123500907Y-196768504D01*
X123500906Y-196768504D01*
X123364039Y-196819553D01*
X123247096Y-196907096D01*
X123159553Y-197024039D01*
X123108504Y-197160906D01*
X123108504Y-197160907D01*
X123102000Y-197221402D01*
X120650000Y-197221402D01*
X120650000Y-196183489D01*
X130980000Y-196183489D01*
X130980000Y-196330000D01*
X132334000Y-196330000D01*
X132842000Y-196330000D01*
X134196000Y-196330000D01*
X134196000Y-196183489D01*
X134185394Y-196079676D01*
X134185393Y-196079675D01*
X134129660Y-195911481D01*
X134129658Y-195911475D01*
X134036636Y-195760663D01*
X134036633Y-195760659D01*
X133911340Y-195635366D01*
X133911336Y-195635363D01*
X133760524Y-195542341D01*
X133760518Y-195542339D01*
X133592324Y-195486606D01*
X133592323Y-195486605D01*
X133488511Y-195476000D01*
X132842000Y-195476000D01*
X132842000Y-196330000D01*
X132334000Y-196330000D01*
X132334000Y-195476000D01*
X131687489Y-195476000D01*
X131583676Y-195486605D01*
X131583675Y-195486606D01*
X131415481Y-195542339D01*
X131415475Y-195542341D01*
X131264663Y-195635363D01*
X131264659Y-195635366D01*
X131139366Y-195760659D01*
X131139363Y-195760663D01*
X131046341Y-195911475D01*
X131046339Y-195911481D01*
X130990606Y-196079675D01*
X130990605Y-196079676D01*
X130980000Y-196183489D01*
X120650000Y-196183489D01*
X120650000Y-194461400D01*
X120670284Y-194385700D01*
X120725700Y-194330284D01*
X120801400Y-194310000D01*
X134468600Y-194310000D01*
X134544300Y-194330284D01*
G37*
%TD.AperFunction*%
%TD*%
%TA.AperFunction,Conductor*%
%TO.N,GND*%
G36*
X53985938Y-115590284D02*
G01*
X54041354Y-115645700D01*
X54061638Y-115721400D01*
X54053953Y-115769023D01*
X54047605Y-115788177D01*
X54037000Y-115891989D01*
X54037000Y-115951000D01*
X56453000Y-115951000D01*
X56453000Y-115891989D01*
X56442394Y-115788177D01*
X56436047Y-115769023D01*
X56431490Y-115690785D01*
X56466662Y-115620751D01*
X56532139Y-115577685D01*
X56579762Y-115570000D01*
X57720238Y-115570000D01*
X57795938Y-115590284D01*
X57851354Y-115645700D01*
X57871638Y-115721400D01*
X57863953Y-115769023D01*
X57857605Y-115788177D01*
X57847000Y-115891989D01*
X57847000Y-115951000D01*
X60263000Y-115951000D01*
X60263000Y-115891989D01*
X60252394Y-115788177D01*
X60246047Y-115769023D01*
X60241490Y-115690785D01*
X60276662Y-115620751D01*
X60342139Y-115577685D01*
X60389762Y-115570000D01*
X61769000Y-115570000D01*
X61844700Y-115590284D01*
X61900116Y-115645700D01*
X61920400Y-115721400D01*
X61912716Y-115769022D01*
X61892255Y-115830769D01*
X61882000Y-115931152D01*
X61882000Y-115951000D01*
X63848000Y-115951000D01*
X63848000Y-115931152D01*
X63837744Y-115830769D01*
X63817284Y-115769022D01*
X63812728Y-115690784D01*
X63847901Y-115620749D01*
X63913378Y-115577684D01*
X63961000Y-115570000D01*
X64135000Y-115570000D01*
X64135000Y-119380000D01*
X64912313Y-119380000D01*
X64911133Y-119381766D01*
X64911132Y-119381768D01*
X64899500Y-119440251D01*
X64899500Y-121389748D01*
X64911132Y-121448231D01*
X64911133Y-121448233D01*
X64955446Y-121514550D01*
X64955449Y-121514553D01*
X65021766Y-121558866D01*
X65021768Y-121558867D01*
X65080251Y-121570500D01*
X65080252Y-121570500D01*
X65729747Y-121570500D01*
X65729748Y-121570500D01*
X65771766Y-121562142D01*
X65849967Y-121567268D01*
X65915130Y-121610808D01*
X65922504Y-121619902D01*
X66007096Y-121732903D01*
X66124039Y-121820446D01*
X66260906Y-121871495D01*
X66321402Y-121877999D01*
X66321408Y-121878000D01*
X66523600Y-121878000D01*
X66599300Y-121898284D01*
X66654716Y-121953700D01*
X66675000Y-122029400D01*
X66675000Y-122458677D01*
X66654716Y-122534377D01*
X66599300Y-122589793D01*
X66523600Y-122610077D01*
X66447900Y-122589793D01*
X66429705Y-122577445D01*
X66428337Y-122576364D01*
X66277524Y-122483341D01*
X66277518Y-122483339D01*
X66109324Y-122427606D01*
X66109323Y-122427605D01*
X66005511Y-122417000D01*
X65884000Y-122417000D01*
X65884000Y-125233000D01*
X66005511Y-125233000D01*
X66109323Y-125222394D01*
X66109324Y-125222393D01*
X66277518Y-125166660D01*
X66277524Y-125166658D01*
X66428336Y-125073636D01*
X66429697Y-125072561D01*
X66430972Y-125072010D01*
X66435844Y-125069006D01*
X66436284Y-125069719D01*
X66501658Y-125041521D01*
X66579498Y-125050619D01*
X66642361Y-125097419D01*
X66673401Y-125169380D01*
X66675000Y-125191322D01*
X66675000Y-126213600D01*
X66654716Y-126289300D01*
X66599300Y-126344716D01*
X66523600Y-126365000D01*
X50456700Y-126365000D01*
X50381000Y-126344716D01*
X50325584Y-126289300D01*
X50305300Y-126213600D01*
X50305300Y-124525510D01*
X64547000Y-124525510D01*
X64557605Y-124629323D01*
X64557606Y-124629324D01*
X64613339Y-124797518D01*
X64613341Y-124797524D01*
X64706363Y-124948336D01*
X64706366Y-124948340D01*
X64831659Y-125073633D01*
X64831663Y-125073636D01*
X64982475Y-125166658D01*
X64982481Y-125166660D01*
X65150675Y-125222393D01*
X65150676Y-125222394D01*
X65254489Y-125233000D01*
X65376000Y-125233000D01*
X65376000Y-124079000D01*
X64547000Y-124079000D01*
X64547000Y-124525510D01*
X50305300Y-124525510D01*
X50305300Y-123124489D01*
X64547000Y-123124489D01*
X64547000Y-123571000D01*
X65376000Y-123571000D01*
X65376000Y-122417000D01*
X65254489Y-122417000D01*
X65150676Y-122427605D01*
X65150675Y-122427606D01*
X64982481Y-122483339D01*
X64982475Y-122483341D01*
X64831663Y-122576363D01*
X64831659Y-122576366D01*
X64706366Y-122701659D01*
X64706363Y-122701663D01*
X64613341Y-122852475D01*
X64613339Y-122852481D01*
X64557606Y-123020675D01*
X64557605Y-123020676D01*
X64547000Y-123124489D01*
X50305300Y-123124489D01*
X50305300Y-116518010D01*
X54037000Y-116518010D01*
X54047605Y-116621823D01*
X54047606Y-116621824D01*
X54103339Y-116790018D01*
X54103341Y-116790024D01*
X54196363Y-116940836D01*
X54196366Y-116940840D01*
X54321659Y-117066133D01*
X54321663Y-117066136D01*
X54472475Y-117159158D01*
X54472481Y-117159160D01*
X54640675Y-117214893D01*
X54640676Y-117214894D01*
X54744489Y-117225500D01*
X54991000Y-117225500D01*
X55499000Y-117225500D01*
X55745511Y-117225500D01*
X55849323Y-117214894D01*
X55849324Y-117214893D01*
X56017518Y-117159160D01*
X56017524Y-117159158D01*
X56168336Y-117066136D01*
X56168340Y-117066133D01*
X56293633Y-116940840D01*
X56293636Y-116940836D01*
X56386658Y-116790024D01*
X56386660Y-116790018D01*
X56442393Y-116621824D01*
X56442394Y-116621823D01*
X56453000Y-116518010D01*
X57847000Y-116518010D01*
X57857605Y-116621823D01*
X57857606Y-116621824D01*
X57913339Y-116790018D01*
X57913341Y-116790024D01*
X58006363Y-116940836D01*
X58006366Y-116940840D01*
X58131659Y-117066133D01*
X58131663Y-117066136D01*
X58282475Y-117159158D01*
X58282481Y-117159160D01*
X58450675Y-117214893D01*
X58450676Y-117214894D01*
X58554489Y-117225500D01*
X58801000Y-117225500D01*
X59309000Y-117225500D01*
X59555511Y-117225500D01*
X59659323Y-117214894D01*
X59659324Y-117214893D01*
X59827518Y-117159160D01*
X59827524Y-117159158D01*
X59978336Y-117066136D01*
X59978340Y-117066133D01*
X60103633Y-116940840D01*
X60103636Y-116940836D01*
X60196658Y-116790024D01*
X60196660Y-116790018D01*
X60252393Y-116621824D01*
X60252394Y-116621823D01*
X60263000Y-116518010D01*
X60263000Y-116478847D01*
X61882000Y-116478847D01*
X61892255Y-116579234D01*
X61892256Y-116579235D01*
X61946151Y-116741881D01*
X61946153Y-116741887D01*
X62036107Y-116887725D01*
X62036110Y-116887729D01*
X62157270Y-117008889D01*
X62157274Y-117008892D01*
X62303112Y-117098846D01*
X62303118Y-117098848D01*
X62465764Y-117152743D01*
X62465765Y-117152744D01*
X62566153Y-117163000D01*
X62611000Y-117163000D01*
X63119000Y-117163000D01*
X63163847Y-117163000D01*
X63264234Y-117152744D01*
X63264235Y-117152743D01*
X63426881Y-117098848D01*
X63426882Y-117098848D01*
X63433237Y-117094929D01*
X63433238Y-117094928D01*
X63572725Y-117008892D01*
X63572729Y-117008889D01*
X63693889Y-116887729D01*
X63693892Y-116887725D01*
X63783846Y-116741887D01*
X63783848Y-116741881D01*
X63837743Y-116579235D01*
X63837744Y-116579234D01*
X63848000Y-116478847D01*
X63848000Y-116459000D01*
X63119000Y-116459000D01*
X63119000Y-117163000D01*
X62611000Y-117163000D01*
X62611000Y-116459000D01*
X61882000Y-116459000D01*
X61882000Y-116478847D01*
X60263000Y-116478847D01*
X60263000Y-116459000D01*
X59309000Y-116459000D01*
X59309000Y-117225500D01*
X58801000Y-117225500D01*
X58801000Y-116459000D01*
X57847000Y-116459000D01*
X57847000Y-116518010D01*
X56453000Y-116518010D01*
X56453000Y-116459000D01*
X55499000Y-116459000D01*
X55499000Y-117225500D01*
X54991000Y-117225500D01*
X54991000Y-116459000D01*
X54037000Y-116459000D01*
X54037000Y-116518010D01*
X50305300Y-116518010D01*
X50305300Y-115721400D01*
X50325584Y-115645700D01*
X50381000Y-115590284D01*
X50456700Y-115570000D01*
X53910238Y-115570000D01*
X53985938Y-115590284D01*
G37*
%TD.AperFunction*%
%TA.AperFunction,Conductor*%
G36*
X66929000Y-120015000D02*
G01*
X66675000Y-120015000D01*
X66675000Y-120415000D01*
X66572400Y-120415000D01*
X66496700Y-120394716D01*
X66441284Y-120339300D01*
X66421000Y-120263600D01*
X66421000Y-119505400D01*
X66416827Y-119501227D01*
X66356700Y-119485116D01*
X66301284Y-119429700D01*
X66287967Y-119380000D01*
X66929000Y-119380000D01*
X66929000Y-120015000D01*
G37*
%TD.AperFunction*%
%TA.AperFunction,Conductor*%
G36*
X68830055Y-110510284D02*
G01*
X68885471Y-110565700D01*
X68905755Y-110641400D01*
X68885471Y-110717100D01*
X68833836Y-110770259D01*
X68726663Y-110836363D01*
X68726659Y-110836366D01*
X68601366Y-110961659D01*
X68601363Y-110961663D01*
X68508341Y-111112475D01*
X68508339Y-111112481D01*
X68452606Y-111280675D01*
X68452605Y-111280676D01*
X68442000Y-111384489D01*
X68442000Y-111506000D01*
X71258000Y-111506000D01*
X71258000Y-111384489D01*
X71247394Y-111280676D01*
X71247393Y-111280675D01*
X71191660Y-111112481D01*
X71191658Y-111112475D01*
X71098636Y-110961663D01*
X71098633Y-110961659D01*
X70973340Y-110836366D01*
X70973336Y-110836363D01*
X70866164Y-110770259D01*
X70812383Y-110713255D01*
X70794309Y-110636997D01*
X70816786Y-110561919D01*
X70873790Y-110508138D01*
X70945645Y-110490000D01*
X72564355Y-110490000D01*
X72640055Y-110510284D01*
X72695471Y-110565700D01*
X72715755Y-110641400D01*
X72695471Y-110717100D01*
X72643836Y-110770259D01*
X72536663Y-110836363D01*
X72536659Y-110836366D01*
X72411366Y-110961659D01*
X72411363Y-110961663D01*
X72318341Y-111112475D01*
X72318339Y-111112481D01*
X72262606Y-111280675D01*
X72262605Y-111280676D01*
X72252000Y-111384489D01*
X72252000Y-111506000D01*
X75068000Y-111506000D01*
X75068000Y-111384489D01*
X75057394Y-111280676D01*
X75057393Y-111280675D01*
X75001660Y-111112481D01*
X75001658Y-111112475D01*
X74908636Y-110961663D01*
X74908633Y-110961659D01*
X74783340Y-110836366D01*
X74783336Y-110836363D01*
X74676164Y-110770259D01*
X74622383Y-110713255D01*
X74604309Y-110636997D01*
X74626786Y-110561919D01*
X74683790Y-110508138D01*
X74755645Y-110490000D01*
X76683600Y-110490000D01*
X76759300Y-110510284D01*
X76814716Y-110565700D01*
X76835000Y-110641400D01*
X76835000Y-119863600D01*
X76814716Y-119939300D01*
X76759300Y-119994716D01*
X76683600Y-120015000D01*
X74350394Y-120015000D01*
X74274694Y-119994716D01*
X74243338Y-119970656D01*
X74148650Y-119875968D01*
X73997738Y-119782885D01*
X73829423Y-119727112D01*
X73725546Y-119716500D01*
X72324453Y-119716500D01*
X72220577Y-119727112D01*
X72052261Y-119782885D01*
X71901349Y-119875968D01*
X71806662Y-119970656D01*
X71738791Y-120009841D01*
X71699606Y-120015000D01*
X70991050Y-120015000D01*
X70915350Y-119994716D01*
X70883994Y-119970656D01*
X70776938Y-119863600D01*
X70656065Y-119742727D01*
X70632697Y-119727113D01*
X70531184Y-119659285D01*
X70531181Y-119659283D01*
X70531179Y-119659282D01*
X70531176Y-119659281D01*
X70531173Y-119659279D01*
X70392414Y-119601803D01*
X70245100Y-119572500D01*
X69870746Y-119572500D01*
X69795046Y-119552216D01*
X69739630Y-119496800D01*
X69723695Y-119447199D01*
X69721951Y-119447546D01*
X69708867Y-119381768D01*
X69708866Y-119381766D01*
X69707686Y-119380000D01*
X70485000Y-119380000D01*
X70485000Y-118525510D01*
X71617000Y-118525510D01*
X71627605Y-118629323D01*
X71627606Y-118629324D01*
X71683339Y-118797518D01*
X71683341Y-118797524D01*
X71776363Y-118948336D01*
X71776366Y-118948340D01*
X71901659Y-119073633D01*
X71901663Y-119073636D01*
X72052475Y-119166658D01*
X72052481Y-119166660D01*
X72220675Y-119222393D01*
X72220676Y-119222394D01*
X72324489Y-119233000D01*
X72771000Y-119233000D01*
X73279000Y-119233000D01*
X73725511Y-119233000D01*
X73829323Y-119222394D01*
X73829324Y-119222393D01*
X73997518Y-119166660D01*
X73997524Y-119166658D01*
X74148336Y-119073636D01*
X74148340Y-119073633D01*
X74273633Y-118948340D01*
X74273636Y-118948336D01*
X74366658Y-118797524D01*
X74366660Y-118797518D01*
X74422393Y-118629324D01*
X74422394Y-118629323D01*
X74433000Y-118525510D01*
X74433000Y-117729000D01*
X73279000Y-117729000D01*
X73279000Y-119233000D01*
X72771000Y-119233000D01*
X72771000Y-117729000D01*
X71617000Y-117729000D01*
X71617000Y-118525510D01*
X70485000Y-118525510D01*
X70485000Y-116424489D01*
X71617000Y-116424489D01*
X71617000Y-117221000D01*
X72771000Y-117221000D01*
X73279000Y-117221000D01*
X74433000Y-117221000D01*
X74433000Y-116424489D01*
X74422394Y-116320676D01*
X74422393Y-116320675D01*
X74366660Y-116152481D01*
X74366658Y-116152475D01*
X74273636Y-116001663D01*
X74273633Y-116001659D01*
X74148340Y-115876366D01*
X74148336Y-115876363D01*
X73997524Y-115783341D01*
X73997518Y-115783339D01*
X73829324Y-115727606D01*
X73829323Y-115727605D01*
X73725511Y-115717000D01*
X73279000Y-115717000D01*
X73279000Y-117221000D01*
X72771000Y-117221000D01*
X72771000Y-115717000D01*
X72324489Y-115717000D01*
X72220676Y-115727605D01*
X72220675Y-115727606D01*
X72052481Y-115783339D01*
X72052475Y-115783341D01*
X71901663Y-115876363D01*
X71901659Y-115876366D01*
X71776366Y-116001659D01*
X71776363Y-116001663D01*
X71683341Y-116152475D01*
X71683339Y-116152481D01*
X71627606Y-116320675D01*
X71627605Y-116320676D01*
X71617000Y-116424489D01*
X70485000Y-116424489D01*
X70485000Y-115612158D01*
X70500024Y-115616184D01*
X70531380Y-115640244D01*
X70536785Y-115645649D01*
X70686632Y-115745774D01*
X70777322Y-115783339D01*
X70853130Y-115814740D01*
X70853132Y-115814740D01*
X70853133Y-115814741D01*
X71029890Y-115849900D01*
X71210110Y-115849900D01*
X71386867Y-115814741D01*
X71553368Y-115745774D01*
X71703215Y-115645649D01*
X71830649Y-115518215D01*
X71930774Y-115368368D01*
X71999741Y-115201867D01*
X72034900Y-115025110D01*
X72034900Y-114844890D01*
X71999741Y-114668133D01*
X71930774Y-114501632D01*
X71830649Y-114351785D01*
X71703215Y-114224351D01*
X71634594Y-114178500D01*
X71553368Y-114124226D01*
X71386869Y-114055259D01*
X71386870Y-114055259D01*
X71210110Y-114020100D01*
X71029890Y-114020100D01*
X70853130Y-114055259D01*
X70686631Y-114124226D01*
X70536785Y-114224350D01*
X70536784Y-114224351D01*
X70531380Y-114229756D01*
X70463509Y-114268941D01*
X70424324Y-114274100D01*
X69871900Y-114274100D01*
X69796200Y-114253816D01*
X69740784Y-114198400D01*
X69720500Y-114122700D01*
X69720500Y-113880251D01*
X69708867Y-113821768D01*
X69708866Y-113821766D01*
X69664553Y-113755449D01*
X69664550Y-113755446D01*
X69598233Y-113711133D01*
X69598231Y-113711132D01*
X69539749Y-113699500D01*
X69539748Y-113699500D01*
X68890252Y-113699500D01*
X68890251Y-113699500D01*
X68831768Y-113711132D01*
X68831766Y-113711133D01*
X68765449Y-113755446D01*
X68765446Y-113755449D01*
X68721133Y-113821766D01*
X68719875Y-113824805D01*
X68713902Y-113832587D01*
X68712847Y-113834168D01*
X68712743Y-113834098D01*
X68672165Y-113886980D01*
X68599760Y-113916970D01*
X68522060Y-113906740D01*
X68459885Y-113859030D01*
X68440125Y-113824805D01*
X68438866Y-113821766D01*
X68394553Y-113755449D01*
X68394550Y-113755446D01*
X68328233Y-113711133D01*
X68328231Y-113711132D01*
X68269749Y-113699500D01*
X68269748Y-113699500D01*
X67620252Y-113699500D01*
X67620251Y-113699500D01*
X67561768Y-113711132D01*
X67561766Y-113711133D01*
X67495449Y-113755446D01*
X67495446Y-113755449D01*
X67451133Y-113821766D01*
X67449875Y-113824805D01*
X67443902Y-113832587D01*
X67442847Y-113834168D01*
X67442743Y-113834098D01*
X67402165Y-113886980D01*
X67329760Y-113916970D01*
X67252060Y-113906740D01*
X67189885Y-113859030D01*
X67170125Y-113824805D01*
X67168866Y-113821766D01*
X67124553Y-113755449D01*
X67124550Y-113755446D01*
X67058233Y-113711133D01*
X67058231Y-113711132D01*
X66999749Y-113699500D01*
X66999748Y-113699500D01*
X66350252Y-113699500D01*
X66350251Y-113699500D01*
X66291768Y-113711132D01*
X66291766Y-113711133D01*
X66225449Y-113755446D01*
X66225446Y-113755449D01*
X66181133Y-113821766D01*
X66179875Y-113824805D01*
X66173902Y-113832587D01*
X66172847Y-113834168D01*
X66172743Y-113834098D01*
X66132165Y-113886980D01*
X66059760Y-113916970D01*
X65982060Y-113906740D01*
X65919885Y-113859030D01*
X65900125Y-113824805D01*
X65898866Y-113821766D01*
X65854553Y-113755449D01*
X65854550Y-113755446D01*
X65788233Y-113711133D01*
X65788231Y-113711132D01*
X65729749Y-113699500D01*
X65729748Y-113699500D01*
X65080252Y-113699500D01*
X65080251Y-113699500D01*
X65021768Y-113711132D01*
X65021764Y-113711134D01*
X65005512Y-113721994D01*
X65000696Y-113723628D01*
X64997100Y-113727225D01*
X64963875Y-113736127D01*
X64931301Y-113747185D01*
X64926312Y-113746192D01*
X64921400Y-113747509D01*
X64888176Y-113738606D01*
X64854436Y-113731895D01*
X64850611Y-113728541D01*
X64845700Y-113727225D01*
X64821377Y-113702902D01*
X64795515Y-113680221D01*
X64793880Y-113675405D01*
X64790284Y-113671809D01*
X64781381Y-113638584D01*
X64770324Y-113606010D01*
X64770000Y-113596109D01*
X64770000Y-113595213D01*
X64772909Y-113565676D01*
X64795900Y-113450092D01*
X64795900Y-112649907D01*
X64772909Y-112534324D01*
X64770000Y-112504787D01*
X64770000Y-112135510D01*
X68442000Y-112135510D01*
X68452605Y-112239323D01*
X68452606Y-112239324D01*
X68508339Y-112407518D01*
X68508341Y-112407524D01*
X68601363Y-112558336D01*
X68601366Y-112558340D01*
X68726659Y-112683633D01*
X68726663Y-112683636D01*
X68877475Y-112776658D01*
X68877481Y-112776660D01*
X69045675Y-112832393D01*
X69045676Y-112832394D01*
X69149489Y-112843000D01*
X69596000Y-112843000D01*
X70104000Y-112843000D01*
X70550511Y-112843000D01*
X70654323Y-112832394D01*
X70654324Y-112832393D01*
X70822518Y-112776660D01*
X70822524Y-112776658D01*
X70973336Y-112683636D01*
X70973340Y-112683633D01*
X71098633Y-112558340D01*
X71098636Y-112558336D01*
X71191658Y-112407524D01*
X71191660Y-112407518D01*
X71247393Y-112239324D01*
X71247394Y-112239323D01*
X71258000Y-112135510D01*
X72252000Y-112135510D01*
X72262605Y-112239323D01*
X72262606Y-112239324D01*
X72318339Y-112407518D01*
X72318341Y-112407524D01*
X72411363Y-112558336D01*
X72411366Y-112558340D01*
X72536659Y-112683633D01*
X72536663Y-112683636D01*
X72687475Y-112776658D01*
X72687481Y-112776660D01*
X72855675Y-112832393D01*
X72855676Y-112832394D01*
X72959489Y-112843000D01*
X73406000Y-112843000D01*
X73914000Y-112843000D01*
X74360511Y-112843000D01*
X74464323Y-112832394D01*
X74464324Y-112832393D01*
X74632518Y-112776660D01*
X74632524Y-112776658D01*
X74783336Y-112683636D01*
X74783340Y-112683633D01*
X74908633Y-112558340D01*
X74908636Y-112558336D01*
X75001658Y-112407524D01*
X75001660Y-112407518D01*
X75057393Y-112239324D01*
X75057394Y-112239323D01*
X75068000Y-112135510D01*
X75068000Y-112014000D01*
X73914000Y-112014000D01*
X73914000Y-112843000D01*
X73406000Y-112843000D01*
X73406000Y-112014000D01*
X72252000Y-112014000D01*
X72252000Y-112135510D01*
X71258000Y-112135510D01*
X71258000Y-112014000D01*
X70104000Y-112014000D01*
X70104000Y-112843000D01*
X69596000Y-112843000D01*
X69596000Y-112014000D01*
X68442000Y-112014000D01*
X68442000Y-112135510D01*
X64770000Y-112135510D01*
X64770000Y-110641400D01*
X64790284Y-110565700D01*
X64845700Y-110510284D01*
X64921400Y-110490000D01*
X68754355Y-110490000D01*
X68830055Y-110510284D01*
G37*
%TD.AperFunction*%
%TD*%
%TA.AperFunction,Conductor*%
%TO.N,GND*%
G36*
X147194700Y-207043300D02*
G01*
X147174416Y-207119000D01*
X147119000Y-207174416D01*
X147043300Y-207194700D01*
X136041400Y-207194700D01*
X135965700Y-207174416D01*
X135910284Y-207119000D01*
X135890000Y-207043300D01*
X135890000Y-202371789D01*
X140543900Y-202371789D01*
X140543900Y-202628210D01*
X140577370Y-202882437D01*
X140643735Y-203130113D01*
X140643739Y-203130125D01*
X140741857Y-203367005D01*
X140741863Y-203367017D01*
X140870073Y-203589083D01*
X141026171Y-203792514D01*
X141207486Y-203973829D01*
X141410917Y-204129927D01*
X141632983Y-204258137D01*
X141632988Y-204258139D01*
X141632994Y-204258142D01*
X141779825Y-204318961D01*
X141869883Y-204356264D01*
X142117565Y-204422630D01*
X142371790Y-204456100D01*
X142628210Y-204456100D01*
X142882435Y-204422630D01*
X143130117Y-204356264D01*
X143367017Y-204258137D01*
X143589083Y-204129927D01*
X143792514Y-203973829D01*
X143973829Y-203792514D01*
X144129927Y-203589083D01*
X144258137Y-203367017D01*
X144356264Y-203130117D01*
X144422630Y-202882435D01*
X144456100Y-202628210D01*
X144456100Y-202371790D01*
X144422630Y-202117565D01*
X144356264Y-201869883D01*
X144258137Y-201632983D01*
X144129927Y-201410917D01*
X143973829Y-201207486D01*
X143792514Y-201026171D01*
X143589083Y-200870073D01*
X143589084Y-200870073D01*
X143589082Y-200870072D01*
X143367019Y-200741864D01*
X143367005Y-200741857D01*
X143130125Y-200643739D01*
X143130121Y-200643737D01*
X143130117Y-200643736D01*
X143100852Y-200635894D01*
X142882437Y-200577370D01*
X142628210Y-200543900D01*
X142371790Y-200543900D01*
X142117562Y-200577370D01*
X141869886Y-200643735D01*
X141869874Y-200643739D01*
X141632994Y-200741857D01*
X141632980Y-200741864D01*
X141410917Y-200870072D01*
X141207485Y-201026171D01*
X141026171Y-201207485D01*
X140870072Y-201410917D01*
X140741864Y-201632980D01*
X140741857Y-201632994D01*
X140643739Y-201869874D01*
X140643735Y-201869886D01*
X140577370Y-202117562D01*
X140543900Y-202371789D01*
X135890000Y-202371789D01*
X135890000Y-201203400D01*
X135910284Y-201127700D01*
X135965700Y-201072284D01*
X136041400Y-201052000D01*
X136144000Y-201052000D01*
X136652000Y-201052000D01*
X136773511Y-201052000D01*
X136877323Y-201041394D01*
X136877324Y-201041393D01*
X137045518Y-200985660D01*
X137045524Y-200985658D01*
X137196336Y-200892636D01*
X137196340Y-200892633D01*
X137321633Y-200767340D01*
X137321636Y-200767336D01*
X137414658Y-200616524D01*
X137414660Y-200616518D01*
X137470393Y-200448324D01*
X137470394Y-200448323D01*
X137481000Y-200344510D01*
X137481000Y-199898000D01*
X136652000Y-199898000D01*
X136652000Y-201052000D01*
X136144000Y-201052000D01*
X136144000Y-199390000D01*
X136652000Y-199390000D01*
X137481000Y-199390000D01*
X137481000Y-198943489D01*
X137470394Y-198839676D01*
X137470393Y-198839675D01*
X137414660Y-198671481D01*
X137414658Y-198671475D01*
X137321636Y-198520663D01*
X137321633Y-198520659D01*
X137196340Y-198395366D01*
X137196336Y-198395363D01*
X137045524Y-198302341D01*
X137045518Y-198302339D01*
X136877324Y-198246606D01*
X136877323Y-198246605D01*
X136773511Y-198236000D01*
X136652000Y-198236000D01*
X136652000Y-199390000D01*
X136144000Y-199390000D01*
X136144000Y-198236000D01*
X136041400Y-198236000D01*
X135965700Y-198215716D01*
X135910284Y-198160300D01*
X135902957Y-198132957D01*
X135890000Y-198120000D01*
X143510000Y-198120000D01*
X143510000Y-190500000D01*
X135890000Y-190500000D01*
X135890000Y-190408400D01*
X135910284Y-190332700D01*
X135965700Y-190277284D01*
X136041400Y-190257000D01*
X136144000Y-190257000D01*
X136652000Y-190257000D01*
X136773511Y-190257000D01*
X136877323Y-190246394D01*
X136877324Y-190246393D01*
X137045518Y-190190660D01*
X137045524Y-190190658D01*
X137196336Y-190097636D01*
X137196340Y-190097633D01*
X137321633Y-189972340D01*
X137321636Y-189972336D01*
X137414658Y-189821524D01*
X137414660Y-189821518D01*
X137470393Y-189653324D01*
X137470394Y-189653323D01*
X137481000Y-189549510D01*
X137481000Y-189103000D01*
X136652000Y-189103000D01*
X136652000Y-190257000D01*
X136144000Y-190257000D01*
X136144000Y-188595000D01*
X136652000Y-188595000D01*
X137481000Y-188595000D01*
X137481000Y-188148489D01*
X137470394Y-188044676D01*
X137470393Y-188044675D01*
X137414660Y-187876481D01*
X137414658Y-187876475D01*
X137321636Y-187725663D01*
X137321633Y-187725659D01*
X137196340Y-187600366D01*
X137196336Y-187600363D01*
X137045524Y-187507341D01*
X137045518Y-187507339D01*
X136877324Y-187451606D01*
X136877323Y-187451605D01*
X136773511Y-187441000D01*
X136652000Y-187441000D01*
X136652000Y-188595000D01*
X136144000Y-188595000D01*
X136144000Y-187441000D01*
X136041400Y-187441000D01*
X135965700Y-187420716D01*
X135910284Y-187365300D01*
X135890000Y-187289600D01*
X135890000Y-185420000D01*
X147194700Y-185420000D01*
X147194700Y-207043300D01*
G37*
%TD.AperFunction*%
%TD*%
%TA.AperFunction,Conductor*%
%TO.N,+5V*%
G36*
X103429300Y-114955284D02*
G01*
X103484716Y-115010700D01*
X103505000Y-115086400D01*
X103505000Y-115587514D01*
X103484716Y-115663214D01*
X103429300Y-115718630D01*
X103353600Y-115738914D01*
X103277900Y-115718630D01*
X103246544Y-115694570D01*
X103177340Y-115625366D01*
X103177336Y-115625363D01*
X103026524Y-115532341D01*
X103026518Y-115532339D01*
X102858324Y-115476606D01*
X102858323Y-115476605D01*
X102754511Y-115466000D01*
X102108000Y-115466000D01*
X102108000Y-117682000D01*
X102754511Y-117682000D01*
X102858323Y-117671394D01*
X102858324Y-117671393D01*
X103026518Y-117615660D01*
X103026524Y-117615658D01*
X103177336Y-117522636D01*
X103177340Y-117522633D01*
X103246544Y-117453430D01*
X103314415Y-117414245D01*
X103392785Y-117414245D01*
X103460656Y-117453430D01*
X103499841Y-117521301D01*
X103505000Y-117560486D01*
X103505000Y-118130220D01*
X103484716Y-118205920D01*
X103429300Y-118261336D01*
X103353600Y-118281620D01*
X103305978Y-118273935D01*
X103193324Y-118236606D01*
X103193323Y-118236605D01*
X103089511Y-118226000D01*
X102968000Y-118226000D01*
X102968000Y-121042000D01*
X103089511Y-121042000D01*
X103193322Y-121031394D01*
X103305977Y-120994064D01*
X103384215Y-120989507D01*
X103454250Y-121024679D01*
X103497315Y-121090156D01*
X103505000Y-121137779D01*
X103505000Y-122759528D01*
X103484716Y-122835228D01*
X103429300Y-122890644D01*
X103353600Y-122910928D01*
X100890098Y-122910928D01*
X100814398Y-122890644D01*
X100783042Y-122866584D01*
X100777636Y-122861178D01*
X100627790Y-122761054D01*
X100461291Y-122692087D01*
X100461292Y-122692087D01*
X100284532Y-122656928D01*
X100104312Y-122656928D01*
X100104311Y-122656928D01*
X99938584Y-122689893D01*
X99860382Y-122684767D01*
X99795219Y-122641227D01*
X99783167Y-122625519D01*
X99770649Y-122606785D01*
X99643215Y-122479351D01*
X99493368Y-122379226D01*
X99326869Y-122310259D01*
X99326870Y-122310259D01*
X99150110Y-122275100D01*
X98969890Y-122275100D01*
X98793130Y-122310259D01*
X98626631Y-122379226D01*
X98476785Y-122479350D01*
X98349350Y-122606785D01*
X98249226Y-122756631D01*
X98180259Y-122923130D01*
X98145100Y-123099890D01*
X98145100Y-123280109D01*
X98180259Y-123456869D01*
X98246034Y-123615661D01*
X98256264Y-123693361D01*
X98226273Y-123765766D01*
X98164098Y-123813475D01*
X98106159Y-123825000D01*
X92226400Y-123825000D01*
X92150700Y-123804716D01*
X92095284Y-123749300D01*
X92075000Y-123673600D01*
X92075000Y-120559890D01*
X98145100Y-120559890D01*
X98145100Y-120740110D01*
X98148527Y-120757340D01*
X98180259Y-120916869D01*
X98232091Y-121042000D01*
X98249226Y-121083368D01*
X98349351Y-121233215D01*
X98476785Y-121360649D01*
X98626632Y-121460774D01*
X98744363Y-121509540D01*
X98793130Y-121529740D01*
X98793132Y-121529740D01*
X98793133Y-121529741D01*
X98969890Y-121564900D01*
X99150110Y-121564900D01*
X99326867Y-121529741D01*
X99493368Y-121460774D01*
X99643215Y-121360649D01*
X99770649Y-121233215D01*
X99870774Y-121083368D01*
X99939741Y-120916867D01*
X99974900Y-120740110D01*
X99974900Y-120559890D01*
X99939741Y-120383133D01*
X99919601Y-120334510D01*
X101631000Y-120334510D01*
X101641605Y-120438323D01*
X101641606Y-120438324D01*
X101697339Y-120606518D01*
X101697341Y-120606524D01*
X101790363Y-120757336D01*
X101790366Y-120757340D01*
X101915659Y-120882633D01*
X101915663Y-120882636D01*
X102066475Y-120975658D01*
X102066481Y-120975660D01*
X102234675Y-121031393D01*
X102234676Y-121031394D01*
X102338489Y-121042000D01*
X102460000Y-121042000D01*
X102460000Y-119888000D01*
X101631000Y-119888000D01*
X101631000Y-120334510D01*
X99919601Y-120334510D01*
X99870774Y-120216632D01*
X99770649Y-120066785D01*
X99643215Y-119939351D01*
X99493368Y-119839226D01*
X99326869Y-119770259D01*
X99326870Y-119770259D01*
X99150110Y-119735100D01*
X98969890Y-119735100D01*
X98793130Y-119770259D01*
X98626631Y-119839226D01*
X98476785Y-119939350D01*
X98349350Y-120066785D01*
X98249226Y-120216631D01*
X98180259Y-120383130D01*
X98166843Y-120450579D01*
X98145100Y-120559890D01*
X92075000Y-120559890D01*
X92075000Y-118019890D01*
X98145100Y-118019890D01*
X98145100Y-118200110D01*
X98156819Y-118259029D01*
X98180259Y-118376869D01*
X98249226Y-118543368D01*
X98338364Y-118676773D01*
X98349351Y-118693215D01*
X98476785Y-118820649D01*
X98626632Y-118920774D01*
X98744363Y-118969540D01*
X98793130Y-118989740D01*
X98793132Y-118989740D01*
X98793133Y-118989741D01*
X98969890Y-119024900D01*
X99150110Y-119024900D01*
X99326867Y-118989741D01*
X99462671Y-118933489D01*
X101631000Y-118933489D01*
X101631000Y-119380000D01*
X102460000Y-119380000D01*
X102460000Y-118226000D01*
X102338489Y-118226000D01*
X102234676Y-118236605D01*
X102234675Y-118236606D01*
X102066481Y-118292339D01*
X102066475Y-118292341D01*
X101915663Y-118385363D01*
X101915659Y-118385366D01*
X101790366Y-118510659D01*
X101790363Y-118510663D01*
X101697341Y-118661475D01*
X101697339Y-118661481D01*
X101641606Y-118829675D01*
X101641605Y-118829676D01*
X101631000Y-118933489D01*
X99462671Y-118933489D01*
X99493368Y-118920774D01*
X99643215Y-118820649D01*
X99770649Y-118693215D01*
X99870774Y-118543368D01*
X99939741Y-118376867D01*
X99974900Y-118200110D01*
X99974900Y-118019890D01*
X99939741Y-117843133D01*
X99870774Y-117676632D01*
X99770649Y-117526785D01*
X99643215Y-117399351D01*
X99640205Y-117397340D01*
X99493368Y-117299226D01*
X99326869Y-117230259D01*
X99326870Y-117230259D01*
X99150110Y-117195100D01*
X98969890Y-117195100D01*
X98793130Y-117230259D01*
X98626631Y-117299226D01*
X98476785Y-117399350D01*
X98349350Y-117526785D01*
X98249226Y-117676631D01*
X98180259Y-117843130D01*
X98157291Y-117958600D01*
X98145100Y-118019890D01*
X92075000Y-118019890D01*
X92075000Y-116974510D01*
X100246000Y-116974510D01*
X100256605Y-117078323D01*
X100256606Y-117078324D01*
X100312339Y-117246518D01*
X100312341Y-117246524D01*
X100405363Y-117397336D01*
X100405366Y-117397340D01*
X100530659Y-117522633D01*
X100530663Y-117522636D01*
X100681475Y-117615658D01*
X100681481Y-117615660D01*
X100849675Y-117671393D01*
X100849676Y-117671394D01*
X100953489Y-117682000D01*
X101600000Y-117682000D01*
X101600000Y-116828000D01*
X100246000Y-116828000D01*
X100246000Y-116974510D01*
X92075000Y-116974510D01*
X92075000Y-116173489D01*
X100246000Y-116173489D01*
X100246000Y-116320000D01*
X101600000Y-116320000D01*
X101600000Y-115466000D01*
X100953489Y-115466000D01*
X100849676Y-115476605D01*
X100849675Y-115476606D01*
X100681481Y-115532339D01*
X100681475Y-115532341D01*
X100530663Y-115625363D01*
X100530659Y-115625366D01*
X100405366Y-115750659D01*
X100405363Y-115750663D01*
X100312341Y-115901475D01*
X100312339Y-115901481D01*
X100256606Y-116069675D01*
X100256605Y-116069676D01*
X100246000Y-116173489D01*
X92075000Y-116173489D01*
X92075000Y-115086400D01*
X92095284Y-115010700D01*
X92150700Y-114955284D01*
X92226400Y-114935000D01*
X103353600Y-114935000D01*
X103429300Y-114955284D01*
G37*
%TD.AperFunction*%
%TD*%
%TA.AperFunction,Conductor*%
%TO.N,GND*%
G36*
X54245700Y-186664806D02*
G01*
X54396844Y-186713916D01*
X54531027Y-186799071D01*
X54544928Y-186810912D01*
X54553570Y-186818491D01*
X54746582Y-186966595D01*
X54746590Y-186966600D01*
X54746593Y-186966602D01*
X54957306Y-187088258D01*
X54957307Y-187088258D01*
X54957310Y-187088260D01*
X55047222Y-187125502D01*
X55182096Y-187181369D01*
X55417116Y-187244342D01*
X55658345Y-187276100D01*
X55901655Y-187276100D01*
X56142884Y-187244342D01*
X56199007Y-187229304D01*
X56356459Y-187207735D01*
X56514328Y-187226000D01*
X56662696Y-187282953D01*
X56792238Y-187375013D01*
X56894816Y-187496397D01*
X56963985Y-187639478D01*
X56995397Y-187795265D01*
X56997100Y-187841700D01*
X56997100Y-189866000D01*
X56977182Y-190023669D01*
X56918678Y-190171432D01*
X56825266Y-190300003D01*
X56702814Y-190401304D01*
X56559017Y-190468970D01*
X56402909Y-190498749D01*
X56363100Y-190500000D01*
X54126900Y-190500000D01*
X53969231Y-190480082D01*
X53821468Y-190421578D01*
X53692897Y-190328166D01*
X53591596Y-190205714D01*
X53523930Y-190061917D01*
X53494151Y-189905809D01*
X53492900Y-189866000D01*
X53492900Y-187287576D01*
X53512818Y-187129907D01*
X53571322Y-186982144D01*
X53664734Y-186853573D01*
X53787186Y-186752272D01*
X53930983Y-186684606D01*
X54087091Y-186654827D01*
X54245700Y-186664806D01*
G37*
%TD.AperFunction*%
%TA.AperFunction,Conductor*%
G36*
X56170278Y-129559918D02*
G01*
X56318041Y-129618422D01*
X56446612Y-129711834D01*
X56547913Y-129834286D01*
X56615579Y-129978083D01*
X56643556Y-130111856D01*
X56670995Y-130390452D01*
X56670997Y-130390461D01*
X56733687Y-130705625D01*
X56826967Y-131013127D01*
X56949938Y-131310005D01*
X57101416Y-131593401D01*
X57279942Y-131860584D01*
X57483797Y-132108982D01*
X57711018Y-132336203D01*
X57959416Y-132540058D01*
X58226599Y-132718584D01*
X58509995Y-132870062D01*
X58806873Y-132993033D01*
X59114375Y-133086313D01*
X59429539Y-133149003D01*
X59429546Y-133149003D01*
X59429548Y-133149004D01*
X59749318Y-133180499D01*
X59749325Y-133180499D01*
X59749331Y-133180500D01*
X59749334Y-133180500D01*
X60070666Y-133180500D01*
X60070669Y-133180500D01*
X60093016Y-133178299D01*
X60137367Y-133173931D01*
X60296229Y-133178299D01*
X60449015Y-133222037D01*
X60586123Y-133302397D01*
X60698939Y-133414330D01*
X60780374Y-133550802D01*
X60825311Y-133703239D01*
X60830927Y-133862062D01*
X60827580Y-133891398D01*
X60817767Y-133962626D01*
X60805174Y-133993031D01*
X60734926Y-134255199D01*
X60699500Y-134524292D01*
X60699500Y-134795708D01*
X60701213Y-134808724D01*
X60693569Y-134864219D01*
X60684136Y-134899314D01*
X60679582Y-134935368D01*
X60663593Y-134975751D01*
X60652320Y-135017695D01*
X60634455Y-135049343D01*
X60621078Y-135083131D01*
X60595550Y-135118266D01*
X60574200Y-135156091D01*
X60549025Y-135182302D01*
X60527666Y-135211702D01*
X60494203Y-135239384D01*
X60464116Y-135270712D01*
X60433212Y-135289840D01*
X60405214Y-135313003D01*
X60365917Y-135331494D01*
X60328985Y-135354355D01*
X60294297Y-135365196D01*
X60261417Y-135380669D01*
X60211169Y-135391177D01*
X60177299Y-135401764D01*
X60155061Y-135402912D01*
X60127652Y-135408645D01*
X59908831Y-135430200D01*
X59901734Y-135440820D01*
X59901732Y-135440824D01*
X59747028Y-135730256D01*
X59621456Y-136033415D01*
X59621449Y-136033434D01*
X59526185Y-136347474D01*
X59462167Y-136669323D01*
X59462163Y-136669344D01*
X59430000Y-136995903D01*
X59430000Y-137324096D01*
X59462163Y-137650655D01*
X59462167Y-137650676D01*
X59526186Y-137972529D01*
X59527633Y-137978304D01*
X59528089Y-137982095D01*
X59529224Y-137987800D01*
X59528786Y-137987887D01*
X59546623Y-138136088D01*
X59525777Y-138293637D01*
X59466405Y-138441053D01*
X59372237Y-138569072D01*
X59249191Y-138669650D01*
X59104998Y-138736469D01*
X59096675Y-138739056D01*
X58806877Y-138826965D01*
X58509996Y-138949937D01*
X58226593Y-139101419D01*
X57959417Y-139279941D01*
X57711021Y-139483794D01*
X57483794Y-139711021D01*
X57279941Y-139959417D01*
X57101419Y-140226593D01*
X56949937Y-140509996D01*
X56826965Y-140806877D01*
X56733689Y-141114368D01*
X56733687Y-141114375D01*
X56727074Y-141147623D01*
X56670995Y-141429548D01*
X56639500Y-141749318D01*
X56639500Y-142070681D01*
X56670995Y-142390451D01*
X56670997Y-142390461D01*
X56733687Y-142705625D01*
X56826967Y-143013127D01*
X56949938Y-143310005D01*
X57101416Y-143593401D01*
X57279942Y-143860584D01*
X57483797Y-144108982D01*
X57711018Y-144336203D01*
X57959416Y-144540058D01*
X58226599Y-144718584D01*
X58509995Y-144870062D01*
X58806873Y-144993033D01*
X59114375Y-145086313D01*
X59429539Y-145149003D01*
X59429546Y-145149003D01*
X59429548Y-145149004D01*
X59749318Y-145180499D01*
X59749325Y-145180499D01*
X59749331Y-145180500D01*
X59749334Y-145180500D01*
X60070666Y-145180500D01*
X60070669Y-145180500D01*
X60070675Y-145180499D01*
X60070681Y-145180499D01*
X60390451Y-145149004D01*
X60390451Y-145149003D01*
X60390461Y-145149003D01*
X60705625Y-145086313D01*
X61013127Y-144993033D01*
X61310005Y-144870062D01*
X61593401Y-144718584D01*
X61860584Y-144540058D01*
X62108982Y-144336203D01*
X62336203Y-144108982D01*
X62540058Y-143860584D01*
X62718584Y-143593401D01*
X62870062Y-143310005D01*
X62993033Y-143013127D01*
X63086313Y-142705625D01*
X63149003Y-142390461D01*
X63180500Y-142070669D01*
X63180500Y-141749331D01*
X63149003Y-141429539D01*
X63092924Y-141147611D01*
X63081701Y-140989097D01*
X63110253Y-140832761D01*
X63176787Y-140688436D01*
X63277122Y-140565192D01*
X63404956Y-140470772D01*
X63552254Y-140411110D01*
X63567554Y-140407564D01*
X63582524Y-140403814D01*
X63896565Y-140308550D01*
X63896584Y-140308543D01*
X64199743Y-140182971D01*
X64489176Y-140028266D01*
X64489182Y-140028263D01*
X64499796Y-140021169D01*
X64521336Y-139802383D01*
X64556606Y-139647424D01*
X64629305Y-139506104D01*
X64734865Y-139387304D01*
X64866652Y-139298487D01*
X65016387Y-139245235D01*
X65152283Y-139230499D01*
X65635246Y-139230499D01*
X65769553Y-139219930D01*
X65991316Y-139164051D01*
X66129210Y-139101416D01*
X66199530Y-139069475D01*
X66199531Y-139069474D01*
X66199536Y-139069472D01*
X66387523Y-138939234D01*
X66549234Y-138777523D01*
X66679472Y-138589536D01*
X66688768Y-138569072D01*
X66774048Y-138381322D01*
X66774051Y-138381316D01*
X66829930Y-138159553D01*
X66840500Y-138025247D01*
X66840499Y-136294754D01*
X66829930Y-136160447D01*
X66774051Y-135938684D01*
X66734819Y-135852313D01*
X66687749Y-135700525D01*
X66679906Y-135541796D01*
X66711784Y-135386103D01*
X66726319Y-135347504D01*
X66734826Y-135326969D01*
X66805074Y-135064801D01*
X66840500Y-134795708D01*
X66840500Y-134524292D01*
X66805074Y-134255199D01*
X66734826Y-133993031D01*
X66630960Y-133742276D01*
X66495252Y-133507223D01*
X66330025Y-133291895D01*
X66323914Y-133283931D01*
X66319700Y-133276720D01*
X66313983Y-133270632D01*
X66279672Y-133208220D01*
X66243733Y-133146718D01*
X66241444Y-133138683D01*
X66237422Y-133131367D01*
X66219710Y-133062384D01*
X66200195Y-132993876D01*
X66199384Y-132983223D01*
X66197899Y-132977437D01*
X66192900Y-132897976D01*
X66192900Y-131869143D01*
X66212818Y-131711474D01*
X66268076Y-131571908D01*
X66268014Y-131571878D01*
X66268391Y-131571112D01*
X66271322Y-131563711D01*
X66277087Y-131553478D01*
X66277192Y-131553266D01*
X66277193Y-131553265D01*
X66361314Y-131350178D01*
X66418208Y-131137849D01*
X66446900Y-130919910D01*
X66446900Y-130700090D01*
X66418208Y-130482151D01*
X66379608Y-130338095D01*
X66358039Y-130180642D01*
X66376304Y-130022773D01*
X66433256Y-129874406D01*
X66525316Y-129744863D01*
X66646700Y-129642285D01*
X66789781Y-129573116D01*
X66945568Y-129541703D01*
X66992004Y-129540000D01*
X90806000Y-129540000D01*
X90963669Y-129559918D01*
X91111432Y-129618422D01*
X91240003Y-129711834D01*
X91341304Y-129834286D01*
X91408970Y-129978083D01*
X91438749Y-130134191D01*
X91440000Y-130174000D01*
X91440000Y-134885103D01*
X91420082Y-135042772D01*
X91361578Y-135190535D01*
X91268166Y-135319106D01*
X91254306Y-135333409D01*
X89084671Y-137503043D01*
X88953027Y-137684236D01*
X88953026Y-137684237D01*
X88851346Y-137883798D01*
X88782135Y-138096806D01*
X88747100Y-138318017D01*
X88747100Y-152876252D01*
X88727182Y-153033921D01*
X88668678Y-153181684D01*
X88575266Y-153310255D01*
X88452814Y-153411556D01*
X88309017Y-153479222D01*
X88152909Y-153509001D01*
X87994300Y-153499022D01*
X87843156Y-153449912D01*
X87727145Y-153379238D01*
X87512779Y-153214749D01*
X87277727Y-153079041D01*
X87026969Y-152975174D01*
X86764799Y-152904925D01*
X86495708Y-152869500D01*
X86224292Y-152869500D01*
X85955200Y-152904925D01*
X85693030Y-152975174D01*
X85442272Y-153079041D01*
X85207220Y-153214749D01*
X84991894Y-153379975D01*
X84799975Y-153571894D01*
X84634749Y-153787220D01*
X84499041Y-154022272D01*
X84395174Y-154273030D01*
X84324925Y-154535200D01*
X84289500Y-154804291D01*
X84289500Y-155075708D01*
X84324340Y-155340348D01*
X84324453Y-155362009D01*
X84328513Y-155383291D01*
X84324868Y-155441223D01*
X84325172Y-155499268D01*
X84319894Y-155520279D01*
X84318534Y-155541900D01*
X84300597Y-155597101D01*
X84286456Y-155653402D01*
X84276118Y-155672441D01*
X84269424Y-155693044D01*
X84238322Y-155742052D01*
X84210624Y-155793066D01*
X84195877Y-155808935D01*
X84184269Y-155827227D01*
X84141951Y-155866966D01*
X84102442Y-155909483D01*
X84084214Y-155921185D01*
X84068420Y-155936017D01*
X84017553Y-155963980D01*
X83968707Y-155995340D01*
X83948136Y-156002143D01*
X83929155Y-156012578D01*
X83872938Y-156027012D01*
X83817822Y-156045240D01*
X83792280Y-156047721D01*
X83775225Y-156052101D01*
X83695764Y-156057100D01*
X82724668Y-156057100D01*
X82566999Y-156037182D01*
X82419236Y-155978678D01*
X82290665Y-155885266D01*
X82189364Y-155762814D01*
X82121698Y-155619017D01*
X82091919Y-155462909D01*
X82096092Y-155340349D01*
X82130500Y-155078987D01*
X82130500Y-154801014D01*
X82094218Y-154525426D01*
X82094217Y-154525419D01*
X82049911Y-154360068D01*
X82022274Y-154256925D01*
X81915899Y-154000114D01*
X81776914Y-153759385D01*
X81607697Y-153538857D01*
X81411143Y-153342303D01*
X81190615Y-153173086D01*
X80949886Y-153034101D01*
X80949882Y-153034099D01*
X80949878Y-153034097D01*
X80693078Y-152927727D01*
X80693076Y-152927726D01*
X80693075Y-152927726D01*
X80640412Y-152913614D01*
X80424580Y-152855782D01*
X80424573Y-152855781D01*
X80148985Y-152819500D01*
X80013083Y-152819500D01*
X79855414Y-152799582D01*
X79725260Y-152750401D01*
X79643704Y-152708847D01*
X79430697Y-152639636D01*
X79430695Y-152639635D01*
X79430693Y-152639635D01*
X79334369Y-152624379D01*
X79209485Y-152604600D01*
X79209482Y-152604600D01*
X76576291Y-152604600D01*
X76418622Y-152584682D01*
X76270859Y-152526178D01*
X76248298Y-152513165D01*
X76226520Y-152500000D01*
X76061567Y-152400282D01*
X76061564Y-152400280D01*
X75833829Y-152308625D01*
X75833830Y-152308625D01*
X75781447Y-152296827D01*
X75594329Y-152254685D01*
X75450069Y-152244500D01*
X74409940Y-152244500D01*
X74409920Y-152244501D01*
X74265671Y-152254685D01*
X74026174Y-152308624D01*
X73792951Y-152402488D01*
X73639247Y-152442877D01*
X73480327Y-152443773D01*
X73326177Y-152405118D01*
X73186483Y-152329343D01*
X73070022Y-152221207D01*
X72984112Y-152087507D01*
X72934424Y-151938021D01*
X72857970Y-151553662D01*
X72857970Y-151553661D01*
X72747023Y-151187921D01*
X72747019Y-151187910D01*
X72600757Y-150834802D01*
X72420586Y-150497726D01*
X72420577Y-150497711D01*
X72208250Y-150179942D01*
X72208236Y-150179923D01*
X71965779Y-149884489D01*
X71695510Y-149614220D01*
X71400076Y-149371763D01*
X71400057Y-149371749D01*
X71082288Y-149159422D01*
X71082273Y-149159413D01*
X70745197Y-148979242D01*
X70392089Y-148832980D01*
X70392078Y-148832976D01*
X70026341Y-148722030D01*
X70026338Y-148722029D01*
X69850000Y-148686953D01*
X69850000Y-151866000D01*
X69830082Y-152023669D01*
X69771578Y-152171432D01*
X69678166Y-152300003D01*
X69555714Y-152401304D01*
X69480000Y-152436932D01*
X69480000Y-152411358D01*
X69445414Y-152237480D01*
X69377570Y-152073690D01*
X69279076Y-151926283D01*
X69153717Y-151800924D01*
X69006310Y-151702430D01*
X68842520Y-151634586D01*
X68668642Y-151600000D01*
X68491358Y-151600000D01*
X68317480Y-151634586D01*
X68153690Y-151702430D01*
X68006283Y-151800924D01*
X67880924Y-151926283D01*
X67782430Y-152073690D01*
X67714586Y-152237480D01*
X67680000Y-152411358D01*
X67680000Y-152437982D01*
X67638568Y-152421578D01*
X67509997Y-152328166D01*
X67408696Y-152205714D01*
X67341030Y-152061917D01*
X67311251Y-151905809D01*
X67310000Y-151866000D01*
X67310000Y-148686953D01*
X67133661Y-148722029D01*
X67133658Y-148722030D01*
X66767921Y-148832976D01*
X66767910Y-148832980D01*
X66414802Y-148979242D01*
X66077726Y-149159413D01*
X66077711Y-149159422D01*
X65759942Y-149371749D01*
X65759923Y-149371763D01*
X65464489Y-149614220D01*
X65183219Y-149895491D01*
X65181809Y-149894081D01*
X65077830Y-149983225D01*
X64935244Y-150053409D01*
X64779684Y-150085928D01*
X64620924Y-150078740D01*
X64519361Y-150052400D01*
X64446555Y-150026924D01*
X64306591Y-149977949D01*
X64306587Y-149977948D01*
X64306584Y-149977947D01*
X64019646Y-149912455D01*
X64019637Y-149912453D01*
X63891929Y-149898064D01*
X63727164Y-149879500D01*
X62432836Y-149879500D01*
X62284755Y-149896184D01*
X62140362Y-149912453D01*
X62140353Y-149912455D01*
X61853413Y-149977947D01*
X61575597Y-150075159D01*
X61575589Y-150075162D01*
X61310415Y-150202863D01*
X61061204Y-150359453D01*
X61061197Y-150359458D01*
X60831096Y-150542957D01*
X60622957Y-150751096D01*
X60439458Y-150981197D01*
X60439453Y-150981204D01*
X60282863Y-151230415D01*
X60155162Y-151495589D01*
X60155159Y-151495597D01*
X60057947Y-151773413D01*
X59992455Y-152060353D01*
X59992453Y-152060362D01*
X59983805Y-152137117D01*
X59959500Y-152352836D01*
X59959500Y-152647164D01*
X59976673Y-152799582D01*
X59992453Y-152939637D01*
X59992455Y-152939646D01*
X60057949Y-153226594D01*
X60062871Y-153243677D01*
X60060409Y-153244386D01*
X60087745Y-153372044D01*
X60081329Y-153530837D01*
X60035625Y-153683046D01*
X59953503Y-153819107D01*
X59904356Y-153874353D01*
X59694220Y-154084489D01*
X59451763Y-154379923D01*
X59451749Y-154379942D01*
X59239422Y-154697711D01*
X59239413Y-154697726D01*
X59059242Y-155034802D01*
X58912977Y-155387917D01*
X58912971Y-155387934D01*
X58900211Y-155429999D01*
X58900212Y-155430000D01*
X62446000Y-155430000D01*
X62603669Y-155449918D01*
X62751432Y-155508422D01*
X62880003Y-155601834D01*
X62981304Y-155724286D01*
X63016932Y-155800000D01*
X62991358Y-155800000D01*
X62817480Y-155834586D01*
X62653690Y-155902430D01*
X62506283Y-156000924D01*
X62380924Y-156126283D01*
X62282430Y-156273690D01*
X62214586Y-156437480D01*
X62180000Y-156611358D01*
X62180000Y-156788642D01*
X62214586Y-156962520D01*
X62282430Y-157126310D01*
X62380924Y-157273717D01*
X62506283Y-157399076D01*
X62653690Y-157497570D01*
X62817480Y-157565414D01*
X62991358Y-157600000D01*
X63017982Y-157600000D01*
X63001578Y-157641432D01*
X62908166Y-157770003D01*
X62785714Y-157871304D01*
X62641917Y-157938970D01*
X62485809Y-157968749D01*
X62446000Y-157970000D01*
X58900212Y-157970000D01*
X58912971Y-158012065D01*
X58912977Y-158012082D01*
X59059242Y-158365198D01*
X59131902Y-158501136D01*
X59188660Y-158649578D01*
X59206719Y-158807471D01*
X59184944Y-158964895D01*
X59131902Y-159098864D01*
X59059242Y-159234801D01*
X58912977Y-159587917D01*
X58912971Y-159587934D01*
X58900211Y-159629999D01*
X58900212Y-159630000D01*
X62446000Y-159630000D01*
X62603669Y-159649918D01*
X62751432Y-159708422D01*
X62880003Y-159801834D01*
X62981304Y-159924286D01*
X63016932Y-160000000D01*
X62991358Y-160000000D01*
X62817480Y-160034586D01*
X62653690Y-160102430D01*
X62506283Y-160200924D01*
X62380924Y-160326283D01*
X62282430Y-160473690D01*
X62214586Y-160637480D01*
X62180000Y-160811358D01*
X62180000Y-160988642D01*
X62214586Y-161162520D01*
X62282430Y-161326310D01*
X62380924Y-161473717D01*
X62506283Y-161599076D01*
X62653690Y-161697570D01*
X62817480Y-161765414D01*
X62991358Y-161800000D01*
X63017982Y-161800000D01*
X63001578Y-161841432D01*
X62908166Y-161970003D01*
X62785714Y-162071304D01*
X62641917Y-162138970D01*
X62485809Y-162168749D01*
X62446000Y-162170000D01*
X58900212Y-162170000D01*
X58912971Y-162212065D01*
X58912977Y-162212082D01*
X59059242Y-162565197D01*
X59239413Y-162902273D01*
X59239422Y-162902288D01*
X59451749Y-163220057D01*
X59451763Y-163220076D01*
X59694220Y-163515510D01*
X59773806Y-163595096D01*
X59871210Y-163720670D01*
X59934326Y-163866522D01*
X59959187Y-164023488D01*
X59959500Y-164043402D01*
X59959500Y-166270068D01*
X59969685Y-166414328D01*
X60023624Y-166653823D01*
X60115282Y-166881568D01*
X60242285Y-167091657D01*
X60317325Y-167179876D01*
X60401346Y-167278654D01*
X60401351Y-167278658D01*
X60588342Y-167437714D01*
X60732468Y-167524841D01*
X60798433Y-167564718D01*
X61026176Y-167656376D01*
X61265672Y-167710315D01*
X61409932Y-167720500D01*
X61409936Y-167720500D01*
X64750064Y-167720500D01*
X64750068Y-167720500D01*
X64894328Y-167710315D01*
X65133824Y-167656376D01*
X65361567Y-167564718D01*
X65571657Y-167437714D01*
X65758654Y-167278654D01*
X65758657Y-167278650D01*
X65772517Y-167266861D01*
X65905521Y-167179876D01*
X66055978Y-167128701D01*
X66214435Y-167116550D01*
X66370936Y-167144188D01*
X66515647Y-167209878D01*
X66550187Y-167232729D01*
X66561195Y-167240540D01*
X66810415Y-167397136D01*
X67075589Y-167524837D01*
X67075592Y-167524838D01*
X67075598Y-167524841D01*
X67353409Y-167622051D01*
X67640358Y-167687546D01*
X67932836Y-167720500D01*
X67932841Y-167720500D01*
X69227159Y-167720500D01*
X69227164Y-167720500D01*
X69519642Y-167687546D01*
X69806591Y-167622051D01*
X70084402Y-167524841D01*
X70349583Y-167397137D01*
X70598797Y-167240545D01*
X70828913Y-167057034D01*
X71037034Y-166848913D01*
X71220545Y-166618797D01*
X71377137Y-166369583D01*
X71504841Y-166104402D01*
X71602051Y-165826591D01*
X71667546Y-165539642D01*
X71700500Y-165247164D01*
X71700500Y-164952836D01*
X71667546Y-164660358D01*
X71602051Y-164373409D01*
X71504841Y-164095598D01*
X71377137Y-163830417D01*
X71286760Y-163686584D01*
X71220547Y-163581206D01*
X71214793Y-163573991D01*
X71072285Y-163395290D01*
X71036801Y-163337093D01*
X70999246Y-163280199D01*
X70995513Y-163269375D01*
X70989554Y-163259602D01*
X70969655Y-163194402D01*
X70947431Y-163129961D01*
X70946507Y-163118551D01*
X70943165Y-163107600D01*
X70940107Y-163039503D01*
X70934606Y-162971557D01*
X70936549Y-162960272D01*
X70936036Y-162948838D01*
X70950006Y-162882133D01*
X70961578Y-162814940D01*
X70966266Y-162804493D01*
X70968613Y-162793290D01*
X70998741Y-162732136D01*
X71026652Y-162669951D01*
X71035877Y-162656761D01*
X71038849Y-162650730D01*
X71072286Y-162604708D01*
X71106657Y-162561608D01*
X71220535Y-162450756D01*
X71358403Y-162371707D01*
X71511598Y-162329427D01*
X71602339Y-162322900D01*
X82405862Y-162322900D01*
X82563531Y-162342818D01*
X82711294Y-162401322D01*
X82839865Y-162494734D01*
X82941166Y-162617186D01*
X83008832Y-162760983D01*
X83036809Y-162894756D01*
X83052164Y-163050657D01*
X83052167Y-163050676D01*
X83116185Y-163372525D01*
X83211449Y-163686565D01*
X83211456Y-163686584D01*
X83337029Y-163989747D01*
X83491733Y-164279176D01*
X83491735Y-164279180D01*
X83498830Y-164289797D01*
X85346008Y-162442620D01*
X85393176Y-162406032D01*
X85437953Y-162366557D01*
X85455777Y-162357474D01*
X85471582Y-162345216D01*
X85526362Y-162321510D01*
X85579554Y-162294408D01*
X85599075Y-162290044D01*
X85617434Y-162282100D01*
X85676393Y-162272761D01*
X85734649Y-162259740D01*
X85754642Y-162260368D01*
X85774400Y-162257239D01*
X85833832Y-162262857D01*
X85893493Y-162264732D01*
X85912700Y-162270312D01*
X85932617Y-162272195D01*
X85988785Y-162292417D01*
X86045438Y-162308875D01*
X86039920Y-162314394D01*
X85987259Y-162405606D01*
X85960000Y-162507339D01*
X85960000Y-162612661D01*
X85987259Y-162714394D01*
X86039920Y-162805606D01*
X86114394Y-162880080D01*
X86205606Y-162932741D01*
X86307339Y-162960000D01*
X86412661Y-162960000D01*
X86514394Y-162932741D01*
X86605606Y-162880080D01*
X86607387Y-162878298D01*
X86637899Y-162948805D01*
X86662760Y-163105771D01*
X86647804Y-163263988D01*
X86593971Y-163413515D01*
X86504643Y-163544957D01*
X86477379Y-163573991D01*
X84630201Y-165421168D01*
X84640822Y-165428265D01*
X84640832Y-165428271D01*
X84930256Y-165582971D01*
X85096252Y-165651729D01*
X85234297Y-165730468D01*
X85348424Y-165841064D01*
X85431461Y-165976567D01*
X85478191Y-166128464D01*
X85485678Y-166287210D01*
X85453451Y-166442831D01*
X85383535Y-166585548D01*
X85301938Y-166685775D01*
X80194671Y-171793043D01*
X80063027Y-171974236D01*
X80063026Y-171974237D01*
X79961346Y-172173798D01*
X79892135Y-172386806D01*
X79857100Y-172608017D01*
X79857100Y-189866000D01*
X79837182Y-190023669D01*
X79778678Y-190171432D01*
X79685266Y-190300003D01*
X79562814Y-190401304D01*
X79419017Y-190468970D01*
X79262909Y-190498749D01*
X79223100Y-190500000D01*
X68769190Y-190500000D01*
X68842520Y-190485414D01*
X69006310Y-190417570D01*
X69153717Y-190319076D01*
X69279076Y-190193717D01*
X69377570Y-190046310D01*
X69445414Y-189882520D01*
X69480000Y-189708642D01*
X69480000Y-189531358D01*
X69445414Y-189357480D01*
X69377570Y-189193690D01*
X69279076Y-189046283D01*
X69153717Y-188920924D01*
X69006310Y-188822430D01*
X68842520Y-188754586D01*
X68668642Y-188720000D01*
X68491358Y-188720000D01*
X68317480Y-188754586D01*
X68153690Y-188822430D01*
X68006283Y-188920924D01*
X67880924Y-189046283D01*
X67782430Y-189193690D01*
X67714586Y-189357480D01*
X67680000Y-189531358D01*
X67680000Y-189708642D01*
X67714586Y-189882520D01*
X67782430Y-190046310D01*
X67880924Y-190193717D01*
X68006283Y-190319076D01*
X68153690Y-190417570D01*
X68317480Y-190485414D01*
X68390810Y-190500000D01*
X63269190Y-190500000D01*
X63342520Y-190485414D01*
X63506310Y-190417570D01*
X63653717Y-190319076D01*
X63779076Y-190193717D01*
X63877570Y-190046310D01*
X63945414Y-189882520D01*
X63980000Y-189708642D01*
X63980000Y-189531358D01*
X63945414Y-189357480D01*
X63877570Y-189193690D01*
X63779076Y-189046283D01*
X63653717Y-188920924D01*
X63506310Y-188822430D01*
X63342520Y-188754586D01*
X63168642Y-188720000D01*
X63142018Y-188720000D01*
X63158422Y-188678568D01*
X63251834Y-188549997D01*
X63374286Y-188448696D01*
X63518083Y-188381030D01*
X63674191Y-188351251D01*
X63714000Y-188350000D01*
X72759788Y-188350000D01*
X72759788Y-188349999D01*
X72747028Y-188307934D01*
X72747022Y-188307917D01*
X72600757Y-187954802D01*
X72420586Y-187617726D01*
X72420577Y-187617711D01*
X72208250Y-187299942D01*
X72208236Y-187299923D01*
X71965779Y-187004489D01*
X71755644Y-186794354D01*
X71658240Y-186668780D01*
X71595124Y-186522928D01*
X71570263Y-186365962D01*
X71585219Y-186207745D01*
X71597758Y-186163858D01*
X71597129Y-186163677D01*
X71602050Y-186146594D01*
X71631423Y-186017904D01*
X71667546Y-185859642D01*
X71700500Y-185567164D01*
X71700500Y-185272836D01*
X71667546Y-184980358D01*
X71602051Y-184693409D01*
X71504841Y-184415598D01*
X71377137Y-184150417D01*
X71377136Y-184150415D01*
X71220546Y-183901204D01*
X71220541Y-183901197D01*
X71037042Y-183671096D01*
X71037037Y-183671091D01*
X71037034Y-183671087D01*
X70828913Y-183462966D01*
X70828908Y-183462962D01*
X70828903Y-183462957D01*
X70598802Y-183279458D01*
X70598795Y-183279453D01*
X70349578Y-183122860D01*
X70349576Y-183122859D01*
X70334275Y-183115490D01*
X70200863Y-183029132D01*
X70093120Y-182912309D01*
X70017814Y-182772361D01*
X69983172Y-182643457D01*
X69967864Y-182546803D01*
X69898653Y-182333796D01*
X69796974Y-182134238D01*
X69665327Y-181953043D01*
X69359798Y-181647514D01*
X68236960Y-180524674D01*
X68055763Y-180393027D01*
X68055762Y-180393026D01*
X67964517Y-180346535D01*
X67856204Y-180291347D01*
X67643197Y-180222136D01*
X67643195Y-180222135D01*
X67643193Y-180222135D01*
X67546869Y-180206879D01*
X67421985Y-180187100D01*
X53228015Y-180187100D01*
X53122910Y-180203746D01*
X53006806Y-180222135D01*
X52793798Y-180291346D01*
X52594240Y-180393024D01*
X52413040Y-180524675D01*
X51387605Y-181550109D01*
X51262032Y-181647514D01*
X51116180Y-181710629D01*
X50959214Y-181735490D01*
X50800997Y-181720534D01*
X50651469Y-181666701D01*
X50520028Y-181577373D01*
X50414931Y-181458163D01*
X50342781Y-181316562D01*
X50308114Y-181161467D01*
X50305300Y-181101803D01*
X50305300Y-164978344D01*
X53923900Y-164978344D01*
X53923900Y-165221655D01*
X53955657Y-165462882D01*
X54018631Y-165697903D01*
X54018633Y-165697909D01*
X54111739Y-165922689D01*
X54233399Y-166133409D01*
X54233404Y-166133417D01*
X54381511Y-166326433D01*
X54553566Y-166498488D01*
X54746582Y-166646595D01*
X54746590Y-166646600D01*
X54746593Y-166646602D01*
X54957306Y-166768258D01*
X54957307Y-166768258D01*
X54957310Y-166768260D01*
X55021034Y-166794655D01*
X55182096Y-166861369D01*
X55417116Y-166924342D01*
X55658345Y-166956100D01*
X55901655Y-166956100D01*
X56142884Y-166924342D01*
X56377904Y-166861369D01*
X56602694Y-166768258D01*
X56813407Y-166646602D01*
X56813412Y-166646597D01*
X56813417Y-166646595D01*
X57006433Y-166498488D01*
X57006433Y-166498487D01*
X57006438Y-166498484D01*
X57178484Y-166326438D01*
X57208585Y-166287210D01*
X57326595Y-166133417D01*
X57326600Y-166133409D01*
X57326602Y-166133407D01*
X57448258Y-165922694D01*
X57541369Y-165697904D01*
X57604342Y-165462884D01*
X57636100Y-165221655D01*
X57636100Y-164978345D01*
X57604342Y-164737116D01*
X57541369Y-164502096D01*
X57453432Y-164289797D01*
X57448260Y-164277310D01*
X57343347Y-164095597D01*
X57326602Y-164066593D01*
X57326600Y-164066590D01*
X57326595Y-164066582D01*
X57178488Y-163873566D01*
X57006433Y-163701511D01*
X56813417Y-163553404D01*
X56813409Y-163553399D01*
X56602689Y-163431739D01*
X56377909Y-163338633D01*
X56377908Y-163338632D01*
X56377904Y-163338631D01*
X56291880Y-163315581D01*
X56142882Y-163275657D01*
X55901655Y-163243900D01*
X55658345Y-163243900D01*
X55417117Y-163275657D01*
X55182096Y-163338631D01*
X55182090Y-163338633D01*
X54957310Y-163431739D01*
X54746590Y-163553399D01*
X54746582Y-163553404D01*
X54553566Y-163701511D01*
X54381511Y-163873566D01*
X54233404Y-164066582D01*
X54233399Y-164066590D01*
X54111739Y-164277310D01*
X54018633Y-164502090D01*
X54018631Y-164502096D01*
X53955657Y-164737117D01*
X53923900Y-164978344D01*
X50305300Y-164978344D01*
X50305300Y-152378344D01*
X53923900Y-152378344D01*
X53923900Y-152621655D01*
X53955657Y-152862882D01*
X53976224Y-152939637D01*
X54013576Y-153079040D01*
X54018631Y-153097903D01*
X54018633Y-153097909D01*
X54111739Y-153322689D01*
X54233399Y-153533409D01*
X54233404Y-153533417D01*
X54381511Y-153726433D01*
X54553566Y-153898488D01*
X54746582Y-154046595D01*
X54746590Y-154046600D01*
X54746593Y-154046602D01*
X54957306Y-154168258D01*
X54957307Y-154168258D01*
X54957310Y-154168260D01*
X54980702Y-154177949D01*
X55182096Y-154261369D01*
X55417116Y-154324342D01*
X55658345Y-154356100D01*
X55901655Y-154356100D01*
X56142884Y-154324342D01*
X56377904Y-154261369D01*
X56602694Y-154168258D01*
X56813407Y-154046602D01*
X56813412Y-154046597D01*
X56813417Y-154046595D01*
X57006433Y-153898488D01*
X57006433Y-153898487D01*
X57006438Y-153898484D01*
X57178484Y-153726438D01*
X57211780Y-153683046D01*
X57326595Y-153533417D01*
X57326600Y-153533409D01*
X57326602Y-153533407D01*
X57448258Y-153322694D01*
X57541369Y-153097904D01*
X57604342Y-152862884D01*
X57636100Y-152621655D01*
X57636100Y-152378345D01*
X57604342Y-152137116D01*
X57541369Y-151902096D01*
X57448258Y-151677306D01*
X57326602Y-151466593D01*
X57326600Y-151466590D01*
X57326595Y-151466582D01*
X57178488Y-151273566D01*
X57006433Y-151101511D01*
X56813417Y-150953404D01*
X56813409Y-150953399D01*
X56602689Y-150831739D01*
X56377909Y-150738633D01*
X56377908Y-150738632D01*
X56377904Y-150738631D01*
X56291880Y-150715581D01*
X56142882Y-150675657D01*
X55901655Y-150643900D01*
X55658345Y-150643900D01*
X55417117Y-150675657D01*
X55182096Y-150738631D01*
X55182090Y-150738633D01*
X54957310Y-150831739D01*
X54746590Y-150953399D01*
X54746582Y-150953404D01*
X54553566Y-151101511D01*
X54381511Y-151273566D01*
X54233404Y-151466582D01*
X54233399Y-151466590D01*
X54111739Y-151677310D01*
X54018633Y-151902090D01*
X54018631Y-151902096D01*
X53955657Y-152137117D01*
X53923900Y-152378344D01*
X50305300Y-152378344D01*
X50305300Y-130174000D01*
X50325218Y-130016331D01*
X50383722Y-129868568D01*
X50477134Y-129739997D01*
X50599586Y-129638696D01*
X50743383Y-129571030D01*
X50899491Y-129541251D01*
X50939300Y-129540000D01*
X56012609Y-129540000D01*
X56170278Y-129559918D01*
G37*
%TD.AperFunction*%
%TD*%
%TA.AperFunction,Conductor*%
%TO.N,GND*%
G36*
X146699003Y-163597180D02*
G01*
X146848530Y-163651013D01*
X146979972Y-163740341D01*
X147085069Y-163859550D01*
X147157218Y-164001151D01*
X147191886Y-164156246D01*
X147194700Y-164215911D01*
X147194700Y-185420000D01*
X128166690Y-185420000D01*
X128139790Y-185416601D01*
X128112698Y-185417697D01*
X128061234Y-185406677D01*
X128009021Y-185400082D01*
X127983811Y-185390100D01*
X127957298Y-185384424D01*
X127910187Y-185360950D01*
X127861258Y-185341578D01*
X127839324Y-185325642D01*
X127815055Y-185313550D01*
X127775266Y-185279101D01*
X127732687Y-185248166D01*
X127712553Y-185224805D01*
X127694906Y-185209527D01*
X127645544Y-185147058D01*
X127578504Y-185050292D01*
X127505089Y-184909351D01*
X127469029Y-184754574D01*
X127472594Y-184595691D01*
X127515559Y-184442687D01*
X127595225Y-184305174D01*
X127651340Y-184240943D01*
X134380209Y-177512075D01*
X134505779Y-177414675D01*
X134651631Y-177351559D01*
X134745761Y-177331808D01*
X134755696Y-177330500D01*
X134755708Y-177330500D01*
X135024801Y-177295074D01*
X135286969Y-177224826D01*
X135537724Y-177120960D01*
X135772777Y-176985252D01*
X135988105Y-176820025D01*
X136180025Y-176628105D01*
X136345252Y-176412777D01*
X136480960Y-176177724D01*
X136584826Y-175926969D01*
X136655074Y-175664801D01*
X136690500Y-175395708D01*
X136690500Y-175124292D01*
X136655074Y-174855199D01*
X136584826Y-174593031D01*
X136480960Y-174342276D01*
X136480957Y-174342271D01*
X136480956Y-174342268D01*
X136460598Y-174307008D01*
X136453392Y-174289866D01*
X136443032Y-174274423D01*
X136422683Y-174216817D01*
X136399011Y-174160505D01*
X136396294Y-174142109D01*
X136390100Y-174124574D01*
X136384716Y-174063718D01*
X136375792Y-174003287D01*
X136377735Y-173984793D01*
X136376097Y-173966270D01*
X136386017Y-173905987D01*
X136392402Y-173845235D01*
X136399523Y-173823916D01*
X136401903Y-173809457D01*
X136412875Y-173783946D01*
X136429323Y-173734709D01*
X136443269Y-173703006D01*
X136480960Y-173637724D01*
X136584826Y-173386969D01*
X136588767Y-173372257D01*
X136604505Y-173336484D01*
X136631253Y-173291870D01*
X136654006Y-173245111D01*
X136674203Y-173220233D01*
X136686226Y-173200182D01*
X136707748Y-173178916D01*
X136736520Y-173143479D01*
X146112398Y-163767601D01*
X146237968Y-163670201D01*
X146383820Y-163607085D01*
X146540786Y-163582224D01*
X146699003Y-163597180D01*
G37*
%TD.AperFunction*%
%TD*%
%TA.AperFunction,Conductor*%
%TO.N,GND*%
G36*
X146718369Y-102825218D02*
G01*
X146866132Y-102883722D01*
X146994703Y-102977134D01*
X147096004Y-103099586D01*
X147163670Y-103243383D01*
X147193449Y-103399491D01*
X147194700Y-103439300D01*
X147194700Y-124460000D01*
X144163730Y-124460000D01*
X144068351Y-124395181D01*
X143963254Y-124275971D01*
X143891105Y-124134370D01*
X143875227Y-124083703D01*
X143831317Y-123919833D01*
X143831313Y-123919820D01*
X143793760Y-123829158D01*
X143747193Y-123716735D01*
X143747191Y-123716731D01*
X143747190Y-123716728D01*
X143637290Y-123526376D01*
X143637286Y-123526370D01*
X143637285Y-123526369D01*
X143637283Y-123526365D01*
X143503465Y-123351971D01*
X143348029Y-123196535D01*
X143173635Y-123062717D01*
X143173631Y-123062715D01*
X143173629Y-123062713D01*
X143173623Y-123062709D01*
X142983271Y-122952809D01*
X142983268Y-122952808D01*
X142780179Y-122868686D01*
X142780169Y-122868683D01*
X142567853Y-122811792D01*
X142349910Y-122783100D01*
X142130090Y-122783100D01*
X141912146Y-122811792D01*
X141699830Y-122868683D01*
X141699820Y-122868686D01*
X141496731Y-122952808D01*
X141478117Y-122961988D01*
X141477491Y-122960720D01*
X141351344Y-123013747D01*
X141194126Y-123036961D01*
X141180855Y-123037100D01*
X134201997Y-123037100D01*
X134044328Y-123017182D01*
X133896565Y-122958678D01*
X133767994Y-122865266D01*
X133753691Y-122851406D01*
X126068594Y-115166309D01*
X125971190Y-115040735D01*
X125908074Y-114894883D01*
X125883213Y-114737917D01*
X125882900Y-114718003D01*
X125882900Y-109394667D01*
X125902818Y-109236998D01*
X125961322Y-109089235D01*
X126054734Y-108960664D01*
X126177186Y-108859363D01*
X126320983Y-108791697D01*
X126477091Y-108761918D01*
X126599648Y-108766090D01*
X126861015Y-108800500D01*
X126861016Y-108800500D01*
X127138985Y-108800500D01*
X127414577Y-108764218D01*
X127683075Y-108692274D01*
X127939886Y-108585899D01*
X127953494Y-108578042D01*
X128099986Y-108516458D01*
X128257203Y-108493237D01*
X128415255Y-108509845D01*
X128564212Y-108565236D01*
X128587508Y-108578043D01*
X128600335Y-108585449D01*
X128857087Y-108691799D01*
X128904999Y-108704636D01*
X128905000Y-108704636D01*
X128905000Y-107748167D01*
X128912481Y-107688941D01*
X128916230Y-107629367D01*
X128922770Y-107607498D01*
X128924918Y-107590498D01*
X128936924Y-107560174D01*
X128953268Y-107505527D01*
X128954268Y-107503113D01*
X128971424Y-107473036D01*
X128983422Y-107442735D01*
X129008032Y-107408862D01*
X129033012Y-107365071D01*
X129060321Y-107336891D01*
X129076834Y-107314164D01*
X129104642Y-107291158D01*
X129143612Y-107250948D01*
X129180778Y-107228173D01*
X129199286Y-107212863D01*
X129227205Y-107199725D01*
X129279118Y-107167915D01*
X129324416Y-107153980D01*
X129343083Y-107145197D01*
X129345084Y-107144815D01*
X129347007Y-107145925D01*
X129474174Y-107180000D01*
X129605826Y-107180000D01*
X129732993Y-107145925D01*
X129736243Y-107144048D01*
X129745382Y-107145941D01*
X129816008Y-107180543D01*
X129846432Y-107192589D01*
X129858519Y-107201370D01*
X129888097Y-107215862D01*
X129942942Y-107262707D01*
X129975003Y-107286001D01*
X129986537Y-107299944D01*
X130008939Y-107319078D01*
X130046038Y-107371868D01*
X130076304Y-107408453D01*
X130085534Y-107428067D01*
X130100317Y-107449103D01*
X130125732Y-107503113D01*
X130126732Y-107505527D01*
X130133327Y-107529634D01*
X130143970Y-107552250D01*
X130154227Y-107606021D01*
X130168672Y-107658816D01*
X130171254Y-107695281D01*
X130173749Y-107708358D01*
X130173011Y-107720085D01*
X130175000Y-107748167D01*
X130175000Y-108704636D01*
X130222912Y-108691799D01*
X130479668Y-108585447D01*
X130492497Y-108578041D01*
X130639001Y-108516455D01*
X130796218Y-108493238D01*
X130954271Y-108509849D01*
X131103226Y-108565244D01*
X131126472Y-108578023D01*
X131140114Y-108585899D01*
X131140117Y-108585900D01*
X131140122Y-108585903D01*
X131269450Y-108639472D01*
X131396925Y-108692274D01*
X131665423Y-108764218D01*
X131941015Y-108800500D01*
X132218985Y-108800500D01*
X132494577Y-108764218D01*
X132763075Y-108692274D01*
X132952007Y-108614015D01*
X133019877Y-108585903D01*
X133019878Y-108585902D01*
X133019886Y-108585899D01*
X133033001Y-108578326D01*
X133179500Y-108516743D01*
X133336717Y-108493526D01*
X133494769Y-108510137D01*
X133518273Y-108516126D01*
X133596621Y-108537694D01*
X133680114Y-108585899D01*
X133936925Y-108692274D01*
X134205423Y-108764218D01*
X134481015Y-108800500D01*
X134551275Y-108800500D01*
X134633876Y-108823239D01*
X134702207Y-108851671D01*
X134771035Y-108878922D01*
X134775504Y-108882168D01*
X134780604Y-108884291D01*
X134839719Y-108928824D01*
X134899606Y-108972334D01*
X134907041Y-108979539D01*
X134907539Y-108979914D01*
X134907917Y-108980388D01*
X134913909Y-108986194D01*
X139933806Y-114006090D01*
X140031210Y-114131664D01*
X140094326Y-114277516D01*
X140116635Y-114418371D01*
X140118142Y-114418273D01*
X140119499Y-114438979D01*
X140155781Y-114714573D01*
X140155782Y-114714580D01*
X140227727Y-114983078D01*
X140334099Y-115239882D01*
X140334100Y-115239885D01*
X140341677Y-115253009D01*
X140403260Y-115399515D01*
X140426473Y-115556733D01*
X140409859Y-115714784D01*
X140354460Y-115863739D01*
X140341677Y-115886991D01*
X140334100Y-115900114D01*
X140334099Y-115900117D01*
X140227727Y-116156921D01*
X140155782Y-116425419D01*
X140155781Y-116425426D01*
X140119500Y-116701014D01*
X140119500Y-116978985D01*
X140155781Y-117254573D01*
X140155782Y-117254580D01*
X140227726Y-117523078D01*
X140229356Y-117527011D01*
X140230577Y-117531476D01*
X140234397Y-117542728D01*
X140233718Y-117542958D01*
X140271291Y-117680301D01*
X140273787Y-117839204D01*
X140236687Y-117993735D01*
X140220860Y-118031825D01*
X140185950Y-118108681D01*
X140185946Y-118108692D01*
X140130071Y-118330439D01*
X140130070Y-118330444D01*
X140130070Y-118330447D01*
X140119500Y-118464753D01*
X140119500Y-118464757D01*
X140119500Y-118464763D01*
X140119500Y-120295242D01*
X140119501Y-120295255D01*
X140130069Y-120429546D01*
X140130070Y-120429553D01*
X140185947Y-120651307D01*
X140185949Y-120651315D01*
X140185951Y-120651322D01*
X140280524Y-120859530D01*
X140280528Y-120859536D01*
X140410766Y-121047523D01*
X140572477Y-121209234D01*
X140760464Y-121339472D01*
X140760465Y-121339472D01*
X140760469Y-121339475D01*
X140968677Y-121434048D01*
X140968684Y-121434051D01*
X141190447Y-121489930D01*
X141324753Y-121500500D01*
X143155246Y-121500499D01*
X143289553Y-121489930D01*
X143511316Y-121434051D01*
X143615426Y-121386761D01*
X143719530Y-121339475D01*
X143719531Y-121339474D01*
X143719536Y-121339472D01*
X143907523Y-121209234D01*
X144069234Y-121047523D01*
X144199472Y-120859536D01*
X144294051Y-120651316D01*
X144349930Y-120429553D01*
X144360500Y-120295247D01*
X144360499Y-118464754D01*
X144349930Y-118330447D01*
X144294051Y-118108684D01*
X144259139Y-118031824D01*
X144212071Y-117880041D01*
X144204227Y-117721313D01*
X144236104Y-117565620D01*
X144250641Y-117527015D01*
X144252274Y-117523075D01*
X144324218Y-117254577D01*
X144360500Y-116978985D01*
X144360500Y-116701015D01*
X144324218Y-116425423D01*
X144252274Y-116156925D01*
X144210158Y-116055248D01*
X144145903Y-115900122D01*
X144145900Y-115900117D01*
X144145899Y-115900114D01*
X144138326Y-115886998D01*
X144076743Y-115740500D01*
X144053526Y-115583283D01*
X144070137Y-115425231D01*
X144125532Y-115276275D01*
X144138322Y-115253009D01*
X144145899Y-115239886D01*
X144252274Y-114983075D01*
X144324218Y-114714577D01*
X144360500Y-114438985D01*
X144360500Y-114161015D01*
X144324218Y-113885423D01*
X144252274Y-113616925D01*
X144145899Y-113360114D01*
X144006914Y-113119385D01*
X143837697Y-112898857D01*
X143641143Y-112702303D01*
X143420615Y-112533086D01*
X143179886Y-112394101D01*
X143179882Y-112394099D01*
X143179878Y-112394097D01*
X142923078Y-112287727D01*
X142923076Y-112287726D01*
X142923075Y-112287726D01*
X142870412Y-112273614D01*
X142654580Y-112215782D01*
X142654573Y-112215781D01*
X142378979Y-112179499D01*
X142358273Y-112178142D01*
X142358481Y-112174962D01*
X142236727Y-112159582D01*
X142088964Y-112101078D01*
X141960393Y-112007666D01*
X141946090Y-111993806D01*
X137751626Y-107799341D01*
X137324075Y-107371790D01*
X140543900Y-107371790D01*
X140543900Y-107628210D01*
X140577370Y-107882435D01*
X140643736Y-108130117D01*
X140655922Y-108159536D01*
X140741866Y-108367024D01*
X140870070Y-108589079D01*
X140870072Y-108589082D01*
X140870073Y-108589083D01*
X141026171Y-108792514D01*
X141207486Y-108973829D01*
X141254704Y-109010061D01*
X141410920Y-109129929D01*
X141632975Y-109258133D01*
X141632978Y-109258134D01*
X141632983Y-109258137D01*
X141869883Y-109356264D01*
X142117565Y-109422630D01*
X142371790Y-109456100D01*
X142371791Y-109456100D01*
X142628209Y-109456100D01*
X142628210Y-109456100D01*
X142882435Y-109422630D01*
X143130117Y-109356264D01*
X143367017Y-109258137D01*
X143589083Y-109129927D01*
X143792514Y-108973829D01*
X143973829Y-108792514D01*
X144129927Y-108589083D01*
X144258137Y-108367017D01*
X144356264Y-108130117D01*
X144422630Y-107882435D01*
X144456100Y-107628210D01*
X144456100Y-107371790D01*
X144422630Y-107117565D01*
X144356264Y-106869883D01*
X144258137Y-106632983D01*
X144258134Y-106632978D01*
X144258133Y-106632975D01*
X144129929Y-106410920D01*
X144018285Y-106265423D01*
X143973829Y-106207486D01*
X143792514Y-106026171D01*
X143589083Y-105870073D01*
X143589082Y-105870072D01*
X143589079Y-105870070D01*
X143367024Y-105741866D01*
X143362811Y-105740121D01*
X143130117Y-105643736D01*
X142882435Y-105577370D01*
X142628210Y-105543900D01*
X142371790Y-105543900D01*
X142244677Y-105560635D01*
X142117564Y-105577370D01*
X141869883Y-105643736D01*
X141632975Y-105741866D01*
X141410920Y-105870070D01*
X141207485Y-106026171D01*
X141026171Y-106207485D01*
X140870070Y-106410920D01*
X140741866Y-106632975D01*
X140643736Y-106869883D01*
X140583530Y-107094577D01*
X140577370Y-107117565D01*
X140543900Y-107371790D01*
X137324075Y-107371790D01*
X136926194Y-106973909D01*
X136828790Y-106848335D01*
X136765674Y-106702483D01*
X136743364Y-106561628D01*
X136741858Y-106561727D01*
X136740500Y-106541020D01*
X136740500Y-106541015D01*
X136704218Y-106265423D01*
X136632274Y-105996925D01*
X136531641Y-105753977D01*
X136525902Y-105740121D01*
X136525901Y-105740120D01*
X136525899Y-105740114D01*
X136386914Y-105499385D01*
X136217697Y-105278857D01*
X136021143Y-105082303D01*
X135800615Y-104913086D01*
X135559886Y-104774101D01*
X135559882Y-104774099D01*
X135559878Y-104774097D01*
X135303078Y-104667727D01*
X135303076Y-104667726D01*
X135303075Y-104667726D01*
X135250412Y-104653614D01*
X135034580Y-104595782D01*
X135034573Y-104595781D01*
X134758985Y-104559500D01*
X134481015Y-104559500D01*
X134205426Y-104595781D01*
X134205419Y-104595782D01*
X133936921Y-104667727D01*
X133680117Y-104774099D01*
X133680114Y-104774100D01*
X133666991Y-104781677D01*
X133520485Y-104843260D01*
X133363267Y-104866473D01*
X133205216Y-104849859D01*
X133056261Y-104794460D01*
X133033009Y-104781677D01*
X133019885Y-104774100D01*
X133019882Y-104774099D01*
X132763078Y-104667727D01*
X132763076Y-104667726D01*
X132763075Y-104667726D01*
X132710412Y-104653614D01*
X132494580Y-104595782D01*
X132494573Y-104595781D01*
X132218985Y-104559500D01*
X131941015Y-104559500D01*
X131665426Y-104595781D01*
X131665419Y-104595782D01*
X131396921Y-104667727D01*
X131140117Y-104774099D01*
X131140114Y-104774100D01*
X131126483Y-104781970D01*
X130979976Y-104843550D01*
X130822757Y-104866761D01*
X130664706Y-104850144D01*
X130515752Y-104794744D01*
X130492510Y-104781966D01*
X130479668Y-104774552D01*
X130222909Y-104668199D01*
X130175000Y-104655361D01*
X130175000Y-105611832D01*
X130167518Y-105671057D01*
X130163770Y-105730632D01*
X130157229Y-105752500D01*
X130155082Y-105769501D01*
X130143075Y-105799824D01*
X130126732Y-105854472D01*
X130125732Y-105856886D01*
X130108575Y-105886962D01*
X130096578Y-105917264D01*
X130071967Y-105951136D01*
X130046988Y-105994928D01*
X130019678Y-106023107D01*
X130003166Y-106045835D01*
X129975357Y-106068840D01*
X129936388Y-106109051D01*
X129899221Y-106131825D01*
X129880714Y-106147136D01*
X129852794Y-106160273D01*
X129800882Y-106192084D01*
X129755583Y-106206018D01*
X129736917Y-106214802D01*
X129734913Y-106215184D01*
X129732993Y-106214075D01*
X129605826Y-106180000D01*
X129474174Y-106180000D01*
X129347007Y-106214075D01*
X129343757Y-106215951D01*
X129334618Y-106214058D01*
X129263991Y-106179455D01*
X129233568Y-106167410D01*
X129221480Y-106158628D01*
X129191903Y-106144137D01*
X129137057Y-106097291D01*
X129104997Y-106073998D01*
X129093462Y-106060054D01*
X129071061Y-106040921D01*
X129033961Y-105988130D01*
X129003696Y-105951546D01*
X128994465Y-105931931D01*
X128979683Y-105910896D01*
X128954268Y-105856886D01*
X128953268Y-105854472D01*
X128946672Y-105830364D01*
X128936030Y-105807749D01*
X128925772Y-105753977D01*
X128911328Y-105701183D01*
X128908745Y-105664717D01*
X128906251Y-105651641D01*
X128906988Y-105639913D01*
X128905000Y-105611832D01*
X128905000Y-104655362D01*
X128904999Y-104655361D01*
X128857090Y-104668199D01*
X128600335Y-104774550D01*
X128587495Y-104781964D01*
X128440989Y-104843547D01*
X128283772Y-104866762D01*
X128125720Y-104850149D01*
X127976765Y-104794752D01*
X127953496Y-104781959D01*
X127939881Y-104774098D01*
X127683078Y-104667727D01*
X127683076Y-104667726D01*
X127683075Y-104667726D01*
X127630412Y-104653614D01*
X127414580Y-104595782D01*
X127414573Y-104595781D01*
X127138985Y-104559500D01*
X126861015Y-104559500D01*
X126585426Y-104595781D01*
X126585419Y-104595782D01*
X126316921Y-104667727D01*
X126312979Y-104669360D01*
X126308505Y-104670583D01*
X126297272Y-104674397D01*
X126297042Y-104673719D01*
X126159688Y-104711293D01*
X126000785Y-104713786D01*
X125846255Y-104676684D01*
X125808172Y-104660859D01*
X125731318Y-104625950D01*
X125731319Y-104625950D01*
X125731316Y-104625949D01*
X125731313Y-104625948D01*
X125731307Y-104625946D01*
X125509560Y-104570071D01*
X125509555Y-104570070D01*
X125509553Y-104570070D01*
X125375247Y-104559500D01*
X125375236Y-104559500D01*
X123544757Y-104559500D01*
X123544744Y-104559501D01*
X123410453Y-104570069D01*
X123410450Y-104570069D01*
X123410447Y-104570070D01*
X123188696Y-104625946D01*
X123188684Y-104625949D01*
X123188677Y-104625951D01*
X122980469Y-104720524D01*
X122980463Y-104720528D01*
X122792479Y-104850764D01*
X122630764Y-105012479D01*
X122500528Y-105200463D01*
X122500524Y-105200469D01*
X122405951Y-105408677D01*
X122405946Y-105408692D01*
X122350071Y-105630439D01*
X122350070Y-105630444D01*
X122350070Y-105630447D01*
X122339500Y-105764753D01*
X122339500Y-105764762D01*
X122339500Y-105764763D01*
X122339500Y-107595242D01*
X122339501Y-107595255D01*
X122350069Y-107729546D01*
X122350070Y-107729553D01*
X122383095Y-107860615D01*
X122405949Y-107951315D01*
X122405951Y-107951322D01*
X122500524Y-108159530D01*
X122500528Y-108159536D01*
X122630766Y-108347523D01*
X122792477Y-108509234D01*
X122792480Y-108509236D01*
X122792481Y-108509237D01*
X122809412Y-108523372D01*
X122917682Y-108639708D01*
X122993618Y-108779315D01*
X123032451Y-108933420D01*
X123037100Y-109010061D01*
X123037100Y-115681985D01*
X123071648Y-115900114D01*
X123072136Y-115903196D01*
X123121541Y-116055248D01*
X123121541Y-116055249D01*
X123141343Y-116116193D01*
X123141346Y-116116202D01*
X123243026Y-116315762D01*
X123243027Y-116315763D01*
X123374671Y-116496956D01*
X130102509Y-123224794D01*
X130199913Y-123350368D01*
X130263029Y-123496220D01*
X130287890Y-123653186D01*
X130272934Y-123811403D01*
X130219101Y-123960930D01*
X130129773Y-124092372D01*
X130010564Y-124197469D01*
X129868963Y-124269618D01*
X129713868Y-124304286D01*
X129654203Y-124307100D01*
X124383651Y-124307100D01*
X124225982Y-124287182D01*
X124078219Y-124228678D01*
X123949648Y-124135266D01*
X123848347Y-124012814D01*
X123780681Y-123869017D01*
X123750902Y-123712909D01*
X123760881Y-123554300D01*
X123809991Y-123403156D01*
X123834591Y-123356100D01*
X123860921Y-123310494D01*
X123939068Y-123175140D01*
X124023189Y-122972053D01*
X124080083Y-122759724D01*
X124108775Y-122541785D01*
X124108775Y-122321965D01*
X124080083Y-122104026D01*
X124023189Y-121891697D01*
X123939068Y-121688610D01*
X123939066Y-121688606D01*
X123939065Y-121688603D01*
X123829165Y-121498251D01*
X123829161Y-121498245D01*
X123829160Y-121498244D01*
X123829158Y-121498240D01*
X123695340Y-121323846D01*
X123539904Y-121168410D01*
X123365510Y-121034592D01*
X123175140Y-120924682D01*
X123175138Y-120924681D01*
X123157540Y-120914521D01*
X123030953Y-120818436D01*
X122932239Y-120693890D01*
X122925478Y-120682458D01*
X122915318Y-120664860D01*
X122805408Y-120474490D01*
X122671590Y-120300096D01*
X122516154Y-120144660D01*
X122341760Y-120010842D01*
X122341756Y-120010840D01*
X122341754Y-120010838D01*
X122341748Y-120010834D01*
X122151396Y-119900934D01*
X122151393Y-119900933D01*
X121948304Y-119816811D01*
X121948294Y-119816808D01*
X121735978Y-119759917D01*
X121518035Y-119731225D01*
X121298215Y-119731225D01*
X121080271Y-119759917D01*
X120867955Y-119816808D01*
X120867945Y-119816811D01*
X120664856Y-119900933D01*
X120664853Y-119900934D01*
X120474501Y-120010834D01*
X120474495Y-120010838D01*
X120300096Y-120144660D01*
X120144660Y-120300096D01*
X120010838Y-120474495D01*
X120010834Y-120474501D01*
X119900934Y-120664853D01*
X119900933Y-120664856D01*
X119816811Y-120867945D01*
X119816808Y-120867955D01*
X119759917Y-121080271D01*
X119739040Y-121238852D01*
X119736921Y-121246927D01*
X119736659Y-121255278D01*
X119716780Y-121323700D01*
X119698712Y-121392573D01*
X119694651Y-121399868D01*
X119692321Y-121407890D01*
X119656061Y-121469201D01*
X119621423Y-121531435D01*
X119614462Y-121539541D01*
X119611423Y-121544681D01*
X119558770Y-121604404D01*
X119380000Y-121783174D01*
X119380000Y-102805300D01*
X146560700Y-102805300D01*
X146718369Y-102825218D01*
G37*
%TD.AperFunction*%
%TD*%
%TA.AperFunction,Conductor*%
%TO.N,GND*%
G36*
X142815672Y-127172818D02*
G01*
X142963435Y-127231322D01*
X143092006Y-127324734D01*
X143106309Y-127338594D01*
X144441406Y-128673690D01*
X144538810Y-128799264D01*
X144601926Y-128945115D01*
X144626787Y-129102081D01*
X144627100Y-129121996D01*
X144627100Y-144146000D01*
X144619618Y-144205225D01*
X144615870Y-144264800D01*
X144609689Y-144283822D01*
X144607182Y-144303669D01*
X144585205Y-144359174D01*
X144566760Y-144415944D01*
X144556041Y-144432833D01*
X144548678Y-144451432D01*
X144513589Y-144499726D01*
X144481605Y-144550127D01*
X144467023Y-144563819D01*
X144455266Y-144580003D01*
X144409272Y-144618052D01*
X144365756Y-144658917D01*
X144348225Y-144668554D01*
X144332814Y-144681304D01*
X144278799Y-144706721D01*
X144226491Y-144735478D01*
X144207118Y-144740452D01*
X144189017Y-144748970D01*
X144130378Y-144760155D01*
X144072561Y-144775001D01*
X144042713Y-144776878D01*
X144032909Y-144778749D01*
X143993100Y-144780000D01*
X143192540Y-144780000D01*
X143034871Y-144760082D01*
X142887108Y-144701578D01*
X142758537Y-144608166D01*
X142657236Y-144485714D01*
X142589570Y-144341917D01*
X142580144Y-144310094D01*
X142561316Y-144239830D01*
X142561313Y-144239820D01*
X142558818Y-144233796D01*
X142477193Y-144036735D01*
X142477191Y-144036731D01*
X142477190Y-144036728D01*
X142367290Y-143846376D01*
X142367286Y-143846370D01*
X142367285Y-143846369D01*
X142367283Y-143846365D01*
X142233465Y-143671971D01*
X142078029Y-143516535D01*
X141903635Y-143382717D01*
X141903631Y-143382715D01*
X141903629Y-143382713D01*
X141903623Y-143382709D01*
X141713271Y-143272809D01*
X141713268Y-143272808D01*
X141510179Y-143188686D01*
X141510169Y-143188683D01*
X141297853Y-143131792D01*
X141079910Y-143103100D01*
X140860090Y-143103100D01*
X140642146Y-143131792D01*
X140429830Y-143188683D01*
X140429820Y-143188686D01*
X140226731Y-143272808D01*
X140208117Y-143281988D01*
X140207491Y-143280720D01*
X140081344Y-143333747D01*
X139924126Y-143356961D01*
X139910855Y-143357100D01*
X130174000Y-143357100D01*
X130114774Y-143349618D01*
X130055200Y-143345870D01*
X130036177Y-143339689D01*
X130016331Y-143337182D01*
X129960825Y-143315205D01*
X129904056Y-143296760D01*
X129887166Y-143286041D01*
X129868568Y-143278678D01*
X129820273Y-143243589D01*
X129769873Y-143211605D01*
X129756180Y-143197023D01*
X129739997Y-143185266D01*
X129701947Y-143139272D01*
X129661083Y-143095756D01*
X129651445Y-143078225D01*
X129638696Y-143062814D01*
X129613278Y-143008799D01*
X129584522Y-142956491D01*
X129579547Y-142937118D01*
X129571030Y-142919017D01*
X129559844Y-142860378D01*
X129544999Y-142802561D01*
X129543121Y-142772713D01*
X129541251Y-142762909D01*
X129540000Y-142723100D01*
X129540000Y-142330025D01*
X129559918Y-142172356D01*
X129618422Y-142024593D01*
X129711834Y-141896022D01*
X129834286Y-141794721D01*
X129978083Y-141727055D01*
X130009888Y-141717633D01*
X130206969Y-141664826D01*
X130457724Y-141560960D01*
X130692777Y-141425252D01*
X130908105Y-141260025D01*
X131100025Y-141068105D01*
X131265252Y-140852777D01*
X131400960Y-140617724D01*
X131504826Y-140366969D01*
X131575074Y-140104801D01*
X131610500Y-139835708D01*
X131610500Y-139564292D01*
X131575074Y-139295199D01*
X131504826Y-139033031D01*
X131400960Y-138782276D01*
X131265252Y-138547223D01*
X131100025Y-138331895D01*
X130908105Y-138139975D01*
X130692778Y-137974749D01*
X130692779Y-137974749D01*
X130457727Y-137839041D01*
X130206964Y-137735172D01*
X130009906Y-137682370D01*
X129862764Y-137622322D01*
X129735179Y-137527568D01*
X129635166Y-137404061D01*
X129569011Y-137259563D01*
X129540869Y-137103152D01*
X129540000Y-137069974D01*
X129540000Y-134710025D01*
X129559918Y-134552356D01*
X129618422Y-134404593D01*
X129711834Y-134276022D01*
X129834286Y-134174721D01*
X129978083Y-134107055D01*
X130009888Y-134097633D01*
X130206969Y-134044826D01*
X130457724Y-133940960D01*
X130692777Y-133805252D01*
X130908105Y-133640025D01*
X131100025Y-133448105D01*
X131265252Y-133232777D01*
X131400960Y-132997724D01*
X131504826Y-132746969D01*
X131575074Y-132484801D01*
X131610500Y-132215708D01*
X131610500Y-131944292D01*
X131575074Y-131675199D01*
X131504826Y-131413031D01*
X131400960Y-131162276D01*
X131265252Y-130927223D01*
X131100025Y-130711895D01*
X130908105Y-130519975D01*
X130692778Y-130354749D01*
X130692779Y-130354749D01*
X130457727Y-130219041D01*
X130206964Y-130115172D01*
X130009906Y-130062370D01*
X129862764Y-130002322D01*
X129735179Y-129907568D01*
X129635166Y-129784061D01*
X129569011Y-129639563D01*
X129540869Y-129483152D01*
X129540000Y-129449974D01*
X129540000Y-127786900D01*
X129559918Y-127629231D01*
X129618422Y-127481468D01*
X129711834Y-127352897D01*
X129834286Y-127251596D01*
X129978083Y-127183930D01*
X130134191Y-127154151D01*
X130174000Y-127152900D01*
X142658003Y-127152900D01*
X142815672Y-127172818D01*
G37*
%TD.AperFunction*%
%TA.AperFunction,Conductor*%
G36*
X147194700Y-125871804D02*
G01*
X147174782Y-126029473D01*
X147116278Y-126177236D01*
X147022866Y-126305807D01*
X146900414Y-126407108D01*
X146756617Y-126474774D01*
X146600509Y-126504553D01*
X146441900Y-126494574D01*
X146290756Y-126445464D01*
X146156573Y-126360309D01*
X146112394Y-126320110D01*
X145664088Y-125871804D01*
X144436957Y-124644672D01*
X144255762Y-124513026D01*
X144255760Y-124513025D01*
X144255756Y-124513022D01*
X144199793Y-124484508D01*
X144163731Y-124460000D01*
X147194700Y-124460000D01*
X147194700Y-125871804D01*
G37*
%TD.AperFunction*%
%TD*%
M02*
