M48
; DRILL file {KiCad 9.0.0} date 2025-09-27T10:55:12-0400
; FORMAT={-:-/ absolute / metric / decimal}
; #@! TF.CreationDate,2025-09-27T10:55:12-04:00
; #@! TF.GenerationSoftware,Kicad,Pcbnew,9.0.0
; #@! TF.FileFunction,MixedPlating,1,4
FMAT,2
METRIC
; #@! TA.AperFunction,Plated,PTH,ViaDrill
T1C0.400
; #@! TA.AperFunction,Plated,PTH,ComponentDrill
T2C0.800
; #@! TA.AperFunction,Plated,PTH,ComponentDrill
T3C0.920
; #@! TA.AperFunction,Plated,PTH,ComponentDrill
T4C1.000
; #@! TA.AperFunction,Plated,PTH,ComponentDrill
T5C1.200
; #@! TA.AperFunction,Plated,PTH,ComponentDrill
T6C1.300
; #@! TA.AperFunction,Plated,PTH,ComponentDrill
T7C1.800
; #@! TA.AperFunction,Plated,PTH,ComponentDrill
T8C2.330
; #@! TA.AperFunction,NonPlated,NPTH,ComponentDrill
T9C3.000
; #@! TA.AperFunction,NonPlated,NPTH,ComponentDrill
T10C3.200
%
G90
G05
T1
X30.48Y-180.34
X30.48Y-185.42
X30.48Y-190.5
X35.56Y-110.49
X35.56Y-182.88
X35.56Y-187.96
X37.965Y-95.268
X37.965Y-96.538
X38.1Y-110.49
X38.1Y-147.32
X39.489Y-94.506
X40.64Y-175.26
X40.64Y-180.34
X40.64Y-185.42
X40.64Y-190.5
X40.759Y-94.506
X42.283Y-95.268
X42.283Y-96.538
X43.18Y-147.32
X45.72Y-182.88
X45.72Y-187.96
X46.22Y-94.125
X46.22Y-95.395
X46.22Y-103.015
X46.22Y-104.285
X46.22Y-105.555
X46.22Y-106.825
X46.22Y-108.095
X46.99Y-139.7
X47.49Y-94.125
X47.49Y-95.395
X47.49Y-103.015
X47.49Y-104.285
X47.49Y-105.555
X47.49Y-106.825
X47.49Y-108.095
X48.26Y-132.08
X50.165Y-132.08
X50.8Y-170.18
X50.8Y-180.34
X50.8Y-185.42
X50.8Y-190.5
X51.935Y-94.125
X51.935Y-95.395
X53.967Y-99.84
X55.88Y-118.11
X55.88Y-119.38
X55.88Y-182.88
X55.88Y-187.96
X59.69Y-116.84
X60.325Y-92.71
X60.96Y-116.84
X60.96Y-160.02
X60.96Y-165.1
X62.23Y-92.71
X62.23Y-94.615
X66.04Y-162.56
X66.04Y-167.64
X66.04Y-182.88
X68.58Y-78.74
X68.58Y-83.82
X68.58Y-87.63
X71.12Y-87.63
X71.12Y-109.22
X71.12Y-134.62
X71.12Y-165.1
X71.12Y-170.18
X71.12Y-180.34
X71.12Y-185.42
X71.12Y-190.5
X73.66Y-81.28
X73.66Y-88.9
X73.66Y-109.22
X76.065Y-97.642
X76.2Y-88.9
X76.2Y-152.4
X76.2Y-157.48
X76.2Y-182.88
X76.2Y-187.96
X78.74Y-78.74
X78.74Y-83.82
X78.74Y-88.9
X81.28Y-87.63
X81.28Y-214.63
X83.82Y-81.28
X83.82Y-87.63
X83.82Y-213.36
X86.36Y-90.17
X86.36Y-96.52
X86.36Y-101.6
X86.36Y-106.68
X86.36Y-139.7
X86.36Y-142.24
X86.36Y-144.78
X86.36Y-213.36
X88.9Y-78.74
X88.9Y-83.82
X88.9Y-99.06
X88.9Y-104.14
X88.9Y-213.36
X91.44Y-96.52
X91.44Y-101.6
X91.44Y-106.68
X93.98Y-81.28
X93.98Y-86.36
X93.98Y-99.06
X93.98Y-104.14
X93.98Y-139.7
X93.98Y-140.97
X93.98Y-144.78
X96.52Y-96.52
X96.52Y-101.6
X96.52Y-106.68
X99.06Y-78.74
X99.06Y-83.82
X99.06Y-88.9
X99.06Y-132.08
X99.06Y-134.62
X100.33Y-193.04
X100.33Y-205.74
X104.14Y-81.28
X104.14Y-86.36
X104.14Y-91.44
X104.14Y-96.52
X104.14Y-127.0
X104.14Y-132.08
X106.68Y-198.12
X107.95Y-198.12
X109.22Y-78.74
X109.22Y-83.82
X109.22Y-88.9
X109.22Y-93.98
X109.22Y-99.06
X109.22Y-104.14
X111.76Y-213.36
X114.3Y-81.28
X114.3Y-86.36
X114.3Y-91.44
X114.3Y-96.52
X116.84Y-213.36
X119.38Y-78.74
X119.38Y-83.82
X119.38Y-88.9
X119.38Y-93.98
X119.38Y-99.06
X119.38Y-104.14
X119.38Y-142.24
X120.65Y-142.24
X123.19Y-204.47
X124.46Y-81.28
X124.46Y-86.36
X124.46Y-91.44
X124.46Y-96.52
X124.46Y-127.0
X129.54Y-137.16
X130.81Y-179.07
X132.08Y-140.97
X132.08Y-144.78
X132.08Y-200.66
X134.62Y-161.29
X134.62Y-184.15
X135.89Y-161.29
X137.16Y-127.0
X137.16Y-137.16
X137.16Y-140.97
X138.43Y-163.83
X138.43Y-179.07
X139.7Y-163.83
X139.7Y-195.58
X139.7Y-203.2
X139.7Y-210.82
X147.32Y-187.96
X147.32Y-195.58
X147.32Y-203.2
X147.32Y-210.82
X154.94Y-187.96
X154.94Y-195.58
X154.94Y-203.2
X154.94Y-210.82
X157.48Y-168.91
X158.75Y-168.91
X160.02Y-127.0
X161.29Y-200.66
X161.29Y-203.2
X161.29Y-205.777
X161.29Y-208.28
X162.56Y-187.96
X162.56Y-195.58
X162.56Y-212.09
X163.83Y-200.66
X163.83Y-203.2
X163.83Y-205.74
X163.83Y-208.28
X165.1Y-130.81
X165.1Y-149.86
X166.37Y-200.66
X166.37Y-203.2
X166.37Y-205.74
X166.37Y-208.28
X167.64Y-147.32
X167.64Y-212.09
X168.91Y-200.66
X168.91Y-203.2
X168.91Y-205.74
X170.18Y-157.48
X170.18Y-172.72
X170.18Y-180.34
X170.18Y-187.96
X170.18Y-195.58
X171.45Y-200.66
X171.45Y-203.2
X176.53Y-146.05
X176.53Y-147.32
X177.8Y-165.1
X177.8Y-172.72
X177.8Y-180.34
X177.8Y-187.96
X177.8Y-203.2
X177.8Y-205.74
X177.8Y-208.28
X177.8Y-210.82
X177.8Y-213.36
X177.8Y-215.9
X177.8Y-218.44
X177.8Y-220.98
X177.8Y-226.06
X180.34Y-134.62
X181.61Y-121.92
X182.88Y-121.92
X182.88Y-137.16
X184.15Y-137.16
X185.42Y-157.48
X185.42Y-177.8
X185.42Y-187.96
X185.42Y-203.2
X185.42Y-210.82
X186.69Y-121.92
X186.69Y-140.97
X186.69Y-142.24
X187.96Y-121.92
X187.96Y-134.62
X189.23Y-128.27
X189.23Y-129.54
X189.23Y-134.62
X190.5Y-129.54
X190.5Y-134.62
X193.04Y-203.2
X193.04Y-210.82
T2
X39.255Y-91.585
X41.755Y-91.585
X53.245Y-105.555
X55.745Y-105.555
X66.04Y-132.08
X66.04Y-134.62
X66.04Y-137.16
X66.04Y-139.7
X73.66Y-132.08
X73.66Y-134.62
X73.66Y-137.16
X73.66Y-139.7
X78.74Y-133.39
X78.74Y-135.89
X78.74Y-210.82
X78.74Y-218.44
X81.28Y-210.82
X81.28Y-218.44
X83.82Y-210.82
X83.82Y-218.44
X86.36Y-210.82
X86.36Y-218.44
X88.9Y-132.08
X88.9Y-134.62
X88.9Y-137.16
X88.9Y-139.7
X88.9Y-142.24
X88.9Y-144.78
X88.9Y-147.32
X88.9Y-149.86
X88.9Y-152.4
X88.9Y-210.82
X88.9Y-218.44
X91.44Y-210.82
X91.44Y-218.44
X93.98Y-127.0
X93.98Y-210.82
X93.98Y-218.44
X96.48Y-127.0
X96.52Y-132.08
X96.52Y-134.62
X96.52Y-137.16
X96.52Y-139.7
X96.52Y-142.24
X96.52Y-144.78
X96.52Y-147.32
X96.52Y-149.86
X96.52Y-152.4
X99.06Y-215.94
X99.06Y-218.44
X106.68Y-210.82
X106.68Y-218.44
X109.22Y-210.82
X109.22Y-218.44
X111.76Y-210.82
X111.76Y-218.44
X114.3Y-210.82
X114.3Y-218.44
X116.84Y-210.82
X116.84Y-218.44
X119.38Y-210.82
X119.38Y-218.44
X121.92Y-210.82
X121.92Y-218.44
X127.0Y-137.16
X127.0Y-139.7
X127.0Y-142.24
X127.0Y-144.78
X127.0Y-215.94
X127.0Y-218.44
X134.62Y-137.16
X134.62Y-139.7
X134.62Y-142.24
X134.62Y-144.78
X134.66Y-132.08
X137.16Y-132.08
X162.56Y-127.0
X162.56Y-129.54
X162.56Y-132.08
X162.56Y-134.62
X162.56Y-137.16
X162.56Y-139.7
X162.56Y-142.24
X162.56Y-144.78
X162.56Y-147.32
X162.56Y-149.86
X162.6Y-121.92
X165.04Y-99.06
X165.1Y-121.92
X167.54Y-99.06
X170.18Y-127.0
X170.18Y-129.54
X170.18Y-132.08
X170.18Y-134.62
X170.18Y-137.16
X170.18Y-139.7
X170.18Y-142.24
X170.18Y-144.78
X170.18Y-147.32
X170.18Y-149.86
T3
X36.735Y-157.48
X36.735Y-159.98
X38.735Y-157.48
X38.735Y-159.98
T4
X38.1Y-172.72
X40.64Y-172.72
X48.26Y-172.72
X50.8Y-172.72
X55.88Y-132.08
X55.88Y-134.62
X71.12Y-106.68
X73.66Y-106.68
X76.2Y-106.68
X78.74Y-106.68
X83.82Y-182.88
X86.36Y-182.88
X88.9Y-182.88
X111.76Y-134.62
X119.38Y-134.62
X134.62Y-177.8
X134.62Y-180.34
X134.62Y-215.9
X154.88Y-99.06
X157.42Y-99.06
X162.5Y-86.36
X165.04Y-86.36
X167.58Y-86.36
X170.12Y-86.36
X172.66Y-86.36
X182.88Y-140.955
X182.88Y-143.495
X182.88Y-146.035
T5
X96.52Y-193.04
X96.52Y-205.74
X104.14Y-123.19
X104.14Y-135.89
X119.38Y-204.47
X121.92Y-127.0
X132.08Y-204.47
X134.62Y-127.0
X154.94Y-106.68
X154.94Y-114.3
X167.64Y-106.68
X167.64Y-114.3
T6
X134.76Y-93.98
X134.76Y-98.98
X147.26Y-93.98
X147.26Y-98.98
T7
X37.68Y-129.54
X37.68Y-133.74
X37.68Y-137.94
X37.68Y-142.14
X37.68Y-202.42
X37.68Y-206.62
X37.68Y-210.82
X43.18Y-129.54
X43.18Y-133.74
X43.18Y-137.94
X43.18Y-142.14
X43.18Y-202.42
X43.18Y-206.62
X43.18Y-210.82
T8
X34.025Y-152.71
X34.025Y-164.75
T9
X30.38Y-129.54
X30.38Y-142.14
X30.38Y-202.42
X30.38Y-210.82
T10
X32.5Y-82.5
X32.5Y-222.5
X190.0Y-82.5
X190.0Y-222.5
M30
