%TF.GenerationSoftware,KiCad,Pcbnew,9.0.0*%
%TF.CreationDate,2025-10-01T16:31:20-04:00*%
%TF.ProjectId,can_gauge_interface,63616e5f-6761-4756-9765-5f696e746572,0.2*%
%TF.SameCoordinates,Original*%
%TF.FileFunction,Soldermask,Top*%
%TF.FilePolarity,Negative*%
%FSLAX46Y46*%
G04 Gerber Fmt 4.6, Leading zero omitted, Abs format (unit mm)*
G04 Created by KiCad (PCBNEW 9.0.0) date 2025-10-01 16:31:20*
%MOMM*%
%LPD*%
G01*
G04 APERTURE LIST*
G04 Aperture macros list*
%AMRoundRect*
0 Rectangle with rounded corners*
0 $1 Rounding radius*
0 $2 $3 $4 $5 $6 $7 $8 $9 X,Y pos of 4 corners*
0 Add a 4 corners polygon primitive as box body*
4,1,4,$2,$3,$4,$5,$6,$7,$8,$9,$2,$3,0*
0 Add four circle primitives for the rounded corners*
1,1,$1+$1,$2,$3*
1,1,$1+$1,$4,$5*
1,1,$1+$1,$6,$7*
1,1,$1+$1,$8,$9*
0 Add four rect primitives between the rounded corners*
20,1,$1+$1,$2,$3,$4,$5,0*
20,1,$1+$1,$4,$5,$6,$7,0*
20,1,$1+$1,$6,$7,$8,$9,0*
20,1,$1+$1,$8,$9,$2,$3,0*%
G04 Aperture macros list end*
%ADD10C,3.076000*%
%ADD11RoundRect,0.257038X1.630962X-1.130962X1.630962X1.130962X-1.630962X1.130962X-1.630962X-1.130962X0*%
%ADD12O,3.776000X2.776000*%
%ADD13RoundRect,0.102000X-0.704000X0.704000X-0.704000X-0.704000X0.704000X-0.704000X0.704000X0.704000X0*%
%ADD14C,1.612000*%
%ADD15C,3.520000*%
%ADD16RoundRect,0.038000X-0.850000X-0.850000X0.850000X-0.850000X0.850000X0.850000X-0.850000X0.850000X0*%
%ADD17RoundRect,0.266521X-0.346479X-0.671479X0.346479X-0.671479X0.346479X0.671479X-0.346479X0.671479X0*%
%ADD18RoundRect,0.269000X0.269000X0.494000X-0.269000X0.494000X-0.269000X-0.494000X0.269000X-0.494000X0*%
%ADD19RoundRect,0.038000X0.850000X-0.850000X0.850000X0.850000X-0.850000X0.850000X-0.850000X-0.850000X0*%
%ADD20O,1.776000X1.776000*%
%ADD21C,3.276000*%
%ADD22C,1.676000*%
%ADD23O,1.676000X1.676000*%
%ADD24RoundRect,0.265833X-0.872167X-0.372167X0.872167X-0.372167X0.872167X0.372167X-0.872167X0.372167X0*%
%ADD25RoundRect,0.253273X-2.984727X-2.684727X2.984727X-2.684727X2.984727X2.684727X-2.984727X2.684727X0*%
%ADD26RoundRect,0.244000X-0.269000X0.244000X-0.269000X-0.244000X0.269000X-0.244000X0.269000X0.244000X0*%
%ADD27RoundRect,0.268536X-0.281964X-0.469464X0.281964X-0.469464X0.281964X0.469464X-0.281964X0.469464X0*%
%ADD28RoundRect,0.038000X0.850000X0.850000X-0.850000X0.850000X-0.850000X-0.850000X0.850000X-0.850000X0*%
%ADD29RoundRect,0.244000X-0.244000X-0.269000X0.244000X-0.269000X0.244000X0.269000X-0.244000X0.269000X0*%
%ADD30RoundRect,0.038000X2.700000X-2.450000X2.700000X2.450000X-2.700000X2.450000X-2.700000X-2.450000X0*%
%ADD31RoundRect,0.268536X-0.469464X0.281964X-0.469464X-0.281964X0.469464X-0.281964X0.469464X0.281964X0*%
%ADD32RoundRect,0.038000X-0.850000X0.850000X-0.850000X-0.850000X0.850000X-0.850000X0.850000X0.850000X0*%
%ADD33O,3.276000X1.976000*%
%ADD34RoundRect,0.266521X-0.671479X0.346479X-0.671479X-0.346479X0.671479X-0.346479X0.671479X0.346479X0*%
%ADD35RoundRect,0.261875X-0.576125X0.576125X-0.576125X-0.576125X0.576125X-0.576125X0.576125X0.576125X0*%
%ADD36RoundRect,0.260556X0.677444X-1.027444X0.677444X1.027444X-0.677444X1.027444X-0.677444X-1.027444X0*%
%ADD37RoundRect,0.261875X0.576125X0.576125X-0.576125X0.576125X-0.576125X-0.576125X0.576125X-0.576125X0*%
%ADD38RoundRect,0.261875X-0.576125X-0.576125X0.576125X-0.576125X0.576125X0.576125X-0.576125X0.576125X0*%
%ADD39RoundRect,0.269000X-0.269000X-0.494000X0.269000X-0.494000X0.269000X0.494000X-0.269000X0.494000X0*%
%ADD40RoundRect,0.038000X-0.305000X0.955000X-0.305000X-0.955000X0.305000X-0.955000X0.305000X0.955000X0*%
%ADD41RoundRect,0.038000X-0.775000X0.602500X-0.775000X-0.602500X0.775000X-0.602500X0.775000X0.602500X0*%
%ADD42RoundRect,0.261875X0.576125X-0.576125X0.576125X0.576125X-0.576125X0.576125X-0.576125X-0.576125X0*%
%ADD43RoundRect,0.266521X0.671479X-0.346479X0.671479X0.346479X-0.671479X0.346479X-0.671479X-0.346479X0*%
%ADD44RoundRect,0.266521X0.346479X0.671479X-0.346479X0.671479X-0.346479X-0.671479X0.346479X-0.671479X0*%
G04 APERTURE END LIST*
D10*
%TO.C,J3*%
X55780000Y-193820000D03*
X55780000Y-185420000D03*
D11*
X63080000Y-193820000D03*
D12*
X63080000Y-189620000D03*
X63080000Y-185420000D03*
X68580000Y-193820000D03*
X68580000Y-189620000D03*
X68580000Y-185420000D03*
%TD*%
D10*
%TO.C,J2*%
X55780000Y-165100000D03*
X55780000Y-152500000D03*
D11*
X63080000Y-165100000D03*
D12*
X63080000Y-160900000D03*
X63080000Y-156700000D03*
X63080000Y-152500000D03*
X68580000Y-165100000D03*
X68580000Y-160900000D03*
X68580000Y-156700000D03*
X68580000Y-152500000D03*
%TD*%
D13*
%TO.C,J1*%
X64770000Y-137160000D03*
D14*
X64770000Y-134660000D03*
X62770000Y-134660000D03*
X62770000Y-137160000D03*
D15*
X60070000Y-129890000D03*
X60070000Y-141930000D03*
%TD*%
D16*
%TO.C,J7*%
X124460000Y-129540000D03*
%TD*%
D17*
%TO.C,C9*%
X102714000Y-119634000D03*
X105664000Y-119634000D03*
%TD*%
D18*
%TO.C,C7*%
X63180000Y-111760000D03*
X61280000Y-111760000D03*
%TD*%
D19*
%TO.C,J9*%
X81280000Y-127000000D03*
D20*
X83820000Y-127000000D03*
X86360000Y-127000000D03*
X88900000Y-127000000D03*
%TD*%
D21*
%TO.C,H1*%
X55000000Y-202500000D03*
%TD*%
D17*
%TO.C,C19*%
X133448000Y-199644000D03*
X136398000Y-199644000D03*
%TD*%
D22*
%TO.C,R10*%
X93980000Y-189230000D03*
D23*
X86360000Y-189230000D03*
%TD*%
D17*
%TO.C,C18*%
X133448000Y-188849000D03*
X136398000Y-188849000D03*
%TD*%
D24*
%TO.C,U6*%
X101854000Y-112014000D03*
D25*
X108154000Y-114294000D03*
D24*
X101854000Y-116574000D03*
%TD*%
D22*
%TO.C,C16*%
X95250000Y-198120000D03*
X95250000Y-200620000D03*
%TD*%
D21*
%TO.C,H2*%
X142500000Y-202500000D03*
%TD*%
D26*
%TO.C,C4*%
X62865000Y-114655000D03*
X62865000Y-116205000D03*
%TD*%
D27*
%TO.C,R1*%
X62310000Y-105410000D03*
X64135000Y-105410000D03*
%TD*%
D28*
%TO.C,JP2*%
X80010000Y-157480000D03*
D20*
X80010000Y-154940000D03*
%TD*%
D29*
%TO.C,C6*%
X62585000Y-108585000D03*
X64135000Y-108585000D03*
%TD*%
D30*
%TO.C,L1*%
X82550000Y-120200000D03*
X82550000Y-108400000D03*
%TD*%
D21*
%TO.C,H4*%
X55000000Y-107500000D03*
%TD*%
D31*
%TO.C,R2*%
X55245000Y-114380000D03*
X55245000Y-116205000D03*
%TD*%
D22*
%TO.C,R6*%
X106680000Y-161290000D03*
D23*
X114300000Y-161290000D03*
%TD*%
D32*
%TO.C,J8*%
X125730000Y-186690000D03*
D20*
X123190000Y-186690000D03*
%TD*%
D33*
%TO.C,SW1*%
X114300000Y-173910000D03*
X101800000Y-173910000D03*
X114300000Y-168910000D03*
X101800000Y-168910000D03*
%TD*%
D34*
%TO.C,C3*%
X69850000Y-108810000D03*
X69850000Y-111760000D03*
%TD*%
D16*
%TO.C,J6*%
X104140000Y-142240000D03*
%TD*%
D22*
%TO.C,R9*%
X129540000Y-139700000D03*
D23*
X129540000Y-132080000D03*
%TD*%
D28*
%TO.C,JP1*%
X142240000Y-119380000D03*
D20*
X142240000Y-116840000D03*
X142240000Y-114300000D03*
%TD*%
D35*
%TO.C,U8*%
X91440000Y-193040000D03*
D22*
X88900000Y-193040000D03*
X86360000Y-193040000D03*
X83820000Y-193040000D03*
X81280000Y-193040000D03*
X78740000Y-193040000D03*
X76200000Y-193040000D03*
X76200000Y-200660000D03*
X78740000Y-200660000D03*
X81280000Y-200660000D03*
X83820000Y-200660000D03*
X86360000Y-200660000D03*
X88900000Y-200660000D03*
X91440000Y-200660000D03*
%TD*%
D36*
%TO.C,D1*%
X73025000Y-121475000D03*
X73025000Y-117475000D03*
%TD*%
D31*
%TO.C,R3*%
X59055000Y-114380000D03*
X59055000Y-116205000D03*
%TD*%
D37*
%TO.C,U3*%
X93980000Y-162560000D03*
D22*
X93980000Y-160020000D03*
X93980000Y-157480000D03*
X93980000Y-154940000D03*
X86360000Y-154940000D03*
X86360000Y-157480000D03*
X86360000Y-160020000D03*
X86360000Y-162560000D03*
%TD*%
%TO.C,R7*%
X96520000Y-138430000D03*
D23*
X104140000Y-138430000D03*
%TD*%
D34*
%TO.C,C5*%
X73660000Y-108810000D03*
X73660000Y-111760000D03*
%TD*%
D19*
%TO.C,J4*%
X124460000Y-106680000D03*
D20*
X127000000Y-106680000D03*
X129540000Y-106680000D03*
X132080000Y-106680000D03*
X134620000Y-106680000D03*
%TD*%
D22*
%TO.C,C14*%
X97790000Y-159980000D03*
X97790000Y-157480000D03*
%TD*%
D19*
%TO.C,J5*%
X110490000Y-129540000D03*
D20*
X113030000Y-129540000D03*
X115570000Y-129540000D03*
%TD*%
D17*
%TO.C,C8*%
X102714000Y-108839000D03*
X105664000Y-108839000D03*
%TD*%
D16*
%TO.C,J10*%
X124460000Y-198120000D03*
%TD*%
D38*
%TO.C,U1*%
X127000000Y-152400000D03*
D22*
X127000000Y-154940000D03*
X127000000Y-157480000D03*
X127000000Y-160020000D03*
X127000000Y-162560000D03*
X127000000Y-165100000D03*
X127000000Y-167640000D03*
X127000000Y-170180000D03*
X127000000Y-172720000D03*
X127000000Y-175260000D03*
X134620000Y-175260000D03*
X134620000Y-172720000D03*
X134620000Y-170180000D03*
X134620000Y-167640000D03*
X134620000Y-165100000D03*
X134620000Y-162560000D03*
X134620000Y-160020000D03*
X134620000Y-157480000D03*
X134620000Y-154940000D03*
X134620000Y-152400000D03*
%TD*%
D39*
%TO.C,C2*%
X72710000Y-125095000D03*
X74610000Y-125095000D03*
%TD*%
D40*
%TO.C,U5*%
X69215000Y-114855000D03*
X67945000Y-114855000D03*
X66675000Y-114855000D03*
X65405000Y-114855000D03*
X65405000Y-120415000D03*
X66675000Y-120415000D03*
X67945000Y-120415000D03*
X69215000Y-120415000D03*
D41*
X68085000Y-117032500D03*
X66535000Y-117032500D03*
X68085000Y-118237500D03*
X66535000Y-118237500D03*
%TD*%
D22*
%TO.C,C12*%
X119380000Y-161290000D03*
X119380000Y-163790000D03*
%TD*%
%TO.C,C17*%
X118110000Y-198120000D03*
X118110000Y-200620000D03*
%TD*%
D31*
%TO.C,R8*%
X74930000Y-154027500D03*
X74930000Y-155852500D03*
%TD*%
D22*
%TO.C,C10*%
X129540000Y-148590000D03*
X132040000Y-148590000D03*
%TD*%
D21*
%TO.C,H3*%
X142500000Y-107500000D03*
%TD*%
D22*
%TO.C,C13*%
X101600000Y-146050000D03*
X104100000Y-146050000D03*
%TD*%
%TO.C,R11*%
X116840000Y-189230000D03*
D23*
X109220000Y-189230000D03*
%TD*%
D42*
%TO.C,U2*%
X101600000Y-157480000D03*
D22*
X104140000Y-157480000D03*
X106680000Y-157480000D03*
X109220000Y-157480000D03*
X111760000Y-157480000D03*
X114300000Y-157480000D03*
X116840000Y-157480000D03*
X119380000Y-157480000D03*
X121920000Y-157480000D03*
X121920000Y-149860000D03*
X119380000Y-149860000D03*
X116840000Y-149860000D03*
X114300000Y-149860000D03*
X111760000Y-149860000D03*
X109220000Y-149860000D03*
X106680000Y-149860000D03*
X104140000Y-149860000D03*
X101600000Y-149860000D03*
%TD*%
D43*
%TO.C,C11*%
X137160000Y-157890000D03*
X137160000Y-154940000D03*
%TD*%
D35*
%TO.C,U4*%
X121920000Y-134620000D03*
D22*
X119380000Y-134620000D03*
X116840000Y-134620000D03*
X114300000Y-134620000D03*
X114300000Y-142240000D03*
X116840000Y-142240000D03*
X119380000Y-142240000D03*
X121920000Y-142240000D03*
%TD*%
D24*
%TO.C,U7*%
X132588000Y-192024000D03*
D25*
X138888000Y-194304000D03*
D24*
X132588000Y-196584000D03*
%TD*%
D44*
%TO.C,C1*%
X68580000Y-123825000D03*
X65630000Y-123825000D03*
%TD*%
D22*
%TO.C,C15*%
X125730000Y-137200000D03*
X125730000Y-139700000D03*
%TD*%
D35*
%TO.C,U9*%
X114300000Y-193040000D03*
D22*
X111760000Y-193040000D03*
X109220000Y-193040000D03*
X106680000Y-193040000D03*
X104140000Y-193040000D03*
X101600000Y-193040000D03*
X99060000Y-193040000D03*
X99060000Y-200660000D03*
X101600000Y-200660000D03*
X104140000Y-200660000D03*
X106680000Y-200660000D03*
X109220000Y-200660000D03*
X111760000Y-200660000D03*
X114300000Y-200660000D03*
%TD*%
M02*
