%TF.GenerationSoftware,KiCad,Pcbnew,9.0.0*%
%TF.CreationDate,2025-10-01T11:12:32-04:00*%
%TF.ProjectId,can_gauge_interface,63616e5f-6761-4756-9765-5f696e746572,0.2*%
%TF.SameCoordinates,Original*%
%TF.FileFunction,Paste,Top*%
%TF.FilePolarity,Positive*%
%FSLAX46Y46*%
G04 Gerber Fmt 4.6, Leading zero omitted, Abs format (unit mm)*
G04 Created by KiCad (PCBNEW 9.0.0) date 2025-10-01 11:12:32*
%MOMM*%
%LPD*%
G01*
G04 APERTURE LIST*
G04 Aperture macros list*
%AMRoundRect*
0 Rectangle with rounded corners*
0 $1 Rounding radius*
0 $2 $3 $4 $5 $6 $7 $8 $9 X,Y pos of 4 corners*
0 Add a 4 corners polygon primitive as box body*
4,1,4,$2,$3,$4,$5,$6,$7,$8,$9,$2,$3,0*
0 Add four circle primitives for the rounded corners*
1,1,$1+$1,$2,$3*
1,1,$1+$1,$4,$5*
1,1,$1+$1,$6,$7*
1,1,$1+$1,$8,$9*
0 Add four rect primitives between the rounded corners*
20,1,$1+$1,$2,$3,$4,$5,0*
20,1,$1+$1,$4,$5,$6,$7,0*
20,1,$1+$1,$6,$7,$8,$9,0*
20,1,$1+$1,$8,$9,$2,$3,0*%
G04 Aperture macros list end*
%ADD10R,5.400000X4.900000*%
%ADD11RoundRect,0.250000X-0.325000X-0.650000X0.325000X-0.650000X0.325000X0.650000X-0.325000X0.650000X0*%
%ADD12RoundRect,0.250000X0.250000X0.475000X-0.250000X0.475000X-0.250000X-0.475000X0.250000X-0.475000X0*%
%ADD13RoundRect,0.250000X-0.850000X-0.350000X0.850000X-0.350000X0.850000X0.350000X-0.850000X0.350000X0*%
%ADD14RoundRect,0.250000X-1.275000X-1.125000X1.275000X-1.125000X1.275000X1.125000X-1.275000X1.125000X0*%
%ADD15RoundRect,0.225000X-0.250000X0.225000X-0.250000X-0.225000X0.250000X-0.225000X0.250000X0.225000X0*%
%ADD16RoundRect,0.250000X-0.262500X-0.450000X0.262500X-0.450000X0.262500X0.450000X-0.262500X0.450000X0*%
%ADD17RoundRect,0.225000X-0.225000X-0.250000X0.225000X-0.250000X0.225000X0.250000X-0.225000X0.250000X0*%
%ADD18RoundRect,0.250000X-0.450000X0.262500X-0.450000X-0.262500X0.450000X-0.262500X0.450000X0.262500X0*%
%ADD19RoundRect,0.250000X-0.650000X0.325000X-0.650000X-0.325000X0.650000X-0.325000X0.650000X0.325000X0*%
%ADD20RoundRect,0.250000X0.650000X-1.000000X0.650000X1.000000X-0.650000X1.000000X-0.650000X-1.000000X0*%
%ADD21RoundRect,0.250000X-0.250000X-0.475000X0.250000X-0.475000X0.250000X0.475000X-0.250000X0.475000X0*%
%ADD22R,0.610000X1.910000*%
%ADD23R,0.930000X0.723000*%
%ADD24RoundRect,0.250000X0.650000X-0.325000X0.650000X0.325000X-0.650000X0.325000X-0.650000X-0.325000X0*%
%ADD25RoundRect,0.250000X0.325000X0.650000X-0.325000X0.650000X-0.325000X-0.650000X0.325000X-0.650000X0*%
G04 APERTURE END LIST*
D10*
%TO.C,L1*%
X82550000Y-120200000D03*
X82550000Y-108400000D03*
%TD*%
D11*
%TO.C,C9*%
X102714000Y-119634000D03*
X105664000Y-119634000D03*
%TD*%
D12*
%TO.C,C7*%
X63180000Y-111760000D03*
X61280000Y-111760000D03*
%TD*%
D11*
%TO.C,C19*%
X133448000Y-199644000D03*
X136398000Y-199644000D03*
%TD*%
%TO.C,C18*%
X133448000Y-188849000D03*
X136398000Y-188849000D03*
%TD*%
D13*
%TO.C,U6*%
X101854000Y-112014000D03*
D14*
X106479000Y-112769000D03*
X106479000Y-115819000D03*
X109829000Y-112769000D03*
X109829000Y-115819000D03*
D13*
X101854000Y-116574000D03*
%TD*%
D15*
%TO.C,C4*%
X62865000Y-114655000D03*
X62865000Y-116205000D03*
%TD*%
D16*
%TO.C,R1*%
X62310000Y-105410000D03*
X64135000Y-105410000D03*
%TD*%
D17*
%TO.C,C6*%
X62585000Y-108585000D03*
X64135000Y-108585000D03*
%TD*%
D18*
%TO.C,R2*%
X55245000Y-114380000D03*
X55245000Y-116205000D03*
%TD*%
D19*
%TO.C,C3*%
X69850000Y-108810000D03*
X69850000Y-111760000D03*
%TD*%
D20*
%TO.C,D1*%
X73025000Y-121475000D03*
X73025000Y-117475000D03*
%TD*%
D18*
%TO.C,R3*%
X59055000Y-114380000D03*
X59055000Y-116205000D03*
%TD*%
D19*
%TO.C,C5*%
X73660000Y-108810000D03*
X73660000Y-111760000D03*
%TD*%
D11*
%TO.C,C8*%
X102714000Y-108839000D03*
X105664000Y-108839000D03*
%TD*%
D21*
%TO.C,C2*%
X72710000Y-125095000D03*
X74610000Y-125095000D03*
%TD*%
D22*
%TO.C,U5*%
X69215000Y-114855000D03*
X67945000Y-114855000D03*
X66675000Y-114855000D03*
X65405000Y-114855000D03*
X65405000Y-120415000D03*
X66675000Y-120415000D03*
X67945000Y-120415000D03*
X69215000Y-120415000D03*
D23*
X68085000Y-117032500D03*
X66535000Y-117032500D03*
X68085000Y-118237500D03*
X66535000Y-118237500D03*
%TD*%
D18*
%TO.C,R8*%
X74930000Y-154027500D03*
X74930000Y-155852500D03*
%TD*%
D24*
%TO.C,C11*%
X137160000Y-157890000D03*
X137160000Y-154940000D03*
%TD*%
D13*
%TO.C,U7*%
X132588000Y-192024000D03*
D14*
X137213000Y-192779000D03*
X137213000Y-195829000D03*
X140563000Y-192779000D03*
X140563000Y-195829000D03*
D13*
X132588000Y-196584000D03*
%TD*%
D25*
%TO.C,C1*%
X68580000Y-123825000D03*
X65630000Y-123825000D03*
%TD*%
M02*
