%TF.GenerationSoftware,KiCad,Pcbnew,9.0.0*%
%TF.CreationDate,2025-10-01T16:31:20-04:00*%
%TF.ProjectId,can_gauge_interface,63616e5f-6761-4756-9765-5f696e746572,0.2*%
%TF.SameCoordinates,Original*%
%TF.FileFunction,Soldermask,Bot*%
%TF.FilePolarity,Negative*%
%FSLAX46Y46*%
G04 Gerber Fmt 4.6, Leading zero omitted, Abs format (unit mm)*
G04 Created by KiCad (PCBNEW 9.0.0) date 2025-10-01 16:31:20*
%MOMM*%
%LPD*%
G01*
G04 APERTURE LIST*
G04 Aperture macros list*
%AMRoundRect*
0 Rectangle with rounded corners*
0 $1 Rounding radius*
0 $2 $3 $4 $5 $6 $7 $8 $9 X,Y pos of 4 corners*
0 Add a 4 corners polygon primitive as box body*
4,1,4,$2,$3,$4,$5,$6,$7,$8,$9,$2,$3,0*
0 Add four circle primitives for the rounded corners*
1,1,$1+$1,$2,$3*
1,1,$1+$1,$4,$5*
1,1,$1+$1,$6,$7*
1,1,$1+$1,$8,$9*
0 Add four rect primitives between the rounded corners*
20,1,$1+$1,$2,$3,$4,$5,0*
20,1,$1+$1,$4,$5,$6,$7,0*
20,1,$1+$1,$6,$7,$8,$9,0*
20,1,$1+$1,$8,$9,$2,$3,0*%
G04 Aperture macros list end*
%ADD10C,3.076000*%
%ADD11RoundRect,0.257038X1.630962X-1.130962X1.630962X1.130962X-1.630962X1.130962X-1.630962X-1.130962X0*%
%ADD12O,3.776000X2.776000*%
%ADD13RoundRect,0.038000X-0.704000X0.704000X-0.704000X-0.704000X0.704000X-0.704000X0.704000X0.704000X0*%
%ADD14C,1.484000*%
%ADD15C,3.392000*%
%ADD16RoundRect,0.038000X-0.850000X-0.850000X0.850000X-0.850000X0.850000X0.850000X-0.850000X0.850000X0*%
%ADD17RoundRect,0.038000X0.850000X-0.850000X0.850000X0.850000X-0.850000X0.850000X-0.850000X-0.850000X0*%
%ADD18O,1.776000X1.776000*%
%ADD19C,3.276000*%
%ADD20C,1.676000*%
%ADD21O,1.676000X1.676000*%
%ADD22RoundRect,0.038000X0.850000X0.850000X-0.850000X0.850000X-0.850000X-0.850000X0.850000X-0.850000X0*%
%ADD23RoundRect,0.038000X-0.850000X0.850000X-0.850000X-0.850000X0.850000X-0.850000X0.850000X0.850000X0*%
%ADD24O,3.276000X1.976000*%
%ADD25RoundRect,0.261875X-0.576125X0.576125X-0.576125X-0.576125X0.576125X-0.576125X0.576125X0.576125X0*%
%ADD26RoundRect,0.261875X0.576125X0.576125X-0.576125X0.576125X-0.576125X-0.576125X0.576125X-0.576125X0*%
%ADD27RoundRect,0.261875X-0.576125X-0.576125X0.576125X-0.576125X0.576125X0.576125X-0.576125X0.576125X0*%
%ADD28RoundRect,0.261875X0.576125X-0.576125X0.576125X0.576125X-0.576125X0.576125X-0.576125X-0.576125X0*%
G04 APERTURE END LIST*
D10*
%TO.C,J3*%
X55780000Y-193820000D03*
X55780000Y-185420000D03*
D11*
X63080000Y-193820000D03*
D12*
X63080000Y-189620000D03*
X63080000Y-185420000D03*
X68580000Y-193820000D03*
X68580000Y-189620000D03*
X68580000Y-185420000D03*
%TD*%
D10*
%TO.C,J2*%
X55780000Y-165100000D03*
X55780000Y-152500000D03*
D11*
X63080000Y-165100000D03*
D12*
X63080000Y-160900000D03*
X63080000Y-156700000D03*
X63080000Y-152500000D03*
X68580000Y-165100000D03*
X68580000Y-160900000D03*
X68580000Y-156700000D03*
X68580000Y-152500000D03*
%TD*%
D13*
%TO.C,J1*%
X64770000Y-137160000D03*
D14*
X64770000Y-134660000D03*
X62770000Y-134660000D03*
X62770000Y-137160000D03*
D15*
X60070000Y-129890000D03*
X60070000Y-141930000D03*
%TD*%
D16*
%TO.C,J7*%
X124460000Y-129540000D03*
%TD*%
D17*
%TO.C,J9*%
X81280000Y-127000000D03*
D18*
X83820000Y-127000000D03*
X86360000Y-127000000D03*
X88900000Y-127000000D03*
%TD*%
D19*
%TO.C,H1*%
X55000000Y-202500000D03*
%TD*%
D20*
%TO.C,R10*%
X93980000Y-189230000D03*
D21*
X86360000Y-189230000D03*
%TD*%
D20*
%TO.C,C16*%
X95250000Y-198120000D03*
X95250000Y-200620000D03*
%TD*%
D19*
%TO.C,H2*%
X142500000Y-202500000D03*
%TD*%
D22*
%TO.C,JP2*%
X80010000Y-157480000D03*
D18*
X80010000Y-154940000D03*
%TD*%
D19*
%TO.C,H4*%
X55000000Y-107500000D03*
%TD*%
D20*
%TO.C,R6*%
X106680000Y-161290000D03*
D21*
X114300000Y-161290000D03*
%TD*%
D23*
%TO.C,J8*%
X125730000Y-186690000D03*
D18*
X123190000Y-186690000D03*
%TD*%
D24*
%TO.C,SW1*%
X114300000Y-173910000D03*
X101800000Y-173910000D03*
X114300000Y-168910000D03*
X101800000Y-168910000D03*
%TD*%
D16*
%TO.C,J6*%
X104140000Y-142240000D03*
%TD*%
D20*
%TO.C,R9*%
X129540000Y-139700000D03*
D21*
X129540000Y-132080000D03*
%TD*%
D22*
%TO.C,JP1*%
X142240000Y-119380000D03*
D18*
X142240000Y-116840000D03*
X142240000Y-114300000D03*
%TD*%
D25*
%TO.C,U8*%
X91440000Y-193040000D03*
D20*
X88900000Y-193040000D03*
X86360000Y-193040000D03*
X83820000Y-193040000D03*
X81280000Y-193040000D03*
X78740000Y-193040000D03*
X76200000Y-193040000D03*
X76200000Y-200660000D03*
X78740000Y-200660000D03*
X81280000Y-200660000D03*
X83820000Y-200660000D03*
X86360000Y-200660000D03*
X88900000Y-200660000D03*
X91440000Y-200660000D03*
%TD*%
D26*
%TO.C,U3*%
X93980000Y-162560000D03*
D20*
X93980000Y-160020000D03*
X93980000Y-157480000D03*
X93980000Y-154940000D03*
X86360000Y-154940000D03*
X86360000Y-157480000D03*
X86360000Y-160020000D03*
X86360000Y-162560000D03*
%TD*%
%TO.C,R7*%
X96520000Y-138430000D03*
D21*
X104140000Y-138430000D03*
%TD*%
D17*
%TO.C,J4*%
X124460000Y-106680000D03*
D18*
X127000000Y-106680000D03*
X129540000Y-106680000D03*
X132080000Y-106680000D03*
X134620000Y-106680000D03*
%TD*%
D20*
%TO.C,C14*%
X97790000Y-159980000D03*
X97790000Y-157480000D03*
%TD*%
D17*
%TO.C,J5*%
X110490000Y-129540000D03*
D18*
X113030000Y-129540000D03*
X115570000Y-129540000D03*
%TD*%
D16*
%TO.C,J10*%
X124460000Y-198120000D03*
%TD*%
D27*
%TO.C,U1*%
X127000000Y-152400000D03*
D20*
X127000000Y-154940000D03*
X127000000Y-157480000D03*
X127000000Y-160020000D03*
X127000000Y-162560000D03*
X127000000Y-165100000D03*
X127000000Y-167640000D03*
X127000000Y-170180000D03*
X127000000Y-172720000D03*
X127000000Y-175260000D03*
X134620000Y-175260000D03*
X134620000Y-172720000D03*
X134620000Y-170180000D03*
X134620000Y-167640000D03*
X134620000Y-165100000D03*
X134620000Y-162560000D03*
X134620000Y-160020000D03*
X134620000Y-157480000D03*
X134620000Y-154940000D03*
X134620000Y-152400000D03*
%TD*%
%TO.C,C12*%
X119380000Y-161290000D03*
X119380000Y-163790000D03*
%TD*%
%TO.C,C17*%
X118110000Y-198120000D03*
X118110000Y-200620000D03*
%TD*%
%TO.C,C10*%
X129540000Y-148590000D03*
X132040000Y-148590000D03*
%TD*%
D19*
%TO.C,H3*%
X142500000Y-107500000D03*
%TD*%
D20*
%TO.C,C13*%
X101600000Y-146050000D03*
X104100000Y-146050000D03*
%TD*%
%TO.C,R11*%
X116840000Y-189230000D03*
D21*
X109220000Y-189230000D03*
%TD*%
D28*
%TO.C,U2*%
X101600000Y-157480000D03*
D20*
X104140000Y-157480000D03*
X106680000Y-157480000D03*
X109220000Y-157480000D03*
X111760000Y-157480000D03*
X114300000Y-157480000D03*
X116840000Y-157480000D03*
X119380000Y-157480000D03*
X121920000Y-157480000D03*
X121920000Y-149860000D03*
X119380000Y-149860000D03*
X116840000Y-149860000D03*
X114300000Y-149860000D03*
X111760000Y-149860000D03*
X109220000Y-149860000D03*
X106680000Y-149860000D03*
X104140000Y-149860000D03*
X101600000Y-149860000D03*
%TD*%
D25*
%TO.C,U4*%
X121920000Y-134620000D03*
D20*
X119380000Y-134620000D03*
X116840000Y-134620000D03*
X114300000Y-134620000D03*
X114300000Y-142240000D03*
X116840000Y-142240000D03*
X119380000Y-142240000D03*
X121920000Y-142240000D03*
%TD*%
%TO.C,C15*%
X125730000Y-137200000D03*
X125730000Y-139700000D03*
%TD*%
D25*
%TO.C,U9*%
X114300000Y-193040000D03*
D20*
X111760000Y-193040000D03*
X109220000Y-193040000D03*
X106680000Y-193040000D03*
X104140000Y-193040000D03*
X101600000Y-193040000D03*
X99060000Y-193040000D03*
X99060000Y-200660000D03*
X101600000Y-200660000D03*
X104140000Y-200660000D03*
X106680000Y-200660000D03*
X109220000Y-200660000D03*
X111760000Y-200660000D03*
X114300000Y-200660000D03*
%TD*%
M02*
